<?xml version="1.0" encoding="utf-8"?>
<svg xmlns="http://www.w3.org/2000/svg" xmlns:xlink="http://www.w3.org/1999/xlink" width="528" height="336" viewBox="0 0 2112 1344">
<defs>
  <clipPath id="clip150">
    <rect x="0" y="0" width="2112" height="1344"/>
  </clipPath>
</defs>
<path clip-path="url(#clip150)" d="M0 1344 L2112 1344 L2112 0 L0 0  Z" fill="#ffffff" fill-rule="evenodd" fill-opacity="1"/>
<defs>
  <clipPath id="clip151">
    <rect x="422" y="0" width="1479" height="1344"/>
  </clipPath>
</defs>
<path clip-path="url(#clip150)" d="M183.394 1234.58 L2064.76 1234.58 L2064.76 47.2441 L183.394 47.2441  Z" fill="#ffffff" fill-rule="evenodd" fill-opacity="1"/>
<defs>
  <clipPath id="clip152">
    <rect x="183" y="47" width="1882" height="1188"/>
  </clipPath>
</defs>
<polyline clip-path="url(#clip152)" style="stroke:#000000; stroke-linecap:round; stroke-linejoin:round; stroke-width:2; stroke-opacity:0.1; fill:none" points="236.64,1234.58 236.64,47.2441 "/>
<polyline clip-path="url(#clip152)" style="stroke:#000000; stroke-linecap:round; stroke-linejoin:round; stroke-width:2; stroke-opacity:0.1; fill:none" points="532.452,1234.58 532.452,47.2441 "/>
<polyline clip-path="url(#clip152)" style="stroke:#000000; stroke-linecap:round; stroke-linejoin:round; stroke-width:2; stroke-opacity:0.1; fill:none" points="828.263,1234.58 828.263,47.2441 "/>
<polyline clip-path="url(#clip152)" style="stroke:#000000; stroke-linecap:round; stroke-linejoin:round; stroke-width:2; stroke-opacity:0.1; fill:none" points="1124.07,1234.58 1124.07,47.2441 "/>
<polyline clip-path="url(#clip152)" style="stroke:#000000; stroke-linecap:round; stroke-linejoin:round; stroke-width:2; stroke-opacity:0.1; fill:none" points="1419.89,1234.58 1419.89,47.2441 "/>
<polyline clip-path="url(#clip152)" style="stroke:#000000; stroke-linecap:round; stroke-linejoin:round; stroke-width:2; stroke-opacity:0.1; fill:none" points="1715.7,1234.58 1715.7,47.2441 "/>
<polyline clip-path="url(#clip152)" style="stroke:#000000; stroke-linecap:round; stroke-linejoin:round; stroke-width:2; stroke-opacity:0.1; fill:none" points="2011.51,1234.58 2011.51,47.2441 "/>
<polyline clip-path="url(#clip150)" style="stroke:#000000; stroke-linecap:round; stroke-linejoin:round; stroke-width:4; stroke-opacity:1; fill:none" points="183.394,1234.58 2064.76,1234.58 "/>
<polyline clip-path="url(#clip150)" style="stroke:#000000; stroke-linecap:round; stroke-linejoin:round; stroke-width:4; stroke-opacity:1; fill:none" points="236.64,1234.58 236.64,1215.68 "/>
<polyline clip-path="url(#clip150)" style="stroke:#000000; stroke-linecap:round; stroke-linejoin:round; stroke-width:4; stroke-opacity:1; fill:none" points="532.452,1234.58 532.452,1215.68 "/>
<polyline clip-path="url(#clip150)" style="stroke:#000000; stroke-linecap:round; stroke-linejoin:round; stroke-width:4; stroke-opacity:1; fill:none" points="828.263,1234.58 828.263,1215.68 "/>
<polyline clip-path="url(#clip150)" style="stroke:#000000; stroke-linecap:round; stroke-linejoin:round; stroke-width:4; stroke-opacity:1; fill:none" points="1124.07,1234.58 1124.07,1215.68 "/>
<polyline clip-path="url(#clip150)" style="stroke:#000000; stroke-linecap:round; stroke-linejoin:round; stroke-width:4; stroke-opacity:1; fill:none" points="1419.89,1234.58 1419.89,1215.68 "/>
<polyline clip-path="url(#clip150)" style="stroke:#000000; stroke-linecap:round; stroke-linejoin:round; stroke-width:4; stroke-opacity:1; fill:none" points="1715.7,1234.58 1715.7,1215.68 "/>
<polyline clip-path="url(#clip150)" style="stroke:#000000; stroke-linecap:round; stroke-linejoin:round; stroke-width:4; stroke-opacity:1; fill:none" points="2011.51,1234.58 2011.51,1215.68 "/>
<path clip-path="url(#clip150)" d="M206.108 1277.85 L235.784 1277.85 L235.784 1281.78 L206.108 1281.78 L206.108 1277.85 Z" fill="#000000" fill-rule="nonzero" fill-opacity="1" /><path clip-path="url(#clip150)" d="M260.043 1276.04 Q263.399 1276.76 265.274 1279.03 Q267.172 1281.3 267.172 1284.63 Q267.172 1289.74 263.654 1292.55 Q260.135 1295.35 253.654 1295.35 Q251.478 1295.35 249.163 1294.91 Q246.872 1294.49 244.418 1293.63 L244.418 1289.12 Q246.362 1290.25 248.677 1290.83 Q250.992 1291.41 253.515 1291.41 Q257.913 1291.41 260.205 1289.67 Q262.52 1287.94 262.52 1284.63 Q262.52 1281.57 260.367 1279.86 Q258.237 1278.12 254.418 1278.12 L250.39 1278.12 L250.39 1274.28 L254.603 1274.28 Q258.052 1274.28 259.881 1272.92 Q261.709 1271.53 261.709 1268.93 Q261.709 1266.27 259.811 1264.86 Q257.936 1263.42 254.418 1263.42 Q252.496 1263.42 250.297 1263.84 Q248.098 1264.26 245.459 1265.14 L245.459 1260.97 Q248.122 1260.23 250.436 1259.86 Q252.774 1259.49 254.834 1259.49 Q260.158 1259.49 263.26 1261.92 Q266.362 1264.33 266.362 1268.45 Q266.362 1271.32 264.719 1273.31 Q263.075 1275.28 260.043 1276.04 Z" fill="#000000" fill-rule="nonzero" fill-opacity="1" /><path clip-path="url(#clip150)" d="M502.394 1277.85 L532.07 1277.85 L532.07 1281.78 L502.394 1281.78 L502.394 1277.85 Z" fill="#000000" fill-rule="nonzero" fill-opacity="1" /><path clip-path="url(#clip150)" d="M546.19 1290.74 L562.509 1290.74 L562.509 1294.67 L540.565 1294.67 L540.565 1290.74 Q543.227 1287.99 547.81 1283.36 Q552.417 1278.7 553.597 1277.36 Q555.843 1274.84 556.722 1273.1 Q557.625 1271.34 557.625 1269.65 Q557.625 1266.9 555.681 1265.16 Q553.759 1263.42 550.658 1263.42 Q548.459 1263.42 546.005 1264.19 Q543.574 1264.95 540.797 1266.5 L540.797 1261.78 Q543.621 1260.65 546.074 1260.07 Q548.528 1259.49 550.565 1259.49 Q555.935 1259.49 559.13 1262.17 Q562.324 1264.86 562.324 1269.35 Q562.324 1271.48 561.514 1273.4 Q560.727 1275.3 558.621 1277.89 Q558.042 1278.56 554.94 1281.78 Q551.838 1284.98 546.19 1290.74 Z" fill="#000000" fill-rule="nonzero" fill-opacity="1" /><path clip-path="url(#clip150)" d="M798.02 1277.85 L827.696 1277.85 L827.696 1281.78 L798.02 1281.78 L798.02 1277.85 Z" fill="#000000" fill-rule="nonzero" fill-opacity="1" /><path clip-path="url(#clip150)" d="M838.599 1290.74 L846.238 1290.74 L846.238 1264.37 L837.928 1266.04 L837.928 1261.78 L846.191 1260.11 L850.867 1260.11 L850.867 1290.74 L858.506 1290.74 L858.506 1294.67 L838.599 1294.67 L838.599 1290.74 Z" fill="#000000" fill-rule="nonzero" fill-opacity="1" /><path clip-path="url(#clip150)" d="M1124.07 1263.19 Q1120.46 1263.19 1118.64 1266.76 Q1116.83 1270.3 1116.83 1277.43 Q1116.83 1284.54 1118.64 1288.1 Q1120.46 1291.64 1124.07 1291.64 Q1127.71 1291.64 1129.51 1288.1 Q1131.34 1284.54 1131.34 1277.43 Q1131.34 1270.3 1129.51 1266.76 Q1127.71 1263.19 1124.07 1263.19 M1124.07 1259.49 Q1129.89 1259.49 1132.94 1264.1 Q1136.02 1268.68 1136.02 1277.43 Q1136.02 1286.16 1132.94 1290.76 Q1129.89 1295.35 1124.07 1295.35 Q1118.26 1295.35 1115.19 1290.76 Q1112.13 1286.16 1112.13 1277.43 Q1112.13 1268.68 1115.19 1264.1 Q1118.26 1259.49 1124.07 1259.49 Z" fill="#000000" fill-rule="nonzero" fill-opacity="1" /><path clip-path="url(#clip150)" d="M1410.27 1290.74 L1417.91 1290.74 L1417.91 1264.37 L1409.6 1266.04 L1409.6 1261.78 L1417.86 1260.11 L1422.54 1260.11 L1422.54 1290.74 L1430.18 1290.74 L1430.18 1294.67 L1410.27 1294.67 L1410.27 1290.74 Z" fill="#000000" fill-rule="nonzero" fill-opacity="1" /><path clip-path="url(#clip150)" d="M1710.35 1290.74 L1726.67 1290.74 L1726.67 1294.67 L1704.73 1294.67 L1704.73 1290.74 Q1707.39 1287.99 1711.97 1283.36 Q1716.58 1278.7 1717.76 1277.36 Q1720 1274.84 1720.88 1273.1 Q1721.79 1271.34 1721.79 1269.65 Q1721.79 1266.9 1719.84 1265.16 Q1717.92 1263.42 1714.82 1263.42 Q1712.62 1263.42 1710.17 1264.19 Q1707.74 1264.95 1704.96 1266.5 L1704.96 1261.78 Q1707.78 1260.65 1710.24 1260.07 Q1712.69 1259.49 1714.73 1259.49 Q1720.1 1259.49 1723.29 1262.17 Q1726.49 1264.86 1726.49 1269.35 Q1726.49 1271.48 1725.67 1273.4 Q1724.89 1275.3 1722.78 1277.89 Q1722.2 1278.56 1719.1 1281.78 Q1716 1284.98 1710.35 1290.74 Z" fill="#000000" fill-rule="nonzero" fill-opacity="1" /><path clip-path="url(#clip150)" d="M2015.76 1276.04 Q2019.11 1276.76 2020.99 1279.03 Q2022.89 1281.3 2022.89 1284.63 Q2022.89 1289.74 2019.37 1292.55 Q2015.85 1295.35 2009.37 1295.35 Q2007.19 1295.35 2004.88 1294.91 Q2002.59 1294.49 2000.13 1293.63 L2000.13 1289.12 Q2002.08 1290.25 2004.39 1290.83 Q2006.71 1291.41 2009.23 1291.41 Q2013.63 1291.41 2015.92 1289.67 Q2018.23 1287.94 2018.23 1284.63 Q2018.23 1281.57 2016.08 1279.86 Q2013.95 1278.12 2010.13 1278.12 L2006.1 1278.12 L2006.1 1274.28 L2010.32 1274.28 Q2013.77 1274.28 2015.6 1272.92 Q2017.42 1271.53 2017.42 1268.93 Q2017.42 1266.27 2015.53 1264.86 Q2013.65 1263.42 2010.13 1263.42 Q2008.21 1263.42 2006.01 1263.84 Q2003.81 1264.26 2001.17 1265.14 L2001.17 1260.97 Q2003.84 1260.23 2006.15 1259.86 Q2008.49 1259.49 2010.55 1259.49 Q2015.87 1259.49 2018.98 1261.92 Q2022.08 1264.33 2022.08 1268.45 Q2022.08 1271.32 2020.43 1273.31 Q2018.79 1275.28 2015.76 1276.04 Z" fill="#000000" fill-rule="nonzero" fill-opacity="1" /><polyline clip-path="url(#clip152)" style="stroke:#000000; stroke-linecap:round; stroke-linejoin:round; stroke-width:2; stroke-opacity:0.1; fill:none" points="183.394,1202.04 2064.76,1202.04 "/>
<polyline clip-path="url(#clip152)" style="stroke:#000000; stroke-linecap:round; stroke-linejoin:round; stroke-width:2; stroke-opacity:0.1; fill:none" points="183.394,921.666 2064.76,921.666 "/>
<polyline clip-path="url(#clip152)" style="stroke:#000000; stroke-linecap:round; stroke-linejoin:round; stroke-width:2; stroke-opacity:0.1; fill:none" points="183.394,641.287 2064.76,641.287 "/>
<polyline clip-path="url(#clip152)" style="stroke:#000000; stroke-linecap:round; stroke-linejoin:round; stroke-width:2; stroke-opacity:0.1; fill:none" points="183.394,360.909 2064.76,360.909 "/>
<polyline clip-path="url(#clip152)" style="stroke:#000000; stroke-linecap:round; stroke-linejoin:round; stroke-width:2; stroke-opacity:0.1; fill:none" points="183.394,80.5307 2064.76,80.5307 "/>
<polyline clip-path="url(#clip150)" style="stroke:#000000; stroke-linecap:round; stroke-linejoin:round; stroke-width:4; stroke-opacity:1; fill:none" points="183.394,1234.58 183.394,47.2441 "/>
<polyline clip-path="url(#clip150)" style="stroke:#000000; stroke-linecap:round; stroke-linejoin:round; stroke-width:4; stroke-opacity:1; fill:none" points="183.394,1202.04 202.292,1202.04 "/>
<polyline clip-path="url(#clip150)" style="stroke:#000000; stroke-linecap:round; stroke-linejoin:round; stroke-width:4; stroke-opacity:1; fill:none" points="183.394,921.666 202.292,921.666 "/>
<polyline clip-path="url(#clip150)" style="stroke:#000000; stroke-linecap:round; stroke-linejoin:round; stroke-width:4; stroke-opacity:1; fill:none" points="183.394,641.287 202.292,641.287 "/>
<polyline clip-path="url(#clip150)" style="stroke:#000000; stroke-linecap:round; stroke-linejoin:round; stroke-width:4; stroke-opacity:1; fill:none" points="183.394,360.909 202.292,360.909 "/>
<polyline clip-path="url(#clip150)" style="stroke:#000000; stroke-linecap:round; stroke-linejoin:round; stroke-width:4; stroke-opacity:1; fill:none" points="183.394,80.5307 202.292,80.5307 "/>
<path clip-path="url(#clip150)" d="M64.3765 1187.84 Q60.7654 1187.84 58.9367 1191.41 Q57.1312 1194.95 57.1312 1202.08 Q57.1312 1209.19 58.9367 1212.75 Q60.7654 1216.29 64.3765 1216.29 Q68.0107 1216.29 69.8163 1212.75 Q71.645 1209.19 71.645 1202.08 Q71.645 1194.95 69.8163 1191.41 Q68.0107 1187.84 64.3765 1187.84 M64.3765 1184.14 Q70.1867 1184.14 73.2422 1188.75 Q76.3209 1193.33 76.3209 1202.08 Q76.3209 1210.81 73.2422 1215.41 Q70.1867 1220 64.3765 1220 Q58.5664 1220 55.4877 1215.41 Q52.4321 1210.81 52.4321 1202.08 Q52.4321 1193.33 55.4877 1188.75 Q58.5664 1184.14 64.3765 1184.14 Z" fill="#000000" fill-rule="nonzero" fill-opacity="1" /><path clip-path="url(#clip150)" d="M84.5384 1213.44 L89.4227 1213.44 L89.4227 1219.32 L84.5384 1219.32 L84.5384 1213.44 Z" fill="#000000" fill-rule="nonzero" fill-opacity="1" /><path clip-path="url(#clip150)" d="M109.608 1187.84 Q105.997 1187.84 104.168 1191.41 Q102.362 1194.95 102.362 1202.08 Q102.362 1209.19 104.168 1212.75 Q105.997 1216.29 109.608 1216.29 Q113.242 1216.29 115.048 1212.75 Q116.876 1209.19 116.876 1202.08 Q116.876 1194.95 115.048 1191.41 Q113.242 1187.84 109.608 1187.84 M109.608 1184.14 Q115.418 1184.14 118.473 1188.75 Q121.552 1193.33 121.552 1202.08 Q121.552 1210.81 118.473 1215.41 Q115.418 1220 109.608 1220 Q103.798 1220 100.719 1215.41 Q97.6634 1210.81 97.6634 1202.08 Q97.6634 1193.33 100.719 1188.75 Q103.798 1184.14 109.608 1184.14 Z" fill="#000000" fill-rule="nonzero" fill-opacity="1" /><path clip-path="url(#clip150)" d="M139.77 1187.84 Q136.159 1187.84 134.33 1191.41 Q132.524 1194.95 132.524 1202.08 Q132.524 1209.19 134.33 1212.75 Q136.159 1216.29 139.77 1216.29 Q143.404 1216.29 145.209 1212.75 Q147.038 1209.19 147.038 1202.08 Q147.038 1194.95 145.209 1191.41 Q143.404 1187.84 139.77 1187.84 M139.77 1184.14 Q145.58 1184.14 148.635 1188.75 Q151.714 1193.33 151.714 1202.08 Q151.714 1210.81 148.635 1215.41 Q145.58 1220 139.77 1220 Q133.959 1220 130.881 1215.41 Q127.825 1210.81 127.825 1202.08 Q127.825 1193.33 130.881 1188.75 Q133.959 1184.14 139.77 1184.14 Z" fill="#000000" fill-rule="nonzero" fill-opacity="1" /><path clip-path="url(#clip150)" d="M65.3719 907.465 Q61.7608 907.465 59.9321 911.029 Q58.1265 914.571 58.1265 921.701 Q58.1265 928.807 59.9321 932.372 Q61.7608 935.913 65.3719 935.913 Q69.0061 935.913 70.8117 932.372 Q72.6404 928.807 72.6404 921.701 Q72.6404 914.571 70.8117 911.029 Q69.0061 907.465 65.3719 907.465 M65.3719 903.761 Q71.182 903.761 74.2376 908.367 Q77.3163 912.951 77.3163 921.701 Q77.3163 930.427 74.2376 935.034 Q71.182 939.617 65.3719 939.617 Q59.5617 939.617 56.483 935.034 Q53.4275 930.427 53.4275 921.701 Q53.4275 912.951 56.483 908.367 Q59.5617 903.761 65.3719 903.761 Z" fill="#000000" fill-rule="nonzero" fill-opacity="1" /><path clip-path="url(#clip150)" d="M85.5338 933.066 L90.418 933.066 L90.418 938.946 L85.5338 938.946 L85.5338 933.066 Z" fill="#000000" fill-rule="nonzero" fill-opacity="1" /><path clip-path="url(#clip150)" d="M104.631 935.011 L120.95 935.011 L120.95 938.946 L99.006 938.946 L99.006 935.011 Q101.668 932.256 106.251 927.626 Q110.858 922.974 112.038 921.631 Q114.284 919.108 115.163 917.372 Q116.066 915.613 116.066 913.923 Q116.066 911.168 114.122 909.432 Q112.2 907.696 109.098 907.696 Q106.899 907.696 104.446 908.46 Q102.015 909.224 99.2374 910.775 L99.2374 906.052 Q102.061 904.918 104.515 904.34 Q106.969 903.761 109.006 903.761 Q114.376 903.761 117.571 906.446 Q120.765 909.131 120.765 913.622 Q120.765 915.751 119.955 917.673 Q119.168 919.571 117.061 922.164 Q116.483 922.835 113.381 926.052 Q110.279 929.247 104.631 935.011 Z" fill="#000000" fill-rule="nonzero" fill-opacity="1" /><path clip-path="url(#clip150)" d="M130.811 904.386 L149.168 904.386 L149.168 908.321 L135.094 908.321 L135.094 916.793 Q136.112 916.446 137.131 916.284 Q138.149 916.099 139.168 916.099 Q144.955 916.099 148.334 919.27 Q151.714 922.441 151.714 927.858 Q151.714 933.437 148.242 936.538 Q144.77 939.617 138.45 939.617 Q136.274 939.617 134.006 939.247 Q131.76 938.876 129.353 938.136 L129.353 933.437 Q131.436 934.571 133.659 935.126 Q135.881 935.682 138.358 935.682 Q142.362 935.682 144.7 933.575 Q147.038 931.469 147.038 927.858 Q147.038 924.247 144.7 922.14 Q142.362 920.034 138.358 920.034 Q136.483 920.034 134.608 920.451 Q132.756 920.867 130.811 921.747 L130.811 904.386 Z" fill="#000000" fill-rule="nonzero" fill-opacity="1" /><path clip-path="url(#clip150)" d="M64.3765 627.086 Q60.7654 627.086 58.9367 630.651 Q57.1312 634.193 57.1312 641.322 Q57.1312 648.429 58.9367 651.993 Q60.7654 655.535 64.3765 655.535 Q68.0107 655.535 69.8163 651.993 Q71.645 648.429 71.645 641.322 Q71.645 634.193 69.8163 630.651 Q68.0107 627.086 64.3765 627.086 M64.3765 623.382 Q70.1867 623.382 73.2422 627.989 Q76.3209 632.572 76.3209 641.322 Q76.3209 650.049 73.2422 654.655 Q70.1867 659.239 64.3765 659.239 Q58.5664 659.239 55.4877 654.655 Q52.4321 650.049 52.4321 641.322 Q52.4321 632.572 55.4877 627.989 Q58.5664 623.382 64.3765 623.382 Z" fill="#000000" fill-rule="nonzero" fill-opacity="1" /><path clip-path="url(#clip150)" d="M84.5384 652.688 L89.4227 652.688 L89.4227 658.567 L84.5384 658.567 L84.5384 652.688 Z" fill="#000000" fill-rule="nonzero" fill-opacity="1" /><path clip-path="url(#clip150)" d="M99.6541 624.007 L118.01 624.007 L118.01 627.943 L103.936 627.943 L103.936 636.415 Q104.955 636.068 105.974 635.906 Q106.992 635.72 108.011 635.72 Q113.798 635.72 117.177 638.892 Q120.557 642.063 120.557 647.48 Q120.557 653.058 117.085 656.16 Q113.612 659.239 107.293 659.239 Q105.117 659.239 102.849 658.868 Q100.603 658.498 98.1958 657.757 L98.1958 653.058 Q100.279 654.192 102.501 654.748 Q104.724 655.304 107.2 655.304 Q111.205 655.304 113.543 653.197 Q115.881 651.091 115.881 647.48 Q115.881 643.868 113.543 641.762 Q111.205 639.655 107.2 639.655 Q105.325 639.655 103.45 640.072 Q101.599 640.489 99.6541 641.368 L99.6541 624.007 Z" fill="#000000" fill-rule="nonzero" fill-opacity="1" /><path clip-path="url(#clip150)" d="M139.77 627.086 Q136.159 627.086 134.33 630.651 Q132.524 634.193 132.524 641.322 Q132.524 648.429 134.33 651.993 Q136.159 655.535 139.77 655.535 Q143.404 655.535 145.209 651.993 Q147.038 648.429 147.038 641.322 Q147.038 634.193 145.209 630.651 Q143.404 627.086 139.77 627.086 M139.77 623.382 Q145.58 623.382 148.635 627.989 Q151.714 632.572 151.714 641.322 Q151.714 650.049 148.635 654.655 Q145.58 659.239 139.77 659.239 Q133.959 659.239 130.881 654.655 Q127.825 650.049 127.825 641.322 Q127.825 632.572 130.881 627.989 Q133.959 623.382 139.77 623.382 Z" fill="#000000" fill-rule="nonzero" fill-opacity="1" /><path clip-path="url(#clip150)" d="M65.3719 346.708 Q61.7608 346.708 59.9321 350.273 Q58.1265 353.814 58.1265 360.944 Q58.1265 368.05 59.9321 371.615 Q61.7608 375.157 65.3719 375.157 Q69.0061 375.157 70.8117 371.615 Q72.6404 368.05 72.6404 360.944 Q72.6404 353.814 70.8117 350.273 Q69.0061 346.708 65.3719 346.708 M65.3719 343.004 Q71.182 343.004 74.2376 347.611 Q77.3163 352.194 77.3163 360.944 Q77.3163 369.671 74.2376 374.277 Q71.182 378.86 65.3719 378.86 Q59.5617 378.86 56.483 374.277 Q53.4275 369.671 53.4275 360.944 Q53.4275 352.194 56.483 347.611 Q59.5617 343.004 65.3719 343.004 Z" fill="#000000" fill-rule="nonzero" fill-opacity="1" /><path clip-path="url(#clip150)" d="M85.5338 372.309 L90.418 372.309 L90.418 378.189 L85.5338 378.189 L85.5338 372.309 Z" fill="#000000" fill-rule="nonzero" fill-opacity="1" /><path clip-path="url(#clip150)" d="M99.4226 343.629 L121.645 343.629 L121.645 345.62 L109.098 378.189 L104.214 378.189 L116.02 347.564 L99.4226 347.564 L99.4226 343.629 Z" fill="#000000" fill-rule="nonzero" fill-opacity="1" /><path clip-path="url(#clip150)" d="M130.811 343.629 L149.168 343.629 L149.168 347.564 L135.094 347.564 L135.094 356.036 Q136.112 355.689 137.131 355.527 Q138.149 355.342 139.168 355.342 Q144.955 355.342 148.334 358.513 Q151.714 361.685 151.714 367.101 Q151.714 372.68 148.242 375.782 Q144.77 378.86 138.45 378.86 Q136.274 378.86 134.006 378.49 Q131.76 378.12 129.353 377.379 L129.353 372.68 Q131.436 373.814 133.659 374.37 Q135.881 374.925 138.358 374.925 Q142.362 374.925 144.7 372.819 Q147.038 370.712 147.038 367.101 Q147.038 363.49 144.7 361.384 Q142.362 359.277 138.358 359.277 Q136.483 359.277 134.608 359.694 Q132.756 360.11 130.811 360.99 L130.811 343.629 Z" fill="#000000" fill-rule="nonzero" fill-opacity="1" /><path clip-path="url(#clip150)" d="M55.1867 93.8755 L62.8256 93.8755 L62.8256 67.5099 L54.5154 69.1766 L54.5154 64.9173 L62.7793 63.2507 L67.4552 63.2507 L67.4552 93.8755 L75.094 93.8755 L75.094 97.8107 L55.1867 97.8107 L55.1867 93.8755 Z" fill="#000000" fill-rule="nonzero" fill-opacity="1" /><path clip-path="url(#clip150)" d="M84.5384 91.9311 L89.4227 91.9311 L89.4227 97.8107 L84.5384 97.8107 L84.5384 91.9311 Z" fill="#000000" fill-rule="nonzero" fill-opacity="1" /><path clip-path="url(#clip150)" d="M109.608 66.3293 Q105.997 66.3293 104.168 69.8941 Q102.362 73.4358 102.362 80.5654 Q102.362 87.6718 104.168 91.2366 Q105.997 94.7783 109.608 94.7783 Q113.242 94.7783 115.048 91.2366 Q116.876 87.6718 116.876 80.5654 Q116.876 73.4358 115.048 69.8941 Q113.242 66.3293 109.608 66.3293 M109.608 62.6257 Q115.418 62.6257 118.473 67.2321 Q121.552 71.8154 121.552 80.5654 Q121.552 89.2922 118.473 93.8986 Q115.418 98.482 109.608 98.482 Q103.798 98.482 100.719 93.8986 Q97.6634 89.2922 97.6634 80.5654 Q97.6634 71.8154 100.719 67.2321 Q103.798 62.6257 109.608 62.6257 Z" fill="#000000" fill-rule="nonzero" fill-opacity="1" /><path clip-path="url(#clip150)" d="M139.77 66.3293 Q136.159 66.3293 134.33 69.8941 Q132.524 73.4358 132.524 80.5654 Q132.524 87.6718 134.33 91.2366 Q136.159 94.7783 139.77 94.7783 Q143.404 94.7783 145.209 91.2366 Q147.038 87.6718 147.038 80.5654 Q147.038 73.4358 145.209 69.8941 Q143.404 66.3293 139.77 66.3293 M139.77 62.6257 Q145.58 62.6257 148.635 67.2321 Q151.714 71.8154 151.714 80.5654 Q151.714 89.2922 148.635 93.8986 Q145.58 98.482 139.77 98.482 Q133.959 98.482 130.881 93.8986 Q127.825 89.2922 127.825 80.5654 Q127.825 71.8154 130.881 67.2321 Q133.959 62.6257 139.77 62.6257 Z" fill="#000000" fill-rule="nonzero" fill-opacity="1" /><polyline clip-path="url(#clip152)" style="stroke:#009af9; stroke-linecap:round; stroke-linejoin:round; stroke-width:4; stroke-opacity:1; fill:none" points="236.64,551.151 239.598,251.483 242.556,929.54 245.514,698.461 248.473,411.105 251.431,964.333 254.389,380.65 257.347,414.239 260.305,704.252 263.263,363.211 266.221,500.661 269.179,929.401 272.137,164.176 275.096,232.633 278.054,941.964 281.012,804.341 283.97,740.372 286.928,749.212 289.886,660.022 292.844,991.741 295.802,910.878 298.761,1200.97 301.719,215.768 304.677,1107.01 307.635,974.815 310.593,797.562 313.551,469.456 316.509,903.524 319.467,806.284 322.425,837.951 325.384,1060.04 328.342,748.777 331.3,703.866 334.258,1088.21 337.216,852.12 340.174,321.775 343.132,688.475 346.09,1171.14 349.049,976.136 352.007,1199.95 354.965,884.335 357.923,431.612 360.881,95.3243 363.839,1134.63 366.797,436.287 369.755,867.262 372.713,800.888 375.672,93.5164 378.63,1199.05 381.588,1093.22 384.546,226.26 387.504,340.164 390.462,740.174 393.42,839.149 396.378,710.914 399.336,465.79 402.295,1141.44 405.253,749.656 408.211,1098.3 411.169,554.813 414.127,138.491 417.085,241.684 420.043,961.742 423.001,189.137 425.96,1005.62 428.918,600.252 431.876,243.815 434.834,612.5 437.792,293.94 440.75,716.77 443.708,836.816 446.666,1002.55 449.624,684.497 452.583,761.719 455.541,394.661 458.499,486.842 461.457,470.203 464.415,149.714 467.373,331.821 470.331,673.631 473.289,786.147 476.248,406.826 479.206,654.7 482.164,298.018 485.122,201.609 488.08,322.068 491.038,501.687 493.996,1021.21 496.954,739.594 499.912,252.964 502.871,788.743 505.829,618.333 508.787,389.315 511.745,315.466 514.703,406.63 517.661,928.798 520.619,204.949 523.577,1073.39 526.535,493.402 529.494,621.587 532.452,1086.23 535.41,548.996 538.368,879.931 541.326,457.508 544.284,998.35 547.242,309.087 550.2,172.982 553.159,769.905 556.117,917.08 559.075,844.418 562.033,765.476 564.991,1098.42 567.949,536.541 570.907,602.913 573.865,963.566 576.823,581.284 579.782,269.363 582.74,858.872 585.698,893.089 588.656,1119.16 591.614,169.234 594.572,634.322 597.53,177.919 600.488,949.105 603.447,829.12 606.405,80.8479 609.363,601.455 612.321,517.226 615.279,512.601 618.237,604.343 621.195,462.439 624.153,1148.87 627.111,1025.54 630.07,563.353 633.028,881.483 635.986,1188.72 638.944,248.288 641.902,375.069 644.86,204.533 647.818,1129.67 650.776,599.488 653.734,474.324 656.693,1026.64 659.651,895.992 662.609,557.727 665.567,223.949 668.525,1011.2 671.483,951.233 674.441,331.31 677.399,973.545 680.358,671.145 683.316,1145.23 686.274,88.5002 689.232,820.391 692.19,1120.96 695.148,731.645 698.106,1189.54 701.064,92.3718 704.022,1027.28 706.981,592.761 709.939,236.949 712.897,645.299 715.855,169.831 718.813,585.479 721.771,175.763 724.729,617.888 727.687,754.477 730.645,368.338 733.604,632.993 736.562,598.387 739.52,174.65 742.478,1102.64 745.436,993.079 748.394,630.564 751.352,535.892 754.31,741.354 757.269,484.664 760.227,454.861 763.185,1013.37 766.143,741.228 769.101,885.111 772.059,345.453 775.017,228.873 777.975,895.825 780.933,309.997 783.892,229.007 786.85,1085.96 789.808,829.714 792.766,372.489 795.724,1050.28 798.682,1132.83 801.64,548.573 804.598,301.371 807.557,146.864 810.515,1074.75 813.473,142.61 816.431,1018.67 819.389,806.506 822.347,848.182 825.305,303.503 828.263,786.65 831.221,745.845 834.18,785.953 837.138,1074.01 840.096,881.566 843.054,523.839 846.012,299.828 848.97,1183.77 851.928,642.474 854.886,645.793 857.844,118.451 860.803,250.57 863.761,117.064 866.719,1143.12 869.677,1129.85 872.635,687.083 875.593,649.214 878.551,99.5259 881.509,1018.51 884.468,843.572 887.426,1050.54 890.384,1147.12 893.342,395.205 896.3,487.701 899.258,875.962 902.216,672.934 905.174,586.584 908.132,106.661 911.091,779.186 914.049,803.59 917.007,1087.93 919.965,424.869 922.923,524.204 925.881,429.351 928.839,543.888 931.797,794.408 934.756,118.816 937.714,94.4855 940.672,558.317 943.63,480.742 946.588,1151.71 949.546,97.2053 952.504,1102.19 955.462,386.756 958.42,615.9 961.379,809.176 964.337,999.89 967.295,660.073 970.253,884.707 973.211,886.586 976.169,796.898 979.127,1176.68 982.085,391.864 985.043,357.844 988.002,735.417 990.96,86.347 993.918,479.712 996.876,1163.98 999.834,532.311 1002.79,1142.61 1005.75,794.542 1008.71,940.663 1011.67,202.234 1014.62,523.375 1017.58,1150.56 1020.54,447.861 1023.5,391.37 1026.46,905.635 1029.42,254.031 1032.37,713.748 1035.33,915.944 1038.29,932.048 1041.25,647.529 1044.21,1109.69 1047.16,106.355 1050.12,139.899 1053.08,237.503 1056.04,800.78 1059,1094.88 1061.95,186.017 1064.91,1041.71 1067.87,936.231 1070.83,355.028 1073.79,1092.09 1076.75,457.74 1079.7,763.805 1082.66,1182.3 1085.62,121.532 1088.58,541.994 1091.54,422.829 1094.49,812.486 1097.45,875.837 1100.41,478.109 1103.37,1045.94 1106.33,1169.37 1109.28,194.454 1112.24,1086.13 1115.2,423.583 1118.16,303.966 1121.12,156.32 1124.07,899.601 1127.03,1056.47 1129.99,656.167 1132.95,703.528 1135.91,906.024 1138.87,853.724 1141.82,363.68 1144.78,1039.96 1147.74,891.564 1150.7,959.571 1153.66,985.497 1156.61,167.851 1159.57,469.775 1162.53,290.886 1165.49,417.9 1168.45,950.495 1171.4,227.618 1174.36,716.97 1177.32,878.823 1180.28,151.828 1183.24,218.651 1186.2,338.585 1189.15,539.248 1192.11,956.625 1195.07,1056.53 1198.03,395.833 1200.99,1110.45 1203.94,238.348 1206.9,444.927 1209.86,1172.51 1212.82,1193.7 1215.78,327.317 1218.73,429.02 1221.69,805.026 1224.65,650.488 1227.61,486.652 1230.57,380.286 1233.53,437.719 1236.48,1166.8 1239.44,276.606 1242.4,765.575 1245.36,836.236 1248.32,96.9903 1251.27,294.85 1254.23,759.48 1257.19,90.1694 1260.15,1006.79 1263.11,636.408 1266.06,704.05 1269.02,291.481 1271.98,749.931 1274.94,1036.08 1277.9,189.601 1280.86,373.804 1283.81,605.387 1286.77,418.335 1289.73,861.44 1292.69,1094.61 1295.65,785.489 1298.6,121.336 1301.56,1104.1 1304.52,803.602 1307.48,832.247 1310.44,1138.09 1313.39,478.283 1316.35,383.914 1319.31,1143.37 1322.27,693.633 1325.23,334.509 1328.18,402.647 1331.14,820.363 1334.1,466.738 1337.06,1150.69 1340.02,1115.73 1342.98,659.713 1345.93,128.309 1348.89,417.753 1351.85,962.633 1354.81,523.144 1357.77,566.688 1360.72,812.528 1363.68,600.459 1366.64,1064.45 1369.6,555.846 1372.56,1177.46 1375.51,274.424 1378.47,87.4395 1381.43,1012.54 1384.39,954.334 1387.35,703.585 1390.31,743.931 1393.26,908.45 1396.22,372.87 1399.18,100.257 1402.14,875.773 1405.1,868.779 1408.05,325.86 1411.01,1045.14 1413.97,1194.72 1416.93,489.731 1419.89,752.839 1422.84,88.2972 1425.8,153.131 1428.76,271.737 1431.72,167.039 1434.68,1049.48 1437.64,178.924 1440.59,1023.99 1443.55,943.799 1446.51,593.639 1449.47,839.805 1452.43,905.768 1455.38,189.839 1458.34,194.783 1461.3,508.237 1464.26,222.602 1467.22,1001.62 1470.17,640.011 1473.13,710.431 1476.09,1182.99 1479.05,714.982 1482.01,739.729 1484.97,119.552 1487.92,534.997 1490.88,335.42 1493.84,312.918 1496.8,151.55 1499.76,1137.71 1502.71,199.327 1505.67,493.25 1508.63,625.032 1511.59,1109.57 1514.55,689.013 1517.5,904.211 1520.46,984.765 1523.42,609.181 1526.38,1150.47 1529.34,805.356 1532.29,348.258 1535.25,865.952 1538.21,270.248 1541.17,927.672 1544.13,90.7974 1547.09,172.667 1550.04,628.804 1553,254.729 1555.96,864.563 1558.92,875.197 1561.88,582.013 1564.83,453.847 1567.79,479.016 1570.75,291.479 1573.71,723.638 1576.67,756.459 1579.62,481.16 1582.58,924.587 1585.54,820.721 1588.5,132.103 1591.46,400.902 1594.42,1028.22 1597.37,191.396 1600.33,937.382 1603.29,1097.21 1606.25,82.0596 1609.21,202.195 1612.16,1152.34 1615.12,1053.53 1618.08,1038.84 1621.04,447.173 1624,578.684 1626.95,365.388 1629.91,275.779 1632.87,456.827 1635.83,159.882 1638.79,755.472 1641.75,369.351 1644.7,1192.63 1647.66,191.683 1650.62,864.457 1653.58,287.791 1656.54,575.685 1659.49,638.771 1662.45,1129.25 1665.41,870.046 1668.37,1052.18 1671.33,132.123 1674.28,661.412 1677.24,149.978 1680.2,598.974 1683.16,293.228 1686.12,433.204 1689.08,202.022 1692.03,914.31 1694.99,762.107 1697.95,342.153 1700.91,504.104 1703.87,247.706 1706.82,214.755 1709.78,549.348 1712.74,644.025 1715.7,473.814 1718.66,428.057 1721.61,952.35 1724.57,923.941 1727.53,1090.48 1730.49,186.039 1733.45,756.968 1736.41,1005.04 1739.36,1140.34 1742.32,160.705 1745.28,461.936 1748.24,230.117 1751.2,457.127 1754.15,722.904 1757.11,338.864 1760.07,1044.24 1763.03,837.047 1765.99,1043.66 1768.94,264.721 1771.9,1144.52 1774.86,672.717 1777.82,181.446 1780.78,246.173 1783.73,200.483 1786.69,954.519 1789.65,1179.61 1792.61,474.365 1795.57,1038.35 1798.53,345.482 1801.48,305.582 1804.44,938.577 1807.4,1067.25 1810.36,477.418 1813.32,336.48 1816.27,1076.62 1819.23,1137.88 1822.19,386.569 1825.15,1184.55 1828.11,155.903 1831.06,543.218 1834.02,94.6365 1836.98,969.349 1839.94,366.827 1842.9,145.119 1845.86,506.486 1848.81,1051.32 1851.77,197.438 1854.73,134.941 1857.69,1088.69 1860.65,1179.77 1863.6,818.792 1866.56,1138.51 1869.52,552.424 1872.48,84.6569 1875.44,752.191 1878.39,489.27 1881.35,1027.94 1884.31,202.498 1887.27,1069.52 1890.23,815.782 1893.19,1176.1 1896.14,341.842 1899.1,411.815 1902.06,172.244 1905.02,521.282 1907.98,654.3 1910.93,991.942 1913.89,849.282 1916.85,332.457 1919.81,707.962 1922.77,166.095 1925.72,254.473 1928.68,823.944 1931.64,82.6677 1934.6,1008.1 1937.56,619.023 1940.52,386.997 1943.47,535.337 1946.43,622.151 1949.39,763.314 1952.35,879.693 1955.31,1043.43 1958.26,504.549 1961.22,1022.24 1964.18,97.6012 1967.14,986.855 1970.1,674.851 1973.05,663.736 1976.01,776.045 1978.97,895.846 1981.93,833.455 1984.89,374.346 1987.84,568.565 1990.8,760.166 1993.76,491.183 1996.72,973.756 1999.68,379.903 2002.64,974.153 2005.59,692.326 2008.55,689.638 2011.51,514.665 "/>
<path clip-path="url(#clip150)" d="M246.106 190.502 L486.673 190.502 L486.673 86.8219 L246.106 86.8219  Z" fill="#ffffff" fill-rule="evenodd" fill-opacity="1"/>
<polyline clip-path="url(#clip150)" style="stroke:#000000; stroke-linecap:round; stroke-linejoin:round; stroke-width:4; stroke-opacity:1; fill:none" points="246.106,190.502 486.673,190.502 486.673,86.8219 246.106,86.8219 246.106,190.502 "/>
<polyline clip-path="url(#clip150)" style="stroke:#009af9; stroke-linecap:round; stroke-linejoin:round; stroke-width:4; stroke-opacity:1; fill:none" points="267.01,138.662 392.434,138.662 "/>
<path clip-path="url(#clip150)" d="M427.181 158.349 Q425.375 162.979 423.662 164.391 Q421.949 165.803 419.079 165.803 L415.676 165.803 L415.676 162.238 L418.176 162.238 Q419.935 162.238 420.908 161.405 Q421.88 160.572 423.06 157.47 L423.824 155.525 L413.338 130.016 L417.852 130.016 L425.954 150.294 L434.056 130.016 L438.57 130.016 L427.181 158.349 Z" fill="#000000" fill-rule="nonzero" fill-opacity="1" /><path clip-path="url(#clip150)" d="M445.861 152.007 L453.5 152.007 L453.5 125.641 L445.19 127.308 L445.19 123.049 L453.454 121.382 L458.13 121.382 L458.13 152.007 L465.769 152.007 L465.769 155.942 L445.861 155.942 L445.861 152.007 Z" fill="#000000" fill-rule="nonzero" fill-opacity="1" /></svg>
