<?xml version="1.0" encoding="utf-8"?>
<svg xmlns="http://www.w3.org/2000/svg" xmlns:xlink="http://www.w3.org/1999/xlink" width="528" height="336" viewBox="0 0 2112 1344">
<defs>
  <clipPath id="clip150">
    <rect x="0" y="0" width="2112" height="1344"/>
  </clipPath>
</defs>
<path clip-path="url(#clip150)" d="M0 1344 L2112 1344 L2112 0 L0 0  Z" fill="#ffffff" fill-rule="evenodd" fill-opacity="1"/>
<defs>
  <clipPath id="clip151">
    <rect x="422" y="0" width="1479" height="1344"/>
  </clipPath>
</defs>
<path clip-path="url(#clip150)" d="M183.394 1234.58 L2064.76 1234.58 L2064.76 47.2441 L183.394 47.2441  Z" fill="#ffffff" fill-rule="evenodd" fill-opacity="1"/>
<defs>
  <clipPath id="clip152">
    <rect x="183" y="47" width="1882" height="1188"/>
  </clipPath>
</defs>
<polyline clip-path="url(#clip152)" style="stroke:#000000; stroke-linecap:round; stroke-linejoin:round; stroke-width:2; stroke-opacity:0.1; fill:none" points="236.64,1234.58 236.64,47.2441 "/>
<polyline clip-path="url(#clip152)" style="stroke:#000000; stroke-linecap:round; stroke-linejoin:round; stroke-width:2; stroke-opacity:0.1; fill:none" points="532.452,1234.58 532.452,47.2441 "/>
<polyline clip-path="url(#clip152)" style="stroke:#000000; stroke-linecap:round; stroke-linejoin:round; stroke-width:2; stroke-opacity:0.1; fill:none" points="828.263,1234.58 828.263,47.2441 "/>
<polyline clip-path="url(#clip152)" style="stroke:#000000; stroke-linecap:round; stroke-linejoin:round; stroke-width:2; stroke-opacity:0.1; fill:none" points="1124.07,1234.58 1124.07,47.2441 "/>
<polyline clip-path="url(#clip152)" style="stroke:#000000; stroke-linecap:round; stroke-linejoin:round; stroke-width:2; stroke-opacity:0.1; fill:none" points="1419.89,1234.58 1419.89,47.2441 "/>
<polyline clip-path="url(#clip152)" style="stroke:#000000; stroke-linecap:round; stroke-linejoin:round; stroke-width:2; stroke-opacity:0.1; fill:none" points="1715.7,1234.58 1715.7,47.2441 "/>
<polyline clip-path="url(#clip152)" style="stroke:#000000; stroke-linecap:round; stroke-linejoin:round; stroke-width:2; stroke-opacity:0.1; fill:none" points="2011.51,1234.58 2011.51,47.2441 "/>
<polyline clip-path="url(#clip150)" style="stroke:#000000; stroke-linecap:round; stroke-linejoin:round; stroke-width:4; stroke-opacity:1; fill:none" points="183.394,1234.58 2064.76,1234.58 "/>
<polyline clip-path="url(#clip150)" style="stroke:#000000; stroke-linecap:round; stroke-linejoin:round; stroke-width:4; stroke-opacity:1; fill:none" points="236.64,1234.58 236.64,1215.68 "/>
<polyline clip-path="url(#clip150)" style="stroke:#000000; stroke-linecap:round; stroke-linejoin:round; stroke-width:4; stroke-opacity:1; fill:none" points="532.452,1234.58 532.452,1215.68 "/>
<polyline clip-path="url(#clip150)" style="stroke:#000000; stroke-linecap:round; stroke-linejoin:round; stroke-width:4; stroke-opacity:1; fill:none" points="828.263,1234.58 828.263,1215.68 "/>
<polyline clip-path="url(#clip150)" style="stroke:#000000; stroke-linecap:round; stroke-linejoin:round; stroke-width:4; stroke-opacity:1; fill:none" points="1124.07,1234.58 1124.07,1215.68 "/>
<polyline clip-path="url(#clip150)" style="stroke:#000000; stroke-linecap:round; stroke-linejoin:round; stroke-width:4; stroke-opacity:1; fill:none" points="1419.89,1234.58 1419.89,1215.68 "/>
<polyline clip-path="url(#clip150)" style="stroke:#000000; stroke-linecap:round; stroke-linejoin:round; stroke-width:4; stroke-opacity:1; fill:none" points="1715.7,1234.58 1715.7,1215.68 "/>
<polyline clip-path="url(#clip150)" style="stroke:#000000; stroke-linecap:round; stroke-linejoin:round; stroke-width:4; stroke-opacity:1; fill:none" points="2011.51,1234.58 2011.51,1215.68 "/>
<path clip-path="url(#clip150)" d="M206.108 1277.85 L235.784 1277.85 L235.784 1281.78 L206.108 1281.78 L206.108 1277.85 Z" fill="#000000" fill-rule="nonzero" fill-opacity="1" /><path clip-path="url(#clip150)" d="M260.043 1276.04 Q263.399 1276.76 265.274 1279.03 Q267.172 1281.3 267.172 1284.63 Q267.172 1289.74 263.654 1292.55 Q260.135 1295.35 253.654 1295.35 Q251.478 1295.35 249.163 1294.91 Q246.872 1294.49 244.418 1293.63 L244.418 1289.12 Q246.362 1290.25 248.677 1290.83 Q250.992 1291.41 253.515 1291.41 Q257.913 1291.41 260.205 1289.67 Q262.52 1287.94 262.52 1284.63 Q262.52 1281.57 260.367 1279.86 Q258.237 1278.12 254.418 1278.12 L250.39 1278.12 L250.39 1274.28 L254.603 1274.28 Q258.052 1274.28 259.881 1272.92 Q261.709 1271.53 261.709 1268.93 Q261.709 1266.27 259.811 1264.86 Q257.936 1263.42 254.418 1263.42 Q252.496 1263.42 250.297 1263.84 Q248.098 1264.26 245.459 1265.14 L245.459 1260.97 Q248.122 1260.23 250.436 1259.86 Q252.774 1259.49 254.834 1259.49 Q260.158 1259.49 263.26 1261.92 Q266.362 1264.33 266.362 1268.45 Q266.362 1271.32 264.719 1273.31 Q263.075 1275.28 260.043 1276.04 Z" fill="#000000" fill-rule="nonzero" fill-opacity="1" /><path clip-path="url(#clip150)" d="M502.394 1277.85 L532.07 1277.85 L532.07 1281.78 L502.394 1281.78 L502.394 1277.85 Z" fill="#000000" fill-rule="nonzero" fill-opacity="1" /><path clip-path="url(#clip150)" d="M546.19 1290.74 L562.509 1290.74 L562.509 1294.67 L540.565 1294.67 L540.565 1290.74 Q543.227 1287.99 547.81 1283.36 Q552.417 1278.7 553.597 1277.36 Q555.843 1274.84 556.722 1273.1 Q557.625 1271.34 557.625 1269.65 Q557.625 1266.9 555.681 1265.16 Q553.759 1263.42 550.658 1263.42 Q548.459 1263.42 546.005 1264.19 Q543.574 1264.95 540.797 1266.5 L540.797 1261.78 Q543.621 1260.65 546.074 1260.07 Q548.528 1259.49 550.565 1259.49 Q555.935 1259.49 559.13 1262.17 Q562.324 1264.86 562.324 1269.35 Q562.324 1271.48 561.514 1273.4 Q560.727 1275.3 558.621 1277.89 Q558.042 1278.56 554.94 1281.78 Q551.838 1284.98 546.19 1290.74 Z" fill="#000000" fill-rule="nonzero" fill-opacity="1" /><path clip-path="url(#clip150)" d="M798.02 1277.85 L827.696 1277.85 L827.696 1281.78 L798.02 1281.78 L798.02 1277.85 Z" fill="#000000" fill-rule="nonzero" fill-opacity="1" /><path clip-path="url(#clip150)" d="M838.599 1290.74 L846.238 1290.74 L846.238 1264.37 L837.928 1266.04 L837.928 1261.78 L846.191 1260.11 L850.867 1260.11 L850.867 1290.74 L858.506 1290.74 L858.506 1294.67 L838.599 1294.67 L838.599 1290.74 Z" fill="#000000" fill-rule="nonzero" fill-opacity="1" /><path clip-path="url(#clip150)" d="M1124.07 1263.19 Q1120.46 1263.19 1118.64 1266.76 Q1116.83 1270.3 1116.83 1277.43 Q1116.83 1284.54 1118.64 1288.1 Q1120.46 1291.64 1124.07 1291.64 Q1127.71 1291.64 1129.51 1288.1 Q1131.34 1284.54 1131.34 1277.43 Q1131.34 1270.3 1129.51 1266.76 Q1127.71 1263.19 1124.07 1263.19 M1124.07 1259.49 Q1129.89 1259.49 1132.94 1264.1 Q1136.02 1268.68 1136.02 1277.43 Q1136.02 1286.16 1132.94 1290.76 Q1129.89 1295.35 1124.07 1295.35 Q1118.26 1295.35 1115.19 1290.76 Q1112.13 1286.16 1112.13 1277.43 Q1112.13 1268.68 1115.19 1264.1 Q1118.26 1259.49 1124.07 1259.49 Z" fill="#000000" fill-rule="nonzero" fill-opacity="1" /><path clip-path="url(#clip150)" d="M1410.27 1290.74 L1417.91 1290.74 L1417.91 1264.37 L1409.6 1266.04 L1409.6 1261.78 L1417.86 1260.11 L1422.54 1260.11 L1422.54 1290.74 L1430.18 1290.74 L1430.18 1294.67 L1410.27 1294.67 L1410.27 1290.74 Z" fill="#000000" fill-rule="nonzero" fill-opacity="1" /><path clip-path="url(#clip150)" d="M1710.35 1290.74 L1726.67 1290.74 L1726.67 1294.67 L1704.73 1294.67 L1704.73 1290.74 Q1707.39 1287.99 1711.97 1283.36 Q1716.58 1278.7 1717.76 1277.36 Q1720 1274.84 1720.88 1273.1 Q1721.79 1271.34 1721.79 1269.65 Q1721.79 1266.9 1719.84 1265.16 Q1717.92 1263.42 1714.82 1263.42 Q1712.62 1263.42 1710.17 1264.19 Q1707.74 1264.95 1704.96 1266.5 L1704.96 1261.78 Q1707.78 1260.65 1710.24 1260.07 Q1712.69 1259.49 1714.73 1259.49 Q1720.1 1259.49 1723.29 1262.17 Q1726.49 1264.86 1726.49 1269.35 Q1726.49 1271.48 1725.67 1273.4 Q1724.89 1275.3 1722.78 1277.89 Q1722.2 1278.56 1719.1 1281.78 Q1716 1284.98 1710.35 1290.74 Z" fill="#000000" fill-rule="nonzero" fill-opacity="1" /><path clip-path="url(#clip150)" d="M2015.76 1276.04 Q2019.11 1276.76 2020.99 1279.03 Q2022.89 1281.3 2022.89 1284.63 Q2022.89 1289.74 2019.37 1292.55 Q2015.85 1295.35 2009.37 1295.35 Q2007.19 1295.35 2004.88 1294.91 Q2002.59 1294.49 2000.13 1293.63 L2000.13 1289.12 Q2002.08 1290.25 2004.39 1290.83 Q2006.71 1291.41 2009.23 1291.41 Q2013.63 1291.41 2015.92 1289.67 Q2018.23 1287.94 2018.23 1284.63 Q2018.23 1281.57 2016.08 1279.86 Q2013.95 1278.12 2010.13 1278.12 L2006.1 1278.12 L2006.1 1274.28 L2010.32 1274.28 Q2013.77 1274.28 2015.6 1272.92 Q2017.42 1271.53 2017.42 1268.93 Q2017.42 1266.27 2015.53 1264.86 Q2013.65 1263.42 2010.13 1263.42 Q2008.21 1263.42 2006.01 1263.84 Q2003.81 1264.26 2001.17 1265.14 L2001.17 1260.97 Q2003.84 1260.23 2006.15 1259.86 Q2008.49 1259.49 2010.55 1259.49 Q2015.87 1259.49 2018.98 1261.92 Q2022.08 1264.33 2022.08 1268.45 Q2022.08 1271.32 2020.43 1273.31 Q2018.79 1275.28 2015.76 1276.04 Z" fill="#000000" fill-rule="nonzero" fill-opacity="1" /><polyline clip-path="url(#clip152)" style="stroke:#000000; stroke-linecap:round; stroke-linejoin:round; stroke-width:2; stroke-opacity:0.1; fill:none" points="183.394,1203.38 2064.76,1203.38 "/>
<polyline clip-path="url(#clip152)" style="stroke:#000000; stroke-linecap:round; stroke-linejoin:round; stroke-width:2; stroke-opacity:0.1; fill:none" points="183.394,922.746 2064.76,922.746 "/>
<polyline clip-path="url(#clip152)" style="stroke:#000000; stroke-linecap:round; stroke-linejoin:round; stroke-width:2; stroke-opacity:0.1; fill:none" points="183.394,642.108 2064.76,642.108 "/>
<polyline clip-path="url(#clip152)" style="stroke:#000000; stroke-linecap:round; stroke-linejoin:round; stroke-width:2; stroke-opacity:0.1; fill:none" points="183.394,361.471 2064.76,361.471 "/>
<polyline clip-path="url(#clip152)" style="stroke:#000000; stroke-linecap:round; stroke-linejoin:round; stroke-width:2; stroke-opacity:0.1; fill:none" points="183.394,80.8333 2064.76,80.8333 "/>
<polyline clip-path="url(#clip150)" style="stroke:#000000; stroke-linecap:round; stroke-linejoin:round; stroke-width:4; stroke-opacity:1; fill:none" points="183.394,1234.58 183.394,47.2441 "/>
<polyline clip-path="url(#clip150)" style="stroke:#000000; stroke-linecap:round; stroke-linejoin:round; stroke-width:4; stroke-opacity:1; fill:none" points="183.394,1203.38 202.292,1203.38 "/>
<polyline clip-path="url(#clip150)" style="stroke:#000000; stroke-linecap:round; stroke-linejoin:round; stroke-width:4; stroke-opacity:1; fill:none" points="183.394,922.746 202.292,922.746 "/>
<polyline clip-path="url(#clip150)" style="stroke:#000000; stroke-linecap:round; stroke-linejoin:round; stroke-width:4; stroke-opacity:1; fill:none" points="183.394,642.108 202.292,642.108 "/>
<polyline clip-path="url(#clip150)" style="stroke:#000000; stroke-linecap:round; stroke-linejoin:round; stroke-width:4; stroke-opacity:1; fill:none" points="183.394,361.471 202.292,361.471 "/>
<polyline clip-path="url(#clip150)" style="stroke:#000000; stroke-linecap:round; stroke-linejoin:round; stroke-width:4; stroke-opacity:1; fill:none" points="183.394,80.8333 202.292,80.8333 "/>
<path clip-path="url(#clip150)" d="M64.3765 1189.18 Q60.7654 1189.18 58.9367 1192.75 Q57.1312 1196.29 57.1312 1203.42 Q57.1312 1210.52 58.9367 1214.09 Q60.7654 1217.63 64.3765 1217.63 Q68.0107 1217.63 69.8163 1214.09 Q71.645 1210.52 71.645 1203.42 Q71.645 1196.29 69.8163 1192.75 Q68.0107 1189.18 64.3765 1189.18 M64.3765 1185.48 Q70.1867 1185.48 73.2422 1190.08 Q76.3209 1194.67 76.3209 1203.42 Q76.3209 1212.14 73.2422 1216.75 Q70.1867 1221.33 64.3765 1221.33 Q58.5664 1221.33 55.4877 1216.75 Q52.4321 1212.14 52.4321 1203.42 Q52.4321 1194.67 55.4877 1190.08 Q58.5664 1185.48 64.3765 1185.48 Z" fill="#000000" fill-rule="nonzero" fill-opacity="1" /><path clip-path="url(#clip150)" d="M84.5384 1214.78 L89.4227 1214.78 L89.4227 1220.66 L84.5384 1220.66 L84.5384 1214.78 Z" fill="#000000" fill-rule="nonzero" fill-opacity="1" /><path clip-path="url(#clip150)" d="M109.608 1189.18 Q105.997 1189.18 104.168 1192.75 Q102.362 1196.29 102.362 1203.42 Q102.362 1210.52 104.168 1214.09 Q105.997 1217.63 109.608 1217.63 Q113.242 1217.63 115.048 1214.09 Q116.876 1210.52 116.876 1203.42 Q116.876 1196.29 115.048 1192.75 Q113.242 1189.18 109.608 1189.18 M109.608 1185.48 Q115.418 1185.48 118.473 1190.08 Q121.552 1194.67 121.552 1203.42 Q121.552 1212.14 118.473 1216.75 Q115.418 1221.33 109.608 1221.33 Q103.798 1221.33 100.719 1216.75 Q97.6634 1212.14 97.6634 1203.42 Q97.6634 1194.67 100.719 1190.08 Q103.798 1185.48 109.608 1185.48 Z" fill="#000000" fill-rule="nonzero" fill-opacity="1" /><path clip-path="url(#clip150)" d="M139.77 1189.18 Q136.159 1189.18 134.33 1192.75 Q132.524 1196.29 132.524 1203.42 Q132.524 1210.52 134.33 1214.09 Q136.159 1217.63 139.77 1217.63 Q143.404 1217.63 145.209 1214.09 Q147.038 1210.52 147.038 1203.42 Q147.038 1196.29 145.209 1192.75 Q143.404 1189.18 139.77 1189.18 M139.77 1185.48 Q145.58 1185.48 148.635 1190.08 Q151.714 1194.67 151.714 1203.42 Q151.714 1212.14 148.635 1216.75 Q145.58 1221.33 139.77 1221.33 Q133.959 1221.33 130.881 1216.75 Q127.825 1212.14 127.825 1203.42 Q127.825 1194.67 130.881 1190.08 Q133.959 1185.48 139.77 1185.48 Z" fill="#000000" fill-rule="nonzero" fill-opacity="1" /><path clip-path="url(#clip150)" d="M65.3719 908.544 Q61.7608 908.544 59.9321 912.109 Q58.1265 915.651 58.1265 922.78 Q58.1265 929.887 59.9321 933.452 Q61.7608 936.993 65.3719 936.993 Q69.0061 936.993 70.8117 933.452 Q72.6404 929.887 72.6404 922.78 Q72.6404 915.651 70.8117 912.109 Q69.0061 908.544 65.3719 908.544 M65.3719 904.841 Q71.182 904.841 74.2376 909.447 Q77.3163 914.03 77.3163 922.78 Q77.3163 931.507 74.2376 936.114 Q71.182 940.697 65.3719 940.697 Q59.5617 940.697 56.483 936.114 Q53.4275 931.507 53.4275 922.78 Q53.4275 914.03 56.483 909.447 Q59.5617 904.841 65.3719 904.841 Z" fill="#000000" fill-rule="nonzero" fill-opacity="1" /><path clip-path="url(#clip150)" d="M85.5338 934.146 L90.418 934.146 L90.418 940.026 L85.5338 940.026 L85.5338 934.146 Z" fill="#000000" fill-rule="nonzero" fill-opacity="1" /><path clip-path="url(#clip150)" d="M104.631 936.09 L120.95 936.09 L120.95 940.026 L99.006 940.026 L99.006 936.09 Q101.668 933.336 106.251 928.706 Q110.858 924.053 112.038 922.711 Q114.284 920.188 115.163 918.452 Q116.066 916.692 116.066 915.003 Q116.066 912.248 114.122 910.512 Q112.2 908.776 109.098 908.776 Q106.899 908.776 104.446 909.54 Q102.015 910.303 99.2374 911.854 L99.2374 907.132 Q102.061 905.998 104.515 905.419 Q106.969 904.841 109.006 904.841 Q114.376 904.841 117.571 907.526 Q120.765 910.211 120.765 914.702 Q120.765 916.831 119.955 918.753 Q119.168 920.651 117.061 923.243 Q116.483 923.915 113.381 927.132 Q110.279 930.327 104.631 936.09 Z" fill="#000000" fill-rule="nonzero" fill-opacity="1" /><path clip-path="url(#clip150)" d="M130.811 905.466 L149.168 905.466 L149.168 909.401 L135.094 909.401 L135.094 917.873 Q136.112 917.526 137.131 917.364 Q138.149 917.178 139.168 917.178 Q144.955 917.178 148.334 920.35 Q151.714 923.521 151.714 928.938 Q151.714 934.516 148.242 937.618 Q144.77 940.697 138.45 940.697 Q136.274 940.697 134.006 940.326 Q131.76 939.956 129.353 939.215 L129.353 934.516 Q131.436 935.651 133.659 936.206 Q135.881 936.762 138.358 936.762 Q142.362 936.762 144.7 934.655 Q147.038 932.549 147.038 928.938 Q147.038 925.327 144.7 923.22 Q142.362 921.114 138.358 921.114 Q136.483 921.114 134.608 921.53 Q132.756 921.947 130.811 922.827 L130.811 905.466 Z" fill="#000000" fill-rule="nonzero" fill-opacity="1" /><path clip-path="url(#clip150)" d="M64.3765 627.907 Q60.7654 627.907 58.9367 631.472 Q57.1312 635.013 57.1312 642.143 Q57.1312 649.249 58.9367 652.814 Q60.7654 656.356 64.3765 656.356 Q68.0107 656.356 69.8163 652.814 Q71.645 649.249 71.645 642.143 Q71.645 635.013 69.8163 631.472 Q68.0107 627.907 64.3765 627.907 M64.3765 624.203 Q70.1867 624.203 73.2422 628.81 Q76.3209 633.393 76.3209 642.143 Q76.3209 650.87 73.2422 655.476 Q70.1867 660.059 64.3765 660.059 Q58.5664 660.059 55.4877 655.476 Q52.4321 650.87 52.4321 642.143 Q52.4321 633.393 55.4877 628.81 Q58.5664 624.203 64.3765 624.203 Z" fill="#000000" fill-rule="nonzero" fill-opacity="1" /><path clip-path="url(#clip150)" d="M84.5384 653.509 L89.4227 653.509 L89.4227 659.388 L84.5384 659.388 L84.5384 653.509 Z" fill="#000000" fill-rule="nonzero" fill-opacity="1" /><path clip-path="url(#clip150)" d="M99.6541 624.828 L118.01 624.828 L118.01 628.763 L103.936 628.763 L103.936 637.235 Q104.955 636.888 105.974 636.726 Q106.992 636.541 108.011 636.541 Q113.798 636.541 117.177 639.712 Q120.557 642.884 120.557 648.3 Q120.557 653.879 117.085 656.981 Q113.612 660.059 107.293 660.059 Q105.117 660.059 102.849 659.689 Q100.603 659.319 98.1958 658.578 L98.1958 653.879 Q100.279 655.013 102.501 655.569 Q104.724 656.124 107.2 656.124 Q111.205 656.124 113.543 654.018 Q115.881 651.911 115.881 648.3 Q115.881 644.689 113.543 642.583 Q111.205 640.476 107.2 640.476 Q105.325 640.476 103.45 640.893 Q101.599 641.31 99.6541 642.189 L99.6541 624.828 Z" fill="#000000" fill-rule="nonzero" fill-opacity="1" /><path clip-path="url(#clip150)" d="M139.77 627.907 Q136.159 627.907 134.33 631.472 Q132.524 635.013 132.524 642.143 Q132.524 649.249 134.33 652.814 Q136.159 656.356 139.77 656.356 Q143.404 656.356 145.209 652.814 Q147.038 649.249 147.038 642.143 Q147.038 635.013 145.209 631.472 Q143.404 627.907 139.77 627.907 M139.77 624.203 Q145.58 624.203 148.635 628.81 Q151.714 633.393 151.714 642.143 Q151.714 650.87 148.635 655.476 Q145.58 660.059 139.77 660.059 Q133.959 660.059 130.881 655.476 Q127.825 650.87 127.825 642.143 Q127.825 633.393 130.881 628.81 Q133.959 624.203 139.77 624.203 Z" fill="#000000" fill-rule="nonzero" fill-opacity="1" /><path clip-path="url(#clip150)" d="M65.3719 347.269 Q61.7608 347.269 59.9321 350.834 Q58.1265 354.376 58.1265 361.505 Q58.1265 368.612 59.9321 372.177 Q61.7608 375.718 65.3719 375.718 Q69.0061 375.718 70.8117 372.177 Q72.6404 368.612 72.6404 361.505 Q72.6404 354.376 70.8117 350.834 Q69.0061 347.269 65.3719 347.269 M65.3719 343.566 Q71.182 343.566 74.2376 348.172 Q77.3163 352.755 77.3163 361.505 Q77.3163 370.232 74.2376 374.839 Q71.182 379.422 65.3719 379.422 Q59.5617 379.422 56.483 374.839 Q53.4275 370.232 53.4275 361.505 Q53.4275 352.755 56.483 348.172 Q59.5617 343.566 65.3719 343.566 Z" fill="#000000" fill-rule="nonzero" fill-opacity="1" /><path clip-path="url(#clip150)" d="M85.5338 372.871 L90.418 372.871 L90.418 378.751 L85.5338 378.751 L85.5338 372.871 Z" fill="#000000" fill-rule="nonzero" fill-opacity="1" /><path clip-path="url(#clip150)" d="M99.4226 344.191 L121.645 344.191 L121.645 346.181 L109.098 378.751 L104.214 378.751 L116.02 348.126 L99.4226 348.126 L99.4226 344.191 Z" fill="#000000" fill-rule="nonzero" fill-opacity="1" /><path clip-path="url(#clip150)" d="M130.811 344.191 L149.168 344.191 L149.168 348.126 L135.094 348.126 L135.094 356.598 Q136.112 356.251 137.131 356.089 Q138.149 355.904 139.168 355.904 Q144.955 355.904 148.334 359.075 Q151.714 362.246 151.714 367.663 Q151.714 373.241 148.242 376.343 Q144.77 379.422 138.45 379.422 Q136.274 379.422 134.006 379.052 Q131.76 378.681 129.353 377.941 L129.353 373.241 Q131.436 374.376 133.659 374.931 Q135.881 375.487 138.358 375.487 Q142.362 375.487 144.7 373.38 Q147.038 371.274 147.038 367.663 Q147.038 364.052 144.7 361.945 Q142.362 359.839 138.358 359.839 Q136.483 359.839 134.608 360.255 Q132.756 360.672 130.811 361.552 L130.811 344.191 Z" fill="#000000" fill-rule="nonzero" fill-opacity="1" /><path clip-path="url(#clip150)" d="M55.1867 94.1781 L62.8256 94.1781 L62.8256 67.8125 L54.5154 69.4792 L54.5154 65.2199 L62.7793 63.5533 L67.4552 63.5533 L67.4552 94.1781 L75.094 94.1781 L75.094 98.1133 L55.1867 98.1133 L55.1867 94.1781 Z" fill="#000000" fill-rule="nonzero" fill-opacity="1" /><path clip-path="url(#clip150)" d="M84.5384 92.2337 L89.4227 92.2337 L89.4227 98.1133 L84.5384 98.1133 L84.5384 92.2337 Z" fill="#000000" fill-rule="nonzero" fill-opacity="1" /><path clip-path="url(#clip150)" d="M109.608 66.632 Q105.997 66.632 104.168 70.1968 Q102.362 73.7384 102.362 80.868 Q102.362 87.9744 104.168 91.5392 Q105.997 95.0809 109.608 95.0809 Q113.242 95.0809 115.048 91.5392 Q116.876 87.9744 116.876 80.868 Q116.876 73.7384 115.048 70.1968 Q113.242 66.632 109.608 66.632 M109.608 62.9283 Q115.418 62.9283 118.473 67.5347 Q121.552 72.1181 121.552 80.868 Q121.552 89.5948 118.473 94.2013 Q115.418 98.7846 109.608 98.7846 Q103.798 98.7846 100.719 94.2013 Q97.6634 89.5948 97.6634 80.868 Q97.6634 72.1181 100.719 67.5347 Q103.798 62.9283 109.608 62.9283 Z" fill="#000000" fill-rule="nonzero" fill-opacity="1" /><path clip-path="url(#clip150)" d="M139.77 66.632 Q136.159 66.632 134.33 70.1968 Q132.524 73.7384 132.524 80.868 Q132.524 87.9744 134.33 91.5392 Q136.159 95.0809 139.77 95.0809 Q143.404 95.0809 145.209 91.5392 Q147.038 87.9744 147.038 80.868 Q147.038 73.7384 145.209 70.1968 Q143.404 66.632 139.77 66.632 M139.77 62.9283 Q145.58 62.9283 148.635 67.5347 Q151.714 72.1181 151.714 80.868 Q151.714 89.5948 148.635 94.2013 Q145.58 98.7846 139.77 98.7846 Q133.959 98.7846 130.881 94.2013 Q127.825 89.5948 127.825 80.868 Q127.825 72.1181 130.881 67.5347 Q133.959 62.9283 139.77 62.9283 Z" fill="#000000" fill-rule="nonzero" fill-opacity="1" /><polyline clip-path="url(#clip152)" style="stroke:#009af9; stroke-linecap:round; stroke-linejoin:round; stroke-width:4; stroke-opacity:1; fill:none" points="236.64,987.422 239.598,1183.25 242.556,519.843 245.514,1039.37 248.473,81.8426 251.431,1182.82 254.389,1006.85 257.347,649.937 260.305,224.801 263.263,1154.35 266.221,1197.07 269.179,992.977 272.137,222.595 275.096,1007.7 278.054,132.654 281.012,1113.18 283.97,513.961 286.928,547.631 289.886,244.161 292.844,391.983 295.802,1011.63 298.761,481.014 301.719,1152.34 304.677,1104.34 307.635,568.861 310.593,457.007 313.551,305.368 316.509,821.922 319.467,343.229 322.425,1118.33 325.384,939.566 328.342,147.471 331.3,828.371 334.258,118.038 337.216,841.953 340.174,135.496 343.132,1175.16 346.09,287.84 349.049,584.698 352.007,424.964 354.965,1134.86 357.923,659.87 360.881,126.753 363.839,698.371 366.797,873.381 369.755,334.312 372.713,1027.35 375.672,144.455 378.63,972.349 381.588,1120.15 384.546,803.019 387.504,668.043 390.462,1027.92 393.42,948.094 396.378,833.484 399.336,733.821 402.295,563.613 405.253,783.884 408.211,1094.75 411.169,587.931 414.127,1071.51 417.085,225.269 420.043,97.3894 423.001,377.593 425.96,304.864 428.918,997.02 431.876,646.965 434.834,670.977 437.792,182.812 440.75,716.481 443.708,611.419 446.666,187.44 449.624,256.135 452.583,895.325 455.541,567.342 458.499,931.967 461.457,682.144 464.415,305.191 467.373,98.4141 470.331,142.765 473.289,626.464 476.248,832.953 479.206,1186.08 482.164,141.5 485.122,134.525 488.08,489.52 491.038,958.733 493.996,1042.42 496.954,436.045 499.912,409.078 502.871,588.845 505.829,108.629 508.787,427.607 511.745,873.009 514.703,423.854 517.661,654.777 520.619,945.412 523.577,465.54 526.535,283.758 529.494,348.248 532.452,930.703 535.41,350.959 538.368,525.885 541.326,615.109 544.284,1123.71 547.242,860.353 550.2,367.603 553.159,462.119 556.117,80.8479 559.075,396.894 562.033,979.243 564.991,760.922 567.949,987.591 570.907,155.954 573.865,1125.99 576.823,932.125 579.782,296.825 582.74,275.33 585.698,887.905 588.656,455.372 591.614,343.104 594.572,294.384 597.53,873.342 600.488,715.852 603.447,385.602 606.405,742.917 609.363,639.976 612.321,128.765 615.279,561.485 618.237,102.405 621.195,809.677 624.153,334.59 627.111,1077.26 630.07,127.417 633.028,806.121 635.986,362.995 638.944,127.764 641.902,1024.92 644.86,228.811 647.818,1071.37 650.776,1055.99 653.734,1075.61 656.693,581.305 659.651,995.689 662.609,625.645 665.567,597.062 668.525,373.809 671.483,428.217 674.441,1157.48 677.399,1200.88 680.358,215.591 683.316,115.374 686.274,1175.72 689.232,559.1 692.19,513.238 695.148,1046.9 698.106,1163.62 701.064,181.172 704.022,497.187 706.981,437.804 709.939,942.57 712.897,934.773 715.855,664.053 718.813,121.86 721.771,1195.23 724.729,1007.24 727.687,668.193 730.645,973.336 733.604,323.952 736.562,844.714 739.52,711.539 742.478,232.114 745.436,272.412 748.394,100.706 751.352,128.445 754.31,1126.36 757.269,105.858 760.227,497.626 763.185,489.233 766.143,769.435 769.101,549.639 772.059,1047.57 775.017,712.88 777.975,838.799 780.933,1121.97 783.892,566.409 786.85,102.284 789.808,832.368 792.766,534.667 795.724,178.603 798.682,836.623 801.64,1081.57 804.598,926.164 807.557,760.76 810.515,474.383 813.473,710.816 816.431,988.244 819.389,901.152 822.347,607.303 825.305,283.007 828.263,715.123 831.221,1158.36 834.18,107.937 837.138,1126.96 840.096,514.017 843.054,813.234 846.012,339.246 848.97,846.77 851.928,1142.1 854.886,1075.27 857.844,655.416 860.803,817.093 863.761,855.193 866.719,808.395 869.677,937.041 872.635,239.722 875.593,628.461 878.551,886.292 881.509,667.188 884.468,263.296 887.426,577.706 890.384,509.221 893.342,1094.06 896.3,487.586 899.258,831.052 902.216,325.201 905.174,389.079 908.132,109.777 911.091,342.631 914.049,635.221 917.007,1123.6 919.965,145.247 922.923,785.218 925.881,764.02 928.839,1115.39 931.797,604.053 934.756,1135.4 937.714,737.884 940.672,1119.14 943.63,223.05 946.588,571.953 949.546,1189.13 952.504,604.436 955.462,855.726 958.42,810.159 961.379,843.351 964.337,940.776 967.295,947.106 970.253,1185.43 973.211,685.101 976.169,469.459 979.127,734.269 982.085,479.545 985.043,1195.41 988.002,1137.87 990.96,813.198 993.918,141.151 996.876,1131.11 999.834,1090.77 1002.79,1077.79 1005.75,442.832 1008.71,398.571 1011.67,642.389 1014.62,909.991 1017.58,731.415 1020.54,604.891 1023.5,329.483 1026.46,275.559 1029.42,509.493 1032.37,475.473 1035.33,438.543 1038.29,1184.32 1041.25,707.821 1044.21,534.156 1047.16,247.529 1050.12,657.371 1053.08,871.899 1056.04,164.066 1059,258.328 1061.95,445.343 1064.91,145.401 1067.87,1083.94 1070.83,221.918 1073.79,737.769 1076.75,521.758 1079.7,391.919 1082.66,623.352 1085.62,536.786 1088.58,190.779 1091.54,250.635 1094.49,341.075 1097.45,644.905 1100.41,1177.6 1103.37,296.42 1106.33,417.326 1109.28,335.03 1112.24,218.522 1115.2,447.187 1118.16,985.289 1121.12,982.582 1124.07,460.71 1127.03,446.71 1129.99,530.473 1132.95,1189.37 1135.91,313.131 1138.87,504.456 1141.82,614.933 1144.78,744.391 1147.74,1186.16 1150.7,410.349 1153.66,864.61 1156.61,437.01 1159.57,482.992 1162.53,296.995 1165.49,618.497 1168.45,298.194 1171.4,810.393 1174.36,374.173 1177.32,621.082 1180.28,1019.83 1183.24,221.573 1186.2,1088.17 1189.15,539.8 1192.11,462.15 1195.07,623.95 1198.03,275.561 1200.99,415.144 1203.94,281.216 1206.9,1070.84 1209.86,1137.04 1212.82,450.59 1215.78,1135.71 1218.73,1122.36 1221.69,1135.22 1224.65,949.585 1227.61,768.607 1230.57,618.962 1233.53,932.064 1236.48,1174.91 1239.44,800.109 1242.4,1167.8 1245.36,402.673 1248.32,254.478 1251.27,990.121 1254.23,677.248 1257.19,107.112 1260.15,244.903 1263.11,1184.22 1266.06,943.108 1269.02,212.665 1271.98,218.202 1274.94,392.836 1277.9,626.806 1280.86,709.579 1283.81,702.637 1286.77,1046.24 1289.73,344.976 1292.69,355.628 1295.65,1119.6 1298.6,630.922 1301.56,594.15 1304.52,306.302 1307.48,626.409 1310.44,1093.81 1313.39,235.672 1316.35,468.998 1319.31,219.969 1322.27,115.267 1325.23,888.554 1328.18,112.934 1331.14,307.43 1334.1,1166.85 1337.06,228.669 1340.02,424.579 1342.98,1109.81 1345.93,1144.63 1348.89,664.265 1351.85,407.886 1354.81,949.572 1357.77,758.928 1360.72,500.224 1363.68,751.098 1366.64,412.391 1369.6,952.056 1372.56,446.916 1375.51,866.775 1378.47,143.493 1381.43,594.902 1384.39,473.747 1387.35,938.187 1390.31,723.003 1393.26,206.356 1396.22,714.397 1399.18,185.242 1402.14,430.986 1405.1,338.707 1408.05,819.957 1411.01,1150.38 1413.97,136.98 1416.93,1157.56 1419.89,517.679 1422.84,960.347 1425.8,716.103 1428.76,580.431 1431.72,922.201 1434.68,914.165 1437.64,539.381 1440.59,943.952 1443.55,404.166 1446.51,931.225 1449.47,101.092 1452.43,210.201 1455.38,123.764 1458.34,818.721 1461.3,793.039 1464.26,1178.12 1467.22,309.635 1470.17,871.656 1473.13,614.077 1476.09,1127.89 1479.05,448.738 1482.01,1144.85 1484.97,1165.22 1487.92,1176.36 1490.88,842.101 1493.84,234.246 1496.8,763.035 1499.76,918.002 1502.71,847.66 1505.67,832.662 1508.63,473.003 1511.59,575.993 1514.55,198.664 1517.5,1137.55 1520.46,629.636 1523.42,690.837 1526.38,319.744 1529.34,896.582 1532.29,1006.88 1535.25,355.751 1538.21,802.012 1541.17,265.702 1544.13,691.909 1547.09,112.71 1550.04,344.276 1553,284.053 1555.96,955.813 1558.92,867.701 1561.88,264.543 1564.83,625.314 1567.79,135.041 1570.75,1096.9 1573.71,797.246 1576.67,181.732 1579.62,179.716 1582.58,1122.39 1585.54,539.168 1588.5,1168.48 1591.46,845.459 1594.42,305.987 1597.37,623.537 1600.33,231.495 1603.29,130.933 1606.25,328.748 1609.21,813.453 1612.16,291.382 1615.12,611.144 1618.08,618.365 1621.04,877.521 1624,435.646 1626.95,1012.96 1629.91,188.89 1632.87,144.754 1635.83,805.087 1638.79,133.733 1641.75,637.415 1644.7,202.399 1647.66,1083.92 1650.62,485.007 1653.58,748.336 1656.54,1200.97 1659.49,774.257 1662.45,571.927 1665.41,607.324 1668.37,1106.69 1671.33,1157.32 1674.28,318.556 1677.24,631.322 1680.2,730.337 1683.16,463.542 1686.12,947.31 1689.08,715.193 1692.03,354.859 1694.99,292.379 1697.95,510.444 1700.91,1113.38 1703.87,901.524 1706.82,944.913 1709.78,619.087 1712.74,516.376 1715.7,844.93 1718.66,970.045 1721.61,1164.74 1724.57,262.292 1727.53,709.473 1730.49,653.107 1733.45,424.911 1736.41,818.732 1739.36,381.719 1742.32,165.872 1745.28,676.422 1748.24,1179.43 1751.2,1127.23 1754.15,149.097 1757.11,327.55 1760.07,140.401 1763.03,909.315 1765.99,264.52 1768.94,558.727 1771.9,681.016 1774.86,508.672 1777.82,668.115 1780.78,1197.12 1783.73,200.655 1786.69,1067.22 1789.65,548.596 1792.61,1014.91 1795.57,341.217 1798.53,193.861 1801.48,313.063 1804.44,439.914 1807.4,565.402 1810.36,1130.94 1813.32,199.875 1816.27,552.806 1819.23,995.711 1822.19,859.276 1825.15,311.186 1828.11,415.848 1831.06,193.076 1834.02,508.21 1836.98,214.669 1839.94,116.903 1842.9,659.76 1845.86,974.554 1848.81,504.666 1851.77,163.067 1854.73,1123.69 1857.69,685.345 1860.65,1062.23 1863.6,547.728 1866.56,515.096 1869.52,641.09 1872.48,1155.89 1875.44,473.218 1878.39,552.5 1881.35,907.714 1884.31,1007.97 1887.27,535.978 1890.23,227.607 1893.19,715.911 1896.14,236.505 1899.1,322.6 1902.06,1013.42 1905.02,1133.08 1907.98,1095.68 1910.93,193.112 1913.89,717.627 1916.85,437.59 1919.81,530.858 1922.77,325.308 1925.72,172.745 1928.68,1134.33 1931.64,1182.27 1934.6,1189.87 1937.56,217.578 1940.52,1007.19 1943.47,925.039 1946.43,717.138 1949.39,785.497 1952.35,859.168 1955.31,700.15 1958.26,110.617 1961.22,768.064 1964.18,824.891 1967.14,100.382 1970.1,661.503 1973.05,903.906 1976.01,1062.03 1978.97,1155.63 1981.93,595.456 1984.89,111.863 1987.84,856.577 1990.8,1082.36 1993.76,1088.8 1996.72,785.696 1999.68,218.269 2002.64,906.014 2005.59,199.651 2008.55,828.13 2011.51,1041.15 "/>
<path clip-path="url(#clip150)" d="M1761.48 190.502 L2002.04 190.502 L2002.04 86.8219 L1761.48 86.8219  Z" fill="#ffffff" fill-rule="evenodd" fill-opacity="1"/>
<polyline clip-path="url(#clip150)" style="stroke:#000000; stroke-linecap:round; stroke-linejoin:round; stroke-width:4; stroke-opacity:1; fill:none" points="1761.48,190.502 2002.04,190.502 2002.04,86.8219 1761.48,86.8219 1761.48,190.502 "/>
<polyline clip-path="url(#clip150)" style="stroke:#009af9; stroke-linecap:round; stroke-linejoin:round; stroke-width:4; stroke-opacity:1; fill:none" points="1782.38,138.662 1907.81,138.662 "/>
<path clip-path="url(#clip150)" d="M1942.55 158.349 Q1940.75 162.979 1939.03 164.391 Q1937.32 165.803 1934.45 165.803 L1931.05 165.803 L1931.05 162.238 L1933.55 162.238 Q1935.31 162.238 1936.28 161.405 Q1937.25 160.572 1938.43 157.47 L1939.2 155.525 L1928.71 130.016 L1933.22 130.016 L1941.33 150.294 L1949.43 130.016 L1953.94 130.016 L1942.55 158.349 Z" fill="#000000" fill-rule="nonzero" fill-opacity="1" /><path clip-path="url(#clip150)" d="M1961.23 152.007 L1968.87 152.007 L1968.87 125.641 L1960.56 127.308 L1960.56 123.049 L1968.83 121.382 L1973.5 121.382 L1973.5 152.007 L1981.14 152.007 L1981.14 155.942 L1961.23 155.942 L1961.23 152.007 Z" fill="#000000" fill-rule="nonzero" fill-opacity="1" /></svg>
