<?xml version="1.0" encoding="utf-8"?>
<svg xmlns="http://www.w3.org/2000/svg" xmlns:xlink="http://www.w3.org/1999/xlink" width="528" height="336" viewBox="0 0 2112 1344">
<defs>
  <clipPath id="clip060">
    <rect x="0" y="0" width="2112" height="1344"/>
  </clipPath>
</defs>
<path clip-path="url(#clip060)" d="M0 1344 L2112 1344 L2112 0 L0 0  Z" fill="#ffffff" fill-rule="evenodd" fill-opacity="1"/>
<defs>
  <clipPath id="clip061">
    <rect x="422" y="0" width="1479" height="1344"/>
  </clipPath>
</defs>
<path clip-path="url(#clip060)" d="M183.394 1234.58 L2064.76 1234.58 L2064.76 47.2441 L183.394 47.2441  Z" fill="#ffffff" fill-rule="evenodd" fill-opacity="1"/>
<defs>
  <clipPath id="clip062">
    <rect x="183" y="47" width="1882" height="1188"/>
  </clipPath>
</defs>
<polyline clip-path="url(#clip062)" style="stroke:#000000; stroke-linecap:round; stroke-linejoin:round; stroke-width:2; stroke-opacity:0.1; fill:none" points="236.64,1234.58 236.64,47.2441 "/>
<polyline clip-path="url(#clip062)" style="stroke:#000000; stroke-linecap:round; stroke-linejoin:round; stroke-width:2; stroke-opacity:0.1; fill:none" points="532.452,1234.58 532.452,47.2441 "/>
<polyline clip-path="url(#clip062)" style="stroke:#000000; stroke-linecap:round; stroke-linejoin:round; stroke-width:2; stroke-opacity:0.1; fill:none" points="828.263,1234.58 828.263,47.2441 "/>
<polyline clip-path="url(#clip062)" style="stroke:#000000; stroke-linecap:round; stroke-linejoin:round; stroke-width:2; stroke-opacity:0.1; fill:none" points="1124.07,1234.58 1124.07,47.2441 "/>
<polyline clip-path="url(#clip062)" style="stroke:#000000; stroke-linecap:round; stroke-linejoin:round; stroke-width:2; stroke-opacity:0.1; fill:none" points="1419.89,1234.58 1419.89,47.2441 "/>
<polyline clip-path="url(#clip062)" style="stroke:#000000; stroke-linecap:round; stroke-linejoin:round; stroke-width:2; stroke-opacity:0.1; fill:none" points="1715.7,1234.58 1715.7,47.2441 "/>
<polyline clip-path="url(#clip062)" style="stroke:#000000; stroke-linecap:round; stroke-linejoin:round; stroke-width:2; stroke-opacity:0.1; fill:none" points="2011.51,1234.58 2011.51,47.2441 "/>
<polyline clip-path="url(#clip060)" style="stroke:#000000; stroke-linecap:round; stroke-linejoin:round; stroke-width:4; stroke-opacity:1; fill:none" points="183.394,1234.58 2064.76,1234.58 "/>
<polyline clip-path="url(#clip060)" style="stroke:#000000; stroke-linecap:round; stroke-linejoin:round; stroke-width:4; stroke-opacity:1; fill:none" points="236.64,1234.58 236.64,1215.68 "/>
<polyline clip-path="url(#clip060)" style="stroke:#000000; stroke-linecap:round; stroke-linejoin:round; stroke-width:4; stroke-opacity:1; fill:none" points="532.452,1234.58 532.452,1215.68 "/>
<polyline clip-path="url(#clip060)" style="stroke:#000000; stroke-linecap:round; stroke-linejoin:round; stroke-width:4; stroke-opacity:1; fill:none" points="828.263,1234.58 828.263,1215.68 "/>
<polyline clip-path="url(#clip060)" style="stroke:#000000; stroke-linecap:round; stroke-linejoin:round; stroke-width:4; stroke-opacity:1; fill:none" points="1124.07,1234.58 1124.07,1215.68 "/>
<polyline clip-path="url(#clip060)" style="stroke:#000000; stroke-linecap:round; stroke-linejoin:round; stroke-width:4; stroke-opacity:1; fill:none" points="1419.89,1234.58 1419.89,1215.68 "/>
<polyline clip-path="url(#clip060)" style="stroke:#000000; stroke-linecap:round; stroke-linejoin:round; stroke-width:4; stroke-opacity:1; fill:none" points="1715.7,1234.58 1715.7,1215.68 "/>
<polyline clip-path="url(#clip060)" style="stroke:#000000; stroke-linecap:round; stroke-linejoin:round; stroke-width:4; stroke-opacity:1; fill:none" points="2011.51,1234.58 2011.51,1215.68 "/>
<path clip-path="url(#clip060)" d="M206.108 1277.85 L235.784 1277.85 L235.784 1281.78 L206.108 1281.78 L206.108 1277.85 Z" fill="#000000" fill-rule="nonzero" fill-opacity="1" /><path clip-path="url(#clip060)" d="M260.043 1276.04 Q263.399 1276.76 265.274 1279.03 Q267.172 1281.3 267.172 1284.63 Q267.172 1289.74 263.654 1292.55 Q260.135 1295.35 253.654 1295.35 Q251.478 1295.35 249.163 1294.91 Q246.872 1294.49 244.418 1293.63 L244.418 1289.12 Q246.362 1290.25 248.677 1290.83 Q250.992 1291.41 253.515 1291.41 Q257.913 1291.41 260.205 1289.67 Q262.52 1287.94 262.52 1284.63 Q262.52 1281.57 260.367 1279.86 Q258.237 1278.12 254.418 1278.12 L250.39 1278.12 L250.39 1274.28 L254.603 1274.28 Q258.052 1274.28 259.881 1272.92 Q261.709 1271.53 261.709 1268.93 Q261.709 1266.27 259.811 1264.86 Q257.936 1263.42 254.418 1263.42 Q252.496 1263.42 250.297 1263.84 Q248.098 1264.26 245.459 1265.14 L245.459 1260.97 Q248.122 1260.23 250.436 1259.86 Q252.774 1259.49 254.834 1259.49 Q260.158 1259.49 263.26 1261.92 Q266.362 1264.33 266.362 1268.45 Q266.362 1271.32 264.719 1273.31 Q263.075 1275.28 260.043 1276.04 Z" fill="#000000" fill-rule="nonzero" fill-opacity="1" /><path clip-path="url(#clip060)" d="M502.394 1277.85 L532.07 1277.85 L532.07 1281.78 L502.394 1281.78 L502.394 1277.85 Z" fill="#000000" fill-rule="nonzero" fill-opacity="1" /><path clip-path="url(#clip060)" d="M546.19 1290.74 L562.509 1290.74 L562.509 1294.67 L540.565 1294.67 L540.565 1290.74 Q543.227 1287.99 547.81 1283.36 Q552.417 1278.7 553.597 1277.36 Q555.843 1274.84 556.722 1273.1 Q557.625 1271.34 557.625 1269.65 Q557.625 1266.9 555.681 1265.16 Q553.759 1263.42 550.658 1263.42 Q548.459 1263.42 546.005 1264.19 Q543.574 1264.95 540.797 1266.5 L540.797 1261.78 Q543.621 1260.65 546.074 1260.07 Q548.528 1259.49 550.565 1259.49 Q555.935 1259.49 559.13 1262.17 Q562.324 1264.86 562.324 1269.35 Q562.324 1271.48 561.514 1273.4 Q560.727 1275.3 558.621 1277.89 Q558.042 1278.56 554.94 1281.78 Q551.838 1284.98 546.19 1290.74 Z" fill="#000000" fill-rule="nonzero" fill-opacity="1" /><path clip-path="url(#clip060)" d="M798.02 1277.85 L827.696 1277.85 L827.696 1281.78 L798.02 1281.78 L798.02 1277.85 Z" fill="#000000" fill-rule="nonzero" fill-opacity="1" /><path clip-path="url(#clip060)" d="M838.599 1290.74 L846.238 1290.74 L846.238 1264.37 L837.928 1266.04 L837.928 1261.78 L846.191 1260.11 L850.867 1260.11 L850.867 1290.74 L858.506 1290.74 L858.506 1294.67 L838.599 1294.67 L838.599 1290.74 Z" fill="#000000" fill-rule="nonzero" fill-opacity="1" /><path clip-path="url(#clip060)" d="M1124.07 1263.19 Q1120.46 1263.19 1118.64 1266.76 Q1116.83 1270.3 1116.83 1277.43 Q1116.83 1284.54 1118.64 1288.1 Q1120.46 1291.64 1124.07 1291.64 Q1127.71 1291.64 1129.51 1288.1 Q1131.34 1284.54 1131.34 1277.43 Q1131.34 1270.3 1129.51 1266.76 Q1127.71 1263.19 1124.07 1263.19 M1124.07 1259.49 Q1129.89 1259.49 1132.94 1264.1 Q1136.02 1268.68 1136.02 1277.43 Q1136.02 1286.16 1132.94 1290.76 Q1129.89 1295.35 1124.07 1295.35 Q1118.26 1295.35 1115.19 1290.76 Q1112.13 1286.16 1112.13 1277.43 Q1112.13 1268.68 1115.19 1264.1 Q1118.26 1259.49 1124.07 1259.49 Z" fill="#000000" fill-rule="nonzero" fill-opacity="1" /><path clip-path="url(#clip060)" d="M1410.27 1290.74 L1417.91 1290.74 L1417.91 1264.37 L1409.6 1266.04 L1409.6 1261.78 L1417.86 1260.11 L1422.54 1260.11 L1422.54 1290.74 L1430.18 1290.74 L1430.18 1294.67 L1410.27 1294.67 L1410.27 1290.74 Z" fill="#000000" fill-rule="nonzero" fill-opacity="1" /><path clip-path="url(#clip060)" d="M1710.35 1290.74 L1726.67 1290.74 L1726.67 1294.67 L1704.73 1294.67 L1704.73 1290.74 Q1707.39 1287.99 1711.97 1283.36 Q1716.58 1278.7 1717.76 1277.36 Q1720 1274.84 1720.88 1273.1 Q1721.79 1271.34 1721.79 1269.65 Q1721.79 1266.9 1719.84 1265.16 Q1717.92 1263.42 1714.82 1263.42 Q1712.62 1263.42 1710.17 1264.19 Q1707.74 1264.95 1704.96 1266.5 L1704.96 1261.78 Q1707.78 1260.65 1710.24 1260.07 Q1712.69 1259.49 1714.73 1259.49 Q1720.1 1259.49 1723.29 1262.17 Q1726.49 1264.86 1726.49 1269.35 Q1726.49 1271.48 1725.67 1273.4 Q1724.89 1275.3 1722.78 1277.89 Q1722.2 1278.56 1719.1 1281.78 Q1716 1284.98 1710.35 1290.74 Z" fill="#000000" fill-rule="nonzero" fill-opacity="1" /><path clip-path="url(#clip060)" d="M2015.76 1276.04 Q2019.11 1276.76 2020.99 1279.03 Q2022.89 1281.3 2022.89 1284.63 Q2022.89 1289.74 2019.37 1292.55 Q2015.85 1295.35 2009.37 1295.35 Q2007.19 1295.35 2004.88 1294.91 Q2002.59 1294.49 2000.13 1293.63 L2000.13 1289.12 Q2002.08 1290.25 2004.39 1290.83 Q2006.71 1291.41 2009.23 1291.41 Q2013.63 1291.41 2015.92 1289.67 Q2018.23 1287.94 2018.23 1284.63 Q2018.23 1281.57 2016.08 1279.86 Q2013.95 1278.12 2010.13 1278.12 L2006.1 1278.12 L2006.1 1274.28 L2010.32 1274.28 Q2013.77 1274.28 2015.6 1272.92 Q2017.42 1271.53 2017.42 1268.93 Q2017.42 1266.27 2015.53 1264.86 Q2013.65 1263.42 2010.13 1263.42 Q2008.21 1263.42 2006.01 1263.84 Q2003.81 1264.26 2001.17 1265.14 L2001.17 1260.97 Q2003.84 1260.23 2006.15 1259.86 Q2008.49 1259.49 2010.55 1259.49 Q2015.87 1259.49 2018.98 1261.92 Q2022.08 1264.33 2022.08 1268.45 Q2022.08 1271.32 2020.43 1273.31 Q2018.79 1275.28 2015.76 1276.04 Z" fill="#000000" fill-rule="nonzero" fill-opacity="1" /><polyline clip-path="url(#clip062)" style="stroke:#000000; stroke-linecap:round; stroke-linejoin:round; stroke-width:2; stroke-opacity:0.1; fill:none" points="183.394,1203.41 2064.76,1203.41 "/>
<polyline clip-path="url(#clip062)" style="stroke:#000000; stroke-linecap:round; stroke-linejoin:round; stroke-width:2; stroke-opacity:0.1; fill:none" points="183.394,921.758 2064.76,921.758 "/>
<polyline clip-path="url(#clip062)" style="stroke:#000000; stroke-linecap:round; stroke-linejoin:round; stroke-width:2; stroke-opacity:0.1; fill:none" points="183.394,640.102 2064.76,640.102 "/>
<polyline clip-path="url(#clip062)" style="stroke:#000000; stroke-linecap:round; stroke-linejoin:round; stroke-width:2; stroke-opacity:0.1; fill:none" points="183.394,358.446 2064.76,358.446 "/>
<polyline clip-path="url(#clip062)" style="stroke:#000000; stroke-linecap:round; stroke-linejoin:round; stroke-width:2; stroke-opacity:0.1; fill:none" points="183.394,76.7905 2064.76,76.7905 "/>
<polyline clip-path="url(#clip060)" style="stroke:#000000; stroke-linecap:round; stroke-linejoin:round; stroke-width:4; stroke-opacity:1; fill:none" points="183.394,1234.58 183.394,47.2441 "/>
<polyline clip-path="url(#clip060)" style="stroke:#000000; stroke-linecap:round; stroke-linejoin:round; stroke-width:4; stroke-opacity:1; fill:none" points="183.394,1203.41 202.292,1203.41 "/>
<polyline clip-path="url(#clip060)" style="stroke:#000000; stroke-linecap:round; stroke-linejoin:round; stroke-width:4; stroke-opacity:1; fill:none" points="183.394,921.758 202.292,921.758 "/>
<polyline clip-path="url(#clip060)" style="stroke:#000000; stroke-linecap:round; stroke-linejoin:round; stroke-width:4; stroke-opacity:1; fill:none" points="183.394,640.102 202.292,640.102 "/>
<polyline clip-path="url(#clip060)" style="stroke:#000000; stroke-linecap:round; stroke-linejoin:round; stroke-width:4; stroke-opacity:1; fill:none" points="183.394,358.446 202.292,358.446 "/>
<polyline clip-path="url(#clip060)" style="stroke:#000000; stroke-linecap:round; stroke-linejoin:round; stroke-width:4; stroke-opacity:1; fill:none" points="183.394,76.7905 202.292,76.7905 "/>
<path clip-path="url(#clip060)" d="M64.3765 1189.21 Q60.7654 1189.21 58.9367 1192.78 Q57.1312 1196.32 57.1312 1203.45 Q57.1312 1210.56 58.9367 1214.12 Q60.7654 1217.66 64.3765 1217.66 Q68.0107 1217.66 69.8163 1214.12 Q71.645 1210.56 71.645 1203.45 Q71.645 1196.32 69.8163 1192.78 Q68.0107 1189.21 64.3765 1189.21 M64.3765 1185.51 Q70.1867 1185.51 73.2422 1190.12 Q76.3209 1194.7 76.3209 1203.45 Q76.3209 1212.18 73.2422 1216.78 Q70.1867 1221.37 64.3765 1221.37 Q58.5664 1221.37 55.4877 1216.78 Q52.4321 1212.18 52.4321 1203.45 Q52.4321 1194.7 55.4877 1190.12 Q58.5664 1185.51 64.3765 1185.51 Z" fill="#000000" fill-rule="nonzero" fill-opacity="1" /><path clip-path="url(#clip060)" d="M84.5384 1214.81 L89.4227 1214.81 L89.4227 1220.69 L84.5384 1220.69 L84.5384 1214.81 Z" fill="#000000" fill-rule="nonzero" fill-opacity="1" /><path clip-path="url(#clip060)" d="M109.608 1189.21 Q105.997 1189.21 104.168 1192.78 Q102.362 1196.32 102.362 1203.45 Q102.362 1210.56 104.168 1214.12 Q105.997 1217.66 109.608 1217.66 Q113.242 1217.66 115.048 1214.12 Q116.876 1210.56 116.876 1203.45 Q116.876 1196.32 115.048 1192.78 Q113.242 1189.21 109.608 1189.21 M109.608 1185.51 Q115.418 1185.51 118.473 1190.12 Q121.552 1194.7 121.552 1203.45 Q121.552 1212.18 118.473 1216.78 Q115.418 1221.37 109.608 1221.37 Q103.798 1221.37 100.719 1216.78 Q97.6634 1212.18 97.6634 1203.45 Q97.6634 1194.7 100.719 1190.12 Q103.798 1185.51 109.608 1185.51 Z" fill="#000000" fill-rule="nonzero" fill-opacity="1" /><path clip-path="url(#clip060)" d="M139.77 1189.21 Q136.159 1189.21 134.33 1192.78 Q132.524 1196.32 132.524 1203.45 Q132.524 1210.56 134.33 1214.12 Q136.159 1217.66 139.77 1217.66 Q143.404 1217.66 145.209 1214.12 Q147.038 1210.56 147.038 1203.45 Q147.038 1196.32 145.209 1192.78 Q143.404 1189.21 139.77 1189.21 M139.77 1185.51 Q145.58 1185.51 148.635 1190.12 Q151.714 1194.7 151.714 1203.45 Q151.714 1212.18 148.635 1216.78 Q145.58 1221.37 139.77 1221.37 Q133.959 1221.37 130.881 1216.78 Q127.825 1212.18 127.825 1203.45 Q127.825 1194.7 130.881 1190.12 Q133.959 1185.51 139.77 1185.51 Z" fill="#000000" fill-rule="nonzero" fill-opacity="1" /><path clip-path="url(#clip060)" d="M65.3719 907.557 Q61.7608 907.557 59.9321 911.122 Q58.1265 914.664 58.1265 921.793 Q58.1265 928.9 59.9321 932.464 Q61.7608 936.006 65.3719 936.006 Q69.0061 936.006 70.8117 932.464 Q72.6404 928.9 72.6404 921.793 Q72.6404 914.664 70.8117 911.122 Q69.0061 907.557 65.3719 907.557 M65.3719 903.853 Q71.182 903.853 74.2376 908.46 Q77.3163 913.043 77.3163 921.793 Q77.3163 930.52 74.2376 935.126 Q71.182 939.71 65.3719 939.71 Q59.5617 939.71 56.483 935.126 Q53.4275 930.52 53.4275 921.793 Q53.4275 913.043 56.483 908.46 Q59.5617 903.853 65.3719 903.853 Z" fill="#000000" fill-rule="nonzero" fill-opacity="1" /><path clip-path="url(#clip060)" d="M85.5338 933.159 L90.418 933.159 L90.418 939.038 L85.5338 939.038 L85.5338 933.159 Z" fill="#000000" fill-rule="nonzero" fill-opacity="1" /><path clip-path="url(#clip060)" d="M104.631 935.103 L120.95 935.103 L120.95 939.038 L99.006 939.038 L99.006 935.103 Q101.668 932.349 106.251 927.719 Q110.858 923.066 112.038 921.724 Q114.284 919.201 115.163 917.464 Q116.066 915.705 116.066 914.015 Q116.066 911.261 114.122 909.525 Q112.2 907.789 109.098 907.789 Q106.899 907.789 104.446 908.552 Q102.015 909.316 99.2374 910.867 L99.2374 906.145 Q102.061 905.011 104.515 904.432 Q106.969 903.853 109.006 903.853 Q114.376 903.853 117.571 906.539 Q120.765 909.224 120.765 913.714 Q120.765 915.844 119.955 917.765 Q119.168 919.664 117.061 922.256 Q116.483 922.927 113.381 926.145 Q110.279 929.339 104.631 935.103 Z" fill="#000000" fill-rule="nonzero" fill-opacity="1" /><path clip-path="url(#clip060)" d="M130.811 904.478 L149.168 904.478 L149.168 908.414 L135.094 908.414 L135.094 916.886 Q136.112 916.539 137.131 916.377 Q138.149 916.191 139.168 916.191 Q144.955 916.191 148.334 919.363 Q151.714 922.534 151.714 927.951 Q151.714 933.529 148.242 936.631 Q144.77 939.71 138.45 939.71 Q136.274 939.71 134.006 939.339 Q131.76 938.969 129.353 938.228 L129.353 933.529 Q131.436 934.663 133.659 935.219 Q135.881 935.775 138.358 935.775 Q142.362 935.775 144.7 933.668 Q147.038 931.562 147.038 927.951 Q147.038 924.339 144.7 922.233 Q142.362 920.126 138.358 920.126 Q136.483 920.126 134.608 920.543 Q132.756 920.96 130.811 921.839 L130.811 904.478 Z" fill="#000000" fill-rule="nonzero" fill-opacity="1" /><path clip-path="url(#clip060)" d="M64.3765 625.901 Q60.7654 625.901 58.9367 629.466 Q57.1312 633.008 57.1312 640.137 Q57.1312 647.244 58.9367 650.808 Q60.7654 654.35 64.3765 654.35 Q68.0107 654.35 69.8163 650.808 Q71.645 647.244 71.645 640.137 Q71.645 633.008 69.8163 629.466 Q68.0107 625.901 64.3765 625.901 M64.3765 622.197 Q70.1867 622.197 73.2422 626.804 Q76.3209 631.387 76.3209 640.137 Q76.3209 648.864 73.2422 653.47 Q70.1867 658.054 64.3765 658.054 Q58.5664 658.054 55.4877 653.47 Q52.4321 648.864 52.4321 640.137 Q52.4321 631.387 55.4877 626.804 Q58.5664 622.197 64.3765 622.197 Z" fill="#000000" fill-rule="nonzero" fill-opacity="1" /><path clip-path="url(#clip060)" d="M84.5384 651.503 L89.4227 651.503 L89.4227 657.382 L84.5384 657.382 L84.5384 651.503 Z" fill="#000000" fill-rule="nonzero" fill-opacity="1" /><path clip-path="url(#clip060)" d="M99.6541 622.822 L118.01 622.822 L118.01 626.758 L103.936 626.758 L103.936 635.23 Q104.955 634.883 105.974 634.721 Q106.992 634.535 108.011 634.535 Q113.798 634.535 117.177 637.707 Q120.557 640.878 120.557 646.295 Q120.557 651.873 117.085 654.975 Q113.612 658.054 107.293 658.054 Q105.117 658.054 102.849 657.683 Q100.603 657.313 98.1958 656.572 L98.1958 651.873 Q100.279 653.007 102.501 653.563 Q104.724 654.119 107.2 654.119 Q111.205 654.119 113.543 652.012 Q115.881 649.906 115.881 646.295 Q115.881 642.683 113.543 640.577 Q111.205 638.471 107.2 638.471 Q105.325 638.471 103.45 638.887 Q101.599 639.304 99.6541 640.183 L99.6541 622.822 Z" fill="#000000" fill-rule="nonzero" fill-opacity="1" /><path clip-path="url(#clip060)" d="M139.77 625.901 Q136.159 625.901 134.33 629.466 Q132.524 633.008 132.524 640.137 Q132.524 647.244 134.33 650.808 Q136.159 654.35 139.77 654.35 Q143.404 654.35 145.209 650.808 Q147.038 647.244 147.038 640.137 Q147.038 633.008 145.209 629.466 Q143.404 625.901 139.77 625.901 M139.77 622.197 Q145.58 622.197 148.635 626.804 Q151.714 631.387 151.714 640.137 Q151.714 648.864 148.635 653.47 Q145.58 658.054 139.77 658.054 Q133.959 658.054 130.881 653.47 Q127.825 648.864 127.825 640.137 Q127.825 631.387 130.881 626.804 Q133.959 622.197 139.77 622.197 Z" fill="#000000" fill-rule="nonzero" fill-opacity="1" /><path clip-path="url(#clip060)" d="M65.3719 344.245 Q61.7608 344.245 59.9321 347.81 Q58.1265 351.352 58.1265 358.481 Q58.1265 365.588 59.9321 369.152 Q61.7608 372.694 65.3719 372.694 Q69.0061 372.694 70.8117 369.152 Q72.6404 365.588 72.6404 358.481 Q72.6404 351.352 70.8117 347.81 Q69.0061 344.245 65.3719 344.245 M65.3719 340.541 Q71.182 340.541 74.2376 345.148 Q77.3163 349.731 77.3163 358.481 Q77.3163 367.208 74.2376 371.814 Q71.182 376.398 65.3719 376.398 Q59.5617 376.398 56.483 371.814 Q53.4275 367.208 53.4275 358.481 Q53.4275 349.731 56.483 345.148 Q59.5617 340.541 65.3719 340.541 Z" fill="#000000" fill-rule="nonzero" fill-opacity="1" /><path clip-path="url(#clip060)" d="M85.5338 369.847 L90.418 369.847 L90.418 375.726 L85.5338 375.726 L85.5338 369.847 Z" fill="#000000" fill-rule="nonzero" fill-opacity="1" /><path clip-path="url(#clip060)" d="M99.4226 341.166 L121.645 341.166 L121.645 343.157 L109.098 375.726 L104.214 375.726 L116.02 345.102 L99.4226 345.102 L99.4226 341.166 Z" fill="#000000" fill-rule="nonzero" fill-opacity="1" /><path clip-path="url(#clip060)" d="M130.811 341.166 L149.168 341.166 L149.168 345.102 L135.094 345.102 L135.094 353.574 Q136.112 353.227 137.131 353.065 Q138.149 352.879 139.168 352.879 Q144.955 352.879 148.334 356.051 Q151.714 359.222 151.714 364.639 Q151.714 370.217 148.242 373.319 Q144.77 376.398 138.45 376.398 Q136.274 376.398 134.006 376.027 Q131.76 375.657 129.353 374.916 L129.353 370.217 Q131.436 371.351 133.659 371.907 Q135.881 372.463 138.358 372.463 Q142.362 372.463 144.7 370.356 Q147.038 368.25 147.038 364.639 Q147.038 361.027 144.7 358.921 Q142.362 356.815 138.358 356.815 Q136.483 356.815 134.608 357.231 Q132.756 357.648 130.811 358.527 L130.811 341.166 Z" fill="#000000" fill-rule="nonzero" fill-opacity="1" /><path clip-path="url(#clip060)" d="M55.1867 90.1353 L62.8256 90.1353 L62.8256 63.7697 L54.5154 65.4364 L54.5154 61.1771 L62.7793 59.5105 L67.4552 59.5105 L67.4552 90.1353 L75.094 90.1353 L75.094 94.0705 L55.1867 94.0705 L55.1867 90.1353 Z" fill="#000000" fill-rule="nonzero" fill-opacity="1" /><path clip-path="url(#clip060)" d="M84.5384 88.1909 L89.4227 88.1909 L89.4227 94.0705 L84.5384 94.0705 L84.5384 88.1909 Z" fill="#000000" fill-rule="nonzero" fill-opacity="1" /><path clip-path="url(#clip060)" d="M109.608 62.5892 Q105.997 62.5892 104.168 66.154 Q102.362 69.6956 102.362 76.8252 Q102.362 83.9316 104.168 87.4964 Q105.997 91.0381 109.608 91.0381 Q113.242 91.0381 115.048 87.4964 Q116.876 83.9316 116.876 76.8252 Q116.876 69.6956 115.048 66.154 Q113.242 62.5892 109.608 62.5892 M109.608 58.8855 Q115.418 58.8855 118.473 63.4919 Q121.552 68.0752 121.552 76.8252 Q121.552 85.552 118.473 90.1585 Q115.418 94.7418 109.608 94.7418 Q103.798 94.7418 100.719 90.1585 Q97.6634 85.552 97.6634 76.8252 Q97.6634 68.0752 100.719 63.4919 Q103.798 58.8855 109.608 58.8855 Z" fill="#000000" fill-rule="nonzero" fill-opacity="1" /><path clip-path="url(#clip060)" d="M139.77 62.5892 Q136.159 62.5892 134.33 66.154 Q132.524 69.6956 132.524 76.8252 Q132.524 83.9316 134.33 87.4964 Q136.159 91.0381 139.77 91.0381 Q143.404 91.0381 145.209 87.4964 Q147.038 83.9316 147.038 76.8252 Q147.038 69.6956 145.209 66.154 Q143.404 62.5892 139.77 62.5892 M139.77 58.8855 Q145.58 58.8855 148.635 63.4919 Q151.714 68.0752 151.714 76.8252 Q151.714 85.552 148.635 90.1585 Q145.58 94.7418 139.77 94.7418 Q133.959 94.7418 130.881 90.1585 Q127.825 85.552 127.825 76.8252 Q127.825 68.0752 130.881 63.4919 Q133.959 58.8855 139.77 58.8855 Z" fill="#000000" fill-rule="nonzero" fill-opacity="1" /><polyline clip-path="url(#clip062)" style="stroke:#009af9; stroke-linecap:round; stroke-linejoin:round; stroke-width:4; stroke-opacity:1; fill:none" points="236.64,1084.17 239.598,1161 242.556,698.28 245.514,1062.58 248.473,1057.14 251.431,613.595 254.389,521.272 257.347,592.722 260.305,867.054 263.263,1072.94 266.221,673.416 269.179,174.838 272.137,193.312 275.096,105.107 278.054,500.343 281.012,88.6017 283.97,93.0007 286.928,1081.25 289.886,791.212 292.844,351.204 295.802,986.504 298.761,216.688 301.719,1009.87 304.677,315.913 307.635,83.2956 310.593,425.367 313.551,364.691 316.509,1162.97 319.467,554.569 322.425,989.488 325.384,906.704 328.342,1200.44 331.3,694.757 334.258,232.439 337.216,1131.48 340.174,223.193 343.132,347.825 346.09,855.881 349.049,1040.37 352.007,116.206 354.965,506.045 357.923,242.118 360.881,790.982 363.839,384.229 366.797,603.214 369.755,901.326 372.713,127.126 375.672,351.718 378.63,874.539 381.588,760.753 384.546,519.789 387.504,1049.68 390.462,594.346 393.42,102.686 396.378,902.228 399.336,433.471 402.295,1082.72 405.253,1161.03 408.211,1194.29 411.169,607.174 414.127,974.148 417.085,564.106 420.043,475.66 423.001,218.149 425.96,366.977 428.918,609.286 431.876,807.923 434.834,569.894 437.792,1108.31 440.75,1157.14 443.708,1057.6 446.666,949.565 449.624,505.583 452.583,914.324 455.541,731.299 458.499,1097.84 461.457,698.501 464.415,1122.16 467.373,288.608 470.331,537.917 473.289,430.464 476.248,970.326 479.206,383.512 482.164,960.321 485.122,198.842 488.08,860.024 491.038,1079.73 493.996,1107.14 496.954,244.975 499.912,1119.95 502.871,498.618 505.829,501.728 508.787,460.469 511.745,664.155 514.703,126.333 517.661,184.553 520.619,468.366 523.577,207.554 526.535,1017.76 529.494,500.133 532.452,558.423 535.41,174.026 538.368,586.629 541.326,479.476 544.284,694.367 547.242,924.902 550.2,834.338 553.159,815.853 556.117,673.007 559.075,660.674 562.033,252.06 564.991,581.596 567.949,352.895 570.907,690.506 573.865,1069.83 576.823,252.179 579.782,840.285 582.74,1133.62 585.698,424.405 588.656,905.121 591.614,271.949 594.572,252.506 597.53,560.751 600.488,1200.97 603.447,927.838 606.405,918.619 609.363,643.434 612.321,718.534 615.279,319.041 618.237,166.729 621.195,189.278 624.153,1018.46 627.111,877.774 630.07,326.307 633.028,249.822 635.986,618.093 638.944,522.679 641.902,669.786 644.86,863.537 647.818,721.216 650.776,1102.47 653.734,1189.2 656.693,501.475 659.651,1082.57 662.609,714.164 665.567,1162.5 668.525,522.093 671.483,1189.07 674.441,718.473 677.399,748.439 680.358,256.561 683.316,860.362 686.274,687.722 689.232,925.466 692.19,338.173 695.148,340.997 698.106,111.103 701.064,874.208 704.022,484.223 706.981,472.857 709.939,994.86 712.897,101.893 715.855,899.028 718.813,895.907 721.771,165.064 724.729,230.336 727.687,715.106 730.645,1086.72 733.604,1096.23 736.562,923.9 739.52,485.131 742.478,644.88 745.436,114.336 748.394,832.153 751.352,310.727 754.31,1074.79 757.269,809.128 760.227,308.409 763.185,654.243 766.143,189.197 769.101,567.485 772.059,806.654 775.017,689.068 777.975,240.181 780.933,834.744 783.892,742.882 786.85,972.717 789.808,398.788 792.766,291.629 795.724,936.456 798.682,466.927 801.64,1197.47 804.598,407.335 807.557,663.117 810.515,572.322 813.473,152.665 816.431,1086.99 819.389,735.626 822.347,996.246 825.305,588.876 828.263,934.997 831.221,753.368 834.18,199.661 837.138,803.495 840.096,1118.18 843.054,521.985 846.012,1032.18 848.97,319.252 851.928,346.151 854.886,451.654 857.844,929.337 860.803,997.612 863.761,748.928 866.719,551.506 869.677,510.642 872.635,220.432 875.593,241.843 878.551,524.726 881.509,200.146 884.468,1038.26 887.426,135.11 890.384,379.436 893.342,1014.13 896.3,127.638 899.258,97.7725 902.216,181.043 905.174,1171.29 908.132,1065.27 911.091,162.253 914.049,1056.48 917.007,1019.63 919.965,402.731 922.923,687.199 925.881,1170.42 928.839,257.122 931.797,850.664 934.756,393.482 937.714,87.25 940.672,220.776 943.63,1137.83 946.588,1019.43 949.546,359.35 952.504,673.836 955.462,290.084 958.42,903.776 961.379,1099.62 964.337,835.426 967.295,456.428 970.253,524.023 973.211,780.658 976.169,613.894 979.127,150.099 982.085,139.997 985.043,903.074 988.002,605.691 990.96,1061.37 993.918,700.949 996.876,867.206 999.834,1013.75 1002.79,85.8945 1005.75,290.985 1008.71,200.262 1011.67,223.843 1014.62,475.657 1017.58,123.298 1020.54,1088.66 1023.5,435.078 1026.46,278.538 1029.42,265.149 1032.37,94.2127 1035.33,784.417 1038.29,178.228 1041.25,1056.6 1044.21,786.805 1047.16,1009.78 1050.12,351.495 1053.08,596.545 1056.04,913.614 1059,418.32 1061.95,1111.27 1064.91,945.876 1067.87,844.108 1070.83,473.98 1073.79,377.727 1076.75,900.668 1079.7,233.641 1082.66,178.797 1085.62,574.098 1088.58,553.327 1091.54,1001 1094.49,536.148 1097.45,670.463 1100.41,747.298 1103.37,350.615 1106.33,214.472 1109.28,638.242 1112.24,608.369 1115.2,860.058 1118.16,479.683 1121.12,928.021 1124.07,781.627 1127.03,654.482 1129.99,615.816 1132.95,312.583 1135.91,628.622 1138.87,96.5936 1141.82,658.222 1144.78,1090.88 1147.74,141.455 1150.7,360.675 1153.66,622.767 1156.61,564.235 1159.57,925.95 1162.53,987.99 1165.49,117.821 1168.45,801.526 1171.4,177.26 1174.36,470.373 1177.32,514.17 1180.28,407.707 1183.24,193.382 1186.2,86.8683 1189.15,194.737 1192.11,1125.79 1195.07,499.618 1198.03,121.873 1200.99,723.559 1203.94,1108.6 1206.9,784.819 1209.86,967.925 1212.82,868.276 1215.78,326.851 1218.73,978.207 1221.69,448.599 1224.65,896.003 1227.61,178.083 1230.57,285.878 1233.53,796.348 1236.48,441.662 1239.44,476.286 1242.4,759.078 1245.36,946.247 1248.32,229.592 1251.27,137.715 1254.23,642.673 1257.19,404.445 1260.15,195.765 1263.11,1035.25 1266.06,852.769 1269.02,391.507 1271.98,165.218 1274.94,766.642 1277.9,850.448 1280.86,1035.06 1283.81,1072.7 1286.77,389.596 1289.73,202.112 1292.69,143.167 1295.65,410.07 1298.6,962.789 1301.56,732.871 1304.52,532.332 1307.48,132.242 1310.44,1126.03 1313.39,792.368 1316.35,567.993 1319.31,810.502 1322.27,749.068 1325.23,468.34 1328.18,690.498 1331.14,415.768 1334.1,1184.36 1337.06,1101.14 1340.02,545.393 1342.98,642.641 1345.93,1000.2 1348.89,529.184 1351.85,851.435 1354.81,584.31 1357.77,1077.16 1360.72,119.055 1363.68,850.706 1366.64,327.596 1369.6,1077.64 1372.56,559.488 1375.51,639.201 1378.47,932.109 1381.43,393.723 1384.39,294.368 1387.35,350.45 1390.31,338.362 1393.26,937.523 1396.22,349.55 1399.18,788.435 1402.14,1166.32 1405.1,1128.43 1408.05,384.627 1411.01,384.446 1413.97,585.346 1416.93,328.35 1419.89,240.789 1422.84,434.245 1425.8,492.452 1428.76,180.237 1431.72,616.824 1434.68,111.468 1437.64,242.228 1440.59,973.243 1443.55,413.294 1446.51,726.535 1449.47,434.608 1452.43,830.605 1455.38,174.007 1458.34,839.004 1461.3,341.232 1464.26,888.867 1467.22,1016.86 1470.17,417.883 1473.13,244.621 1476.09,685.626 1479.05,373.054 1482.01,996.345 1484.97,877.478 1487.92,630.908 1490.88,1133.39 1493.84,270.7 1496.8,772.938 1499.76,768.579 1502.71,638.218 1505.67,523.171 1508.63,263.331 1511.59,369.207 1514.55,247.955 1517.5,237.881 1520.46,775.275 1523.42,750.485 1526.38,598.112 1529.34,709.835 1532.29,407.919 1535.25,687.071 1538.21,638.422 1541.17,809.431 1544.13,130.683 1547.09,792.184 1550.04,915.841 1553,93.7479 1555.96,285.776 1558.92,537.618 1561.88,100.835 1564.83,611.588 1567.79,288.656 1570.75,392.056 1573.71,419.52 1576.67,353.114 1579.62,284.696 1582.58,203.935 1585.54,393.539 1588.5,740.217 1591.46,688.235 1594.42,237.52 1597.37,159.577 1600.33,546.122 1603.29,375.891 1606.25,1193.74 1609.21,165.085 1612.16,1069.14 1615.12,805.571 1618.08,183.705 1621.04,268.047 1624,228.48 1626.95,818.773 1629.91,993.657 1632.87,522.131 1635.83,1041.53 1638.79,348.486 1641.75,472.579 1644.7,636.802 1647.66,249.661 1650.62,124.247 1653.58,758.818 1656.54,776.538 1659.49,767.355 1662.45,454.341 1665.41,486.313 1668.37,107.858 1671.33,639.243 1674.28,969.826 1677.24,783.943 1680.2,874.94 1683.16,202.402 1686.12,704.471 1689.08,669.829 1692.03,584.278 1694.99,415.385 1697.95,476.235 1700.91,138.963 1703.87,884.635 1706.82,636.369 1709.78,1136.61 1712.74,1068.31 1715.7,915.885 1718.66,815.552 1721.61,349.448 1724.57,1162.76 1727.53,393.414 1730.49,299.988 1733.45,383.291 1736.41,578.832 1739.36,909.257 1742.32,973.058 1745.28,544.394 1748.24,1103.27 1751.2,1150.3 1754.15,504.036 1757.11,913.128 1760.07,500.055 1763.03,1162.49 1765.99,1042.77 1768.94,1124.67 1771.9,754.622 1774.86,1159.87 1777.82,585.75 1780.78,138.06 1783.73,795.386 1786.69,80.8479 1789.65,378.773 1792.61,712.463 1795.57,916.74 1798.53,164.979 1801.48,339.946 1804.44,113.672 1807.4,430.862 1810.36,770.759 1813.32,973.844 1816.27,397.466 1819.23,397.403 1822.19,1141.98 1825.15,1041.94 1828.11,239.754 1831.06,655.169 1834.02,597.782 1836.98,695.591 1839.94,877.825 1842.9,1035.47 1845.86,356.586 1848.81,244.169 1851.77,769.856 1854.73,917.55 1857.69,742.508 1860.65,144.914 1863.6,501.603 1866.56,122.812 1869.52,641.59 1872.48,570.377 1875.44,1078.55 1878.39,533.728 1881.35,159.7 1884.31,652.227 1887.27,991.835 1890.23,167.574 1893.19,132.39 1896.14,1115.72 1899.1,1116.18 1902.06,121.549 1905.02,509.71 1907.98,296.158 1910.93,760.344 1913.89,311.476 1916.85,660.796 1919.81,453.828 1922.77,794.048 1925.72,249.873 1928.68,654.679 1931.64,122.457 1934.6,649.139 1937.56,1155.67 1940.52,985.104 1943.47,730.365 1946.43,938.141 1949.39,700.171 1952.35,666.598 1955.31,366.171 1958.26,668.06 1961.22,924.138 1964.18,856.014 1967.14,479.227 1970.1,293.603 1973.05,541.467 1976.01,596.677 1978.97,199.974 1981.93,685.241 1984.89,833.094 1987.84,573.141 1990.8,734.895 1993.76,383.838 1996.72,1089.15 1999.68,93.9387 2002.64,544.841 2005.59,344.35 2008.55,641.352 2011.51,490.603 "/>
<path clip-path="url(#clip060)" d="M1761.48 1195 L2002.04 1195 L2002.04 1091.32 L1761.48 1091.32  Z" fill="#ffffff" fill-rule="evenodd" fill-opacity="1"/>
<polyline clip-path="url(#clip060)" style="stroke:#000000; stroke-linecap:round; stroke-linejoin:round; stroke-width:4; stroke-opacity:1; fill:none" points="1761.48,1195 2002.04,1195 2002.04,1091.32 1761.48,1091.32 1761.48,1195 "/>
<polyline clip-path="url(#clip060)" style="stroke:#009af9; stroke-linecap:round; stroke-linejoin:round; stroke-width:4; stroke-opacity:1; fill:none" points="1782.38,1143.16 1907.81,1143.16 "/>
<path clip-path="url(#clip060)" d="M1942.55 1162.85 Q1940.75 1167.48 1939.03 1168.89 Q1937.32 1170.3 1934.45 1170.3 L1931.05 1170.3 L1931.05 1166.74 L1933.55 1166.74 Q1935.31 1166.74 1936.28 1165.9 Q1937.25 1165.07 1938.43 1161.97 L1939.2 1160.02 L1928.71 1134.52 L1933.22 1134.52 L1941.33 1154.79 L1949.43 1134.52 L1953.94 1134.52 L1942.55 1162.85 Z" fill="#000000" fill-rule="nonzero" fill-opacity="1" /><path clip-path="url(#clip060)" d="M1961.23 1156.51 L1968.87 1156.51 L1968.87 1130.14 L1960.56 1131.81 L1960.56 1127.55 L1968.83 1125.88 L1973.5 1125.88 L1973.5 1156.51 L1981.14 1156.51 L1981.14 1160.44 L1961.23 1160.44 L1961.23 1156.51 Z" fill="#000000" fill-rule="nonzero" fill-opacity="1" /></svg>
