<?xml version="1.0" encoding="utf-8"?>
<svg xmlns="http://www.w3.org/2000/svg" xmlns:xlink="http://www.w3.org/1999/xlink" width="528" height="336" viewBox="0 0 2112 1344">
<defs>
  <clipPath id="clip770">
    <rect x="0" y="0" width="2112" height="1344"/>
  </clipPath>
</defs>
<path clip-path="url(#clip770)" d="M0 1344 L2112 1344 L2112 0 L0 0  Z" fill="#ffffff" fill-rule="evenodd" fill-opacity="1"/>
<defs>
  <clipPath id="clip771">
    <rect x="422" y="0" width="1479" height="1344"/>
  </clipPath>
</defs>
<path clip-path="url(#clip770)" d="M183.394 1234.58 L2064.76 1234.58 L2064.76 47.2441 L183.394 47.2441  Z" fill="#ffffff" fill-rule="evenodd" fill-opacity="1"/>
<defs>
  <clipPath id="clip772">
    <rect x="183" y="47" width="1882" height="1188"/>
  </clipPath>
</defs>
<polyline clip-path="url(#clip772)" style="stroke:#000000; stroke-linecap:round; stroke-linejoin:round; stroke-width:2; stroke-opacity:0.1; fill:none" points="236.64,1234.58 236.64,47.2441 "/>
<polyline clip-path="url(#clip772)" style="stroke:#000000; stroke-linecap:round; stroke-linejoin:round; stroke-width:2; stroke-opacity:0.1; fill:none" points="532.452,1234.58 532.452,47.2441 "/>
<polyline clip-path="url(#clip772)" style="stroke:#000000; stroke-linecap:round; stroke-linejoin:round; stroke-width:2; stroke-opacity:0.1; fill:none" points="828.263,1234.58 828.263,47.2441 "/>
<polyline clip-path="url(#clip772)" style="stroke:#000000; stroke-linecap:round; stroke-linejoin:round; stroke-width:2; stroke-opacity:0.1; fill:none" points="1124.07,1234.58 1124.07,47.2441 "/>
<polyline clip-path="url(#clip772)" style="stroke:#000000; stroke-linecap:round; stroke-linejoin:round; stroke-width:2; stroke-opacity:0.1; fill:none" points="1419.89,1234.58 1419.89,47.2441 "/>
<polyline clip-path="url(#clip772)" style="stroke:#000000; stroke-linecap:round; stroke-linejoin:round; stroke-width:2; stroke-opacity:0.1; fill:none" points="1715.7,1234.58 1715.7,47.2441 "/>
<polyline clip-path="url(#clip772)" style="stroke:#000000; stroke-linecap:round; stroke-linejoin:round; stroke-width:2; stroke-opacity:0.1; fill:none" points="2011.51,1234.58 2011.51,47.2441 "/>
<polyline clip-path="url(#clip770)" style="stroke:#000000; stroke-linecap:round; stroke-linejoin:round; stroke-width:4; stroke-opacity:1; fill:none" points="183.394,1234.58 2064.76,1234.58 "/>
<polyline clip-path="url(#clip770)" style="stroke:#000000; stroke-linecap:round; stroke-linejoin:round; stroke-width:4; stroke-opacity:1; fill:none" points="236.64,1234.58 236.64,1215.68 "/>
<polyline clip-path="url(#clip770)" style="stroke:#000000; stroke-linecap:round; stroke-linejoin:round; stroke-width:4; stroke-opacity:1; fill:none" points="532.452,1234.58 532.452,1215.68 "/>
<polyline clip-path="url(#clip770)" style="stroke:#000000; stroke-linecap:round; stroke-linejoin:round; stroke-width:4; stroke-opacity:1; fill:none" points="828.263,1234.58 828.263,1215.68 "/>
<polyline clip-path="url(#clip770)" style="stroke:#000000; stroke-linecap:round; stroke-linejoin:round; stroke-width:4; stroke-opacity:1; fill:none" points="1124.07,1234.58 1124.07,1215.68 "/>
<polyline clip-path="url(#clip770)" style="stroke:#000000; stroke-linecap:round; stroke-linejoin:round; stroke-width:4; stroke-opacity:1; fill:none" points="1419.89,1234.58 1419.89,1215.68 "/>
<polyline clip-path="url(#clip770)" style="stroke:#000000; stroke-linecap:round; stroke-linejoin:round; stroke-width:4; stroke-opacity:1; fill:none" points="1715.7,1234.58 1715.7,1215.68 "/>
<polyline clip-path="url(#clip770)" style="stroke:#000000; stroke-linecap:round; stroke-linejoin:round; stroke-width:4; stroke-opacity:1; fill:none" points="2011.51,1234.58 2011.51,1215.68 "/>
<path clip-path="url(#clip770)" d="M206.108 1277.85 L235.784 1277.85 L235.784 1281.78 L206.108 1281.78 L206.108 1277.85 Z" fill="#000000" fill-rule="nonzero" fill-opacity="1" /><path clip-path="url(#clip770)" d="M260.043 1276.04 Q263.399 1276.76 265.274 1279.03 Q267.172 1281.3 267.172 1284.63 Q267.172 1289.74 263.654 1292.55 Q260.135 1295.35 253.654 1295.35 Q251.478 1295.35 249.163 1294.91 Q246.872 1294.49 244.418 1293.63 L244.418 1289.12 Q246.362 1290.25 248.677 1290.83 Q250.992 1291.41 253.515 1291.41 Q257.913 1291.41 260.205 1289.67 Q262.52 1287.94 262.52 1284.63 Q262.52 1281.57 260.367 1279.86 Q258.237 1278.12 254.418 1278.12 L250.39 1278.12 L250.39 1274.28 L254.603 1274.28 Q258.052 1274.28 259.881 1272.92 Q261.709 1271.53 261.709 1268.93 Q261.709 1266.27 259.811 1264.86 Q257.936 1263.42 254.418 1263.42 Q252.496 1263.42 250.297 1263.84 Q248.098 1264.26 245.459 1265.14 L245.459 1260.97 Q248.122 1260.23 250.436 1259.86 Q252.774 1259.49 254.834 1259.49 Q260.158 1259.49 263.26 1261.92 Q266.362 1264.33 266.362 1268.45 Q266.362 1271.32 264.719 1273.31 Q263.075 1275.28 260.043 1276.04 Z" fill="#000000" fill-rule="nonzero" fill-opacity="1" /><path clip-path="url(#clip770)" d="M502.394 1277.85 L532.07 1277.85 L532.07 1281.78 L502.394 1281.78 L502.394 1277.85 Z" fill="#000000" fill-rule="nonzero" fill-opacity="1" /><path clip-path="url(#clip770)" d="M546.19 1290.74 L562.509 1290.74 L562.509 1294.67 L540.565 1294.67 L540.565 1290.74 Q543.227 1287.99 547.81 1283.36 Q552.417 1278.7 553.597 1277.36 Q555.843 1274.84 556.722 1273.1 Q557.625 1271.34 557.625 1269.65 Q557.625 1266.9 555.681 1265.16 Q553.759 1263.42 550.658 1263.42 Q548.459 1263.42 546.005 1264.19 Q543.574 1264.95 540.797 1266.5 L540.797 1261.78 Q543.621 1260.65 546.074 1260.07 Q548.528 1259.49 550.565 1259.49 Q555.935 1259.49 559.13 1262.17 Q562.324 1264.86 562.324 1269.35 Q562.324 1271.48 561.514 1273.4 Q560.727 1275.3 558.621 1277.89 Q558.042 1278.56 554.94 1281.78 Q551.838 1284.98 546.19 1290.74 Z" fill="#000000" fill-rule="nonzero" fill-opacity="1" /><path clip-path="url(#clip770)" d="M798.02 1277.85 L827.696 1277.85 L827.696 1281.78 L798.02 1281.78 L798.02 1277.85 Z" fill="#000000" fill-rule="nonzero" fill-opacity="1" /><path clip-path="url(#clip770)" d="M838.599 1290.74 L846.238 1290.74 L846.238 1264.37 L837.928 1266.04 L837.928 1261.78 L846.191 1260.11 L850.867 1260.11 L850.867 1290.74 L858.506 1290.74 L858.506 1294.67 L838.599 1294.67 L838.599 1290.74 Z" fill="#000000" fill-rule="nonzero" fill-opacity="1" /><path clip-path="url(#clip770)" d="M1124.07 1263.19 Q1120.46 1263.19 1118.64 1266.76 Q1116.83 1270.3 1116.83 1277.43 Q1116.83 1284.54 1118.64 1288.1 Q1120.46 1291.64 1124.07 1291.64 Q1127.71 1291.64 1129.51 1288.1 Q1131.34 1284.54 1131.34 1277.43 Q1131.34 1270.3 1129.51 1266.76 Q1127.71 1263.19 1124.07 1263.19 M1124.07 1259.49 Q1129.89 1259.49 1132.94 1264.1 Q1136.02 1268.68 1136.02 1277.43 Q1136.02 1286.16 1132.94 1290.76 Q1129.89 1295.35 1124.07 1295.35 Q1118.26 1295.35 1115.19 1290.76 Q1112.13 1286.16 1112.13 1277.43 Q1112.13 1268.68 1115.19 1264.1 Q1118.26 1259.49 1124.07 1259.49 Z" fill="#000000" fill-rule="nonzero" fill-opacity="1" /><path clip-path="url(#clip770)" d="M1410.27 1290.74 L1417.91 1290.74 L1417.91 1264.37 L1409.6 1266.04 L1409.6 1261.78 L1417.86 1260.11 L1422.54 1260.11 L1422.54 1290.74 L1430.18 1290.74 L1430.18 1294.67 L1410.27 1294.67 L1410.27 1290.74 Z" fill="#000000" fill-rule="nonzero" fill-opacity="1" /><path clip-path="url(#clip770)" d="M1710.35 1290.74 L1726.67 1290.74 L1726.67 1294.67 L1704.73 1294.67 L1704.73 1290.74 Q1707.39 1287.99 1711.97 1283.36 Q1716.58 1278.7 1717.76 1277.36 Q1720 1274.84 1720.88 1273.1 Q1721.79 1271.34 1721.79 1269.65 Q1721.79 1266.9 1719.84 1265.16 Q1717.92 1263.42 1714.82 1263.42 Q1712.62 1263.42 1710.17 1264.19 Q1707.74 1264.95 1704.96 1266.5 L1704.96 1261.78 Q1707.78 1260.65 1710.24 1260.07 Q1712.69 1259.49 1714.73 1259.49 Q1720.1 1259.49 1723.29 1262.17 Q1726.49 1264.86 1726.49 1269.35 Q1726.49 1271.48 1725.67 1273.4 Q1724.89 1275.3 1722.78 1277.89 Q1722.2 1278.56 1719.1 1281.78 Q1716 1284.98 1710.35 1290.74 Z" fill="#000000" fill-rule="nonzero" fill-opacity="1" /><path clip-path="url(#clip770)" d="M2015.76 1276.04 Q2019.11 1276.76 2020.99 1279.03 Q2022.89 1281.3 2022.89 1284.63 Q2022.89 1289.74 2019.37 1292.55 Q2015.85 1295.35 2009.37 1295.35 Q2007.19 1295.35 2004.88 1294.91 Q2002.59 1294.49 2000.13 1293.63 L2000.13 1289.12 Q2002.08 1290.25 2004.39 1290.83 Q2006.71 1291.41 2009.23 1291.41 Q2013.63 1291.41 2015.92 1289.67 Q2018.23 1287.94 2018.23 1284.63 Q2018.23 1281.57 2016.08 1279.86 Q2013.95 1278.12 2010.13 1278.12 L2006.1 1278.12 L2006.1 1274.28 L2010.32 1274.28 Q2013.77 1274.28 2015.6 1272.92 Q2017.42 1271.53 2017.42 1268.93 Q2017.42 1266.27 2015.53 1264.86 Q2013.65 1263.42 2010.13 1263.42 Q2008.21 1263.42 2006.01 1263.84 Q2003.81 1264.26 2001.17 1265.14 L2001.17 1260.97 Q2003.84 1260.23 2006.15 1259.86 Q2008.49 1259.49 2010.55 1259.49 Q2015.87 1259.49 2018.98 1261.92 Q2022.08 1264.33 2022.08 1268.45 Q2022.08 1271.32 2020.43 1273.31 Q2018.79 1275.28 2015.76 1276.04 Z" fill="#000000" fill-rule="nonzero" fill-opacity="1" /><polyline clip-path="url(#clip772)" style="stroke:#000000; stroke-linecap:round; stroke-linejoin:round; stroke-width:2; stroke-opacity:0.1; fill:none" points="183.394,1201.62 2064.76,1201.62 "/>
<polyline clip-path="url(#clip772)" style="stroke:#000000; stroke-linecap:round; stroke-linejoin:round; stroke-width:2; stroke-opacity:0.1; fill:none" points="183.394,921.291 2064.76,921.291 "/>
<polyline clip-path="url(#clip772)" style="stroke:#000000; stroke-linecap:round; stroke-linejoin:round; stroke-width:2; stroke-opacity:0.1; fill:none" points="183.394,640.96 2064.76,640.96 "/>
<polyline clip-path="url(#clip772)" style="stroke:#000000; stroke-linecap:round; stroke-linejoin:round; stroke-width:2; stroke-opacity:0.1; fill:none" points="183.394,360.628 2064.76,360.628 "/>
<polyline clip-path="url(#clip772)" style="stroke:#000000; stroke-linecap:round; stroke-linejoin:round; stroke-width:2; stroke-opacity:0.1; fill:none" points="183.394,80.2968 2064.76,80.2968 "/>
<polyline clip-path="url(#clip770)" style="stroke:#000000; stroke-linecap:round; stroke-linejoin:round; stroke-width:4; stroke-opacity:1; fill:none" points="183.394,1234.58 183.394,47.2441 "/>
<polyline clip-path="url(#clip770)" style="stroke:#000000; stroke-linecap:round; stroke-linejoin:round; stroke-width:4; stroke-opacity:1; fill:none" points="183.394,1201.62 202.292,1201.62 "/>
<polyline clip-path="url(#clip770)" style="stroke:#000000; stroke-linecap:round; stroke-linejoin:round; stroke-width:4; stroke-opacity:1; fill:none" points="183.394,921.291 202.292,921.291 "/>
<polyline clip-path="url(#clip770)" style="stroke:#000000; stroke-linecap:round; stroke-linejoin:round; stroke-width:4; stroke-opacity:1; fill:none" points="183.394,640.96 202.292,640.96 "/>
<polyline clip-path="url(#clip770)" style="stroke:#000000; stroke-linecap:round; stroke-linejoin:round; stroke-width:4; stroke-opacity:1; fill:none" points="183.394,360.628 202.292,360.628 "/>
<polyline clip-path="url(#clip770)" style="stroke:#000000; stroke-linecap:round; stroke-linejoin:round; stroke-width:4; stroke-opacity:1; fill:none" points="183.394,80.2968 202.292,80.2968 "/>
<path clip-path="url(#clip770)" d="M64.3765 1187.42 Q60.7654 1187.42 58.9367 1190.99 Q57.1312 1194.53 57.1312 1201.66 Q57.1312 1208.76 58.9367 1212.33 Q60.7654 1215.87 64.3765 1215.87 Q68.0107 1215.87 69.8163 1212.33 Q71.645 1208.76 71.645 1201.66 Q71.645 1194.53 69.8163 1190.99 Q68.0107 1187.42 64.3765 1187.42 M64.3765 1183.72 Q70.1867 1183.72 73.2422 1188.32 Q76.3209 1192.91 76.3209 1201.66 Q76.3209 1210.38 73.2422 1214.99 Q70.1867 1219.57 64.3765 1219.57 Q58.5664 1219.57 55.4877 1214.99 Q52.4321 1210.38 52.4321 1201.66 Q52.4321 1192.91 55.4877 1188.32 Q58.5664 1183.72 64.3765 1183.72 Z" fill="#000000" fill-rule="nonzero" fill-opacity="1" /><path clip-path="url(#clip770)" d="M84.5384 1213.02 L89.4227 1213.02 L89.4227 1218.9 L84.5384 1218.9 L84.5384 1213.02 Z" fill="#000000" fill-rule="nonzero" fill-opacity="1" /><path clip-path="url(#clip770)" d="M109.608 1187.42 Q105.997 1187.42 104.168 1190.99 Q102.362 1194.53 102.362 1201.66 Q102.362 1208.76 104.168 1212.33 Q105.997 1215.87 109.608 1215.87 Q113.242 1215.87 115.048 1212.33 Q116.876 1208.76 116.876 1201.66 Q116.876 1194.53 115.048 1190.99 Q113.242 1187.42 109.608 1187.42 M109.608 1183.72 Q115.418 1183.72 118.473 1188.32 Q121.552 1192.91 121.552 1201.66 Q121.552 1210.38 118.473 1214.99 Q115.418 1219.57 109.608 1219.57 Q103.798 1219.57 100.719 1214.99 Q97.6634 1210.38 97.6634 1201.66 Q97.6634 1192.91 100.719 1188.32 Q103.798 1183.72 109.608 1183.72 Z" fill="#000000" fill-rule="nonzero" fill-opacity="1" /><path clip-path="url(#clip770)" d="M139.77 1187.42 Q136.159 1187.42 134.33 1190.99 Q132.524 1194.53 132.524 1201.66 Q132.524 1208.76 134.33 1212.33 Q136.159 1215.87 139.77 1215.87 Q143.404 1215.87 145.209 1212.33 Q147.038 1208.76 147.038 1201.66 Q147.038 1194.53 145.209 1190.99 Q143.404 1187.42 139.77 1187.42 M139.77 1183.72 Q145.58 1183.72 148.635 1188.32 Q151.714 1192.91 151.714 1201.66 Q151.714 1210.38 148.635 1214.99 Q145.58 1219.57 139.77 1219.57 Q133.959 1219.57 130.881 1214.99 Q127.825 1210.38 127.825 1201.66 Q127.825 1192.91 130.881 1188.32 Q133.959 1183.72 139.77 1183.72 Z" fill="#000000" fill-rule="nonzero" fill-opacity="1" /><path clip-path="url(#clip770)" d="M65.3719 907.09 Q61.7608 907.09 59.9321 910.655 Q58.1265 914.196 58.1265 921.326 Q58.1265 928.432 59.9321 931.997 Q61.7608 935.539 65.3719 935.539 Q69.0061 935.539 70.8117 931.997 Q72.6404 928.432 72.6404 921.326 Q72.6404 914.196 70.8117 910.655 Q69.0061 907.09 65.3719 907.09 M65.3719 903.386 Q71.182 903.386 74.2376 907.993 Q77.3163 912.576 77.3163 921.326 Q77.3163 930.053 74.2376 934.659 Q71.182 939.243 65.3719 939.243 Q59.5617 939.243 56.483 934.659 Q53.4275 930.053 53.4275 921.326 Q53.4275 912.576 56.483 907.993 Q59.5617 903.386 65.3719 903.386 Z" fill="#000000" fill-rule="nonzero" fill-opacity="1" /><path clip-path="url(#clip770)" d="M85.5338 932.692 L90.418 932.692 L90.418 938.571 L85.5338 938.571 L85.5338 932.692 Z" fill="#000000" fill-rule="nonzero" fill-opacity="1" /><path clip-path="url(#clip770)" d="M104.631 934.636 L120.95 934.636 L120.95 938.571 L99.006 938.571 L99.006 934.636 Q101.668 931.882 106.251 927.252 Q110.858 922.599 112.038 921.257 Q114.284 918.733 115.163 916.997 Q116.066 915.238 116.066 913.548 Q116.066 910.794 114.122 909.058 Q112.2 907.321 109.098 907.321 Q106.899 907.321 104.446 908.085 Q102.015 908.849 99.2374 910.4 L99.2374 905.678 Q102.061 904.544 104.515 903.965 Q106.969 903.386 109.006 903.386 Q114.376 903.386 117.571 906.071 Q120.765 908.757 120.765 913.247 Q120.765 915.377 119.955 917.298 Q119.168 919.196 117.061 921.789 Q116.483 922.46 113.381 925.678 Q110.279 928.872 104.631 934.636 Z" fill="#000000" fill-rule="nonzero" fill-opacity="1" /><path clip-path="url(#clip770)" d="M130.811 904.011 L149.168 904.011 L149.168 907.946 L135.094 907.946 L135.094 916.419 Q136.112 916.071 137.131 915.909 Q138.149 915.724 139.168 915.724 Q144.955 915.724 148.334 918.896 Q151.714 922.067 151.714 927.483 Q151.714 933.062 148.242 936.164 Q144.77 939.243 138.45 939.243 Q136.274 939.243 134.006 938.872 Q131.76 938.502 129.353 937.761 L129.353 933.062 Q131.436 934.196 133.659 934.752 Q135.881 935.307 138.358 935.307 Q142.362 935.307 144.7 933.201 Q147.038 931.095 147.038 927.483 Q147.038 923.872 144.7 921.766 Q142.362 919.659 138.358 919.659 Q136.483 919.659 134.608 920.076 Q132.756 920.493 130.811 921.372 L130.811 904.011 Z" fill="#000000" fill-rule="nonzero" fill-opacity="1" /><path clip-path="url(#clip770)" d="M64.3765 626.759 Q60.7654 626.759 58.9367 630.323 Q57.1312 633.865 57.1312 640.995 Q57.1312 648.101 58.9367 651.666 Q60.7654 655.207 64.3765 655.207 Q68.0107 655.207 69.8163 651.666 Q71.645 648.101 71.645 640.995 Q71.645 633.865 69.8163 630.323 Q68.0107 626.759 64.3765 626.759 M64.3765 623.055 Q70.1867 623.055 73.2422 627.661 Q76.3209 632.245 76.3209 640.995 Q76.3209 649.721 73.2422 654.328 Q70.1867 658.911 64.3765 658.911 Q58.5664 658.911 55.4877 654.328 Q52.4321 649.721 52.4321 640.995 Q52.4321 632.245 55.4877 627.661 Q58.5664 623.055 64.3765 623.055 Z" fill="#000000" fill-rule="nonzero" fill-opacity="1" /><path clip-path="url(#clip770)" d="M84.5384 652.36 L89.4227 652.36 L89.4227 658.24 L84.5384 658.24 L84.5384 652.36 Z" fill="#000000" fill-rule="nonzero" fill-opacity="1" /><path clip-path="url(#clip770)" d="M99.6541 623.68 L118.01 623.68 L118.01 627.615 L103.936 627.615 L103.936 636.087 Q104.955 635.74 105.974 635.578 Q106.992 635.393 108.011 635.393 Q113.798 635.393 117.177 638.564 Q120.557 641.735 120.557 647.152 Q120.557 652.731 117.085 655.832 Q113.612 658.911 107.293 658.911 Q105.117 658.911 102.849 658.541 Q100.603 658.17 98.1958 657.43 L98.1958 652.731 Q100.279 653.865 102.501 654.42 Q104.724 654.976 107.2 654.976 Q111.205 654.976 113.543 652.869 Q115.881 650.763 115.881 647.152 Q115.881 643.541 113.543 641.434 Q111.205 639.328 107.2 639.328 Q105.325 639.328 103.45 639.745 Q101.599 640.161 99.6541 641.041 L99.6541 623.68 Z" fill="#000000" fill-rule="nonzero" fill-opacity="1" /><path clip-path="url(#clip770)" d="M139.77 626.759 Q136.159 626.759 134.33 630.323 Q132.524 633.865 132.524 640.995 Q132.524 648.101 134.33 651.666 Q136.159 655.207 139.77 655.207 Q143.404 655.207 145.209 651.666 Q147.038 648.101 147.038 640.995 Q147.038 633.865 145.209 630.323 Q143.404 626.759 139.77 626.759 M139.77 623.055 Q145.58 623.055 148.635 627.661 Q151.714 632.245 151.714 640.995 Q151.714 649.721 148.635 654.328 Q145.58 658.911 139.77 658.911 Q133.959 658.911 130.881 654.328 Q127.825 649.721 127.825 640.995 Q127.825 632.245 130.881 627.661 Q133.959 623.055 139.77 623.055 Z" fill="#000000" fill-rule="nonzero" fill-opacity="1" /><path clip-path="url(#clip770)" d="M65.3719 346.427 Q61.7608 346.427 59.9321 349.992 Q58.1265 353.533 58.1265 360.663 Q58.1265 367.769 59.9321 371.334 Q61.7608 374.876 65.3719 374.876 Q69.0061 374.876 70.8117 371.334 Q72.6404 367.769 72.6404 360.663 Q72.6404 353.533 70.8117 349.992 Q69.0061 346.427 65.3719 346.427 M65.3719 342.723 Q71.182 342.723 74.2376 347.33 Q77.3163 351.913 77.3163 360.663 Q77.3163 369.39 74.2376 373.996 Q71.182 378.58 65.3719 378.58 Q59.5617 378.58 56.483 373.996 Q53.4275 369.39 53.4275 360.663 Q53.4275 351.913 56.483 347.33 Q59.5617 342.723 65.3719 342.723 Z" fill="#000000" fill-rule="nonzero" fill-opacity="1" /><path clip-path="url(#clip770)" d="M85.5338 372.029 L90.418 372.029 L90.418 377.908 L85.5338 377.908 L85.5338 372.029 Z" fill="#000000" fill-rule="nonzero" fill-opacity="1" /><path clip-path="url(#clip770)" d="M99.4226 343.348 L121.645 343.348 L121.645 345.339 L109.098 377.908 L104.214 377.908 L116.02 347.283 L99.4226 347.283 L99.4226 343.348 Z" fill="#000000" fill-rule="nonzero" fill-opacity="1" /><path clip-path="url(#clip770)" d="M130.811 343.348 L149.168 343.348 L149.168 347.283 L135.094 347.283 L135.094 355.756 Q136.112 355.408 137.131 355.246 Q138.149 355.061 139.168 355.061 Q144.955 355.061 148.334 358.232 Q151.714 361.404 151.714 366.82 Q151.714 372.399 148.242 375.501 Q144.77 378.58 138.45 378.58 Q136.274 378.58 134.006 378.209 Q131.76 377.839 129.353 377.098 L129.353 372.399 Q131.436 373.533 133.659 374.089 Q135.881 374.644 138.358 374.644 Q142.362 374.644 144.7 372.538 Q147.038 370.431 147.038 366.82 Q147.038 363.209 144.7 361.103 Q142.362 358.996 138.358 358.996 Q136.483 358.996 134.608 359.413 Q132.756 359.83 130.811 360.709 L130.811 343.348 Z" fill="#000000" fill-rule="nonzero" fill-opacity="1" /><path clip-path="url(#clip770)" d="M55.1867 93.6416 L62.8256 93.6416 L62.8256 67.276 L54.5154 68.9427 L54.5154 64.6835 L62.7793 63.0168 L67.4552 63.0168 L67.4552 93.6416 L75.094 93.6416 L75.094 97.5768 L55.1867 97.5768 L55.1867 93.6416 Z" fill="#000000" fill-rule="nonzero" fill-opacity="1" /><path clip-path="url(#clip770)" d="M84.5384 91.6972 L89.4227 91.6972 L89.4227 97.5768 L84.5384 97.5768 L84.5384 91.6972 Z" fill="#000000" fill-rule="nonzero" fill-opacity="1" /><path clip-path="url(#clip770)" d="M109.608 66.0955 Q105.997 66.0955 104.168 69.6603 Q102.362 73.2019 102.362 80.3315 Q102.362 87.438 104.168 91.0028 Q105.997 94.5444 109.608 94.5444 Q113.242 94.5444 115.048 91.0028 Q116.876 87.438 116.876 80.3315 Q116.876 73.2019 115.048 69.6603 Q113.242 66.0955 109.608 66.0955 M109.608 62.3918 Q115.418 62.3918 118.473 66.9983 Q121.552 71.5816 121.552 80.3315 Q121.552 89.0583 118.473 93.6648 Q115.418 98.2481 109.608 98.2481 Q103.798 98.2481 100.719 93.6648 Q97.6634 89.0583 97.6634 80.3315 Q97.6634 71.5816 100.719 66.9983 Q103.798 62.3918 109.608 62.3918 Z" fill="#000000" fill-rule="nonzero" fill-opacity="1" /><path clip-path="url(#clip770)" d="M139.77 66.0955 Q136.159 66.0955 134.33 69.6603 Q132.524 73.2019 132.524 80.3315 Q132.524 87.438 134.33 91.0028 Q136.159 94.5444 139.77 94.5444 Q143.404 94.5444 145.209 91.0028 Q147.038 87.438 147.038 80.3315 Q147.038 73.2019 145.209 69.6603 Q143.404 66.0955 139.77 66.0955 M139.77 62.3918 Q145.58 62.3918 148.635 66.9983 Q151.714 71.5816 151.714 80.3315 Q151.714 89.0583 148.635 93.6648 Q145.58 98.2481 139.77 98.2481 Q133.959 98.2481 130.881 93.6648 Q127.825 89.0583 127.825 80.3315 Q127.825 71.5816 130.881 66.9983 Q133.959 62.3918 139.77 62.3918 Z" fill="#000000" fill-rule="nonzero" fill-opacity="1" /><polyline clip-path="url(#clip772)" style="stroke:#009af9; stroke-linecap:round; stroke-linejoin:round; stroke-width:4; stroke-opacity:1; fill:none" points="236.64,1197.36 239.598,958.188 242.556,678.976 245.514,845.793 248.473,1157.82 251.431,1153.76 254.389,141.006 257.347,335.678 260.305,280.198 263.263,662.201 266.221,267.606 269.179,309.832 272.137,855.767 275.096,146.153 278.054,141.271 281.012,947.999 283.97,995.837 286.928,1082.85 289.886,606.392 292.844,915.439 295.802,351.929 298.761,243.892 301.719,1084.3 304.677,1000.39 307.635,473.219 310.593,367.689 313.551,184.556 316.509,502.433 319.467,975.846 322.425,750.035 325.384,711.22 328.342,1040.23 331.3,817.214 334.258,386.406 337.216,231.481 340.174,665.392 343.132,214.224 346.09,245.683 349.049,803.272 352.007,522.462 354.965,368.507 357.923,1194.61 360.881,138.982 363.839,1075.8 366.797,102.86 369.755,94.6566 372.713,797.68 375.672,935.443 378.63,247.89 381.588,614.656 384.546,834.605 387.504,620.604 390.462,787.901 393.42,717.803 396.378,371.062 399.336,631.78 402.295,836.465 405.253,589.309 408.211,1168.07 411.169,791.33 414.127,370.513 417.085,443.852 420.043,1067.42 423.001,121.629 425.96,200.652 428.918,896.412 431.876,120.884 434.834,394.715 437.792,836.31 440.75,174.55 443.708,986.476 446.666,1161.88 449.624,904.178 452.583,365.183 455.541,599.962 458.499,134.078 461.457,928.913 464.415,1029.75 467.373,366.782 470.331,444.637 473.289,1029.84 476.248,417.819 479.206,488.956 482.164,574.05 485.122,1123.68 488.08,385.074 491.038,1199.8 493.996,764.389 496.954,432.605 499.912,789.816 502.871,976.8 505.829,521.677 508.787,87.2173 511.745,1123.46 514.703,550.099 517.661,707.526 520.619,330.958 523.577,1080.28 526.535,216.581 529.494,432.213 532.452,189.839 535.41,542.908 538.368,539.472 541.326,862.769 544.284,715.429 547.242,1148.45 550.2,750.416 553.159,158.069 556.117,1199.98 559.075,393.776 562.033,789.809 564.991,902.668 567.949,426.13 570.907,279.954 573.865,867.288 576.823,852.421 579.782,761.073 582.74,286.43 585.698,1090.43 588.656,1097.04 591.614,1072.76 594.572,1025.46 597.53,1086.22 600.488,371.282 603.447,1081.04 606.405,911.372 609.363,386.427 612.321,539.001 615.279,1041.6 618.237,994.309 621.195,233.614 624.153,367.995 627.111,412.717 630.07,948.434 633.028,1031.08 635.986,783.914 638.944,714.046 641.902,242.108 644.86,154.023 647.818,888.744 650.776,334.614 653.734,925.426 656.693,284.734 659.651,938.326 662.609,727.1 665.567,826.745 668.525,802.253 671.483,1011.02 674.441,848.591 677.399,942.014 680.358,428.823 683.316,1060.22 686.274,458.551 689.232,525.311 692.19,295.049 695.148,365.159 698.106,313.53 701.064,429.247 704.022,170.959 706.981,658.079 709.939,1026.52 712.897,779.905 715.855,675.631 718.813,847.667 721.771,1105.15 724.729,239.52 727.687,229.074 730.645,1091.19 733.604,793.895 736.562,199.374 739.52,1185.21 742.478,566.779 745.436,893.939 748.394,764.197 751.352,515.101 754.31,407.236 757.269,113.663 760.227,1139 763.185,686.576 766.143,551.61 769.101,666.126 772.059,1198.09 775.017,891.832 777.975,368.981 780.933,591.28 783.892,718.606 786.85,563.071 789.808,835.248 792.766,275.754 795.724,579.065 798.682,761.23 801.64,559.642 804.598,1046.33 807.557,923.907 810.515,576.343 813.473,521.066 816.431,515.555 819.389,702.022 822.347,1095.34 825.305,447.855 828.263,572.226 831.221,848.78 834.18,1061.65 837.138,864.595 840.096,819.473 843.054,285.631 846.012,916.275 848.97,559.933 851.928,135.47 854.886,403.572 857.844,665.652 860.803,802.825 863.761,1061.07 866.719,333.842 869.677,595.21 872.635,410.721 875.593,701.063 878.551,1175.9 881.509,855.327 884.468,1100.49 887.426,234.445 890.384,781.867 893.342,1133.46 896.3,1121.96 899.258,194.787 902.216,758.981 905.174,1086.75 908.132,172.729 911.091,204.266 914.049,536.723 917.007,491.345 919.965,184.517 922.923,348.55 925.881,1049.3 928.839,663.799 931.797,616.475 934.756,220.765 937.714,307.393 940.672,870.718 943.63,1177.76 946.588,977.846 949.546,669.055 952.504,391.066 955.462,749.044 958.42,826.518 961.379,152.884 964.337,95.428 967.295,784.699 970.253,213.52 973.211,416.145 976.169,1003.12 979.127,1003.54 982.085,450.466 985.043,1008.7 988.002,798.44 990.96,603.619 993.918,416.939 996.876,1076.27 999.834,328.842 1002.79,1007.85 1005.75,622.455 1008.71,560.991 1011.67,807.9 1014.62,720.793 1017.58,362.156 1020.54,1025.8 1023.5,826.361 1026.46,918.221 1029.42,1038.92 1032.37,1192.45 1035.33,755.173 1038.29,373.082 1041.25,1068.86 1044.21,908.488 1047.16,246.152 1050.12,216.911 1053.08,635.283 1056.04,1024.48 1059,500.477 1061.95,574.148 1064.91,927.661 1067.87,1018.59 1070.83,140.83 1073.79,501.923 1076.75,356.776 1079.7,392.275 1082.66,732.005 1085.62,990.388 1088.58,930.729 1091.54,264.728 1094.49,534.888 1097.45,324.949 1100.41,255.513 1103.37,628.641 1106.33,1004.78 1109.28,729.623 1112.24,1114.14 1115.2,1093.26 1118.16,557.175 1121.12,169.743 1124.07,385.559 1127.03,1081.47 1129.99,487.399 1132.95,1135.87 1135.91,858.34 1138.87,692.895 1141.82,1140.51 1144.78,377.766 1147.74,95.358 1150.7,994.868 1153.66,490.546 1156.61,279.172 1159.57,434.064 1162.53,286.945 1165.49,770.821 1168.45,889.422 1171.4,882.163 1174.36,403.599 1177.32,94.0486 1180.28,1044.38 1183.24,584.124 1186.2,535.114 1189.15,580.242 1192.11,1091.87 1195.07,228.115 1198.03,761.691 1200.99,926.98 1203.94,535.151 1206.9,740.012 1209.86,938.554 1212.82,885.373 1215.78,745.492 1218.73,1162.29 1221.69,464.814 1224.65,771.325 1227.61,434.244 1230.57,412.031 1233.53,942.864 1236.48,883.507 1239.44,669.975 1242.4,790.767 1245.36,619.066 1248.32,1091.17 1251.27,171.767 1254.23,932.111 1257.19,673.878 1260.15,504.166 1263.11,409.121 1266.06,639.328 1269.02,1030.86 1271.98,353.936 1274.94,622.143 1277.9,435.054 1280.86,775.142 1283.81,1054.81 1286.77,593.74 1289.73,589.059 1292.69,740.397 1295.65,1035.79 1298.6,801.924 1301.56,340.917 1304.52,1127.89 1307.48,731.404 1310.44,806.953 1313.39,1036.82 1316.35,234.556 1319.31,183.812 1322.27,108.635 1325.23,1133.5 1328.18,948.22 1331.14,1027.76 1334.1,239.988 1337.06,1090.29 1340.02,302.76 1342.98,944.168 1345.93,817.14 1348.89,399.085 1351.85,289.469 1354.81,481.456 1357.77,836.896 1360.72,868.245 1363.68,1111.96 1366.64,1153.05 1369.6,674.408 1372.56,517.752 1375.51,628.91 1378.47,89.3351 1381.43,604.108 1384.39,1026.05 1387.35,741.139 1390.31,537.866 1393.26,1166.2 1396.22,1046.26 1399.18,842.524 1402.14,655.236 1405.1,932.564 1408.05,722.033 1411.01,717.866 1413.97,645.793 1416.93,108.834 1419.89,542.229 1422.84,397.65 1425.8,703.467 1428.76,358.57 1431.72,804.866 1434.68,340.43 1437.64,231.596 1440.59,586.696 1443.55,207.392 1446.51,522.83 1449.47,1116.43 1452.43,239.34 1455.38,1099.43 1458.34,177.927 1461.3,393.438 1464.26,623.29 1467.22,277.667 1470.17,1091.53 1473.13,851.34 1476.09,666.829 1479.05,1092.36 1482.01,867.771 1484.97,908.307 1487.92,97.0165 1490.88,1200.97 1493.84,789.429 1496.8,1006.23 1499.76,1081.98 1502.71,1150.88 1505.67,1055.75 1508.63,80.8479 1511.59,1076.92 1514.55,894.31 1517.5,743.173 1520.46,419.262 1523.42,1196.08 1526.38,1147.25 1529.34,1170.75 1532.29,977.39 1535.25,557.982 1538.21,424.97 1541.17,593.767 1544.13,162.539 1547.09,493.471 1550.04,521.802 1553,85.828 1555.96,734.167 1558.92,752.871 1561.88,852.022 1564.83,1157.6 1567.79,1129.55 1570.75,718.874 1573.71,85.7769 1576.67,1006.67 1579.62,1085.6 1582.58,936.104 1585.54,1019.37 1588.5,368.868 1591.46,882.163 1594.42,767.399 1597.37,673.419 1600.33,824.486 1603.29,526.401 1606.25,229.614 1609.21,132.829 1612.16,729.022 1615.12,938.801 1618.08,587.645 1621.04,1185.16 1624,711.086 1626.95,613.234 1629.91,559.618 1632.87,238.951 1635.83,549.507 1638.79,758.677 1641.75,615.217 1644.7,156.837 1647.66,502.057 1650.62,1099.48 1653.58,395.386 1656.54,137.742 1659.49,236.03 1662.45,513.526 1665.41,799.352 1668.37,952.17 1671.33,456.385 1674.28,219.476 1677.24,1115.54 1680.2,924.321 1683.16,1046.35 1686.12,975.919 1689.08,526.096 1692.03,192.386 1694.99,152.701 1697.95,1124.4 1700.91,1124.26 1703.87,1022.44 1706.82,249.958 1709.78,1066.25 1712.74,930.512 1715.7,913.165 1718.66,1157.02 1721.61,1023.61 1724.57,508.566 1727.53,1002.66 1730.49,1109.59 1733.45,386.431 1736.41,298.813 1739.36,859.779 1742.32,696.238 1745.28,243.974 1748.24,84.3673 1751.2,254.002 1754.15,932.072 1757.11,844.109 1760.07,375.697 1763.03,856.365 1765.99,687.283 1768.94,482.095 1771.9,718.008 1774.86,823.49 1777.82,135.407 1780.78,645.336 1783.73,125.47 1786.69,281.488 1789.65,516.255 1792.61,716.401 1795.57,587.611 1798.53,137.979 1801.48,272.132 1804.44,965.798 1807.4,1030.18 1810.36,1051.72 1813.32,1006 1816.27,483.385 1819.23,858.601 1822.19,105.148 1825.15,1057.06 1828.11,440.728 1831.06,445.436 1834.02,1062.73 1836.98,327.898 1839.94,208.869 1842.9,878.034 1845.86,518.657 1848.81,95.7062 1851.77,306.022 1854.73,611.916 1857.69,203.433 1860.65,1114.05 1863.6,1153.09 1866.56,1156.91 1869.52,1173.75 1872.48,298.579 1875.44,798.072 1878.39,843.778 1881.35,1026.93 1884.31,1146.03 1887.27,298.621 1890.23,1147.45 1893.19,159.061 1896.14,498.357 1899.1,505.635 1902.06,203.595 1905.02,567.913 1907.98,1068.5 1910.93,1084.8 1913.89,497.876 1916.85,280.181 1919.81,568.557 1922.77,475.029 1925.72,1143.88 1928.68,367.674 1931.64,404.259 1934.6,373.595 1937.56,522.349 1940.52,401.893 1943.47,524.309 1946.43,499.561 1949.39,987.243 1952.35,1158.95 1955.31,477.562 1958.26,887.001 1961.22,595.406 1964.18,264.798 1967.14,211.301 1970.1,577.868 1973.05,168.253 1976.01,352.407 1978.97,136.394 1981.93,998.639 1984.89,896.572 1987.84,650.54 1990.8,961.278 1993.76,506.728 1996.72,445.939 1999.68,1010.05 2002.64,669.807 2005.59,1028.87 2008.55,347.905 2011.51,144.523 "/>
<path clip-path="url(#clip770)" d="M1761.48 190.502 L2002.04 190.502 L2002.04 86.8219 L1761.48 86.8219  Z" fill="#ffffff" fill-rule="evenodd" fill-opacity="1"/>
<polyline clip-path="url(#clip770)" style="stroke:#000000; stroke-linecap:round; stroke-linejoin:round; stroke-width:4; stroke-opacity:1; fill:none" points="1761.48,190.502 2002.04,190.502 2002.04,86.8219 1761.48,86.8219 1761.48,190.502 "/>
<polyline clip-path="url(#clip770)" style="stroke:#009af9; stroke-linecap:round; stroke-linejoin:round; stroke-width:4; stroke-opacity:1; fill:none" points="1782.38,138.662 1907.81,138.662 "/>
<path clip-path="url(#clip770)" d="M1942.55 158.349 Q1940.75 162.979 1939.03 164.391 Q1937.32 165.803 1934.45 165.803 L1931.05 165.803 L1931.05 162.238 L1933.55 162.238 Q1935.31 162.238 1936.28 161.405 Q1937.25 160.572 1938.43 157.47 L1939.2 155.525 L1928.71 130.016 L1933.22 130.016 L1941.33 150.294 L1949.43 130.016 L1953.94 130.016 L1942.55 158.349 Z" fill="#000000" fill-rule="nonzero" fill-opacity="1" /><path clip-path="url(#clip770)" d="M1961.23 152.007 L1968.87 152.007 L1968.87 125.641 L1960.56 127.308 L1960.56 123.049 L1968.83 121.382 L1973.5 121.382 L1973.5 152.007 L1981.14 152.007 L1981.14 155.942 L1961.23 155.942 L1961.23 152.007 Z" fill="#000000" fill-rule="nonzero" fill-opacity="1" /></svg>
