<?xml version="1.0" encoding="utf-8"?>
<svg xmlns="http://www.w3.org/2000/svg" xmlns:xlink="http://www.w3.org/1999/xlink" width="528" height="336" viewBox="0 0 2112 1344">
<defs>
  <clipPath id="clip080">
    <rect x="0" y="0" width="2112" height="1344"/>
  </clipPath>
</defs>
<path clip-path="url(#clip080)" d="M0 1344 L2112 1344 L2112 0 L0 0  Z" fill="#ffffff" fill-rule="evenodd" fill-opacity="1"/>
<defs>
  <clipPath id="clip081">
    <rect x="422" y="0" width="1479" height="1344"/>
  </clipPath>
</defs>
<path clip-path="url(#clip080)" d="M183.394 1234.58 L2064.76 1234.58 L2064.76 47.2441 L183.394 47.2441  Z" fill="#ffffff" fill-rule="evenodd" fill-opacity="1"/>
<defs>
  <clipPath id="clip082">
    <rect x="183" y="47" width="1882" height="1188"/>
  </clipPath>
</defs>
<polyline clip-path="url(#clip082)" style="stroke:#000000; stroke-linecap:round; stroke-linejoin:round; stroke-width:2; stroke-opacity:0.1; fill:none" points="236.64,1234.58 236.64,47.2441 "/>
<polyline clip-path="url(#clip082)" style="stroke:#000000; stroke-linecap:round; stroke-linejoin:round; stroke-width:2; stroke-opacity:0.1; fill:none" points="532.452,1234.58 532.452,47.2441 "/>
<polyline clip-path="url(#clip082)" style="stroke:#000000; stroke-linecap:round; stroke-linejoin:round; stroke-width:2; stroke-opacity:0.1; fill:none" points="828.263,1234.58 828.263,47.2441 "/>
<polyline clip-path="url(#clip082)" style="stroke:#000000; stroke-linecap:round; stroke-linejoin:round; stroke-width:2; stroke-opacity:0.1; fill:none" points="1124.07,1234.58 1124.07,47.2441 "/>
<polyline clip-path="url(#clip082)" style="stroke:#000000; stroke-linecap:round; stroke-linejoin:round; stroke-width:2; stroke-opacity:0.1; fill:none" points="1419.89,1234.58 1419.89,47.2441 "/>
<polyline clip-path="url(#clip082)" style="stroke:#000000; stroke-linecap:round; stroke-linejoin:round; stroke-width:2; stroke-opacity:0.1; fill:none" points="1715.7,1234.58 1715.7,47.2441 "/>
<polyline clip-path="url(#clip082)" style="stroke:#000000; stroke-linecap:round; stroke-linejoin:round; stroke-width:2; stroke-opacity:0.1; fill:none" points="2011.51,1234.58 2011.51,47.2441 "/>
<polyline clip-path="url(#clip080)" style="stroke:#000000; stroke-linecap:round; stroke-linejoin:round; stroke-width:4; stroke-opacity:1; fill:none" points="183.394,1234.58 2064.76,1234.58 "/>
<polyline clip-path="url(#clip080)" style="stroke:#000000; stroke-linecap:round; stroke-linejoin:round; stroke-width:4; stroke-opacity:1; fill:none" points="236.64,1234.58 236.64,1215.68 "/>
<polyline clip-path="url(#clip080)" style="stroke:#000000; stroke-linecap:round; stroke-linejoin:round; stroke-width:4; stroke-opacity:1; fill:none" points="532.452,1234.58 532.452,1215.68 "/>
<polyline clip-path="url(#clip080)" style="stroke:#000000; stroke-linecap:round; stroke-linejoin:round; stroke-width:4; stroke-opacity:1; fill:none" points="828.263,1234.58 828.263,1215.68 "/>
<polyline clip-path="url(#clip080)" style="stroke:#000000; stroke-linecap:round; stroke-linejoin:round; stroke-width:4; stroke-opacity:1; fill:none" points="1124.07,1234.58 1124.07,1215.68 "/>
<polyline clip-path="url(#clip080)" style="stroke:#000000; stroke-linecap:round; stroke-linejoin:round; stroke-width:4; stroke-opacity:1; fill:none" points="1419.89,1234.58 1419.89,1215.68 "/>
<polyline clip-path="url(#clip080)" style="stroke:#000000; stroke-linecap:round; stroke-linejoin:round; stroke-width:4; stroke-opacity:1; fill:none" points="1715.7,1234.58 1715.7,1215.68 "/>
<polyline clip-path="url(#clip080)" style="stroke:#000000; stroke-linecap:round; stroke-linejoin:round; stroke-width:4; stroke-opacity:1; fill:none" points="2011.51,1234.58 2011.51,1215.68 "/>
<path clip-path="url(#clip080)" d="M206.108 1277.85 L235.784 1277.85 L235.784 1281.78 L206.108 1281.78 L206.108 1277.85 Z" fill="#000000" fill-rule="nonzero" fill-opacity="1" /><path clip-path="url(#clip080)" d="M260.043 1276.04 Q263.399 1276.76 265.274 1279.03 Q267.172 1281.3 267.172 1284.63 Q267.172 1289.74 263.654 1292.55 Q260.135 1295.35 253.654 1295.35 Q251.478 1295.35 249.163 1294.91 Q246.872 1294.49 244.418 1293.63 L244.418 1289.12 Q246.362 1290.25 248.677 1290.83 Q250.992 1291.41 253.515 1291.41 Q257.913 1291.41 260.205 1289.67 Q262.52 1287.94 262.52 1284.63 Q262.52 1281.57 260.367 1279.86 Q258.237 1278.12 254.418 1278.12 L250.39 1278.12 L250.39 1274.28 L254.603 1274.28 Q258.052 1274.28 259.881 1272.92 Q261.709 1271.53 261.709 1268.93 Q261.709 1266.27 259.811 1264.86 Q257.936 1263.42 254.418 1263.42 Q252.496 1263.42 250.297 1263.84 Q248.098 1264.26 245.459 1265.14 L245.459 1260.97 Q248.122 1260.23 250.436 1259.86 Q252.774 1259.49 254.834 1259.49 Q260.158 1259.49 263.26 1261.92 Q266.362 1264.33 266.362 1268.45 Q266.362 1271.32 264.719 1273.31 Q263.075 1275.28 260.043 1276.04 Z" fill="#000000" fill-rule="nonzero" fill-opacity="1" /><path clip-path="url(#clip080)" d="M502.394 1277.85 L532.07 1277.85 L532.07 1281.78 L502.394 1281.78 L502.394 1277.85 Z" fill="#000000" fill-rule="nonzero" fill-opacity="1" /><path clip-path="url(#clip080)" d="M546.19 1290.74 L562.509 1290.74 L562.509 1294.67 L540.565 1294.67 L540.565 1290.74 Q543.227 1287.99 547.81 1283.36 Q552.417 1278.7 553.597 1277.36 Q555.843 1274.84 556.722 1273.1 Q557.625 1271.34 557.625 1269.65 Q557.625 1266.9 555.681 1265.16 Q553.759 1263.42 550.658 1263.42 Q548.459 1263.42 546.005 1264.19 Q543.574 1264.95 540.797 1266.5 L540.797 1261.78 Q543.621 1260.65 546.074 1260.07 Q548.528 1259.49 550.565 1259.49 Q555.935 1259.49 559.13 1262.17 Q562.324 1264.86 562.324 1269.35 Q562.324 1271.48 561.514 1273.4 Q560.727 1275.3 558.621 1277.89 Q558.042 1278.56 554.94 1281.78 Q551.838 1284.98 546.19 1290.74 Z" fill="#000000" fill-rule="nonzero" fill-opacity="1" /><path clip-path="url(#clip080)" d="M798.02 1277.85 L827.696 1277.85 L827.696 1281.78 L798.02 1281.78 L798.02 1277.85 Z" fill="#000000" fill-rule="nonzero" fill-opacity="1" /><path clip-path="url(#clip080)" d="M838.599 1290.74 L846.238 1290.74 L846.238 1264.37 L837.928 1266.04 L837.928 1261.78 L846.191 1260.11 L850.867 1260.11 L850.867 1290.74 L858.506 1290.74 L858.506 1294.67 L838.599 1294.67 L838.599 1290.74 Z" fill="#000000" fill-rule="nonzero" fill-opacity="1" /><path clip-path="url(#clip080)" d="M1124.07 1263.19 Q1120.46 1263.19 1118.64 1266.76 Q1116.83 1270.3 1116.83 1277.43 Q1116.83 1284.54 1118.64 1288.1 Q1120.46 1291.64 1124.07 1291.64 Q1127.71 1291.64 1129.51 1288.1 Q1131.34 1284.54 1131.34 1277.43 Q1131.34 1270.3 1129.51 1266.76 Q1127.71 1263.19 1124.07 1263.19 M1124.07 1259.49 Q1129.89 1259.49 1132.94 1264.1 Q1136.02 1268.68 1136.02 1277.43 Q1136.02 1286.16 1132.94 1290.76 Q1129.89 1295.35 1124.07 1295.35 Q1118.26 1295.35 1115.19 1290.76 Q1112.13 1286.16 1112.13 1277.43 Q1112.13 1268.68 1115.19 1264.1 Q1118.26 1259.49 1124.07 1259.49 Z" fill="#000000" fill-rule="nonzero" fill-opacity="1" /><path clip-path="url(#clip080)" d="M1410.27 1290.74 L1417.91 1290.74 L1417.91 1264.37 L1409.6 1266.04 L1409.6 1261.78 L1417.86 1260.11 L1422.54 1260.11 L1422.54 1290.74 L1430.18 1290.74 L1430.18 1294.67 L1410.27 1294.67 L1410.27 1290.74 Z" fill="#000000" fill-rule="nonzero" fill-opacity="1" /><path clip-path="url(#clip080)" d="M1710.35 1290.74 L1726.67 1290.74 L1726.67 1294.67 L1704.73 1294.67 L1704.73 1290.74 Q1707.39 1287.99 1711.97 1283.36 Q1716.58 1278.7 1717.76 1277.36 Q1720 1274.84 1720.88 1273.1 Q1721.79 1271.34 1721.79 1269.65 Q1721.79 1266.9 1719.84 1265.16 Q1717.92 1263.42 1714.82 1263.42 Q1712.62 1263.42 1710.17 1264.19 Q1707.74 1264.95 1704.96 1266.5 L1704.96 1261.78 Q1707.78 1260.65 1710.24 1260.07 Q1712.69 1259.49 1714.73 1259.49 Q1720.1 1259.49 1723.29 1262.17 Q1726.49 1264.86 1726.49 1269.35 Q1726.49 1271.48 1725.67 1273.4 Q1724.89 1275.3 1722.78 1277.89 Q1722.2 1278.56 1719.1 1281.78 Q1716 1284.98 1710.35 1290.74 Z" fill="#000000" fill-rule="nonzero" fill-opacity="1" /><path clip-path="url(#clip080)" d="M2015.76 1276.04 Q2019.11 1276.76 2020.99 1279.03 Q2022.89 1281.3 2022.89 1284.63 Q2022.89 1289.74 2019.37 1292.55 Q2015.85 1295.35 2009.37 1295.35 Q2007.19 1295.35 2004.88 1294.91 Q2002.59 1294.49 2000.13 1293.63 L2000.13 1289.12 Q2002.08 1290.25 2004.39 1290.83 Q2006.71 1291.41 2009.23 1291.41 Q2013.63 1291.41 2015.92 1289.67 Q2018.23 1287.94 2018.23 1284.63 Q2018.23 1281.57 2016.08 1279.86 Q2013.95 1278.12 2010.13 1278.12 L2006.1 1278.12 L2006.1 1274.28 L2010.32 1274.28 Q2013.77 1274.28 2015.6 1272.92 Q2017.42 1271.53 2017.42 1268.93 Q2017.42 1266.27 2015.53 1264.86 Q2013.65 1263.42 2010.13 1263.42 Q2008.21 1263.42 2006.01 1263.84 Q2003.81 1264.26 2001.17 1265.14 L2001.17 1260.97 Q2003.84 1260.23 2006.15 1259.86 Q2008.49 1259.49 2010.55 1259.49 Q2015.87 1259.49 2018.98 1261.92 Q2022.08 1264.33 2022.08 1268.45 Q2022.08 1271.32 2020.43 1273.31 Q2018.79 1275.28 2015.76 1276.04 Z" fill="#000000" fill-rule="nonzero" fill-opacity="1" /><polyline clip-path="url(#clip082)" style="stroke:#000000; stroke-linecap:round; stroke-linejoin:round; stroke-width:2; stroke-opacity:0.1; fill:none" points="183.394,1202.04 2064.76,1202.04 "/>
<polyline clip-path="url(#clip082)" style="stroke:#000000; stroke-linecap:round; stroke-linejoin:round; stroke-width:2; stroke-opacity:0.1; fill:none" points="183.394,920.634 2064.76,920.634 "/>
<polyline clip-path="url(#clip082)" style="stroke:#000000; stroke-linecap:round; stroke-linejoin:round; stroke-width:2; stroke-opacity:0.1; fill:none" points="183.394,639.224 2064.76,639.224 "/>
<polyline clip-path="url(#clip082)" style="stroke:#000000; stroke-linecap:round; stroke-linejoin:round; stroke-width:2; stroke-opacity:0.1; fill:none" points="183.394,357.814 2064.76,357.814 "/>
<polyline clip-path="url(#clip082)" style="stroke:#000000; stroke-linecap:round; stroke-linejoin:round; stroke-width:2; stroke-opacity:0.1; fill:none" points="183.394,76.4044 2064.76,76.4044 "/>
<polyline clip-path="url(#clip080)" style="stroke:#000000; stroke-linecap:round; stroke-linejoin:round; stroke-width:4; stroke-opacity:1; fill:none" points="183.394,1234.58 183.394,47.2441 "/>
<polyline clip-path="url(#clip080)" style="stroke:#000000; stroke-linecap:round; stroke-linejoin:round; stroke-width:4; stroke-opacity:1; fill:none" points="183.394,1202.04 202.292,1202.04 "/>
<polyline clip-path="url(#clip080)" style="stroke:#000000; stroke-linecap:round; stroke-linejoin:round; stroke-width:4; stroke-opacity:1; fill:none" points="183.394,920.634 202.292,920.634 "/>
<polyline clip-path="url(#clip080)" style="stroke:#000000; stroke-linecap:round; stroke-linejoin:round; stroke-width:4; stroke-opacity:1; fill:none" points="183.394,639.224 202.292,639.224 "/>
<polyline clip-path="url(#clip080)" style="stroke:#000000; stroke-linecap:round; stroke-linejoin:round; stroke-width:4; stroke-opacity:1; fill:none" points="183.394,357.814 202.292,357.814 "/>
<polyline clip-path="url(#clip080)" style="stroke:#000000; stroke-linecap:round; stroke-linejoin:round; stroke-width:4; stroke-opacity:1; fill:none" points="183.394,76.4044 202.292,76.4044 "/>
<path clip-path="url(#clip080)" d="M64.3765 1187.84 Q60.7654 1187.84 58.9367 1191.41 Q57.1312 1194.95 57.1312 1202.08 Q57.1312 1209.19 58.9367 1212.75 Q60.7654 1216.29 64.3765 1216.29 Q68.0107 1216.29 69.8163 1212.75 Q71.645 1209.19 71.645 1202.08 Q71.645 1194.95 69.8163 1191.41 Q68.0107 1187.84 64.3765 1187.84 M64.3765 1184.14 Q70.1867 1184.14 73.2422 1188.75 Q76.3209 1193.33 76.3209 1202.08 Q76.3209 1210.81 73.2422 1215.41 Q70.1867 1220 64.3765 1220 Q58.5664 1220 55.4877 1215.41 Q52.4321 1210.81 52.4321 1202.08 Q52.4321 1193.33 55.4877 1188.75 Q58.5664 1184.14 64.3765 1184.14 Z" fill="#000000" fill-rule="nonzero" fill-opacity="1" /><path clip-path="url(#clip080)" d="M84.5384 1213.44 L89.4227 1213.44 L89.4227 1219.32 L84.5384 1219.32 L84.5384 1213.44 Z" fill="#000000" fill-rule="nonzero" fill-opacity="1" /><path clip-path="url(#clip080)" d="M109.608 1187.84 Q105.997 1187.84 104.168 1191.41 Q102.362 1194.95 102.362 1202.08 Q102.362 1209.19 104.168 1212.75 Q105.997 1216.29 109.608 1216.29 Q113.242 1216.29 115.048 1212.75 Q116.876 1209.19 116.876 1202.08 Q116.876 1194.95 115.048 1191.41 Q113.242 1187.84 109.608 1187.84 M109.608 1184.14 Q115.418 1184.14 118.473 1188.75 Q121.552 1193.33 121.552 1202.08 Q121.552 1210.81 118.473 1215.41 Q115.418 1220 109.608 1220 Q103.798 1220 100.719 1215.41 Q97.6634 1210.81 97.6634 1202.08 Q97.6634 1193.33 100.719 1188.75 Q103.798 1184.14 109.608 1184.14 Z" fill="#000000" fill-rule="nonzero" fill-opacity="1" /><path clip-path="url(#clip080)" d="M139.77 1187.84 Q136.159 1187.84 134.33 1191.41 Q132.524 1194.95 132.524 1202.08 Q132.524 1209.19 134.33 1212.75 Q136.159 1216.29 139.77 1216.29 Q143.404 1216.29 145.209 1212.75 Q147.038 1209.19 147.038 1202.08 Q147.038 1194.95 145.209 1191.41 Q143.404 1187.84 139.77 1187.84 M139.77 1184.14 Q145.58 1184.14 148.635 1188.75 Q151.714 1193.33 151.714 1202.08 Q151.714 1210.81 148.635 1215.41 Q145.58 1220 139.77 1220 Q133.959 1220 130.881 1215.41 Q127.825 1210.81 127.825 1202.08 Q127.825 1193.33 130.881 1188.75 Q133.959 1184.14 139.77 1184.14 Z" fill="#000000" fill-rule="nonzero" fill-opacity="1" /><path clip-path="url(#clip080)" d="M65.3719 906.433 Q61.7608 906.433 59.9321 909.998 Q58.1265 913.539 58.1265 920.669 Q58.1265 927.775 59.9321 931.34 Q61.7608 934.882 65.3719 934.882 Q69.0061 934.882 70.8117 931.34 Q72.6404 927.775 72.6404 920.669 Q72.6404 913.539 70.8117 909.998 Q69.0061 906.433 65.3719 906.433 M65.3719 902.729 Q71.182 902.729 74.2376 907.336 Q77.3163 911.919 77.3163 920.669 Q77.3163 929.396 74.2376 934.002 Q71.182 938.586 65.3719 938.586 Q59.5617 938.586 56.483 934.002 Q53.4275 929.396 53.4275 920.669 Q53.4275 911.919 56.483 907.336 Q59.5617 902.729 65.3719 902.729 Z" fill="#000000" fill-rule="nonzero" fill-opacity="1" /><path clip-path="url(#clip080)" d="M85.5338 932.035 L90.418 932.035 L90.418 937.914 L85.5338 937.914 L85.5338 932.035 Z" fill="#000000" fill-rule="nonzero" fill-opacity="1" /><path clip-path="url(#clip080)" d="M104.631 933.979 L120.95 933.979 L120.95 937.914 L99.006 937.914 L99.006 933.979 Q101.668 931.225 106.251 926.595 Q110.858 921.942 112.038 920.6 Q114.284 918.076 115.163 916.34 Q116.066 914.581 116.066 912.891 Q116.066 910.137 114.122 908.401 Q112.2 906.664 109.098 906.664 Q106.899 906.664 104.446 907.428 Q102.015 908.192 99.2374 909.743 L99.2374 905.021 Q102.061 903.887 104.515 903.308 Q106.969 902.729 109.006 902.729 Q114.376 902.729 117.571 905.414 Q120.765 908.1 120.765 912.59 Q120.765 914.72 119.955 916.641 Q119.168 918.539 117.061 921.132 Q116.483 921.803 113.381 925.021 Q110.279 928.215 104.631 933.979 Z" fill="#000000" fill-rule="nonzero" fill-opacity="1" /><path clip-path="url(#clip080)" d="M130.811 903.354 L149.168 903.354 L149.168 907.289 L135.094 907.289 L135.094 915.762 Q136.112 915.414 137.131 915.252 Q138.149 915.067 139.168 915.067 Q144.955 915.067 148.334 918.238 Q151.714 921.41 151.714 926.826 Q151.714 932.405 148.242 935.507 Q144.77 938.586 138.45 938.586 Q136.274 938.586 134.006 938.215 Q131.76 937.845 129.353 937.104 L129.353 932.405 Q131.436 933.539 133.659 934.095 Q135.881 934.65 138.358 934.65 Q142.362 934.65 144.7 932.544 Q147.038 930.438 147.038 926.826 Q147.038 923.215 144.7 921.109 Q142.362 919.002 138.358 919.002 Q136.483 919.002 134.608 919.419 Q132.756 919.836 130.811 920.715 L130.811 903.354 Z" fill="#000000" fill-rule="nonzero" fill-opacity="1" /><path clip-path="url(#clip080)" d="M64.3765 625.023 Q60.7654 625.023 58.9367 628.588 Q57.1312 632.129 57.1312 639.259 Q57.1312 646.366 58.9367 649.93 Q60.7654 653.472 64.3765 653.472 Q68.0107 653.472 69.8163 649.93 Q71.645 646.366 71.645 639.259 Q71.645 632.129 69.8163 628.588 Q68.0107 625.023 64.3765 625.023 M64.3765 621.319 Q70.1867 621.319 73.2422 625.926 Q76.3209 630.509 76.3209 639.259 Q76.3209 647.986 73.2422 652.592 Q70.1867 657.176 64.3765 657.176 Q58.5664 657.176 55.4877 652.592 Q52.4321 647.986 52.4321 639.259 Q52.4321 630.509 55.4877 625.926 Q58.5664 621.319 64.3765 621.319 Z" fill="#000000" fill-rule="nonzero" fill-opacity="1" /><path clip-path="url(#clip080)" d="M84.5384 650.625 L89.4227 650.625 L89.4227 656.504 L84.5384 656.504 L84.5384 650.625 Z" fill="#000000" fill-rule="nonzero" fill-opacity="1" /><path clip-path="url(#clip080)" d="M99.6541 621.944 L118.01 621.944 L118.01 625.88 L103.936 625.88 L103.936 634.352 Q104.955 634.004 105.974 633.842 Q106.992 633.657 108.011 633.657 Q113.798 633.657 117.177 636.829 Q120.557 640 120.557 645.416 Q120.557 650.995 117.085 654.097 Q113.612 657.176 107.293 657.176 Q105.117 657.176 102.849 656.805 Q100.603 656.435 98.1958 655.694 L98.1958 650.995 Q100.279 652.129 102.501 652.685 Q104.724 653.24 107.2 653.24 Q111.205 653.24 113.543 651.134 Q115.881 649.028 115.881 645.416 Q115.881 641.805 113.543 639.699 Q111.205 637.592 107.2 637.592 Q105.325 637.592 103.45 638.009 Q101.599 638.426 99.6541 639.305 L99.6541 621.944 Z" fill="#000000" fill-rule="nonzero" fill-opacity="1" /><path clip-path="url(#clip080)" d="M139.77 625.023 Q136.159 625.023 134.33 628.588 Q132.524 632.129 132.524 639.259 Q132.524 646.366 134.33 649.93 Q136.159 653.472 139.77 653.472 Q143.404 653.472 145.209 649.93 Q147.038 646.366 147.038 639.259 Q147.038 632.129 145.209 628.588 Q143.404 625.023 139.77 625.023 M139.77 621.319 Q145.58 621.319 148.635 625.926 Q151.714 630.509 151.714 639.259 Q151.714 647.986 148.635 652.592 Q145.58 657.176 139.77 657.176 Q133.959 657.176 130.881 652.592 Q127.825 647.986 127.825 639.259 Q127.825 630.509 130.881 625.926 Q133.959 621.319 139.77 621.319 Z" fill="#000000" fill-rule="nonzero" fill-opacity="1" /><path clip-path="url(#clip080)" d="M65.3719 343.613 Q61.7608 343.613 59.9321 347.178 Q58.1265 350.72 58.1265 357.849 Q58.1265 364.956 59.9321 368.52 Q61.7608 372.062 65.3719 372.062 Q69.0061 372.062 70.8117 368.52 Q72.6404 364.956 72.6404 357.849 Q72.6404 350.72 70.8117 347.178 Q69.0061 343.613 65.3719 343.613 M65.3719 339.909 Q71.182 339.909 74.2376 344.516 Q77.3163 349.099 77.3163 357.849 Q77.3163 366.576 74.2376 371.182 Q71.182 375.766 65.3719 375.766 Q59.5617 375.766 56.483 371.182 Q53.4275 366.576 53.4275 357.849 Q53.4275 349.099 56.483 344.516 Q59.5617 339.909 65.3719 339.909 Z" fill="#000000" fill-rule="nonzero" fill-opacity="1" /><path clip-path="url(#clip080)" d="M85.5338 369.215 L90.418 369.215 L90.418 375.094 L85.5338 375.094 L85.5338 369.215 Z" fill="#000000" fill-rule="nonzero" fill-opacity="1" /><path clip-path="url(#clip080)" d="M99.4226 340.534 L121.645 340.534 L121.645 342.525 L109.098 375.094 L104.214 375.094 L116.02 344.47 L99.4226 344.47 L99.4226 340.534 Z" fill="#000000" fill-rule="nonzero" fill-opacity="1" /><path clip-path="url(#clip080)" d="M130.811 340.534 L149.168 340.534 L149.168 344.47 L135.094 344.47 L135.094 352.942 Q136.112 352.595 137.131 352.432 Q138.149 352.247 139.168 352.247 Q144.955 352.247 148.334 355.419 Q151.714 358.59 151.714 364.006 Q151.714 369.585 148.242 372.687 Q144.77 375.766 138.45 375.766 Q136.274 375.766 134.006 375.395 Q131.76 375.025 129.353 374.284 L129.353 369.585 Q131.436 370.719 133.659 371.275 Q135.881 371.831 138.358 371.831 Q142.362 371.831 144.7 369.724 Q147.038 367.618 147.038 364.006 Q147.038 360.395 144.7 358.289 Q142.362 356.182 138.358 356.182 Q136.483 356.182 134.608 356.599 Q132.756 357.016 130.811 357.895 L130.811 340.534 Z" fill="#000000" fill-rule="nonzero" fill-opacity="1" /><path clip-path="url(#clip080)" d="M55.1867 89.7493 L62.8256 89.7493 L62.8256 63.3837 L54.5154 65.0503 L54.5154 60.7911 L62.7793 59.1244 L67.4552 59.1244 L67.4552 89.7493 L75.094 89.7493 L75.094 93.6844 L55.1867 93.6844 L55.1867 89.7493 Z" fill="#000000" fill-rule="nonzero" fill-opacity="1" /><path clip-path="url(#clip080)" d="M84.5384 87.8048 L89.4227 87.8048 L89.4227 93.6844 L84.5384 93.6844 L84.5384 87.8048 Z" fill="#000000" fill-rule="nonzero" fill-opacity="1" /><path clip-path="url(#clip080)" d="M109.608 62.2031 Q105.997 62.2031 104.168 65.7679 Q102.362 69.3095 102.362 76.4391 Q102.362 83.5456 104.168 87.1104 Q105.997 90.652 109.608 90.652 Q113.242 90.652 115.048 87.1104 Q116.876 83.5456 116.876 76.4391 Q116.876 69.3095 115.048 65.7679 Q113.242 62.2031 109.608 62.2031 M109.608 58.4994 Q115.418 58.4994 118.473 63.1059 Q121.552 67.6892 121.552 76.4391 Q121.552 85.1659 118.473 89.7724 Q115.418 94.3557 109.608 94.3557 Q103.798 94.3557 100.719 89.7724 Q97.6634 85.1659 97.6634 76.4391 Q97.6634 67.6892 100.719 63.1059 Q103.798 58.4994 109.608 58.4994 Z" fill="#000000" fill-rule="nonzero" fill-opacity="1" /><path clip-path="url(#clip080)" d="M139.77 62.2031 Q136.159 62.2031 134.33 65.7679 Q132.524 69.3095 132.524 76.4391 Q132.524 83.5456 134.33 87.1104 Q136.159 90.652 139.77 90.652 Q143.404 90.652 145.209 87.1104 Q147.038 83.5456 147.038 76.4391 Q147.038 69.3095 145.209 65.7679 Q143.404 62.2031 139.77 62.2031 M139.77 58.4994 Q145.58 58.4994 148.635 63.1059 Q151.714 67.6892 151.714 76.4391 Q151.714 85.1659 148.635 89.7724 Q145.58 94.3557 139.77 94.3557 Q133.959 94.3557 130.881 89.7724 Q127.825 85.1659 127.825 76.4391 Q127.825 67.6892 130.881 63.1059 Q133.959 58.4994 139.77 58.4994 Z" fill="#000000" fill-rule="nonzero" fill-opacity="1" /><polyline clip-path="url(#clip082)" style="stroke:#009af9; stroke-linecap:round; stroke-linejoin:round; stroke-width:4; stroke-opacity:1; fill:none" points="236.64,147.845 239.598,136.862 242.556,1179.97 245.514,548.218 248.473,404.987 251.431,989.937 254.389,660.438 257.347,874.196 260.305,150.807 263.263,786.271 266.221,648.803 269.179,270.105 272.137,361.221 275.096,810.733 278.054,509.332 281.012,634.371 283.97,309.908 286.928,807.322 289.886,548.256 292.844,418.517 295.802,426.871 298.761,278.117 301.719,733.511 304.677,812.961 307.635,820.912 310.593,843.757 313.551,146.73 316.509,875.6 319.467,91.6074 322.425,788.219 325.384,906.031 328.342,587.987 331.3,438.857 334.258,493.409 337.216,169.415 340.174,347.348 343.132,153.368 346.09,632.261 349.049,772.267 352.007,158.033 354.965,980.259 357.923,1200.97 360.881,363.254 363.839,483.573 366.797,1093.64 369.755,861.753 372.713,157.595 375.672,671.716 378.63,701.038 381.588,977.403 384.546,867.022 387.504,254.491 390.462,246.251 393.42,633.761 396.378,380.07 399.336,425.341 402.295,664.075 405.253,1001.73 408.211,629.343 411.169,446.241 414.127,442.958 417.085,1045.8 420.043,217.177 423.001,231.226 425.96,810.793 428.918,235.11 431.876,399.761 434.834,193.235 437.792,550.701 440.75,799.866 443.708,713.199 446.666,765.758 449.624,632.158 452.583,504.82 455.541,123.305 458.499,529.644 461.457,602.924 464.415,758.082 467.373,137.468 470.331,832.094 473.289,597.888 476.248,933.756 479.206,1012.14 482.164,787.008 485.122,501.61 488.08,693.953 491.038,1060.88 493.996,696.314 496.954,618.11 499.912,1172.51 502.871,288.419 505.829,138.504 508.787,384.046 511.745,941.326 514.703,619.073 517.661,518.279 520.619,371.301 523.577,549.126 526.535,703.03 529.494,741.111 532.452,1149.98 535.41,561.026 538.368,262.4 541.326,1195.99 544.284,343.649 547.242,183.656 550.2,112.368 553.159,710.049 556.117,481.026 559.075,250.775 562.033,176.847 564.991,105.652 567.949,623.12 570.907,671.122 573.865,378.092 576.823,860.176 579.782,315.42 582.74,389.324 585.698,547.681 588.656,936.45 591.614,359.597 594.572,835.057 597.53,319.378 600.488,544.199 603.447,917.214 606.405,897.281 609.363,1028.89 612.321,250.319 615.279,758.429 618.237,454.845 621.195,199.52 624.153,756.986 627.111,693.998 630.07,359.068 633.028,533.644 635.986,578.023 638.944,149.929 641.902,629.926 644.86,583.098 647.818,291.861 650.776,1077.6 653.734,995.047 656.693,533.762 659.651,966.575 662.609,1122.76 665.567,955.402 668.525,827.706 671.483,445.248 674.441,1159.88 677.399,517.562 680.358,783.446 683.316,252.964 686.274,825.474 689.232,1145.27 692.19,791.979 695.148,682.526 698.106,1057.4 701.064,276.751 704.022,476.102 706.981,1000.51 709.939,1017.66 712.897,123.623 715.855,982.811 718.813,1087.44 721.771,1054.31 724.729,726.824 727.687,410.803 730.645,1124.42 733.604,1045.37 736.562,733.542 739.52,130.549 742.478,901.734 745.436,479.187 748.394,992.324 751.352,715.673 754.31,756.279 757.269,587.561 760.227,759.868 763.185,1007.5 766.143,255.527 769.101,194.602 772.059,1111 775.017,287.717 777.975,409.049 780.933,1043.65 783.892,672.18 786.85,376.047 789.808,881.954 792.766,934.516 795.724,444.72 798.682,605.652 801.64,847.192 804.598,1150.85 807.557,356.981 810.515,408.66 813.473,764.763 816.431,699.62 819.389,474.371 822.347,1009.68 825.305,958.903 828.263,1103.1 831.221,424.336 834.18,959.102 837.138,1128.93 840.096,418.707 843.054,426.416 846.012,1179.67 848.97,695.47 851.928,102.27 854.886,244.918 857.844,351.26 860.803,606.068 863.761,402.443 866.719,1078.56 869.677,795.13 872.635,985.003 875.593,352.052 878.551,397.803 881.509,508.445 884.468,737.519 887.426,540.223 890.384,1081.27 893.342,1080.11 896.3,1072.95 899.258,1032.54 902.216,323.795 905.174,486.098 908.132,653.193 911.091,538.796 914.049,1019.2 917.007,377.252 919.965,341.775 922.923,95.3807 925.881,264.217 928.839,1198.16 931.797,379.979 934.756,588.567 937.714,928.506 940.672,1120.7 943.63,301.794 946.588,598.882 949.546,172.123 952.504,862.786 955.462,403.886 958.42,285.129 961.379,900.045 964.337,672.041 967.295,464.759 970.253,1143.75 973.211,791.498 976.169,230.369 979.127,931.197 982.085,611.979 985.043,273.529 988.002,850.523 990.96,278.736 993.918,663.875 996.876,998.26 999.834,883.415 1002.79,1089.62 1005.75,522.351 1008.71,236.462 1011.67,109.721 1014.62,1142.61 1017.58,490.001 1020.54,357.8 1023.5,1152.86 1026.46,388.868 1029.42,1047.75 1032.37,629.231 1035.33,1191.57 1038.29,912.071 1041.25,1041.72 1044.21,164.05 1047.16,190.459 1050.12,504.226 1053.08,409.068 1056.04,887.746 1059,791.084 1061.95,921.98 1064.91,865.696 1067.87,758.743 1070.83,1028.32 1073.79,83.0687 1076.75,699.247 1079.7,120.771 1082.66,521.779 1085.62,384.129 1088.58,88.5146 1091.54,485.619 1094.49,917.415 1097.45,819.342 1100.41,1091.42 1103.37,788.393 1106.33,1048.27 1109.28,1099.68 1112.24,619.864 1115.2,808.141 1118.16,516.654 1121.12,1087.96 1124.07,846.057 1127.03,668.234 1129.99,470.073 1132.95,1058.69 1135.91,423.8 1138.87,392.589 1141.82,739.045 1144.78,876.721 1147.74,840.628 1150.7,1019.97 1153.66,428.595 1156.61,324.159 1159.57,925.942 1162.53,649.225 1165.49,468.333 1168.45,836.578 1171.4,978.139 1174.36,985.578 1177.32,1126.53 1180.28,1073.65 1183.24,1080.6 1186.2,359.672 1189.15,226.747 1192.11,876.443 1195.07,610.576 1198.03,922.287 1200.99,1056.18 1203.94,824.135 1206.9,1192.41 1209.86,338.936 1212.82,795.999 1215.78,622.179 1218.73,402.869 1221.69,226.657 1224.65,593.339 1227.61,1048.05 1230.57,525.795 1233.53,141.293 1236.48,110.123 1239.44,509.869 1242.4,603.748 1245.36,103.391 1248.32,677.516 1251.27,133.426 1254.23,259.475 1257.19,1101.55 1260.15,565.337 1263.11,1112.98 1266.06,957.12 1269.02,364.202 1271.98,396.323 1274.94,593.544 1277.9,772.352 1280.86,1154.55 1283.81,705.592 1286.77,695.559 1289.73,634.885 1292.69,658.703 1295.65,1119.33 1298.6,1158.55 1301.56,936.011 1304.52,1123.01 1307.48,955.326 1310.44,1015.69 1313.39,820.712 1316.35,890.618 1319.31,990.222 1322.27,561.552 1325.23,746.32 1328.18,1189.97 1331.14,1024.76 1334.1,481.8 1337.06,923.768 1340.02,617.441 1342.98,691.786 1345.93,569.55 1348.89,733.618 1351.85,953.179 1354.81,503.278 1357.77,271.752 1360.72,1048.11 1363.68,1183.25 1366.64,1159.98 1369.6,401.844 1372.56,1132.96 1375.51,138.578 1378.47,298.627 1381.43,826.309 1384.39,712.568 1387.35,932.425 1390.31,367.775 1393.26,463.944 1396.22,1084.47 1399.18,511.971 1402.14,233.339 1405.1,928.662 1408.05,785.91 1411.01,378.955 1413.97,683.906 1416.93,998.63 1419.89,443.095 1422.84,486.479 1425.8,323.057 1428.76,1062.18 1431.72,280.393 1434.68,649.273 1437.64,234.514 1440.59,137.248 1443.55,1198.21 1446.51,872.452 1449.47,592.256 1452.43,647.511 1455.38,540.07 1458.34,483.686 1461.3,404.317 1464.26,320.476 1467.22,508.252 1470.17,372.365 1473.13,146.58 1476.09,119.58 1479.05,665.548 1482.01,1121.06 1484.97,958.636 1487.92,383.154 1490.88,466.388 1493.84,1071.6 1496.8,302.518 1499.76,338.529 1502.71,459.958 1505.67,373.978 1508.63,377.97 1511.59,582.801 1514.55,608.453 1517.5,340.875 1520.46,410.36 1523.42,405.717 1526.38,819.116 1529.34,458.959 1532.29,1020.48 1535.25,737.549 1538.21,181.493 1541.17,901.036 1544.13,968.641 1547.09,1076.15 1550.04,537.263 1553,623.736 1555.96,1174.24 1558.92,85.7514 1561.88,426.882 1564.83,108.124 1567.79,662.045 1570.75,772.735 1573.71,1079.15 1576.67,205.049 1579.62,607.775 1582.58,142.217 1585.54,722.386 1588.5,291.819 1591.46,361.03 1594.42,995.862 1597.37,418.735 1600.33,624.562 1603.29,612.199 1606.25,763.696 1609.21,198.25 1612.16,266.67 1615.12,791.193 1618.08,388.793 1621.04,897.72 1624,662.416 1626.95,695.402 1629.91,726.166 1632.87,965.801 1635.83,615.269 1638.79,1110.11 1641.75,527.594 1644.7,152.446 1647.66,1190.65 1650.62,970.241 1653.58,364.502 1656.54,330.269 1659.49,415.714 1662.45,833.217 1665.41,1120.27 1668.37,747.539 1671.33,1105.6 1674.28,589.189 1677.24,1065.54 1680.2,761.442 1683.16,1068.21 1686.12,612.058 1689.08,592.357 1692.03,782.461 1694.99,386.751 1697.95,324.708 1700.91,669.777 1703.87,391.95 1706.82,605.837 1709.78,942.336 1712.74,976.888 1715.7,1188.53 1718.66,1114.06 1721.61,575.829 1724.57,173.309 1727.53,320.706 1730.49,606.797 1733.45,1085.41 1736.41,267.416 1739.36,922.303 1742.32,927.497 1745.28,699.632 1748.24,576.674 1751.2,1178.52 1754.15,252.315 1757.11,1007.86 1760.07,101.343 1763.03,1156.7 1765.99,1099.87 1768.94,382.737 1771.9,634.533 1774.86,603.853 1777.82,157.213 1780.78,321.373 1783.73,1181.66 1786.69,764.442 1789.65,393.649 1792.61,841.358 1795.57,776.679 1798.53,104.171 1801.48,337.594 1804.44,712.753 1807.4,166.816 1810.36,977.155 1813.32,1046.8 1816.27,795.433 1819.23,276.134 1822.19,716.179 1825.15,238.881 1828.11,211.212 1831.06,964.959 1834.02,222.656 1836.98,132.045 1839.94,573.058 1842.9,430.217 1845.86,366.009 1848.81,843.714 1851.77,1102.77 1854.73,855.388 1857.69,499.988 1860.65,391.93 1863.6,247.453 1866.56,353.788 1869.52,572.15 1872.48,690.788 1875.44,1128.4 1878.39,488.069 1881.35,401.176 1884.31,695.366 1887.27,507.215 1890.23,1019 1893.19,624.522 1896.14,972.726 1899.1,779.434 1902.06,571.924 1905.02,311.014 1907.98,392.334 1910.93,983.55 1913.89,975.939 1916.85,816.288 1919.81,500.741 1922.77,346.134 1925.72,612.576 1928.68,519.632 1931.64,734.362 1934.6,559.434 1937.56,928.557 1940.52,620.077 1943.47,746.836 1946.43,1115.64 1949.39,793.206 1952.35,706.254 1955.31,640.851 1958.26,1083.13 1961.22,424.835 1964.18,745.215 1967.14,1001.69 1970.1,1134.21 1973.05,483.569 1976.01,233.049 1978.97,609.254 1981.93,250.528 1984.89,1104.24 1987.84,742.614 1990.8,789.847 1993.76,623.626 1996.72,387.058 1999.68,723.427 2002.64,510.604 2005.59,80.8479 2008.55,441.228 2011.51,473.571 "/>
<path clip-path="url(#clip080)" d="M246.106 1195 L486.673 1195 L486.673 1091.32 L246.106 1091.32  Z" fill="#ffffff" fill-rule="evenodd" fill-opacity="1"/>
<polyline clip-path="url(#clip080)" style="stroke:#000000; stroke-linecap:round; stroke-linejoin:round; stroke-width:4; stroke-opacity:1; fill:none" points="246.106,1195 486.673,1195 486.673,1091.32 246.106,1091.32 246.106,1195 "/>
<polyline clip-path="url(#clip080)" style="stroke:#009af9; stroke-linecap:round; stroke-linejoin:round; stroke-width:4; stroke-opacity:1; fill:none" points="267.01,1143.16 392.434,1143.16 "/>
<path clip-path="url(#clip080)" d="M427.181 1162.85 Q425.375 1167.48 423.662 1168.89 Q421.949 1170.3 419.079 1170.3 L415.676 1170.3 L415.676 1166.74 L418.176 1166.74 Q419.935 1166.74 420.908 1165.9 Q421.88 1165.07 423.06 1161.97 L423.824 1160.02 L413.338 1134.52 L417.852 1134.52 L425.954 1154.79 L434.056 1134.52 L438.57 1134.52 L427.181 1162.85 Z" fill="#000000" fill-rule="nonzero" fill-opacity="1" /><path clip-path="url(#clip080)" d="M445.861 1156.51 L453.5 1156.51 L453.5 1130.14 L445.19 1131.81 L445.19 1127.55 L453.454 1125.88 L458.13 1125.88 L458.13 1156.51 L465.769 1156.51 L465.769 1160.44 L445.861 1160.44 L445.861 1156.51 Z" fill="#000000" fill-rule="nonzero" fill-opacity="1" /></svg>
