<?xml version="1.0" encoding="utf-8"?>
<svg xmlns="http://www.w3.org/2000/svg" xmlns:xlink="http://www.w3.org/1999/xlink" width="528" height="336" viewBox="0 0 2112 1344">
<defs>
  <clipPath id="clip250">
    <rect x="0" y="0" width="2112" height="1344"/>
  </clipPath>
</defs>
<path clip-path="url(#clip250)" d="M0 1344 L2112 1344 L2112 0 L0 0  Z" fill="#ffffff" fill-rule="evenodd" fill-opacity="1"/>
<defs>
  <clipPath id="clip251">
    <rect x="422" y="0" width="1479" height="1344"/>
  </clipPath>
</defs>
<path clip-path="url(#clip250)" d="M167.977 1234.58 L2064.76 1234.58 L2064.76 47.2441 L167.977 47.2441  Z" fill="#ffffff" fill-rule="evenodd" fill-opacity="1"/>
<defs>
  <clipPath id="clip252">
    <rect x="167" y="47" width="1898" height="1188"/>
  </clipPath>
</defs>
<polyline clip-path="url(#clip252)" style="stroke:#000000; stroke-linecap:round; stroke-linejoin:round; stroke-width:2; stroke-opacity:0.1; fill:none" points="221.66,1234.58 221.66,47.2441 "/>
<polyline clip-path="url(#clip252)" style="stroke:#000000; stroke-linecap:round; stroke-linejoin:round; stroke-width:2; stroke-opacity:0.1; fill:none" points="519.895,1234.58 519.895,47.2441 "/>
<polyline clip-path="url(#clip252)" style="stroke:#000000; stroke-linecap:round; stroke-linejoin:round; stroke-width:2; stroke-opacity:0.1; fill:none" points="818.131,1234.58 818.131,47.2441 "/>
<polyline clip-path="url(#clip252)" style="stroke:#000000; stroke-linecap:round; stroke-linejoin:round; stroke-width:2; stroke-opacity:0.1; fill:none" points="1116.37,1234.58 1116.37,47.2441 "/>
<polyline clip-path="url(#clip252)" style="stroke:#000000; stroke-linecap:round; stroke-linejoin:round; stroke-width:2; stroke-opacity:0.1; fill:none" points="1414.6,1234.58 1414.6,47.2441 "/>
<polyline clip-path="url(#clip252)" style="stroke:#000000; stroke-linecap:round; stroke-linejoin:round; stroke-width:2; stroke-opacity:0.1; fill:none" points="1712.84,1234.58 1712.84,47.2441 "/>
<polyline clip-path="url(#clip252)" style="stroke:#000000; stroke-linecap:round; stroke-linejoin:round; stroke-width:2; stroke-opacity:0.1; fill:none" points="2011.07,1234.58 2011.07,47.2441 "/>
<polyline clip-path="url(#clip250)" style="stroke:#000000; stroke-linecap:round; stroke-linejoin:round; stroke-width:4; stroke-opacity:1; fill:none" points="167.977,1234.58 2064.76,1234.58 "/>
<polyline clip-path="url(#clip250)" style="stroke:#000000; stroke-linecap:round; stroke-linejoin:round; stroke-width:4; stroke-opacity:1; fill:none" points="221.66,1234.58 221.66,1215.68 "/>
<polyline clip-path="url(#clip250)" style="stroke:#000000; stroke-linecap:round; stroke-linejoin:round; stroke-width:4; stroke-opacity:1; fill:none" points="519.895,1234.58 519.895,1215.68 "/>
<polyline clip-path="url(#clip250)" style="stroke:#000000; stroke-linecap:round; stroke-linejoin:round; stroke-width:4; stroke-opacity:1; fill:none" points="818.131,1234.58 818.131,1215.68 "/>
<polyline clip-path="url(#clip250)" style="stroke:#000000; stroke-linecap:round; stroke-linejoin:round; stroke-width:4; stroke-opacity:1; fill:none" points="1116.37,1234.58 1116.37,1215.68 "/>
<polyline clip-path="url(#clip250)" style="stroke:#000000; stroke-linecap:round; stroke-linejoin:round; stroke-width:4; stroke-opacity:1; fill:none" points="1414.6,1234.58 1414.6,1215.68 "/>
<polyline clip-path="url(#clip250)" style="stroke:#000000; stroke-linecap:round; stroke-linejoin:round; stroke-width:4; stroke-opacity:1; fill:none" points="1712.84,1234.58 1712.84,1215.68 "/>
<polyline clip-path="url(#clip250)" style="stroke:#000000; stroke-linecap:round; stroke-linejoin:round; stroke-width:4; stroke-opacity:1; fill:none" points="2011.07,1234.58 2011.07,1215.68 "/>
<path clip-path="url(#clip250)" d="M191.128 1277.85 L220.803 1277.85 L220.803 1281.78 L191.128 1281.78 L191.128 1277.85 Z" fill="#000000" fill-rule="nonzero" fill-opacity="1" /><path clip-path="url(#clip250)" d="M245.062 1276.04 Q248.419 1276.76 250.294 1279.03 Q252.192 1281.3 252.192 1284.63 Q252.192 1289.74 248.674 1292.55 Q245.155 1295.35 238.674 1295.35 Q236.498 1295.35 234.183 1294.91 Q231.891 1294.49 229.438 1293.63 L229.438 1289.12 Q231.382 1290.25 233.697 1290.83 Q236.012 1291.41 238.535 1291.41 Q242.933 1291.41 245.225 1289.67 Q247.539 1287.94 247.539 1284.63 Q247.539 1281.57 245.387 1279.86 Q243.257 1278.12 239.438 1278.12 L235.41 1278.12 L235.41 1274.28 L239.623 1274.28 Q243.072 1274.28 244.9 1272.92 Q246.729 1271.53 246.729 1268.93 Q246.729 1266.27 244.831 1264.86 Q242.956 1263.42 239.438 1263.42 Q237.516 1263.42 235.317 1263.84 Q233.118 1264.26 230.479 1265.14 L230.479 1260.97 Q233.141 1260.23 235.456 1259.86 Q237.794 1259.49 239.854 1259.49 Q245.178 1259.49 248.28 1261.92 Q251.382 1264.33 251.382 1268.45 Q251.382 1271.32 249.738 1273.31 Q248.095 1275.28 245.062 1276.04 Z" fill="#000000" fill-rule="nonzero" fill-opacity="1" /><path clip-path="url(#clip250)" d="M489.838 1277.85 L519.513 1277.85 L519.513 1281.78 L489.838 1281.78 L489.838 1277.85 Z" fill="#000000" fill-rule="nonzero" fill-opacity="1" /><path clip-path="url(#clip250)" d="M533.634 1290.74 L549.953 1290.74 L549.953 1294.67 L528.009 1294.67 L528.009 1290.74 Q530.671 1287.99 535.254 1283.36 Q539.861 1278.7 541.041 1277.36 Q543.287 1274.84 544.166 1273.1 Q545.069 1271.34 545.069 1269.65 Q545.069 1266.9 543.124 1265.16 Q541.203 1263.42 538.101 1263.42 Q535.902 1263.42 533.449 1264.19 Q531.018 1264.95 528.24 1266.5 L528.24 1261.78 Q531.064 1260.65 533.518 1260.07 Q535.972 1259.49 538.009 1259.49 Q543.379 1259.49 546.574 1262.17 Q549.768 1264.86 549.768 1269.35 Q549.768 1271.48 548.958 1273.4 Q548.171 1275.3 546.064 1277.89 Q545.486 1278.56 542.384 1281.78 Q539.282 1284.98 533.634 1290.74 Z" fill="#000000" fill-rule="nonzero" fill-opacity="1" /><path clip-path="url(#clip250)" d="M787.888 1277.85 L817.564 1277.85 L817.564 1281.78 L787.888 1281.78 L787.888 1277.85 Z" fill="#000000" fill-rule="nonzero" fill-opacity="1" /><path clip-path="url(#clip250)" d="M828.467 1290.74 L836.105 1290.74 L836.105 1264.37 L827.795 1266.04 L827.795 1261.78 L836.059 1260.11 L840.735 1260.11 L840.735 1290.74 L848.374 1290.74 L848.374 1294.67 L828.467 1294.67 L828.467 1290.74 Z" fill="#000000" fill-rule="nonzero" fill-opacity="1" /><path clip-path="url(#clip250)" d="M1116.37 1263.19 Q1112.76 1263.19 1110.93 1266.76 Q1109.12 1270.3 1109.12 1277.43 Q1109.12 1284.54 1110.93 1288.1 Q1112.76 1291.64 1116.37 1291.64 Q1120 1291.64 1121.81 1288.1 Q1123.64 1284.54 1123.64 1277.43 Q1123.64 1270.3 1121.81 1266.76 Q1120 1263.19 1116.37 1263.19 M1116.37 1259.49 Q1122.18 1259.49 1125.23 1264.1 Q1128.31 1268.68 1128.31 1277.43 Q1128.31 1286.16 1125.23 1290.76 Q1122.18 1295.35 1116.37 1295.35 Q1110.56 1295.35 1107.48 1290.76 Q1104.42 1286.16 1104.42 1277.43 Q1104.42 1268.68 1107.48 1264.1 Q1110.56 1259.49 1116.37 1259.49 Z" fill="#000000" fill-rule="nonzero" fill-opacity="1" /><path clip-path="url(#clip250)" d="M1404.98 1290.74 L1412.62 1290.74 L1412.62 1264.37 L1404.31 1266.04 L1404.31 1261.78 L1412.58 1260.11 L1417.25 1260.11 L1417.25 1290.74 L1424.89 1290.74 L1424.89 1294.67 L1404.98 1294.67 L1404.98 1290.74 Z" fill="#000000" fill-rule="nonzero" fill-opacity="1" /><path clip-path="url(#clip250)" d="M1707.49 1290.74 L1723.81 1290.74 L1723.81 1294.67 L1701.87 1294.67 L1701.87 1290.74 Q1704.53 1287.99 1709.11 1283.36 Q1713.72 1278.7 1714.9 1277.36 Q1717.14 1274.84 1718.02 1273.1 Q1718.93 1271.34 1718.93 1269.65 Q1718.93 1266.9 1716.98 1265.16 Q1715.06 1263.42 1711.96 1263.42 Q1709.76 1263.42 1707.31 1264.19 Q1704.87 1264.95 1702.1 1266.5 L1702.1 1261.78 Q1704.92 1260.65 1707.37 1260.07 Q1709.83 1259.49 1711.87 1259.49 Q1717.24 1259.49 1720.43 1262.17 Q1723.62 1264.86 1723.62 1269.35 Q1723.62 1271.48 1722.81 1273.4 Q1722.03 1275.3 1719.92 1277.89 Q1719.34 1278.56 1716.24 1281.78 Q1713.14 1284.98 1707.49 1290.74 Z" fill="#000000" fill-rule="nonzero" fill-opacity="1" /><path clip-path="url(#clip250)" d="M2015.32 1276.04 Q2018.68 1276.76 2020.55 1279.03 Q2022.45 1281.3 2022.45 1284.63 Q2022.45 1289.74 2018.93 1292.55 Q2015.41 1295.35 2008.93 1295.35 Q2006.76 1295.35 2004.44 1294.91 Q2002.15 1294.49 1999.7 1293.63 L1999.7 1289.12 Q2001.64 1290.25 2003.96 1290.83 Q2006.27 1291.41 2008.79 1291.41 Q2013.19 1291.41 2015.48 1289.67 Q2017.8 1287.94 2017.8 1284.63 Q2017.8 1281.57 2015.65 1279.86 Q2013.52 1278.12 2009.7 1278.12 L2005.67 1278.12 L2005.67 1274.28 L2009.88 1274.28 Q2013.33 1274.28 2015.16 1272.92 Q2016.99 1271.53 2016.99 1268.93 Q2016.99 1266.27 2015.09 1264.86 Q2013.21 1263.42 2009.7 1263.42 Q2007.77 1263.42 2005.58 1263.84 Q2003.38 1264.26 2000.74 1265.14 L2000.74 1260.97 Q2003.4 1260.23 2005.71 1259.86 Q2008.05 1259.49 2010.11 1259.49 Q2015.44 1259.49 2018.54 1261.92 Q2021.64 1264.33 2021.64 1268.45 Q2021.64 1271.32 2020 1273.31 Q2018.35 1275.28 2015.32 1276.04 Z" fill="#000000" fill-rule="nonzero" fill-opacity="1" /><polyline clip-path="url(#clip252)" style="stroke:#000000; stroke-linecap:round; stroke-linejoin:round; stroke-width:2; stroke-opacity:0.1; fill:none" points="167.977,1202.88 2064.76,1202.88 "/>
<polyline clip-path="url(#clip252)" style="stroke:#000000; stroke-linecap:round; stroke-linejoin:round; stroke-width:2; stroke-opacity:0.1; fill:none" points="167.977,1010.17 2064.76,1010.17 "/>
<polyline clip-path="url(#clip252)" style="stroke:#000000; stroke-linecap:round; stroke-linejoin:round; stroke-width:2; stroke-opacity:0.1; fill:none" points="167.977,817.455 2064.76,817.455 "/>
<polyline clip-path="url(#clip252)" style="stroke:#000000; stroke-linecap:round; stroke-linejoin:round; stroke-width:2; stroke-opacity:0.1; fill:none" points="167.977,624.744 2064.76,624.744 "/>
<polyline clip-path="url(#clip252)" style="stroke:#000000; stroke-linecap:round; stroke-linejoin:round; stroke-width:2; stroke-opacity:0.1; fill:none" points="167.977,432.034 2064.76,432.034 "/>
<polyline clip-path="url(#clip252)" style="stroke:#000000; stroke-linecap:round; stroke-linejoin:round; stroke-width:2; stroke-opacity:0.1; fill:none" points="167.977,239.323 2064.76,239.323 "/>
<polyline clip-path="url(#clip250)" style="stroke:#000000; stroke-linecap:round; stroke-linejoin:round; stroke-width:4; stroke-opacity:1; fill:none" points="167.977,1234.58 167.977,47.2441 "/>
<polyline clip-path="url(#clip250)" style="stroke:#000000; stroke-linecap:round; stroke-linejoin:round; stroke-width:4; stroke-opacity:1; fill:none" points="167.977,1202.88 186.875,1202.88 "/>
<polyline clip-path="url(#clip250)" style="stroke:#000000; stroke-linecap:round; stroke-linejoin:round; stroke-width:4; stroke-opacity:1; fill:none" points="167.977,1010.17 186.875,1010.17 "/>
<polyline clip-path="url(#clip250)" style="stroke:#000000; stroke-linecap:round; stroke-linejoin:round; stroke-width:4; stroke-opacity:1; fill:none" points="167.977,817.455 186.875,817.455 "/>
<polyline clip-path="url(#clip250)" style="stroke:#000000; stroke-linecap:round; stroke-linejoin:round; stroke-width:4; stroke-opacity:1; fill:none" points="167.977,624.744 186.875,624.744 "/>
<polyline clip-path="url(#clip250)" style="stroke:#000000; stroke-linecap:round; stroke-linejoin:round; stroke-width:4; stroke-opacity:1; fill:none" points="167.977,432.034 186.875,432.034 "/>
<polyline clip-path="url(#clip250)" style="stroke:#000000; stroke-linecap:round; stroke-linejoin:round; stroke-width:4; stroke-opacity:1; fill:none" points="167.977,239.323 186.875,239.323 "/>
<path clip-path="url(#clip250)" d="M124.353 1188.67 Q120.742 1188.67 118.913 1192.24 Q117.108 1195.78 117.108 1202.91 Q117.108 1210.02 118.913 1213.58 Q120.742 1217.12 124.353 1217.12 Q127.987 1217.12 129.793 1213.58 Q131.622 1210.02 131.622 1202.91 Q131.622 1195.78 129.793 1192.24 Q127.987 1188.67 124.353 1188.67 M124.353 1184.97 Q130.163 1184.97 133.219 1189.58 Q136.297 1194.16 136.297 1202.91 Q136.297 1211.64 133.219 1216.24 Q130.163 1220.83 124.353 1220.83 Q118.543 1220.83 115.464 1216.24 Q112.409 1211.64 112.409 1202.91 Q112.409 1194.16 115.464 1189.58 Q118.543 1184.97 124.353 1184.97 Z" fill="#000000" fill-rule="nonzero" fill-opacity="1" /><path clip-path="url(#clip250)" d="M84.2375 992.885 L102.594 992.885 L102.594 996.82 L88.5199 996.82 L88.5199 1005.29 Q89.5384 1004.95 90.5569 1004.78 Q91.5754 1004.6 92.5939 1004.6 Q98.381 1004.6 101.761 1007.77 Q105.14 1010.94 105.14 1016.36 Q105.14 1021.94 101.668 1025.04 Q98.1958 1028.12 91.8764 1028.12 Q89.7004 1028.12 87.4319 1027.75 Q85.1866 1027.38 82.7792 1026.64 L82.7792 1021.94 Q84.8625 1023.07 87.0847 1023.63 Q89.3069 1024.18 91.7838 1024.18 Q95.7884 1024.18 98.1263 1022.07 Q100.464 1019.97 100.464 1016.36 Q100.464 1012.75 98.1263 1010.64 Q95.7884 1008.53 91.7838 1008.53 Q89.9088 1008.53 88.0338 1008.95 Q86.1819 1009.37 84.2375 1010.25 L84.2375 992.885 Z" fill="#000000" fill-rule="nonzero" fill-opacity="1" /><path clip-path="url(#clip250)" d="M124.353 995.964 Q120.742 995.964 118.913 999.529 Q117.108 1003.07 117.108 1010.2 Q117.108 1017.31 118.913 1020.87 Q120.742 1024.41 124.353 1024.41 Q127.987 1024.41 129.793 1020.87 Q131.622 1017.31 131.622 1010.2 Q131.622 1003.07 129.793 999.529 Q127.987 995.964 124.353 995.964 M124.353 992.26 Q130.163 992.26 133.219 996.867 Q136.297 1001.45 136.297 1010.2 Q136.297 1018.93 133.219 1023.53 Q130.163 1028.12 124.353 1028.12 Q118.543 1028.12 115.464 1023.53 Q112.409 1018.93 112.409 1010.2 Q112.409 1001.45 115.464 996.867 Q118.543 992.26 124.353 992.26 Z" fill="#000000" fill-rule="nonzero" fill-opacity="1" /><path clip-path="url(#clip250)" d="M54.8395 830.8 L62.4784 830.8 L62.4784 804.434 L54.1682 806.101 L54.1682 801.841 L62.4321 800.175 L67.108 800.175 L67.108 830.8 L74.7468 830.8 L74.7468 834.735 L54.8395 834.735 L54.8395 830.8 Z" fill="#000000" fill-rule="nonzero" fill-opacity="1" /><path clip-path="url(#clip250)" d="M94.1912 803.253 Q90.5801 803.253 88.7514 806.818 Q86.9458 810.36 86.9458 817.489 Q86.9458 824.596 88.7514 828.161 Q90.5801 831.702 94.1912 831.702 Q97.8254 831.702 99.6309 828.161 Q101.46 824.596 101.46 817.489 Q101.46 810.36 99.6309 806.818 Q97.8254 803.253 94.1912 803.253 M94.1912 799.55 Q100.001 799.55 103.057 804.156 Q106.136 808.74 106.136 817.489 Q106.136 826.216 103.057 830.823 Q100.001 835.406 94.1912 835.406 Q88.381 835.406 85.3023 830.823 Q82.2468 826.216 82.2468 817.489 Q82.2468 808.74 85.3023 804.156 Q88.381 799.55 94.1912 799.55 Z" fill="#000000" fill-rule="nonzero" fill-opacity="1" /><path clip-path="url(#clip250)" d="M124.353 803.253 Q120.742 803.253 118.913 806.818 Q117.108 810.36 117.108 817.489 Q117.108 824.596 118.913 828.161 Q120.742 831.702 124.353 831.702 Q127.987 831.702 129.793 828.161 Q131.622 824.596 131.622 817.489 Q131.622 810.36 129.793 806.818 Q127.987 803.253 124.353 803.253 M124.353 799.55 Q130.163 799.55 133.219 804.156 Q136.297 808.74 136.297 817.489 Q136.297 826.216 133.219 830.823 Q130.163 835.406 124.353 835.406 Q118.543 835.406 115.464 830.823 Q112.409 826.216 112.409 817.489 Q112.409 808.74 115.464 804.156 Q118.543 799.55 124.353 799.55 Z" fill="#000000" fill-rule="nonzero" fill-opacity="1" /><path clip-path="url(#clip250)" d="M54.8395 638.089 L62.4784 638.089 L62.4784 611.723 L54.1682 613.39 L54.1682 609.131 L62.4321 607.464 L67.108 607.464 L67.108 638.089 L74.7468 638.089 L74.7468 642.024 L54.8395 642.024 L54.8395 638.089 Z" fill="#000000" fill-rule="nonzero" fill-opacity="1" /><path clip-path="url(#clip250)" d="M84.2375 607.464 L102.594 607.464 L102.594 611.399 L88.5199 611.399 L88.5199 619.872 Q89.5384 619.524 90.5569 619.362 Q91.5754 619.177 92.5939 619.177 Q98.381 619.177 101.761 622.348 Q105.14 625.52 105.14 630.936 Q105.14 636.515 101.668 639.617 Q98.1958 642.696 91.8764 642.696 Q89.7004 642.696 87.4319 642.325 Q85.1866 641.955 82.7792 641.214 L82.7792 636.515 Q84.8625 637.649 87.0847 638.205 Q89.3069 638.76 91.7838 638.76 Q95.7884 638.76 98.1263 636.654 Q100.464 634.547 100.464 630.936 Q100.464 627.325 98.1263 625.219 Q95.7884 623.112 91.7838 623.112 Q89.9088 623.112 88.0338 623.529 Q86.1819 623.946 84.2375 624.825 L84.2375 607.464 Z" fill="#000000" fill-rule="nonzero" fill-opacity="1" /><path clip-path="url(#clip250)" d="M124.353 610.543 Q120.742 610.543 118.913 614.108 Q117.108 617.649 117.108 624.779 Q117.108 631.885 118.913 635.45 Q120.742 638.992 124.353 638.992 Q127.987 638.992 129.793 635.45 Q131.622 631.885 131.622 624.779 Q131.622 617.649 129.793 614.108 Q127.987 610.543 124.353 610.543 M124.353 606.839 Q130.163 606.839 133.219 611.446 Q136.297 616.029 136.297 624.779 Q136.297 633.506 133.219 638.112 Q130.163 642.696 124.353 642.696 Q118.543 642.696 115.464 638.112 Q112.409 633.506 112.409 624.779 Q112.409 616.029 115.464 611.446 Q118.543 606.839 124.353 606.839 Z" fill="#000000" fill-rule="nonzero" fill-opacity="1" /><path clip-path="url(#clip250)" d="M58.0571 445.379 L74.3765 445.379 L74.3765 449.314 L52.4321 449.314 L52.4321 445.379 Q55.0941 442.624 59.6775 437.994 Q64.2839 433.342 65.4645 431.999 Q67.7098 429.476 68.5894 427.74 Q69.4922 425.981 69.4922 424.291 Q69.4922 421.536 67.5478 419.8 Q65.6265 418.064 62.5247 418.064 Q60.3256 418.064 57.8719 418.828 Q55.4414 419.592 52.6636 421.143 L52.6636 416.42 Q55.4877 415.286 57.9414 414.707 Q60.395 414.129 62.4321 414.129 Q67.8024 414.129 70.9968 416.814 Q74.1913 419.499 74.1913 423.99 Q74.1913 426.119 73.3811 428.041 Q72.5941 429.939 70.4876 432.531 Q69.9089 433.203 66.807 436.42 Q63.7052 439.615 58.0571 445.379 Z" fill="#000000" fill-rule="nonzero" fill-opacity="1" /><path clip-path="url(#clip250)" d="M94.1912 417.832 Q90.5801 417.832 88.7514 421.397 Q86.9458 424.939 86.9458 432.068 Q86.9458 439.175 88.7514 442.74 Q90.5801 446.281 94.1912 446.281 Q97.8254 446.281 99.6309 442.74 Q101.46 439.175 101.46 432.068 Q101.46 424.939 99.6309 421.397 Q97.8254 417.832 94.1912 417.832 M94.1912 414.129 Q100.001 414.129 103.057 418.735 Q106.136 423.318 106.136 432.068 Q106.136 440.795 103.057 445.402 Q100.001 449.985 94.1912 449.985 Q88.381 449.985 85.3023 445.402 Q82.2468 440.795 82.2468 432.068 Q82.2468 423.318 85.3023 418.735 Q88.381 414.129 94.1912 414.129 Z" fill="#000000" fill-rule="nonzero" fill-opacity="1" /><path clip-path="url(#clip250)" d="M124.353 417.832 Q120.742 417.832 118.913 421.397 Q117.108 424.939 117.108 432.068 Q117.108 439.175 118.913 442.74 Q120.742 446.281 124.353 446.281 Q127.987 446.281 129.793 442.74 Q131.622 439.175 131.622 432.068 Q131.622 424.939 129.793 421.397 Q127.987 417.832 124.353 417.832 M124.353 414.129 Q130.163 414.129 133.219 418.735 Q136.297 423.318 136.297 432.068 Q136.297 440.795 133.219 445.402 Q130.163 449.985 124.353 449.985 Q118.543 449.985 115.464 445.402 Q112.409 440.795 112.409 432.068 Q112.409 423.318 115.464 418.735 Q118.543 414.129 124.353 414.129 Z" fill="#000000" fill-rule="nonzero" fill-opacity="1" /><path clip-path="url(#clip250)" d="M58.0571 252.668 L74.3765 252.668 L74.3765 256.603 L52.4321 256.603 L52.4321 252.668 Q55.0941 249.913 59.6775 245.284 Q64.2839 240.631 65.4645 239.288 Q67.7098 236.765 68.5894 235.029 Q69.4922 233.27 69.4922 231.58 Q69.4922 228.826 67.5478 227.089 Q65.6265 225.353 62.5247 225.353 Q60.3256 225.353 57.8719 226.117 Q55.4414 226.881 52.6636 228.432 L52.6636 223.71 Q55.4877 222.576 57.9414 221.997 Q60.395 221.418 62.4321 221.418 Q67.8024 221.418 70.9968 224.103 Q74.1913 226.789 74.1913 231.279 Q74.1913 233.409 73.3811 235.33 Q72.5941 237.228 70.4876 239.821 Q69.9089 240.492 66.807 243.71 Q63.7052 246.904 58.0571 252.668 Z" fill="#000000" fill-rule="nonzero" fill-opacity="1" /><path clip-path="url(#clip250)" d="M84.2375 222.043 L102.594 222.043 L102.594 225.978 L88.5199 225.978 L88.5199 234.451 Q89.5384 234.103 90.5569 233.941 Q91.5754 233.756 92.5939 233.756 Q98.381 233.756 101.761 236.927 Q105.14 240.099 105.14 245.515 Q105.14 251.094 101.668 254.196 Q98.1958 257.274 91.8764 257.274 Q89.7004 257.274 87.4319 256.904 Q85.1866 256.534 82.7792 255.793 L82.7792 251.094 Q84.8625 252.228 87.0847 252.784 Q89.3069 253.339 91.7838 253.339 Q95.7884 253.339 98.1263 251.233 Q100.464 249.126 100.464 245.515 Q100.464 241.904 98.1263 239.798 Q95.7884 237.691 91.7838 237.691 Q89.9088 237.691 88.0338 238.108 Q86.1819 238.525 84.2375 239.404 L84.2375 222.043 Z" fill="#000000" fill-rule="nonzero" fill-opacity="1" /><path clip-path="url(#clip250)" d="M124.353 225.122 Q120.742 225.122 118.913 228.687 Q117.108 232.228 117.108 239.358 Q117.108 246.464 118.913 250.029 Q120.742 253.571 124.353 253.571 Q127.987 253.571 129.793 250.029 Q131.622 246.464 131.622 239.358 Q131.622 232.228 129.793 228.687 Q127.987 225.122 124.353 225.122 M124.353 221.418 Q130.163 221.418 133.219 226.025 Q136.297 230.608 136.297 239.358 Q136.297 248.085 133.219 252.691 Q130.163 257.274 124.353 257.274 Q118.543 257.274 115.464 252.691 Q112.409 248.085 112.409 239.358 Q112.409 230.608 115.464 226.025 Q118.543 221.418 124.353 221.418 Z" fill="#000000" fill-rule="nonzero" fill-opacity="1" /><polyline clip-path="url(#clip252)" style="stroke:#009af9; stroke-linecap:round; stroke-linejoin:round; stroke-width:4; stroke-opacity:1; fill:none" points="221.66,1200.97 224.642,1197.9 227.625,1194.14 230.607,1192.9 233.589,1191.88 236.572,1191.69 239.554,1190.6 242.536,1189.43 245.519,1188.24 248.501,1186.54 251.483,1185.35 254.466,1183.18 257.448,1182.11 260.43,1178.45 263.413,1175.85 266.395,1172.26 269.378,1170.38 272.36,1169.77 275.342,1167.45 278.325,1166.38 281.307,1166.36 284.289,1164.16 287.272,1160.69 290.254,1157.27 293.236,1155.85 296.219,1152.17 299.201,1150.13 302.183,1149.9 305.166,1148.82 308.148,1144.97 311.131,1142.82 314.113,1141.05 317.095,1139.91 320.078,1136.26 323.06,1132.59 326.042,1132.39 329.025,1129.73 332.007,1129.43 334.989,1129.34 337.972,1126.76 340.954,1124.86 343.936,1123.13 346.919,1120.9 349.901,1117.52 352.883,1114.71 355.866,1114.56 358.848,1114.26 361.831,1114.08 364.813,1113.44 367.795,1111.52 370.778,1110.34 373.76,1107.42 376.742,1105.39 379.725,1103.3 382.707,1102.44 385.689,1101.39 388.672,1098.31 391.654,1097.94 394.636,1094.78 397.619,1093.08 400.601,1091.07 403.584,1088.33 406.566,1086.28 409.548,1085.82 412.531,1085.56 415.513,1084.44 418.495,1081.4 421.478,1081.16 424.46,1080.66 427.442,1078.62 430.425,1076.77 433.407,1073.56 436.389,1072.86 439.372,1069.34 442.354,1067.03 445.337,1064.58 448.319,1061.62 451.301,1061.41 454.284,1058.81 457.266,1058.44 460.248,1055.1 463.231,1054.92 466.213,1051.3 469.195,1049.65 472.178,1049.5 475.16,1047.92 478.142,1044.7 481.125,1043.07 484.107,1040.65 487.09,1040.14 490.072,1038.92 493.054,1036.14 496.037,1032.29 499.019,1030.43 502.001,1028.32 504.984,1027.31 507.966,1025.04 510.948,1023.3 513.931,1023.12 516.913,1023 519.895,1021.97 522.878,1020.38 525.86,1019.49 528.843,1017.17 531.825,1013.45 534.807,1012.79 537.79,1012.44 540.772,1010.22 543.754,1010.12 546.737,1009.48 549.719,1008.35 552.701,1004.77 555.684,1004.67 558.666,1003.46 561.648,1002.29 564.631,1000.01 567.613,998.854 570.595,996.581 573.578,994.175 576.56,992.155 579.543,989.881 582.525,987.592 585.507,986.074 588.49,984.839 591.472,984.612 594.454,981.311 597.437,977.51 600.419,975.627 603.401,974.074 606.384,973.458 609.366,969.863 612.348,966.06 615.331,964.313 618.313,961.554 621.296,961.07 624.278,957.394 627.26,955.732 630.243,954.357 633.225,952.304 636.207,951.701 639.19,949.999 642.172,948.164 645.154,947.126 648.137,946.559 651.119,945.64 654.101,944.519 657.084,942.48 660.066,940.07 663.049,938.59 666.031,938.084 669.013,935.424 671.996,934.592 674.978,930.821 677.96,930.428 680.943,927.641 683.925,924.516 686.907,923.127 689.89,920.436 692.872,918.928 695.854,917.684 698.837,915.082 701.819,912.508 704.802,911.056 707.784,909.69 710.766,908.068 713.749,904.94 716.731,903.272 719.713,901.488 722.696,899.841 725.678,897.838 728.66,896.117 731.643,896.072 734.625,893.814 737.607,890.643 740.59,890.356 743.572,890.087 746.555,888.007 749.537,885.732 752.519,883.771 755.502,881.447 758.484,878.636 761.466,878.077 764.449,875.88 767.431,874.038 770.413,872.627 773.396,871.628 776.378,868.35 779.36,865.65 782.343,864.824 785.325,863.599 788.307,859.945 791.29,856.581 794.272,855.7 797.255,852.376 800.237,851.686 803.219,848.187 806.202,845.184 809.184,841.532 812.166,838.171 815.149,835.669 818.131,832.482 821.113,831.085 824.096,828.703 827.078,828.61 830.06,827.689 833.043,827.639 836.025,826.58 839.008,824.981 841.99,821.18 844.972,818.407 847.955,814.854 850.937,813.315 853.919,810.416 856.902,810.09 859.884,808.513 862.866,805.867 865.849,802.579 868.831,799.943 871.813,799.332 874.796,797.832 877.778,794.286 880.761,792.352 883.743,790.442 886.725,788.596 889.708,787.996 892.69,786.279 895.672,784.439 898.655,782.021 901.637,778.437 904.619,775.724 907.602,772.067 910.584,769.666 913.566,767.213 916.549,764.67 919.531,764.152 922.514,761.739 925.496,760.278 928.478,759.951 931.461,759.611 934.443,755.985 937.425,753.052 940.408,750.699 943.39,747.611 946.372,744.48 949.355,741.383 952.337,739.282 955.319,737.999 958.302,735.833 961.284,733.561 964.266,732.524 967.249,731.665 970.231,729.513 973.214,726.129 976.196,722.943 979.178,719.856 982.161,719.077 985.143,715.959 988.125,713.164 991.108,712.112 994.09,710.853 997.072,708.186 1000.05,706.824 1003.04,705.153 1006.02,703.888 1009,702.079 1011.98,699.028 1014.97,696.063 1017.95,692.621 1020.93,688.901 1023.91,687.004 1026.9,686.061 1029.88,682.499 1032.86,679.27 1035.84,676.835 1038.83,675.181 1041.81,673.486 1044.79,672.414 1047.77,671.015 1050.75,668.343 1053.74,668.222 1056.72,666.683 1059.7,663.3 1062.68,660.476 1065.67,659.682 1068.65,657.122 1071.63,654.4 1074.61,654.274 1077.6,652.941 1080.58,650.955 1083.56,648.217 1086.54,647.522 1089.53,644.164 1092.51,643.998 1095.49,641.325 1098.47,638.697 1101.45,636.303 1104.44,636.159 1107.42,635.506 1110.4,634.691 1113.38,632.151 1116.37,630.177 1119.35,628.312 1122.33,625.488 1125.31,621.754 1128.3,621.49 1131.28,618.758 1134.26,615.436 1137.24,614.574 1140.23,613.095 1143.21,612.614 1146.19,609.209 1149.17,608.945 1152.15,606.582 1155.14,605.738 1158.12,605.609 1161.1,605.034 1164.08,602.318 1167.07,600.252 1170.05,598.286 1173.03,595.622 1176.01,594.833 1179,594.684 1181.98,590.866 1184.96,589.82 1187.94,589.679 1190.93,586.445 1193.91,583.375 1196.89,579.83 1199.87,575.977 1202.85,575.074 1205.84,573.052 1208.82,572.014 1211.8,570.227 1214.78,569.467 1217.77,568.192 1220.75,565.19 1223.73,562.747 1226.71,559.85 1229.7,559.138 1232.68,557.284 1235.66,556.716 1238.64,555.746 1241.63,555.36 1244.61,553.57 1247.59,552.796 1250.57,551.973 1253.56,549.462 1256.54,548.266 1259.52,545.014 1262.5,542.871 1265.48,540.665 1268.47,539.191 1271.45,538.77 1274.43,535.817 1277.41,533.824 1280.4,530.45 1283.38,529.357 1286.36,526.739 1289.34,524.167 1292.33,522.566 1295.31,521.458 1298.29,519.149 1301.27,516.41 1304.26,515.294 1307.24,515.088 1310.22,514.474 1313.2,512.477 1316.18,512.384 1319.17,508.909 1322.15,507.208 1325.13,503.684 1328.11,502.851 1331.1,499.631 1334.08,497.82 1337.06,495.321 1340.04,492.612 1343.03,489.395 1346.01,487.988 1348.99,487.038 1351.97,485.285 1354.96,481.685 1357.94,480.909 1360.92,479.548 1363.9,476.483 1366.88,476.329 1369.87,474.359 1372.85,473.303 1375.83,471.983 1378.81,468.158 1381.8,467.627 1384.78,465.174 1387.76,462.255 1390.74,461.548 1393.73,458.806 1396.71,457.227 1399.69,457.007 1402.67,453.324 1405.66,452.021 1408.64,449.583 1411.62,447.078 1414.6,446.278 1417.58,442.632 1420.57,441.621 1423.55,441.035 1426.53,439.459 1429.51,438.133 1432.5,435.886 1435.48,432.933 1438.46,432.923 1441.44,430.51 1444.43,427.228 1447.41,425.254 1450.39,422.782 1453.37,420.088 1456.36,417.46 1459.34,416.505 1462.32,416.31 1465.3,415.884 1468.28,413.314 1471.27,412.65 1474.25,411.298 1477.23,408.984 1480.21,406.45 1483.2,403.757 1486.18,402.345 1489.16,401.25 1492.14,397.568 1495.13,396.497 1498.11,395.73 1501.09,394.055 1504.07,392.222 1507.06,390.115 1510.04,389.815 1513.02,388.393 1516,386.447 1518.98,384.889 1521.97,382.818 1524.95,381.259 1527.93,380.513 1530.91,378.719 1533.9,375.381 1536.88,372.763 1539.86,369.499 1542.84,366.976 1545.83,366.629 1548.81,365.62 1551.79,363.516 1554.77,360.368 1557.76,359.581 1560.74,358.66 1563.72,356.199 1566.7,353.801 1569.68,351.4 1572.67,349.952 1575.65,348.549 1578.63,345.773 1581.61,345.407 1584.6,343.128 1587.58,341.945 1590.56,341.371 1593.54,338.987 1596.53,337.483 1599.51,336.418 1602.49,334.311 1605.47,330.584 1608.46,328.78 1611.44,327.794 1614.42,325.766 1617.4,325.583 1620.38,324.098 1623.37,320.32 1626.35,317.283 1629.33,313.598 1632.31,310.407 1635.3,308.075 1638.28,305.11 1641.26,302.406 1644.24,299.882 1647.23,299.575 1650.21,298.442 1653.19,295.482 1656.17,292.529 1659.16,290.74 1662.14,288.867 1665.12,285.117 1668.1,282.429 1671.08,282.359 1674.07,280.323 1677.05,280.026 1680.03,276.626 1683.01,273.796 1686,271.157 1688.98,271.09 1691.96,268.801 1694.94,266.883 1697.93,264.804 1700.91,264.699 1703.89,262.338 1706.87,260.261 1709.86,258.85 1712.84,258.562 1715.82,257.93 1718.8,255.502 1721.78,252.353 1724.77,251.619 1727.75,249.04 1730.73,246.758 1733.71,243.867 1736.7,243.386 1739.68,242.453 1742.66,241.21 1745.64,237.538 1748.63,236.434 1751.61,235.4 1754.59,233.949 1757.57,233.577 1760.56,231.159 1763.54,229.21 1766.52,227.781 1769.5,225.737 1772.49,225.614 1775.47,223.292 1778.45,220.579 1781.43,218.763 1784.41,218.054 1787.4,217.429 1790.38,214.341 1793.36,210.528 1796.34,207.664 1799.33,207.033 1802.31,206.767 1805.29,205.124 1808.27,203.933 1811.26,202.371 1814.24,200.017 1817.22,199.501 1820.2,199.129 1823.19,197.455 1826.17,195.418 1829.15,193.502 1832.13,193.269 1835.11,192.291 1838.1,189.863 1841.08,188.48 1844.06,186.302 1847.04,182.481 1850.03,181.358 1853.01,178.921 1855.99,175.438 1858.97,174.029 1861.96,173.482 1864.94,171.633 1867.92,168.999 1870.9,167.387 1873.89,165.03 1876.87,163.904 1879.85,161.176 1882.83,160.688 1885.81,160.171 1888.8,157.185 1891.78,155.004 1894.76,153.492 1897.74,151.834 1900.73,151.062 1903.71,148.616 1906.69,146.726 1909.67,146.601 1912.66,146.423 1915.64,145.312 1918.62,143.419 1921.6,140.669 1924.59,137.639 1927.57,133.962 1930.55,132.306 1933.53,128.573 1936.51,126.117 1939.5,125.099 1942.48,124.302 1945.46,122.421 1948.44,120.232 1951.43,116.928 1954.41,113.424 1957.39,111.083 1960.37,109.191 1963.36,108.294 1966.34,106.984 1969.32,103.552 1972.3,101.359 1975.29,98.1473 1978.27,96.1431 1981.25,94.2678 1984.23,92.0324 1987.21,90.8829 1990.2,90.3414 1993.18,87.1261 1996.16,86.9309 1999.14,84.5541 2002.13,84.3312 2005.11,82.3439 2008.09,81.3432 2011.07,80.8479 "/>
<path clip-path="url(#clip250)" d="M231.203 190.502 L473.311 190.502 L473.311 86.8219 L231.203 86.8219  Z" fill="#ffffff" fill-rule="evenodd" fill-opacity="1"/>
<polyline clip-path="url(#clip250)" style="stroke:#000000; stroke-linecap:round; stroke-linejoin:round; stroke-width:4; stroke-opacity:1; fill:none" points="231.203,190.502 473.311,190.502 473.311,86.8219 231.203,86.8219 231.203,190.502 "/>
<polyline clip-path="url(#clip250)" style="stroke:#009af9; stroke-linecap:round; stroke-linejoin:round; stroke-width:4; stroke-opacity:1; fill:none" points="252.279,138.662 378.731,138.662 "/>
<path clip-path="url(#clip250)" d="M413.648 158.349 Q411.843 162.979 410.13 164.391 Q408.417 165.803 405.547 165.803 L402.144 165.803 L402.144 162.238 L404.644 162.238 Q406.403 162.238 407.375 161.405 Q408.348 160.572 409.528 157.47 L410.292 155.525 L399.806 130.016 L404.32 130.016 L412.422 150.294 L420.523 130.016 L425.037 130.016 L413.648 158.349 Z" fill="#000000" fill-rule="nonzero" fill-opacity="1" /><path clip-path="url(#clip250)" d="M432.329 152.007 L439.968 152.007 L439.968 125.641 L431.658 127.308 L431.658 123.049 L439.921 121.382 L444.597 121.382 L444.597 152.007 L452.236 152.007 L452.236 155.942 L432.329 155.942 L432.329 152.007 Z" fill="#000000" fill-rule="nonzero" fill-opacity="1" /></svg>
