<?xml version="1.0" encoding="utf-8"?>
<svg xmlns="http://www.w3.org/2000/svg" xmlns:xlink="http://www.w3.org/1999/xlink" width="528" height="336" viewBox="0 0 2112 1344">
<defs>
  <clipPath id="clip150">
    <rect x="0" y="0" width="2112" height="1344"/>
  </clipPath>
</defs>
<path clip-path="url(#clip150)" d="M0 1344 L2112 1344 L2112 0 L0 0  Z" fill="#ffffff" fill-rule="evenodd" fill-opacity="1"/>
<defs>
  <clipPath id="clip151">
    <rect x="422" y="0" width="1479" height="1344"/>
  </clipPath>
</defs>
<path clip-path="url(#clip150)" d="M183.394 1234.58 L2064.76 1234.58 L2064.76 47.2441 L183.394 47.2441  Z" fill="#ffffff" fill-rule="evenodd" fill-opacity="1"/>
<defs>
  <clipPath id="clip152">
    <rect x="183" y="47" width="1882" height="1188"/>
  </clipPath>
</defs>
<polyline clip-path="url(#clip152)" style="stroke:#000000; stroke-linecap:round; stroke-linejoin:round; stroke-width:2; stroke-opacity:0.1; fill:none" points="236.64,1234.58 236.64,47.2441 "/>
<polyline clip-path="url(#clip152)" style="stroke:#000000; stroke-linecap:round; stroke-linejoin:round; stroke-width:2; stroke-opacity:0.1; fill:none" points="532.452,1234.58 532.452,47.2441 "/>
<polyline clip-path="url(#clip152)" style="stroke:#000000; stroke-linecap:round; stroke-linejoin:round; stroke-width:2; stroke-opacity:0.1; fill:none" points="828.263,1234.58 828.263,47.2441 "/>
<polyline clip-path="url(#clip152)" style="stroke:#000000; stroke-linecap:round; stroke-linejoin:round; stroke-width:2; stroke-opacity:0.1; fill:none" points="1124.07,1234.58 1124.07,47.2441 "/>
<polyline clip-path="url(#clip152)" style="stroke:#000000; stroke-linecap:round; stroke-linejoin:round; stroke-width:2; stroke-opacity:0.1; fill:none" points="1419.89,1234.58 1419.89,47.2441 "/>
<polyline clip-path="url(#clip152)" style="stroke:#000000; stroke-linecap:round; stroke-linejoin:round; stroke-width:2; stroke-opacity:0.1; fill:none" points="1715.7,1234.58 1715.7,47.2441 "/>
<polyline clip-path="url(#clip152)" style="stroke:#000000; stroke-linecap:round; stroke-linejoin:round; stroke-width:2; stroke-opacity:0.1; fill:none" points="2011.51,1234.58 2011.51,47.2441 "/>
<polyline clip-path="url(#clip150)" style="stroke:#000000; stroke-linecap:round; stroke-linejoin:round; stroke-width:4; stroke-opacity:1; fill:none" points="183.394,1234.58 2064.76,1234.58 "/>
<polyline clip-path="url(#clip150)" style="stroke:#000000; stroke-linecap:round; stroke-linejoin:round; stroke-width:4; stroke-opacity:1; fill:none" points="236.64,1234.58 236.64,1215.68 "/>
<polyline clip-path="url(#clip150)" style="stroke:#000000; stroke-linecap:round; stroke-linejoin:round; stroke-width:4; stroke-opacity:1; fill:none" points="532.452,1234.58 532.452,1215.68 "/>
<polyline clip-path="url(#clip150)" style="stroke:#000000; stroke-linecap:round; stroke-linejoin:round; stroke-width:4; stroke-opacity:1; fill:none" points="828.263,1234.58 828.263,1215.68 "/>
<polyline clip-path="url(#clip150)" style="stroke:#000000; stroke-linecap:round; stroke-linejoin:round; stroke-width:4; stroke-opacity:1; fill:none" points="1124.07,1234.58 1124.07,1215.68 "/>
<polyline clip-path="url(#clip150)" style="stroke:#000000; stroke-linecap:round; stroke-linejoin:round; stroke-width:4; stroke-opacity:1; fill:none" points="1419.89,1234.58 1419.89,1215.68 "/>
<polyline clip-path="url(#clip150)" style="stroke:#000000; stroke-linecap:round; stroke-linejoin:round; stroke-width:4; stroke-opacity:1; fill:none" points="1715.7,1234.58 1715.7,1215.68 "/>
<polyline clip-path="url(#clip150)" style="stroke:#000000; stroke-linecap:round; stroke-linejoin:round; stroke-width:4; stroke-opacity:1; fill:none" points="2011.51,1234.58 2011.51,1215.68 "/>
<path clip-path="url(#clip150)" d="M206.108 1277.85 L235.784 1277.85 L235.784 1281.78 L206.108 1281.78 L206.108 1277.85 Z" fill="#000000" fill-rule="nonzero" fill-opacity="1" /><path clip-path="url(#clip150)" d="M260.043 1276.04 Q263.399 1276.76 265.274 1279.03 Q267.172 1281.3 267.172 1284.63 Q267.172 1289.74 263.654 1292.55 Q260.135 1295.35 253.654 1295.35 Q251.478 1295.35 249.163 1294.91 Q246.872 1294.49 244.418 1293.63 L244.418 1289.12 Q246.362 1290.25 248.677 1290.83 Q250.992 1291.41 253.515 1291.41 Q257.913 1291.41 260.205 1289.67 Q262.52 1287.94 262.52 1284.63 Q262.52 1281.57 260.367 1279.86 Q258.237 1278.12 254.418 1278.12 L250.39 1278.12 L250.39 1274.28 L254.603 1274.28 Q258.052 1274.28 259.881 1272.92 Q261.709 1271.53 261.709 1268.93 Q261.709 1266.27 259.811 1264.86 Q257.936 1263.42 254.418 1263.42 Q252.496 1263.42 250.297 1263.84 Q248.098 1264.26 245.459 1265.14 L245.459 1260.97 Q248.122 1260.23 250.436 1259.86 Q252.774 1259.49 254.834 1259.49 Q260.158 1259.49 263.26 1261.92 Q266.362 1264.33 266.362 1268.45 Q266.362 1271.32 264.719 1273.31 Q263.075 1275.28 260.043 1276.04 Z" fill="#000000" fill-rule="nonzero" fill-opacity="1" /><path clip-path="url(#clip150)" d="M502.394 1277.85 L532.07 1277.85 L532.07 1281.78 L502.394 1281.78 L502.394 1277.85 Z" fill="#000000" fill-rule="nonzero" fill-opacity="1" /><path clip-path="url(#clip150)" d="M546.19 1290.74 L562.509 1290.74 L562.509 1294.67 L540.565 1294.67 L540.565 1290.74 Q543.227 1287.99 547.81 1283.36 Q552.417 1278.7 553.597 1277.36 Q555.843 1274.84 556.722 1273.1 Q557.625 1271.34 557.625 1269.65 Q557.625 1266.9 555.681 1265.16 Q553.759 1263.42 550.658 1263.42 Q548.459 1263.42 546.005 1264.19 Q543.574 1264.95 540.797 1266.5 L540.797 1261.78 Q543.621 1260.65 546.074 1260.07 Q548.528 1259.49 550.565 1259.49 Q555.935 1259.49 559.13 1262.17 Q562.324 1264.86 562.324 1269.35 Q562.324 1271.48 561.514 1273.4 Q560.727 1275.3 558.621 1277.89 Q558.042 1278.56 554.94 1281.78 Q551.838 1284.98 546.19 1290.74 Z" fill="#000000" fill-rule="nonzero" fill-opacity="1" /><path clip-path="url(#clip150)" d="M798.02 1277.85 L827.696 1277.85 L827.696 1281.78 L798.02 1281.78 L798.02 1277.85 Z" fill="#000000" fill-rule="nonzero" fill-opacity="1" /><path clip-path="url(#clip150)" d="M838.599 1290.74 L846.238 1290.74 L846.238 1264.37 L837.928 1266.04 L837.928 1261.78 L846.191 1260.11 L850.867 1260.11 L850.867 1290.74 L858.506 1290.74 L858.506 1294.67 L838.599 1294.67 L838.599 1290.74 Z" fill="#000000" fill-rule="nonzero" fill-opacity="1" /><path clip-path="url(#clip150)" d="M1124.07 1263.19 Q1120.46 1263.19 1118.64 1266.76 Q1116.83 1270.3 1116.83 1277.43 Q1116.83 1284.54 1118.64 1288.1 Q1120.46 1291.64 1124.07 1291.64 Q1127.71 1291.64 1129.51 1288.1 Q1131.34 1284.54 1131.34 1277.43 Q1131.34 1270.3 1129.51 1266.76 Q1127.71 1263.19 1124.07 1263.19 M1124.07 1259.49 Q1129.89 1259.49 1132.94 1264.1 Q1136.02 1268.68 1136.02 1277.43 Q1136.02 1286.16 1132.94 1290.76 Q1129.89 1295.35 1124.07 1295.35 Q1118.26 1295.35 1115.19 1290.76 Q1112.13 1286.16 1112.13 1277.43 Q1112.13 1268.68 1115.19 1264.1 Q1118.26 1259.49 1124.07 1259.49 Z" fill="#000000" fill-rule="nonzero" fill-opacity="1" /><path clip-path="url(#clip150)" d="M1410.27 1290.74 L1417.91 1290.74 L1417.91 1264.37 L1409.6 1266.04 L1409.6 1261.78 L1417.86 1260.11 L1422.54 1260.11 L1422.54 1290.74 L1430.18 1290.74 L1430.18 1294.67 L1410.27 1294.67 L1410.27 1290.74 Z" fill="#000000" fill-rule="nonzero" fill-opacity="1" /><path clip-path="url(#clip150)" d="M1710.35 1290.74 L1726.67 1290.74 L1726.67 1294.67 L1704.73 1294.67 L1704.73 1290.74 Q1707.39 1287.99 1711.97 1283.36 Q1716.58 1278.7 1717.76 1277.36 Q1720 1274.84 1720.88 1273.1 Q1721.79 1271.34 1721.79 1269.65 Q1721.79 1266.9 1719.84 1265.16 Q1717.92 1263.42 1714.82 1263.42 Q1712.62 1263.42 1710.17 1264.19 Q1707.74 1264.95 1704.96 1266.5 L1704.96 1261.78 Q1707.78 1260.65 1710.24 1260.07 Q1712.69 1259.49 1714.73 1259.49 Q1720.1 1259.49 1723.29 1262.17 Q1726.49 1264.86 1726.49 1269.35 Q1726.49 1271.48 1725.67 1273.4 Q1724.89 1275.3 1722.78 1277.89 Q1722.2 1278.56 1719.1 1281.78 Q1716 1284.98 1710.35 1290.74 Z" fill="#000000" fill-rule="nonzero" fill-opacity="1" /><path clip-path="url(#clip150)" d="M2015.76 1276.04 Q2019.11 1276.76 2020.99 1279.03 Q2022.89 1281.3 2022.89 1284.63 Q2022.89 1289.74 2019.37 1292.55 Q2015.85 1295.35 2009.37 1295.35 Q2007.19 1295.35 2004.88 1294.91 Q2002.59 1294.49 2000.13 1293.63 L2000.13 1289.12 Q2002.08 1290.25 2004.39 1290.83 Q2006.71 1291.41 2009.23 1291.41 Q2013.63 1291.41 2015.92 1289.67 Q2018.23 1287.94 2018.23 1284.63 Q2018.23 1281.57 2016.08 1279.86 Q2013.95 1278.12 2010.13 1278.12 L2006.1 1278.12 L2006.1 1274.28 L2010.32 1274.28 Q2013.77 1274.28 2015.6 1272.92 Q2017.42 1271.53 2017.42 1268.93 Q2017.42 1266.27 2015.53 1264.86 Q2013.65 1263.42 2010.13 1263.42 Q2008.21 1263.42 2006.01 1263.84 Q2003.81 1264.26 2001.17 1265.14 L2001.17 1260.97 Q2003.84 1260.23 2006.15 1259.86 Q2008.49 1259.49 2010.55 1259.49 Q2015.87 1259.49 2018.98 1261.92 Q2022.08 1264.33 2022.08 1268.45 Q2022.08 1271.32 2020.43 1273.31 Q2018.79 1275.28 2015.76 1276.04 Z" fill="#000000" fill-rule="nonzero" fill-opacity="1" /><polyline clip-path="url(#clip152)" style="stroke:#000000; stroke-linecap:round; stroke-linejoin:round; stroke-width:2; stroke-opacity:0.1; fill:none" points="183.394,1201.27 2064.76,1201.27 "/>
<polyline clip-path="url(#clip152)" style="stroke:#000000; stroke-linecap:round; stroke-linejoin:round; stroke-width:2; stroke-opacity:0.1; fill:none" points="183.394,920.514 2064.76,920.514 "/>
<polyline clip-path="url(#clip152)" style="stroke:#000000; stroke-linecap:round; stroke-linejoin:round; stroke-width:2; stroke-opacity:0.1; fill:none" points="183.394,639.762 2064.76,639.762 "/>
<polyline clip-path="url(#clip152)" style="stroke:#000000; stroke-linecap:round; stroke-linejoin:round; stroke-width:2; stroke-opacity:0.1; fill:none" points="183.394,359.009 2064.76,359.009 "/>
<polyline clip-path="url(#clip152)" style="stroke:#000000; stroke-linecap:round; stroke-linejoin:round; stroke-width:2; stroke-opacity:0.1; fill:none" points="183.394,78.2562 2064.76,78.2562 "/>
<polyline clip-path="url(#clip150)" style="stroke:#000000; stroke-linecap:round; stroke-linejoin:round; stroke-width:4; stroke-opacity:1; fill:none" points="183.394,1234.58 183.394,47.2441 "/>
<polyline clip-path="url(#clip150)" style="stroke:#000000; stroke-linecap:round; stroke-linejoin:round; stroke-width:4; stroke-opacity:1; fill:none" points="183.394,1201.27 202.292,1201.27 "/>
<polyline clip-path="url(#clip150)" style="stroke:#000000; stroke-linecap:round; stroke-linejoin:round; stroke-width:4; stroke-opacity:1; fill:none" points="183.394,920.514 202.292,920.514 "/>
<polyline clip-path="url(#clip150)" style="stroke:#000000; stroke-linecap:round; stroke-linejoin:round; stroke-width:4; stroke-opacity:1; fill:none" points="183.394,639.762 202.292,639.762 "/>
<polyline clip-path="url(#clip150)" style="stroke:#000000; stroke-linecap:round; stroke-linejoin:round; stroke-width:4; stroke-opacity:1; fill:none" points="183.394,359.009 202.292,359.009 "/>
<polyline clip-path="url(#clip150)" style="stroke:#000000; stroke-linecap:round; stroke-linejoin:round; stroke-width:4; stroke-opacity:1; fill:none" points="183.394,78.2562 202.292,78.2562 "/>
<path clip-path="url(#clip150)" d="M64.3765 1187.07 Q60.7654 1187.07 58.9367 1190.63 Q57.1312 1194.17 57.1312 1201.3 Q57.1312 1208.41 58.9367 1211.97 Q60.7654 1215.51 64.3765 1215.51 Q68.0107 1215.51 69.8163 1211.97 Q71.645 1208.41 71.645 1201.3 Q71.645 1194.17 69.8163 1190.63 Q68.0107 1187.07 64.3765 1187.07 M64.3765 1183.36 Q70.1867 1183.36 73.2422 1187.97 Q76.3209 1192.55 76.3209 1201.3 Q76.3209 1210.03 73.2422 1214.64 Q70.1867 1219.22 64.3765 1219.22 Q58.5664 1219.22 55.4877 1214.64 Q52.4321 1210.03 52.4321 1201.3 Q52.4321 1192.55 55.4877 1187.97 Q58.5664 1183.36 64.3765 1183.36 Z" fill="#000000" fill-rule="nonzero" fill-opacity="1" /><path clip-path="url(#clip150)" d="M84.5384 1212.67 L89.4227 1212.67 L89.4227 1218.55 L84.5384 1218.55 L84.5384 1212.67 Z" fill="#000000" fill-rule="nonzero" fill-opacity="1" /><path clip-path="url(#clip150)" d="M109.608 1187.07 Q105.997 1187.07 104.168 1190.63 Q102.362 1194.17 102.362 1201.3 Q102.362 1208.41 104.168 1211.97 Q105.997 1215.51 109.608 1215.51 Q113.242 1215.51 115.048 1211.97 Q116.876 1208.41 116.876 1201.3 Q116.876 1194.17 115.048 1190.63 Q113.242 1187.07 109.608 1187.07 M109.608 1183.36 Q115.418 1183.36 118.473 1187.97 Q121.552 1192.55 121.552 1201.3 Q121.552 1210.03 118.473 1214.64 Q115.418 1219.22 109.608 1219.22 Q103.798 1219.22 100.719 1214.64 Q97.6634 1210.03 97.6634 1201.3 Q97.6634 1192.55 100.719 1187.97 Q103.798 1183.36 109.608 1183.36 Z" fill="#000000" fill-rule="nonzero" fill-opacity="1" /><path clip-path="url(#clip150)" d="M139.77 1187.07 Q136.159 1187.07 134.33 1190.63 Q132.524 1194.17 132.524 1201.3 Q132.524 1208.41 134.33 1211.97 Q136.159 1215.51 139.77 1215.51 Q143.404 1215.51 145.209 1211.97 Q147.038 1208.41 147.038 1201.3 Q147.038 1194.17 145.209 1190.63 Q143.404 1187.07 139.77 1187.07 M139.77 1183.36 Q145.58 1183.36 148.635 1187.97 Q151.714 1192.55 151.714 1201.3 Q151.714 1210.03 148.635 1214.64 Q145.58 1219.22 139.77 1219.22 Q133.959 1219.22 130.881 1214.64 Q127.825 1210.03 127.825 1201.3 Q127.825 1192.55 130.881 1187.97 Q133.959 1183.36 139.77 1183.36 Z" fill="#000000" fill-rule="nonzero" fill-opacity="1" /><path clip-path="url(#clip150)" d="M65.3719 906.313 Q61.7608 906.313 59.9321 909.878 Q58.1265 913.42 58.1265 920.549 Q58.1265 927.656 59.9321 931.22 Q61.7608 934.762 65.3719 934.762 Q69.0061 934.762 70.8117 931.22 Q72.6404 927.656 72.6404 920.549 Q72.6404 913.42 70.8117 909.878 Q69.0061 906.313 65.3719 906.313 M65.3719 902.609 Q71.182 902.609 74.2376 907.216 Q77.3163 911.799 77.3163 920.549 Q77.3163 929.276 74.2376 933.882 Q71.182 938.466 65.3719 938.466 Q59.5617 938.466 56.483 933.882 Q53.4275 929.276 53.4275 920.549 Q53.4275 911.799 56.483 907.216 Q59.5617 902.609 65.3719 902.609 Z" fill="#000000" fill-rule="nonzero" fill-opacity="1" /><path clip-path="url(#clip150)" d="M85.5338 931.915 L90.418 931.915 L90.418 937.794 L85.5338 937.794 L85.5338 931.915 Z" fill="#000000" fill-rule="nonzero" fill-opacity="1" /><path clip-path="url(#clip150)" d="M104.631 933.859 L120.95 933.859 L120.95 937.794 L99.006 937.794 L99.006 933.859 Q101.668 931.105 106.251 926.475 Q110.858 921.822 112.038 920.48 Q114.284 917.957 115.163 916.22 Q116.066 914.461 116.066 912.771 Q116.066 910.017 114.122 908.281 Q112.2 906.545 109.098 906.545 Q106.899 906.545 104.446 907.308 Q102.015 908.072 99.2374 909.623 L99.2374 904.901 Q102.061 903.767 104.515 903.188 Q106.969 902.609 109.006 902.609 Q114.376 902.609 117.571 905.295 Q120.765 907.98 120.765 912.47 Q120.765 914.6 119.955 916.521 Q119.168 918.419 117.061 921.012 Q116.483 921.683 113.381 924.901 Q110.279 928.095 104.631 933.859 Z" fill="#000000" fill-rule="nonzero" fill-opacity="1" /><path clip-path="url(#clip150)" d="M130.811 903.234 L149.168 903.234 L149.168 907.17 L135.094 907.17 L135.094 915.642 Q136.112 915.294 137.131 915.132 Q138.149 914.947 139.168 914.947 Q144.955 914.947 148.334 918.119 Q151.714 921.29 151.714 926.706 Q151.714 932.285 148.242 935.387 Q144.77 938.466 138.45 938.466 Q136.274 938.466 134.006 938.095 Q131.76 937.725 129.353 936.984 L129.353 932.285 Q131.436 933.419 133.659 933.975 Q135.881 934.53 138.358 934.53 Q142.362 934.53 144.7 932.424 Q147.038 930.318 147.038 926.706 Q147.038 923.095 144.7 920.989 Q142.362 918.882 138.358 918.882 Q136.483 918.882 134.608 919.299 Q132.756 919.716 130.811 920.595 L130.811 903.234 Z" fill="#000000" fill-rule="nonzero" fill-opacity="1" /><path clip-path="url(#clip150)" d="M64.3765 625.56 Q60.7654 625.56 58.9367 629.125 Q57.1312 632.667 57.1312 639.796 Q57.1312 646.903 58.9367 650.468 Q60.7654 654.009 64.3765 654.009 Q68.0107 654.009 69.8163 650.468 Q71.645 646.903 71.645 639.796 Q71.645 632.667 69.8163 629.125 Q68.0107 625.56 64.3765 625.56 M64.3765 621.857 Q70.1867 621.857 73.2422 626.463 Q76.3209 631.046 76.3209 639.796 Q76.3209 648.523 73.2422 653.13 Q70.1867 657.713 64.3765 657.713 Q58.5664 657.713 55.4877 653.13 Q52.4321 648.523 52.4321 639.796 Q52.4321 631.046 55.4877 626.463 Q58.5664 621.857 64.3765 621.857 Z" fill="#000000" fill-rule="nonzero" fill-opacity="1" /><path clip-path="url(#clip150)" d="M84.5384 651.162 L89.4227 651.162 L89.4227 657.042 L84.5384 657.042 L84.5384 651.162 Z" fill="#000000" fill-rule="nonzero" fill-opacity="1" /><path clip-path="url(#clip150)" d="M99.6541 622.482 L118.01 622.482 L118.01 626.417 L103.936 626.417 L103.936 634.889 Q104.955 634.542 105.974 634.38 Q106.992 634.195 108.011 634.195 Q113.798 634.195 117.177 637.366 Q120.557 640.537 120.557 645.954 Q120.557 651.532 117.085 654.634 Q113.612 657.713 107.293 657.713 Q105.117 657.713 102.849 657.343 Q100.603 656.972 98.1958 656.231 L98.1958 651.532 Q100.279 652.667 102.501 653.222 Q104.724 653.778 107.2 653.778 Q111.205 653.778 113.543 651.671 Q115.881 649.565 115.881 645.954 Q115.881 642.343 113.543 640.236 Q111.205 638.13 107.2 638.13 Q105.325 638.13 103.45 638.546 Q101.599 638.963 99.6541 639.843 L99.6541 622.482 Z" fill="#000000" fill-rule="nonzero" fill-opacity="1" /><path clip-path="url(#clip150)" d="M139.77 625.56 Q136.159 625.56 134.33 629.125 Q132.524 632.667 132.524 639.796 Q132.524 646.903 134.33 650.468 Q136.159 654.009 139.77 654.009 Q143.404 654.009 145.209 650.468 Q147.038 646.903 147.038 639.796 Q147.038 632.667 145.209 629.125 Q143.404 625.56 139.77 625.56 M139.77 621.857 Q145.58 621.857 148.635 626.463 Q151.714 631.046 151.714 639.796 Q151.714 648.523 148.635 653.13 Q145.58 657.713 139.77 657.713 Q133.959 657.713 130.881 653.13 Q127.825 648.523 127.825 639.796 Q127.825 631.046 130.881 626.463 Q133.959 621.857 139.77 621.857 Z" fill="#000000" fill-rule="nonzero" fill-opacity="1" /><path clip-path="url(#clip150)" d="M65.3719 344.808 Q61.7608 344.808 59.9321 348.372 Q58.1265 351.914 58.1265 359.044 Q58.1265 366.15 59.9321 369.715 Q61.7608 373.257 65.3719 373.257 Q69.0061 373.257 70.8117 369.715 Q72.6404 366.15 72.6404 359.044 Q72.6404 351.914 70.8117 348.372 Q69.0061 344.808 65.3719 344.808 M65.3719 341.104 Q71.182 341.104 74.2376 345.71 Q77.3163 350.294 77.3163 359.044 Q77.3163 367.77 74.2376 372.377 Q71.182 376.96 65.3719 376.96 Q59.5617 376.96 56.483 372.377 Q53.4275 367.77 53.4275 359.044 Q53.4275 350.294 56.483 345.71 Q59.5617 341.104 65.3719 341.104 Z" fill="#000000" fill-rule="nonzero" fill-opacity="1" /><path clip-path="url(#clip150)" d="M85.5338 370.409 L90.418 370.409 L90.418 376.289 L85.5338 376.289 L85.5338 370.409 Z" fill="#000000" fill-rule="nonzero" fill-opacity="1" /><path clip-path="url(#clip150)" d="M99.4226 341.729 L121.645 341.729 L121.645 343.72 L109.098 376.289 L104.214 376.289 L116.02 345.664 L99.4226 345.664 L99.4226 341.729 Z" fill="#000000" fill-rule="nonzero" fill-opacity="1" /><path clip-path="url(#clip150)" d="M130.811 341.729 L149.168 341.729 L149.168 345.664 L135.094 345.664 L135.094 354.136 Q136.112 353.789 137.131 353.627 Q138.149 353.442 139.168 353.442 Q144.955 353.442 148.334 356.613 Q151.714 359.784 151.714 365.201 Q151.714 370.78 148.242 373.882 Q144.77 376.96 138.45 376.96 Q136.274 376.96 134.006 376.59 Q131.76 376.22 129.353 375.479 L129.353 370.78 Q131.436 371.914 133.659 372.47 Q135.881 373.025 138.358 373.025 Q142.362 373.025 144.7 370.919 Q147.038 368.812 147.038 365.201 Q147.038 361.59 144.7 359.483 Q142.362 357.377 138.358 357.377 Q136.483 357.377 134.608 357.794 Q132.756 358.21 130.811 359.09 L130.811 341.729 Z" fill="#000000" fill-rule="nonzero" fill-opacity="1" /><path clip-path="url(#clip150)" d="M55.1867 91.6011 L62.8256 91.6011 L62.8256 65.2355 L54.5154 66.9021 L54.5154 62.6429 L62.7793 60.9762 L67.4552 60.9762 L67.4552 91.6011 L75.094 91.6011 L75.094 95.5362 L55.1867 95.5362 L55.1867 91.6011 Z" fill="#000000" fill-rule="nonzero" fill-opacity="1" /><path clip-path="url(#clip150)" d="M84.5384 89.6566 L89.4227 89.6566 L89.4227 95.5362 L84.5384 95.5362 L84.5384 89.6566 Z" fill="#000000" fill-rule="nonzero" fill-opacity="1" /><path clip-path="url(#clip150)" d="M109.608 64.0549 Q105.997 64.0549 104.168 67.6197 Q102.362 71.1614 102.362 78.291 Q102.362 85.3974 104.168 88.9622 Q105.997 92.5038 109.608 92.5038 Q113.242 92.5038 115.048 88.9622 Q116.876 85.3974 116.876 78.291 Q116.876 71.1614 115.048 67.6197 Q113.242 64.0549 109.608 64.0549 M109.608 60.3512 Q115.418 60.3512 118.473 64.9577 Q121.552 69.541 121.552 78.291 Q121.552 87.0178 118.473 91.6242 Q115.418 96.2075 109.608 96.2075 Q103.798 96.2075 100.719 91.6242 Q97.6634 87.0178 97.6634 78.291 Q97.6634 69.541 100.719 64.9577 Q103.798 60.3512 109.608 60.3512 Z" fill="#000000" fill-rule="nonzero" fill-opacity="1" /><path clip-path="url(#clip150)" d="M139.77 64.0549 Q136.159 64.0549 134.33 67.6197 Q132.524 71.1614 132.524 78.291 Q132.524 85.3974 134.33 88.9622 Q136.159 92.5038 139.77 92.5038 Q143.404 92.5038 145.209 88.9622 Q147.038 85.3974 147.038 78.291 Q147.038 71.1614 145.209 67.6197 Q143.404 64.0549 139.77 64.0549 M139.77 60.3512 Q145.58 60.3512 148.635 64.9577 Q151.714 69.541 151.714 78.291 Q151.714 87.0178 148.635 91.6242 Q145.58 96.2075 139.77 96.2075 Q133.959 96.2075 130.881 91.6242 Q127.825 87.0178 127.825 78.291 Q127.825 69.541 130.881 64.9577 Q133.959 60.3512 139.77 60.3512 Z" fill="#000000" fill-rule="nonzero" fill-opacity="1" /><polyline clip-path="url(#clip152)" style="stroke:#009af9; stroke-linecap:round; stroke-linejoin:round; stroke-width:4; stroke-opacity:1; fill:none" points="236.64,827.242 239.598,850.962 242.556,236.572 245.514,945.96 248.473,428.024 251.431,767.251 254.389,181.975 257.347,370.589 260.305,147.529 263.263,1057.29 266.221,141.399 269.179,688.324 272.137,1078.72 275.096,983.556 278.054,1127.17 281.012,596.157 283.97,603.242 286.928,740.018 289.886,117.64 292.844,649.704 295.802,365.524 298.761,268.053 301.719,840.531 304.677,223.089 307.635,327.501 310.593,482.162 313.551,259.012 316.509,756.215 319.467,1096.89 322.425,984.486 325.384,123.449 328.342,804.003 331.3,764.897 334.258,590.92 337.216,1110.74 340.174,451.618 343.132,495.524 346.09,370.13 349.049,184.978 352.007,978.1 354.965,540.177 357.923,1128.08 360.881,877.498 363.839,605.025 366.797,129.47 369.755,1197.1 372.713,1008.63 375.672,386.133 378.63,743.186 381.588,250.34 384.546,678.936 387.504,332.186 390.462,365.1 393.42,443.879 396.378,90.4157 399.336,472.739 402.295,519.965 405.253,146.576 408.211,488.637 411.169,413.76 414.127,845.296 417.085,817.315 420.043,1200.97 423.001,1103.81 425.96,963.547 428.918,193.136 431.876,706.825 434.834,758.427 437.792,935.087 440.75,717.944 443.708,522.341 446.666,661.624 449.624,287.152 452.583,886.952 455.541,960.331 458.499,1131.56 461.457,396.294 464.415,1178.82 467.373,360.997 470.331,735.053 473.289,1159.08 476.248,1074.49 479.206,790.664 482.164,932.221 485.122,1009.46 488.08,816.787 491.038,906.813 493.996,590.95 496.954,365.69 499.912,1026.9 502.871,575.127 505.829,1190.43 508.787,627.836 511.745,562.505 514.703,469.499 517.661,262.071 520.619,399.682 523.577,697.669 526.535,907.852 529.494,734.597 532.452,390.102 535.41,80.8479 538.368,548.902 541.326,466.41 544.284,1114.59 547.242,139.968 550.2,450.365 553.159,708.24 556.117,198.949 559.075,380.361 562.033,301.055 564.991,935.441 567.949,1022.4 570.907,1038.44 573.865,1098.06 576.823,614.314 579.782,293.48 582.74,1176.54 585.698,881.245 588.656,506.864 591.614,865.967 594.572,346.187 597.53,974.332 600.488,495.861 603.447,358.469 606.405,249.223 609.363,333.922 612.321,299.002 615.279,372.933 618.237,783.397 621.195,424.524 624.153,102.124 627.111,1111.75 630.07,1041.53 633.028,130.879 635.986,617.871 638.944,447.23 641.902,1178.52 644.86,857.002 647.818,578.293 650.776,1150.72 653.734,726.985 656.693,521.755 659.651,765.755 662.609,569.602 665.567,1102.55 668.525,653.823 671.483,780.743 674.441,1101.17 677.399,866.258 680.358,170.517 683.316,438.147 686.274,1182.64 689.232,599.43 692.19,802.357 695.148,453.542 698.106,157.87 701.064,1101.76 704.022,134.15 706.981,1122.01 709.939,248.314 712.897,1148.36 715.855,911.562 718.813,1131.88 721.771,274.117 724.729,348.458 727.687,946.33 730.645,1146.38 733.604,494.42 736.562,276.666 739.52,1011.47 742.478,317.776 745.436,458.891 748.394,162.835 751.352,403.724 754.31,979.076 757.269,174.17 760.227,130.983 763.185,695.513 766.143,174.585 769.101,154.931 772.059,929.659 775.017,440.79 777.975,759.37 780.933,303.54 783.892,743.573 786.85,513.495 789.808,871.258 792.766,173.825 795.724,86.8704 798.682,562.004 801.64,348.615 804.598,383.804 807.557,486.332 810.515,881.151 813.473,281.009 816.431,325.557 819.389,758.176 822.347,737.741 825.305,1168.6 828.263,278.779 831.221,940.651 834.18,745.373 837.138,220.567 840.096,426.207 843.054,582.054 846.012,223.907 848.97,1169.49 851.928,767.909 854.886,1160.03 857.844,1032.46 860.803,1097.64 863.761,392.737 866.719,1196.14 869.677,329.659 872.635,538.906 875.593,817.224 878.551,912.808 881.509,425.287 884.468,1154.67 887.426,633.27 890.384,850.506 893.342,252.614 896.3,979.279 899.258,1001.26 902.216,1061.22 905.174,891.12 908.132,616.47 911.091,252.103 914.049,113.396 917.007,988.016 919.965,1073.8 922.923,452.458 925.881,649.626 928.839,92.7865 931.797,1158.65 934.756,362.295 937.714,737.192 940.672,1048.1 943.63,261.32 946.588,869.817 949.546,171.89 952.504,708.072 955.462,1087.91 958.42,578.249 961.379,1118.52 964.337,144.655 967.295,405.561 970.253,516.574 973.211,407.222 976.169,449.626 979.127,1114.23 982.085,868.852 985.043,663.671 988.002,810.337 990.96,269.893 993.918,561.068 996.876,433.918 999.834,1152.6 1002.79,1193.73 1005.75,211.804 1008.71,194.365 1011.67,133.7 1014.62,929.812 1017.58,694.965 1020.54,490.872 1023.5,439.608 1026.46,1066.24 1029.42,963.752 1032.37,450.129 1035.33,796.97 1038.29,409.939 1041.25,921.004 1044.21,89.3354 1047.16,1117.47 1050.12,565.533 1053.08,568.149 1056.04,889.404 1059,241.605 1061.95,557.144 1064.91,688.861 1067.87,948.559 1070.83,305.641 1073.79,1135.2 1076.75,256.639 1079.7,364.102 1082.66,768.566 1085.62,560.623 1088.58,1095.16 1091.54,1005.92 1094.49,1072.37 1097.45,1030.06 1100.41,633.884 1103.37,527.422 1106.33,880.101 1109.28,818.689 1112.24,741.011 1115.2,649.798 1118.16,289.361 1121.12,225.634 1124.07,179.295 1127.03,796.333 1129.99,636.205 1132.95,326.71 1135.91,602.146 1138.87,1167.86 1141.82,873.307 1144.78,825.988 1147.74,340.786 1150.7,1083.79 1153.66,1043.99 1156.61,711.769 1159.57,312.682 1162.53,865.513 1165.49,464.949 1168.45,551.238 1171.4,827.06 1174.36,233.205 1177.32,624.615 1180.28,189.137 1183.24,218.91 1186.2,1010.87 1189.15,287.685 1192.11,373.502 1195.07,160.027 1198.03,707.481 1200.99,1155.61 1203.94,1064.84 1206.9,1040.94 1209.86,331.023 1212.82,218.908 1215.78,478.637 1218.73,1200.56 1221.69,904.018 1224.65,470.342 1227.61,599.902 1230.57,812.462 1233.53,643.823 1236.48,231.418 1239.44,1063.04 1242.4,578.525 1245.36,910.034 1248.32,100.868 1251.27,1057.19 1254.23,1073.15 1257.19,1045.36 1260.15,125.312 1263.11,366.544 1266.06,835.412 1269.02,856.504 1271.98,657.82 1274.94,783.627 1277.9,1074.77 1280.86,137.639 1283.81,672.722 1286.77,1056.85 1289.73,537.498 1292.69,619.073 1295.65,964.754 1298.6,176.813 1301.56,746.316 1304.52,655.104 1307.48,1082.92 1310.44,949.927 1313.39,722.344 1316.35,749.08 1319.31,313.904 1322.27,777.28 1325.23,937.862 1328.18,956.383 1331.14,990.309 1334.1,384.894 1337.06,481.662 1340.02,1053.78 1342.98,550.054 1345.93,659.998 1348.89,861.021 1351.85,705.158 1354.81,1192.74 1357.77,684.26 1360.72,250.753 1363.68,895.848 1366.64,1113.19 1369.6,427.152 1372.56,1035.33 1375.51,564.535 1378.47,1154.55 1381.43,467.85 1384.39,122.836 1387.35,119.536 1390.31,156.876 1393.26,405.974 1396.22,1102.39 1399.18,1170.92 1402.14,1099.35 1405.1,918.326 1408.05,1025.69 1411.01,931.539 1413.97,970.215 1416.93,541.768 1419.89,673.756 1422.84,655.027 1425.8,691.628 1428.76,633.66 1431.72,540.105 1434.68,744.556 1437.64,1009.2 1440.59,698.329 1443.55,197.153 1446.51,392.665 1449.47,1042.28 1452.43,488.465 1455.38,373.038 1458.34,1026.31 1461.3,1176.41 1464.26,757.752 1467.22,107.321 1470.17,1061.22 1473.13,208.447 1476.09,268.506 1479.05,809.623 1482.01,873.929 1484.97,1052.77 1487.92,841.453 1490.88,663.146 1493.84,1051.61 1496.8,618.427 1499.76,973.985 1502.71,714.127 1505.67,591.469 1508.63,511.411 1511.59,1088.36 1514.55,643.267 1517.5,1190.09 1520.46,173.807 1523.42,228.767 1526.38,798.765 1529.34,977.856 1532.29,1115.75 1535.25,1013.07 1538.21,607.606 1541.17,1193.22 1544.13,1168.48 1547.09,503.6 1550.04,694.674 1553,818.17 1555.96,504.201 1558.92,937.512 1561.88,672.201 1564.83,596.212 1567.79,900.79 1570.75,545.638 1573.71,1177.42 1576.67,1071.27 1579.62,1145.17 1582.58,896.955 1585.54,662.631 1588.5,373.156 1591.46,948.636 1594.42,82.5882 1597.37,1071.99 1600.33,1007.72 1603.29,185.217 1606.25,682.497 1609.21,963.358 1612.16,1071.74 1615.12,516.847 1618.08,1186.69 1621.04,1118.82 1624,664.655 1626.95,797.186 1629.91,922.401 1632.87,1062 1635.83,1044.07 1638.79,301.524 1641.75,102.597 1644.7,764.433 1647.66,785.076 1650.62,968.351 1653.58,1038.43 1656.54,1059.05 1659.49,321.357 1662.45,748.179 1665.41,552.311 1668.37,664.36 1671.33,198.501 1674.28,193.46 1677.24,758.534 1680.2,905.157 1683.16,699.921 1686.12,1168.96 1689.08,720.911 1692.03,794.637 1694.99,517.516 1697.95,263.083 1700.91,210.049 1703.87,462.625 1706.82,619.542 1709.78,948.637 1712.74,692.466 1715.7,508.018 1718.66,141.957 1721.61,294.852 1724.57,772.964 1727.53,799.323 1730.49,625.557 1733.45,400.86 1736.41,503.675 1739.36,1080.93 1742.32,522.104 1745.28,997.321 1748.24,262.936 1751.2,1143.47 1754.15,696.86 1757.11,801.247 1760.07,185.209 1763.03,1068.68 1765.99,167.031 1768.94,629.348 1771.9,650.382 1774.86,848.701 1777.82,172.487 1780.78,86.9351 1783.73,149.299 1786.69,766.027 1789.65,1040.93 1792.61,381.294 1795.57,489.099 1798.53,687.097 1801.48,1032.6 1804.44,400.842 1807.4,141.514 1810.36,861.126 1813.32,564.625 1816.27,459.222 1819.23,943.442 1822.19,587.719 1825.15,902.229 1828.11,593.41 1831.06,510.372 1834.02,1090.9 1836.98,544.463 1839.94,1165.93 1842.9,875.452 1845.86,799.175 1848.81,432.752 1851.77,176.355 1854.73,793.971 1857.69,388.079 1860.65,680.849 1863.6,1008.34 1866.56,401.005 1869.52,1088.73 1872.48,862.246 1875.44,103.435 1878.39,509.12 1881.35,155.786 1884.31,247.092 1887.27,697.432 1890.23,700.536 1893.19,1136.78 1896.14,518.745 1899.1,1200.23 1902.06,1163.82 1905.02,158.321 1907.98,102.605 1910.93,561.203 1913.89,252.87 1916.85,633.124 1919.81,710.42 1922.77,951.014 1925.72,1182.43 1928.68,1037.1 1931.64,1062.62 1934.6,1126.73 1937.56,361.235 1940.52,244.565 1943.47,305.773 1946.43,835.319 1949.39,265.77 1952.35,456.314 1955.31,836.09 1958.26,153.643 1961.22,1161.86 1964.18,733.483 1967.14,291.048 1970.1,898.226 1973.05,547.383 1976.01,546.902 1978.97,166.708 1981.93,1144.22 1984.89,282.346 1987.84,872.691 1990.8,796.816 1993.76,935.859 1996.72,789.854 1999.68,228.027 2002.64,409.812 2005.59,323.665 2008.55,484.446 2011.51,102.074 "/>
<path clip-path="url(#clip150)" d="M246.106 1195 L486.673 1195 L486.673 1091.32 L246.106 1091.32  Z" fill="#ffffff" fill-rule="evenodd" fill-opacity="1"/>
<polyline clip-path="url(#clip150)" style="stroke:#000000; stroke-linecap:round; stroke-linejoin:round; stroke-width:4; stroke-opacity:1; fill:none" points="246.106,1195 486.673,1195 486.673,1091.32 246.106,1091.32 246.106,1195 "/>
<polyline clip-path="url(#clip150)" style="stroke:#009af9; stroke-linecap:round; stroke-linejoin:round; stroke-width:4; stroke-opacity:1; fill:none" points="267.01,1143.16 392.434,1143.16 "/>
<path clip-path="url(#clip150)" d="M427.181 1162.85 Q425.375 1167.48 423.662 1168.89 Q421.949 1170.3 419.079 1170.3 L415.676 1170.3 L415.676 1166.74 L418.176 1166.74 Q419.935 1166.74 420.908 1165.9 Q421.88 1165.07 423.06 1161.97 L423.824 1160.02 L413.338 1134.52 L417.852 1134.52 L425.954 1154.79 L434.056 1134.52 L438.57 1134.52 L427.181 1162.85 Z" fill="#000000" fill-rule="nonzero" fill-opacity="1" /><path clip-path="url(#clip150)" d="M445.861 1156.51 L453.5 1156.51 L453.5 1130.14 L445.19 1131.81 L445.19 1127.55 L453.454 1125.88 L458.13 1125.88 L458.13 1156.51 L465.769 1156.51 L465.769 1160.44 L445.861 1160.44 L445.861 1156.51 Z" fill="#000000" fill-rule="nonzero" fill-opacity="1" /></svg>
