<?xml version="1.0" encoding="utf-8"?>
<svg xmlns="http://www.w3.org/2000/svg" xmlns:xlink="http://www.w3.org/1999/xlink" width="528" height="336" viewBox="0 0 2112 1344">
<defs>
  <clipPath id="clip110">
    <rect x="0" y="0" width="2112" height="1344"/>
  </clipPath>
</defs>
<path clip-path="url(#clip110)" d="M0 1344 L2112 1344 L2112 0 L0 0  Z" fill="#ffffff" fill-rule="evenodd" fill-opacity="1"/>
<defs>
  <clipPath id="clip111">
    <rect x="422" y="0" width="1479" height="1344"/>
  </clipPath>
</defs>
<path clip-path="url(#clip110)" d="M167.977 1234.58 L2064.76 1234.58 L2064.76 47.2441 L167.977 47.2441  Z" fill="#ffffff" fill-rule="evenodd" fill-opacity="1"/>
<defs>
  <clipPath id="clip112">
    <rect x="167" y="47" width="1898" height="1188"/>
  </clipPath>
</defs>
<polyline clip-path="url(#clip112)" style="stroke:#000000; stroke-linecap:round; stroke-linejoin:round; stroke-width:2; stroke-opacity:0.1; fill:none" points="221.66,1234.58 221.66,47.2441 "/>
<polyline clip-path="url(#clip112)" style="stroke:#000000; stroke-linecap:round; stroke-linejoin:round; stroke-width:2; stroke-opacity:0.1; fill:none" points="519.895,1234.58 519.895,47.2441 "/>
<polyline clip-path="url(#clip112)" style="stroke:#000000; stroke-linecap:round; stroke-linejoin:round; stroke-width:2; stroke-opacity:0.1; fill:none" points="818.131,1234.58 818.131,47.2441 "/>
<polyline clip-path="url(#clip112)" style="stroke:#000000; stroke-linecap:round; stroke-linejoin:round; stroke-width:2; stroke-opacity:0.1; fill:none" points="1116.37,1234.58 1116.37,47.2441 "/>
<polyline clip-path="url(#clip112)" style="stroke:#000000; stroke-linecap:round; stroke-linejoin:round; stroke-width:2; stroke-opacity:0.1; fill:none" points="1414.6,1234.58 1414.6,47.2441 "/>
<polyline clip-path="url(#clip112)" style="stroke:#000000; stroke-linecap:round; stroke-linejoin:round; stroke-width:2; stroke-opacity:0.1; fill:none" points="1712.84,1234.58 1712.84,47.2441 "/>
<polyline clip-path="url(#clip112)" style="stroke:#000000; stroke-linecap:round; stroke-linejoin:round; stroke-width:2; stroke-opacity:0.1; fill:none" points="2011.07,1234.58 2011.07,47.2441 "/>
<polyline clip-path="url(#clip110)" style="stroke:#000000; stroke-linecap:round; stroke-linejoin:round; stroke-width:4; stroke-opacity:1; fill:none" points="167.977,1234.58 2064.76,1234.58 "/>
<polyline clip-path="url(#clip110)" style="stroke:#000000; stroke-linecap:round; stroke-linejoin:round; stroke-width:4; stroke-opacity:1; fill:none" points="221.66,1234.58 221.66,1215.68 "/>
<polyline clip-path="url(#clip110)" style="stroke:#000000; stroke-linecap:round; stroke-linejoin:round; stroke-width:4; stroke-opacity:1; fill:none" points="519.895,1234.58 519.895,1215.68 "/>
<polyline clip-path="url(#clip110)" style="stroke:#000000; stroke-linecap:round; stroke-linejoin:round; stroke-width:4; stroke-opacity:1; fill:none" points="818.131,1234.58 818.131,1215.68 "/>
<polyline clip-path="url(#clip110)" style="stroke:#000000; stroke-linecap:round; stroke-linejoin:round; stroke-width:4; stroke-opacity:1; fill:none" points="1116.37,1234.58 1116.37,1215.68 "/>
<polyline clip-path="url(#clip110)" style="stroke:#000000; stroke-linecap:round; stroke-linejoin:round; stroke-width:4; stroke-opacity:1; fill:none" points="1414.6,1234.58 1414.6,1215.68 "/>
<polyline clip-path="url(#clip110)" style="stroke:#000000; stroke-linecap:round; stroke-linejoin:round; stroke-width:4; stroke-opacity:1; fill:none" points="1712.84,1234.58 1712.84,1215.68 "/>
<polyline clip-path="url(#clip110)" style="stroke:#000000; stroke-linecap:round; stroke-linejoin:round; stroke-width:4; stroke-opacity:1; fill:none" points="2011.07,1234.58 2011.07,1215.68 "/>
<path clip-path="url(#clip110)" d="M191.128 1277.85 L220.803 1277.85 L220.803 1281.78 L191.128 1281.78 L191.128 1277.85 Z" fill="#000000" fill-rule="nonzero" fill-opacity="1" /><path clip-path="url(#clip110)" d="M245.062 1276.04 Q248.419 1276.76 250.294 1279.03 Q252.192 1281.3 252.192 1284.63 Q252.192 1289.74 248.674 1292.55 Q245.155 1295.35 238.674 1295.35 Q236.498 1295.35 234.183 1294.91 Q231.891 1294.49 229.438 1293.63 L229.438 1289.12 Q231.382 1290.25 233.697 1290.83 Q236.012 1291.41 238.535 1291.41 Q242.933 1291.41 245.225 1289.67 Q247.539 1287.94 247.539 1284.63 Q247.539 1281.57 245.387 1279.86 Q243.257 1278.12 239.438 1278.12 L235.41 1278.12 L235.41 1274.28 L239.623 1274.28 Q243.072 1274.28 244.9 1272.92 Q246.729 1271.53 246.729 1268.93 Q246.729 1266.27 244.831 1264.86 Q242.956 1263.42 239.438 1263.42 Q237.516 1263.42 235.317 1263.84 Q233.118 1264.26 230.479 1265.14 L230.479 1260.97 Q233.141 1260.23 235.456 1259.86 Q237.794 1259.49 239.854 1259.49 Q245.178 1259.49 248.28 1261.92 Q251.382 1264.33 251.382 1268.45 Q251.382 1271.32 249.738 1273.31 Q248.095 1275.28 245.062 1276.04 Z" fill="#000000" fill-rule="nonzero" fill-opacity="1" /><path clip-path="url(#clip110)" d="M489.838 1277.85 L519.513 1277.85 L519.513 1281.78 L489.838 1281.78 L489.838 1277.85 Z" fill="#000000" fill-rule="nonzero" fill-opacity="1" /><path clip-path="url(#clip110)" d="M533.634 1290.74 L549.953 1290.74 L549.953 1294.67 L528.009 1294.67 L528.009 1290.74 Q530.671 1287.99 535.254 1283.36 Q539.861 1278.7 541.041 1277.36 Q543.287 1274.84 544.166 1273.1 Q545.069 1271.34 545.069 1269.65 Q545.069 1266.9 543.124 1265.16 Q541.203 1263.42 538.101 1263.42 Q535.902 1263.42 533.449 1264.19 Q531.018 1264.95 528.24 1266.5 L528.24 1261.78 Q531.064 1260.65 533.518 1260.07 Q535.972 1259.49 538.009 1259.49 Q543.379 1259.49 546.574 1262.17 Q549.768 1264.86 549.768 1269.35 Q549.768 1271.48 548.958 1273.4 Q548.171 1275.3 546.064 1277.89 Q545.486 1278.56 542.384 1281.78 Q539.282 1284.98 533.634 1290.74 Z" fill="#000000" fill-rule="nonzero" fill-opacity="1" /><path clip-path="url(#clip110)" d="M787.888 1277.85 L817.564 1277.85 L817.564 1281.78 L787.888 1281.78 L787.888 1277.85 Z" fill="#000000" fill-rule="nonzero" fill-opacity="1" /><path clip-path="url(#clip110)" d="M828.467 1290.74 L836.105 1290.74 L836.105 1264.37 L827.795 1266.04 L827.795 1261.78 L836.059 1260.11 L840.735 1260.11 L840.735 1290.74 L848.374 1290.74 L848.374 1294.67 L828.467 1294.67 L828.467 1290.74 Z" fill="#000000" fill-rule="nonzero" fill-opacity="1" /><path clip-path="url(#clip110)" d="M1116.37 1263.19 Q1112.76 1263.19 1110.93 1266.76 Q1109.12 1270.3 1109.12 1277.43 Q1109.12 1284.54 1110.93 1288.1 Q1112.76 1291.64 1116.37 1291.64 Q1120 1291.64 1121.81 1288.1 Q1123.64 1284.54 1123.64 1277.43 Q1123.64 1270.3 1121.81 1266.76 Q1120 1263.19 1116.37 1263.19 M1116.37 1259.49 Q1122.18 1259.49 1125.23 1264.1 Q1128.31 1268.68 1128.31 1277.43 Q1128.31 1286.16 1125.23 1290.76 Q1122.18 1295.35 1116.37 1295.35 Q1110.56 1295.35 1107.48 1290.76 Q1104.42 1286.16 1104.42 1277.43 Q1104.42 1268.68 1107.48 1264.1 Q1110.56 1259.49 1116.37 1259.49 Z" fill="#000000" fill-rule="nonzero" fill-opacity="1" /><path clip-path="url(#clip110)" d="M1404.98 1290.74 L1412.62 1290.74 L1412.62 1264.37 L1404.31 1266.04 L1404.31 1261.78 L1412.58 1260.11 L1417.25 1260.11 L1417.25 1290.74 L1424.89 1290.74 L1424.89 1294.67 L1404.98 1294.67 L1404.98 1290.74 Z" fill="#000000" fill-rule="nonzero" fill-opacity="1" /><path clip-path="url(#clip110)" d="M1707.49 1290.74 L1723.81 1290.74 L1723.81 1294.67 L1701.87 1294.67 L1701.87 1290.74 Q1704.53 1287.99 1709.11 1283.36 Q1713.72 1278.7 1714.9 1277.36 Q1717.14 1274.84 1718.02 1273.1 Q1718.93 1271.34 1718.93 1269.65 Q1718.93 1266.9 1716.98 1265.16 Q1715.06 1263.42 1711.96 1263.42 Q1709.76 1263.42 1707.31 1264.19 Q1704.87 1264.95 1702.1 1266.5 L1702.1 1261.78 Q1704.92 1260.65 1707.37 1260.07 Q1709.83 1259.49 1711.87 1259.49 Q1717.24 1259.49 1720.43 1262.17 Q1723.62 1264.86 1723.62 1269.35 Q1723.62 1271.48 1722.81 1273.4 Q1722.03 1275.3 1719.92 1277.89 Q1719.34 1278.56 1716.24 1281.78 Q1713.14 1284.98 1707.49 1290.74 Z" fill="#000000" fill-rule="nonzero" fill-opacity="1" /><path clip-path="url(#clip110)" d="M2015.32 1276.04 Q2018.68 1276.76 2020.55 1279.03 Q2022.45 1281.3 2022.45 1284.63 Q2022.45 1289.74 2018.93 1292.55 Q2015.41 1295.35 2008.93 1295.35 Q2006.76 1295.35 2004.44 1294.91 Q2002.15 1294.49 1999.7 1293.63 L1999.7 1289.12 Q2001.64 1290.25 2003.96 1290.83 Q2006.27 1291.41 2008.79 1291.41 Q2013.19 1291.41 2015.48 1289.67 Q2017.8 1287.94 2017.8 1284.63 Q2017.8 1281.57 2015.65 1279.86 Q2013.52 1278.12 2009.7 1278.12 L2005.67 1278.12 L2005.67 1274.28 L2009.88 1274.28 Q2013.33 1274.28 2015.16 1272.92 Q2016.99 1271.53 2016.99 1268.93 Q2016.99 1266.27 2015.09 1264.86 Q2013.21 1263.42 2009.7 1263.42 Q2007.77 1263.42 2005.58 1263.84 Q2003.38 1264.26 2000.74 1265.14 L2000.74 1260.97 Q2003.4 1260.23 2005.71 1259.86 Q2008.05 1259.49 2010.11 1259.49 Q2015.44 1259.49 2018.54 1261.92 Q2021.64 1264.33 2021.64 1268.45 Q2021.64 1271.32 2020 1273.31 Q2018.35 1275.28 2015.32 1276.04 Z" fill="#000000" fill-rule="nonzero" fill-opacity="1" /><polyline clip-path="url(#clip112)" style="stroke:#000000; stroke-linecap:round; stroke-linejoin:round; stroke-width:2; stroke-opacity:0.1; fill:none" points="167.977,1203.48 2064.76,1203.48 "/>
<polyline clip-path="url(#clip112)" style="stroke:#000000; stroke-linecap:round; stroke-linejoin:round; stroke-width:2; stroke-opacity:0.1; fill:none" points="167.977,826.019 2064.76,826.019 "/>
<polyline clip-path="url(#clip112)" style="stroke:#000000; stroke-linecap:round; stroke-linejoin:round; stroke-width:2; stroke-opacity:0.1; fill:none" points="167.977,448.555 2064.76,448.555 "/>
<polyline clip-path="url(#clip112)" style="stroke:#000000; stroke-linecap:round; stroke-linejoin:round; stroke-width:2; stroke-opacity:0.1; fill:none" points="167.977,71.092 2064.76,71.092 "/>
<polyline clip-path="url(#clip110)" style="stroke:#000000; stroke-linecap:round; stroke-linejoin:round; stroke-width:4; stroke-opacity:1; fill:none" points="167.977,1234.58 167.977,47.2441 "/>
<polyline clip-path="url(#clip110)" style="stroke:#000000; stroke-linecap:round; stroke-linejoin:round; stroke-width:4; stroke-opacity:1; fill:none" points="167.977,1203.48 186.875,1203.48 "/>
<polyline clip-path="url(#clip110)" style="stroke:#000000; stroke-linecap:round; stroke-linejoin:round; stroke-width:4; stroke-opacity:1; fill:none" points="167.977,826.019 186.875,826.019 "/>
<polyline clip-path="url(#clip110)" style="stroke:#000000; stroke-linecap:round; stroke-linejoin:round; stroke-width:4; stroke-opacity:1; fill:none" points="167.977,448.555 186.875,448.555 "/>
<polyline clip-path="url(#clip110)" style="stroke:#000000; stroke-linecap:round; stroke-linejoin:round; stroke-width:4; stroke-opacity:1; fill:none" points="167.977,71.092 186.875,71.092 "/>
<path clip-path="url(#clip110)" d="M124.353 1189.28 Q120.742 1189.28 118.913 1192.85 Q117.108 1196.39 117.108 1203.52 Q117.108 1210.62 118.913 1214.19 Q120.742 1217.73 124.353 1217.73 Q127.987 1217.73 129.793 1214.19 Q131.622 1210.62 131.622 1203.52 Q131.622 1196.39 129.793 1192.85 Q127.987 1189.28 124.353 1189.28 M124.353 1185.58 Q130.163 1185.58 133.219 1190.18 Q136.297 1194.77 136.297 1203.52 Q136.297 1212.24 133.219 1216.85 Q130.163 1221.43 124.353 1221.43 Q118.543 1221.43 115.464 1216.85 Q112.409 1212.24 112.409 1203.52 Q112.409 1194.77 115.464 1190.18 Q118.543 1185.58 124.353 1185.58 Z" fill="#000000" fill-rule="nonzero" fill-opacity="1" /><path clip-path="url(#clip110)" d="M54.8395 839.364 L62.4784 839.364 L62.4784 812.998 L54.1682 814.665 L54.1682 810.405 L62.4321 808.739 L67.108 808.739 L67.108 839.364 L74.7468 839.364 L74.7468 843.299 L54.8395 843.299 L54.8395 839.364 Z" fill="#000000" fill-rule="nonzero" fill-opacity="1" /><path clip-path="url(#clip110)" d="M94.1912 811.817 Q90.5801 811.817 88.7514 815.382 Q86.9458 818.924 86.9458 826.053 Q86.9458 833.16 88.7514 836.725 Q90.5801 840.266 94.1912 840.266 Q97.8254 840.266 99.6309 836.725 Q101.46 833.16 101.46 826.053 Q101.46 818.924 99.6309 815.382 Q97.8254 811.817 94.1912 811.817 M94.1912 808.114 Q100.001 808.114 103.057 812.72 Q106.136 817.303 106.136 826.053 Q106.136 834.78 103.057 839.387 Q100.001 843.97 94.1912 843.97 Q88.381 843.97 85.3023 839.387 Q82.2468 834.78 82.2468 826.053 Q82.2468 817.303 85.3023 812.72 Q88.381 808.114 94.1912 808.114 Z" fill="#000000" fill-rule="nonzero" fill-opacity="1" /><path clip-path="url(#clip110)" d="M124.353 811.817 Q120.742 811.817 118.913 815.382 Q117.108 818.924 117.108 826.053 Q117.108 833.16 118.913 836.725 Q120.742 840.266 124.353 840.266 Q127.987 840.266 129.793 836.725 Q131.622 833.16 131.622 826.053 Q131.622 818.924 129.793 815.382 Q127.987 811.817 124.353 811.817 M124.353 808.114 Q130.163 808.114 133.219 812.72 Q136.297 817.303 136.297 826.053 Q136.297 834.78 133.219 839.387 Q130.163 843.97 124.353 843.97 Q118.543 843.97 115.464 839.387 Q112.409 834.78 112.409 826.053 Q112.409 817.303 115.464 812.72 Q118.543 808.114 124.353 808.114 Z" fill="#000000" fill-rule="nonzero" fill-opacity="1" /><path clip-path="url(#clip110)" d="M58.0571 461.9 L74.3765 461.9 L74.3765 465.835 L52.4321 465.835 L52.4321 461.9 Q55.0941 459.146 59.6775 454.516 Q64.2839 449.863 65.4645 448.521 Q67.7098 445.998 68.5894 444.261 Q69.4922 442.502 69.4922 440.812 Q69.4922 438.058 67.5478 436.322 Q65.6265 434.586 62.5247 434.586 Q60.3256 434.586 57.8719 435.349 Q55.4414 436.113 52.6636 437.664 L52.6636 432.942 Q55.4877 431.808 57.9414 431.229 Q60.395 430.65 62.4321 430.65 Q67.8024 430.65 70.9968 433.336 Q74.1913 436.021 74.1913 440.511 Q74.1913 442.641 73.3811 444.562 Q72.5941 446.46 70.4876 449.053 Q69.9089 449.724 66.807 452.942 Q63.7052 456.136 58.0571 461.9 Z" fill="#000000" fill-rule="nonzero" fill-opacity="1" /><path clip-path="url(#clip110)" d="M94.1912 434.354 Q90.5801 434.354 88.7514 437.919 Q86.9458 441.461 86.9458 448.59 Q86.9458 455.697 88.7514 459.261 Q90.5801 462.803 94.1912 462.803 Q97.8254 462.803 99.6309 459.261 Q101.46 455.697 101.46 448.59 Q101.46 441.461 99.6309 437.919 Q97.8254 434.354 94.1912 434.354 M94.1912 430.65 Q100.001 430.65 103.057 435.257 Q106.136 439.84 106.136 448.59 Q106.136 457.317 103.057 461.923 Q100.001 466.507 94.1912 466.507 Q88.381 466.507 85.3023 461.923 Q82.2468 457.317 82.2468 448.59 Q82.2468 439.84 85.3023 435.257 Q88.381 430.65 94.1912 430.65 Z" fill="#000000" fill-rule="nonzero" fill-opacity="1" /><path clip-path="url(#clip110)" d="M124.353 434.354 Q120.742 434.354 118.913 437.919 Q117.108 441.461 117.108 448.59 Q117.108 455.697 118.913 459.261 Q120.742 462.803 124.353 462.803 Q127.987 462.803 129.793 459.261 Q131.622 455.697 131.622 448.59 Q131.622 441.461 129.793 437.919 Q127.987 434.354 124.353 434.354 M124.353 430.65 Q130.163 430.65 133.219 435.257 Q136.297 439.84 136.297 448.59 Q136.297 457.317 133.219 461.923 Q130.163 466.507 124.353 466.507 Q118.543 466.507 115.464 461.923 Q112.409 457.317 112.409 448.59 Q112.409 439.84 115.464 435.257 Q118.543 430.65 124.353 430.65 Z" fill="#000000" fill-rule="nonzero" fill-opacity="1" /><path clip-path="url(#clip110)" d="M68.1959 69.7379 Q71.5524 70.4555 73.4274 72.724 Q75.3255 74.9925 75.3255 78.3258 Q75.3255 83.4415 71.807 86.2424 Q68.2885 89.0433 61.8071 89.0433 Q59.6312 89.0433 57.3164 88.6035 Q55.0247 88.1869 52.571 87.3304 L52.571 82.8165 Q54.5154 83.9508 56.8303 84.5295 Q59.1451 85.1082 61.6682 85.1082 Q66.0663 85.1082 68.358 83.3721 Q70.6728 81.636 70.6728 78.3258 Q70.6728 75.2703 68.52 73.5573 Q66.3904 71.8212 62.571 71.8212 L58.5432 71.8212 L58.5432 67.9786 L62.7561 67.9786 Q66.2052 67.9786 68.0339 66.6129 Q69.8626 65.224 69.8626 62.6314 Q69.8626 59.9694 67.9645 58.5574 Q66.0895 57.1222 62.571 57.1222 Q60.6497 57.1222 58.4506 57.5389 Q56.2515 57.9555 53.6127 58.8352 L53.6127 54.6685 Q56.2747 53.9278 58.5895 53.5574 Q60.9275 53.187 62.9876 53.187 Q68.3117 53.187 71.4135 55.6176 Q74.5153 58.025 74.5153 62.1453 Q74.5153 65.0157 72.8718 67.0064 Q71.2283 68.974 68.1959 69.7379 Z" fill="#000000" fill-rule="nonzero" fill-opacity="1" /><path clip-path="url(#clip110)" d="M94.1912 56.8907 Q90.5801 56.8907 88.7514 60.4555 Q86.9458 63.9972 86.9458 71.1268 Q86.9458 78.2332 88.7514 81.798 Q90.5801 85.3396 94.1912 85.3396 Q97.8254 85.3396 99.6309 81.798 Q101.46 78.2332 101.46 71.1268 Q101.46 63.9972 99.6309 60.4555 Q97.8254 56.8907 94.1912 56.8907 M94.1912 53.187 Q100.001 53.187 103.057 57.7935 Q106.136 62.3768 106.136 71.1268 Q106.136 79.8536 103.057 84.46 Q100.001 89.0433 94.1912 89.0433 Q88.381 89.0433 85.3023 84.46 Q82.2468 79.8536 82.2468 71.1268 Q82.2468 62.3768 85.3023 57.7935 Q88.381 53.187 94.1912 53.187 Z" fill="#000000" fill-rule="nonzero" fill-opacity="1" /><path clip-path="url(#clip110)" d="M124.353 56.8907 Q120.742 56.8907 118.913 60.4555 Q117.108 63.9972 117.108 71.1268 Q117.108 78.2332 118.913 81.798 Q120.742 85.3396 124.353 85.3396 Q127.987 85.3396 129.793 81.798 Q131.622 78.2332 131.622 71.1268 Q131.622 63.9972 129.793 60.4555 Q127.987 56.8907 124.353 56.8907 M124.353 53.187 Q130.163 53.187 133.219 57.7935 Q136.297 62.3768 136.297 71.1268 Q136.297 79.8536 133.219 84.46 Q130.163 89.0433 124.353 89.0433 Q118.543 89.0433 115.464 84.46 Q112.409 79.8536 112.409 71.1268 Q112.409 62.3768 115.464 57.7935 Q118.543 53.187 124.353 53.187 Z" fill="#000000" fill-rule="nonzero" fill-opacity="1" /><polyline clip-path="url(#clip112)" style="stroke:#009af9; stroke-linecap:round; stroke-linejoin:round; stroke-width:4; stroke-opacity:1; fill:none" points="221.66,1200.97 224.642,1199.51 227.625,1198.45 230.607,1194.91 233.589,1191.6 236.572,1189.69 239.554,1187.74 242.536,1187.7 245.519,1186.08 248.501,1183.4 251.483,1181.14 254.466,1180.35 257.448,1177.75 260.43,1175.16 263.413,1173.5 266.395,1171.14 269.378,1167.74 272.36,1165.78 275.342,1163.03 278.325,1162.06 281.307,1158.55 284.289,1155.39 287.272,1154.41 290.254,1154.16 293.236,1150.9 296.219,1150.86 299.201,1149.75 302.183,1148.28 305.166,1146.03 308.148,1145.77 311.131,1142.49 314.113,1140.23 317.095,1139.74 320.078,1137.34 323.06,1134.66 326.042,1131.21 329.025,1128.44 332.007,1126.42 334.989,1125.93 337.972,1125.34 340.954,1124.69 343.936,1123.82 346.919,1122.41 349.901,1120.37 352.883,1117.54 355.866,1115.31 358.848,1115.1 361.831,1111.54 364.813,1108.87 367.795,1106.71 370.778,1104.87 373.76,1102.72 376.742,1102.18 379.725,1099.75 382.707,1098.02 385.689,1095.37 388.672,1095.02 391.654,1094.3 394.636,1093.78 397.619,1092.83 400.601,1091.11 403.584,1087.79 406.566,1086.71 409.548,1082.99 412.531,1080 415.513,1078.8 418.495,1076.62 421.478,1073.05 424.46,1072.03 427.442,1071.46 430.425,1071.24 433.407,1068.35 436.389,1066.19 439.372,1064.86 442.354,1063.55 445.337,1063.37 448.319,1059.77 451.301,1059.73 454.284,1056.38 457.266,1054.1 460.248,1053.4 463.231,1050.52 466.213,1047.76 469.195,1044.22 472.178,1043.23 475.16,1042.11 478.142,1040.94 481.125,1039.76 484.107,1036.45 487.09,1034.75 490.072,1034.68 493.054,1032.49 496.037,1031.62 499.019,1030.23 502.001,1026.8 504.984,1025.58 507.966,1024.06 510.948,1020.96 513.931,1018.52 516.913,1018.38 519.895,1017.42 522.878,1016.93 525.86,1014.35 528.843,1013.77 531.825,1012.88 534.807,1011.77 537.79,1010.11 540.772,1006.85 543.754,1006.13 546.737,1003.54 549.719,1000.62 552.701,999.861 555.684,996.136 558.666,992.712 561.648,991.569 564.631,990.638 567.613,990.528 570.595,989.483 573.578,986.974 576.56,983.303 579.543,983.276 582.525,982.37 585.507,981.655 588.49,979.894 591.472,976.917 594.454,975.134 597.437,972.247 600.419,971.009 603.401,967.82 606.384,964.764 609.366,961.519 612.348,958.07 615.331,954.567 618.313,950.836 621.296,949.085 624.278,946.085 627.26,945.897 630.243,943.086 633.225,942.977 636.207,940.352 639.19,939.329 642.172,938.843 645.154,936.123 648.137,934.009 651.119,931.753 654.101,931.126 657.084,928.388 660.066,926.038 663.049,924.687 666.031,924.634 669.013,922.934 671.996,921.918 674.978,919.369 677.96,915.701 680.943,913.014 683.925,912.993 686.907,909.583 689.89,908.535 692.872,907.427 695.854,904.157 698.837,902.401 701.819,899.729 704.802,898.03 707.784,895.075 710.766,893.217 713.749,890.749 716.731,888.986 719.713,886.781 722.696,885.429 725.678,882.778 728.66,879.288 731.643,878.334 734.625,874.713 737.607,874.191 740.59,872.95 743.572,871.178 746.555,871.016 749.537,870.98 752.519,868.764 755.502,865.781 758.484,862.287 761.466,860.667 764.449,859.985 767.431,857.977 770.413,855.157 773.396,854.853 776.378,854.096 779.36,850.88 782.343,847.113 785.325,844.595 788.307,841.098 791.29,840.662 794.272,837.698 797.255,834.841 800.237,832.372 803.219,831.034 806.202,828.312 809.184,827.452 812.166,824.188 815.149,823.908 818.131,822.495 821.113,819.682 824.096,817.93 827.078,814.949 830.06,814.163 833.043,811.754 836.025,810.75 839.008,808.463 841.99,806.138 844.972,803.549 847.955,802.38 850.937,799.463 853.919,798.123 856.902,795.173 859.884,791.566 862.866,789.069 865.849,786.092 868.831,785.948 871.813,785.19 874.796,784.203 877.778,781.985 880.761,779.881 883.743,777.369 886.725,776.167 889.708,774.884 892.69,773.149 895.672,772.665 898.655,769.382 901.637,767.531 904.619,765.483 907.602,764.467 910.584,763.243 913.566,760.789 916.549,758.556 919.531,757.901 922.514,755.846 925.496,754.512 928.478,751.07 931.461,748.067 934.443,747.537 937.425,744.307 940.408,743.378 943.39,741.857 946.372,738.847 949.355,738.188 952.337,736.019 955.319,732.847 958.302,729.104 961.284,726.986 964.266,725.216 967.249,723.657 970.231,723.263 973.214,722.898 976.196,720.578 979.178,719.338 982.161,718.595 985.143,715.847 988.125,715.666 991.108,713.95 994.09,713.595 997.072,710.762 1000.05,707.272 1003.04,704.798 1006.02,702.938 1009,700.113 1011.98,698.591 1014.97,696.301 1017.95,694.125 1020.93,691.025 1023.91,690.85 1026.9,687.501 1029.88,686.728 1032.86,685.992 1035.84,682.764 1038.83,680.635 1041.81,679.84 1044.79,676.1 1047.77,673.662 1050.75,670.364 1053.74,667.969 1056.72,664.384 1059.7,664.335 1062.68,663.798 1065.67,660.731 1068.65,657.714 1071.63,656.886 1074.61,654.606 1077.6,651.391 1080.58,649.81 1083.56,647.189 1086.54,643.644 1089.53,641.88 1092.51,639.87 1095.49,636.246 1098.47,635.835 1101.45,633.751 1104.44,633.746 1107.42,632.617 1110.4,629.782 1113.38,629.023 1116.37,626.779 1119.35,624.86 1122.33,621.757 1125.31,619.596 1128.3,616.232 1131.28,614.882 1134.26,612.611 1137.24,611.663 1140.23,610.556 1143.21,608.333 1146.19,605.301 1149.17,602.236 1152.15,600.496 1155.14,596.954 1158.12,594.246 1161.1,593 1164.08,592.792 1167.07,591.959 1170.05,591.571 1173.03,590.129 1176.01,588.625 1179,586.201 1181.98,585.221 1184.96,584.885 1187.94,581.718 1190.93,580.485 1193.91,578.439 1196.89,576.687 1199.87,576.555 1202.85,576.393 1205.84,573.829 1208.82,572.082 1211.8,572.08 1214.78,569.832 1217.77,567.158 1220.75,564.874 1223.73,564.749 1226.71,564.583 1229.7,564.451 1232.68,560.9 1235.66,559.324 1238.64,558.452 1241.63,555.737 1244.61,553.985 1247.59,552.037 1250.57,550.201 1253.56,547.334 1256.54,545.631 1259.52,542.603 1262.5,540.908 1265.48,538.216 1268.47,536.21 1271.45,535.004 1274.43,534.441 1277.41,533.257 1280.4,532.152 1283.38,528.704 1286.36,527.64 1289.34,524.544 1292.33,522.561 1295.31,519.358 1298.29,516.61 1301.27,514.501 1304.26,511.68 1307.24,509.08 1310.22,507.351 1313.2,505.644 1316.18,502.661 1319.17,502.053 1322.15,501.556 1325.13,499.994 1328.11,499.463 1331.1,497.729 1334.08,496.544 1337.06,494.266 1340.04,493.332 1343.03,489.984 1346.01,486.487 1348.99,483.073 1351.97,480.34 1354.96,477.491 1357.94,477.295 1360.92,475.692 1363.9,474.915 1366.88,472.488 1369.87,472.179 1372.85,471.428 1375.83,468.686 1378.81,465.206 1381.8,464.075 1384.78,462.953 1387.76,459.275 1390.74,458.256 1393.73,458.15 1396.71,454.645 1399.69,451.4 1402.67,450.787 1405.66,449.232 1408.64,445.668 1411.62,444.555 1414.6,442.624 1417.58,439.778 1420.57,437.513 1423.55,437.071 1426.53,436.258 1429.51,433.812 1432.5,430.425 1435.48,426.68 1438.46,424.18 1441.44,420.788 1444.43,419.106 1447.41,417.086 1450.39,414.371 1453.37,412.145 1456.36,409.317 1459.34,408.412 1462.32,405.711 1465.3,402.473 1468.28,400.313 1471.27,399.245 1474.25,398.813 1477.23,398.059 1480.21,397.077 1483.2,395.383 1486.18,395.37 1489.16,394.921 1492.14,393.419 1495.13,392.116 1498.11,391.252 1501.09,390.18 1504.07,387.586 1507.06,384.291 1510.04,384.123 1513.02,383.821 1516,380.991 1518.98,377.874 1521.97,374.476 1524.95,373.035 1527.93,371.152 1530.91,370.774 1533.9,369.838 1536.88,366.846 1539.86,363.093 1542.84,361.126 1545.83,359.051 1548.81,356.539 1551.79,355.46 1554.77,353.722 1557.76,352.26 1560.74,351.305 1563.72,351.051 1566.7,349.922 1569.68,349.846 1572.67,349.453 1575.65,345.886 1578.63,344.629 1581.61,342.123 1584.6,340.388 1587.58,339.09 1590.56,337.542 1593.54,334.139 1596.53,331.793 1599.51,330.63 1602.49,330.514 1605.47,328.814 1608.46,328.293 1611.44,327.192 1614.42,325.692 1617.4,323.472 1620.38,322.078 1623.37,321.49 1626.35,320.132 1629.33,318.049 1632.31,317.169 1635.3,316.707 1638.28,313.126 1641.26,310.695 1644.24,310.189 1647.23,307.473 1650.21,304.306 1653.19,301.22 1656.17,299.67 1659.16,299.179 1662.14,296.927 1665.12,294.691 1668.1,291.358 1671.08,288.433 1674.07,285.945 1677.05,284.464 1680.03,283.144 1683.01,280.235 1686,277.92 1688.98,276.241 1691.96,275.463 1694.94,272.825 1697.93,272.469 1700.91,270.05 1703.89,268.171 1706.87,265.499 1709.86,262.683 1712.84,260.253 1715.82,259.995 1718.8,256.425 1721.78,256.372 1724.77,253.182 1727.75,252.254 1730.73,250.536 1733.71,248.788 1736.7,248.472 1739.68,246.605 1742.66,245.093 1745.64,243.007 1748.63,239.833 1751.61,237.61 1754.59,236.329 1757.57,235.075 1760.56,234.858 1763.54,231.999 1766.52,231.962 1769.5,228.333 1772.49,224.732 1775.47,224.12 1778.45,222.081 1781.43,219.805 1784.41,219.191 1787.4,217.49 1790.38,217.437 1793.36,213.721 1796.34,212.442 1799.33,212.169 1802.31,211.191 1805.29,210.085 1808.27,208.96 1811.26,206.332 1814.24,203.791 1817.22,201.006 1820.2,200.381 1823.19,198.193 1826.17,196.24 1829.15,193.259 1832.13,191.929 1835.11,188.574 1838.1,187.132 1841.08,186.61 1844.06,185.081 1847.04,183.9 1850.03,180.483 1853.01,178.045 1855.99,176.243 1858.97,173.669 1861.96,172.586 1864.94,171.938 1867.92,171.265 1870.9,171.18 1873.89,170.312 1876.87,168.422 1879.85,165.109 1882.83,164.612 1885.81,163.987 1888.8,162.184 1891.78,160.654 1894.76,158.461 1897.74,155.646 1900.73,155.349 1903.71,154.496 1906.69,154.341 1909.67,150.947 1912.66,148.799 1915.64,148.427 1918.62,145.047 1921.6,143.257 1924.59,142.199 1927.57,138.553 1930.55,135.431 1933.53,132.829 1936.51,129.963 1939.5,126.285 1942.48,124.096 1945.46,120.527 1948.44,120.357 1951.43,118.904 1954.41,116.359 1957.39,113.688 1960.37,111.989 1963.36,110.51 1966.34,107.408 1969.32,107.362 1972.3,104.224 1975.29,102.49 1978.27,102.027 1981.25,101.247 1984.23,97.9893 1987.21,96.5558 1990.2,93.9463 1993.18,91.6192 1996.16,90.279 1999.14,89.7164 2002.13,88.1543 2005.11,85.2641 2008.09,82.052 2011.07,80.8479 "/>
<path clip-path="url(#clip110)" d="M231.203 190.502 L473.311 190.502 L473.311 86.8219 L231.203 86.8219  Z" fill="#ffffff" fill-rule="evenodd" fill-opacity="1"/>
<polyline clip-path="url(#clip110)" style="stroke:#000000; stroke-linecap:round; stroke-linejoin:round; stroke-width:4; stroke-opacity:1; fill:none" points="231.203,190.502 473.311,190.502 473.311,86.8219 231.203,86.8219 231.203,190.502 "/>
<polyline clip-path="url(#clip110)" style="stroke:#009af9; stroke-linecap:round; stroke-linejoin:round; stroke-width:4; stroke-opacity:1; fill:none" points="252.279,138.662 378.731,138.662 "/>
<path clip-path="url(#clip110)" d="M413.648 158.349 Q411.843 162.979 410.13 164.391 Q408.417 165.803 405.547 165.803 L402.144 165.803 L402.144 162.238 L404.644 162.238 Q406.403 162.238 407.375 161.405 Q408.348 160.572 409.528 157.47 L410.292 155.525 L399.806 130.016 L404.32 130.016 L412.422 150.294 L420.523 130.016 L425.037 130.016 L413.648 158.349 Z" fill="#000000" fill-rule="nonzero" fill-opacity="1" /><path clip-path="url(#clip110)" d="M432.329 152.007 L439.968 152.007 L439.968 125.641 L431.658 127.308 L431.658 123.049 L439.921 121.382 L444.597 121.382 L444.597 152.007 L452.236 152.007 L452.236 155.942 L432.329 155.942 L432.329 152.007 Z" fill="#000000" fill-rule="nonzero" fill-opacity="1" /></svg>
