<?xml version="1.0" encoding="utf-8"?>
<svg xmlns="http://www.w3.org/2000/svg" xmlns:xlink="http://www.w3.org/1999/xlink" width="528" height="336" viewBox="0 0 2112 1344">
<defs>
  <clipPath id="clip850">
    <rect x="0" y="0" width="2112" height="1344"/>
  </clipPath>
</defs>
<path clip-path="url(#clip850)" d="M0 1344 L2112 1344 L2112 0 L0 0  Z" fill="#ffffff" fill-rule="evenodd" fill-opacity="1"/>
<defs>
  <clipPath id="clip851">
    <rect x="422" y="0" width="1479" height="1344"/>
  </clipPath>
</defs>
<path clip-path="url(#clip850)" d="M167.977 1234.58 L2064.76 1234.58 L2064.76 47.2441 L167.977 47.2441  Z" fill="#ffffff" fill-rule="evenodd" fill-opacity="1"/>
<defs>
  <clipPath id="clip852">
    <rect x="167" y="47" width="1898" height="1188"/>
  </clipPath>
</defs>
<polyline clip-path="url(#clip852)" style="stroke:#000000; stroke-linecap:round; stroke-linejoin:round; stroke-width:2; stroke-opacity:0.1; fill:none" points="221.66,1234.58 221.66,47.2441 "/>
<polyline clip-path="url(#clip852)" style="stroke:#000000; stroke-linecap:round; stroke-linejoin:round; stroke-width:2; stroke-opacity:0.1; fill:none" points="519.895,1234.58 519.895,47.2441 "/>
<polyline clip-path="url(#clip852)" style="stroke:#000000; stroke-linecap:round; stroke-linejoin:round; stroke-width:2; stroke-opacity:0.1; fill:none" points="818.131,1234.58 818.131,47.2441 "/>
<polyline clip-path="url(#clip852)" style="stroke:#000000; stroke-linecap:round; stroke-linejoin:round; stroke-width:2; stroke-opacity:0.1; fill:none" points="1116.37,1234.58 1116.37,47.2441 "/>
<polyline clip-path="url(#clip852)" style="stroke:#000000; stroke-linecap:round; stroke-linejoin:round; stroke-width:2; stroke-opacity:0.1; fill:none" points="1414.6,1234.58 1414.6,47.2441 "/>
<polyline clip-path="url(#clip852)" style="stroke:#000000; stroke-linecap:round; stroke-linejoin:round; stroke-width:2; stroke-opacity:0.1; fill:none" points="1712.84,1234.58 1712.84,47.2441 "/>
<polyline clip-path="url(#clip852)" style="stroke:#000000; stroke-linecap:round; stroke-linejoin:round; stroke-width:2; stroke-opacity:0.1; fill:none" points="2011.07,1234.58 2011.07,47.2441 "/>
<polyline clip-path="url(#clip850)" style="stroke:#000000; stroke-linecap:round; stroke-linejoin:round; stroke-width:4; stroke-opacity:1; fill:none" points="167.977,1234.58 2064.76,1234.58 "/>
<polyline clip-path="url(#clip850)" style="stroke:#000000; stroke-linecap:round; stroke-linejoin:round; stroke-width:4; stroke-opacity:1; fill:none" points="221.66,1234.58 221.66,1215.68 "/>
<polyline clip-path="url(#clip850)" style="stroke:#000000; stroke-linecap:round; stroke-linejoin:round; stroke-width:4; stroke-opacity:1; fill:none" points="519.895,1234.58 519.895,1215.68 "/>
<polyline clip-path="url(#clip850)" style="stroke:#000000; stroke-linecap:round; stroke-linejoin:round; stroke-width:4; stroke-opacity:1; fill:none" points="818.131,1234.58 818.131,1215.68 "/>
<polyline clip-path="url(#clip850)" style="stroke:#000000; stroke-linecap:round; stroke-linejoin:round; stroke-width:4; stroke-opacity:1; fill:none" points="1116.37,1234.58 1116.37,1215.68 "/>
<polyline clip-path="url(#clip850)" style="stroke:#000000; stroke-linecap:round; stroke-linejoin:round; stroke-width:4; stroke-opacity:1; fill:none" points="1414.6,1234.58 1414.6,1215.68 "/>
<polyline clip-path="url(#clip850)" style="stroke:#000000; stroke-linecap:round; stroke-linejoin:round; stroke-width:4; stroke-opacity:1; fill:none" points="1712.84,1234.58 1712.84,1215.68 "/>
<polyline clip-path="url(#clip850)" style="stroke:#000000; stroke-linecap:round; stroke-linejoin:round; stroke-width:4; stroke-opacity:1; fill:none" points="2011.07,1234.58 2011.07,1215.68 "/>
<path clip-path="url(#clip850)" d="M191.128 1277.85 L220.803 1277.85 L220.803 1281.78 L191.128 1281.78 L191.128 1277.85 Z" fill="#000000" fill-rule="nonzero" fill-opacity="1" /><path clip-path="url(#clip850)" d="M245.062 1276.04 Q248.419 1276.76 250.294 1279.03 Q252.192 1281.3 252.192 1284.63 Q252.192 1289.74 248.674 1292.55 Q245.155 1295.35 238.674 1295.35 Q236.498 1295.35 234.183 1294.91 Q231.891 1294.49 229.438 1293.63 L229.438 1289.12 Q231.382 1290.25 233.697 1290.83 Q236.012 1291.41 238.535 1291.41 Q242.933 1291.41 245.225 1289.67 Q247.539 1287.94 247.539 1284.63 Q247.539 1281.57 245.387 1279.86 Q243.257 1278.12 239.438 1278.12 L235.41 1278.12 L235.41 1274.28 L239.623 1274.28 Q243.072 1274.28 244.9 1272.92 Q246.729 1271.53 246.729 1268.93 Q246.729 1266.27 244.831 1264.86 Q242.956 1263.42 239.438 1263.42 Q237.516 1263.42 235.317 1263.84 Q233.118 1264.26 230.479 1265.14 L230.479 1260.97 Q233.141 1260.23 235.456 1259.86 Q237.794 1259.49 239.854 1259.49 Q245.178 1259.49 248.28 1261.92 Q251.382 1264.33 251.382 1268.45 Q251.382 1271.32 249.738 1273.31 Q248.095 1275.28 245.062 1276.04 Z" fill="#000000" fill-rule="nonzero" fill-opacity="1" /><path clip-path="url(#clip850)" d="M489.838 1277.85 L519.513 1277.85 L519.513 1281.78 L489.838 1281.78 L489.838 1277.85 Z" fill="#000000" fill-rule="nonzero" fill-opacity="1" /><path clip-path="url(#clip850)" d="M533.634 1290.74 L549.953 1290.74 L549.953 1294.67 L528.009 1294.67 L528.009 1290.74 Q530.671 1287.99 535.254 1283.36 Q539.861 1278.7 541.041 1277.36 Q543.287 1274.84 544.166 1273.1 Q545.069 1271.34 545.069 1269.65 Q545.069 1266.9 543.124 1265.16 Q541.203 1263.42 538.101 1263.42 Q535.902 1263.42 533.449 1264.19 Q531.018 1264.95 528.24 1266.5 L528.24 1261.78 Q531.064 1260.65 533.518 1260.07 Q535.972 1259.49 538.009 1259.49 Q543.379 1259.49 546.574 1262.17 Q549.768 1264.86 549.768 1269.35 Q549.768 1271.48 548.958 1273.4 Q548.171 1275.3 546.064 1277.89 Q545.486 1278.56 542.384 1281.78 Q539.282 1284.98 533.634 1290.74 Z" fill="#000000" fill-rule="nonzero" fill-opacity="1" /><path clip-path="url(#clip850)" d="M787.888 1277.85 L817.564 1277.85 L817.564 1281.78 L787.888 1281.78 L787.888 1277.85 Z" fill="#000000" fill-rule="nonzero" fill-opacity="1" /><path clip-path="url(#clip850)" d="M828.467 1290.74 L836.105 1290.74 L836.105 1264.37 L827.795 1266.04 L827.795 1261.78 L836.059 1260.11 L840.735 1260.11 L840.735 1290.74 L848.374 1290.74 L848.374 1294.67 L828.467 1294.67 L828.467 1290.74 Z" fill="#000000" fill-rule="nonzero" fill-opacity="1" /><path clip-path="url(#clip850)" d="M1116.37 1263.19 Q1112.76 1263.19 1110.93 1266.76 Q1109.12 1270.3 1109.12 1277.43 Q1109.12 1284.54 1110.93 1288.1 Q1112.76 1291.64 1116.37 1291.64 Q1120 1291.64 1121.81 1288.1 Q1123.64 1284.54 1123.64 1277.43 Q1123.64 1270.3 1121.81 1266.76 Q1120 1263.19 1116.37 1263.19 M1116.37 1259.49 Q1122.18 1259.49 1125.23 1264.1 Q1128.31 1268.68 1128.31 1277.43 Q1128.31 1286.16 1125.23 1290.76 Q1122.18 1295.35 1116.37 1295.35 Q1110.56 1295.35 1107.48 1290.76 Q1104.42 1286.16 1104.42 1277.43 Q1104.42 1268.68 1107.48 1264.1 Q1110.56 1259.49 1116.37 1259.49 Z" fill="#000000" fill-rule="nonzero" fill-opacity="1" /><path clip-path="url(#clip850)" d="M1404.98 1290.74 L1412.62 1290.74 L1412.62 1264.37 L1404.31 1266.04 L1404.31 1261.78 L1412.58 1260.11 L1417.25 1260.11 L1417.25 1290.74 L1424.89 1290.74 L1424.89 1294.67 L1404.98 1294.67 L1404.98 1290.74 Z" fill="#000000" fill-rule="nonzero" fill-opacity="1" /><path clip-path="url(#clip850)" d="M1707.49 1290.74 L1723.81 1290.74 L1723.81 1294.67 L1701.87 1294.67 L1701.87 1290.74 Q1704.53 1287.99 1709.11 1283.36 Q1713.72 1278.7 1714.9 1277.36 Q1717.14 1274.84 1718.02 1273.1 Q1718.93 1271.34 1718.93 1269.65 Q1718.93 1266.9 1716.98 1265.16 Q1715.06 1263.42 1711.96 1263.42 Q1709.76 1263.42 1707.31 1264.19 Q1704.87 1264.95 1702.1 1266.5 L1702.1 1261.78 Q1704.92 1260.65 1707.37 1260.07 Q1709.83 1259.49 1711.87 1259.49 Q1717.24 1259.49 1720.43 1262.17 Q1723.62 1264.86 1723.62 1269.35 Q1723.62 1271.48 1722.81 1273.4 Q1722.03 1275.3 1719.92 1277.89 Q1719.34 1278.56 1716.24 1281.78 Q1713.14 1284.98 1707.49 1290.74 Z" fill="#000000" fill-rule="nonzero" fill-opacity="1" /><path clip-path="url(#clip850)" d="M2015.32 1276.04 Q2018.68 1276.76 2020.55 1279.03 Q2022.45 1281.3 2022.45 1284.63 Q2022.45 1289.74 2018.93 1292.55 Q2015.41 1295.35 2008.93 1295.35 Q2006.76 1295.35 2004.44 1294.91 Q2002.15 1294.49 1999.7 1293.63 L1999.7 1289.12 Q2001.64 1290.25 2003.96 1290.83 Q2006.27 1291.41 2008.79 1291.41 Q2013.19 1291.41 2015.48 1289.67 Q2017.8 1287.94 2017.8 1284.63 Q2017.8 1281.57 2015.65 1279.86 Q2013.52 1278.12 2009.7 1278.12 L2005.67 1278.12 L2005.67 1274.28 L2009.88 1274.28 Q2013.33 1274.28 2015.16 1272.92 Q2016.99 1271.53 2016.99 1268.93 Q2016.99 1266.27 2015.09 1264.86 Q2013.21 1263.42 2009.7 1263.42 Q2007.77 1263.42 2005.58 1263.84 Q2003.38 1264.26 2000.74 1265.14 L2000.74 1260.97 Q2003.4 1260.23 2005.71 1259.86 Q2008.05 1259.49 2010.11 1259.49 Q2015.44 1259.49 2018.54 1261.92 Q2021.64 1264.33 2021.64 1268.45 Q2021.64 1271.32 2020 1273.31 Q2018.35 1275.28 2015.32 1276.04 Z" fill="#000000" fill-rule="nonzero" fill-opacity="1" /><polyline clip-path="url(#clip852)" style="stroke:#000000; stroke-linecap:round; stroke-linejoin:round; stroke-width:2; stroke-opacity:0.1; fill:none" points="167.977,1201.15 2064.76,1201.15 "/>
<polyline clip-path="url(#clip852)" style="stroke:#000000; stroke-linecap:round; stroke-linejoin:round; stroke-width:2; stroke-opacity:0.1; fill:none" points="167.977,825.305 2064.76,825.305 "/>
<polyline clip-path="url(#clip852)" style="stroke:#000000; stroke-linecap:round; stroke-linejoin:round; stroke-width:2; stroke-opacity:0.1; fill:none" points="167.977,449.465 2064.76,449.465 "/>
<polyline clip-path="url(#clip852)" style="stroke:#000000; stroke-linecap:round; stroke-linejoin:round; stroke-width:2; stroke-opacity:0.1; fill:none" points="167.977,73.6247 2064.76,73.6247 "/>
<polyline clip-path="url(#clip850)" style="stroke:#000000; stroke-linecap:round; stroke-linejoin:round; stroke-width:4; stroke-opacity:1; fill:none" points="167.977,1234.58 167.977,47.2441 "/>
<polyline clip-path="url(#clip850)" style="stroke:#000000; stroke-linecap:round; stroke-linejoin:round; stroke-width:4; stroke-opacity:1; fill:none" points="167.977,1201.15 186.875,1201.15 "/>
<polyline clip-path="url(#clip850)" style="stroke:#000000; stroke-linecap:round; stroke-linejoin:round; stroke-width:4; stroke-opacity:1; fill:none" points="167.977,825.305 186.875,825.305 "/>
<polyline clip-path="url(#clip850)" style="stroke:#000000; stroke-linecap:round; stroke-linejoin:round; stroke-width:4; stroke-opacity:1; fill:none" points="167.977,449.465 186.875,449.465 "/>
<polyline clip-path="url(#clip850)" style="stroke:#000000; stroke-linecap:round; stroke-linejoin:round; stroke-width:4; stroke-opacity:1; fill:none" points="167.977,73.6247 186.875,73.6247 "/>
<path clip-path="url(#clip850)" d="M124.353 1186.94 Q120.742 1186.94 118.913 1190.51 Q117.108 1194.05 117.108 1201.18 Q117.108 1208.29 118.913 1211.85 Q120.742 1215.39 124.353 1215.39 Q127.987 1215.39 129.793 1211.85 Q131.622 1208.29 131.622 1201.18 Q131.622 1194.05 129.793 1190.51 Q127.987 1186.94 124.353 1186.94 M124.353 1183.24 Q130.163 1183.24 133.219 1187.85 Q136.297 1192.43 136.297 1201.18 Q136.297 1209.91 133.219 1214.51 Q130.163 1219.1 124.353 1219.1 Q118.543 1219.1 115.464 1214.51 Q112.409 1209.91 112.409 1201.18 Q112.409 1192.43 115.464 1187.85 Q118.543 1183.24 124.353 1183.24 Z" fill="#000000" fill-rule="nonzero" fill-opacity="1" /><path clip-path="url(#clip850)" d="M54.8395 838.65 L62.4784 838.65 L62.4784 812.284 L54.1682 813.951 L54.1682 809.692 L62.4321 808.025 L67.108 808.025 L67.108 838.65 L74.7468 838.65 L74.7468 842.585 L54.8395 842.585 L54.8395 838.65 Z" fill="#000000" fill-rule="nonzero" fill-opacity="1" /><path clip-path="url(#clip850)" d="M94.1912 811.104 Q90.5801 811.104 88.7514 814.669 Q86.9458 818.21 86.9458 825.34 Q86.9458 832.446 88.7514 836.011 Q90.5801 839.553 94.1912 839.553 Q97.8254 839.553 99.6309 836.011 Q101.46 832.446 101.46 825.34 Q101.46 818.21 99.6309 814.669 Q97.8254 811.104 94.1912 811.104 M94.1912 807.4 Q100.001 807.4 103.057 812.007 Q106.136 816.59 106.136 825.34 Q106.136 834.067 103.057 838.673 Q100.001 843.256 94.1912 843.256 Q88.381 843.256 85.3023 838.673 Q82.2468 834.067 82.2468 825.34 Q82.2468 816.59 85.3023 812.007 Q88.381 807.4 94.1912 807.4 Z" fill="#000000" fill-rule="nonzero" fill-opacity="1" /><path clip-path="url(#clip850)" d="M124.353 811.104 Q120.742 811.104 118.913 814.669 Q117.108 818.21 117.108 825.34 Q117.108 832.446 118.913 836.011 Q120.742 839.553 124.353 839.553 Q127.987 839.553 129.793 836.011 Q131.622 832.446 131.622 825.34 Q131.622 818.21 129.793 814.669 Q127.987 811.104 124.353 811.104 M124.353 807.4 Q130.163 807.4 133.219 812.007 Q136.297 816.59 136.297 825.34 Q136.297 834.067 133.219 838.673 Q130.163 843.256 124.353 843.256 Q118.543 843.256 115.464 838.673 Q112.409 834.067 112.409 825.34 Q112.409 816.59 115.464 812.007 Q118.543 807.4 124.353 807.4 Z" fill="#000000" fill-rule="nonzero" fill-opacity="1" /><path clip-path="url(#clip850)" d="M58.0571 462.81 L74.3765 462.81 L74.3765 466.745 L52.4321 466.745 L52.4321 462.81 Q55.0941 460.055 59.6775 455.426 Q64.2839 450.773 65.4645 449.43 Q67.7098 446.907 68.5894 445.171 Q69.4922 443.412 69.4922 441.722 Q69.4922 438.967 67.5478 437.231 Q65.6265 435.495 62.5247 435.495 Q60.3256 435.495 57.8719 436.259 Q55.4414 437.023 52.6636 438.574 L52.6636 433.852 Q55.4877 432.717 57.9414 432.139 Q60.395 431.56 62.4321 431.56 Q67.8024 431.56 70.9968 434.245 Q74.1913 436.93 74.1913 441.421 Q74.1913 443.551 73.3811 445.472 Q72.5941 447.37 70.4876 449.963 Q69.9089 450.634 66.807 453.851 Q63.7052 457.046 58.0571 462.81 Z" fill="#000000" fill-rule="nonzero" fill-opacity="1" /><path clip-path="url(#clip850)" d="M94.1912 435.264 Q90.5801 435.264 88.7514 438.828 Q86.9458 442.37 86.9458 449.5 Q86.9458 456.606 88.7514 460.171 Q90.5801 463.713 94.1912 463.713 Q97.8254 463.713 99.6309 460.171 Q101.46 456.606 101.46 449.5 Q101.46 442.37 99.6309 438.828 Q97.8254 435.264 94.1912 435.264 M94.1912 431.56 Q100.001 431.56 103.057 436.166 Q106.136 440.75 106.136 449.5 Q106.136 458.226 103.057 462.833 Q100.001 467.416 94.1912 467.416 Q88.381 467.416 85.3023 462.833 Q82.2468 458.226 82.2468 449.5 Q82.2468 440.75 85.3023 436.166 Q88.381 431.56 94.1912 431.56 Z" fill="#000000" fill-rule="nonzero" fill-opacity="1" /><path clip-path="url(#clip850)" d="M124.353 435.264 Q120.742 435.264 118.913 438.828 Q117.108 442.37 117.108 449.5 Q117.108 456.606 118.913 460.171 Q120.742 463.713 124.353 463.713 Q127.987 463.713 129.793 460.171 Q131.622 456.606 131.622 449.5 Q131.622 442.37 129.793 438.828 Q127.987 435.264 124.353 435.264 M124.353 431.56 Q130.163 431.56 133.219 436.166 Q136.297 440.75 136.297 449.5 Q136.297 458.226 133.219 462.833 Q130.163 467.416 124.353 467.416 Q118.543 467.416 115.464 462.833 Q112.409 458.226 112.409 449.5 Q112.409 440.75 115.464 436.166 Q118.543 431.56 124.353 431.56 Z" fill="#000000" fill-rule="nonzero" fill-opacity="1" /><path clip-path="url(#clip850)" d="M68.1959 72.2705 Q71.5524 72.9881 73.4274 75.2566 Q75.3255 77.5251 75.3255 80.8585 Q75.3255 85.9742 71.807 88.7751 Q68.2885 91.576 61.8071 91.576 Q59.6312 91.576 57.3164 91.1362 Q55.0247 90.7195 52.571 89.863 L52.571 85.3492 Q54.5154 86.4834 56.8303 87.0621 Q59.1451 87.6408 61.6682 87.6408 Q66.0663 87.6408 68.358 85.9047 Q70.6728 84.1686 70.6728 80.8585 Q70.6728 77.8029 68.52 76.09 Q66.3904 74.3539 62.571 74.3539 L58.5432 74.3539 L58.5432 70.5113 L62.7561 70.5113 Q66.2052 70.5113 68.0339 69.1456 Q69.8626 67.7567 69.8626 65.1641 Q69.8626 62.5021 67.9645 61.09 Q66.0895 59.6549 62.571 59.6549 Q60.6497 59.6549 58.4506 60.0715 Q56.2515 60.4882 53.6127 61.3678 L53.6127 57.2012 Q56.2747 56.4604 58.5895 56.0901 Q60.9275 55.7197 62.9876 55.7197 Q68.3117 55.7197 71.4135 58.1502 Q74.5153 60.5576 74.5153 64.678 Q74.5153 67.5483 72.8718 69.5391 Q71.2283 71.5067 68.1959 72.2705 Z" fill="#000000" fill-rule="nonzero" fill-opacity="1" /><path clip-path="url(#clip850)" d="M94.1912 59.4234 Q90.5801 59.4234 88.7514 62.9882 Q86.9458 66.5298 86.9458 73.6594 Q86.9458 80.7659 88.7514 84.3307 Q90.5801 87.8723 94.1912 87.8723 Q97.8254 87.8723 99.6309 84.3307 Q101.46 80.7659 101.46 73.6594 Q101.46 66.5298 99.6309 62.9882 Q97.8254 59.4234 94.1912 59.4234 M94.1912 55.7197 Q100.001 55.7197 103.057 60.3262 Q106.136 64.9095 106.136 73.6594 Q106.136 82.3862 103.057 86.9927 Q100.001 91.576 94.1912 91.576 Q88.381 91.576 85.3023 86.9927 Q82.2468 82.3862 82.2468 73.6594 Q82.2468 64.9095 85.3023 60.3262 Q88.381 55.7197 94.1912 55.7197 Z" fill="#000000" fill-rule="nonzero" fill-opacity="1" /><path clip-path="url(#clip850)" d="M124.353 59.4234 Q120.742 59.4234 118.913 62.9882 Q117.108 66.5298 117.108 73.6594 Q117.108 80.7659 118.913 84.3307 Q120.742 87.8723 124.353 87.8723 Q127.987 87.8723 129.793 84.3307 Q131.622 80.7659 131.622 73.6594 Q131.622 66.5298 129.793 62.9882 Q127.987 59.4234 124.353 59.4234 M124.353 55.7197 Q130.163 55.7197 133.219 60.3262 Q136.297 64.9095 136.297 73.6594 Q136.297 82.3862 133.219 86.9927 Q130.163 91.576 124.353 91.576 Q118.543 91.576 115.464 86.9927 Q112.409 82.3862 112.409 73.6594 Q112.409 64.9095 115.464 60.3262 Q118.543 55.7197 124.353 55.7197 Z" fill="#000000" fill-rule="nonzero" fill-opacity="1" /><polyline clip-path="url(#clip852)" style="stroke:#009af9; stroke-linecap:round; stroke-linejoin:round; stroke-width:4; stroke-opacity:1; fill:none" points="221.66,1200.97 224.642,1198.55 227.625,1196.77 230.607,1193.85 233.589,1190.26 236.572,1186.99 239.554,1184.47 242.536,1182.76 245.519,1180.4 248.501,1178.39 251.483,1176.85 254.466,1173.19 257.448,1170.55 260.43,1166.95 263.413,1164.79 266.395,1164.04 269.378,1160.86 272.36,1159 275.342,1155.89 278.325,1155.29 281.307,1151.58 284.289,1149.78 287.272,1147.51 290.254,1146.83 293.236,1145.42 296.219,1142.91 299.201,1139.86 302.183,1139.71 305.166,1137.16 308.148,1135.68 311.131,1133.1 314.113,1130.64 317.095,1130.21 320.078,1127.15 323.06,1126.13 326.042,1123.74 329.025,1121.14 332.007,1119.81 334.989,1119.62 337.972,1116.13 340.954,1114.96 343.936,1113.88 346.919,1112.44 349.901,1110.75 352.883,1108.01 355.866,1107.53 358.848,1105.95 361.831,1103.13 364.813,1101.6 367.795,1101.06 370.778,1098.8 373.76,1096.99 376.742,1094.04 379.725,1091.55 382.707,1090.17 385.689,1089.96 388.672,1089.2 391.654,1088.48 394.636,1087.1 397.619,1085.37 400.601,1083.34 403.584,1079.83 406.566,1077.51 409.548,1075.71 412.531,1073.51 415.513,1072.16 418.495,1070.07 421.478,1069.19 424.46,1067.07 427.442,1066.37 430.425,1065.19 433.407,1063.58 436.389,1060.2 439.372,1057.05 442.354,1053.65 445.337,1051.72 448.319,1051.12 451.301,1049.08 454.284,1048.28 457.266,1045.8 460.248,1045.67 463.231,1042.22 466.213,1041.38 469.195,1039.8 472.178,1036.86 475.16,1034.87 478.142,1031.79 481.125,1029.44 484.107,1029.26 487.09,1028.67 490.072,1026.06 493.054,1024.68 496.037,1022.35 499.019,1021.4 502.001,1021.17 504.984,1019.78 507.966,1019.56 510.948,1016.48 513.931,1014.82 516.913,1011.99 519.895,1009.31 522.878,1008.48 525.86,1008.25 528.843,1004.68 531.825,1002.46 534.807,999.408 537.79,999.379 540.772,999.117 543.754,999.069 546.737,996.171 549.719,995.566 552.701,991.951 555.684,991.483 558.666,989.586 561.648,986.687 564.631,985.051 567.613,984.648 570.595,981.354 573.578,979.16 576.56,978.592 579.543,977.191 582.525,973.918 585.507,970.457 588.49,969.694 591.472,969.534 594.454,966.567 597.437,965.469 600.419,963.725 603.401,960.183 606.384,958.194 609.366,955.051 612.348,952.906 615.331,951.214 618.313,949.261 621.296,946.596 624.278,943.437 627.26,940.173 630.243,936.86 633.225,934.974 636.207,933.248 639.19,930.988 642.172,928.174 645.154,926.086 648.137,925.202 651.119,924.315 654.101,922.409 657.084,919.585 660.066,918.153 663.049,916.675 666.031,913.197 669.013,912.912 671.996,912.453 674.978,911.771 677.96,908.788 680.943,908.61 683.925,905.648 686.907,902.171 689.89,901.679 692.872,899.769 695.854,898.422 698.837,896.985 701.819,893.503 704.802,891.574 707.784,888.968 710.766,886.503 713.749,884.337 716.731,881.989 719.713,879.91 722.696,877.467 725.678,876.055 728.66,873.463 731.643,872.52 734.625,870.452 737.607,869.634 740.59,868.112 743.572,867.298 746.555,865.448 749.537,862.396 752.519,860.223 755.502,856.524 758.484,854.567 761.466,850.839 764.449,848.196 767.431,847.419 770.413,844.168 773.396,842.872 776.378,841.579 779.36,839.543 782.343,836.895 785.325,835.21 788.307,833.005 791.29,831.071 794.272,830.286 797.255,829.356 800.237,826.765 803.219,824.456 806.202,823.787 809.184,820.797 812.166,820.55 815.149,817.303 818.131,816.593 821.113,816.118 824.096,813.478 827.078,812.373 830.06,810.909 833.043,809.267 836.025,805.914 839.008,804.131 841.99,800.782 844.972,797.863 847.955,794.714 850.937,793.767 853.919,792.084 856.902,789.708 859.884,789.311 862.866,785.937 865.849,785.259 868.831,785.222 871.813,784.806 874.796,783.092 877.778,780.602 880.761,778.859 883.743,778.742 886.725,777.904 889.708,774.372 892.69,774.349 895.672,773.949 898.655,772.299 901.637,771.997 904.619,770.459 907.602,768.36 910.584,767.78 913.566,765.202 916.549,764.606 919.531,761.766 922.514,761.445 925.496,760.905 928.478,760.285 931.461,756.734 934.443,754.013 937.425,753.597 940.408,753.522 943.39,752.112 946.372,750.122 949.355,749.145 952.337,746.6 955.319,746.59 958.302,744.793 961.284,744.012 964.266,742.654 967.249,741.433 970.231,738.881 973.214,738.115 976.196,737.56 979.178,736.641 982.161,734.58 985.143,732.923 988.125,731.51 991.108,730.155 994.09,726.444 997.072,725.466 1000.05,724.835 1003.04,724.13 1006.02,721.06 1009,717.687 1011.98,714.779 1014.97,714.679 1017.95,714.413 1020.93,713.416 1023.91,713.04 1026.9,710.48 1029.88,708.895 1032.86,708.251 1035.84,705.755 1038.83,703.286 1041.81,701.966 1044.79,698.596 1047.77,697.172 1050.75,696.121 1053.74,694.894 1056.72,694.892 1059.7,693.799 1062.68,691.453 1065.67,689.999 1068.65,688.817 1071.63,688.197 1074.61,685.296 1077.6,685.048 1080.58,684.278 1083.56,681.33 1086.54,681.135 1089.53,681.004 1092.51,678.72 1095.49,678.326 1098.47,678.19 1101.45,674.619 1104.44,672.129 1107.42,670.156 1110.4,668.762 1113.38,668.71 1116.37,668.65 1119.35,666.915 1122.33,663.332 1125.31,662.803 1128.3,662.7 1131.28,662.693 1134.26,659.29 1137.24,656.929 1140.23,654.661 1143.21,651.82 1146.19,648.885 1149.17,646.062 1152.15,643.44 1155.14,642.633 1158.12,641.396 1161.1,639.041 1164.08,635.718 1167.07,634.212 1170.05,632.296 1173.03,630.553 1176.01,627.072 1179,623.317 1181.98,621.511 1184.96,619.871 1187.94,616.816 1190.93,613.222 1193.91,611.028 1196.89,609.992 1199.87,609.096 1202.85,607.387 1205.84,604.411 1208.82,602.332 1211.8,598.811 1214.78,595.645 1217.77,595.056 1220.75,594.555 1223.73,592.691 1226.71,591.265 1229.7,590.038 1232.68,587.656 1235.66,584.031 1238.64,582.36 1241.63,580.31 1244.61,577.781 1247.59,574.64 1250.57,572.552 1253.56,569.24 1256.54,569.018 1259.52,567.933 1262.5,565.596 1265.48,564.857 1268.47,562.478 1271.45,560.672 1274.43,559.698 1277.41,558.278 1280.4,557.394 1283.38,555.29 1286.36,553.45 1289.34,549.886 1292.33,547.107 1295.31,544.938 1298.29,543.519 1301.27,541.312 1304.26,539.364 1307.24,537.511 1310.22,534.844 1313.2,532.986 1316.18,530.339 1319.17,527.215 1322.15,523.861 1325.13,521.795 1328.11,521.504 1331.1,519.921 1334.08,516.697 1337.06,514.174 1340.04,513.588 1343.03,513.198 1346.01,511.846 1348.99,511.195 1351.97,508.254 1354.96,506.905 1357.94,505.618 1360.92,504.055 1363.9,503.103 1366.88,501.604 1369.87,498.799 1372.85,497.91 1375.83,494.51 1378.81,492.47 1381.8,488.834 1384.78,485.948 1387.76,484.879 1390.74,483.353 1393.73,480.828 1396.71,479.922 1399.69,478.572 1402.67,474.863 1405.66,473.218 1408.64,472.952 1411.62,471.922 1414.6,471.096 1417.58,470.465 1420.57,469.119 1423.55,467.695 1426.53,466.82 1429.51,465.566 1432.5,463.738 1435.48,462.371 1438.46,459.09 1441.44,458.612 1444.43,456.745 1447.41,454.793 1450.39,451.566 1453.37,447.83 1456.36,444.536 1459.34,443.713 1462.32,440.075 1465.3,438.602 1468.28,435.429 1471.27,431.754 1474.25,430.114 1477.23,429.296 1480.21,426.418 1483.2,425.926 1486.18,422.829 1489.16,422.082 1492.14,419.251 1495.13,417.148 1498.11,415.804 1501.09,413.038 1504.07,412.596 1507.06,410.746 1510.04,408.051 1513.02,405.654 1516,403.771 1518.98,401.858 1521.97,400.171 1524.95,397.408 1527.93,395.597 1530.91,395.317 1533.9,392.68 1536.88,391.959 1539.86,389.214 1542.84,385.991 1545.83,383.431 1548.81,381.673 1551.79,378.005 1554.77,376.08 1557.76,374.678 1560.74,373.79 1563.72,370.636 1566.7,370.617 1569.68,367.534 1572.67,366.138 1575.65,366.026 1578.63,365.44 1581.61,365.264 1584.6,364.044 1587.58,361.876 1590.56,358.618 1593.54,356.768 1596.53,354.01 1599.51,353.62 1602.49,350.808 1605.47,350.21 1608.46,348.544 1611.44,347.121 1614.42,343.822 1617.4,342.708 1620.38,341.722 1623.37,339.234 1626.35,336.269 1629.33,336.183 1632.31,332.888 1635.3,329.483 1638.28,326.7 1641.26,323.68 1644.24,322.555 1647.23,322.532 1650.21,321.075 1653.19,320.645 1656.17,317.524 1659.16,316.316 1662.14,314.176 1665.12,310.865 1668.1,310.855 1671.08,307.559 1674.07,304.894 1677.05,302.755 1680.03,302.7 1683.01,302.684 1686,299.003 1688.98,296.296 1691.96,292.76 1694.94,289.032 1697.93,286.21 1700.91,285.575 1703.89,282.416 1706.87,282.401 1709.86,278.87 1712.84,276.25 1715.82,276.192 1718.8,274.294 1721.78,272.194 1724.77,268.746 1727.75,266.675 1730.73,264.139 1733.71,263.402 1736.7,260.021 1739.68,259.063 1742.66,258.694 1745.64,255.836 1748.63,253.992 1751.61,252.859 1754.59,249.596 1757.57,249.051 1760.56,245.499 1763.54,242.705 1766.52,240.666 1769.5,238.566 1772.49,236.131 1775.47,233.777 1778.45,230.993 1781.43,228.521 1784.41,226.385 1787.4,225.067 1790.38,222.519 1793.36,221.768 1796.34,220.79 1799.33,218.352 1802.31,216.546 1805.29,212.934 1808.27,212.087 1811.26,209.883 1814.24,208.376 1817.22,205.852 1820.2,203.979 1823.19,203.328 1826.17,202.748 1829.15,200.582 1832.13,198.214 1835.11,198.104 1838.1,195.167 1841.08,192.486 1844.06,189.252 1847.04,188.901 1850.03,187.467 1853.01,183.871 1855.99,181.252 1858.97,177.888 1861.96,175.357 1864.94,174.675 1867.92,174.195 1870.9,173.831 1873.89,173.453 1876.87,171.977 1879.85,169.692 1882.83,166.033 1885.81,164.23 1888.8,161.104 1891.78,159.828 1894.76,158.439 1897.74,156.87 1900.73,155.239 1903.71,155.03 1906.69,151.42 1909.67,148.297 1912.66,147.874 1915.64,145.391 1918.62,144.883 1921.6,142.975 1924.59,140.762 1927.57,137.151 1930.55,134.127 1933.53,132.444 1936.51,131.677 1939.5,131.064 1942.48,128.997 1945.46,125.892 1948.44,124.466 1951.43,120.826 1954.41,118.459 1957.39,118.031 1960.37,114.78 1963.36,111.484 1966.34,111.403 1969.32,109.804 1972.3,108.244 1975.29,105.789 1978.27,102.928 1981.25,102.134 1984.23,99.4743 1987.21,95.8522 1990.2,95.8369 1993.18,92.3703 1996.16,89.593 1999.14,88.3223 2002.13,86.2969 2005.11,84.9414 2008.09,81.7362 2011.07,80.8479 "/>
<path clip-path="url(#clip850)" d="M231.203 190.502 L473.311 190.502 L473.311 86.8219 L231.203 86.8219  Z" fill="#ffffff" fill-rule="evenodd" fill-opacity="1"/>
<polyline clip-path="url(#clip850)" style="stroke:#000000; stroke-linecap:round; stroke-linejoin:round; stroke-width:4; stroke-opacity:1; fill:none" points="231.203,190.502 473.311,190.502 473.311,86.8219 231.203,86.8219 231.203,190.502 "/>
<polyline clip-path="url(#clip850)" style="stroke:#009af9; stroke-linecap:round; stroke-linejoin:round; stroke-width:4; stroke-opacity:1; fill:none" points="252.279,138.662 378.731,138.662 "/>
<path clip-path="url(#clip850)" d="M413.648 158.349 Q411.843 162.979 410.13 164.391 Q408.417 165.803 405.547 165.803 L402.144 165.803 L402.144 162.238 L404.644 162.238 Q406.403 162.238 407.375 161.405 Q408.348 160.572 409.528 157.47 L410.292 155.525 L399.806 130.016 L404.32 130.016 L412.422 150.294 L420.523 130.016 L425.037 130.016 L413.648 158.349 Z" fill="#000000" fill-rule="nonzero" fill-opacity="1" /><path clip-path="url(#clip850)" d="M432.329 152.007 L439.968 152.007 L439.968 125.641 L431.658 127.308 L431.658 123.049 L439.921 121.382 L444.597 121.382 L444.597 152.007 L452.236 152.007 L452.236 155.942 L432.329 155.942 L432.329 152.007 Z" fill="#000000" fill-rule="nonzero" fill-opacity="1" /></svg>
