<?xml version="1.0" encoding="utf-8"?>
<svg xmlns="http://www.w3.org/2000/svg" xmlns:xlink="http://www.w3.org/1999/xlink" width="528" height="336" viewBox="0 0 2112 1344">
<defs>
  <clipPath id="clip780">
    <rect x="0" y="0" width="2112" height="1344"/>
  </clipPath>
</defs>
<path clip-path="url(#clip780)" d="M0 1344 L2112 1344 L2112 0 L0 0  Z" fill="#ffffff" fill-rule="evenodd" fill-opacity="1"/>
<defs>
  <clipPath id="clip781">
    <rect x="422" y="0" width="1479" height="1344"/>
  </clipPath>
</defs>
<path clip-path="url(#clip780)" d="M183.394 1234.58 L2064.76 1234.58 L2064.76 47.2441 L183.394 47.2441  Z" fill="#ffffff" fill-rule="evenodd" fill-opacity="1"/>
<defs>
  <clipPath id="clip782">
    <rect x="183" y="47" width="1882" height="1188"/>
  </clipPath>
</defs>
<polyline clip-path="url(#clip782)" style="stroke:#000000; stroke-linecap:round; stroke-linejoin:round; stroke-width:2; stroke-opacity:0.1; fill:none" points="236.64,1234.58 236.64,47.2441 "/>
<polyline clip-path="url(#clip782)" style="stroke:#000000; stroke-linecap:round; stroke-linejoin:round; stroke-width:2; stroke-opacity:0.1; fill:none" points="532.452,1234.58 532.452,47.2441 "/>
<polyline clip-path="url(#clip782)" style="stroke:#000000; stroke-linecap:round; stroke-linejoin:round; stroke-width:2; stroke-opacity:0.1; fill:none" points="828.263,1234.58 828.263,47.2441 "/>
<polyline clip-path="url(#clip782)" style="stroke:#000000; stroke-linecap:round; stroke-linejoin:round; stroke-width:2; stroke-opacity:0.1; fill:none" points="1124.07,1234.58 1124.07,47.2441 "/>
<polyline clip-path="url(#clip782)" style="stroke:#000000; stroke-linecap:round; stroke-linejoin:round; stroke-width:2; stroke-opacity:0.1; fill:none" points="1419.89,1234.58 1419.89,47.2441 "/>
<polyline clip-path="url(#clip782)" style="stroke:#000000; stroke-linecap:round; stroke-linejoin:round; stroke-width:2; stroke-opacity:0.1; fill:none" points="1715.7,1234.58 1715.7,47.2441 "/>
<polyline clip-path="url(#clip782)" style="stroke:#000000; stroke-linecap:round; stroke-linejoin:round; stroke-width:2; stroke-opacity:0.1; fill:none" points="2011.51,1234.58 2011.51,47.2441 "/>
<polyline clip-path="url(#clip780)" style="stroke:#000000; stroke-linecap:round; stroke-linejoin:round; stroke-width:4; stroke-opacity:1; fill:none" points="183.394,1234.58 2064.76,1234.58 "/>
<polyline clip-path="url(#clip780)" style="stroke:#000000; stroke-linecap:round; stroke-linejoin:round; stroke-width:4; stroke-opacity:1; fill:none" points="236.64,1234.58 236.64,1215.68 "/>
<polyline clip-path="url(#clip780)" style="stroke:#000000; stroke-linecap:round; stroke-linejoin:round; stroke-width:4; stroke-opacity:1; fill:none" points="532.452,1234.58 532.452,1215.68 "/>
<polyline clip-path="url(#clip780)" style="stroke:#000000; stroke-linecap:round; stroke-linejoin:round; stroke-width:4; stroke-opacity:1; fill:none" points="828.263,1234.58 828.263,1215.68 "/>
<polyline clip-path="url(#clip780)" style="stroke:#000000; stroke-linecap:round; stroke-linejoin:round; stroke-width:4; stroke-opacity:1; fill:none" points="1124.07,1234.58 1124.07,1215.68 "/>
<polyline clip-path="url(#clip780)" style="stroke:#000000; stroke-linecap:round; stroke-linejoin:round; stroke-width:4; stroke-opacity:1; fill:none" points="1419.89,1234.58 1419.89,1215.68 "/>
<polyline clip-path="url(#clip780)" style="stroke:#000000; stroke-linecap:round; stroke-linejoin:round; stroke-width:4; stroke-opacity:1; fill:none" points="1715.7,1234.58 1715.7,1215.68 "/>
<polyline clip-path="url(#clip780)" style="stroke:#000000; stroke-linecap:round; stroke-linejoin:round; stroke-width:4; stroke-opacity:1; fill:none" points="2011.51,1234.58 2011.51,1215.68 "/>
<path clip-path="url(#clip780)" d="M206.108 1277.85 L235.784 1277.85 L235.784 1281.78 L206.108 1281.78 L206.108 1277.85 Z" fill="#000000" fill-rule="nonzero" fill-opacity="1" /><path clip-path="url(#clip780)" d="M260.043 1276.04 Q263.399 1276.76 265.274 1279.03 Q267.172 1281.3 267.172 1284.63 Q267.172 1289.74 263.654 1292.55 Q260.135 1295.35 253.654 1295.35 Q251.478 1295.35 249.163 1294.91 Q246.872 1294.49 244.418 1293.63 L244.418 1289.12 Q246.362 1290.25 248.677 1290.83 Q250.992 1291.41 253.515 1291.41 Q257.913 1291.41 260.205 1289.67 Q262.52 1287.94 262.52 1284.63 Q262.52 1281.57 260.367 1279.86 Q258.237 1278.12 254.418 1278.12 L250.39 1278.12 L250.39 1274.28 L254.603 1274.28 Q258.052 1274.28 259.881 1272.92 Q261.709 1271.53 261.709 1268.93 Q261.709 1266.27 259.811 1264.86 Q257.936 1263.42 254.418 1263.42 Q252.496 1263.42 250.297 1263.84 Q248.098 1264.26 245.459 1265.14 L245.459 1260.97 Q248.122 1260.23 250.436 1259.86 Q252.774 1259.49 254.834 1259.49 Q260.158 1259.49 263.26 1261.92 Q266.362 1264.33 266.362 1268.45 Q266.362 1271.32 264.719 1273.31 Q263.075 1275.28 260.043 1276.04 Z" fill="#000000" fill-rule="nonzero" fill-opacity="1" /><path clip-path="url(#clip780)" d="M502.394 1277.85 L532.07 1277.85 L532.07 1281.78 L502.394 1281.78 L502.394 1277.85 Z" fill="#000000" fill-rule="nonzero" fill-opacity="1" /><path clip-path="url(#clip780)" d="M546.19 1290.74 L562.509 1290.74 L562.509 1294.67 L540.565 1294.67 L540.565 1290.74 Q543.227 1287.99 547.81 1283.36 Q552.417 1278.7 553.597 1277.36 Q555.843 1274.84 556.722 1273.1 Q557.625 1271.34 557.625 1269.65 Q557.625 1266.9 555.681 1265.16 Q553.759 1263.42 550.658 1263.42 Q548.459 1263.42 546.005 1264.19 Q543.574 1264.95 540.797 1266.5 L540.797 1261.78 Q543.621 1260.65 546.074 1260.07 Q548.528 1259.49 550.565 1259.49 Q555.935 1259.49 559.13 1262.17 Q562.324 1264.86 562.324 1269.35 Q562.324 1271.48 561.514 1273.4 Q560.727 1275.3 558.621 1277.89 Q558.042 1278.56 554.94 1281.78 Q551.838 1284.98 546.19 1290.74 Z" fill="#000000" fill-rule="nonzero" fill-opacity="1" /><path clip-path="url(#clip780)" d="M798.02 1277.85 L827.696 1277.85 L827.696 1281.78 L798.02 1281.78 L798.02 1277.85 Z" fill="#000000" fill-rule="nonzero" fill-opacity="1" /><path clip-path="url(#clip780)" d="M838.599 1290.74 L846.238 1290.74 L846.238 1264.37 L837.928 1266.04 L837.928 1261.78 L846.191 1260.11 L850.867 1260.11 L850.867 1290.74 L858.506 1290.74 L858.506 1294.67 L838.599 1294.67 L838.599 1290.74 Z" fill="#000000" fill-rule="nonzero" fill-opacity="1" /><path clip-path="url(#clip780)" d="M1124.07 1263.19 Q1120.46 1263.19 1118.64 1266.76 Q1116.83 1270.3 1116.83 1277.43 Q1116.83 1284.54 1118.64 1288.1 Q1120.46 1291.64 1124.07 1291.64 Q1127.71 1291.64 1129.51 1288.1 Q1131.34 1284.54 1131.34 1277.43 Q1131.34 1270.3 1129.51 1266.76 Q1127.71 1263.19 1124.07 1263.19 M1124.07 1259.49 Q1129.89 1259.49 1132.94 1264.1 Q1136.02 1268.68 1136.02 1277.43 Q1136.02 1286.16 1132.94 1290.76 Q1129.89 1295.35 1124.07 1295.35 Q1118.26 1295.35 1115.19 1290.76 Q1112.13 1286.16 1112.13 1277.43 Q1112.13 1268.68 1115.19 1264.1 Q1118.26 1259.49 1124.07 1259.49 Z" fill="#000000" fill-rule="nonzero" fill-opacity="1" /><path clip-path="url(#clip780)" d="M1410.27 1290.74 L1417.91 1290.74 L1417.91 1264.37 L1409.6 1266.04 L1409.6 1261.78 L1417.86 1260.11 L1422.54 1260.11 L1422.54 1290.74 L1430.18 1290.74 L1430.18 1294.67 L1410.27 1294.67 L1410.27 1290.74 Z" fill="#000000" fill-rule="nonzero" fill-opacity="1" /><path clip-path="url(#clip780)" d="M1710.35 1290.74 L1726.67 1290.74 L1726.67 1294.67 L1704.73 1294.67 L1704.73 1290.74 Q1707.39 1287.99 1711.97 1283.36 Q1716.58 1278.7 1717.76 1277.36 Q1720 1274.84 1720.88 1273.1 Q1721.79 1271.34 1721.79 1269.65 Q1721.79 1266.9 1719.84 1265.16 Q1717.92 1263.42 1714.82 1263.42 Q1712.62 1263.42 1710.17 1264.19 Q1707.74 1264.95 1704.96 1266.5 L1704.96 1261.78 Q1707.78 1260.65 1710.24 1260.07 Q1712.69 1259.49 1714.73 1259.49 Q1720.1 1259.49 1723.29 1262.17 Q1726.49 1264.86 1726.49 1269.35 Q1726.49 1271.48 1725.67 1273.4 Q1724.89 1275.3 1722.78 1277.89 Q1722.2 1278.56 1719.1 1281.78 Q1716 1284.98 1710.35 1290.74 Z" fill="#000000" fill-rule="nonzero" fill-opacity="1" /><path clip-path="url(#clip780)" d="M2015.76 1276.04 Q2019.11 1276.76 2020.99 1279.03 Q2022.89 1281.3 2022.89 1284.63 Q2022.89 1289.74 2019.37 1292.55 Q2015.85 1295.35 2009.37 1295.35 Q2007.19 1295.35 2004.88 1294.91 Q2002.59 1294.49 2000.13 1293.63 L2000.13 1289.12 Q2002.08 1290.25 2004.39 1290.83 Q2006.71 1291.41 2009.23 1291.41 Q2013.63 1291.41 2015.92 1289.67 Q2018.23 1287.94 2018.23 1284.63 Q2018.23 1281.57 2016.08 1279.86 Q2013.95 1278.12 2010.13 1278.12 L2006.1 1278.12 L2006.1 1274.28 L2010.32 1274.28 Q2013.77 1274.28 2015.6 1272.92 Q2017.42 1271.53 2017.42 1268.93 Q2017.42 1266.27 2015.53 1264.86 Q2013.65 1263.42 2010.13 1263.42 Q2008.21 1263.42 2006.01 1263.84 Q2003.81 1264.26 2001.17 1265.14 L2001.17 1260.97 Q2003.84 1260.23 2006.15 1259.86 Q2008.49 1259.49 2010.55 1259.49 Q2015.87 1259.49 2018.98 1261.92 Q2022.08 1264.33 2022.08 1268.45 Q2022.08 1271.32 2020.43 1273.31 Q2018.79 1275.28 2015.76 1276.04 Z" fill="#000000" fill-rule="nonzero" fill-opacity="1" /><polyline clip-path="url(#clip782)" style="stroke:#000000; stroke-linecap:round; stroke-linejoin:round; stroke-width:2; stroke-opacity:0.1; fill:none" points="183.394,1206.47 2064.76,1206.47 "/>
<polyline clip-path="url(#clip782)" style="stroke:#000000; stroke-linecap:round; stroke-linejoin:round; stroke-width:2; stroke-opacity:0.1; fill:none" points="183.394,924.706 2064.76,924.706 "/>
<polyline clip-path="url(#clip782)" style="stroke:#000000; stroke-linecap:round; stroke-linejoin:round; stroke-width:2; stroke-opacity:0.1; fill:none" points="183.394,642.943 2064.76,642.943 "/>
<polyline clip-path="url(#clip782)" style="stroke:#000000; stroke-linecap:round; stroke-linejoin:round; stroke-width:2; stroke-opacity:0.1; fill:none" points="183.394,361.181 2064.76,361.181 "/>
<polyline clip-path="url(#clip782)" style="stroke:#000000; stroke-linecap:round; stroke-linejoin:round; stroke-width:2; stroke-opacity:0.1; fill:none" points="183.394,79.4179 2064.76,79.4179 "/>
<polyline clip-path="url(#clip780)" style="stroke:#000000; stroke-linecap:round; stroke-linejoin:round; stroke-width:4; stroke-opacity:1; fill:none" points="183.394,1234.58 183.394,47.2441 "/>
<polyline clip-path="url(#clip780)" style="stroke:#000000; stroke-linecap:round; stroke-linejoin:round; stroke-width:4; stroke-opacity:1; fill:none" points="183.394,1206.47 202.292,1206.47 "/>
<polyline clip-path="url(#clip780)" style="stroke:#000000; stroke-linecap:round; stroke-linejoin:round; stroke-width:4; stroke-opacity:1; fill:none" points="183.394,924.706 202.292,924.706 "/>
<polyline clip-path="url(#clip780)" style="stroke:#000000; stroke-linecap:round; stroke-linejoin:round; stroke-width:4; stroke-opacity:1; fill:none" points="183.394,642.943 202.292,642.943 "/>
<polyline clip-path="url(#clip780)" style="stroke:#000000; stroke-linecap:round; stroke-linejoin:round; stroke-width:4; stroke-opacity:1; fill:none" points="183.394,361.181 202.292,361.181 "/>
<polyline clip-path="url(#clip780)" style="stroke:#000000; stroke-linecap:round; stroke-linejoin:round; stroke-width:4; stroke-opacity:1; fill:none" points="183.394,79.4179 202.292,79.4179 "/>
<path clip-path="url(#clip780)" d="M64.3765 1192.27 Q60.7654 1192.27 58.9367 1195.83 Q57.1312 1199.37 57.1312 1206.5 Q57.1312 1213.61 58.9367 1217.17 Q60.7654 1220.72 64.3765 1220.72 Q68.0107 1220.72 69.8163 1217.17 Q71.645 1213.61 71.645 1206.5 Q71.645 1199.37 69.8163 1195.83 Q68.0107 1192.27 64.3765 1192.27 M64.3765 1188.56 Q70.1867 1188.56 73.2422 1193.17 Q76.3209 1197.75 76.3209 1206.5 Q76.3209 1215.23 73.2422 1219.84 Q70.1867 1224.42 64.3765 1224.42 Q58.5664 1224.42 55.4877 1219.84 Q52.4321 1215.23 52.4321 1206.5 Q52.4321 1197.75 55.4877 1193.17 Q58.5664 1188.56 64.3765 1188.56 Z" fill="#000000" fill-rule="nonzero" fill-opacity="1" /><path clip-path="url(#clip780)" d="M84.5384 1217.87 L89.4227 1217.87 L89.4227 1223.75 L84.5384 1223.75 L84.5384 1217.87 Z" fill="#000000" fill-rule="nonzero" fill-opacity="1" /><path clip-path="url(#clip780)" d="M109.608 1192.27 Q105.997 1192.27 104.168 1195.83 Q102.362 1199.37 102.362 1206.5 Q102.362 1213.61 104.168 1217.17 Q105.997 1220.72 109.608 1220.72 Q113.242 1220.72 115.048 1217.17 Q116.876 1213.61 116.876 1206.5 Q116.876 1199.37 115.048 1195.83 Q113.242 1192.27 109.608 1192.27 M109.608 1188.56 Q115.418 1188.56 118.473 1193.17 Q121.552 1197.75 121.552 1206.5 Q121.552 1215.23 118.473 1219.84 Q115.418 1224.42 109.608 1224.42 Q103.798 1224.42 100.719 1219.84 Q97.6634 1215.23 97.6634 1206.5 Q97.6634 1197.75 100.719 1193.17 Q103.798 1188.56 109.608 1188.56 Z" fill="#000000" fill-rule="nonzero" fill-opacity="1" /><path clip-path="url(#clip780)" d="M139.77 1192.27 Q136.159 1192.27 134.33 1195.83 Q132.524 1199.37 132.524 1206.5 Q132.524 1213.61 134.33 1217.17 Q136.159 1220.72 139.77 1220.72 Q143.404 1220.72 145.209 1217.17 Q147.038 1213.61 147.038 1206.5 Q147.038 1199.37 145.209 1195.83 Q143.404 1192.27 139.77 1192.27 M139.77 1188.56 Q145.58 1188.56 148.635 1193.17 Q151.714 1197.75 151.714 1206.5 Q151.714 1215.23 148.635 1219.84 Q145.58 1224.42 139.77 1224.42 Q133.959 1224.42 130.881 1219.84 Q127.825 1215.23 127.825 1206.5 Q127.825 1197.75 130.881 1193.17 Q133.959 1188.56 139.77 1188.56 Z" fill="#000000" fill-rule="nonzero" fill-opacity="1" /><path clip-path="url(#clip780)" d="M65.3719 910.505 Q61.7608 910.505 59.9321 914.069 Q58.1265 917.611 58.1265 924.741 Q58.1265 931.847 59.9321 935.412 Q61.7608 938.954 65.3719 938.954 Q69.0061 938.954 70.8117 935.412 Q72.6404 931.847 72.6404 924.741 Q72.6404 917.611 70.8117 914.069 Q69.0061 910.505 65.3719 910.505 M65.3719 906.801 Q71.182 906.801 74.2376 911.407 Q77.3163 915.991 77.3163 924.741 Q77.3163 933.467 74.2376 938.074 Q71.182 942.657 65.3719 942.657 Q59.5617 942.657 56.483 938.074 Q53.4275 933.467 53.4275 924.741 Q53.4275 915.991 56.483 911.407 Q59.5617 906.801 65.3719 906.801 Z" fill="#000000" fill-rule="nonzero" fill-opacity="1" /><path clip-path="url(#clip780)" d="M85.5338 936.106 L90.418 936.106 L90.418 941.986 L85.5338 941.986 L85.5338 936.106 Z" fill="#000000" fill-rule="nonzero" fill-opacity="1" /><path clip-path="url(#clip780)" d="M104.631 938.051 L120.95 938.051 L120.95 941.986 L99.006 941.986 L99.006 938.051 Q101.668 935.296 106.251 930.667 Q110.858 926.014 112.038 924.671 Q114.284 922.148 115.163 920.412 Q116.066 918.653 116.066 916.963 Q116.066 914.208 114.122 912.472 Q112.2 910.736 109.098 910.736 Q106.899 910.736 104.446 911.5 Q102.015 912.264 99.2374 913.815 L99.2374 909.093 Q102.061 907.958 104.515 907.38 Q106.969 906.801 109.006 906.801 Q114.376 906.801 117.571 909.486 Q120.765 912.171 120.765 916.662 Q120.765 918.792 119.955 920.713 Q119.168 922.611 117.061 925.204 Q116.483 925.875 113.381 929.092 Q110.279 932.287 104.631 938.051 Z" fill="#000000" fill-rule="nonzero" fill-opacity="1" /><path clip-path="url(#clip780)" d="M130.811 907.426 L149.168 907.426 L149.168 911.361 L135.094 911.361 L135.094 919.833 Q136.112 919.486 137.131 919.324 Q138.149 919.139 139.168 919.139 Q144.955 919.139 148.334 922.31 Q151.714 925.481 151.714 930.898 Q151.714 936.477 148.242 939.579 Q144.77 942.657 138.45 942.657 Q136.274 942.657 134.006 942.287 Q131.76 941.916 129.353 941.176 L129.353 936.477 Q131.436 937.611 133.659 938.167 Q135.881 938.722 138.358 938.722 Q142.362 938.722 144.7 936.616 Q147.038 934.509 147.038 930.898 Q147.038 927.287 144.7 925.18 Q142.362 923.074 138.358 923.074 Q136.483 923.074 134.608 923.491 Q132.756 923.907 130.811 924.787 L130.811 907.426 Z" fill="#000000" fill-rule="nonzero" fill-opacity="1" /><path clip-path="url(#clip780)" d="M64.3765 628.742 Q60.7654 628.742 58.9367 632.307 Q57.1312 635.848 57.1312 642.978 Q57.1312 650.084 58.9367 653.649 Q60.7654 657.191 64.3765 657.191 Q68.0107 657.191 69.8163 653.649 Q71.645 650.084 71.645 642.978 Q71.645 635.848 69.8163 632.307 Q68.0107 628.742 64.3765 628.742 M64.3765 625.038 Q70.1867 625.038 73.2422 629.645 Q76.3209 634.228 76.3209 642.978 Q76.3209 651.705 73.2422 656.311 Q70.1867 660.895 64.3765 660.895 Q58.5664 660.895 55.4877 656.311 Q52.4321 651.705 52.4321 642.978 Q52.4321 634.228 55.4877 629.645 Q58.5664 625.038 64.3765 625.038 Z" fill="#000000" fill-rule="nonzero" fill-opacity="1" /><path clip-path="url(#clip780)" d="M84.5384 654.344 L89.4227 654.344 L89.4227 660.223 L84.5384 660.223 L84.5384 654.344 Z" fill="#000000" fill-rule="nonzero" fill-opacity="1" /><path clip-path="url(#clip780)" d="M99.6541 625.663 L118.01 625.663 L118.01 629.598 L103.936 629.598 L103.936 638.071 Q104.955 637.723 105.974 637.561 Q106.992 637.376 108.011 637.376 Q113.798 637.376 117.177 640.547 Q120.557 643.719 120.557 649.135 Q120.557 654.714 117.085 657.816 Q113.612 660.895 107.293 660.895 Q105.117 660.895 102.849 660.524 Q100.603 660.154 98.1958 659.413 L98.1958 654.714 Q100.279 655.848 102.501 656.404 Q104.724 656.959 107.2 656.959 Q111.205 656.959 113.543 654.853 Q115.881 652.746 115.881 649.135 Q115.881 645.524 113.543 643.418 Q111.205 641.311 107.2 641.311 Q105.325 641.311 103.45 641.728 Q101.599 642.145 99.6541 643.024 L99.6541 625.663 Z" fill="#000000" fill-rule="nonzero" fill-opacity="1" /><path clip-path="url(#clip780)" d="M139.77 628.742 Q136.159 628.742 134.33 632.307 Q132.524 635.848 132.524 642.978 Q132.524 650.084 134.33 653.649 Q136.159 657.191 139.77 657.191 Q143.404 657.191 145.209 653.649 Q147.038 650.084 147.038 642.978 Q147.038 635.848 145.209 632.307 Q143.404 628.742 139.77 628.742 M139.77 625.038 Q145.58 625.038 148.635 629.645 Q151.714 634.228 151.714 642.978 Q151.714 651.705 148.635 656.311 Q145.58 660.895 139.77 660.895 Q133.959 660.895 130.881 656.311 Q127.825 651.705 127.825 642.978 Q127.825 634.228 130.881 629.645 Q133.959 625.038 139.77 625.038 Z" fill="#000000" fill-rule="nonzero" fill-opacity="1" /><path clip-path="url(#clip780)" d="M65.3719 346.979 Q61.7608 346.979 59.9321 350.544 Q58.1265 354.086 58.1265 361.215 Q58.1265 368.322 59.9321 371.887 Q61.7608 375.428 65.3719 375.428 Q69.0061 375.428 70.8117 371.887 Q72.6404 368.322 72.6404 361.215 Q72.6404 354.086 70.8117 350.544 Q69.0061 346.979 65.3719 346.979 M65.3719 343.276 Q71.182 343.276 74.2376 347.882 Q77.3163 352.465 77.3163 361.215 Q77.3163 369.942 74.2376 374.549 Q71.182 379.132 65.3719 379.132 Q59.5617 379.132 56.483 374.549 Q53.4275 369.942 53.4275 361.215 Q53.4275 352.465 56.483 347.882 Q59.5617 343.276 65.3719 343.276 Z" fill="#000000" fill-rule="nonzero" fill-opacity="1" /><path clip-path="url(#clip780)" d="M85.5338 372.581 L90.418 372.581 L90.418 378.461 L85.5338 378.461 L85.5338 372.581 Z" fill="#000000" fill-rule="nonzero" fill-opacity="1" /><path clip-path="url(#clip780)" d="M99.4226 343.901 L121.645 343.901 L121.645 345.891 L109.098 378.461 L104.214 378.461 L116.02 347.836 L99.4226 347.836 L99.4226 343.901 Z" fill="#000000" fill-rule="nonzero" fill-opacity="1" /><path clip-path="url(#clip780)" d="M130.811 343.901 L149.168 343.901 L149.168 347.836 L135.094 347.836 L135.094 356.308 Q136.112 355.961 137.131 355.799 Q138.149 355.613 139.168 355.613 Q144.955 355.613 148.334 358.785 Q151.714 361.956 151.714 367.373 Q151.714 372.951 148.242 376.053 Q144.77 379.132 138.45 379.132 Q136.274 379.132 134.006 378.761 Q131.76 378.391 129.353 377.65 L129.353 372.951 Q131.436 374.086 133.659 374.641 Q135.881 375.197 138.358 375.197 Q142.362 375.197 144.7 373.09 Q147.038 370.984 147.038 367.373 Q147.038 363.762 144.7 361.655 Q142.362 359.549 138.358 359.549 Q136.483 359.549 134.608 359.965 Q132.756 360.382 130.811 361.262 L130.811 343.901 Z" fill="#000000" fill-rule="nonzero" fill-opacity="1" /><path clip-path="url(#clip780)" d="M55.1867 92.7627 L62.8256 92.7627 L62.8256 66.3971 L54.5154 68.0638 L54.5154 63.8045 L62.7793 62.1379 L67.4552 62.1379 L67.4552 92.7627 L75.094 92.7627 L75.094 96.6979 L55.1867 96.6979 L55.1867 92.7627 Z" fill="#000000" fill-rule="nonzero" fill-opacity="1" /><path clip-path="url(#clip780)" d="M84.5384 90.8183 L89.4227 90.8183 L89.4227 96.6979 L84.5384 96.6979 L84.5384 90.8183 Z" fill="#000000" fill-rule="nonzero" fill-opacity="1" /><path clip-path="url(#clip780)" d="M109.608 65.2165 Q105.997 65.2165 104.168 68.7813 Q102.362 72.323 102.362 79.4526 Q102.362 86.559 104.168 90.1238 Q105.997 93.6655 109.608 93.6655 Q113.242 93.6655 115.048 90.1238 Q116.876 86.559 116.876 79.4526 Q116.876 72.323 115.048 68.7813 Q113.242 65.2165 109.608 65.2165 M109.608 61.5129 Q115.418 61.5129 118.473 66.1193 Q121.552 70.7026 121.552 79.4526 Q121.552 88.1794 118.473 92.7858 Q115.418 97.3692 109.608 97.3692 Q103.798 97.3692 100.719 92.7858 Q97.6634 88.1794 97.6634 79.4526 Q97.6634 70.7026 100.719 66.1193 Q103.798 61.5129 109.608 61.5129 Z" fill="#000000" fill-rule="nonzero" fill-opacity="1" /><path clip-path="url(#clip780)" d="M139.77 65.2165 Q136.159 65.2165 134.33 68.7813 Q132.524 72.323 132.524 79.4526 Q132.524 86.559 134.33 90.1238 Q136.159 93.6655 139.77 93.6655 Q143.404 93.6655 145.209 90.1238 Q147.038 86.559 147.038 79.4526 Q147.038 72.323 145.209 68.7813 Q143.404 65.2165 139.77 65.2165 M139.77 61.5129 Q145.58 61.5129 148.635 66.1193 Q151.714 70.7026 151.714 79.4526 Q151.714 88.1794 148.635 92.7858 Q145.58 97.3692 139.77 97.3692 Q133.959 97.3692 130.881 92.7858 Q127.825 88.1794 127.825 79.4526 Q127.825 70.7026 130.881 66.1193 Q133.959 61.5129 139.77 61.5129 Z" fill="#000000" fill-rule="nonzero" fill-opacity="1" /><polyline clip-path="url(#clip782)" style="stroke:#009af9; stroke-linecap:round; stroke-linejoin:round; stroke-width:4; stroke-opacity:1; fill:none" points="236.64,1163.03 239.598,605.503 242.556,213.346 245.514,646.931 248.473,171.521 251.431,139.022 254.389,624.082 257.347,535.404 260.305,322.921 263.263,555.899 266.221,462.93 269.179,591.512 272.137,109.592 275.096,203.555 278.054,1140.32 281.012,338.721 283.97,291.553 286.928,967.035 289.886,1146.41 292.844,142.586 295.802,192.6 298.761,399.591 301.719,996.13 304.677,401.181 307.635,848.139 310.593,583.875 313.551,84.7456 316.509,1001.53 319.467,302.825 322.425,774.133 325.384,576.13 328.342,1154.74 331.3,796.216 334.258,696.555 337.216,974.92 340.174,353.571 343.132,766.81 346.09,471.614 349.049,253.23 352.007,772.579 354.965,1152.49 357.923,733.202 360.881,1075.16 363.839,1085.18 366.797,139.93 369.755,269.223 372.713,1018.35 375.672,956.799 378.63,89.4804 381.588,969.543 384.546,155.215 387.504,708.787 390.462,653.082 393.42,287.368 396.378,679.507 399.336,401.229 402.295,444.158 405.253,169.592 408.211,1160.98 411.169,1014.29 414.127,931.685 417.085,175.975 420.043,905.652 423.001,305.993 425.96,394.807 428.918,570.771 431.876,519.973 434.834,415.438 437.792,593.533 440.75,797.553 443.708,244.27 446.666,160.934 449.624,707.607 452.583,385.338 455.541,943.5 458.499,892.066 461.457,1034.12 464.415,1040.22 467.373,606.662 470.331,707.694 473.289,1155.77 476.248,555.399 479.206,732.149 482.164,1126.13 485.122,98.6617 488.08,987.51 491.038,805.366 493.996,1056.39 496.954,928.138 499.912,1012.97 502.871,1041.06 505.829,332.104 508.787,425.279 511.745,703.692 514.703,210.108 517.661,110.549 520.619,682.081 523.577,382.341 526.535,1092.71 529.494,121.116 532.452,660.004 535.41,84.7425 538.368,578.081 541.326,548.005 544.284,931.167 547.242,645.088 550.2,218.89 553.159,658.854 556.117,269.882 559.075,832.842 562.033,1097.77 564.991,812.745 567.949,958.345 570.907,224.737 573.865,669.039 576.823,921.956 579.782,879.898 582.74,1063.63 585.698,177.882 588.656,787.331 591.614,405.432 594.572,563.453 597.53,457.361 600.488,885.665 603.447,496.176 606.405,372.456 609.363,1065.89 612.321,656.001 615.279,650.165 618.237,603.105 621.195,1067.68 624.153,333.184 627.111,278.99 630.07,139.119 633.028,769.207 635.986,607.207 638.944,1017.64 641.902,995.501 644.86,449.328 647.818,405.303 650.776,611.446 653.734,661.449 656.693,748.898 659.651,433.585 662.609,481.565 665.567,185.204 668.525,553.764 671.483,919.578 674.441,412.613 677.399,378.619 680.358,1118.77 683.316,1173.78 686.274,745.45 689.232,477.912 692.19,1077.82 695.148,697.313 698.106,936.082 701.064,882.86 704.022,116.981 706.981,1055.85 709.939,167.104 712.897,178.003 715.855,253.081 718.813,1194.29 721.771,408.316 724.729,1098.72 727.687,487.669 730.645,337.187 733.604,832.002 736.562,920.025 739.52,800.015 742.478,148.595 745.436,132.428 748.394,892.931 751.352,149.789 754.31,716.941 757.269,408.332 760.227,365.784 763.185,595.533 766.143,515.062 769.101,1086.78 772.059,1116.37 775.017,344.726 777.975,926.532 780.933,595.188 783.892,855.219 786.85,618.185 789.808,909.596 792.766,515.324 795.724,242.555 798.682,310.051 801.64,856.528 804.598,383.441 807.557,668.161 810.515,985.836 813.473,800.908 816.431,496.735 819.389,86.2975 822.347,413.045 825.305,843.865 828.263,372.764 831.221,547.789 834.18,867.533 837.138,589.187 840.096,895.939 843.054,187.093 846.012,199.381 848.97,301.599 851.928,373.312 854.886,432.363 857.844,446.64 860.803,89.874 863.761,423.235 866.719,1113.11 869.677,823.301 872.635,839.074 875.593,954.042 878.551,1170.92 881.509,107.588 884.468,500.503 887.426,1131.64 890.384,500.436 893.342,891.763 896.3,1080.51 899.258,539.199 902.216,280.49 905.174,219.504 908.132,960.057 911.091,452.395 914.049,835.355 917.007,417.638 919.965,635.834 922.923,623.554 925.881,1132.2 928.839,532.886 931.797,132.579 934.756,656.832 937.714,696.143 940.672,1110.43 943.63,315.855 946.588,700.018 949.546,249.288 952.504,373.738 955.462,750.717 958.42,945.142 961.379,644.596 964.337,956.254 967.295,988.245 970.253,1107.18 973.211,1017.66 976.169,1009.09 979.127,147.493 982.085,1122.56 985.043,1071.75 988.002,976.871 990.96,951.866 993.918,120.188 996.876,144.35 999.834,356.225 1002.79,586.72 1005.75,501.668 1008.71,580.198 1011.67,635.355 1014.62,555.739 1017.58,923.243 1020.54,454.164 1023.5,651.353 1026.46,735.729 1029.42,494.276 1032.37,1190.14 1035.33,837.212 1038.29,743.226 1041.25,525.032 1044.21,600.824 1047.16,135.804 1050.12,700.317 1053.08,881.282 1056.04,644.275 1059,558.337 1061.95,983.596 1064.91,889.693 1067.87,212.093 1070.83,829.153 1073.79,766.22 1076.75,1057.2 1079.7,1143.39 1082.66,938.422 1085.62,300.614 1088.58,1144.12 1091.54,789.736 1094.49,160.349 1097.45,951.984 1100.41,722.043 1103.37,870.291 1106.33,1192.48 1109.28,945.174 1112.24,94.7364 1115.2,832.167 1118.16,626.403 1121.12,581.652 1124.07,547.101 1127.03,111.866 1129.99,445.729 1132.95,922.02 1135.91,122.976 1138.87,964.791 1141.82,165.142 1144.78,107.669 1147.74,898.878 1150.7,98.077 1153.66,1151.75 1156.61,618.16 1159.57,185.648 1162.53,1194.67 1165.49,587.711 1168.45,611.478 1171.4,147.124 1174.36,597.074 1177.32,80.8479 1180.28,807.501 1183.24,416.129 1186.2,801.35 1189.15,458.699 1192.11,673.672 1195.07,192.014 1198.03,1060.77 1200.99,676.533 1203.94,1130.14 1206.9,458.176 1209.86,797.936 1212.82,164.769 1215.78,1164.42 1218.73,1096.29 1221.69,109.571 1224.65,1116.19 1227.61,1038.37 1230.57,716.043 1233.53,1052.41 1236.48,344.227 1239.44,909.458 1242.4,872.396 1245.36,238.2 1248.32,92.3825 1251.27,222.989 1254.23,673.962 1257.19,961.563 1260.15,158.397 1263.11,335.053 1266.06,391.288 1269.02,1107 1271.98,753.162 1274.94,790.896 1277.9,569.469 1280.86,173.958 1283.81,923.674 1286.77,549.96 1289.73,282.337 1292.69,115.051 1295.65,1041.34 1298.6,237.292 1301.56,1080.36 1304.52,570.07 1307.48,697.231 1310.44,752.245 1313.39,106.639 1316.35,878.065 1319.31,905.205 1322.27,781.918 1325.23,562.551 1328.18,940.391 1331.14,1173.8 1334.1,864.732 1337.06,792.464 1340.02,173.853 1342.98,949.695 1345.93,724.504 1348.89,333.47 1351.85,435.275 1354.81,280.04 1357.77,662.494 1360.72,818.387 1363.68,544.991 1366.64,107.217 1369.6,1104.15 1372.56,1104.12 1375.51,88.667 1378.47,1057.64 1381.43,450.234 1384.39,554.257 1387.35,442.885 1390.31,787.929 1393.26,815.475 1396.22,929.247 1399.18,330.318 1402.14,862.806 1405.1,150.237 1408.05,236.089 1411.01,957.026 1413.97,1058.62 1416.93,871.591 1419.89,748.695 1422.84,732.532 1425.8,874.838 1428.76,982.182 1431.72,499.532 1434.68,903.394 1437.64,904.722 1440.59,709.48 1443.55,799.603 1446.51,162.537 1449.47,896.846 1452.43,844.811 1455.38,883.754 1458.34,1052.18 1461.3,1003.4 1464.26,155.743 1467.22,855.416 1470.17,131.09 1473.13,317.368 1476.09,554.512 1479.05,824.159 1482.01,994.313 1484.97,1171.07 1487.92,748.269 1490.88,1168.56 1493.84,115.159 1496.8,944.011 1499.76,495.509 1502.71,257.849 1505.67,895.875 1508.63,1116.76 1511.59,880.778 1514.55,344.452 1517.5,1022.78 1520.46,220.932 1523.42,128.622 1526.38,764.265 1529.34,83.8119 1532.29,812.692 1535.25,585.824 1538.21,794.879 1541.17,947.619 1544.13,289.495 1547.09,898.155 1550.04,357.612 1553,913.708 1555.96,81.6809 1558.92,1003.71 1561.88,492.005 1564.83,510.524 1567.79,883.873 1570.75,228.988 1573.71,404.517 1576.67,723.737 1579.62,906.749 1582.58,147.999 1585.54,1187.99 1588.5,174.594 1591.46,452.118 1594.42,638.716 1597.37,996.004 1600.33,290.31 1603.29,1189.22 1606.25,439.737 1609.21,223.839 1612.16,1085.54 1615.12,484.427 1618.08,248.4 1621.04,752.306 1624,440.45 1626.95,672.262 1629.91,989.806 1632.87,183.213 1635.83,1083.95 1638.79,908.539 1641.75,140.721 1644.7,84.445 1647.66,1123.71 1650.62,681.161 1653.58,817.015 1656.54,402.791 1659.49,205.912 1662.45,1064.04 1665.41,656.817 1668.37,703.915 1671.33,948.264 1674.28,171.15 1677.24,151.33 1680.2,988.077 1683.16,693.903 1686.12,219.865 1689.08,773.702 1692.03,732.825 1694.99,118.081 1697.95,850.191 1700.91,98.3411 1703.87,501.73 1706.82,895.489 1709.78,702.919 1712.74,752.497 1715.7,1170.98 1718.66,262.392 1721.61,995.926 1724.57,1094.09 1727.53,1184.41 1730.49,917.167 1733.45,1172.25 1736.41,1061.56 1739.36,552.239 1742.32,601.963 1745.28,920.659 1748.24,1078.45 1751.2,700.188 1754.15,808.454 1757.11,581.133 1760.07,740.264 1763.03,125.149 1765.99,197.871 1768.94,229.561 1771.9,1200.97 1774.86,1023.25 1777.82,913.901 1780.78,150.27 1783.73,1131.14 1786.69,696.674 1789.65,347.507 1792.61,314.773 1795.57,809.124 1798.53,1118.81 1801.48,1138.23 1804.44,991.836 1807.4,328.905 1810.36,84.9311 1813.32,595.418 1816.27,619.352 1819.23,920.328 1822.19,1066.05 1825.15,363.455 1828.11,657.614 1831.06,436.319 1834.02,991.055 1836.98,389.407 1839.94,392.657 1842.9,1133.7 1845.86,1032.16 1848.81,303.541 1851.77,261.341 1854.73,1103.38 1857.69,179.666 1860.65,731.565 1863.6,168.354 1866.56,91.0584 1869.52,959.174 1872.48,901.209 1875.44,839.318 1878.39,610.13 1881.35,706.149 1884.31,132.799 1887.27,601.462 1890.23,1052.05 1893.19,839.695 1896.14,431.097 1899.1,753.207 1902.06,391.591 1905.02,619.897 1907.98,908.01 1910.93,540.702 1913.89,339.226 1916.85,101.268 1919.81,686.988 1922.77,885.173 1925.72,1175.32 1928.68,1149.24 1931.64,543.94 1934.6,169.127 1937.56,326.198 1940.52,766.514 1943.47,924.441 1946.43,1197.56 1949.39,287.609 1952.35,288.492 1955.31,566.311 1958.26,370.533 1961.22,573.349 1964.18,639.856 1967.14,213.997 1970.1,883.886 1973.05,906.904 1976.01,1140.99 1978.97,1119.89 1981.93,1107.18 1984.89,490.284 1987.84,615.244 1990.8,864.793 1993.76,694.267 1996.72,262.151 1999.68,223.421 2002.64,624.962 2005.59,340.968 2008.55,721.365 2011.51,137.059 "/>
<path clip-path="url(#clip780)" d="M246.106 1195 L486.673 1195 L486.673 1091.32 L246.106 1091.32  Z" fill="#ffffff" fill-rule="evenodd" fill-opacity="1"/>
<polyline clip-path="url(#clip780)" style="stroke:#000000; stroke-linecap:round; stroke-linejoin:round; stroke-width:4; stroke-opacity:1; fill:none" points="246.106,1195 486.673,1195 486.673,1091.32 246.106,1091.32 246.106,1195 "/>
<polyline clip-path="url(#clip780)" style="stroke:#009af9; stroke-linecap:round; stroke-linejoin:round; stroke-width:4; stroke-opacity:1; fill:none" points="267.01,1143.16 392.434,1143.16 "/>
<path clip-path="url(#clip780)" d="M427.181 1162.85 Q425.375 1167.48 423.662 1168.89 Q421.949 1170.3 419.079 1170.3 L415.676 1170.3 L415.676 1166.74 L418.176 1166.74 Q419.935 1166.74 420.908 1165.9 Q421.88 1165.07 423.06 1161.97 L423.824 1160.02 L413.338 1134.52 L417.852 1134.52 L425.954 1154.79 L434.056 1134.52 L438.57 1134.52 L427.181 1162.85 Z" fill="#000000" fill-rule="nonzero" fill-opacity="1" /><path clip-path="url(#clip780)" d="M445.861 1156.51 L453.5 1156.51 L453.5 1130.14 L445.19 1131.81 L445.19 1127.55 L453.454 1125.88 L458.13 1125.88 L458.13 1156.51 L465.769 1156.51 L465.769 1160.44 L445.861 1160.44 L445.861 1156.51 Z" fill="#000000" fill-rule="nonzero" fill-opacity="1" /></svg>
