<?xml version="1.0" encoding="utf-8"?>
<svg xmlns="http://www.w3.org/2000/svg" xmlns:xlink="http://www.w3.org/1999/xlink" width="528" height="336" viewBox="0 0 2112 1344">
<defs>
  <clipPath id="clip590">
    <rect x="0" y="0" width="2112" height="1344"/>
  </clipPath>
</defs>
<path clip-path="url(#clip590)" d="M0 1344 L2112 1344 L2112 0 L0 0  Z" fill="#ffffff" fill-rule="evenodd" fill-opacity="1"/>
<defs>
  <clipPath id="clip591">
    <rect x="422" y="0" width="1479" height="1344"/>
  </clipPath>
</defs>
<path clip-path="url(#clip590)" d="M183.394 1234.58 L2064.76 1234.58 L2064.76 47.2441 L183.394 47.2441  Z" fill="#ffffff" fill-rule="evenodd" fill-opacity="1"/>
<defs>
  <clipPath id="clip592">
    <rect x="183" y="47" width="1882" height="1188"/>
  </clipPath>
</defs>
<polyline clip-path="url(#clip592)" style="stroke:#000000; stroke-linecap:round; stroke-linejoin:round; stroke-width:2; stroke-opacity:0.1; fill:none" points="236.64,1234.58 236.64,47.2441 "/>
<polyline clip-path="url(#clip592)" style="stroke:#000000; stroke-linecap:round; stroke-linejoin:round; stroke-width:2; stroke-opacity:0.1; fill:none" points="532.452,1234.58 532.452,47.2441 "/>
<polyline clip-path="url(#clip592)" style="stroke:#000000; stroke-linecap:round; stroke-linejoin:round; stroke-width:2; stroke-opacity:0.1; fill:none" points="828.263,1234.58 828.263,47.2441 "/>
<polyline clip-path="url(#clip592)" style="stroke:#000000; stroke-linecap:round; stroke-linejoin:round; stroke-width:2; stroke-opacity:0.1; fill:none" points="1124.07,1234.58 1124.07,47.2441 "/>
<polyline clip-path="url(#clip592)" style="stroke:#000000; stroke-linecap:round; stroke-linejoin:round; stroke-width:2; stroke-opacity:0.1; fill:none" points="1419.89,1234.58 1419.89,47.2441 "/>
<polyline clip-path="url(#clip592)" style="stroke:#000000; stroke-linecap:round; stroke-linejoin:round; stroke-width:2; stroke-opacity:0.1; fill:none" points="1715.7,1234.58 1715.7,47.2441 "/>
<polyline clip-path="url(#clip592)" style="stroke:#000000; stroke-linecap:round; stroke-linejoin:round; stroke-width:2; stroke-opacity:0.1; fill:none" points="2011.51,1234.58 2011.51,47.2441 "/>
<polyline clip-path="url(#clip590)" style="stroke:#000000; stroke-linecap:round; stroke-linejoin:round; stroke-width:4; stroke-opacity:1; fill:none" points="183.394,1234.58 2064.76,1234.58 "/>
<polyline clip-path="url(#clip590)" style="stroke:#000000; stroke-linecap:round; stroke-linejoin:round; stroke-width:4; stroke-opacity:1; fill:none" points="236.64,1234.58 236.64,1215.68 "/>
<polyline clip-path="url(#clip590)" style="stroke:#000000; stroke-linecap:round; stroke-linejoin:round; stroke-width:4; stroke-opacity:1; fill:none" points="532.452,1234.58 532.452,1215.68 "/>
<polyline clip-path="url(#clip590)" style="stroke:#000000; stroke-linecap:round; stroke-linejoin:round; stroke-width:4; stroke-opacity:1; fill:none" points="828.263,1234.58 828.263,1215.68 "/>
<polyline clip-path="url(#clip590)" style="stroke:#000000; stroke-linecap:round; stroke-linejoin:round; stroke-width:4; stroke-opacity:1; fill:none" points="1124.07,1234.58 1124.07,1215.68 "/>
<polyline clip-path="url(#clip590)" style="stroke:#000000; stroke-linecap:round; stroke-linejoin:round; stroke-width:4; stroke-opacity:1; fill:none" points="1419.89,1234.58 1419.89,1215.68 "/>
<polyline clip-path="url(#clip590)" style="stroke:#000000; stroke-linecap:round; stroke-linejoin:round; stroke-width:4; stroke-opacity:1; fill:none" points="1715.7,1234.58 1715.7,1215.68 "/>
<polyline clip-path="url(#clip590)" style="stroke:#000000; stroke-linecap:round; stroke-linejoin:round; stroke-width:4; stroke-opacity:1; fill:none" points="2011.51,1234.58 2011.51,1215.68 "/>
<path clip-path="url(#clip590)" d="M206.108 1277.85 L235.784 1277.85 L235.784 1281.78 L206.108 1281.78 L206.108 1277.85 Z" fill="#000000" fill-rule="nonzero" fill-opacity="1" /><path clip-path="url(#clip590)" d="M260.043 1276.04 Q263.399 1276.76 265.274 1279.03 Q267.172 1281.3 267.172 1284.63 Q267.172 1289.74 263.654 1292.55 Q260.135 1295.35 253.654 1295.35 Q251.478 1295.35 249.163 1294.91 Q246.872 1294.49 244.418 1293.63 L244.418 1289.12 Q246.362 1290.25 248.677 1290.83 Q250.992 1291.41 253.515 1291.41 Q257.913 1291.41 260.205 1289.67 Q262.52 1287.94 262.52 1284.63 Q262.52 1281.57 260.367 1279.86 Q258.237 1278.12 254.418 1278.12 L250.39 1278.12 L250.39 1274.28 L254.603 1274.28 Q258.052 1274.28 259.881 1272.92 Q261.709 1271.53 261.709 1268.93 Q261.709 1266.27 259.811 1264.86 Q257.936 1263.42 254.418 1263.42 Q252.496 1263.42 250.297 1263.84 Q248.098 1264.26 245.459 1265.14 L245.459 1260.97 Q248.122 1260.23 250.436 1259.86 Q252.774 1259.49 254.834 1259.49 Q260.158 1259.49 263.26 1261.92 Q266.362 1264.33 266.362 1268.45 Q266.362 1271.32 264.719 1273.31 Q263.075 1275.28 260.043 1276.04 Z" fill="#000000" fill-rule="nonzero" fill-opacity="1" /><path clip-path="url(#clip590)" d="M502.394 1277.85 L532.07 1277.85 L532.07 1281.78 L502.394 1281.78 L502.394 1277.85 Z" fill="#000000" fill-rule="nonzero" fill-opacity="1" /><path clip-path="url(#clip590)" d="M546.19 1290.74 L562.509 1290.74 L562.509 1294.67 L540.565 1294.67 L540.565 1290.74 Q543.227 1287.99 547.81 1283.36 Q552.417 1278.7 553.597 1277.36 Q555.843 1274.84 556.722 1273.1 Q557.625 1271.34 557.625 1269.65 Q557.625 1266.9 555.681 1265.16 Q553.759 1263.42 550.658 1263.42 Q548.459 1263.42 546.005 1264.19 Q543.574 1264.95 540.797 1266.5 L540.797 1261.78 Q543.621 1260.65 546.074 1260.07 Q548.528 1259.49 550.565 1259.49 Q555.935 1259.49 559.13 1262.17 Q562.324 1264.86 562.324 1269.35 Q562.324 1271.48 561.514 1273.4 Q560.727 1275.3 558.621 1277.89 Q558.042 1278.56 554.94 1281.78 Q551.838 1284.98 546.19 1290.74 Z" fill="#000000" fill-rule="nonzero" fill-opacity="1" /><path clip-path="url(#clip590)" d="M798.02 1277.85 L827.696 1277.85 L827.696 1281.78 L798.02 1281.78 L798.02 1277.85 Z" fill="#000000" fill-rule="nonzero" fill-opacity="1" /><path clip-path="url(#clip590)" d="M838.599 1290.74 L846.238 1290.74 L846.238 1264.37 L837.928 1266.04 L837.928 1261.78 L846.191 1260.11 L850.867 1260.11 L850.867 1290.74 L858.506 1290.74 L858.506 1294.67 L838.599 1294.67 L838.599 1290.74 Z" fill="#000000" fill-rule="nonzero" fill-opacity="1" /><path clip-path="url(#clip590)" d="M1124.07 1263.19 Q1120.46 1263.19 1118.64 1266.76 Q1116.83 1270.3 1116.83 1277.43 Q1116.83 1284.54 1118.64 1288.1 Q1120.46 1291.64 1124.07 1291.64 Q1127.71 1291.64 1129.51 1288.1 Q1131.34 1284.54 1131.34 1277.43 Q1131.34 1270.3 1129.51 1266.76 Q1127.71 1263.19 1124.07 1263.19 M1124.07 1259.49 Q1129.89 1259.49 1132.94 1264.1 Q1136.02 1268.68 1136.02 1277.43 Q1136.02 1286.16 1132.94 1290.76 Q1129.89 1295.35 1124.07 1295.35 Q1118.26 1295.35 1115.19 1290.76 Q1112.13 1286.16 1112.13 1277.43 Q1112.13 1268.68 1115.19 1264.1 Q1118.26 1259.49 1124.07 1259.49 Z" fill="#000000" fill-rule="nonzero" fill-opacity="1" /><path clip-path="url(#clip590)" d="M1410.27 1290.74 L1417.91 1290.74 L1417.91 1264.37 L1409.6 1266.04 L1409.6 1261.78 L1417.86 1260.11 L1422.54 1260.11 L1422.54 1290.74 L1430.18 1290.74 L1430.18 1294.67 L1410.27 1294.67 L1410.27 1290.74 Z" fill="#000000" fill-rule="nonzero" fill-opacity="1" /><path clip-path="url(#clip590)" d="M1710.35 1290.74 L1726.67 1290.74 L1726.67 1294.67 L1704.73 1294.67 L1704.73 1290.74 Q1707.39 1287.99 1711.97 1283.36 Q1716.58 1278.7 1717.76 1277.36 Q1720 1274.84 1720.88 1273.1 Q1721.79 1271.34 1721.79 1269.65 Q1721.79 1266.9 1719.84 1265.16 Q1717.92 1263.42 1714.82 1263.42 Q1712.62 1263.42 1710.17 1264.19 Q1707.74 1264.95 1704.96 1266.5 L1704.96 1261.78 Q1707.78 1260.65 1710.24 1260.07 Q1712.69 1259.49 1714.73 1259.49 Q1720.1 1259.49 1723.29 1262.17 Q1726.49 1264.86 1726.49 1269.35 Q1726.49 1271.48 1725.67 1273.4 Q1724.89 1275.3 1722.78 1277.89 Q1722.2 1278.56 1719.1 1281.78 Q1716 1284.98 1710.35 1290.74 Z" fill="#000000" fill-rule="nonzero" fill-opacity="1" /><path clip-path="url(#clip590)" d="M2015.76 1276.04 Q2019.11 1276.76 2020.99 1279.03 Q2022.89 1281.3 2022.89 1284.63 Q2022.89 1289.74 2019.37 1292.55 Q2015.85 1295.35 2009.37 1295.35 Q2007.19 1295.35 2004.88 1294.91 Q2002.59 1294.49 2000.13 1293.63 L2000.13 1289.12 Q2002.08 1290.25 2004.39 1290.83 Q2006.71 1291.41 2009.23 1291.41 Q2013.63 1291.41 2015.92 1289.67 Q2018.23 1287.94 2018.23 1284.63 Q2018.23 1281.57 2016.08 1279.86 Q2013.95 1278.12 2010.13 1278.12 L2006.1 1278.12 L2006.1 1274.28 L2010.32 1274.28 Q2013.77 1274.28 2015.6 1272.92 Q2017.42 1271.53 2017.42 1268.93 Q2017.42 1266.27 2015.53 1264.86 Q2013.65 1263.42 2010.13 1263.42 Q2008.21 1263.42 2006.01 1263.84 Q2003.81 1264.26 2001.17 1265.14 L2001.17 1260.97 Q2003.84 1260.23 2006.15 1259.86 Q2008.49 1259.49 2010.55 1259.49 Q2015.87 1259.49 2018.98 1261.92 Q2022.08 1264.33 2022.08 1268.45 Q2022.08 1271.32 2020.43 1273.31 Q2018.79 1275.28 2015.76 1276.04 Z" fill="#000000" fill-rule="nonzero" fill-opacity="1" /><polyline clip-path="url(#clip592)" style="stroke:#000000; stroke-linecap:round; stroke-linejoin:round; stroke-width:2; stroke-opacity:0.1; fill:none" points="183.394,1201.55 2064.76,1201.55 "/>
<polyline clip-path="url(#clip592)" style="stroke:#000000; stroke-linecap:round; stroke-linejoin:round; stroke-width:2; stroke-opacity:0.1; fill:none" points="183.394,921.264 2064.76,921.264 "/>
<polyline clip-path="url(#clip592)" style="stroke:#000000; stroke-linecap:round; stroke-linejoin:round; stroke-width:2; stroke-opacity:0.1; fill:none" points="183.394,640.981 2064.76,640.981 "/>
<polyline clip-path="url(#clip592)" style="stroke:#000000; stroke-linecap:round; stroke-linejoin:round; stroke-width:2; stroke-opacity:0.1; fill:none" points="183.394,360.699 2064.76,360.699 "/>
<polyline clip-path="url(#clip592)" style="stroke:#000000; stroke-linecap:round; stroke-linejoin:round; stroke-width:2; stroke-opacity:0.1; fill:none" points="183.394,80.4168 2064.76,80.4168 "/>
<polyline clip-path="url(#clip590)" style="stroke:#000000; stroke-linecap:round; stroke-linejoin:round; stroke-width:4; stroke-opacity:1; fill:none" points="183.394,1234.58 183.394,47.2441 "/>
<polyline clip-path="url(#clip590)" style="stroke:#000000; stroke-linecap:round; stroke-linejoin:round; stroke-width:4; stroke-opacity:1; fill:none" points="183.394,1201.55 202.292,1201.55 "/>
<polyline clip-path="url(#clip590)" style="stroke:#000000; stroke-linecap:round; stroke-linejoin:round; stroke-width:4; stroke-opacity:1; fill:none" points="183.394,921.264 202.292,921.264 "/>
<polyline clip-path="url(#clip590)" style="stroke:#000000; stroke-linecap:round; stroke-linejoin:round; stroke-width:4; stroke-opacity:1; fill:none" points="183.394,640.981 202.292,640.981 "/>
<polyline clip-path="url(#clip590)" style="stroke:#000000; stroke-linecap:round; stroke-linejoin:round; stroke-width:4; stroke-opacity:1; fill:none" points="183.394,360.699 202.292,360.699 "/>
<polyline clip-path="url(#clip590)" style="stroke:#000000; stroke-linecap:round; stroke-linejoin:round; stroke-width:4; stroke-opacity:1; fill:none" points="183.394,80.4168 202.292,80.4168 "/>
<path clip-path="url(#clip590)" d="M64.3765 1187.34 Q60.7654 1187.34 58.9367 1190.91 Q57.1312 1194.45 57.1312 1201.58 Q57.1312 1208.69 58.9367 1212.25 Q60.7654 1215.79 64.3765 1215.79 Q68.0107 1215.79 69.8163 1212.25 Q71.645 1208.69 71.645 1201.58 Q71.645 1194.45 69.8163 1190.91 Q68.0107 1187.34 64.3765 1187.34 M64.3765 1183.64 Q70.1867 1183.64 73.2422 1188.25 Q76.3209 1192.83 76.3209 1201.58 Q76.3209 1210.31 73.2422 1214.91 Q70.1867 1219.5 64.3765 1219.5 Q58.5664 1219.5 55.4877 1214.91 Q52.4321 1210.31 52.4321 1201.58 Q52.4321 1192.83 55.4877 1188.25 Q58.5664 1183.64 64.3765 1183.64 Z" fill="#000000" fill-rule="nonzero" fill-opacity="1" /><path clip-path="url(#clip590)" d="M84.5384 1212.95 L89.4227 1212.95 L89.4227 1218.83 L84.5384 1218.83 L84.5384 1212.95 Z" fill="#000000" fill-rule="nonzero" fill-opacity="1" /><path clip-path="url(#clip590)" d="M109.608 1187.34 Q105.997 1187.34 104.168 1190.91 Q102.362 1194.45 102.362 1201.58 Q102.362 1208.69 104.168 1212.25 Q105.997 1215.79 109.608 1215.79 Q113.242 1215.79 115.048 1212.25 Q116.876 1208.69 116.876 1201.58 Q116.876 1194.45 115.048 1190.91 Q113.242 1187.34 109.608 1187.34 M109.608 1183.64 Q115.418 1183.64 118.473 1188.25 Q121.552 1192.83 121.552 1201.58 Q121.552 1210.31 118.473 1214.91 Q115.418 1219.5 109.608 1219.5 Q103.798 1219.5 100.719 1214.91 Q97.6634 1210.31 97.6634 1201.58 Q97.6634 1192.83 100.719 1188.25 Q103.798 1183.64 109.608 1183.64 Z" fill="#000000" fill-rule="nonzero" fill-opacity="1" /><path clip-path="url(#clip590)" d="M139.77 1187.34 Q136.159 1187.34 134.33 1190.91 Q132.524 1194.45 132.524 1201.58 Q132.524 1208.69 134.33 1212.25 Q136.159 1215.79 139.77 1215.79 Q143.404 1215.79 145.209 1212.25 Q147.038 1208.69 147.038 1201.58 Q147.038 1194.45 145.209 1190.91 Q143.404 1187.34 139.77 1187.34 M139.77 1183.64 Q145.58 1183.64 148.635 1188.25 Q151.714 1192.83 151.714 1201.58 Q151.714 1210.31 148.635 1214.91 Q145.58 1219.5 139.77 1219.5 Q133.959 1219.5 130.881 1214.91 Q127.825 1210.31 127.825 1201.58 Q127.825 1192.83 130.881 1188.25 Q133.959 1183.64 139.77 1183.64 Z" fill="#000000" fill-rule="nonzero" fill-opacity="1" /><path clip-path="url(#clip590)" d="M65.3719 907.063 Q61.7608 907.063 59.9321 910.627 Q58.1265 914.169 58.1265 921.299 Q58.1265 928.405 59.9321 931.97 Q61.7608 935.511 65.3719 935.511 Q69.0061 935.511 70.8117 931.97 Q72.6404 928.405 72.6404 921.299 Q72.6404 914.169 70.8117 910.627 Q69.0061 907.063 65.3719 907.063 M65.3719 903.359 Q71.182 903.359 74.2376 907.965 Q77.3163 912.549 77.3163 921.299 Q77.3163 930.025 74.2376 934.632 Q71.182 939.215 65.3719 939.215 Q59.5617 939.215 56.483 934.632 Q53.4275 930.025 53.4275 921.299 Q53.4275 912.549 56.483 907.965 Q59.5617 903.359 65.3719 903.359 Z" fill="#000000" fill-rule="nonzero" fill-opacity="1" /><path clip-path="url(#clip590)" d="M85.5338 932.664 L90.418 932.664 L90.418 938.544 L85.5338 938.544 L85.5338 932.664 Z" fill="#000000" fill-rule="nonzero" fill-opacity="1" /><path clip-path="url(#clip590)" d="M104.631 934.609 L120.95 934.609 L120.95 938.544 L99.006 938.544 L99.006 934.609 Q101.668 931.854 106.251 927.224 Q110.858 922.572 112.038 921.229 Q114.284 918.706 115.163 916.97 Q116.066 915.211 116.066 913.521 Q116.066 910.766 114.122 909.03 Q112.2 907.294 109.098 907.294 Q106.899 907.294 104.446 908.058 Q102.015 908.822 99.2374 910.373 L99.2374 905.65 Q102.061 904.516 104.515 903.938 Q106.969 903.359 109.006 903.359 Q114.376 903.359 117.571 906.044 Q120.765 908.729 120.765 913.22 Q120.765 915.349 119.955 917.271 Q119.168 919.169 117.061 921.761 Q116.483 922.433 113.381 925.65 Q110.279 928.845 104.631 934.609 Z" fill="#000000" fill-rule="nonzero" fill-opacity="1" /><path clip-path="url(#clip590)" d="M130.811 903.984 L149.168 903.984 L149.168 907.919 L135.094 907.919 L135.094 916.391 Q136.112 916.044 137.131 915.882 Q138.149 915.697 139.168 915.697 Q144.955 915.697 148.334 918.868 Q151.714 922.039 151.714 927.456 Q151.714 933.035 148.242 936.136 Q144.77 939.215 138.45 939.215 Q136.274 939.215 134.006 938.845 Q131.76 938.474 129.353 937.734 L129.353 933.035 Q131.436 934.169 133.659 934.724 Q135.881 935.28 138.358 935.28 Q142.362 935.28 144.7 933.173 Q147.038 931.067 147.038 927.456 Q147.038 923.845 144.7 921.738 Q142.362 919.632 138.358 919.632 Q136.483 919.632 134.608 920.049 Q132.756 920.465 130.811 921.345 L130.811 903.984 Z" fill="#000000" fill-rule="nonzero" fill-opacity="1" /><path clip-path="url(#clip590)" d="M64.3765 626.78 Q60.7654 626.78 58.9367 630.345 Q57.1312 633.887 57.1312 641.016 Q57.1312 648.123 58.9367 651.687 Q60.7654 655.229 64.3765 655.229 Q68.0107 655.229 69.8163 651.687 Q71.645 648.123 71.645 641.016 Q71.645 633.887 69.8163 630.345 Q68.0107 626.78 64.3765 626.78 M64.3765 623.076 Q70.1867 623.076 73.2422 627.683 Q76.3209 632.266 76.3209 641.016 Q76.3209 649.743 73.2422 654.349 Q70.1867 658.933 64.3765 658.933 Q58.5664 658.933 55.4877 654.349 Q52.4321 649.743 52.4321 641.016 Q52.4321 632.266 55.4877 627.683 Q58.5664 623.076 64.3765 623.076 Z" fill="#000000" fill-rule="nonzero" fill-opacity="1" /><path clip-path="url(#clip590)" d="M84.5384 652.382 L89.4227 652.382 L89.4227 658.261 L84.5384 658.261 L84.5384 652.382 Z" fill="#000000" fill-rule="nonzero" fill-opacity="1" /><path clip-path="url(#clip590)" d="M99.6541 623.701 L118.01 623.701 L118.01 627.637 L103.936 627.637 L103.936 636.109 Q104.955 635.762 105.974 635.6 Q106.992 635.414 108.011 635.414 Q113.798 635.414 117.177 638.586 Q120.557 641.757 120.557 647.174 Q120.557 652.752 117.085 655.854 Q113.612 658.933 107.293 658.933 Q105.117 658.933 102.849 658.562 Q100.603 658.192 98.1958 657.451 L98.1958 652.752 Q100.279 653.887 102.501 654.442 Q104.724 654.998 107.2 654.998 Q111.205 654.998 113.543 652.891 Q115.881 650.785 115.881 647.174 Q115.881 643.562 113.543 641.456 Q111.205 639.35 107.2 639.35 Q105.325 639.35 103.45 639.766 Q101.599 640.183 99.6541 641.063 L99.6541 623.701 Z" fill="#000000" fill-rule="nonzero" fill-opacity="1" /><path clip-path="url(#clip590)" d="M139.77 626.78 Q136.159 626.78 134.33 630.345 Q132.524 633.887 132.524 641.016 Q132.524 648.123 134.33 651.687 Q136.159 655.229 139.77 655.229 Q143.404 655.229 145.209 651.687 Q147.038 648.123 147.038 641.016 Q147.038 633.887 145.209 630.345 Q143.404 626.78 139.77 626.78 M139.77 623.076 Q145.58 623.076 148.635 627.683 Q151.714 632.266 151.714 641.016 Q151.714 649.743 148.635 654.349 Q145.58 658.933 139.77 658.933 Q133.959 658.933 130.881 654.349 Q127.825 649.743 127.825 641.016 Q127.825 632.266 130.881 627.683 Q133.959 623.076 139.77 623.076 Z" fill="#000000" fill-rule="nonzero" fill-opacity="1" /><path clip-path="url(#clip590)" d="M65.3719 346.498 Q61.7608 346.498 59.9321 350.063 Q58.1265 353.604 58.1265 360.734 Q58.1265 367.84 59.9321 371.405 Q61.7608 374.947 65.3719 374.947 Q69.0061 374.947 70.8117 371.405 Q72.6404 367.84 72.6404 360.734 Q72.6404 353.604 70.8117 350.063 Q69.0061 346.498 65.3719 346.498 M65.3719 342.794 Q71.182 342.794 74.2376 347.401 Q77.3163 351.984 77.3163 360.734 Q77.3163 369.461 74.2376 374.067 Q71.182 378.65 65.3719 378.65 Q59.5617 378.65 56.483 374.067 Q53.4275 369.461 53.4275 360.734 Q53.4275 351.984 56.483 347.401 Q59.5617 342.794 65.3719 342.794 Z" fill="#000000" fill-rule="nonzero" fill-opacity="1" /><path clip-path="url(#clip590)" d="M85.5338 372.1 L90.418 372.1 L90.418 377.979 L85.5338 377.979 L85.5338 372.1 Z" fill="#000000" fill-rule="nonzero" fill-opacity="1" /><path clip-path="url(#clip590)" d="M99.4226 343.419 L121.645 343.419 L121.645 345.41 L109.098 377.979 L104.214 377.979 L116.02 347.354 L99.4226 347.354 L99.4226 343.419 Z" fill="#000000" fill-rule="nonzero" fill-opacity="1" /><path clip-path="url(#clip590)" d="M130.811 343.419 L149.168 343.419 L149.168 347.354 L135.094 347.354 L135.094 355.826 Q136.112 355.479 137.131 355.317 Q138.149 355.132 139.168 355.132 Q144.955 355.132 148.334 358.303 Q151.714 361.475 151.714 366.891 Q151.714 372.47 148.242 375.572 Q144.77 378.65 138.45 378.65 Q136.274 378.65 134.006 378.28 Q131.76 377.91 129.353 377.169 L129.353 372.47 Q131.436 373.604 133.659 374.16 Q135.881 374.715 138.358 374.715 Q142.362 374.715 144.7 372.609 Q147.038 370.502 147.038 366.891 Q147.038 363.28 144.7 361.174 Q142.362 359.067 138.358 359.067 Q136.483 359.067 134.608 359.484 Q132.756 359.901 130.811 360.78 L130.811 343.419 Z" fill="#000000" fill-rule="nonzero" fill-opacity="1" /><path clip-path="url(#clip590)" d="M55.1867 93.7617 L62.8256 93.7617 L62.8256 67.3961 L54.5154 69.0627 L54.5154 64.8035 L62.7793 63.1368 L67.4552 63.1368 L67.4552 93.7617 L75.094 93.7617 L75.094 97.6968 L55.1867 97.6968 L55.1867 93.7617 Z" fill="#000000" fill-rule="nonzero" fill-opacity="1" /><path clip-path="url(#clip590)" d="M84.5384 91.8172 L89.4227 91.8172 L89.4227 97.6968 L84.5384 97.6968 L84.5384 91.8172 Z" fill="#000000" fill-rule="nonzero" fill-opacity="1" /><path clip-path="url(#clip590)" d="M109.608 66.2155 Q105.997 66.2155 104.168 69.7803 Q102.362 73.322 102.362 80.4516 Q102.362 87.558 104.168 91.1228 Q105.997 94.6644 109.608 94.6644 Q113.242 94.6644 115.048 91.1228 Q116.876 87.558 116.876 80.4516 Q116.876 73.322 115.048 69.7803 Q113.242 66.2155 109.608 66.2155 M109.608 62.5118 Q115.418 62.5118 118.473 67.1183 Q121.552 71.7016 121.552 80.4516 Q121.552 89.1784 118.473 93.7848 Q115.418 98.3681 109.608 98.3681 Q103.798 98.3681 100.719 93.7848 Q97.6634 89.1784 97.6634 80.4516 Q97.6634 71.7016 100.719 67.1183 Q103.798 62.5118 109.608 62.5118 Z" fill="#000000" fill-rule="nonzero" fill-opacity="1" /><path clip-path="url(#clip590)" d="M139.77 66.2155 Q136.159 66.2155 134.33 69.7803 Q132.524 73.322 132.524 80.4516 Q132.524 87.558 134.33 91.1228 Q136.159 94.6644 139.77 94.6644 Q143.404 94.6644 145.209 91.1228 Q147.038 87.558 147.038 80.4516 Q147.038 73.322 145.209 69.7803 Q143.404 66.2155 139.77 66.2155 M139.77 62.5118 Q145.58 62.5118 148.635 67.1183 Q151.714 71.7016 151.714 80.4516 Q151.714 89.1784 148.635 93.7848 Q145.58 98.3681 139.77 98.3681 Q133.959 98.3681 130.881 93.7848 Q127.825 89.1784 127.825 80.4516 Q127.825 71.7016 130.881 67.1183 Q133.959 62.5118 139.77 62.5118 Z" fill="#000000" fill-rule="nonzero" fill-opacity="1" /><polyline clip-path="url(#clip592)" style="stroke:#009af9; stroke-linecap:round; stroke-linejoin:round; stroke-width:4; stroke-opacity:1; fill:none" points="236.64,972.604 239.598,255.763 242.556,535.621 245.514,257.395 248.473,140.015 251.431,696.03 254.389,194.391 257.347,567.147 260.305,851.425 263.263,718.009 266.221,1148.85 269.179,1116.45 272.137,179.574 275.096,166.161 278.054,688.498 281.012,1015.87 283.97,904.517 286.928,406.475 289.886,972.863 292.844,1092.43 295.802,357.922 298.761,382.176 301.719,211.355 304.677,500.175 307.635,187.701 310.593,1022.7 313.551,327.158 316.509,1056.88 319.467,977.702 322.425,465.799 325.384,709.724 328.342,202.581 331.3,230.385 334.258,887.91 337.216,142.956 340.174,1078.74 343.132,624.311 346.09,273.213 349.049,689.355 352.007,933.172 354.965,107.662 357.923,1130.23 360.881,186.005 363.839,622.661 366.797,695.601 369.755,910.708 372.713,1110.86 375.672,596.125 378.63,660.136 381.588,200.483 384.546,733.306 387.504,1097.72 390.462,1097.7 393.42,894.847 396.378,117.54 399.336,373.588 402.295,580.393 405.253,293.52 408.211,327.335 411.169,842.372 414.127,923.824 417.085,623.309 420.043,1156.27 423.001,917.985 425.96,729.088 428.918,670.417 431.876,1104.34 434.834,841.824 437.792,922.483 440.75,566.013 443.708,355.358 446.666,968.598 449.624,179.608 452.583,604.056 455.541,701.067 458.499,987.01 461.457,558.641 464.415,543.011 467.373,777.42 470.331,751.039 473.289,1042.44 476.248,1135.93 479.206,544.07 482.164,366.566 485.122,850.149 488.08,641.784 491.038,436.896 493.996,557.661 496.954,883.535 499.912,944.864 502.871,1198.72 505.829,819.859 508.787,349.7 511.745,914.78 514.703,366.68 517.661,687.197 520.619,1028.13 523.577,886.412 526.535,224.126 529.494,285.588 532.452,330.45 535.41,880.375 538.368,893.024 541.326,783.765 544.284,276.376 547.242,476.836 550.2,568.625 553.159,243.92 556.117,954.623 559.075,442.955 562.033,505.404 564.991,576.006 567.949,986.306 570.907,1090.89 573.865,216.341 576.823,766.351 579.782,802.274 582.74,458.192 585.698,480.708 588.656,157.283 591.614,1167.91 594.572,1157.15 597.53,811.378 600.488,560.24 603.447,877.383 606.405,1022.44 609.363,644.309 612.321,107.133 615.279,699.723 618.237,1148.67 621.195,927.475 624.153,816.402 627.111,540.12 630.07,90.2792 633.028,245.636 635.986,912.507 638.944,381.168 641.902,843.163 644.86,668.303 647.818,822.899 650.776,791.294 653.734,516.547 656.693,649.409 659.651,324.841 662.609,127.958 665.567,311.114 668.525,946.625 671.483,253.717 674.441,659.533 677.399,1130.06 680.358,728.926 683.316,792.67 686.274,853.923 689.232,553.09 692.19,797.994 695.148,1090.89 698.106,1042.39 701.064,407.498 704.022,703.694 706.981,977.013 709.939,81.5769 712.897,718.334 715.855,1105.85 718.813,841.605 721.771,380.542 724.729,427.853 727.687,187.262 730.645,1151.05 733.604,645.6 736.562,211.669 739.52,194.662 742.478,410.095 745.436,245.941 748.394,209.637 751.352,940.328 754.31,817.768 757.269,713.475 760.227,330.299 763.185,100.953 766.143,317.768 769.101,729.797 772.059,530.074 775.017,507.968 777.975,1010.8 780.933,1156.04 783.892,178.735 786.85,635.778 789.808,729.517 792.766,940.458 795.724,1114.29 798.682,611.179 801.64,525.713 804.598,795.777 807.557,134.98 810.515,242.918 813.473,515.767 816.431,1005.99 819.389,563.743 822.347,942.34 825.305,1083.31 828.263,488.273 831.221,597.353 834.18,747.494 837.138,393.391 840.096,852.037 843.054,655.489 846.012,425.155 848.97,238.456 851.928,262.828 854.886,1079.02 857.844,437.269 860.803,97.5097 863.761,689.59 866.719,310.548 869.677,513.184 872.635,260.362 875.593,1067.48 878.551,512.192 881.509,1131.81 884.468,543.282 887.426,278.455 890.384,648.033 893.342,694.475 896.3,1049.47 899.258,812.109 902.216,682.374 905.174,791.887 908.132,699.188 911.091,1177.21 914.049,952.978 917.007,1123.71 919.965,172.801 922.923,295.377 925.881,599.038 928.839,134.872 931.797,545.49 934.756,192.993 937.714,100.725 940.672,691.339 943.63,351.848 946.588,837.336 949.546,855.928 952.504,293.007 955.462,1036.92 958.42,882.107 961.379,306.495 964.337,893.522 967.295,1156.88 970.253,989.628 973.211,403.158 976.169,382.645 979.127,586.572 982.085,1068.68 985.043,1094.8 988.002,1170.87 990.96,458.922 993.918,996.403 996.876,204.47 999.834,688.669 1002.79,736.844 1005.75,650.056 1008.71,724.769 1011.67,947.666 1014.62,898.004 1017.58,188.583 1020.54,298.602 1023.5,218.024 1026.46,241.952 1029.42,387.676 1032.37,903.028 1035.33,279.63 1038.29,787.814 1041.25,1106.67 1044.21,964.001 1047.16,714.487 1050.12,1049.61 1053.08,512.085 1056.04,1143.18 1059,1012.83 1061.95,165.727 1064.91,708.372 1067.87,80.8479 1070.83,210.156 1073.79,511.355 1076.75,209.483 1079.7,969.545 1082.66,583.134 1085.62,932.08 1088.58,613.338 1091.54,1054.48 1094.49,504.186 1097.45,981.086 1100.41,1069.01 1103.37,557.178 1106.33,715.442 1109.28,539.285 1112.24,93.4342 1115.2,199.965 1118.16,101.992 1121.12,186.411 1124.07,495.362 1127.03,1132.4 1129.99,389.79 1132.95,167.745 1135.91,1173.46 1138.87,1078.94 1141.82,1017.92 1144.78,761.269 1147.74,725.937 1150.7,257.62 1153.66,747.602 1156.61,613.606 1159.57,563.698 1162.53,458.013 1165.49,496.124 1168.45,564.989 1171.4,1109.37 1174.36,950.049 1177.32,807.959 1180.28,753.362 1183.24,890.346 1186.2,642.141 1189.15,791.091 1192.11,573.303 1195.07,652.578 1198.03,358.174 1200.99,1110.83 1203.94,876.177 1206.9,259.665 1209.86,896.925 1212.82,761.004 1215.78,249.024 1218.73,1003.09 1221.69,975.812 1224.65,541.94 1227.61,98.7713 1230.57,674.683 1233.53,578.967 1236.48,800.965 1239.44,1177.25 1242.4,905.64 1245.36,983.514 1248.32,461.467 1251.27,291.759 1254.23,340.841 1257.19,1197.59 1260.15,333.043 1263.11,414.196 1266.06,322.119 1269.02,495.229 1271.98,945.734 1274.94,440.192 1277.9,497.234 1280.86,512.278 1283.81,746.25 1286.77,227.953 1289.73,1017.77 1292.69,734.342 1295.65,232.758 1298.6,749.055 1301.56,1189.55 1304.52,579.72 1307.48,1196.71 1310.44,649.012 1313.39,707.875 1316.35,792.745 1319.31,661.976 1322.27,1188.88 1325.23,986.469 1328.18,804.501 1331.14,1146.55 1334.1,1032.94 1337.06,939.744 1340.02,1075.89 1342.98,533.086 1345.93,483.367 1348.89,1182.94 1351.85,1059.82 1354.81,490.008 1357.77,859.492 1360.72,768.777 1363.68,551.224 1366.64,506.392 1369.6,442.089 1372.56,935.372 1375.51,1002 1378.47,953.143 1381.43,494.666 1384.39,936.663 1387.35,123.42 1390.31,741.698 1393.26,1115.67 1396.22,397.283 1399.18,91.0926 1402.14,669.365 1405.1,138.679 1408.05,791.682 1411.01,729.894 1413.97,960.978 1416.93,452.458 1419.89,370.336 1422.84,110.346 1425.8,287.222 1428.76,1156.39 1431.72,582.045 1434.68,960.555 1437.64,538.317 1440.59,967.78 1443.55,655.472 1446.51,1199.83 1449.47,587.647 1452.43,188.299 1455.38,490.583 1458.34,818.736 1461.3,1194.72 1464.26,296.569 1467.22,879.873 1470.17,189.481 1473.13,801.346 1476.09,1113.48 1479.05,1007.42 1482.01,1135.9 1484.97,1186.91 1487.92,579.025 1490.88,86.6791 1493.84,870.462 1496.8,1032.37 1499.76,1072.87 1502.71,1011.29 1505.67,748.885 1508.63,647.729 1511.59,896.297 1514.55,1199.61 1517.5,747.573 1520.46,620.653 1523.42,419.441 1526.38,516.843 1529.34,1195.11 1532.29,165.721 1535.25,190.157 1538.21,148.565 1541.17,343.864 1544.13,803.805 1547.09,587.952 1550.04,447.73 1553,986.885 1555.96,1018.31 1558.92,1083.01 1561.88,870.774 1564.83,923.384 1567.79,445.931 1570.75,169.942 1573.71,224.958 1576.67,317.7 1579.62,733.517 1582.58,485.664 1585.54,677.451 1588.5,123.593 1591.46,142.018 1594.42,1121.7 1597.37,728.615 1600.33,1135.89 1603.29,582.107 1606.25,648.866 1609.21,1156.29 1612.16,317.648 1615.12,779.099 1618.08,534.814 1621.04,744.032 1624,330.526 1626.95,498.286 1629.91,600.19 1632.87,572.323 1635.83,528.011 1638.79,1025.31 1641.75,799.508 1644.7,745.681 1647.66,525.808 1650.62,234.796 1653.58,850.589 1656.54,603.446 1659.49,336.529 1662.45,384.924 1665.41,1160.23 1668.37,944.755 1671.33,360.775 1674.28,831.821 1677.24,220.717 1680.2,770.611 1683.16,118.167 1686.12,107.619 1689.08,851.562 1692.03,403.892 1694.99,812.998 1697.95,591.38 1700.91,538.054 1703.87,162.912 1706.82,959.587 1709.78,396.155 1712.74,472.904 1715.7,171.409 1718.66,1088.17 1721.61,286.793 1724.57,470.18 1727.53,744.755 1730.49,91.9883 1733.45,946.166 1736.41,1050.59 1739.36,697.018 1742.32,165.874 1745.28,189.411 1748.24,730.862 1751.2,416.161 1754.15,269.355 1757.11,1035.09 1760.07,1078.49 1763.03,775.426 1765.99,380.86 1768.94,550.568 1771.9,974.473 1774.86,453.069 1777.82,757.905 1780.78,913.515 1783.73,415.288 1786.69,703.591 1789.65,218.844 1792.61,179.675 1795.57,329.337 1798.53,1037.97 1801.48,303.719 1804.44,905.073 1807.4,1200.96 1810.36,149.145 1813.32,1099.16 1816.27,1199.81 1819.23,583.538 1822.19,166.172 1825.15,135.834 1828.11,655.912 1831.06,203.235 1834.02,1175.58 1836.98,118.31 1839.94,107.94 1842.9,289.477 1845.86,251.934 1848.81,452.204 1851.77,431.644 1854.73,450.442 1857.69,1200.97 1860.65,1157.36 1863.6,558.511 1866.56,692.981 1869.52,1005.42 1872.48,217.185 1875.44,197.335 1878.39,553.314 1881.35,1161.78 1884.31,352.607 1887.27,915.5 1890.23,312.676 1893.19,446.001 1896.14,903.899 1899.1,682.088 1902.06,790.919 1905.02,733.861 1907.98,327.233 1910.93,381.776 1913.89,917.501 1916.85,1062.7 1919.81,1047.79 1922.77,500.363 1925.72,997.536 1928.68,1197.32 1931.64,402.809 1934.6,959.382 1937.56,866.214 1940.52,233.365 1943.47,262.034 1946.43,1120.79 1949.39,244.519 1952.35,374.875 1955.31,1034.9 1958.26,126.746 1961.22,1008.89 1964.18,960.384 1967.14,1012.95 1970.1,718.5 1973.05,273.993 1976.01,382.118 1978.97,1185.06 1981.93,309.182 1984.89,379.195 1987.84,633.711 1990.8,1138.12 1993.76,1102.21 1996.72,1046.55 1999.68,277.69 2002.64,767.997 2005.59,968.623 2008.55,336.254 2011.51,573.083 "/>
<path clip-path="url(#clip590)" d="M246.106 1195 L486.673 1195 L486.673 1091.32 L246.106 1091.32  Z" fill="#ffffff" fill-rule="evenodd" fill-opacity="1"/>
<polyline clip-path="url(#clip590)" style="stroke:#000000; stroke-linecap:round; stroke-linejoin:round; stroke-width:4; stroke-opacity:1; fill:none" points="246.106,1195 486.673,1195 486.673,1091.32 246.106,1091.32 246.106,1195 "/>
<polyline clip-path="url(#clip590)" style="stroke:#009af9; stroke-linecap:round; stroke-linejoin:round; stroke-width:4; stroke-opacity:1; fill:none" points="267.01,1143.16 392.434,1143.16 "/>
<path clip-path="url(#clip590)" d="M427.181 1162.85 Q425.375 1167.48 423.662 1168.89 Q421.949 1170.3 419.079 1170.3 L415.676 1170.3 L415.676 1166.74 L418.176 1166.74 Q419.935 1166.74 420.908 1165.9 Q421.88 1165.07 423.06 1161.97 L423.824 1160.02 L413.338 1134.52 L417.852 1134.52 L425.954 1154.79 L434.056 1134.52 L438.57 1134.52 L427.181 1162.85 Z" fill="#000000" fill-rule="nonzero" fill-opacity="1" /><path clip-path="url(#clip590)" d="M445.861 1156.51 L453.5 1156.51 L453.5 1130.14 L445.19 1131.81 L445.19 1127.55 L453.454 1125.88 L458.13 1125.88 L458.13 1156.51 L465.769 1156.51 L465.769 1160.44 L445.861 1160.44 L445.861 1156.51 Z" fill="#000000" fill-rule="nonzero" fill-opacity="1" /></svg>
