<?xml version="1.0" encoding="utf-8"?>
<svg xmlns="http://www.w3.org/2000/svg" xmlns:xlink="http://www.w3.org/1999/xlink" width="528" height="336" viewBox="0 0 2112 1344">
<defs>
  <clipPath id="clip900">
    <rect x="0" y="0" width="2112" height="1344"/>
  </clipPath>
</defs>
<path clip-path="url(#clip900)" d="M0 1344 L2112 1344 L2112 0 L0 0  Z" fill="#ffffff" fill-rule="evenodd" fill-opacity="1"/>
<defs>
  <clipPath id="clip901">
    <rect x="422" y="0" width="1479" height="1344"/>
  </clipPath>
</defs>
<path clip-path="url(#clip900)" d="M183.394 1234.58 L2064.76 1234.58 L2064.76 47.2441 L183.394 47.2441  Z" fill="#ffffff" fill-rule="evenodd" fill-opacity="1"/>
<defs>
  <clipPath id="clip902">
    <rect x="183" y="47" width="1882" height="1188"/>
  </clipPath>
</defs>
<polyline clip-path="url(#clip902)" style="stroke:#000000; stroke-linecap:round; stroke-linejoin:round; stroke-width:2; stroke-opacity:0.1; fill:none" points="236.64,1234.58 236.64,47.2441 "/>
<polyline clip-path="url(#clip902)" style="stroke:#000000; stroke-linecap:round; stroke-linejoin:round; stroke-width:2; stroke-opacity:0.1; fill:none" points="532.452,1234.58 532.452,47.2441 "/>
<polyline clip-path="url(#clip902)" style="stroke:#000000; stroke-linecap:round; stroke-linejoin:round; stroke-width:2; stroke-opacity:0.1; fill:none" points="828.263,1234.58 828.263,47.2441 "/>
<polyline clip-path="url(#clip902)" style="stroke:#000000; stroke-linecap:round; stroke-linejoin:round; stroke-width:2; stroke-opacity:0.1; fill:none" points="1124.07,1234.58 1124.07,47.2441 "/>
<polyline clip-path="url(#clip902)" style="stroke:#000000; stroke-linecap:round; stroke-linejoin:round; stroke-width:2; stroke-opacity:0.1; fill:none" points="1419.89,1234.58 1419.89,47.2441 "/>
<polyline clip-path="url(#clip902)" style="stroke:#000000; stroke-linecap:round; stroke-linejoin:round; stroke-width:2; stroke-opacity:0.1; fill:none" points="1715.7,1234.58 1715.7,47.2441 "/>
<polyline clip-path="url(#clip902)" style="stroke:#000000; stroke-linecap:round; stroke-linejoin:round; stroke-width:2; stroke-opacity:0.1; fill:none" points="2011.51,1234.58 2011.51,47.2441 "/>
<polyline clip-path="url(#clip900)" style="stroke:#000000; stroke-linecap:round; stroke-linejoin:round; stroke-width:4; stroke-opacity:1; fill:none" points="183.394,1234.58 2064.76,1234.58 "/>
<polyline clip-path="url(#clip900)" style="stroke:#000000; stroke-linecap:round; stroke-linejoin:round; stroke-width:4; stroke-opacity:1; fill:none" points="236.64,1234.58 236.64,1215.68 "/>
<polyline clip-path="url(#clip900)" style="stroke:#000000; stroke-linecap:round; stroke-linejoin:round; stroke-width:4; stroke-opacity:1; fill:none" points="532.452,1234.58 532.452,1215.68 "/>
<polyline clip-path="url(#clip900)" style="stroke:#000000; stroke-linecap:round; stroke-linejoin:round; stroke-width:4; stroke-opacity:1; fill:none" points="828.263,1234.58 828.263,1215.68 "/>
<polyline clip-path="url(#clip900)" style="stroke:#000000; stroke-linecap:round; stroke-linejoin:round; stroke-width:4; stroke-opacity:1; fill:none" points="1124.07,1234.58 1124.07,1215.68 "/>
<polyline clip-path="url(#clip900)" style="stroke:#000000; stroke-linecap:round; stroke-linejoin:round; stroke-width:4; stroke-opacity:1; fill:none" points="1419.89,1234.58 1419.89,1215.68 "/>
<polyline clip-path="url(#clip900)" style="stroke:#000000; stroke-linecap:round; stroke-linejoin:round; stroke-width:4; stroke-opacity:1; fill:none" points="1715.7,1234.58 1715.7,1215.68 "/>
<polyline clip-path="url(#clip900)" style="stroke:#000000; stroke-linecap:round; stroke-linejoin:round; stroke-width:4; stroke-opacity:1; fill:none" points="2011.51,1234.58 2011.51,1215.68 "/>
<path clip-path="url(#clip900)" d="M206.108 1277.85 L235.784 1277.85 L235.784 1281.78 L206.108 1281.78 L206.108 1277.85 Z" fill="#000000" fill-rule="nonzero" fill-opacity="1" /><path clip-path="url(#clip900)" d="M260.043 1276.04 Q263.399 1276.76 265.274 1279.03 Q267.172 1281.3 267.172 1284.63 Q267.172 1289.74 263.654 1292.55 Q260.135 1295.35 253.654 1295.35 Q251.478 1295.35 249.163 1294.91 Q246.872 1294.49 244.418 1293.63 L244.418 1289.12 Q246.362 1290.25 248.677 1290.83 Q250.992 1291.41 253.515 1291.41 Q257.913 1291.41 260.205 1289.67 Q262.52 1287.94 262.52 1284.63 Q262.52 1281.57 260.367 1279.86 Q258.237 1278.12 254.418 1278.12 L250.39 1278.12 L250.39 1274.28 L254.603 1274.28 Q258.052 1274.28 259.881 1272.92 Q261.709 1271.53 261.709 1268.93 Q261.709 1266.27 259.811 1264.86 Q257.936 1263.42 254.418 1263.42 Q252.496 1263.42 250.297 1263.84 Q248.098 1264.26 245.459 1265.14 L245.459 1260.97 Q248.122 1260.23 250.436 1259.86 Q252.774 1259.49 254.834 1259.49 Q260.158 1259.49 263.26 1261.92 Q266.362 1264.33 266.362 1268.45 Q266.362 1271.32 264.719 1273.31 Q263.075 1275.28 260.043 1276.04 Z" fill="#000000" fill-rule="nonzero" fill-opacity="1" /><path clip-path="url(#clip900)" d="M502.394 1277.85 L532.07 1277.85 L532.07 1281.78 L502.394 1281.78 L502.394 1277.85 Z" fill="#000000" fill-rule="nonzero" fill-opacity="1" /><path clip-path="url(#clip900)" d="M546.19 1290.74 L562.509 1290.74 L562.509 1294.67 L540.565 1294.67 L540.565 1290.74 Q543.227 1287.99 547.81 1283.36 Q552.417 1278.7 553.597 1277.36 Q555.843 1274.84 556.722 1273.1 Q557.625 1271.34 557.625 1269.65 Q557.625 1266.9 555.681 1265.16 Q553.759 1263.42 550.658 1263.42 Q548.459 1263.42 546.005 1264.19 Q543.574 1264.95 540.797 1266.5 L540.797 1261.78 Q543.621 1260.65 546.074 1260.07 Q548.528 1259.49 550.565 1259.49 Q555.935 1259.49 559.13 1262.17 Q562.324 1264.86 562.324 1269.35 Q562.324 1271.48 561.514 1273.4 Q560.727 1275.3 558.621 1277.89 Q558.042 1278.56 554.94 1281.78 Q551.838 1284.98 546.19 1290.74 Z" fill="#000000" fill-rule="nonzero" fill-opacity="1" /><path clip-path="url(#clip900)" d="M798.02 1277.85 L827.696 1277.85 L827.696 1281.78 L798.02 1281.78 L798.02 1277.85 Z" fill="#000000" fill-rule="nonzero" fill-opacity="1" /><path clip-path="url(#clip900)" d="M838.599 1290.74 L846.238 1290.74 L846.238 1264.37 L837.928 1266.04 L837.928 1261.78 L846.191 1260.11 L850.867 1260.11 L850.867 1290.74 L858.506 1290.74 L858.506 1294.67 L838.599 1294.67 L838.599 1290.74 Z" fill="#000000" fill-rule="nonzero" fill-opacity="1" /><path clip-path="url(#clip900)" d="M1124.07 1263.19 Q1120.46 1263.19 1118.64 1266.76 Q1116.83 1270.3 1116.83 1277.43 Q1116.83 1284.54 1118.64 1288.1 Q1120.46 1291.64 1124.07 1291.64 Q1127.71 1291.64 1129.51 1288.1 Q1131.34 1284.54 1131.34 1277.43 Q1131.34 1270.3 1129.51 1266.76 Q1127.71 1263.19 1124.07 1263.19 M1124.07 1259.49 Q1129.89 1259.49 1132.94 1264.1 Q1136.02 1268.68 1136.02 1277.43 Q1136.02 1286.16 1132.94 1290.76 Q1129.89 1295.35 1124.07 1295.35 Q1118.26 1295.35 1115.19 1290.76 Q1112.13 1286.16 1112.13 1277.43 Q1112.13 1268.68 1115.19 1264.1 Q1118.26 1259.49 1124.07 1259.49 Z" fill="#000000" fill-rule="nonzero" fill-opacity="1" /><path clip-path="url(#clip900)" d="M1410.27 1290.74 L1417.91 1290.74 L1417.91 1264.37 L1409.6 1266.04 L1409.6 1261.78 L1417.86 1260.11 L1422.54 1260.11 L1422.54 1290.74 L1430.18 1290.74 L1430.18 1294.67 L1410.27 1294.67 L1410.27 1290.74 Z" fill="#000000" fill-rule="nonzero" fill-opacity="1" /><path clip-path="url(#clip900)" d="M1710.35 1290.74 L1726.67 1290.74 L1726.67 1294.67 L1704.73 1294.67 L1704.73 1290.74 Q1707.39 1287.99 1711.97 1283.36 Q1716.58 1278.7 1717.76 1277.36 Q1720 1274.84 1720.88 1273.1 Q1721.79 1271.34 1721.79 1269.65 Q1721.79 1266.9 1719.84 1265.16 Q1717.92 1263.42 1714.82 1263.42 Q1712.62 1263.42 1710.17 1264.19 Q1707.74 1264.95 1704.96 1266.5 L1704.96 1261.78 Q1707.78 1260.65 1710.24 1260.07 Q1712.69 1259.49 1714.73 1259.49 Q1720.1 1259.49 1723.29 1262.17 Q1726.49 1264.86 1726.49 1269.35 Q1726.49 1271.48 1725.67 1273.4 Q1724.89 1275.3 1722.78 1277.89 Q1722.2 1278.56 1719.1 1281.78 Q1716 1284.98 1710.35 1290.74 Z" fill="#000000" fill-rule="nonzero" fill-opacity="1" /><path clip-path="url(#clip900)" d="M2015.76 1276.04 Q2019.11 1276.76 2020.99 1279.03 Q2022.89 1281.3 2022.89 1284.63 Q2022.89 1289.74 2019.37 1292.55 Q2015.85 1295.35 2009.37 1295.35 Q2007.19 1295.35 2004.88 1294.91 Q2002.59 1294.49 2000.13 1293.63 L2000.13 1289.12 Q2002.08 1290.25 2004.39 1290.83 Q2006.71 1291.41 2009.23 1291.41 Q2013.63 1291.41 2015.92 1289.67 Q2018.23 1287.94 2018.23 1284.63 Q2018.23 1281.57 2016.08 1279.86 Q2013.95 1278.12 2010.13 1278.12 L2006.1 1278.12 L2006.1 1274.28 L2010.32 1274.28 Q2013.77 1274.28 2015.6 1272.92 Q2017.42 1271.53 2017.42 1268.93 Q2017.42 1266.27 2015.53 1264.86 Q2013.65 1263.42 2010.13 1263.42 Q2008.21 1263.42 2006.01 1263.84 Q2003.81 1264.26 2001.17 1265.14 L2001.17 1260.97 Q2003.84 1260.23 2006.15 1259.86 Q2008.49 1259.49 2010.55 1259.49 Q2015.87 1259.49 2018.98 1261.92 Q2022.08 1264.33 2022.08 1268.45 Q2022.08 1271.32 2020.43 1273.31 Q2018.79 1275.28 2015.76 1276.04 Z" fill="#000000" fill-rule="nonzero" fill-opacity="1" /><polyline clip-path="url(#clip902)" style="stroke:#000000; stroke-linecap:round; stroke-linejoin:round; stroke-width:2; stroke-opacity:0.1; fill:none" points="183.394,1207.27 2064.76,1207.27 "/>
<polyline clip-path="url(#clip902)" style="stroke:#000000; stroke-linecap:round; stroke-linejoin:round; stroke-width:2; stroke-opacity:0.1; fill:none" points="183.394,924.863 2064.76,924.863 "/>
<polyline clip-path="url(#clip902)" style="stroke:#000000; stroke-linecap:round; stroke-linejoin:round; stroke-width:2; stroke-opacity:0.1; fill:none" points="183.394,642.454 2064.76,642.454 "/>
<polyline clip-path="url(#clip902)" style="stroke:#000000; stroke-linecap:round; stroke-linejoin:round; stroke-width:2; stroke-opacity:0.1; fill:none" points="183.394,360.046 2064.76,360.046 "/>
<polyline clip-path="url(#clip902)" style="stroke:#000000; stroke-linecap:round; stroke-linejoin:round; stroke-width:2; stroke-opacity:0.1; fill:none" points="183.394,77.6369 2064.76,77.6369 "/>
<polyline clip-path="url(#clip900)" style="stroke:#000000; stroke-linecap:round; stroke-linejoin:round; stroke-width:4; stroke-opacity:1; fill:none" points="183.394,1234.58 183.394,47.2441 "/>
<polyline clip-path="url(#clip900)" style="stroke:#000000; stroke-linecap:round; stroke-linejoin:round; stroke-width:4; stroke-opacity:1; fill:none" points="183.394,1207.27 202.292,1207.27 "/>
<polyline clip-path="url(#clip900)" style="stroke:#000000; stroke-linecap:round; stroke-linejoin:round; stroke-width:4; stroke-opacity:1; fill:none" points="183.394,924.863 202.292,924.863 "/>
<polyline clip-path="url(#clip900)" style="stroke:#000000; stroke-linecap:round; stroke-linejoin:round; stroke-width:4; stroke-opacity:1; fill:none" points="183.394,642.454 202.292,642.454 "/>
<polyline clip-path="url(#clip900)" style="stroke:#000000; stroke-linecap:round; stroke-linejoin:round; stroke-width:4; stroke-opacity:1; fill:none" points="183.394,360.046 202.292,360.046 "/>
<polyline clip-path="url(#clip900)" style="stroke:#000000; stroke-linecap:round; stroke-linejoin:round; stroke-width:4; stroke-opacity:1; fill:none" points="183.394,77.6369 202.292,77.6369 "/>
<path clip-path="url(#clip900)" d="M64.3765 1193.07 Q60.7654 1193.07 58.9367 1196.63 Q57.1312 1200.18 57.1312 1207.31 Q57.1312 1214.41 58.9367 1217.98 Q60.7654 1221.52 64.3765 1221.52 Q68.0107 1221.52 69.8163 1217.98 Q71.645 1214.41 71.645 1207.31 Q71.645 1200.18 69.8163 1196.63 Q68.0107 1193.07 64.3765 1193.07 M64.3765 1189.37 Q70.1867 1189.37 73.2422 1193.97 Q76.3209 1198.56 76.3209 1207.31 Q76.3209 1216.03 73.2422 1220.64 Q70.1867 1225.22 64.3765 1225.22 Q58.5664 1225.22 55.4877 1220.64 Q52.4321 1216.03 52.4321 1207.31 Q52.4321 1198.56 55.4877 1193.97 Q58.5664 1189.37 64.3765 1189.37 Z" fill="#000000" fill-rule="nonzero" fill-opacity="1" /><path clip-path="url(#clip900)" d="M84.5384 1218.67 L89.4227 1218.67 L89.4227 1224.55 L84.5384 1224.55 L84.5384 1218.67 Z" fill="#000000" fill-rule="nonzero" fill-opacity="1" /><path clip-path="url(#clip900)" d="M109.608 1193.07 Q105.997 1193.07 104.168 1196.63 Q102.362 1200.18 102.362 1207.31 Q102.362 1214.41 104.168 1217.98 Q105.997 1221.52 109.608 1221.52 Q113.242 1221.52 115.048 1217.98 Q116.876 1214.41 116.876 1207.31 Q116.876 1200.18 115.048 1196.63 Q113.242 1193.07 109.608 1193.07 M109.608 1189.37 Q115.418 1189.37 118.473 1193.97 Q121.552 1198.56 121.552 1207.31 Q121.552 1216.03 118.473 1220.64 Q115.418 1225.22 109.608 1225.22 Q103.798 1225.22 100.719 1220.64 Q97.6634 1216.03 97.6634 1207.31 Q97.6634 1198.56 100.719 1193.97 Q103.798 1189.37 109.608 1189.37 Z" fill="#000000" fill-rule="nonzero" fill-opacity="1" /><path clip-path="url(#clip900)" d="M139.77 1193.07 Q136.159 1193.07 134.33 1196.63 Q132.524 1200.18 132.524 1207.31 Q132.524 1214.41 134.33 1217.98 Q136.159 1221.52 139.77 1221.52 Q143.404 1221.52 145.209 1217.98 Q147.038 1214.41 147.038 1207.31 Q147.038 1200.18 145.209 1196.63 Q143.404 1193.07 139.77 1193.07 M139.77 1189.37 Q145.58 1189.37 148.635 1193.97 Q151.714 1198.56 151.714 1207.31 Q151.714 1216.03 148.635 1220.64 Q145.58 1225.22 139.77 1225.22 Q133.959 1225.22 130.881 1220.64 Q127.825 1216.03 127.825 1207.31 Q127.825 1198.56 130.881 1193.97 Q133.959 1189.37 139.77 1189.37 Z" fill="#000000" fill-rule="nonzero" fill-opacity="1" /><path clip-path="url(#clip900)" d="M65.3719 910.661 Q61.7608 910.661 59.9321 914.226 Q58.1265 917.768 58.1265 924.898 Q58.1265 932.004 59.9321 935.569 Q61.7608 939.11 65.3719 939.11 Q69.0061 939.11 70.8117 935.569 Q72.6404 932.004 72.6404 924.898 Q72.6404 917.768 70.8117 914.226 Q69.0061 910.661 65.3719 910.661 M65.3719 906.958 Q71.182 906.958 74.2376 911.564 Q77.3163 916.148 77.3163 924.898 Q77.3163 933.624 74.2376 938.231 Q71.182 942.814 65.3719 942.814 Q59.5617 942.814 56.483 938.231 Q53.4275 933.624 53.4275 924.898 Q53.4275 916.148 56.483 911.564 Q59.5617 906.958 65.3719 906.958 Z" fill="#000000" fill-rule="nonzero" fill-opacity="1" /><path clip-path="url(#clip900)" d="M85.5338 936.263 L90.418 936.263 L90.418 942.143 L85.5338 942.143 L85.5338 936.263 Z" fill="#000000" fill-rule="nonzero" fill-opacity="1" /><path clip-path="url(#clip900)" d="M104.631 938.208 L120.95 938.208 L120.95 942.143 L99.006 942.143 L99.006 938.208 Q101.668 935.453 106.251 930.823 Q110.858 926.171 112.038 924.828 Q114.284 922.305 115.163 920.569 Q116.066 918.81 116.066 917.12 Q116.066 914.365 114.122 912.629 Q112.2 910.893 109.098 910.893 Q106.899 910.893 104.446 911.657 Q102.015 912.421 99.2374 913.972 L99.2374 909.249 Q102.061 908.115 104.515 907.536 Q106.969 906.958 109.006 906.958 Q114.376 906.958 117.571 909.643 Q120.765 912.328 120.765 916.819 Q120.765 918.948 119.955 920.87 Q119.168 922.768 117.061 925.36 Q116.483 926.032 113.381 929.249 Q110.279 932.444 104.631 938.208 Z" fill="#000000" fill-rule="nonzero" fill-opacity="1" /><path clip-path="url(#clip900)" d="M130.811 907.583 L149.168 907.583 L149.168 911.518 L135.094 911.518 L135.094 919.99 Q136.112 919.643 137.131 919.481 Q138.149 919.296 139.168 919.296 Q144.955 919.296 148.334 922.467 Q151.714 925.638 151.714 931.055 Q151.714 936.634 148.242 939.735 Q144.77 942.814 138.45 942.814 Q136.274 942.814 134.006 942.444 Q131.76 942.073 129.353 941.333 L129.353 936.634 Q131.436 937.768 133.659 938.323 Q135.881 938.879 138.358 938.879 Q142.362 938.879 144.7 936.772 Q147.038 934.666 147.038 931.055 Q147.038 927.444 144.7 925.337 Q142.362 923.231 138.358 923.231 Q136.483 923.231 134.608 923.648 Q132.756 924.064 130.811 924.944 L130.811 907.583 Z" fill="#000000" fill-rule="nonzero" fill-opacity="1" /><path clip-path="url(#clip900)" d="M64.3765 628.253 Q60.7654 628.253 58.9367 631.818 Q57.1312 635.359 57.1312 642.489 Q57.1312 649.595 58.9367 653.16 Q60.7654 656.702 64.3765 656.702 Q68.0107 656.702 69.8163 653.16 Q71.645 649.595 71.645 642.489 Q71.645 635.359 69.8163 631.818 Q68.0107 628.253 64.3765 628.253 M64.3765 624.549 Q70.1867 624.549 73.2422 629.156 Q76.3209 633.739 76.3209 642.489 Q76.3209 651.216 73.2422 655.822 Q70.1867 660.405 64.3765 660.405 Q58.5664 660.405 55.4877 655.822 Q52.4321 651.216 52.4321 642.489 Q52.4321 633.739 55.4877 629.156 Q58.5664 624.549 64.3765 624.549 Z" fill="#000000" fill-rule="nonzero" fill-opacity="1" /><path clip-path="url(#clip900)" d="M84.5384 653.855 L89.4227 653.855 L89.4227 659.734 L84.5384 659.734 L84.5384 653.855 Z" fill="#000000" fill-rule="nonzero" fill-opacity="1" /><path clip-path="url(#clip900)" d="M99.6541 625.174 L118.01 625.174 L118.01 629.109 L103.936 629.109 L103.936 637.582 Q104.955 637.234 105.974 637.072 Q106.992 636.887 108.011 636.887 Q113.798 636.887 117.177 640.058 Q120.557 643.23 120.557 648.646 Q120.557 654.225 117.085 657.327 Q113.612 660.405 107.293 660.405 Q105.117 660.405 102.849 660.035 Q100.603 659.665 98.1958 658.924 L98.1958 654.225 Q100.279 655.359 102.501 655.915 Q104.724 656.47 107.2 656.47 Q111.205 656.47 113.543 654.364 Q115.881 652.257 115.881 648.646 Q115.881 645.035 113.543 642.929 Q111.205 640.822 107.2 640.822 Q105.325 640.822 103.45 641.239 Q101.599 641.656 99.6541 642.535 L99.6541 625.174 Z" fill="#000000" fill-rule="nonzero" fill-opacity="1" /><path clip-path="url(#clip900)" d="M139.77 628.253 Q136.159 628.253 134.33 631.818 Q132.524 635.359 132.524 642.489 Q132.524 649.595 134.33 653.16 Q136.159 656.702 139.77 656.702 Q143.404 656.702 145.209 653.16 Q147.038 649.595 147.038 642.489 Q147.038 635.359 145.209 631.818 Q143.404 628.253 139.77 628.253 M139.77 624.549 Q145.58 624.549 148.635 629.156 Q151.714 633.739 151.714 642.489 Q151.714 651.216 148.635 655.822 Q145.58 660.405 139.77 660.405 Q133.959 660.405 130.881 655.822 Q127.825 651.216 127.825 642.489 Q127.825 633.739 130.881 629.156 Q133.959 624.549 139.77 624.549 Z" fill="#000000" fill-rule="nonzero" fill-opacity="1" /><path clip-path="url(#clip900)" d="M65.3719 345.844 Q61.7608 345.844 59.9321 349.409 Q58.1265 352.951 58.1265 360.08 Q58.1265 367.187 59.9321 370.751 Q61.7608 374.293 65.3719 374.293 Q69.0061 374.293 70.8117 370.751 Q72.6404 367.187 72.6404 360.08 Q72.6404 352.951 70.8117 349.409 Q69.0061 345.844 65.3719 345.844 M65.3719 342.141 Q71.182 342.141 74.2376 346.747 Q77.3163 351.33 77.3163 360.08 Q77.3163 368.807 74.2376 373.414 Q71.182 377.997 65.3719 377.997 Q59.5617 377.997 56.483 373.414 Q53.4275 368.807 53.4275 360.08 Q53.4275 351.33 56.483 346.747 Q59.5617 342.141 65.3719 342.141 Z" fill="#000000" fill-rule="nonzero" fill-opacity="1" /><path clip-path="url(#clip900)" d="M85.5338 371.446 L90.418 371.446 L90.418 377.326 L85.5338 377.326 L85.5338 371.446 Z" fill="#000000" fill-rule="nonzero" fill-opacity="1" /><path clip-path="url(#clip900)" d="M99.4226 342.766 L121.645 342.766 L121.645 344.756 L109.098 377.326 L104.214 377.326 L116.02 346.701 L99.4226 346.701 L99.4226 342.766 Z" fill="#000000" fill-rule="nonzero" fill-opacity="1" /><path clip-path="url(#clip900)" d="M130.811 342.766 L149.168 342.766 L149.168 346.701 L135.094 346.701 L135.094 355.173 Q136.112 354.826 137.131 354.664 Q138.149 354.478 139.168 354.478 Q144.955 354.478 148.334 357.65 Q151.714 360.821 151.714 366.238 Q151.714 371.816 148.242 374.918 Q144.77 377.997 138.45 377.997 Q136.274 377.997 134.006 377.626 Q131.76 377.256 129.353 376.515 L129.353 371.816 Q131.436 372.951 133.659 373.506 Q135.881 374.062 138.358 374.062 Q142.362 374.062 144.7 371.955 Q147.038 369.849 147.038 366.238 Q147.038 362.627 144.7 360.52 Q142.362 358.414 138.358 358.414 Q136.483 358.414 134.608 358.83 Q132.756 359.247 130.811 360.127 L130.811 342.766 Z" fill="#000000" fill-rule="nonzero" fill-opacity="1" /><path clip-path="url(#clip900)" d="M55.1867 90.9817 L62.8256 90.9817 L62.8256 64.6161 L54.5154 66.2828 L54.5154 62.0236 L62.7793 60.3569 L67.4552 60.3569 L67.4552 90.9817 L75.094 90.9817 L75.094 94.9169 L55.1867 94.9169 L55.1867 90.9817 Z" fill="#000000" fill-rule="nonzero" fill-opacity="1" /><path clip-path="url(#clip900)" d="M84.5384 89.0373 L89.4227 89.0373 L89.4227 94.9169 L84.5384 94.9169 L84.5384 89.0373 Z" fill="#000000" fill-rule="nonzero" fill-opacity="1" /><path clip-path="url(#clip900)" d="M109.608 63.4356 Q105.997 63.4356 104.168 67.0004 Q102.362 70.542 102.362 77.6716 Q102.362 84.7781 104.168 88.3429 Q105.997 91.8845 109.608 91.8845 Q113.242 91.8845 115.048 88.3429 Q116.876 84.7781 116.876 77.6716 Q116.876 70.542 115.048 67.0004 Q113.242 63.4356 109.608 63.4356 M109.608 59.7319 Q115.418 59.7319 118.473 64.3384 Q121.552 68.9217 121.552 77.6716 Q121.552 86.3984 118.473 91.0049 Q115.418 95.5882 109.608 95.5882 Q103.798 95.5882 100.719 91.0049 Q97.6634 86.3984 97.6634 77.6716 Q97.6634 68.9217 100.719 64.3384 Q103.798 59.7319 109.608 59.7319 Z" fill="#000000" fill-rule="nonzero" fill-opacity="1" /><path clip-path="url(#clip900)" d="M139.77 63.4356 Q136.159 63.4356 134.33 67.0004 Q132.524 70.542 132.524 77.6716 Q132.524 84.7781 134.33 88.3429 Q136.159 91.8845 139.77 91.8845 Q143.404 91.8845 145.209 88.3429 Q147.038 84.7781 147.038 77.6716 Q147.038 70.542 145.209 67.0004 Q143.404 63.4356 139.77 63.4356 M139.77 59.7319 Q145.58 59.7319 148.635 64.3384 Q151.714 68.9217 151.714 77.6716 Q151.714 86.3984 148.635 91.0049 Q145.58 95.5882 139.77 95.5882 Q133.959 95.5882 130.881 91.0049 Q127.825 86.3984 127.825 77.6716 Q127.825 68.9217 130.881 64.3384 Q133.959 59.7319 139.77 59.7319 Z" fill="#000000" fill-rule="nonzero" fill-opacity="1" /><polyline clip-path="url(#clip902)" style="stroke:#009af9; stroke-linecap:round; stroke-linejoin:round; stroke-width:4; stroke-opacity:1; fill:none" points="236.64,1039.82 239.598,217.136 242.556,753.477 245.514,1176.16 248.473,1136.82 251.431,1057.82 254.389,610.956 257.347,171.798 260.305,412.345 263.263,1041.25 266.221,755.21 269.179,963.133 272.137,291.411 275.096,981.074 278.054,603.354 281.012,113.359 283.97,234.225 286.928,473.295 289.886,167.083 292.844,132.673 295.802,88.9674 298.761,736.835 301.719,1047.9 304.677,683.905 307.635,456.671 310.593,1061.03 313.551,228.944 316.509,260.848 319.467,745.875 322.425,454.61 325.384,262.164 328.342,425.335 331.3,1163.48 334.258,509.465 337.216,748.61 340.174,180.072 343.132,928.125 346.09,840.648 349.049,878.232 352.007,313.277 354.965,293.264 357.923,91.3538 360.881,1130.76 363.839,1041.33 366.797,709.313 369.755,1076.69 372.713,984.848 375.672,868.324 378.63,377.322 381.588,392.828 384.546,442.131 387.504,620.033 390.462,673.681 393.42,647.479 396.378,607.439 399.336,529.519 402.295,955.236 405.253,640.153 408.211,775.251 411.169,294.48 414.127,1129.17 417.085,804.653 420.043,1122.93 423.001,809.248 425.96,1173.34 428.918,227.368 431.876,716.478 434.834,1010.6 437.792,920.182 440.75,185.904 443.708,987.963 446.666,256.64 449.624,321.524 452.583,385.149 455.541,351.481 458.499,407.767 461.457,515.634 464.415,678.42 467.373,560.152 470.331,114.754 473.289,449.227 476.248,1091.78 479.206,1087.01 482.164,911.247 485.122,980.896 488.08,891.773 491.038,1200.97 493.996,326.135 496.954,495.589 499.912,636.313 502.871,388.055 505.829,456.048 508.787,1089.76 511.745,238.089 514.703,820.652 517.661,821.388 520.619,1046.54 523.577,1122.34 526.535,171.508 529.494,121.899 532.452,248.026 535.41,635.286 538.368,971.671 541.326,170.827 544.284,630.891 547.242,1183.11 550.2,907.127 553.159,1197.18 556.117,974.875 559.075,1131.9 562.033,259.013 564.991,696.909 567.949,612.66 570.907,1081.11 573.865,529.869 576.823,413.627 579.782,898.153 582.74,887.757 585.698,276.54 588.656,229.624 591.614,423.035 594.572,1027.44 597.53,137.417 600.488,393.632 603.447,202.22 606.405,983.831 609.363,275.26 612.321,824.884 615.279,202.956 618.237,886.437 621.195,601.49 624.153,1169.17 627.111,620.331 630.07,866.412 633.028,86.7259 635.986,733.181 638.944,802.686 641.902,256.468 644.86,269.824 647.818,1048.12 650.776,740.498 653.734,247.344 656.693,149.217 659.651,868.693 662.609,619.94 665.567,262.488 668.525,163.62 671.483,116.854 674.441,249.419 677.399,697.71 680.358,191.803 683.316,551.081 686.274,616.998 689.232,725.424 692.19,561.493 695.148,1069.22 698.106,1060.38 701.064,396.867 704.022,549.158 706.981,997.301 709.939,973.49 712.897,641.941 715.855,895.956 718.813,791.717 721.771,1100.27 724.729,891.885 727.687,645.431 730.645,254.547 733.604,358.993 736.562,752.506 739.52,821.211 742.478,129.391 745.436,1106.87 748.394,1109 751.352,1031.44 754.31,850.026 757.269,136.277 760.227,480.541 763.185,343.691 766.143,231.433 769.101,1091.82 772.059,859.459 775.017,569.013 777.975,389.673 780.933,459.325 783.892,532.941 786.85,999.6 789.808,580.038 792.766,834.715 795.724,120.971 798.682,919.524 801.64,832.591 804.598,333.853 807.557,82.4804 810.515,1088.65 813.473,635.903 816.431,528.471 819.389,528.247 822.347,486.491 825.305,562.656 828.263,202.891 831.221,919.625 834.18,970.649 837.138,222.016 840.096,566.463 843.054,937.18 846.012,1067.48 848.97,1106.51 851.928,311.512 854.886,390.088 857.844,1070.72 860.803,901.282 863.761,1000.85 866.719,325.894 869.677,505.113 872.635,638.27 875.593,1018.1 878.551,525.866 881.509,337.982 884.468,145.767 887.426,1060.56 890.384,490.021 893.342,1152.99 896.3,675.761 899.258,860.338 902.216,101.276 905.174,542.628 908.132,935.813 911.091,971.357 914.049,1122.57 917.007,660.898 919.965,892.399 922.923,235.772 925.881,217.556 928.839,975.724 931.797,423.831 934.756,1119.96 937.714,963.775 940.672,1103.53 943.63,209.49 946.588,873.342 949.546,803.82 952.504,1027.01 955.462,871.74 958.42,1119.42 961.379,940.13 964.337,782.693 967.295,525.895 970.253,1127.36 973.211,744.371 976.169,355.511 979.127,1042.69 982.085,935.374 985.043,951.777 988.002,859.997 990.96,297.39 993.918,1079.35 996.876,1037.19 999.834,327.778 1002.79,916.711 1005.75,1091.09 1008.71,349.18 1011.67,1035.73 1014.62,565.787 1017.58,1057.95 1020.54,613.379 1023.5,287.752 1026.46,648.539 1029.42,983.568 1032.37,531.143 1035.33,1127.15 1038.29,1132.14 1041.25,860.547 1044.21,190.507 1047.16,321.752 1050.12,773.952 1053.08,385.71 1056.04,309.598 1059,418.864 1061.95,1150.07 1064.91,656.652 1067.87,1099.82 1070.83,471.422 1073.79,1092.92 1076.75,553.394 1079.7,643.714 1082.66,321.038 1085.62,1101.1 1088.58,637.768 1091.54,147.263 1094.49,305.307 1097.45,988.331 1100.41,985.724 1103.37,176.022 1106.33,1096.29 1109.28,112.722 1112.24,1043.59 1115.2,156.704 1118.16,728.873 1121.12,113.362 1124.07,975.275 1127.03,458.757 1129.99,1158.02 1132.95,345.552 1135.91,325.318 1138.87,1189.25 1141.82,229.813 1144.78,80.8479 1147.74,996.935 1150.7,239.922 1153.66,1180.51 1156.61,1065.96 1159.57,641.314 1162.53,161.011 1165.49,422.363 1168.45,275.739 1171.4,212.61 1174.36,1061.28 1177.32,259.309 1180.28,335.631 1183.24,274.744 1186.2,404.816 1189.15,1150.04 1192.11,92.3645 1195.07,468.807 1198.03,1054.8 1200.99,809.888 1203.94,129.489 1206.9,414.867 1209.86,619.52 1212.82,1088.14 1215.78,398.743 1218.73,538.105 1221.69,592.161 1224.65,139.414 1227.61,360.536 1230.57,717.62 1233.53,1004.88 1236.48,1189.59 1239.44,721.689 1242.4,416.046 1245.36,101.122 1248.32,285.548 1251.27,195.912 1254.23,490.409 1257.19,813.814 1260.15,326.696 1263.11,473.847 1266.06,829.971 1269.02,261.07 1271.98,779.326 1274.94,845.05 1277.9,564.524 1280.86,732.623 1283.81,215.735 1286.77,403.859 1289.73,489.469 1292.69,1117.64 1295.65,423.249 1298.6,655.962 1301.56,420.128 1304.52,325.905 1307.48,135.652 1310.44,559.359 1313.39,807.816 1316.35,178.715 1319.31,126.511 1322.27,111.959 1325.23,199.911 1328.18,1000.51 1331.14,441.881 1334.1,637.069 1337.06,1155.62 1340.02,925.718 1342.98,145.554 1345.93,231.603 1348.89,150.682 1351.85,491.554 1354.81,575.312 1357.77,1089.35 1360.72,755.207 1363.68,455.197 1366.64,727.166 1369.6,278.341 1372.56,652.838 1375.51,556.707 1378.47,629.564 1381.43,921.543 1384.39,261.088 1387.35,945.903 1390.31,133.788 1393.26,654.497 1396.22,1057.95 1399.18,1037.92 1402.14,261.167 1405.1,634.239 1408.05,591.747 1411.01,993.309 1413.97,457.348 1416.93,856.04 1419.89,450.735 1422.84,1152.66 1425.8,989.427 1428.76,874.077 1431.72,298.778 1434.68,265.841 1437.64,1163.21 1440.59,503.004 1443.55,675.837 1446.51,453.686 1449.47,393.694 1452.43,966.271 1455.38,763.096 1458.34,582.959 1461.3,958.579 1464.26,1037.91 1467.22,545.964 1470.17,744.101 1473.13,370.931 1476.09,469.979 1479.05,973.38 1482.01,276.627 1484.97,914.811 1487.92,676.584 1490.88,1114.02 1493.84,1017.75 1496.8,1046.18 1499.76,1094.96 1502.71,1152.62 1505.67,474.757 1508.63,804.231 1511.59,534.677 1514.55,389.849 1517.5,128.281 1520.46,783.628 1523.42,380.423 1526.38,294.678 1529.34,214.75 1532.29,1026.21 1535.25,579.598 1538.21,473.196 1541.17,1102.83 1544.13,974.554 1547.09,321.451 1550.04,714.201 1553,300.727 1555.96,240.466 1558.92,232.797 1561.88,725.038 1564.83,229.324 1567.79,1141.2 1570.75,775.481 1573.71,954.418 1576.67,582.417 1579.62,1111.37 1582.58,469.502 1585.54,822.357 1588.5,798.996 1591.46,366.074 1594.42,113.964 1597.37,973.483 1600.33,984.977 1603.29,177.7 1606.25,611.411 1609.21,93.9154 1612.16,259.318 1615.12,879.752 1618.08,451.292 1621.04,1131.23 1624,911.591 1626.95,970.656 1629.91,1021.61 1632.87,726.17 1635.83,587.551 1638.79,268.944 1641.75,1073.75 1644.7,1048.77 1647.66,797.733 1650.62,426.522 1653.58,932.157 1656.54,505.486 1659.49,1058.22 1662.45,691.873 1665.41,605.896 1668.37,96.9131 1671.33,1077.82 1674.28,217.44 1677.24,774.33 1680.2,1146.56 1683.16,983.879 1686.12,734.801 1689.08,1101.08 1692.03,694.488 1694.99,811.036 1697.95,1151.99 1700.91,885.526 1703.87,474.607 1706.82,792.738 1709.78,449.755 1712.74,436.681 1715.7,280.006 1718.66,765.292 1721.61,316.509 1724.57,964.149 1727.53,110.68 1730.49,682.393 1733.45,241.262 1736.41,934.507 1739.36,720.85 1742.32,729.219 1745.28,247.509 1748.24,550.428 1751.2,902.502 1754.15,775.335 1757.11,119.196 1760.07,541.555 1763.03,520.144 1765.99,204.872 1768.94,1076.04 1771.9,386.502 1774.86,651.517 1777.82,1179.34 1780.78,138.719 1783.73,154.096 1786.69,904.029 1789.65,393.673 1792.61,285.215 1795.57,980.587 1798.53,644.455 1801.48,503.574 1804.44,521.641 1807.4,569.531 1810.36,839.467 1813.32,1146.31 1816.27,1050.31 1819.23,965.981 1822.19,743.625 1825.15,110.872 1828.11,771.697 1831.06,309.511 1834.02,1198.58 1836.98,1039.52 1839.94,811.993 1842.9,395.544 1845.86,1183.24 1848.81,772.901 1851.77,422.997 1854.73,926.563 1857.69,268.765 1860.65,656.171 1863.6,1084.89 1866.56,411.457 1869.52,569.863 1872.48,1133.79 1875.44,382.33 1878.39,579.867 1881.35,135.17 1884.31,615.137 1887.27,436.605 1890.23,1114.71 1893.19,118.772 1896.14,1148.51 1899.1,360.597 1902.06,156.363 1905.02,762.221 1907.98,208.384 1910.93,572.049 1913.89,205.27 1916.85,548.06 1919.81,716.937 1922.77,176.54 1925.72,99.5705 1928.68,975.454 1931.64,667.092 1934.6,174.733 1937.56,876.376 1940.52,890.748 1943.47,609.045 1946.43,387.448 1949.39,1176.12 1952.35,593.99 1955.31,413.14 1958.26,550.646 1961.22,449.052 1964.18,838.238 1967.14,574.48 1970.1,1145.46 1973.05,432.747 1976.01,1156.49 1978.97,296.415 1981.93,1098.65 1984.89,136.135 1987.84,725.261 1990.8,257.866 1993.76,538.359 1996.72,736.864 1999.68,389.878 2002.64,658.805 2005.59,970.488 2008.55,493.809 2011.51,1055.69 "/>
<path clip-path="url(#clip900)" d="M1761.48 190.502 L2002.04 190.502 L2002.04 86.8219 L1761.48 86.8219  Z" fill="#ffffff" fill-rule="evenodd" fill-opacity="1"/>
<polyline clip-path="url(#clip900)" style="stroke:#000000; stroke-linecap:round; stroke-linejoin:round; stroke-width:4; stroke-opacity:1; fill:none" points="1761.48,190.502 2002.04,190.502 2002.04,86.8219 1761.48,86.8219 1761.48,190.502 "/>
<polyline clip-path="url(#clip900)" style="stroke:#009af9; stroke-linecap:round; stroke-linejoin:round; stroke-width:4; stroke-opacity:1; fill:none" points="1782.38,138.662 1907.81,138.662 "/>
<path clip-path="url(#clip900)" d="M1942.55 158.349 Q1940.75 162.979 1939.03 164.391 Q1937.32 165.803 1934.45 165.803 L1931.05 165.803 L1931.05 162.238 L1933.55 162.238 Q1935.31 162.238 1936.28 161.405 Q1937.25 160.572 1938.43 157.47 L1939.2 155.525 L1928.71 130.016 L1933.22 130.016 L1941.33 150.294 L1949.43 130.016 L1953.94 130.016 L1942.55 158.349 Z" fill="#000000" fill-rule="nonzero" fill-opacity="1" /><path clip-path="url(#clip900)" d="M1961.23 152.007 L1968.87 152.007 L1968.87 125.641 L1960.56 127.308 L1960.56 123.049 L1968.83 121.382 L1973.5 121.382 L1973.5 152.007 L1981.14 152.007 L1981.14 155.942 L1961.23 155.942 L1961.23 152.007 Z" fill="#000000" fill-rule="nonzero" fill-opacity="1" /></svg>
