<?xml version="1.0" encoding="utf-8"?>
<svg xmlns="http://www.w3.org/2000/svg" xmlns:xlink="http://www.w3.org/1999/xlink" width="528" height="336" viewBox="0 0 2112 1344">
<defs>
  <clipPath id="clip930">
    <rect x="0" y="0" width="2112" height="1344"/>
  </clipPath>
</defs>
<path clip-path="url(#clip930)" d="M0 1344 L2112 1344 L2112 0 L0 0  Z" fill="#ffffff" fill-rule="evenodd" fill-opacity="1"/>
<defs>
  <clipPath id="clip931">
    <rect x="422" y="0" width="1479" height="1344"/>
  </clipPath>
</defs>
<path clip-path="url(#clip930)" d="M183.394 1234.58 L2064.76 1234.58 L2064.76 47.2441 L183.394 47.2441  Z" fill="#ffffff" fill-rule="evenodd" fill-opacity="1"/>
<defs>
  <clipPath id="clip932">
    <rect x="183" y="47" width="1882" height="1188"/>
  </clipPath>
</defs>
<polyline clip-path="url(#clip932)" style="stroke:#000000; stroke-linecap:round; stroke-linejoin:round; stroke-width:2; stroke-opacity:0.1; fill:none" points="236.64,1234.58 236.64,47.2441 "/>
<polyline clip-path="url(#clip932)" style="stroke:#000000; stroke-linecap:round; stroke-linejoin:round; stroke-width:2; stroke-opacity:0.1; fill:none" points="532.452,1234.58 532.452,47.2441 "/>
<polyline clip-path="url(#clip932)" style="stroke:#000000; stroke-linecap:round; stroke-linejoin:round; stroke-width:2; stroke-opacity:0.1; fill:none" points="828.263,1234.58 828.263,47.2441 "/>
<polyline clip-path="url(#clip932)" style="stroke:#000000; stroke-linecap:round; stroke-linejoin:round; stroke-width:2; stroke-opacity:0.1; fill:none" points="1124.07,1234.58 1124.07,47.2441 "/>
<polyline clip-path="url(#clip932)" style="stroke:#000000; stroke-linecap:round; stroke-linejoin:round; stroke-width:2; stroke-opacity:0.1; fill:none" points="1419.89,1234.58 1419.89,47.2441 "/>
<polyline clip-path="url(#clip932)" style="stroke:#000000; stroke-linecap:round; stroke-linejoin:round; stroke-width:2; stroke-opacity:0.1; fill:none" points="1715.7,1234.58 1715.7,47.2441 "/>
<polyline clip-path="url(#clip932)" style="stroke:#000000; stroke-linecap:round; stroke-linejoin:round; stroke-width:2; stroke-opacity:0.1; fill:none" points="2011.51,1234.58 2011.51,47.2441 "/>
<polyline clip-path="url(#clip930)" style="stroke:#000000; stroke-linecap:round; stroke-linejoin:round; stroke-width:4; stroke-opacity:1; fill:none" points="183.394,1234.58 2064.76,1234.58 "/>
<polyline clip-path="url(#clip930)" style="stroke:#000000; stroke-linecap:round; stroke-linejoin:round; stroke-width:4; stroke-opacity:1; fill:none" points="236.64,1234.58 236.64,1215.68 "/>
<polyline clip-path="url(#clip930)" style="stroke:#000000; stroke-linecap:round; stroke-linejoin:round; stroke-width:4; stroke-opacity:1; fill:none" points="532.452,1234.58 532.452,1215.68 "/>
<polyline clip-path="url(#clip930)" style="stroke:#000000; stroke-linecap:round; stroke-linejoin:round; stroke-width:4; stroke-opacity:1; fill:none" points="828.263,1234.58 828.263,1215.68 "/>
<polyline clip-path="url(#clip930)" style="stroke:#000000; stroke-linecap:round; stroke-linejoin:round; stroke-width:4; stroke-opacity:1; fill:none" points="1124.07,1234.58 1124.07,1215.68 "/>
<polyline clip-path="url(#clip930)" style="stroke:#000000; stroke-linecap:round; stroke-linejoin:round; stroke-width:4; stroke-opacity:1; fill:none" points="1419.89,1234.58 1419.89,1215.68 "/>
<polyline clip-path="url(#clip930)" style="stroke:#000000; stroke-linecap:round; stroke-linejoin:round; stroke-width:4; stroke-opacity:1; fill:none" points="1715.7,1234.58 1715.7,1215.68 "/>
<polyline clip-path="url(#clip930)" style="stroke:#000000; stroke-linecap:round; stroke-linejoin:round; stroke-width:4; stroke-opacity:1; fill:none" points="2011.51,1234.58 2011.51,1215.68 "/>
<path clip-path="url(#clip930)" d="M206.108 1277.85 L235.784 1277.85 L235.784 1281.78 L206.108 1281.78 L206.108 1277.85 Z" fill="#000000" fill-rule="nonzero" fill-opacity="1" /><path clip-path="url(#clip930)" d="M260.043 1276.04 Q263.399 1276.76 265.274 1279.03 Q267.172 1281.3 267.172 1284.63 Q267.172 1289.74 263.654 1292.55 Q260.135 1295.35 253.654 1295.35 Q251.478 1295.35 249.163 1294.91 Q246.872 1294.49 244.418 1293.63 L244.418 1289.12 Q246.362 1290.25 248.677 1290.83 Q250.992 1291.41 253.515 1291.41 Q257.913 1291.41 260.205 1289.67 Q262.52 1287.94 262.52 1284.63 Q262.52 1281.57 260.367 1279.86 Q258.237 1278.12 254.418 1278.12 L250.39 1278.12 L250.39 1274.28 L254.603 1274.28 Q258.052 1274.28 259.881 1272.92 Q261.709 1271.53 261.709 1268.93 Q261.709 1266.27 259.811 1264.86 Q257.936 1263.42 254.418 1263.42 Q252.496 1263.42 250.297 1263.84 Q248.098 1264.26 245.459 1265.14 L245.459 1260.97 Q248.122 1260.23 250.436 1259.86 Q252.774 1259.49 254.834 1259.49 Q260.158 1259.49 263.26 1261.92 Q266.362 1264.33 266.362 1268.45 Q266.362 1271.32 264.719 1273.31 Q263.075 1275.28 260.043 1276.04 Z" fill="#000000" fill-rule="nonzero" fill-opacity="1" /><path clip-path="url(#clip930)" d="M502.394 1277.85 L532.07 1277.85 L532.07 1281.78 L502.394 1281.78 L502.394 1277.85 Z" fill="#000000" fill-rule="nonzero" fill-opacity="1" /><path clip-path="url(#clip930)" d="M546.19 1290.74 L562.509 1290.74 L562.509 1294.67 L540.565 1294.67 L540.565 1290.74 Q543.227 1287.99 547.81 1283.36 Q552.417 1278.7 553.597 1277.36 Q555.843 1274.84 556.722 1273.1 Q557.625 1271.34 557.625 1269.65 Q557.625 1266.9 555.681 1265.16 Q553.759 1263.42 550.658 1263.42 Q548.459 1263.42 546.005 1264.19 Q543.574 1264.95 540.797 1266.5 L540.797 1261.78 Q543.621 1260.65 546.074 1260.07 Q548.528 1259.49 550.565 1259.49 Q555.935 1259.49 559.13 1262.17 Q562.324 1264.86 562.324 1269.35 Q562.324 1271.48 561.514 1273.4 Q560.727 1275.3 558.621 1277.89 Q558.042 1278.56 554.94 1281.78 Q551.838 1284.98 546.19 1290.74 Z" fill="#000000" fill-rule="nonzero" fill-opacity="1" /><path clip-path="url(#clip930)" d="M798.02 1277.85 L827.696 1277.85 L827.696 1281.78 L798.02 1281.78 L798.02 1277.85 Z" fill="#000000" fill-rule="nonzero" fill-opacity="1" /><path clip-path="url(#clip930)" d="M838.599 1290.74 L846.238 1290.74 L846.238 1264.37 L837.928 1266.04 L837.928 1261.78 L846.191 1260.11 L850.867 1260.11 L850.867 1290.74 L858.506 1290.74 L858.506 1294.67 L838.599 1294.67 L838.599 1290.74 Z" fill="#000000" fill-rule="nonzero" fill-opacity="1" /><path clip-path="url(#clip930)" d="M1124.07 1263.19 Q1120.46 1263.19 1118.64 1266.76 Q1116.83 1270.3 1116.83 1277.43 Q1116.83 1284.54 1118.64 1288.1 Q1120.46 1291.64 1124.07 1291.64 Q1127.71 1291.64 1129.51 1288.1 Q1131.34 1284.54 1131.34 1277.43 Q1131.34 1270.3 1129.51 1266.76 Q1127.71 1263.19 1124.07 1263.19 M1124.07 1259.49 Q1129.89 1259.49 1132.94 1264.1 Q1136.02 1268.68 1136.02 1277.43 Q1136.02 1286.16 1132.94 1290.76 Q1129.89 1295.35 1124.07 1295.35 Q1118.26 1295.35 1115.19 1290.76 Q1112.13 1286.16 1112.13 1277.43 Q1112.13 1268.68 1115.19 1264.1 Q1118.26 1259.49 1124.07 1259.49 Z" fill="#000000" fill-rule="nonzero" fill-opacity="1" /><path clip-path="url(#clip930)" d="M1410.27 1290.74 L1417.91 1290.74 L1417.91 1264.37 L1409.6 1266.04 L1409.6 1261.78 L1417.86 1260.11 L1422.54 1260.11 L1422.54 1290.74 L1430.18 1290.74 L1430.18 1294.67 L1410.27 1294.67 L1410.27 1290.74 Z" fill="#000000" fill-rule="nonzero" fill-opacity="1" /><path clip-path="url(#clip930)" d="M1710.35 1290.74 L1726.67 1290.74 L1726.67 1294.67 L1704.73 1294.67 L1704.73 1290.74 Q1707.39 1287.99 1711.97 1283.36 Q1716.58 1278.7 1717.76 1277.36 Q1720 1274.84 1720.88 1273.1 Q1721.79 1271.34 1721.79 1269.65 Q1721.79 1266.9 1719.84 1265.16 Q1717.92 1263.42 1714.82 1263.42 Q1712.62 1263.42 1710.17 1264.19 Q1707.74 1264.95 1704.96 1266.5 L1704.96 1261.78 Q1707.78 1260.65 1710.24 1260.07 Q1712.69 1259.49 1714.73 1259.49 Q1720.1 1259.49 1723.29 1262.17 Q1726.49 1264.86 1726.49 1269.35 Q1726.49 1271.48 1725.67 1273.4 Q1724.89 1275.3 1722.78 1277.89 Q1722.2 1278.56 1719.1 1281.78 Q1716 1284.98 1710.35 1290.74 Z" fill="#000000" fill-rule="nonzero" fill-opacity="1" /><path clip-path="url(#clip930)" d="M2015.76 1276.04 Q2019.11 1276.76 2020.99 1279.03 Q2022.89 1281.3 2022.89 1284.63 Q2022.89 1289.74 2019.37 1292.55 Q2015.85 1295.35 2009.37 1295.35 Q2007.19 1295.35 2004.88 1294.91 Q2002.59 1294.49 2000.13 1293.63 L2000.13 1289.12 Q2002.08 1290.25 2004.39 1290.83 Q2006.71 1291.41 2009.23 1291.41 Q2013.63 1291.41 2015.92 1289.67 Q2018.23 1287.94 2018.23 1284.63 Q2018.23 1281.57 2016.08 1279.86 Q2013.95 1278.12 2010.13 1278.12 L2006.1 1278.12 L2006.1 1274.28 L2010.32 1274.28 Q2013.77 1274.28 2015.6 1272.92 Q2017.42 1271.53 2017.42 1268.93 Q2017.42 1266.27 2015.53 1264.86 Q2013.65 1263.42 2010.13 1263.42 Q2008.21 1263.42 2006.01 1263.84 Q2003.81 1264.26 2001.17 1265.14 L2001.17 1260.97 Q2003.84 1260.23 2006.15 1259.86 Q2008.49 1259.49 2010.55 1259.49 Q2015.87 1259.49 2018.98 1261.92 Q2022.08 1264.33 2022.08 1268.45 Q2022.08 1271.32 2020.43 1273.31 Q2018.79 1275.28 2015.76 1276.04 Z" fill="#000000" fill-rule="nonzero" fill-opacity="1" /><polyline clip-path="url(#clip932)" style="stroke:#000000; stroke-linecap:round; stroke-linejoin:round; stroke-width:2; stroke-opacity:0.1; fill:none" points="183.394,1203.39 2064.76,1203.39 "/>
<polyline clip-path="url(#clip932)" style="stroke:#000000; stroke-linecap:round; stroke-linejoin:round; stroke-width:2; stroke-opacity:0.1; fill:none" points="183.394,922.577 2064.76,922.577 "/>
<polyline clip-path="url(#clip932)" style="stroke:#000000; stroke-linecap:round; stroke-linejoin:round; stroke-width:2; stroke-opacity:0.1; fill:none" points="183.394,641.765 2064.76,641.765 "/>
<polyline clip-path="url(#clip932)" style="stroke:#000000; stroke-linecap:round; stroke-linejoin:round; stroke-width:2; stroke-opacity:0.1; fill:none" points="183.394,360.953 2064.76,360.953 "/>
<polyline clip-path="url(#clip932)" style="stroke:#000000; stroke-linecap:round; stroke-linejoin:round; stroke-width:2; stroke-opacity:0.1; fill:none" points="183.394,80.1418 2064.76,80.1418 "/>
<polyline clip-path="url(#clip930)" style="stroke:#000000; stroke-linecap:round; stroke-linejoin:round; stroke-width:4; stroke-opacity:1; fill:none" points="183.394,1234.58 183.394,47.2441 "/>
<polyline clip-path="url(#clip930)" style="stroke:#000000; stroke-linecap:round; stroke-linejoin:round; stroke-width:4; stroke-opacity:1; fill:none" points="183.394,1203.39 202.292,1203.39 "/>
<polyline clip-path="url(#clip930)" style="stroke:#000000; stroke-linecap:round; stroke-linejoin:round; stroke-width:4; stroke-opacity:1; fill:none" points="183.394,922.577 202.292,922.577 "/>
<polyline clip-path="url(#clip930)" style="stroke:#000000; stroke-linecap:round; stroke-linejoin:round; stroke-width:4; stroke-opacity:1; fill:none" points="183.394,641.765 202.292,641.765 "/>
<polyline clip-path="url(#clip930)" style="stroke:#000000; stroke-linecap:round; stroke-linejoin:round; stroke-width:4; stroke-opacity:1; fill:none" points="183.394,360.953 202.292,360.953 "/>
<polyline clip-path="url(#clip930)" style="stroke:#000000; stroke-linecap:round; stroke-linejoin:round; stroke-width:4; stroke-opacity:1; fill:none" points="183.394,80.1418 202.292,80.1418 "/>
<path clip-path="url(#clip930)" d="M64.3765 1189.19 Q60.7654 1189.19 58.9367 1192.75 Q57.1312 1196.29 57.1312 1203.42 Q57.1312 1210.53 58.9367 1214.09 Q60.7654 1217.64 64.3765 1217.64 Q68.0107 1217.64 69.8163 1214.09 Q71.645 1210.53 71.645 1203.42 Q71.645 1196.29 69.8163 1192.75 Q68.0107 1189.19 64.3765 1189.19 M64.3765 1185.48 Q70.1867 1185.48 73.2422 1190.09 Q76.3209 1194.67 76.3209 1203.42 Q76.3209 1212.15 73.2422 1216.76 Q70.1867 1221.34 64.3765 1221.34 Q58.5664 1221.34 55.4877 1216.76 Q52.4321 1212.15 52.4321 1203.42 Q52.4321 1194.67 55.4877 1190.09 Q58.5664 1185.48 64.3765 1185.48 Z" fill="#000000" fill-rule="nonzero" fill-opacity="1" /><path clip-path="url(#clip930)" d="M84.5384 1214.79 L89.4227 1214.79 L89.4227 1220.67 L84.5384 1220.67 L84.5384 1214.79 Z" fill="#000000" fill-rule="nonzero" fill-opacity="1" /><path clip-path="url(#clip930)" d="M109.608 1189.19 Q105.997 1189.19 104.168 1192.75 Q102.362 1196.29 102.362 1203.42 Q102.362 1210.53 104.168 1214.09 Q105.997 1217.64 109.608 1217.64 Q113.242 1217.64 115.048 1214.09 Q116.876 1210.53 116.876 1203.42 Q116.876 1196.29 115.048 1192.75 Q113.242 1189.19 109.608 1189.19 M109.608 1185.48 Q115.418 1185.48 118.473 1190.09 Q121.552 1194.67 121.552 1203.42 Q121.552 1212.15 118.473 1216.76 Q115.418 1221.34 109.608 1221.34 Q103.798 1221.34 100.719 1216.76 Q97.6634 1212.15 97.6634 1203.42 Q97.6634 1194.67 100.719 1190.09 Q103.798 1185.48 109.608 1185.48 Z" fill="#000000" fill-rule="nonzero" fill-opacity="1" /><path clip-path="url(#clip930)" d="M139.77 1189.19 Q136.159 1189.19 134.33 1192.75 Q132.524 1196.29 132.524 1203.42 Q132.524 1210.53 134.33 1214.09 Q136.159 1217.64 139.77 1217.64 Q143.404 1217.64 145.209 1214.09 Q147.038 1210.53 147.038 1203.42 Q147.038 1196.29 145.209 1192.75 Q143.404 1189.19 139.77 1189.19 M139.77 1185.48 Q145.58 1185.48 148.635 1190.09 Q151.714 1194.67 151.714 1203.42 Q151.714 1212.15 148.635 1216.76 Q145.58 1221.34 139.77 1221.34 Q133.959 1221.34 130.881 1216.76 Q127.825 1212.15 127.825 1203.42 Q127.825 1194.67 130.881 1190.09 Q133.959 1185.48 139.77 1185.48 Z" fill="#000000" fill-rule="nonzero" fill-opacity="1" /><path clip-path="url(#clip930)" d="M65.3719 908.375 Q61.7608 908.375 59.9321 911.94 Q58.1265 915.482 58.1265 922.611 Q58.1265 929.718 59.9321 933.283 Q61.7608 936.824 65.3719 936.824 Q69.0061 936.824 70.8117 933.283 Q72.6404 929.718 72.6404 922.611 Q72.6404 915.482 70.8117 911.94 Q69.0061 908.375 65.3719 908.375 M65.3719 904.672 Q71.182 904.672 74.2376 909.278 Q77.3163 913.861 77.3163 922.611 Q77.3163 931.338 74.2376 935.945 Q71.182 940.528 65.3719 940.528 Q59.5617 940.528 56.483 935.945 Q53.4275 931.338 53.4275 922.611 Q53.4275 913.861 56.483 909.278 Q59.5617 904.672 65.3719 904.672 Z" fill="#000000" fill-rule="nonzero" fill-opacity="1" /><path clip-path="url(#clip930)" d="M85.5338 933.977 L90.418 933.977 L90.418 939.857 L85.5338 939.857 L85.5338 933.977 Z" fill="#000000" fill-rule="nonzero" fill-opacity="1" /><path clip-path="url(#clip930)" d="M104.631 935.922 L120.95 935.922 L120.95 939.857 L99.006 939.857 L99.006 935.922 Q101.668 933.167 106.251 928.537 Q110.858 923.885 112.038 922.542 Q114.284 920.019 115.163 918.283 Q116.066 916.523 116.066 914.834 Q116.066 912.079 114.122 910.343 Q112.2 908.607 109.098 908.607 Q106.899 908.607 104.446 909.371 Q102.015 910.135 99.2374 911.686 L99.2374 906.963 Q102.061 905.829 104.515 905.25 Q106.969 904.672 109.006 904.672 Q114.376 904.672 117.571 907.357 Q120.765 910.042 120.765 914.533 Q120.765 916.662 119.955 918.584 Q119.168 920.482 117.061 923.074 Q116.483 923.746 113.381 926.963 Q110.279 930.158 104.631 935.922 Z" fill="#000000" fill-rule="nonzero" fill-opacity="1" /><path clip-path="url(#clip930)" d="M130.811 905.297 L149.168 905.297 L149.168 909.232 L135.094 909.232 L135.094 917.704 Q136.112 917.357 137.131 917.195 Q138.149 917.01 139.168 917.01 Q144.955 917.01 148.334 920.181 Q151.714 923.352 151.714 928.769 Q151.714 934.347 148.242 937.449 Q144.77 940.528 138.45 940.528 Q136.274 940.528 134.006 940.158 Q131.76 939.787 129.353 939.047 L129.353 934.347 Q131.436 935.482 133.659 936.037 Q135.881 936.593 138.358 936.593 Q142.362 936.593 144.7 934.486 Q147.038 932.38 147.038 928.769 Q147.038 925.158 144.7 923.051 Q142.362 920.945 138.358 920.945 Q136.483 920.945 134.608 921.361 Q132.756 921.778 130.811 922.658 L130.811 905.297 Z" fill="#000000" fill-rule="nonzero" fill-opacity="1" /><path clip-path="url(#clip930)" d="M64.3765 627.564 Q60.7654 627.564 58.9367 631.129 Q57.1312 634.67 57.1312 641.8 Q57.1312 648.906 58.9367 652.471 Q60.7654 656.013 64.3765 656.013 Q68.0107 656.013 69.8163 652.471 Q71.645 648.906 71.645 641.8 Q71.645 634.67 69.8163 631.129 Q68.0107 627.564 64.3765 627.564 M64.3765 623.86 Q70.1867 623.86 73.2422 628.467 Q76.3209 633.05 76.3209 641.8 Q76.3209 650.527 73.2422 655.133 Q70.1867 659.716 64.3765 659.716 Q58.5664 659.716 55.4877 655.133 Q52.4321 650.527 52.4321 641.8 Q52.4321 633.05 55.4877 628.467 Q58.5664 623.86 64.3765 623.86 Z" fill="#000000" fill-rule="nonzero" fill-opacity="1" /><path clip-path="url(#clip930)" d="M84.5384 653.165 L89.4227 653.165 L89.4227 659.045 L84.5384 659.045 L84.5384 653.165 Z" fill="#000000" fill-rule="nonzero" fill-opacity="1" /><path clip-path="url(#clip930)" d="M99.6541 624.485 L118.01 624.485 L118.01 628.42 L103.936 628.42 L103.936 636.892 Q104.955 636.545 105.974 636.383 Q106.992 636.198 108.011 636.198 Q113.798 636.198 117.177 639.369 Q120.557 642.541 120.557 647.957 Q120.557 653.536 117.085 656.638 Q113.612 659.716 107.293 659.716 Q105.117 659.716 102.849 659.346 Q100.603 658.976 98.1958 658.235 L98.1958 653.536 Q100.279 654.67 102.501 655.226 Q104.724 655.781 107.2 655.781 Q111.205 655.781 113.543 653.675 Q115.881 651.568 115.881 647.957 Q115.881 644.346 113.543 642.24 Q111.205 640.133 107.2 640.133 Q105.325 640.133 103.45 640.55 Q101.599 640.966 99.6541 641.846 L99.6541 624.485 Z" fill="#000000" fill-rule="nonzero" fill-opacity="1" /><path clip-path="url(#clip930)" d="M139.77 627.564 Q136.159 627.564 134.33 631.129 Q132.524 634.67 132.524 641.8 Q132.524 648.906 134.33 652.471 Q136.159 656.013 139.77 656.013 Q143.404 656.013 145.209 652.471 Q147.038 648.906 147.038 641.8 Q147.038 634.67 145.209 631.129 Q143.404 627.564 139.77 627.564 M139.77 623.86 Q145.58 623.86 148.635 628.467 Q151.714 633.05 151.714 641.8 Q151.714 650.527 148.635 655.133 Q145.58 659.716 139.77 659.716 Q133.959 659.716 130.881 655.133 Q127.825 650.527 127.825 641.8 Q127.825 633.05 130.881 628.467 Q133.959 623.86 139.77 623.86 Z" fill="#000000" fill-rule="nonzero" fill-opacity="1" /><path clip-path="url(#clip930)" d="M65.3719 346.752 Q61.7608 346.752 59.9321 350.317 Q58.1265 353.859 58.1265 360.988 Q58.1265 368.095 59.9321 371.659 Q61.7608 375.201 65.3719 375.201 Q69.0061 375.201 70.8117 371.659 Q72.6404 368.095 72.6404 360.988 Q72.6404 353.859 70.8117 350.317 Q69.0061 346.752 65.3719 346.752 M65.3719 343.048 Q71.182 343.048 74.2376 347.655 Q77.3163 352.238 77.3163 360.988 Q77.3163 369.715 74.2376 374.321 Q71.182 378.905 65.3719 378.905 Q59.5617 378.905 56.483 374.321 Q53.4275 369.715 53.4275 360.988 Q53.4275 352.238 56.483 347.655 Q59.5617 343.048 65.3719 343.048 Z" fill="#000000" fill-rule="nonzero" fill-opacity="1" /><path clip-path="url(#clip930)" d="M85.5338 372.354 L90.418 372.354 L90.418 378.233 L85.5338 378.233 L85.5338 372.354 Z" fill="#000000" fill-rule="nonzero" fill-opacity="1" /><path clip-path="url(#clip930)" d="M99.4226 343.673 L121.645 343.673 L121.645 345.664 L109.098 378.233 L104.214 378.233 L116.02 347.609 L99.4226 347.609 L99.4226 343.673 Z" fill="#000000" fill-rule="nonzero" fill-opacity="1" /><path clip-path="url(#clip930)" d="M130.811 343.673 L149.168 343.673 L149.168 347.609 L135.094 347.609 L135.094 356.081 Q136.112 355.734 137.131 355.572 Q138.149 355.386 139.168 355.386 Q144.955 355.386 148.334 358.558 Q151.714 361.729 151.714 367.146 Q151.714 372.724 148.242 375.826 Q144.77 378.905 138.45 378.905 Q136.274 378.905 134.006 378.534 Q131.76 378.164 129.353 377.423 L129.353 372.724 Q131.436 373.858 133.659 374.414 Q135.881 374.97 138.358 374.97 Q142.362 374.97 144.7 372.863 Q147.038 370.757 147.038 367.146 Q147.038 363.534 144.7 361.428 Q142.362 359.321 138.358 359.321 Q136.483 359.321 134.608 359.738 Q132.756 360.155 130.811 361.034 L130.811 343.673 Z" fill="#000000" fill-rule="nonzero" fill-opacity="1" /><path clip-path="url(#clip930)" d="M55.1867 93.4866 L62.8256 93.4866 L62.8256 67.121 L54.5154 68.7877 L54.5154 64.5284 L62.7793 62.8618 L67.4552 62.8618 L67.4552 93.4866 L75.094 93.4866 L75.094 97.4218 L55.1867 97.4218 L55.1867 93.4866 Z" fill="#000000" fill-rule="nonzero" fill-opacity="1" /><path clip-path="url(#clip930)" d="M84.5384 91.5422 L89.4227 91.5422 L89.4227 97.4218 L84.5384 97.4218 L84.5384 91.5422 Z" fill="#000000" fill-rule="nonzero" fill-opacity="1" /><path clip-path="url(#clip930)" d="M109.608 65.9405 Q105.997 65.9405 104.168 69.5053 Q102.362 73.0469 102.362 80.1765 Q102.362 87.2829 104.168 90.8477 Q105.997 94.3894 109.608 94.3894 Q113.242 94.3894 115.048 90.8477 Q116.876 87.2829 116.876 80.1765 Q116.876 73.0469 115.048 69.5053 Q113.242 65.9405 109.608 65.9405 M109.608 62.2368 Q115.418 62.2368 118.473 66.8432 Q121.552 71.4266 121.552 80.1765 Q121.552 88.9033 118.473 93.5098 Q115.418 98.0931 109.608 98.0931 Q103.798 98.0931 100.719 93.5098 Q97.6634 88.9033 97.6634 80.1765 Q97.6634 71.4266 100.719 66.8432 Q103.798 62.2368 109.608 62.2368 Z" fill="#000000" fill-rule="nonzero" fill-opacity="1" /><path clip-path="url(#clip930)" d="M139.77 65.9405 Q136.159 65.9405 134.33 69.5053 Q132.524 73.0469 132.524 80.1765 Q132.524 87.2829 134.33 90.8477 Q136.159 94.3894 139.77 94.3894 Q143.404 94.3894 145.209 90.8477 Q147.038 87.2829 147.038 80.1765 Q147.038 73.0469 145.209 69.5053 Q143.404 65.9405 139.77 65.9405 M139.77 62.2368 Q145.58 62.2368 148.635 66.8432 Q151.714 71.4266 151.714 80.1765 Q151.714 88.9033 148.635 93.5098 Q145.58 98.0931 139.77 98.0931 Q133.959 98.0931 130.881 93.5098 Q127.825 88.9033 127.825 80.1765 Q127.825 71.4266 130.881 66.8432 Q133.959 62.2368 139.77 62.2368 Z" fill="#000000" fill-rule="nonzero" fill-opacity="1" /><polyline clip-path="url(#clip932)" style="stroke:#009af9; stroke-linecap:round; stroke-linejoin:round; stroke-width:4; stroke-opacity:1; fill:none" points="236.64,1107.84 239.598,1124.55 242.556,798.359 245.514,1103.24 248.473,570.677 251.431,456.041 254.389,1168.12 257.347,666.404 260.305,584.853 263.263,98.8566 266.221,194.46 269.179,393.129 272.137,411.41 275.096,102.876 278.054,784.259 281.012,506.251 283.97,805.509 286.928,824.689 289.886,786.141 292.844,118.407 295.802,231.95 298.761,448.364 301.719,738.107 304.677,289.619 307.635,1011.51 310.593,866.18 313.551,1023.3 316.509,252.381 319.467,688.545 322.425,844.138 325.384,138.699 328.342,903.968 331.3,260.006 334.258,90.7889 337.216,744.88 340.174,792.587 343.132,284.612 346.09,776.86 349.049,142.13 352.007,1157.75 354.965,464.019 357.923,740.56 360.881,707.053 363.839,968.525 366.797,529.423 369.755,995.839 372.713,547.684 375.672,525.558 378.63,1096.74 381.588,1196.04 384.546,541.979 387.504,793.388 390.462,1069.42 393.42,108.588 396.378,227.354 399.336,1104.71 402.295,1005.38 405.253,582.471 408.211,134.384 411.169,1198.32 414.127,150.669 417.085,334.294 420.043,528.485 423.001,554.647 425.96,89.8253 428.918,973.47 431.876,951.051 434.834,224.128 437.792,425.713 440.75,184.776 443.708,1023.71 446.666,873.005 449.624,230.429 452.583,740.607 455.541,1034.06 458.499,276.067 461.457,745.06 464.415,668.872 467.373,1182.32 470.331,979.103 473.289,157.012 476.248,836.206 479.206,1096.95 482.164,312.554 485.122,567.92 488.08,1159.52 491.038,795.919 493.996,587.163 496.954,913.91 499.912,1158.85 502.871,90.6864 505.829,882.851 508.787,592.998 511.745,572.92 514.703,700.344 517.661,325.862 520.619,364.442 523.577,251.646 526.535,530.225 529.494,980.805 532.452,1025.31 535.41,746.356 538.368,1164.03 541.326,85.6604 544.284,796.367 547.242,868.515 550.2,606.428 553.159,271.091 556.117,376.974 559.075,436.199 562.033,468.643 564.991,1127.4 567.949,921.721 570.907,600.661 573.865,317.816 576.823,325.454 579.782,149.327 582.74,1168.15 585.698,439.554 588.656,1085.05 591.614,634.945 594.572,673.102 597.53,786.035 600.488,747.741 603.447,1063.21 606.405,767.944 609.363,1176.18 612.321,1063.55 615.279,645.933 618.237,861.659 621.195,336.902 624.153,1030.1 627.111,1010.17 630.07,470.805 633.028,158.615 635.986,310.674 638.944,1040.22 641.902,136.841 644.86,424.561 647.818,672.738 650.776,1098.74 653.734,336.99 656.693,458.508 659.651,992.898 662.609,335.85 665.567,842.117 668.525,784.68 671.483,997.308 674.441,955.34 677.399,575.617 680.358,244.802 683.316,658.231 686.274,521.153 689.232,957.58 692.19,130.108 695.148,426.202 698.106,685.181 701.064,341.717 704.022,542.428 706.981,277.315 709.939,152.521 712.897,983.982 715.855,256.172 718.813,541.72 721.771,877.503 724.729,422.054 727.687,895.475 730.645,796.739 733.604,741.015 736.562,1196.38 739.52,302.809 742.478,973.861 745.436,640.026 748.394,716.445 751.352,424.334 754.31,489.395 757.269,740.225 760.227,216.183 763.185,881.836 766.143,919.865 769.101,725.146 772.059,430.685 775.017,771.213 777.975,571.406 780.933,1103.43 783.892,405.338 786.85,499.232 789.808,471.108 792.766,321.063 795.724,1025.81 798.682,148.231 801.64,331.314 804.598,478.302 807.557,455.101 810.515,274.517 813.473,99.5033 816.431,492.047 819.389,911.045 822.347,259.789 825.305,798.718 828.263,727.739 831.221,985.19 834.18,423.343 837.138,1083.76 840.096,1061.94 843.054,140.402 846.012,1035.1 848.97,498.577 851.928,217.761 854.886,565.352 857.844,107.04 860.803,711.726 863.761,1078.97 866.719,812.857 869.677,1007.76 872.635,421.311 875.593,854.752 878.551,562.893 881.509,1178.13 884.468,700.334 887.426,521.404 890.384,956.706 893.342,266.899 896.3,1127.93 899.258,965.501 902.216,325.975 905.174,975.086 908.132,369.878 911.091,493.677 914.049,348.879 917.007,329.58 919.965,669.259 922.923,994.369 925.881,122.041 928.839,687.41 931.797,448.002 934.756,826.739 937.714,242.506 940.672,1048.05 943.63,375.222 946.588,663.463 949.546,344.971 952.504,556.122 955.462,756.884 958.42,596.126 961.379,1061.5 964.337,1163.17 967.295,964.737 970.253,961.971 973.211,442.552 976.169,511.86 979.127,145.1 982.085,307.771 985.043,712.405 988.002,507.217 990.96,835.11 993.918,1095.39 996.876,738.977 999.834,833.322 1002.79,344.36 1005.75,143.132 1008.71,113.462 1011.67,614.474 1014.62,675.792 1017.58,572.889 1020.54,287.011 1023.5,1031.22 1026.46,1100.75 1029.42,922.696 1032.37,119.432 1035.33,1200.97 1038.29,152.223 1041.25,734.948 1044.21,1140.23 1047.16,332.203 1050.12,961.224 1053.08,1097.99 1056.04,593.224 1059,192.346 1061.95,956.651 1064.91,701.044 1067.87,969.795 1070.83,823.287 1073.79,1054.17 1076.75,332.528 1079.7,722.143 1082.66,162.3 1085.62,905.501 1088.58,1040.99 1091.54,1132.45 1094.49,174.236 1097.45,132.83 1100.41,302.981 1103.37,1067.78 1106.33,83.7326 1109.28,957.694 1112.24,1066.27 1115.2,151.036 1118.16,1035.61 1121.12,740.563 1124.07,367.482 1127.03,271.982 1129.99,805.294 1132.95,819.924 1135.91,507.13 1138.87,241.131 1141.82,1191.82 1144.78,439.788 1147.74,1025.17 1150.7,915.159 1153.66,291.676 1156.61,219.24 1159.57,505.292 1162.53,842.369 1165.49,321.881 1168.45,614.75 1171.4,1004.67 1174.36,1175.15 1177.32,240.824 1180.28,507.628 1183.24,634.173 1186.2,610.657 1189.15,564.406 1192.11,1049.38 1195.07,166.156 1198.03,786.105 1200.99,272.925 1203.94,593.564 1206.9,1113.53 1209.86,373.778 1212.82,1020.03 1215.78,895.561 1218.73,910.751 1221.69,519.573 1224.65,397.435 1227.61,1051.68 1230.57,1102.07 1233.53,314.349 1236.48,444.745 1239.44,435.421 1242.4,210.662 1245.36,283.37 1248.32,576.179 1251.27,533.748 1254.23,274.214 1257.19,909.178 1260.15,366.123 1263.11,1075.99 1266.06,827.42 1269.02,1152.69 1271.98,1189.85 1274.94,985.914 1277.9,511.787 1280.86,136.543 1283.81,162.686 1286.77,814.181 1289.73,1182.31 1292.69,243.536 1295.65,793.072 1298.6,886.718 1301.56,249.586 1304.52,796.375 1307.48,994.169 1310.44,801.087 1313.39,177.8 1316.35,864.153 1319.31,906.172 1322.27,976.815 1325.23,935.028 1328.18,1021.26 1331.14,506.994 1334.1,916.648 1337.06,182.555 1340.02,1154.65 1342.98,1194.2 1345.93,965.995 1348.89,836.134 1351.85,981.653 1354.81,292.599 1357.77,1077.5 1360.72,528.837 1363.68,482.755 1366.64,962.864 1369.6,371.857 1372.56,118.693 1375.51,606.154 1378.47,461.301 1381.43,511.964 1384.39,386.852 1387.35,225.958 1390.31,827.899 1393.26,197.469 1396.22,558.979 1399.18,743.864 1402.14,867.189 1405.1,1040.81 1408.05,1146.62 1411.01,321.121 1413.97,838.624 1416.93,637.217 1419.89,405.873 1422.84,325.3 1425.8,746.005 1428.76,1016.69 1431.72,311.181 1434.68,711.832 1437.64,311.222 1440.59,872.636 1443.55,222.863 1446.51,923.126 1449.47,806.697 1452.43,131.64 1455.38,1096.67 1458.34,694.262 1461.3,957.845 1464.26,882.732 1467.22,994.959 1470.17,128.204 1473.13,175.361 1476.09,744.883 1479.05,1011.16 1482.01,218.734 1484.97,1022.8 1487.92,799.289 1490.88,1025.48 1493.84,983.227 1496.8,355.385 1499.76,209.701 1502.71,547.601 1505.67,373.712 1508.63,493.853 1511.59,316.082 1514.55,174.533 1517.5,517.663 1520.46,720.012 1523.42,681.499 1526.38,414.238 1529.34,942.754 1532.29,1198.11 1535.25,911.073 1538.21,194.489 1541.17,629.811 1544.13,503.329 1547.09,1110.95 1550.04,189.71 1553,1137.7 1555.96,623.03 1558.92,656.364 1561.88,1162.42 1564.83,1010.74 1567.79,1022.18 1570.75,990.727 1573.71,750.674 1576.67,1173.09 1579.62,482.446 1582.58,702.56 1585.54,282.555 1588.5,680.794 1591.46,91.6291 1594.42,781.374 1597.37,449.075 1600.33,696.398 1603.29,683.356 1606.25,864.197 1609.21,1199.01 1612.16,1062.02 1615.12,306.07 1618.08,974.122 1621.04,769.47 1624,795.531 1626.95,394.082 1629.91,229.585 1632.87,904.023 1635.83,489.644 1638.79,80.8479 1641.75,175.63 1644.7,544.328 1647.66,744.063 1650.62,1154.38 1653.58,805.78 1656.54,1106.43 1659.49,257.305 1662.45,808.189 1665.41,995.087 1668.37,441.42 1671.33,1032.37 1674.28,555.584 1677.24,842.375 1680.2,214.189 1683.16,181.739 1686.12,131.96 1689.08,628.643 1692.03,877.656 1694.99,483.562 1697.95,504.518 1700.91,262.815 1703.87,1035.45 1706.82,667.502 1709.78,894.973 1712.74,274.756 1715.7,303.693 1718.66,549.756 1721.61,945.355 1724.57,299.268 1727.53,448.041 1730.49,808.907 1733.45,400.552 1736.41,465.351 1739.36,1168.55 1742.32,650.614 1745.28,1005.8 1748.24,511.094 1751.2,275.46 1754.15,619.061 1757.11,1096.6 1760.07,174.256 1763.03,323.93 1765.99,435.44 1768.94,1133.67 1771.9,881.622 1774.86,155.565 1777.82,888.75 1780.78,545.078 1783.73,516.784 1786.69,728.259 1789.65,356.014 1792.61,1039.2 1795.57,473.053 1798.53,105.284 1801.48,271.724 1804.44,520.215 1807.4,297.179 1810.36,507.88 1813.32,865.997 1816.27,900.669 1819.23,937.959 1822.19,818.695 1825.15,813.902 1828.11,1180.35 1831.06,1172.96 1834.02,697.084 1836.98,119.17 1839.94,473.313 1842.9,738.836 1845.86,619.354 1848.81,258.08 1851.77,328.14 1854.73,527.068 1857.69,522.757 1860.65,580.553 1863.6,322.008 1866.56,753.061 1869.52,324.832 1872.48,721.676 1875.44,809.849 1878.39,137.129 1881.35,407.054 1884.31,684.945 1887.27,690.704 1890.23,376.086 1893.19,433.054 1896.14,385.689 1899.1,174.833 1902.06,885.037 1905.02,409.062 1907.98,1185.55 1910.93,803.569 1913.89,176.889 1916.85,312.599 1919.81,992.855 1922.77,930.408 1925.72,751.206 1928.68,222.067 1931.64,459.126 1934.6,968.85 1937.56,631.85 1940.52,953.415 1943.47,587.002 1946.43,288.892 1949.39,176.225 1952.35,754.747 1955.31,977.94 1958.26,955.871 1961.22,315.314 1964.18,495.297 1967.14,913.955 1970.1,709.734 1973.05,1031.68 1976.01,1034.26 1978.97,746.353 1981.93,1187.42 1984.89,472.093 1987.84,603.788 1990.8,983.735 1993.76,480.394 1996.72,558.41 1999.68,972.647 2002.64,425.934 2005.59,84.3554 2008.55,788.946 2011.51,749.874 "/>
<path clip-path="url(#clip930)" d="M1761.48 1195 L2002.04 1195 L2002.04 1091.32 L1761.48 1091.32  Z" fill="#ffffff" fill-rule="evenodd" fill-opacity="1"/>
<polyline clip-path="url(#clip930)" style="stroke:#000000; stroke-linecap:round; stroke-linejoin:round; stroke-width:4; stroke-opacity:1; fill:none" points="1761.48,1195 2002.04,1195 2002.04,1091.32 1761.48,1091.32 1761.48,1195 "/>
<polyline clip-path="url(#clip930)" style="stroke:#009af9; stroke-linecap:round; stroke-linejoin:round; stroke-width:4; stroke-opacity:1; fill:none" points="1782.38,1143.16 1907.81,1143.16 "/>
<path clip-path="url(#clip930)" d="M1942.55 1162.85 Q1940.75 1167.48 1939.03 1168.89 Q1937.32 1170.3 1934.45 1170.3 L1931.05 1170.3 L1931.05 1166.74 L1933.55 1166.74 Q1935.31 1166.74 1936.28 1165.9 Q1937.25 1165.07 1938.43 1161.97 L1939.2 1160.02 L1928.71 1134.52 L1933.22 1134.52 L1941.33 1154.79 L1949.43 1134.52 L1953.94 1134.52 L1942.55 1162.85 Z" fill="#000000" fill-rule="nonzero" fill-opacity="1" /><path clip-path="url(#clip930)" d="M1961.23 1156.51 L1968.87 1156.51 L1968.87 1130.14 L1960.56 1131.81 L1960.56 1127.55 L1968.83 1125.88 L1973.5 1125.88 L1973.5 1156.51 L1981.14 1156.51 L1981.14 1160.44 L1961.23 1160.44 L1961.23 1156.51 Z" fill="#000000" fill-rule="nonzero" fill-opacity="1" /></svg>
