<?xml version="1.0" encoding="utf-8"?>
<svg xmlns="http://www.w3.org/2000/svg" xmlns:xlink="http://www.w3.org/1999/xlink" width="528" height="336" viewBox="0 0 2112 1344">
<defs>
  <clipPath id="clip770">
    <rect x="0" y="0" width="2112" height="1344"/>
  </clipPath>
</defs>
<path clip-path="url(#clip770)" d="M0 1344 L2112 1344 L2112 0 L0 0  Z" fill="#ffffff" fill-rule="evenodd" fill-opacity="1"/>
<defs>
  <clipPath id="clip771">
    <rect x="422" y="0" width="1479" height="1344"/>
  </clipPath>
</defs>
<path clip-path="url(#clip770)" d="M183.394 1234.58 L2064.76 1234.58 L2064.76 47.2441 L183.394 47.2441  Z" fill="#ffffff" fill-rule="evenodd" fill-opacity="1"/>
<defs>
  <clipPath id="clip772">
    <rect x="183" y="47" width="1882" height="1188"/>
  </clipPath>
</defs>
<polyline clip-path="url(#clip772)" style="stroke:#000000; stroke-linecap:round; stroke-linejoin:round; stroke-width:2; stroke-opacity:0.1; fill:none" points="236.64,1234.58 236.64,47.2441 "/>
<polyline clip-path="url(#clip772)" style="stroke:#000000; stroke-linecap:round; stroke-linejoin:round; stroke-width:2; stroke-opacity:0.1; fill:none" points="532.452,1234.58 532.452,47.2441 "/>
<polyline clip-path="url(#clip772)" style="stroke:#000000; stroke-linecap:round; stroke-linejoin:round; stroke-width:2; stroke-opacity:0.1; fill:none" points="828.263,1234.58 828.263,47.2441 "/>
<polyline clip-path="url(#clip772)" style="stroke:#000000; stroke-linecap:round; stroke-linejoin:round; stroke-width:2; stroke-opacity:0.1; fill:none" points="1124.07,1234.58 1124.07,47.2441 "/>
<polyline clip-path="url(#clip772)" style="stroke:#000000; stroke-linecap:round; stroke-linejoin:round; stroke-width:2; stroke-opacity:0.1; fill:none" points="1419.89,1234.58 1419.89,47.2441 "/>
<polyline clip-path="url(#clip772)" style="stroke:#000000; stroke-linecap:round; stroke-linejoin:round; stroke-width:2; stroke-opacity:0.1; fill:none" points="1715.7,1234.58 1715.7,47.2441 "/>
<polyline clip-path="url(#clip772)" style="stroke:#000000; stroke-linecap:round; stroke-linejoin:round; stroke-width:2; stroke-opacity:0.1; fill:none" points="2011.51,1234.58 2011.51,47.2441 "/>
<polyline clip-path="url(#clip770)" style="stroke:#000000; stroke-linecap:round; stroke-linejoin:round; stroke-width:4; stroke-opacity:1; fill:none" points="183.394,1234.58 2064.76,1234.58 "/>
<polyline clip-path="url(#clip770)" style="stroke:#000000; stroke-linecap:round; stroke-linejoin:round; stroke-width:4; stroke-opacity:1; fill:none" points="236.64,1234.58 236.64,1215.68 "/>
<polyline clip-path="url(#clip770)" style="stroke:#000000; stroke-linecap:round; stroke-linejoin:round; stroke-width:4; stroke-opacity:1; fill:none" points="532.452,1234.58 532.452,1215.68 "/>
<polyline clip-path="url(#clip770)" style="stroke:#000000; stroke-linecap:round; stroke-linejoin:round; stroke-width:4; stroke-opacity:1; fill:none" points="828.263,1234.58 828.263,1215.68 "/>
<polyline clip-path="url(#clip770)" style="stroke:#000000; stroke-linecap:round; stroke-linejoin:round; stroke-width:4; stroke-opacity:1; fill:none" points="1124.07,1234.58 1124.07,1215.68 "/>
<polyline clip-path="url(#clip770)" style="stroke:#000000; stroke-linecap:round; stroke-linejoin:round; stroke-width:4; stroke-opacity:1; fill:none" points="1419.89,1234.58 1419.89,1215.68 "/>
<polyline clip-path="url(#clip770)" style="stroke:#000000; stroke-linecap:round; stroke-linejoin:round; stroke-width:4; stroke-opacity:1; fill:none" points="1715.7,1234.58 1715.7,1215.68 "/>
<polyline clip-path="url(#clip770)" style="stroke:#000000; stroke-linecap:round; stroke-linejoin:round; stroke-width:4; stroke-opacity:1; fill:none" points="2011.51,1234.58 2011.51,1215.68 "/>
<path clip-path="url(#clip770)" d="M206.108 1277.85 L235.784 1277.85 L235.784 1281.78 L206.108 1281.78 L206.108 1277.85 Z" fill="#000000" fill-rule="nonzero" fill-opacity="1" /><path clip-path="url(#clip770)" d="M260.043 1276.04 Q263.399 1276.76 265.274 1279.03 Q267.172 1281.3 267.172 1284.63 Q267.172 1289.74 263.654 1292.55 Q260.135 1295.35 253.654 1295.35 Q251.478 1295.35 249.163 1294.91 Q246.872 1294.49 244.418 1293.63 L244.418 1289.12 Q246.362 1290.25 248.677 1290.83 Q250.992 1291.41 253.515 1291.41 Q257.913 1291.41 260.205 1289.67 Q262.52 1287.94 262.52 1284.63 Q262.52 1281.57 260.367 1279.86 Q258.237 1278.12 254.418 1278.12 L250.39 1278.12 L250.39 1274.28 L254.603 1274.28 Q258.052 1274.28 259.881 1272.92 Q261.709 1271.53 261.709 1268.93 Q261.709 1266.27 259.811 1264.86 Q257.936 1263.42 254.418 1263.42 Q252.496 1263.42 250.297 1263.84 Q248.098 1264.26 245.459 1265.14 L245.459 1260.97 Q248.122 1260.23 250.436 1259.86 Q252.774 1259.49 254.834 1259.49 Q260.158 1259.49 263.26 1261.92 Q266.362 1264.33 266.362 1268.45 Q266.362 1271.32 264.719 1273.31 Q263.075 1275.28 260.043 1276.04 Z" fill="#000000" fill-rule="nonzero" fill-opacity="1" /><path clip-path="url(#clip770)" d="M502.394 1277.85 L532.07 1277.85 L532.07 1281.78 L502.394 1281.78 L502.394 1277.85 Z" fill="#000000" fill-rule="nonzero" fill-opacity="1" /><path clip-path="url(#clip770)" d="M546.19 1290.74 L562.509 1290.74 L562.509 1294.67 L540.565 1294.67 L540.565 1290.74 Q543.227 1287.99 547.81 1283.36 Q552.417 1278.7 553.597 1277.36 Q555.843 1274.84 556.722 1273.1 Q557.625 1271.34 557.625 1269.65 Q557.625 1266.9 555.681 1265.16 Q553.759 1263.42 550.658 1263.42 Q548.459 1263.42 546.005 1264.19 Q543.574 1264.95 540.797 1266.5 L540.797 1261.78 Q543.621 1260.65 546.074 1260.07 Q548.528 1259.49 550.565 1259.49 Q555.935 1259.49 559.13 1262.17 Q562.324 1264.86 562.324 1269.35 Q562.324 1271.48 561.514 1273.4 Q560.727 1275.3 558.621 1277.89 Q558.042 1278.56 554.94 1281.78 Q551.838 1284.98 546.19 1290.74 Z" fill="#000000" fill-rule="nonzero" fill-opacity="1" /><path clip-path="url(#clip770)" d="M798.02 1277.85 L827.696 1277.85 L827.696 1281.78 L798.02 1281.78 L798.02 1277.85 Z" fill="#000000" fill-rule="nonzero" fill-opacity="1" /><path clip-path="url(#clip770)" d="M838.599 1290.74 L846.238 1290.74 L846.238 1264.37 L837.928 1266.04 L837.928 1261.78 L846.191 1260.11 L850.867 1260.11 L850.867 1290.74 L858.506 1290.74 L858.506 1294.67 L838.599 1294.67 L838.599 1290.74 Z" fill="#000000" fill-rule="nonzero" fill-opacity="1" /><path clip-path="url(#clip770)" d="M1124.07 1263.19 Q1120.46 1263.19 1118.64 1266.76 Q1116.83 1270.3 1116.83 1277.43 Q1116.83 1284.54 1118.64 1288.1 Q1120.46 1291.64 1124.07 1291.64 Q1127.71 1291.64 1129.51 1288.1 Q1131.34 1284.54 1131.34 1277.43 Q1131.34 1270.3 1129.51 1266.76 Q1127.71 1263.19 1124.07 1263.19 M1124.07 1259.49 Q1129.89 1259.49 1132.94 1264.1 Q1136.02 1268.68 1136.02 1277.43 Q1136.02 1286.16 1132.94 1290.76 Q1129.89 1295.35 1124.07 1295.35 Q1118.26 1295.35 1115.19 1290.76 Q1112.13 1286.16 1112.13 1277.43 Q1112.13 1268.68 1115.19 1264.1 Q1118.26 1259.49 1124.07 1259.49 Z" fill="#000000" fill-rule="nonzero" fill-opacity="1" /><path clip-path="url(#clip770)" d="M1410.27 1290.74 L1417.91 1290.74 L1417.91 1264.37 L1409.6 1266.04 L1409.6 1261.78 L1417.86 1260.11 L1422.54 1260.11 L1422.54 1290.74 L1430.18 1290.74 L1430.18 1294.67 L1410.27 1294.67 L1410.27 1290.74 Z" fill="#000000" fill-rule="nonzero" fill-opacity="1" /><path clip-path="url(#clip770)" d="M1710.35 1290.74 L1726.67 1290.74 L1726.67 1294.67 L1704.73 1294.67 L1704.73 1290.74 Q1707.39 1287.99 1711.97 1283.36 Q1716.58 1278.7 1717.76 1277.36 Q1720 1274.84 1720.88 1273.1 Q1721.79 1271.34 1721.79 1269.65 Q1721.79 1266.9 1719.84 1265.16 Q1717.92 1263.42 1714.82 1263.42 Q1712.62 1263.42 1710.17 1264.19 Q1707.74 1264.95 1704.96 1266.5 L1704.96 1261.78 Q1707.78 1260.65 1710.24 1260.07 Q1712.69 1259.49 1714.73 1259.49 Q1720.1 1259.49 1723.29 1262.17 Q1726.49 1264.86 1726.49 1269.35 Q1726.49 1271.48 1725.67 1273.4 Q1724.89 1275.3 1722.78 1277.89 Q1722.2 1278.56 1719.1 1281.78 Q1716 1284.98 1710.35 1290.74 Z" fill="#000000" fill-rule="nonzero" fill-opacity="1" /><path clip-path="url(#clip770)" d="M2015.76 1276.04 Q2019.11 1276.76 2020.99 1279.03 Q2022.89 1281.3 2022.89 1284.63 Q2022.89 1289.74 2019.37 1292.55 Q2015.85 1295.35 2009.37 1295.35 Q2007.19 1295.35 2004.88 1294.91 Q2002.59 1294.49 2000.13 1293.63 L2000.13 1289.12 Q2002.08 1290.25 2004.39 1290.83 Q2006.71 1291.41 2009.23 1291.41 Q2013.63 1291.41 2015.92 1289.67 Q2018.23 1287.94 2018.23 1284.63 Q2018.23 1281.57 2016.08 1279.86 Q2013.95 1278.12 2010.13 1278.12 L2006.1 1278.12 L2006.1 1274.28 L2010.32 1274.28 Q2013.77 1274.28 2015.6 1272.92 Q2017.42 1271.53 2017.42 1268.93 Q2017.42 1266.27 2015.53 1264.86 Q2013.65 1263.42 2010.13 1263.42 Q2008.21 1263.42 2006.01 1263.84 Q2003.81 1264.26 2001.17 1265.14 L2001.17 1260.97 Q2003.84 1260.23 2006.15 1259.86 Q2008.49 1259.49 2010.55 1259.49 Q2015.87 1259.49 2018.98 1261.92 Q2022.08 1264.33 2022.08 1268.45 Q2022.08 1271.32 2020.43 1273.31 Q2018.79 1275.28 2015.76 1276.04 Z" fill="#000000" fill-rule="nonzero" fill-opacity="1" /><polyline clip-path="url(#clip772)" style="stroke:#000000; stroke-linecap:round; stroke-linejoin:round; stroke-width:2; stroke-opacity:0.1; fill:none" points="183.394,1205.65 2064.76,1205.65 "/>
<polyline clip-path="url(#clip772)" style="stroke:#000000; stroke-linecap:round; stroke-linejoin:round; stroke-width:2; stroke-opacity:0.1; fill:none" points="183.394,924 2064.76,924 "/>
<polyline clip-path="url(#clip772)" style="stroke:#000000; stroke-linecap:round; stroke-linejoin:round; stroke-width:2; stroke-opacity:0.1; fill:none" points="183.394,642.347 2064.76,642.347 "/>
<polyline clip-path="url(#clip772)" style="stroke:#000000; stroke-linecap:round; stroke-linejoin:round; stroke-width:2; stroke-opacity:0.1; fill:none" points="183.394,360.694 2064.76,360.694 "/>
<polyline clip-path="url(#clip772)" style="stroke:#000000; stroke-linecap:round; stroke-linejoin:round; stroke-width:2; stroke-opacity:0.1; fill:none" points="183.394,79.0406 2064.76,79.0406 "/>
<polyline clip-path="url(#clip770)" style="stroke:#000000; stroke-linecap:round; stroke-linejoin:round; stroke-width:4; stroke-opacity:1; fill:none" points="183.394,1234.58 183.394,47.2441 "/>
<polyline clip-path="url(#clip770)" style="stroke:#000000; stroke-linecap:round; stroke-linejoin:round; stroke-width:4; stroke-opacity:1; fill:none" points="183.394,1205.65 202.292,1205.65 "/>
<polyline clip-path="url(#clip770)" style="stroke:#000000; stroke-linecap:round; stroke-linejoin:round; stroke-width:4; stroke-opacity:1; fill:none" points="183.394,924 202.292,924 "/>
<polyline clip-path="url(#clip770)" style="stroke:#000000; stroke-linecap:round; stroke-linejoin:round; stroke-width:4; stroke-opacity:1; fill:none" points="183.394,642.347 202.292,642.347 "/>
<polyline clip-path="url(#clip770)" style="stroke:#000000; stroke-linecap:round; stroke-linejoin:round; stroke-width:4; stroke-opacity:1; fill:none" points="183.394,360.694 202.292,360.694 "/>
<polyline clip-path="url(#clip770)" style="stroke:#000000; stroke-linecap:round; stroke-linejoin:round; stroke-width:4; stroke-opacity:1; fill:none" points="183.394,79.0406 202.292,79.0406 "/>
<path clip-path="url(#clip770)" d="M64.3765 1191.45 Q60.7654 1191.45 58.9367 1195.02 Q57.1312 1198.56 57.1312 1205.69 Q57.1312 1212.79 58.9367 1216.36 Q60.7654 1219.9 64.3765 1219.9 Q68.0107 1219.9 69.8163 1216.36 Q71.645 1212.79 71.645 1205.69 Q71.645 1198.56 69.8163 1195.02 Q68.0107 1191.45 64.3765 1191.45 M64.3765 1187.75 Q70.1867 1187.75 73.2422 1192.35 Q76.3209 1196.94 76.3209 1205.69 Q76.3209 1214.41 73.2422 1219.02 Q70.1867 1223.6 64.3765 1223.6 Q58.5664 1223.6 55.4877 1219.02 Q52.4321 1214.41 52.4321 1205.69 Q52.4321 1196.94 55.4877 1192.35 Q58.5664 1187.75 64.3765 1187.75 Z" fill="#000000" fill-rule="nonzero" fill-opacity="1" /><path clip-path="url(#clip770)" d="M84.5384 1217.05 L89.4227 1217.05 L89.4227 1222.93 L84.5384 1222.93 L84.5384 1217.05 Z" fill="#000000" fill-rule="nonzero" fill-opacity="1" /><path clip-path="url(#clip770)" d="M109.608 1191.45 Q105.997 1191.45 104.168 1195.02 Q102.362 1198.56 102.362 1205.69 Q102.362 1212.79 104.168 1216.36 Q105.997 1219.9 109.608 1219.9 Q113.242 1219.9 115.048 1216.36 Q116.876 1212.79 116.876 1205.69 Q116.876 1198.56 115.048 1195.02 Q113.242 1191.45 109.608 1191.45 M109.608 1187.75 Q115.418 1187.75 118.473 1192.35 Q121.552 1196.94 121.552 1205.69 Q121.552 1214.41 118.473 1219.02 Q115.418 1223.6 109.608 1223.6 Q103.798 1223.6 100.719 1219.02 Q97.6634 1214.41 97.6634 1205.69 Q97.6634 1196.94 100.719 1192.35 Q103.798 1187.75 109.608 1187.75 Z" fill="#000000" fill-rule="nonzero" fill-opacity="1" /><path clip-path="url(#clip770)" d="M139.77 1191.45 Q136.159 1191.45 134.33 1195.02 Q132.524 1198.56 132.524 1205.69 Q132.524 1212.79 134.33 1216.36 Q136.159 1219.9 139.77 1219.9 Q143.404 1219.9 145.209 1216.36 Q147.038 1212.79 147.038 1205.69 Q147.038 1198.56 145.209 1195.02 Q143.404 1191.45 139.77 1191.45 M139.77 1187.75 Q145.58 1187.75 148.635 1192.35 Q151.714 1196.94 151.714 1205.69 Q151.714 1214.41 148.635 1219.02 Q145.58 1223.6 139.77 1223.6 Q133.959 1223.6 130.881 1219.02 Q127.825 1214.41 127.825 1205.69 Q127.825 1196.94 130.881 1192.35 Q133.959 1187.75 139.77 1187.75 Z" fill="#000000" fill-rule="nonzero" fill-opacity="1" /><path clip-path="url(#clip770)" d="M65.3719 909.799 Q61.7608 909.799 59.9321 913.363 Q58.1265 916.905 58.1265 924.035 Q58.1265 931.141 59.9321 934.706 Q61.7608 938.248 65.3719 938.248 Q69.0061 938.248 70.8117 934.706 Q72.6404 931.141 72.6404 924.035 Q72.6404 916.905 70.8117 913.363 Q69.0061 909.799 65.3719 909.799 M65.3719 906.095 Q71.182 906.095 74.2376 910.701 Q77.3163 915.285 77.3163 924.035 Q77.3163 932.761 74.2376 937.368 Q71.182 941.951 65.3719 941.951 Q59.5617 941.951 56.483 937.368 Q53.4275 932.761 53.4275 924.035 Q53.4275 915.285 56.483 910.701 Q59.5617 906.095 65.3719 906.095 Z" fill="#000000" fill-rule="nonzero" fill-opacity="1" /><path clip-path="url(#clip770)" d="M85.5338 935.4 L90.418 935.4 L90.418 941.28 L85.5338 941.28 L85.5338 935.4 Z" fill="#000000" fill-rule="nonzero" fill-opacity="1" /><path clip-path="url(#clip770)" d="M104.631 937.345 L120.95 937.345 L120.95 941.28 L99.006 941.28 L99.006 937.345 Q101.668 934.59 106.251 929.961 Q110.858 925.308 112.038 923.965 Q114.284 921.442 115.163 919.706 Q116.066 917.947 116.066 916.257 Q116.066 913.502 114.122 911.766 Q112.2 910.03 109.098 910.03 Q106.899 910.03 104.446 910.794 Q102.015 911.558 99.2374 913.109 L99.2374 908.387 Q102.061 907.252 104.515 906.674 Q106.969 906.095 109.006 906.095 Q114.376 906.095 117.571 908.78 Q120.765 911.465 120.765 915.956 Q120.765 918.086 119.955 920.007 Q119.168 921.905 117.061 924.498 Q116.483 925.169 113.381 928.386 Q110.279 931.581 104.631 937.345 Z" fill="#000000" fill-rule="nonzero" fill-opacity="1" /><path clip-path="url(#clip770)" d="M130.811 906.72 L149.168 906.72 L149.168 910.655 L135.094 910.655 L135.094 919.127 Q136.112 918.78 137.131 918.618 Q138.149 918.433 139.168 918.433 Q144.955 918.433 148.334 921.604 Q151.714 924.775 151.714 930.192 Q151.714 935.771 148.242 938.873 Q144.77 941.951 138.45 941.951 Q136.274 941.951 134.006 941.581 Q131.76 941.211 129.353 940.47 L129.353 935.771 Q131.436 936.905 133.659 937.461 Q135.881 938.016 138.358 938.016 Q142.362 938.016 144.7 935.91 Q147.038 933.803 147.038 930.192 Q147.038 926.581 144.7 924.474 Q142.362 922.368 138.358 922.368 Q136.483 922.368 134.608 922.785 Q132.756 923.201 130.811 924.081 L130.811 906.72 Z" fill="#000000" fill-rule="nonzero" fill-opacity="1" /><path clip-path="url(#clip770)" d="M64.3765 628.146 Q60.7654 628.146 58.9367 631.71 Q57.1312 635.252 57.1312 642.382 Q57.1312 649.488 58.9367 653.053 Q60.7654 656.594 64.3765 656.594 Q68.0107 656.594 69.8163 653.053 Q71.645 649.488 71.645 642.382 Q71.645 635.252 69.8163 631.71 Q68.0107 628.146 64.3765 628.146 M64.3765 624.442 Q70.1867 624.442 73.2422 629.048 Q76.3209 633.632 76.3209 642.382 Q76.3209 651.108 73.2422 655.715 Q70.1867 660.298 64.3765 660.298 Q58.5664 660.298 55.4877 655.715 Q52.4321 651.108 52.4321 642.382 Q52.4321 633.632 55.4877 629.048 Q58.5664 624.442 64.3765 624.442 Z" fill="#000000" fill-rule="nonzero" fill-opacity="1" /><path clip-path="url(#clip770)" d="M84.5384 653.747 L89.4227 653.747 L89.4227 659.627 L84.5384 659.627 L84.5384 653.747 Z" fill="#000000" fill-rule="nonzero" fill-opacity="1" /><path clip-path="url(#clip770)" d="M99.6541 625.067 L118.01 625.067 L118.01 629.002 L103.936 629.002 L103.936 637.474 Q104.955 637.127 105.974 636.965 Q106.992 636.78 108.011 636.78 Q113.798 636.78 117.177 639.951 Q120.557 643.122 120.557 648.539 Q120.557 654.118 117.085 657.219 Q113.612 660.298 107.293 660.298 Q105.117 660.298 102.849 659.928 Q100.603 659.557 98.1958 658.817 L98.1958 654.118 Q100.279 655.252 102.501 655.807 Q104.724 656.363 107.2 656.363 Q111.205 656.363 113.543 654.256 Q115.881 652.15 115.881 648.539 Q115.881 644.928 113.543 642.821 Q111.205 640.715 107.2 640.715 Q105.325 640.715 103.45 641.132 Q101.599 641.548 99.6541 642.428 L99.6541 625.067 Z" fill="#000000" fill-rule="nonzero" fill-opacity="1" /><path clip-path="url(#clip770)" d="M139.77 628.146 Q136.159 628.146 134.33 631.71 Q132.524 635.252 132.524 642.382 Q132.524 649.488 134.33 653.053 Q136.159 656.594 139.77 656.594 Q143.404 656.594 145.209 653.053 Q147.038 649.488 147.038 642.382 Q147.038 635.252 145.209 631.71 Q143.404 628.146 139.77 628.146 M139.77 624.442 Q145.58 624.442 148.635 629.048 Q151.714 633.632 151.714 642.382 Q151.714 651.108 148.635 655.715 Q145.58 660.298 139.77 660.298 Q133.959 660.298 130.881 655.715 Q127.825 651.108 127.825 642.382 Q127.825 633.632 130.881 629.048 Q133.959 624.442 139.77 624.442 Z" fill="#000000" fill-rule="nonzero" fill-opacity="1" /><path clip-path="url(#clip770)" d="M65.3719 346.492 Q61.7608 346.492 59.9321 350.057 Q58.1265 353.599 58.1265 360.728 Q58.1265 367.835 59.9321 371.4 Q61.7608 374.941 65.3719 374.941 Q69.0061 374.941 70.8117 371.4 Q72.6404 367.835 72.6404 360.728 Q72.6404 353.599 70.8117 350.057 Q69.0061 346.492 65.3719 346.492 M65.3719 342.789 Q71.182 342.789 74.2376 347.395 Q77.3163 351.978 77.3163 360.728 Q77.3163 369.455 74.2376 374.062 Q71.182 378.645 65.3719 378.645 Q59.5617 378.645 56.483 374.062 Q53.4275 369.455 53.4275 360.728 Q53.4275 351.978 56.483 347.395 Q59.5617 342.789 65.3719 342.789 Z" fill="#000000" fill-rule="nonzero" fill-opacity="1" /><path clip-path="url(#clip770)" d="M85.5338 372.094 L90.418 372.094 L90.418 377.974 L85.5338 377.974 L85.5338 372.094 Z" fill="#000000" fill-rule="nonzero" fill-opacity="1" /><path clip-path="url(#clip770)" d="M99.4226 343.414 L121.645 343.414 L121.645 345.404 L109.098 377.974 L104.214 377.974 L116.02 347.349 L99.4226 347.349 L99.4226 343.414 Z" fill="#000000" fill-rule="nonzero" fill-opacity="1" /><path clip-path="url(#clip770)" d="M130.811 343.414 L149.168 343.414 L149.168 347.349 L135.094 347.349 L135.094 355.821 Q136.112 355.474 137.131 355.312 Q138.149 355.127 139.168 355.127 Q144.955 355.127 148.334 358.298 Q151.714 361.469 151.714 366.886 Q151.714 372.464 148.242 375.566 Q144.77 378.645 138.45 378.645 Q136.274 378.645 134.006 378.275 Q131.76 377.904 129.353 377.164 L129.353 372.464 Q131.436 373.599 133.659 374.154 Q135.881 374.71 138.358 374.71 Q142.362 374.71 144.7 372.603 Q147.038 370.497 147.038 366.886 Q147.038 363.275 144.7 361.168 Q142.362 359.062 138.358 359.062 Q136.483 359.062 134.608 359.478 Q132.756 359.895 130.811 360.775 L130.811 343.414 Z" fill="#000000" fill-rule="nonzero" fill-opacity="1" /><path clip-path="url(#clip770)" d="M55.1867 92.3854 L62.8256 92.3854 L62.8256 66.0198 L54.5154 67.6865 L54.5154 63.4272 L62.7793 61.7606 L67.4552 61.7606 L67.4552 92.3854 L75.094 92.3854 L75.094 96.3206 L55.1867 96.3206 L55.1867 92.3854 Z" fill="#000000" fill-rule="nonzero" fill-opacity="1" /><path clip-path="url(#clip770)" d="M84.5384 90.441 L89.4227 90.441 L89.4227 96.3206 L84.5384 96.3206 L84.5384 90.441 Z" fill="#000000" fill-rule="nonzero" fill-opacity="1" /><path clip-path="url(#clip770)" d="M109.608 64.8393 Q105.997 64.8393 104.168 68.4041 Q102.362 71.9457 102.362 79.0753 Q102.362 86.1817 104.168 89.7465 Q105.997 93.2882 109.608 93.2882 Q113.242 93.2882 115.048 89.7465 Q116.876 86.1817 116.876 79.0753 Q116.876 71.9457 115.048 68.4041 Q113.242 64.8393 109.608 64.8393 M109.608 61.1356 Q115.418 61.1356 118.473 65.742 Q121.552 70.3253 121.552 79.0753 Q121.552 87.8021 118.473 92.4086 Q115.418 96.9919 109.608 96.9919 Q103.798 96.9919 100.719 92.4086 Q97.6634 87.8021 97.6634 79.0753 Q97.6634 70.3253 100.719 65.742 Q103.798 61.1356 109.608 61.1356 Z" fill="#000000" fill-rule="nonzero" fill-opacity="1" /><path clip-path="url(#clip770)" d="M139.77 64.8393 Q136.159 64.8393 134.33 68.4041 Q132.524 71.9457 132.524 79.0753 Q132.524 86.1817 134.33 89.7465 Q136.159 93.2882 139.77 93.2882 Q143.404 93.2882 145.209 89.7465 Q147.038 86.1817 147.038 79.0753 Q147.038 71.9457 145.209 68.4041 Q143.404 64.8393 139.77 64.8393 M139.77 61.1356 Q145.58 61.1356 148.635 65.742 Q151.714 70.3253 151.714 79.0753 Q151.714 87.8021 148.635 92.4086 Q145.58 96.9919 139.77 96.9919 Q133.959 96.9919 130.881 92.4086 Q127.825 87.8021 127.825 79.0753 Q127.825 70.3253 130.881 65.742 Q133.959 61.1356 139.77 61.1356 Z" fill="#000000" fill-rule="nonzero" fill-opacity="1" /><polyline clip-path="url(#clip772)" style="stroke:#009af9; stroke-linecap:round; stroke-linejoin:round; stroke-width:4; stroke-opacity:1; fill:none" points="236.64,696.543 239.598,769.945 242.556,581.486 245.514,85.2283 248.473,179.675 251.431,217.736 254.389,762.268 257.347,390.292 260.305,614.651 263.263,193.683 266.221,372.338 269.179,1076.47 272.137,537.105 275.096,941.888 278.054,270.574 281.012,1165.27 283.97,664.844 286.928,831.455 289.886,719.829 292.844,913.37 295.802,258.135 298.761,1102.01 301.719,274.174 304.677,1167.63 307.635,1093.75 310.593,1190.52 313.551,777.753 316.509,221.332 319.467,195.97 322.425,148.125 325.384,625.912 328.342,971.461 331.3,599.396 334.258,1017.71 337.216,814.608 340.174,271.047 343.132,101.395 346.09,585.229 349.049,871.495 352.007,756.582 354.965,348.337 357.923,232.997 360.881,210.568 363.839,417.146 366.797,359.71 369.755,841.695 372.713,825.55 375.672,1167.25 378.63,517.724 381.588,1154.21 384.546,1093.48 387.504,998.494 390.462,562.116 393.42,1060.59 396.378,263.867 399.336,1024.59 402.295,785.558 405.253,1113.52 408.211,452.596 411.169,235.591 414.127,590.663 417.085,859.176 420.043,869.859 423.001,595.747 425.96,952.643 428.918,1114.04 431.876,605.936 434.834,657.75 437.792,721.031 440.75,897.887 443.708,395.403 446.666,1102.08 449.624,1200.97 452.583,1058.08 455.541,1055.82 458.499,237.61 461.457,627.794 464.415,372.667 467.373,256.46 470.331,380.002 473.289,403.604 476.248,657.009 479.206,391.866 482.164,1131.82 485.122,810.94 488.08,872.214 491.038,162.054 493.996,579.434 496.954,906.041 499.912,797.343 502.871,743.659 505.829,369.611 508.787,1016.41 511.745,510.595 514.703,369.382 517.661,974.478 520.619,617.197 523.577,1046.55 526.535,752.958 529.494,343.536 532.452,477.865 535.41,125.04 538.368,1143.49 541.326,559.018 544.284,1079.36 547.242,188.399 550.2,101.546 553.159,622.33 556.117,731.652 559.075,548.925 562.033,351.207 564.991,453.612 567.949,686.785 570.907,710.412 573.865,883.699 576.823,1145.31 579.782,367.439 582.74,1155.08 585.698,603.012 588.656,484.565 591.614,906.742 594.572,890.568 597.53,903.883 600.488,733.744 603.447,463.256 606.405,1051.77 609.363,942.573 612.321,648.273 615.279,725.514 618.237,477.769 621.195,447.195 624.153,817.373 627.111,902.736 630.07,971.831 633.028,765.841 635.986,991.712 638.944,681.433 641.902,885.234 644.86,150.329 647.818,457.392 650.776,359.073 653.734,893.896 656.693,1022.38 659.651,387.168 662.609,907.725 665.567,80.8479 668.525,857.833 671.483,978.025 674.441,334.136 677.399,1001.94 680.358,367.306 683.316,1167.19 686.274,216.872 689.232,228.679 692.19,884.398 695.148,737.475 698.106,925.278 701.064,413.362 704.022,1101.16 706.981,124.857 709.939,569.44 712.897,472.023 715.855,390.682 718.813,892.141 721.771,639.865 724.729,527.599 727.687,842.162 730.645,832.702 733.604,125.953 736.562,768.848 739.52,511.815 742.478,788.847 745.436,849.797 748.394,389.838 751.352,909.187 754.31,649.556 757.269,1021.2 760.227,1087.58 763.185,784.731 766.143,143.513 769.101,226.612 772.059,1088.12 775.017,1016.86 777.975,963.029 780.933,525.299 783.892,291.249 786.85,723.831 789.808,725.961 792.766,964.815 795.724,348.145 798.682,918.636 801.64,911.212 804.598,850.66 807.557,349.819 810.515,440.935 813.473,876.66 816.431,306.519 819.389,212.213 822.347,366.705 825.305,1036.47 828.263,750.507 831.221,346.968 834.18,1185.99 837.138,1174.2 840.096,748.93 843.054,954.356 846.012,448.784 848.97,171.7 851.928,801.639 854.886,442.941 857.844,254.043 860.803,1070.24 863.761,287.32 866.719,912.926 869.677,517.66 872.635,708.146 875.593,1200.34 878.551,426.955 881.509,85.9274 884.468,921.265 887.426,780.197 890.384,313.372 893.342,227.072 896.3,849.059 899.258,195.699 902.216,238.473 905.174,1167.56 908.132,613.829 911.091,403.614 914.049,170.786 917.007,665.397 919.965,833.612 922.923,244.297 925.881,874.068 928.839,1150.18 931.797,504.019 934.756,611.357 937.714,390.276 940.672,305.537 943.63,469.221 946.588,640.132 949.546,125.88 952.504,717.258 955.462,1095.84 958.42,770.559 961.379,1103.3 964.337,915.853 967.295,580.724 970.253,636.263 973.211,591.508 976.169,797.582 979.127,944.76 982.085,655.388 985.043,391.125 988.002,442.712 990.96,811.801 993.918,1015.27 996.876,971.46 999.834,615.18 1002.79,1156.37 1005.75,738.468 1008.71,315.643 1011.67,534.259 1014.62,551.44 1017.58,118.014 1020.54,1104.65 1023.5,752.756 1026.46,711.275 1029.42,1079.45 1032.37,1069.79 1035.33,937.289 1038.29,982.438 1041.25,852.696 1044.21,1142.26 1047.16,496.84 1050.12,354.056 1053.08,723.07 1056.04,659.432 1059,295.354 1061.95,583.31 1064.91,240.125 1067.87,1110.95 1070.83,1067.27 1073.79,784.394 1076.75,744.044 1079.7,445.48 1082.66,123.616 1085.62,955.081 1088.58,683.512 1091.54,826.782 1094.49,142.867 1097.45,890.073 1100.41,878.795 1103.37,1173.32 1106.33,1019.82 1109.28,533.82 1112.24,500.429 1115.2,185.725 1118.16,92.0567 1121.12,424.986 1124.07,920.631 1127.03,924.616 1129.99,991.543 1132.95,485.124 1135.91,649.303 1138.87,703.897 1141.82,1046.7 1144.78,523.364 1147.74,1078.51 1150.7,763.55 1153.66,921.571 1156.61,616.347 1159.57,364.577 1162.53,86.8889 1165.49,414.444 1168.45,395.647 1171.4,994.028 1174.36,783.193 1177.32,839.785 1180.28,277.773 1183.24,595.439 1186.2,434.539 1189.15,864.819 1192.11,577.205 1195.07,465.083 1198.03,956.676 1200.99,415.125 1203.94,567.705 1206.9,902.686 1209.86,678.823 1212.82,357.489 1215.78,671.341 1218.73,97.7145 1221.69,149.723 1224.65,864.604 1227.61,746.958 1230.57,870.971 1233.53,606.913 1236.48,909.517 1239.44,641.534 1242.4,800.714 1245.36,562.398 1248.32,314.804 1251.27,834.785 1254.23,573.239 1257.19,276.033 1260.15,851.836 1263.11,550.257 1266.06,244.307 1269.02,1178.26 1271.98,702.839 1274.94,928.009 1277.9,1011.4 1280.86,1053.23 1283.81,943.377 1286.77,539.631 1289.73,699.425 1292.69,689.553 1295.65,694.358 1298.6,1115.38 1301.56,645.323 1304.52,1161.78 1307.48,444.029 1310.44,354.857 1313.39,233.11 1316.35,173.444 1319.31,635.957 1322.27,1016.53 1325.23,811.215 1328.18,772.43 1331.14,1077.57 1334.1,637.741 1337.06,376.595 1340.02,348.042 1342.98,534.456 1345.93,108.049 1348.89,894.862 1351.85,1180.8 1354.81,328.083 1357.77,1072.25 1360.72,369.765 1363.68,955.751 1366.64,1052.07 1369.6,157.147 1372.56,1147.06 1375.51,490.822 1378.47,716.078 1381.43,484.478 1384.39,859.722 1387.35,245.359 1390.31,541.829 1393.26,1144.03 1396.22,274.905 1399.18,1074.77 1402.14,572.695 1405.1,932.386 1408.05,601.059 1411.01,936.409 1413.97,296.93 1416.93,1136.23 1419.89,1006.27 1422.84,105.802 1425.8,377.716 1428.76,703.036 1431.72,619.201 1434.68,1063.3 1437.64,1200.51 1440.59,646.51 1443.55,721.194 1446.51,776.353 1449.47,793.582 1452.43,1033.16 1455.38,410.006 1458.34,382.118 1461.3,1098.89 1464.26,749.41 1467.22,1080.3 1470.17,258.188 1473.13,1004.68 1476.09,580.782 1479.05,803.378 1482.01,1127.26 1484.97,292.934 1487.92,1018.22 1490.88,476.104 1493.84,708.281 1496.8,1030.11 1499.76,371.628 1502.71,121.181 1505.67,902.435 1508.63,828.591 1511.59,916.969 1514.55,888.09 1517.5,570.629 1520.46,1188.29 1523.42,545.555 1526.38,520.167 1529.34,1141.61 1532.29,210.975 1535.25,511.886 1538.21,586.321 1541.17,366.616 1544.13,267.508 1547.09,1200.11 1550.04,587.131 1553,834.149 1555.96,678.279 1558.92,312.862 1561.88,463.85 1564.83,239.153 1567.79,368.11 1570.75,891.906 1573.71,993.99 1576.67,740.833 1579.62,712.95 1582.58,1034.05 1585.54,294.792 1588.5,217.759 1591.46,767.277 1594.42,1087.87 1597.37,753.521 1600.33,728.347 1603.29,720.931 1606.25,299.431 1609.21,199.334 1612.16,958.64 1615.12,1199.16 1618.08,866.679 1621.04,381.249 1624,441.209 1626.95,105.668 1629.91,415.372 1632.87,610.943 1635.83,255.86 1638.79,811.616 1641.75,1068 1644.7,355.711 1647.66,485.554 1650.62,1012.52 1653.58,663.563 1656.54,692.975 1659.49,1120.55 1662.45,593.078 1665.41,1007.83 1668.37,1184.01 1671.33,726.503 1674.28,155.67 1677.24,923.399 1680.2,615.716 1683.16,1012.22 1686.12,507.875 1689.08,831.668 1692.03,1160.84 1694.99,568.972 1697.95,1023.2 1700.91,1121.8 1703.87,241.581 1706.82,338.974 1709.78,1192.45 1712.74,341.818 1715.7,952.869 1718.66,208.019 1721.61,1002.08 1724.57,213.845 1727.53,249.554 1730.49,532.585 1733.45,906.034 1736.41,607.979 1739.36,411.411 1742.32,740.169 1745.28,1093.23 1748.24,1127.81 1751.2,1096.42 1754.15,251.104 1757.11,255.366 1760.07,143.238 1763.03,384.556 1765.99,1109.39 1768.94,679.456 1771.9,721.522 1774.86,627.39 1777.82,502.156 1780.78,630.903 1783.73,758.471 1786.69,669.629 1789.65,757.856 1792.61,228.715 1795.57,562.649 1798.53,536.567 1801.48,886.302 1804.44,747 1807.4,162.833 1810.36,278.504 1813.32,235.288 1816.27,856.24 1819.23,680.348 1822.19,316.815 1825.15,112.375 1828.11,567.646 1831.06,362.2 1834.02,542.795 1836.98,993.733 1839.94,455.807 1842.9,934.741 1845.86,1117.78 1848.81,555.991 1851.77,944.601 1854.73,223.781 1857.69,745.085 1860.65,446.508 1863.6,609.949 1866.56,858.634 1869.52,534.287 1872.48,295.215 1875.44,692.729 1878.39,484.271 1881.35,1031.68 1884.31,675.976 1887.27,1190.31 1890.23,279.324 1893.19,980.091 1896.14,287.56 1899.1,903.544 1902.06,90.2535 1905.02,357.936 1907.98,317.64 1910.93,778.859 1913.89,962.873 1916.85,591.476 1919.81,816.87 1922.77,491.232 1925.72,243.083 1928.68,1057.1 1931.64,922.603 1934.6,1140.37 1937.56,903.064 1940.52,683.918 1943.47,197.253 1946.43,1160 1949.39,494.312 1952.35,446.3 1955.31,453.29 1958.26,337.813 1961.22,573.795 1964.18,837.828 1967.14,848.195 1970.1,775.39 1973.05,1006.08 1976.01,440.981 1978.97,1165.78 1981.93,652.668 1984.89,890.282 1987.84,473.337 1990.8,867.876 1993.76,1062.29 1996.72,456.818 1999.68,460.525 2002.64,818.44 2005.59,1017.78 2008.55,858.113 2011.51,392.183 "/>
<path clip-path="url(#clip770)" d="M1761.48 190.502 L2002.04 190.502 L2002.04 86.8219 L1761.48 86.8219  Z" fill="#ffffff" fill-rule="evenodd" fill-opacity="1"/>
<polyline clip-path="url(#clip770)" style="stroke:#000000; stroke-linecap:round; stroke-linejoin:round; stroke-width:4; stroke-opacity:1; fill:none" points="1761.48,190.502 2002.04,190.502 2002.04,86.8219 1761.48,86.8219 1761.48,190.502 "/>
<polyline clip-path="url(#clip770)" style="stroke:#009af9; stroke-linecap:round; stroke-linejoin:round; stroke-width:4; stroke-opacity:1; fill:none" points="1782.38,138.662 1907.81,138.662 "/>
<path clip-path="url(#clip770)" d="M1942.55 158.349 Q1940.75 162.979 1939.03 164.391 Q1937.32 165.803 1934.45 165.803 L1931.05 165.803 L1931.05 162.238 L1933.55 162.238 Q1935.31 162.238 1936.28 161.405 Q1937.25 160.572 1938.43 157.47 L1939.2 155.525 L1928.71 130.016 L1933.22 130.016 L1941.33 150.294 L1949.43 130.016 L1953.94 130.016 L1942.55 158.349 Z" fill="#000000" fill-rule="nonzero" fill-opacity="1" /><path clip-path="url(#clip770)" d="M1961.23 152.007 L1968.87 152.007 L1968.87 125.641 L1960.56 127.308 L1960.56 123.049 L1968.83 121.382 L1973.5 121.382 L1973.5 152.007 L1981.14 152.007 L1981.14 155.942 L1961.23 155.942 L1961.23 152.007 Z" fill="#000000" fill-rule="nonzero" fill-opacity="1" /></svg>
