<?xml version="1.0" encoding="utf-8"?>
<svg xmlns="http://www.w3.org/2000/svg" xmlns:xlink="http://www.w3.org/1999/xlink" width="528" height="336" viewBox="0 0 2112 1344">
<defs>
  <clipPath id="clip490">
    <rect x="0" y="0" width="2112" height="1344"/>
  </clipPath>
</defs>
<path clip-path="url(#clip490)" d="M0 1344 L2112 1344 L2112 0 L0 0  Z" fill="#ffffff" fill-rule="evenodd" fill-opacity="1"/>
<defs>
  <clipPath id="clip491">
    <rect x="422" y="0" width="1479" height="1344"/>
  </clipPath>
</defs>
<path clip-path="url(#clip490)" d="M183.394 1234.58 L2064.76 1234.58 L2064.76 47.2441 L183.394 47.2441  Z" fill="#ffffff" fill-rule="evenodd" fill-opacity="1"/>
<defs>
  <clipPath id="clip492">
    <rect x="183" y="47" width="1882" height="1188"/>
  </clipPath>
</defs>
<polyline clip-path="url(#clip492)" style="stroke:#000000; stroke-linecap:round; stroke-linejoin:round; stroke-width:2; stroke-opacity:0.1; fill:none" points="236.64,1234.58 236.64,47.2441 "/>
<polyline clip-path="url(#clip492)" style="stroke:#000000; stroke-linecap:round; stroke-linejoin:round; stroke-width:2; stroke-opacity:0.1; fill:none" points="532.452,1234.58 532.452,47.2441 "/>
<polyline clip-path="url(#clip492)" style="stroke:#000000; stroke-linecap:round; stroke-linejoin:round; stroke-width:2; stroke-opacity:0.1; fill:none" points="828.263,1234.58 828.263,47.2441 "/>
<polyline clip-path="url(#clip492)" style="stroke:#000000; stroke-linecap:round; stroke-linejoin:round; stroke-width:2; stroke-opacity:0.1; fill:none" points="1124.07,1234.58 1124.07,47.2441 "/>
<polyline clip-path="url(#clip492)" style="stroke:#000000; stroke-linecap:round; stroke-linejoin:round; stroke-width:2; stroke-opacity:0.1; fill:none" points="1419.89,1234.58 1419.89,47.2441 "/>
<polyline clip-path="url(#clip492)" style="stroke:#000000; stroke-linecap:round; stroke-linejoin:round; stroke-width:2; stroke-opacity:0.1; fill:none" points="1715.7,1234.58 1715.7,47.2441 "/>
<polyline clip-path="url(#clip492)" style="stroke:#000000; stroke-linecap:round; stroke-linejoin:round; stroke-width:2; stroke-opacity:0.1; fill:none" points="2011.51,1234.58 2011.51,47.2441 "/>
<polyline clip-path="url(#clip490)" style="stroke:#000000; stroke-linecap:round; stroke-linejoin:round; stroke-width:4; stroke-opacity:1; fill:none" points="183.394,1234.58 2064.76,1234.58 "/>
<polyline clip-path="url(#clip490)" style="stroke:#000000; stroke-linecap:round; stroke-linejoin:round; stroke-width:4; stroke-opacity:1; fill:none" points="236.64,1234.58 236.64,1215.68 "/>
<polyline clip-path="url(#clip490)" style="stroke:#000000; stroke-linecap:round; stroke-linejoin:round; stroke-width:4; stroke-opacity:1; fill:none" points="532.452,1234.58 532.452,1215.68 "/>
<polyline clip-path="url(#clip490)" style="stroke:#000000; stroke-linecap:round; stroke-linejoin:round; stroke-width:4; stroke-opacity:1; fill:none" points="828.263,1234.58 828.263,1215.68 "/>
<polyline clip-path="url(#clip490)" style="stroke:#000000; stroke-linecap:round; stroke-linejoin:round; stroke-width:4; stroke-opacity:1; fill:none" points="1124.07,1234.58 1124.07,1215.68 "/>
<polyline clip-path="url(#clip490)" style="stroke:#000000; stroke-linecap:round; stroke-linejoin:round; stroke-width:4; stroke-opacity:1; fill:none" points="1419.89,1234.58 1419.89,1215.68 "/>
<polyline clip-path="url(#clip490)" style="stroke:#000000; stroke-linecap:round; stroke-linejoin:round; stroke-width:4; stroke-opacity:1; fill:none" points="1715.7,1234.58 1715.7,1215.68 "/>
<polyline clip-path="url(#clip490)" style="stroke:#000000; stroke-linecap:round; stroke-linejoin:round; stroke-width:4; stroke-opacity:1; fill:none" points="2011.51,1234.58 2011.51,1215.68 "/>
<path clip-path="url(#clip490)" d="M206.108 1277.85 L235.784 1277.85 L235.784 1281.78 L206.108 1281.78 L206.108 1277.85 Z" fill="#000000" fill-rule="nonzero" fill-opacity="1" /><path clip-path="url(#clip490)" d="M260.043 1276.04 Q263.399 1276.76 265.274 1279.03 Q267.172 1281.3 267.172 1284.63 Q267.172 1289.74 263.654 1292.55 Q260.135 1295.35 253.654 1295.35 Q251.478 1295.35 249.163 1294.91 Q246.872 1294.49 244.418 1293.63 L244.418 1289.12 Q246.362 1290.25 248.677 1290.83 Q250.992 1291.41 253.515 1291.41 Q257.913 1291.41 260.205 1289.67 Q262.52 1287.94 262.52 1284.63 Q262.52 1281.57 260.367 1279.86 Q258.237 1278.12 254.418 1278.12 L250.39 1278.12 L250.39 1274.28 L254.603 1274.28 Q258.052 1274.28 259.881 1272.92 Q261.709 1271.53 261.709 1268.93 Q261.709 1266.27 259.811 1264.86 Q257.936 1263.42 254.418 1263.42 Q252.496 1263.42 250.297 1263.84 Q248.098 1264.26 245.459 1265.14 L245.459 1260.97 Q248.122 1260.23 250.436 1259.86 Q252.774 1259.49 254.834 1259.49 Q260.158 1259.49 263.26 1261.92 Q266.362 1264.33 266.362 1268.45 Q266.362 1271.32 264.719 1273.31 Q263.075 1275.28 260.043 1276.04 Z" fill="#000000" fill-rule="nonzero" fill-opacity="1" /><path clip-path="url(#clip490)" d="M502.394 1277.85 L532.07 1277.85 L532.07 1281.78 L502.394 1281.78 L502.394 1277.85 Z" fill="#000000" fill-rule="nonzero" fill-opacity="1" /><path clip-path="url(#clip490)" d="M546.19 1290.74 L562.509 1290.74 L562.509 1294.67 L540.565 1294.67 L540.565 1290.74 Q543.227 1287.99 547.81 1283.36 Q552.417 1278.7 553.597 1277.36 Q555.843 1274.84 556.722 1273.1 Q557.625 1271.34 557.625 1269.65 Q557.625 1266.9 555.681 1265.16 Q553.759 1263.42 550.658 1263.42 Q548.459 1263.42 546.005 1264.19 Q543.574 1264.95 540.797 1266.5 L540.797 1261.78 Q543.621 1260.65 546.074 1260.07 Q548.528 1259.49 550.565 1259.49 Q555.935 1259.49 559.13 1262.17 Q562.324 1264.86 562.324 1269.35 Q562.324 1271.48 561.514 1273.4 Q560.727 1275.3 558.621 1277.89 Q558.042 1278.56 554.94 1281.78 Q551.838 1284.98 546.19 1290.74 Z" fill="#000000" fill-rule="nonzero" fill-opacity="1" /><path clip-path="url(#clip490)" d="M798.02 1277.85 L827.696 1277.85 L827.696 1281.78 L798.02 1281.78 L798.02 1277.85 Z" fill="#000000" fill-rule="nonzero" fill-opacity="1" /><path clip-path="url(#clip490)" d="M838.599 1290.74 L846.238 1290.74 L846.238 1264.37 L837.928 1266.04 L837.928 1261.78 L846.191 1260.11 L850.867 1260.11 L850.867 1290.74 L858.506 1290.74 L858.506 1294.67 L838.599 1294.67 L838.599 1290.74 Z" fill="#000000" fill-rule="nonzero" fill-opacity="1" /><path clip-path="url(#clip490)" d="M1124.07 1263.19 Q1120.46 1263.19 1118.64 1266.76 Q1116.83 1270.3 1116.83 1277.43 Q1116.83 1284.54 1118.64 1288.1 Q1120.46 1291.64 1124.07 1291.64 Q1127.71 1291.64 1129.51 1288.1 Q1131.34 1284.54 1131.34 1277.43 Q1131.34 1270.3 1129.51 1266.76 Q1127.71 1263.19 1124.07 1263.19 M1124.07 1259.49 Q1129.89 1259.49 1132.94 1264.1 Q1136.02 1268.68 1136.02 1277.43 Q1136.02 1286.16 1132.94 1290.76 Q1129.89 1295.35 1124.07 1295.35 Q1118.26 1295.35 1115.19 1290.76 Q1112.13 1286.16 1112.13 1277.43 Q1112.13 1268.68 1115.19 1264.1 Q1118.26 1259.49 1124.07 1259.49 Z" fill="#000000" fill-rule="nonzero" fill-opacity="1" /><path clip-path="url(#clip490)" d="M1410.27 1290.74 L1417.91 1290.74 L1417.91 1264.37 L1409.6 1266.04 L1409.6 1261.78 L1417.86 1260.11 L1422.54 1260.11 L1422.54 1290.74 L1430.18 1290.74 L1430.18 1294.67 L1410.27 1294.67 L1410.27 1290.74 Z" fill="#000000" fill-rule="nonzero" fill-opacity="1" /><path clip-path="url(#clip490)" d="M1710.35 1290.74 L1726.67 1290.74 L1726.67 1294.67 L1704.73 1294.67 L1704.73 1290.74 Q1707.39 1287.99 1711.97 1283.36 Q1716.58 1278.7 1717.76 1277.36 Q1720 1274.84 1720.88 1273.1 Q1721.79 1271.34 1721.79 1269.65 Q1721.79 1266.9 1719.84 1265.16 Q1717.92 1263.42 1714.82 1263.42 Q1712.62 1263.42 1710.17 1264.19 Q1707.74 1264.95 1704.96 1266.5 L1704.96 1261.78 Q1707.78 1260.65 1710.24 1260.07 Q1712.69 1259.49 1714.73 1259.49 Q1720.1 1259.49 1723.29 1262.17 Q1726.49 1264.86 1726.49 1269.35 Q1726.49 1271.48 1725.67 1273.4 Q1724.89 1275.3 1722.78 1277.89 Q1722.2 1278.56 1719.1 1281.78 Q1716 1284.98 1710.35 1290.74 Z" fill="#000000" fill-rule="nonzero" fill-opacity="1" /><path clip-path="url(#clip490)" d="M2015.76 1276.04 Q2019.11 1276.76 2020.99 1279.03 Q2022.89 1281.3 2022.89 1284.63 Q2022.89 1289.74 2019.37 1292.55 Q2015.85 1295.35 2009.37 1295.35 Q2007.19 1295.35 2004.88 1294.91 Q2002.59 1294.49 2000.13 1293.63 L2000.13 1289.12 Q2002.08 1290.25 2004.39 1290.83 Q2006.71 1291.41 2009.23 1291.41 Q2013.63 1291.41 2015.92 1289.67 Q2018.23 1287.94 2018.23 1284.63 Q2018.23 1281.57 2016.08 1279.86 Q2013.95 1278.12 2010.13 1278.12 L2006.1 1278.12 L2006.1 1274.28 L2010.32 1274.28 Q2013.77 1274.28 2015.6 1272.92 Q2017.42 1271.53 2017.42 1268.93 Q2017.42 1266.27 2015.53 1264.86 Q2013.65 1263.42 2010.13 1263.42 Q2008.21 1263.42 2006.01 1263.84 Q2003.81 1264.26 2001.17 1265.14 L2001.17 1260.97 Q2003.84 1260.23 2006.15 1259.86 Q2008.49 1259.49 2010.55 1259.49 Q2015.87 1259.49 2018.98 1261.92 Q2022.08 1264.33 2022.08 1268.45 Q2022.08 1271.32 2020.43 1273.31 Q2018.79 1275.28 2015.76 1276.04 Z" fill="#000000" fill-rule="nonzero" fill-opacity="1" /><polyline clip-path="url(#clip492)" style="stroke:#000000; stroke-linecap:round; stroke-linejoin:round; stroke-width:2; stroke-opacity:0.1; fill:none" points="183.394,1202.53 2064.76,1202.53 "/>
<polyline clip-path="url(#clip492)" style="stroke:#000000; stroke-linecap:round; stroke-linejoin:round; stroke-width:2; stroke-opacity:0.1; fill:none" points="183.394,921.751 2064.76,921.751 "/>
<polyline clip-path="url(#clip492)" style="stroke:#000000; stroke-linecap:round; stroke-linejoin:round; stroke-width:2; stroke-opacity:0.1; fill:none" points="183.394,640.968 2064.76,640.968 "/>
<polyline clip-path="url(#clip492)" style="stroke:#000000; stroke-linecap:round; stroke-linejoin:round; stroke-width:2; stroke-opacity:0.1; fill:none" points="183.394,360.185 2064.76,360.185 "/>
<polyline clip-path="url(#clip492)" style="stroke:#000000; stroke-linecap:round; stroke-linejoin:round; stroke-width:2; stroke-opacity:0.1; fill:none" points="183.394,79.4013 2064.76,79.4013 "/>
<polyline clip-path="url(#clip490)" style="stroke:#000000; stroke-linecap:round; stroke-linejoin:round; stroke-width:4; stroke-opacity:1; fill:none" points="183.394,1234.58 183.394,47.2441 "/>
<polyline clip-path="url(#clip490)" style="stroke:#000000; stroke-linecap:round; stroke-linejoin:round; stroke-width:4; stroke-opacity:1; fill:none" points="183.394,1202.53 202.292,1202.53 "/>
<polyline clip-path="url(#clip490)" style="stroke:#000000; stroke-linecap:round; stroke-linejoin:round; stroke-width:4; stroke-opacity:1; fill:none" points="183.394,921.751 202.292,921.751 "/>
<polyline clip-path="url(#clip490)" style="stroke:#000000; stroke-linecap:round; stroke-linejoin:round; stroke-width:4; stroke-opacity:1; fill:none" points="183.394,640.968 202.292,640.968 "/>
<polyline clip-path="url(#clip490)" style="stroke:#000000; stroke-linecap:round; stroke-linejoin:round; stroke-width:4; stroke-opacity:1; fill:none" points="183.394,360.185 202.292,360.185 "/>
<polyline clip-path="url(#clip490)" style="stroke:#000000; stroke-linecap:round; stroke-linejoin:round; stroke-width:4; stroke-opacity:1; fill:none" points="183.394,79.4013 202.292,79.4013 "/>
<path clip-path="url(#clip490)" d="M64.3765 1188.33 Q60.7654 1188.33 58.9367 1191.9 Q57.1312 1195.44 57.1312 1202.57 Q57.1312 1209.68 58.9367 1213.24 Q60.7654 1216.78 64.3765 1216.78 Q68.0107 1216.78 69.8163 1213.24 Q71.645 1209.68 71.645 1202.57 Q71.645 1195.44 69.8163 1191.9 Q68.0107 1188.33 64.3765 1188.33 M64.3765 1184.63 Q70.1867 1184.63 73.2422 1189.24 Q76.3209 1193.82 76.3209 1202.57 Q76.3209 1211.3 73.2422 1215.9 Q70.1867 1220.49 64.3765 1220.49 Q58.5664 1220.49 55.4877 1215.9 Q52.4321 1211.3 52.4321 1202.57 Q52.4321 1193.82 55.4877 1189.24 Q58.5664 1184.63 64.3765 1184.63 Z" fill="#000000" fill-rule="nonzero" fill-opacity="1" /><path clip-path="url(#clip490)" d="M84.5384 1213.93 L89.4227 1213.93 L89.4227 1219.81 L84.5384 1219.81 L84.5384 1213.93 Z" fill="#000000" fill-rule="nonzero" fill-opacity="1" /><path clip-path="url(#clip490)" d="M109.608 1188.33 Q105.997 1188.33 104.168 1191.9 Q102.362 1195.44 102.362 1202.57 Q102.362 1209.68 104.168 1213.24 Q105.997 1216.78 109.608 1216.78 Q113.242 1216.78 115.048 1213.24 Q116.876 1209.68 116.876 1202.57 Q116.876 1195.44 115.048 1191.9 Q113.242 1188.33 109.608 1188.33 M109.608 1184.63 Q115.418 1184.63 118.473 1189.24 Q121.552 1193.82 121.552 1202.57 Q121.552 1211.3 118.473 1215.9 Q115.418 1220.49 109.608 1220.49 Q103.798 1220.49 100.719 1215.9 Q97.6634 1211.3 97.6634 1202.57 Q97.6634 1193.82 100.719 1189.24 Q103.798 1184.63 109.608 1184.63 Z" fill="#000000" fill-rule="nonzero" fill-opacity="1" /><path clip-path="url(#clip490)" d="M139.77 1188.33 Q136.159 1188.33 134.33 1191.9 Q132.524 1195.44 132.524 1202.57 Q132.524 1209.68 134.33 1213.24 Q136.159 1216.78 139.77 1216.78 Q143.404 1216.78 145.209 1213.24 Q147.038 1209.68 147.038 1202.57 Q147.038 1195.44 145.209 1191.9 Q143.404 1188.33 139.77 1188.33 M139.77 1184.63 Q145.58 1184.63 148.635 1189.24 Q151.714 1193.82 151.714 1202.57 Q151.714 1211.3 148.635 1215.9 Q145.58 1220.49 139.77 1220.49 Q133.959 1220.49 130.881 1215.9 Q127.825 1211.3 127.825 1202.57 Q127.825 1193.82 130.881 1189.24 Q133.959 1184.63 139.77 1184.63 Z" fill="#000000" fill-rule="nonzero" fill-opacity="1" /><path clip-path="url(#clip490)" d="M65.3719 907.55 Q61.7608 907.55 59.9321 911.115 Q58.1265 914.656 58.1265 921.786 Q58.1265 928.892 59.9321 932.457 Q61.7608 935.999 65.3719 935.999 Q69.0061 935.999 70.8117 932.457 Q72.6404 928.892 72.6404 921.786 Q72.6404 914.656 70.8117 911.115 Q69.0061 907.55 65.3719 907.55 M65.3719 903.846 Q71.182 903.846 74.2376 908.453 Q77.3163 913.036 77.3163 921.786 Q77.3163 930.513 74.2376 935.119 Q71.182 939.702 65.3719 939.702 Q59.5617 939.702 56.483 935.119 Q53.4275 930.513 53.4275 921.786 Q53.4275 913.036 56.483 908.453 Q59.5617 903.846 65.3719 903.846 Z" fill="#000000" fill-rule="nonzero" fill-opacity="1" /><path clip-path="url(#clip490)" d="M85.5338 933.152 L90.418 933.152 L90.418 939.031 L85.5338 939.031 L85.5338 933.152 Z" fill="#000000" fill-rule="nonzero" fill-opacity="1" /><path clip-path="url(#clip490)" d="M104.631 935.096 L120.95 935.096 L120.95 939.031 L99.006 939.031 L99.006 935.096 Q101.668 932.341 106.251 927.712 Q110.858 923.059 112.038 921.716 Q114.284 919.193 115.163 917.457 Q116.066 915.698 116.066 914.008 Q116.066 911.254 114.122 909.517 Q112.2 907.781 109.098 907.781 Q106.899 907.781 104.446 908.545 Q102.015 909.309 99.2374 910.86 L99.2374 906.138 Q102.061 905.004 104.515 904.425 Q106.969 903.846 109.006 903.846 Q114.376 903.846 117.571 906.531 Q120.765 909.217 120.765 913.707 Q120.765 915.837 119.955 917.758 Q119.168 919.656 117.061 922.249 Q116.483 922.92 113.381 926.138 Q110.279 929.332 104.631 935.096 Z" fill="#000000" fill-rule="nonzero" fill-opacity="1" /><path clip-path="url(#clip490)" d="M130.811 904.471 L149.168 904.471 L149.168 908.406 L135.094 908.406 L135.094 916.879 Q136.112 916.531 137.131 916.369 Q138.149 916.184 139.168 916.184 Q144.955 916.184 148.334 919.355 Q151.714 922.527 151.714 927.943 Q151.714 933.522 148.242 936.624 Q144.77 939.702 138.45 939.702 Q136.274 939.702 134.006 939.332 Q131.76 938.962 129.353 938.221 L129.353 933.522 Q131.436 934.656 133.659 935.212 Q135.881 935.767 138.358 935.767 Q142.362 935.767 144.7 933.661 Q147.038 931.554 147.038 927.943 Q147.038 924.332 144.7 922.226 Q142.362 920.119 138.358 920.119 Q136.483 920.119 134.608 920.536 Q132.756 920.953 130.811 921.832 L130.811 904.471 Z" fill="#000000" fill-rule="nonzero" fill-opacity="1" /><path clip-path="url(#clip490)" d="M64.3765 626.767 Q60.7654 626.767 58.9367 630.331 Q57.1312 633.873 57.1312 641.003 Q57.1312 648.109 58.9367 651.674 Q60.7654 655.215 64.3765 655.215 Q68.0107 655.215 69.8163 651.674 Q71.645 648.109 71.645 641.003 Q71.645 633.873 69.8163 630.331 Q68.0107 626.767 64.3765 626.767 M64.3765 623.063 Q70.1867 623.063 73.2422 627.669 Q76.3209 632.253 76.3209 641.003 Q76.3209 649.729 73.2422 654.336 Q70.1867 658.919 64.3765 658.919 Q58.5664 658.919 55.4877 654.336 Q52.4321 649.729 52.4321 641.003 Q52.4321 632.253 55.4877 627.669 Q58.5664 623.063 64.3765 623.063 Z" fill="#000000" fill-rule="nonzero" fill-opacity="1" /><path clip-path="url(#clip490)" d="M84.5384 652.368 L89.4227 652.368 L89.4227 658.248 L84.5384 658.248 L84.5384 652.368 Z" fill="#000000" fill-rule="nonzero" fill-opacity="1" /><path clip-path="url(#clip490)" d="M99.6541 623.688 L118.01 623.688 L118.01 627.623 L103.936 627.623 L103.936 636.095 Q104.955 635.748 105.974 635.586 Q106.992 635.401 108.011 635.401 Q113.798 635.401 117.177 638.572 Q120.557 641.743 120.557 647.16 Q120.557 652.739 117.085 655.84 Q113.612 658.919 107.293 658.919 Q105.117 658.919 102.849 658.549 Q100.603 658.178 98.1958 657.438 L98.1958 652.739 Q100.279 653.873 102.501 654.428 Q104.724 654.984 107.2 654.984 Q111.205 654.984 113.543 652.878 Q115.881 650.771 115.881 647.16 Q115.881 643.549 113.543 641.442 Q111.205 639.336 107.2 639.336 Q105.325 639.336 103.45 639.753 Q101.599 640.169 99.6541 641.049 L99.6541 623.688 Z" fill="#000000" fill-rule="nonzero" fill-opacity="1" /><path clip-path="url(#clip490)" d="M139.77 626.767 Q136.159 626.767 134.33 630.331 Q132.524 633.873 132.524 641.003 Q132.524 648.109 134.33 651.674 Q136.159 655.215 139.77 655.215 Q143.404 655.215 145.209 651.674 Q147.038 648.109 147.038 641.003 Q147.038 633.873 145.209 630.331 Q143.404 626.767 139.77 626.767 M139.77 623.063 Q145.58 623.063 148.635 627.669 Q151.714 632.253 151.714 641.003 Q151.714 649.729 148.635 654.336 Q145.58 658.919 139.77 658.919 Q133.959 658.919 130.881 654.336 Q127.825 649.729 127.825 641.003 Q127.825 632.253 130.881 627.669 Q133.959 623.063 139.77 623.063 Z" fill="#000000" fill-rule="nonzero" fill-opacity="1" /><path clip-path="url(#clip490)" d="M65.3719 345.983 Q61.7608 345.983 59.9321 349.548 Q58.1265 353.09 58.1265 360.219 Q58.1265 367.326 59.9321 370.891 Q61.7608 374.432 65.3719 374.432 Q69.0061 374.432 70.8117 370.891 Q72.6404 367.326 72.6404 360.219 Q72.6404 353.09 70.8117 349.548 Q69.0061 345.983 65.3719 345.983 M65.3719 342.28 Q71.182 342.28 74.2376 346.886 Q77.3163 351.469 77.3163 360.219 Q77.3163 368.946 74.2376 373.553 Q71.182 378.136 65.3719 378.136 Q59.5617 378.136 56.483 373.553 Q53.4275 368.946 53.4275 360.219 Q53.4275 351.469 56.483 346.886 Q59.5617 342.28 65.3719 342.28 Z" fill="#000000" fill-rule="nonzero" fill-opacity="1" /><path clip-path="url(#clip490)" d="M85.5338 371.585 L90.418 371.585 L90.418 377.465 L85.5338 377.465 L85.5338 371.585 Z" fill="#000000" fill-rule="nonzero" fill-opacity="1" /><path clip-path="url(#clip490)" d="M99.4226 342.905 L121.645 342.905 L121.645 344.895 L109.098 377.465 L104.214 377.465 L116.02 346.84 L99.4226 346.84 L99.4226 342.905 Z" fill="#000000" fill-rule="nonzero" fill-opacity="1" /><path clip-path="url(#clip490)" d="M130.811 342.905 L149.168 342.905 L149.168 346.84 L135.094 346.84 L135.094 355.312 Q136.112 354.965 137.131 354.803 Q138.149 354.618 139.168 354.618 Q144.955 354.618 148.334 357.789 Q151.714 360.96 151.714 366.377 Q151.714 371.955 148.242 375.057 Q144.77 378.136 138.45 378.136 Q136.274 378.136 134.006 377.766 Q131.76 377.395 129.353 376.654 L129.353 371.955 Q131.436 373.09 133.659 373.645 Q135.881 374.201 138.358 374.201 Q142.362 374.201 144.7 372.094 Q147.038 369.988 147.038 366.377 Q147.038 362.766 144.7 360.659 Q142.362 358.553 138.358 358.553 Q136.483 358.553 134.608 358.969 Q132.756 359.386 130.811 360.266 L130.811 342.905 Z" fill="#000000" fill-rule="nonzero" fill-opacity="1" /><path clip-path="url(#clip490)" d="M55.1867 92.7462 L62.8256 92.7462 L62.8256 66.3806 L54.5154 68.0472 L54.5154 63.788 L62.7793 62.1213 L67.4552 62.1213 L67.4552 92.7462 L75.094 92.7462 L75.094 96.6813 L55.1867 96.6813 L55.1867 92.7462 Z" fill="#000000" fill-rule="nonzero" fill-opacity="1" /><path clip-path="url(#clip490)" d="M84.5384 90.8017 L89.4227 90.8017 L89.4227 96.6813 L84.5384 96.6813 L84.5384 90.8017 Z" fill="#000000" fill-rule="nonzero" fill-opacity="1" /><path clip-path="url(#clip490)" d="M109.608 65.2 Q105.997 65.2 104.168 68.7648 Q102.362 72.3065 102.362 79.4361 Q102.362 86.5425 104.168 90.1073 Q105.997 93.6489 109.608 93.6489 Q113.242 93.6489 115.048 90.1073 Q116.876 86.5425 116.876 79.4361 Q116.876 72.3065 115.048 68.7648 Q113.242 65.2 109.608 65.2 M109.608 61.4963 Q115.418 61.4963 118.473 66.1028 Q121.552 70.6861 121.552 79.4361 Q121.552 88.1629 118.473 92.7693 Q115.418 97.3526 109.608 97.3526 Q103.798 97.3526 100.719 92.7693 Q97.6634 88.1629 97.6634 79.4361 Q97.6634 70.6861 100.719 66.1028 Q103.798 61.4963 109.608 61.4963 Z" fill="#000000" fill-rule="nonzero" fill-opacity="1" /><path clip-path="url(#clip490)" d="M139.77 65.2 Q136.159 65.2 134.33 68.7648 Q132.524 72.3065 132.524 79.4361 Q132.524 86.5425 134.33 90.1073 Q136.159 93.6489 139.77 93.6489 Q143.404 93.6489 145.209 90.1073 Q147.038 86.5425 147.038 79.4361 Q147.038 72.3065 145.209 68.7648 Q143.404 65.2 139.77 65.2 M139.77 61.4963 Q145.58 61.4963 148.635 66.1028 Q151.714 70.6861 151.714 79.4361 Q151.714 88.1629 148.635 92.7693 Q145.58 97.3526 139.77 97.3526 Q133.959 97.3526 130.881 92.7693 Q127.825 88.1629 127.825 79.4361 Q127.825 70.6861 130.881 66.1028 Q133.959 61.4963 139.77 61.4963 Z" fill="#000000" fill-rule="nonzero" fill-opacity="1" /><polyline clip-path="url(#clip492)" style="stroke:#009af9; stroke-linecap:round; stroke-linejoin:round; stroke-width:4; stroke-opacity:1; fill:none" points="236.64,486.524 239.598,458.455 242.556,844.894 245.514,1053.65 248.473,169.456 251.431,858.862 254.389,285.965 257.347,743.278 260.305,900.288 263.263,326.207 266.221,1048.63 269.179,385.762 272.137,871.906 275.096,1133.23 278.054,621.676 281.012,125.856 283.97,377.914 286.928,709.764 289.886,391.992 292.844,462.878 295.802,847.92 298.761,625.192 301.719,600.941 304.677,1023.35 307.635,906.548 310.593,838.665 313.551,393.455 316.509,433.226 319.467,189.367 322.425,218.576 325.384,921.643 328.342,1137.77 331.3,1170.48 334.258,664.945 337.216,761.284 340.174,393.48 343.132,735.092 346.09,830.639 349.049,1038.28 352.007,474.519 354.965,425.111 357.923,210.142 360.881,143.586 363.839,302.737 366.797,1129.87 369.755,458.992 372.713,1006.7 375.672,799.08 378.63,1197.23 381.588,963.897 384.546,789.846 387.504,671.332 390.462,1021.07 393.42,939.184 396.378,1172.22 399.336,657.803 402.295,663.755 405.253,435.105 408.211,400.126 411.169,1138.53 414.127,764.507 417.085,209.489 420.043,1044.9 423.001,299.416 425.96,428.779 428.918,619.246 431.876,380.167 434.834,1037.9 437.792,837.999 440.75,211.611 443.708,803.047 446.666,920.622 449.624,871.045 452.583,511.276 455.541,92.5423 458.499,1147.51 461.457,163.394 464.415,716.399 467.373,1064.95 470.331,936.597 473.289,1066.33 476.248,90.6162 479.206,846.371 482.164,906.789 485.122,295.533 488.08,966.008 491.038,1199.09 493.996,1117.46 496.954,657.895 499.912,774.276 502.871,177.491 505.829,801.748 508.787,339.694 511.745,551.137 514.703,1007.11 517.661,892.475 520.619,431.165 523.577,269.116 526.535,761.936 529.494,547.586 532.452,817.348 535.41,1015.67 538.368,700.642 541.326,939.891 544.284,223.873 547.242,131.724 550.2,775.363 553.159,508.783 556.117,1166.8 559.075,784.742 562.033,728.411 564.991,504.153 567.949,1195.3 570.907,628.694 573.865,660.571 576.823,276.471 579.782,393.742 582.74,707.866 585.698,98.1397 588.656,793.5 591.614,576.986 594.572,173.36 597.53,732.259 600.488,649.71 603.447,855.592 606.405,857.234 609.363,823.366 612.321,886.835 615.279,653.676 618.237,180.469 621.195,843.613 624.153,1130.19 627.111,368.843 630.07,944.33 633.028,777.657 635.986,352.203 638.944,706.054 641.902,1044.17 644.86,546.919 647.818,447.388 650.776,680.731 653.734,909.372 656.693,1120.29 659.651,242.891 662.609,1075.66 665.567,350.922 668.525,1023.07 671.483,1139.4 674.441,809.506 677.399,951.105 680.358,930.722 683.316,847.399 686.274,510.625 689.232,132.539 692.19,706.005 695.148,574.036 698.106,332.136 701.064,535.294 704.022,621.247 706.981,371.721 709.939,1030.14 712.897,618.703 715.855,1032.86 718.813,1115.08 721.771,206.836 724.729,930.636 727.687,279.824 730.645,219.451 733.604,915.371 736.562,486.781 739.52,399.333 742.478,626.396 745.436,1155.84 748.394,718.768 751.352,877.316 754.31,1164.21 757.269,455.951 760.227,1031.05 763.185,169.57 766.143,743.922 769.101,465.303 772.059,1091.4 775.017,677.024 777.975,434.936 780.933,399.223 783.892,1107.39 786.85,922.224 789.808,228.806 792.766,985.364 795.724,987.559 798.682,450.482 801.64,303.393 804.598,1022.82 807.557,1121.62 810.515,427.189 813.473,688.027 816.431,376.111 819.389,405.313 822.347,187.909 825.305,490.893 828.263,427.459 831.221,496.638 834.18,220.868 837.138,345.51 840.096,507.946 843.054,468.779 846.012,807.814 848.97,1121.81 851.928,193.759 854.886,1182.16 857.844,940.16 860.803,709.856 863.761,570.649 866.719,248.559 869.677,461.071 872.635,244.962 875.593,132.508 878.551,1081.92 881.509,500.59 884.468,349.069 887.426,204.236 890.384,224.221 893.342,660.323 896.3,118.29 899.258,665.443 902.216,611.434 905.174,97.6116 908.132,873.812 911.091,1198.59 914.049,123.301 917.007,594.474 919.965,361.924 922.923,781.524 925.881,1014.96 928.839,556.917 931.797,739.072 934.756,1137.69 937.714,1155.62 940.672,618.87 943.63,1094.27 946.588,1180.74 949.546,391.217 952.504,531.207 955.462,238.083 958.42,718.968 961.379,916.355 964.337,1030.6 967.295,1076.77 970.253,543.924 973.211,261.629 976.169,335.712 979.127,412.44 982.085,783.083 985.043,918.941 988.002,564.848 990.96,1116.32 993.918,315.835 996.876,996.374 999.834,684.516 1002.79,1091.03 1005.75,312.241 1008.71,454.721 1011.67,97.2968 1014.62,206.869 1017.58,491.417 1020.54,171.083 1023.5,338.742 1026.46,1006.96 1029.42,96.1439 1032.37,1187.76 1035.33,914.177 1038.29,1156.92 1041.25,651.724 1044.21,736.453 1047.16,1145.96 1050.12,293.832 1053.08,417.23 1056.04,449.059 1059,419.589 1061.95,436.719 1064.91,290.766 1067.87,636.146 1070.83,911.98 1073.79,820.993 1076.75,732.087 1079.7,385.733 1082.66,836.129 1085.62,598.204 1088.58,806.341 1091.54,954.786 1094.49,1165.48 1097.45,357.522 1100.41,542.09 1103.37,764.575 1106.33,602.971 1109.28,1058.1 1112.24,226.334 1115.2,319.135 1118.16,792.466 1121.12,867.825 1124.07,261.955 1127.03,979.575 1129.99,1079.61 1132.95,679.276 1135.91,545.144 1138.87,95.4072 1141.82,615.376 1144.78,1142.84 1147.74,999.204 1150.7,269.554 1153.66,749.619 1156.61,960.64 1159.57,506.026 1162.53,627.508 1165.49,896.415 1168.45,449.7 1171.4,259.408 1174.36,644.884 1177.32,1039.99 1180.28,315.395 1183.24,520.318 1186.2,352.172 1189.15,284.08 1192.11,367.33 1195.07,894.508 1198.03,700.525 1200.99,520.532 1203.94,592.49 1206.9,324.392 1209.86,408.81 1212.82,956.601 1215.78,1119.77 1218.73,716.18 1221.69,577.368 1224.65,366.316 1227.61,838.513 1230.57,317.507 1233.53,834.847 1236.48,1128.81 1239.44,1093.65 1242.4,109.465 1245.36,752.638 1248.32,240.01 1251.27,704.229 1254.23,1169.35 1257.19,677.605 1260.15,901.182 1263.11,409.216 1266.06,1081.74 1269.02,749.229 1271.98,913.851 1274.94,1008.51 1277.9,651.514 1280.86,757.749 1283.81,811.769 1286.77,620.615 1289.73,409.168 1292.69,531.236 1295.65,407.249 1298.6,405.363 1301.56,361.731 1304.52,243.359 1307.48,320.266 1310.44,276.736 1313.39,1052.57 1316.35,291.819 1319.31,841.23 1322.27,289.291 1325.23,499.694 1328.18,1067.05 1331.14,943.132 1334.1,1100.98 1337.06,1003.72 1340.02,357.963 1342.98,427.017 1345.93,314.126 1348.89,395.184 1351.85,749.306 1354.81,797.118 1357.77,995.147 1360.72,1199.48 1363.68,979.991 1366.64,626.406 1369.6,780.095 1372.56,87.5754 1375.51,801.711 1378.47,416.895 1381.43,863.903 1384.39,199.776 1387.35,606.634 1390.31,813.881 1393.26,348.49 1396.22,741.343 1399.18,99.6207 1402.14,796.015 1405.1,1186.92 1408.05,1157.69 1411.01,799.677 1413.97,274.171 1416.93,376.367 1419.89,935.003 1422.84,400.396 1425.8,689.895 1428.76,621.447 1431.72,899.384 1434.68,565.93 1437.64,855.399 1440.59,1192.64 1443.55,700.235 1446.51,1200.97 1449.47,502.908 1452.43,345.361 1455.38,192.289 1458.34,1057.48 1461.3,522.378 1464.26,828.328 1467.22,236.548 1470.17,1050.45 1473.13,710.896 1476.09,846.505 1479.05,287.742 1482.01,655.326 1484.97,217.939 1487.92,406.671 1490.88,541.601 1493.84,699.494 1496.8,223.895 1499.76,704.123 1502.71,966.72 1505.67,398.662 1508.63,979.534 1511.59,180.944 1514.55,676.044 1517.5,1029.43 1520.46,118.611 1523.42,171.732 1526.38,518.863 1529.34,992.515 1532.29,756.119 1535.25,306.45 1538.21,1098.06 1541.17,1155.94 1544.13,863.724 1547.09,108.884 1550.04,721.223 1553,92.9611 1555.96,992.162 1558.92,314.974 1561.88,803.502 1564.83,219.293 1567.79,293.111 1570.75,531.228 1573.71,946.076 1576.67,805.813 1579.62,952.346 1582.58,843.085 1585.54,621.568 1588.5,684.843 1591.46,566.015 1594.42,927.757 1597.37,475.029 1600.33,776.678 1603.29,429.468 1606.25,373.156 1609.21,309.597 1612.16,825.739 1615.12,80.8479 1618.08,245.655 1621.04,568.012 1624,1121.45 1626.95,460.21 1629.91,137.067 1632.87,834.474 1635.83,792.277 1638.79,956.441 1641.75,439.053 1644.7,709.342 1647.66,808.399 1650.62,249.672 1653.58,860.021 1656.54,914.856 1659.49,363.914 1662.45,663.207 1665.41,628.962 1668.37,947.488 1671.33,459.805 1674.28,689.026 1677.24,499.069 1680.2,1110.5 1683.16,414.191 1686.12,1183.09 1689.08,1072.77 1692.03,653.457 1694.99,897.406 1697.95,1040.55 1700.91,862.98 1703.87,392.237 1706.82,755.938 1709.78,909.115 1712.74,1153.19 1715.7,947.847 1718.66,379.068 1721.61,1027.86 1724.57,902.817 1727.53,372.445 1730.49,102.936 1733.45,221.016 1736.41,738.929 1739.36,480.584 1742.32,1186.18 1745.28,903.207 1748.24,153.411 1751.2,601.327 1754.15,457.322 1757.11,756.731 1760.07,944.549 1763.03,304.047 1765.99,973.067 1768.94,148.856 1771.9,434.88 1774.86,506.927 1777.82,96.8874 1780.78,920.692 1783.73,552.472 1786.69,774.156 1789.65,521.091 1792.61,684.778 1795.57,727.347 1798.53,208.509 1801.48,339.634 1804.44,675.077 1807.4,608.401 1810.36,98.1541 1813.32,229.9 1816.27,744.445 1819.23,1167.83 1822.19,560.426 1825.15,225.559 1828.11,448.808 1831.06,898.093 1834.02,323.201 1836.98,217.37 1839.94,1037.64 1842.9,993.866 1845.86,143.43 1848.81,835.169 1851.77,139.815 1854.73,342.125 1857.69,762.616 1860.65,379.205 1863.6,564.771 1866.56,848.878 1869.52,964.601 1872.48,785.022 1875.44,840.616 1878.39,400.19 1881.35,394.071 1884.31,520.538 1887.27,1153.89 1890.23,447.717 1893.19,381.126 1896.14,1066.03 1899.1,1125.19 1902.06,1178.15 1905.02,1069.31 1907.98,367.054 1910.93,132.18 1913.89,242.426 1916.85,409.759 1919.81,539.37 1922.77,905.305 1925.72,601.111 1928.68,954.677 1931.64,1143.64 1934.6,744.624 1937.56,282.54 1940.52,134.527 1943.47,431.257 1946.43,465.914 1949.39,713.544 1952.35,788.559 1955.31,836.308 1958.26,1160.16 1961.22,286.26 1964.18,694.785 1967.14,680.138 1970.1,469.226 1973.05,555.496 1976.01,1179.23 1978.97,429.009 1981.93,178.881 1984.89,444.458 1987.84,344.409 1990.8,119.694 1993.76,718.534 1996.72,345.897 1999.68,169.147 2002.64,259.725 2005.59,223.102 2008.55,741.703 2011.51,789.119 "/>
<path clip-path="url(#clip490)" d="M246.106 190.502 L486.673 190.502 L486.673 86.8219 L246.106 86.8219  Z" fill="#ffffff" fill-rule="evenodd" fill-opacity="1"/>
<polyline clip-path="url(#clip490)" style="stroke:#000000; stroke-linecap:round; stroke-linejoin:round; stroke-width:4; stroke-opacity:1; fill:none" points="246.106,190.502 486.673,190.502 486.673,86.8219 246.106,86.8219 246.106,190.502 "/>
<polyline clip-path="url(#clip490)" style="stroke:#009af9; stroke-linecap:round; stroke-linejoin:round; stroke-width:4; stroke-opacity:1; fill:none" points="267.01,138.662 392.434,138.662 "/>
<path clip-path="url(#clip490)" d="M427.181 158.349 Q425.375 162.979 423.662 164.391 Q421.949 165.803 419.079 165.803 L415.676 165.803 L415.676 162.238 L418.176 162.238 Q419.935 162.238 420.908 161.405 Q421.88 160.572 423.06 157.47 L423.824 155.525 L413.338 130.016 L417.852 130.016 L425.954 150.294 L434.056 130.016 L438.57 130.016 L427.181 158.349 Z" fill="#000000" fill-rule="nonzero" fill-opacity="1" /><path clip-path="url(#clip490)" d="M445.861 152.007 L453.5 152.007 L453.5 125.641 L445.19 127.308 L445.19 123.049 L453.454 121.382 L458.13 121.382 L458.13 152.007 L465.769 152.007 L465.769 155.942 L445.861 155.942 L445.861 152.007 Z" fill="#000000" fill-rule="nonzero" fill-opacity="1" /></svg>
