<?xml version="1.0" encoding="utf-8"?>
<svg xmlns="http://www.w3.org/2000/svg" xmlns:xlink="http://www.w3.org/1999/xlink" width="528" height="336" viewBox="0 0 2112 1344">
<defs>
  <clipPath id="clip840">
    <rect x="0" y="0" width="2112" height="1344"/>
  </clipPath>
</defs>
<path clip-path="url(#clip840)" d="M0 1344 L2112 1344 L2112 0 L0 0  Z" fill="#ffffff" fill-rule="evenodd" fill-opacity="1"/>
<defs>
  <clipPath id="clip841">
    <rect x="422" y="0" width="1479" height="1344"/>
  </clipPath>
</defs>
<path clip-path="url(#clip840)" d="M167.977 1234.58 L2064.76 1234.58 L2064.76 47.2441 L167.977 47.2441  Z" fill="#ffffff" fill-rule="evenodd" fill-opacity="1"/>
<defs>
  <clipPath id="clip842">
    <rect x="167" y="47" width="1898" height="1188"/>
  </clipPath>
</defs>
<polyline clip-path="url(#clip842)" style="stroke:#000000; stroke-linecap:round; stroke-linejoin:round; stroke-width:2; stroke-opacity:0.1; fill:none" points="221.66,1234.58 221.66,47.2441 "/>
<polyline clip-path="url(#clip842)" style="stroke:#000000; stroke-linecap:round; stroke-linejoin:round; stroke-width:2; stroke-opacity:0.1; fill:none" points="519.895,1234.58 519.895,47.2441 "/>
<polyline clip-path="url(#clip842)" style="stroke:#000000; stroke-linecap:round; stroke-linejoin:round; stroke-width:2; stroke-opacity:0.1; fill:none" points="818.131,1234.58 818.131,47.2441 "/>
<polyline clip-path="url(#clip842)" style="stroke:#000000; stroke-linecap:round; stroke-linejoin:round; stroke-width:2; stroke-opacity:0.1; fill:none" points="1116.37,1234.58 1116.37,47.2441 "/>
<polyline clip-path="url(#clip842)" style="stroke:#000000; stroke-linecap:round; stroke-linejoin:round; stroke-width:2; stroke-opacity:0.1; fill:none" points="1414.6,1234.58 1414.6,47.2441 "/>
<polyline clip-path="url(#clip842)" style="stroke:#000000; stroke-linecap:round; stroke-linejoin:round; stroke-width:2; stroke-opacity:0.1; fill:none" points="1712.84,1234.58 1712.84,47.2441 "/>
<polyline clip-path="url(#clip842)" style="stroke:#000000; stroke-linecap:round; stroke-linejoin:round; stroke-width:2; stroke-opacity:0.1; fill:none" points="2011.07,1234.58 2011.07,47.2441 "/>
<polyline clip-path="url(#clip840)" style="stroke:#000000; stroke-linecap:round; stroke-linejoin:round; stroke-width:4; stroke-opacity:1; fill:none" points="167.977,1234.58 2064.76,1234.58 "/>
<polyline clip-path="url(#clip840)" style="stroke:#000000; stroke-linecap:round; stroke-linejoin:round; stroke-width:4; stroke-opacity:1; fill:none" points="221.66,1234.58 221.66,1215.68 "/>
<polyline clip-path="url(#clip840)" style="stroke:#000000; stroke-linecap:round; stroke-linejoin:round; stroke-width:4; stroke-opacity:1; fill:none" points="519.895,1234.58 519.895,1215.68 "/>
<polyline clip-path="url(#clip840)" style="stroke:#000000; stroke-linecap:round; stroke-linejoin:round; stroke-width:4; stroke-opacity:1; fill:none" points="818.131,1234.58 818.131,1215.68 "/>
<polyline clip-path="url(#clip840)" style="stroke:#000000; stroke-linecap:round; stroke-linejoin:round; stroke-width:4; stroke-opacity:1; fill:none" points="1116.37,1234.58 1116.37,1215.68 "/>
<polyline clip-path="url(#clip840)" style="stroke:#000000; stroke-linecap:round; stroke-linejoin:round; stroke-width:4; stroke-opacity:1; fill:none" points="1414.6,1234.58 1414.6,1215.68 "/>
<polyline clip-path="url(#clip840)" style="stroke:#000000; stroke-linecap:round; stroke-linejoin:round; stroke-width:4; stroke-opacity:1; fill:none" points="1712.84,1234.58 1712.84,1215.68 "/>
<polyline clip-path="url(#clip840)" style="stroke:#000000; stroke-linecap:round; stroke-linejoin:round; stroke-width:4; stroke-opacity:1; fill:none" points="2011.07,1234.58 2011.07,1215.68 "/>
<path clip-path="url(#clip840)" d="M191.128 1277.85 L220.803 1277.85 L220.803 1281.78 L191.128 1281.78 L191.128 1277.85 Z" fill="#000000" fill-rule="nonzero" fill-opacity="1" /><path clip-path="url(#clip840)" d="M245.062 1276.04 Q248.419 1276.76 250.294 1279.03 Q252.192 1281.3 252.192 1284.63 Q252.192 1289.74 248.674 1292.55 Q245.155 1295.35 238.674 1295.35 Q236.498 1295.35 234.183 1294.91 Q231.891 1294.49 229.438 1293.63 L229.438 1289.12 Q231.382 1290.25 233.697 1290.83 Q236.012 1291.41 238.535 1291.41 Q242.933 1291.41 245.225 1289.67 Q247.539 1287.94 247.539 1284.63 Q247.539 1281.57 245.387 1279.86 Q243.257 1278.12 239.438 1278.12 L235.41 1278.12 L235.41 1274.28 L239.623 1274.28 Q243.072 1274.28 244.9 1272.92 Q246.729 1271.53 246.729 1268.93 Q246.729 1266.27 244.831 1264.86 Q242.956 1263.42 239.438 1263.42 Q237.516 1263.42 235.317 1263.84 Q233.118 1264.26 230.479 1265.14 L230.479 1260.97 Q233.141 1260.23 235.456 1259.86 Q237.794 1259.49 239.854 1259.49 Q245.178 1259.49 248.28 1261.92 Q251.382 1264.33 251.382 1268.45 Q251.382 1271.32 249.738 1273.31 Q248.095 1275.28 245.062 1276.04 Z" fill="#000000" fill-rule="nonzero" fill-opacity="1" /><path clip-path="url(#clip840)" d="M489.838 1277.85 L519.513 1277.85 L519.513 1281.78 L489.838 1281.78 L489.838 1277.85 Z" fill="#000000" fill-rule="nonzero" fill-opacity="1" /><path clip-path="url(#clip840)" d="M533.634 1290.74 L549.953 1290.74 L549.953 1294.67 L528.009 1294.67 L528.009 1290.74 Q530.671 1287.99 535.254 1283.36 Q539.861 1278.7 541.041 1277.36 Q543.287 1274.84 544.166 1273.1 Q545.069 1271.34 545.069 1269.65 Q545.069 1266.9 543.124 1265.16 Q541.203 1263.42 538.101 1263.42 Q535.902 1263.42 533.449 1264.19 Q531.018 1264.95 528.24 1266.5 L528.24 1261.78 Q531.064 1260.65 533.518 1260.07 Q535.972 1259.49 538.009 1259.49 Q543.379 1259.49 546.574 1262.17 Q549.768 1264.86 549.768 1269.35 Q549.768 1271.48 548.958 1273.4 Q548.171 1275.3 546.064 1277.89 Q545.486 1278.56 542.384 1281.78 Q539.282 1284.98 533.634 1290.74 Z" fill="#000000" fill-rule="nonzero" fill-opacity="1" /><path clip-path="url(#clip840)" d="M787.888 1277.85 L817.564 1277.85 L817.564 1281.78 L787.888 1281.78 L787.888 1277.85 Z" fill="#000000" fill-rule="nonzero" fill-opacity="1" /><path clip-path="url(#clip840)" d="M828.467 1290.74 L836.105 1290.74 L836.105 1264.37 L827.795 1266.04 L827.795 1261.78 L836.059 1260.11 L840.735 1260.11 L840.735 1290.74 L848.374 1290.74 L848.374 1294.67 L828.467 1294.67 L828.467 1290.74 Z" fill="#000000" fill-rule="nonzero" fill-opacity="1" /><path clip-path="url(#clip840)" d="M1116.37 1263.19 Q1112.76 1263.19 1110.93 1266.76 Q1109.12 1270.3 1109.12 1277.43 Q1109.12 1284.54 1110.93 1288.1 Q1112.76 1291.64 1116.37 1291.64 Q1120 1291.64 1121.81 1288.1 Q1123.64 1284.54 1123.64 1277.43 Q1123.64 1270.3 1121.81 1266.76 Q1120 1263.19 1116.37 1263.19 M1116.37 1259.49 Q1122.18 1259.49 1125.23 1264.1 Q1128.31 1268.68 1128.31 1277.43 Q1128.31 1286.16 1125.23 1290.76 Q1122.18 1295.35 1116.37 1295.35 Q1110.56 1295.35 1107.48 1290.76 Q1104.42 1286.16 1104.42 1277.43 Q1104.42 1268.68 1107.48 1264.1 Q1110.56 1259.49 1116.37 1259.49 Z" fill="#000000" fill-rule="nonzero" fill-opacity="1" /><path clip-path="url(#clip840)" d="M1404.98 1290.74 L1412.62 1290.74 L1412.62 1264.37 L1404.31 1266.04 L1404.31 1261.78 L1412.58 1260.11 L1417.25 1260.11 L1417.25 1290.74 L1424.89 1290.74 L1424.89 1294.67 L1404.98 1294.67 L1404.98 1290.74 Z" fill="#000000" fill-rule="nonzero" fill-opacity="1" /><path clip-path="url(#clip840)" d="M1707.49 1290.74 L1723.81 1290.74 L1723.81 1294.67 L1701.87 1294.67 L1701.87 1290.74 Q1704.53 1287.99 1709.11 1283.36 Q1713.72 1278.7 1714.9 1277.36 Q1717.14 1274.84 1718.02 1273.1 Q1718.93 1271.34 1718.93 1269.65 Q1718.93 1266.9 1716.98 1265.16 Q1715.06 1263.42 1711.96 1263.42 Q1709.76 1263.42 1707.31 1264.19 Q1704.87 1264.95 1702.1 1266.5 L1702.1 1261.78 Q1704.92 1260.65 1707.37 1260.07 Q1709.83 1259.49 1711.87 1259.49 Q1717.24 1259.49 1720.43 1262.17 Q1723.62 1264.86 1723.62 1269.35 Q1723.62 1271.48 1722.81 1273.4 Q1722.03 1275.3 1719.92 1277.89 Q1719.34 1278.56 1716.24 1281.78 Q1713.14 1284.98 1707.49 1290.74 Z" fill="#000000" fill-rule="nonzero" fill-opacity="1" /><path clip-path="url(#clip840)" d="M2015.32 1276.04 Q2018.68 1276.76 2020.55 1279.03 Q2022.45 1281.3 2022.45 1284.63 Q2022.45 1289.74 2018.93 1292.55 Q2015.41 1295.35 2008.93 1295.35 Q2006.76 1295.35 2004.44 1294.91 Q2002.15 1294.49 1999.7 1293.63 L1999.7 1289.12 Q2001.64 1290.25 2003.96 1290.83 Q2006.27 1291.41 2008.79 1291.41 Q2013.19 1291.41 2015.48 1289.67 Q2017.8 1287.94 2017.8 1284.63 Q2017.8 1281.57 2015.65 1279.86 Q2013.52 1278.12 2009.7 1278.12 L2005.67 1278.12 L2005.67 1274.28 L2009.88 1274.28 Q2013.33 1274.28 2015.16 1272.92 Q2016.99 1271.53 2016.99 1268.93 Q2016.99 1266.27 2015.09 1264.86 Q2013.21 1263.42 2009.7 1263.42 Q2007.77 1263.42 2005.58 1263.84 Q2003.38 1264.26 2000.74 1265.14 L2000.74 1260.97 Q2003.4 1260.23 2005.71 1259.86 Q2008.05 1259.49 2010.11 1259.49 Q2015.44 1259.49 2018.54 1261.92 Q2021.64 1264.33 2021.64 1268.45 Q2021.64 1271.32 2020 1273.31 Q2018.35 1275.28 2015.32 1276.04 Z" fill="#000000" fill-rule="nonzero" fill-opacity="1" /><polyline clip-path="url(#clip842)" style="stroke:#000000; stroke-linecap:round; stroke-linejoin:round; stroke-width:2; stroke-opacity:0.1; fill:none" points="167.977,1203.75 2064.76,1203.75 "/>
<polyline clip-path="url(#clip842)" style="stroke:#000000; stroke-linecap:round; stroke-linejoin:round; stroke-width:2; stroke-opacity:0.1; fill:none" points="167.977,837.953 2064.76,837.953 "/>
<polyline clip-path="url(#clip842)" style="stroke:#000000; stroke-linecap:round; stroke-linejoin:round; stroke-width:2; stroke-opacity:0.1; fill:none" points="167.977,472.154 2064.76,472.154 "/>
<polyline clip-path="url(#clip842)" style="stroke:#000000; stroke-linecap:round; stroke-linejoin:round; stroke-width:2; stroke-opacity:0.1; fill:none" points="167.977,106.354 2064.76,106.354 "/>
<polyline clip-path="url(#clip840)" style="stroke:#000000; stroke-linecap:round; stroke-linejoin:round; stroke-width:4; stroke-opacity:1; fill:none" points="167.977,1234.58 167.977,47.2441 "/>
<polyline clip-path="url(#clip840)" style="stroke:#000000; stroke-linecap:round; stroke-linejoin:round; stroke-width:4; stroke-opacity:1; fill:none" points="167.977,1203.75 186.875,1203.75 "/>
<polyline clip-path="url(#clip840)" style="stroke:#000000; stroke-linecap:round; stroke-linejoin:round; stroke-width:4; stroke-opacity:1; fill:none" points="167.977,837.953 186.875,837.953 "/>
<polyline clip-path="url(#clip840)" style="stroke:#000000; stroke-linecap:round; stroke-linejoin:round; stroke-width:4; stroke-opacity:1; fill:none" points="167.977,472.154 186.875,472.154 "/>
<polyline clip-path="url(#clip840)" style="stroke:#000000; stroke-linecap:round; stroke-linejoin:round; stroke-width:4; stroke-opacity:1; fill:none" points="167.977,106.354 186.875,106.354 "/>
<path clip-path="url(#clip840)" d="M124.353 1189.55 Q120.742 1189.55 118.913 1193.12 Q117.108 1196.66 117.108 1203.79 Q117.108 1210.89 118.913 1214.46 Q120.742 1218 124.353 1218 Q127.987 1218 129.793 1214.46 Q131.622 1210.89 131.622 1203.79 Q131.622 1196.66 129.793 1193.12 Q127.987 1189.55 124.353 1189.55 M124.353 1185.85 Q130.163 1185.85 133.219 1190.45 Q136.297 1195.04 136.297 1203.79 Q136.297 1212.51 133.219 1217.12 Q130.163 1221.7 124.353 1221.7 Q118.543 1221.7 115.464 1217.12 Q112.409 1212.51 112.409 1203.79 Q112.409 1195.04 115.464 1190.45 Q118.543 1185.85 124.353 1185.85 Z" fill="#000000" fill-rule="nonzero" fill-opacity="1" /><path clip-path="url(#clip840)" d="M54.8395 851.298 L62.4784 851.298 L62.4784 824.932 L54.1682 826.599 L54.1682 822.34 L62.4321 820.673 L67.108 820.673 L67.108 851.298 L74.7468 851.298 L74.7468 855.233 L54.8395 855.233 L54.8395 851.298 Z" fill="#000000" fill-rule="nonzero" fill-opacity="1" /><path clip-path="url(#clip840)" d="M94.1912 823.752 Q90.5801 823.752 88.7514 827.316 Q86.9458 830.858 86.9458 837.988 Q86.9458 845.094 88.7514 848.659 Q90.5801 852.2 94.1912 852.2 Q97.8254 852.2 99.6309 848.659 Q101.46 845.094 101.46 837.988 Q101.46 830.858 99.6309 827.316 Q97.8254 823.752 94.1912 823.752 M94.1912 820.048 Q100.001 820.048 103.057 824.654 Q106.136 829.238 106.136 837.988 Q106.136 846.714 103.057 851.321 Q100.001 855.904 94.1912 855.904 Q88.381 855.904 85.3023 851.321 Q82.2468 846.714 82.2468 837.988 Q82.2468 829.238 85.3023 824.654 Q88.381 820.048 94.1912 820.048 Z" fill="#000000" fill-rule="nonzero" fill-opacity="1" /><path clip-path="url(#clip840)" d="M124.353 823.752 Q120.742 823.752 118.913 827.316 Q117.108 830.858 117.108 837.988 Q117.108 845.094 118.913 848.659 Q120.742 852.2 124.353 852.2 Q127.987 852.2 129.793 848.659 Q131.622 845.094 131.622 837.988 Q131.622 830.858 129.793 827.316 Q127.987 823.752 124.353 823.752 M124.353 820.048 Q130.163 820.048 133.219 824.654 Q136.297 829.238 136.297 837.988 Q136.297 846.714 133.219 851.321 Q130.163 855.904 124.353 855.904 Q118.543 855.904 115.464 851.321 Q112.409 846.714 112.409 837.988 Q112.409 829.238 115.464 824.654 Q118.543 820.048 124.353 820.048 Z" fill="#000000" fill-rule="nonzero" fill-opacity="1" /><path clip-path="url(#clip840)" d="M58.0571 485.498 L74.3765 485.498 L74.3765 489.434 L52.4321 489.434 L52.4321 485.498 Q55.0941 482.744 59.6775 478.114 Q64.2839 473.461 65.4645 472.119 Q67.7098 469.596 68.5894 467.86 Q69.4922 466.1 69.4922 464.411 Q69.4922 461.656 67.5478 459.92 Q65.6265 458.184 62.5247 458.184 Q60.3256 458.184 57.8719 458.948 Q55.4414 459.711 52.6636 461.262 L52.6636 456.54 Q55.4877 455.406 57.9414 454.827 Q60.395 454.249 62.4321 454.249 Q67.8024 454.249 70.9968 456.934 Q74.1913 459.619 74.1913 464.11 Q74.1913 466.239 73.3811 468.16 Q72.5941 470.059 70.4876 472.651 Q69.9089 473.322 66.807 476.54 Q63.7052 479.734 58.0571 485.498 Z" fill="#000000" fill-rule="nonzero" fill-opacity="1" /><path clip-path="url(#clip840)" d="M94.1912 457.952 Q90.5801 457.952 88.7514 461.517 Q86.9458 465.059 86.9458 472.188 Q86.9458 479.295 88.7514 482.859 Q90.5801 486.401 94.1912 486.401 Q97.8254 486.401 99.6309 482.859 Q101.46 479.295 101.46 472.188 Q101.46 465.059 99.6309 461.517 Q97.8254 457.952 94.1912 457.952 M94.1912 454.249 Q100.001 454.249 103.057 458.855 Q106.136 463.438 106.136 472.188 Q106.136 480.915 103.057 485.522 Q100.001 490.105 94.1912 490.105 Q88.381 490.105 85.3023 485.522 Q82.2468 480.915 82.2468 472.188 Q82.2468 463.438 85.3023 458.855 Q88.381 454.249 94.1912 454.249 Z" fill="#000000" fill-rule="nonzero" fill-opacity="1" /><path clip-path="url(#clip840)" d="M124.353 457.952 Q120.742 457.952 118.913 461.517 Q117.108 465.059 117.108 472.188 Q117.108 479.295 118.913 482.859 Q120.742 486.401 124.353 486.401 Q127.987 486.401 129.793 482.859 Q131.622 479.295 131.622 472.188 Q131.622 465.059 129.793 461.517 Q127.987 457.952 124.353 457.952 M124.353 454.249 Q130.163 454.249 133.219 458.855 Q136.297 463.438 136.297 472.188 Q136.297 480.915 133.219 485.522 Q130.163 490.105 124.353 490.105 Q118.543 490.105 115.464 485.522 Q112.409 480.915 112.409 472.188 Q112.409 463.438 115.464 458.855 Q118.543 454.249 124.353 454.249 Z" fill="#000000" fill-rule="nonzero" fill-opacity="1" /><path clip-path="url(#clip840)" d="M68.1959 105 Q71.5524 105.718 73.4274 107.986 Q75.3255 110.255 75.3255 113.588 Q75.3255 118.704 71.807 121.505 Q68.2885 124.305 61.8071 124.305 Q59.6312 124.305 57.3164 123.866 Q55.0247 123.449 52.571 122.592 L52.571 118.079 Q54.5154 119.213 56.8303 119.792 Q59.1451 120.37 61.6682 120.37 Q66.0663 120.37 68.358 118.634 Q70.6728 116.898 70.6728 113.588 Q70.6728 110.532 68.52 108.819 Q66.3904 107.083 62.571 107.083 L58.5432 107.083 L58.5432 103.241 L62.7561 103.241 Q66.2052 103.241 68.0339 101.875 Q69.8626 100.486 69.8626 97.8936 Q69.8626 95.2315 67.9645 93.8195 Q66.0895 92.3843 62.571 92.3843 Q60.6497 92.3843 58.4506 92.801 Q56.2515 93.2177 53.6127 94.0973 L53.6127 89.9306 Q56.2747 89.1899 58.5895 88.8195 Q60.9275 88.4492 62.9876 88.4492 Q68.3117 88.4492 71.4135 90.8797 Q74.5153 93.2871 74.5153 97.4074 Q74.5153 100.278 72.8718 102.269 Q71.2283 104.236 68.1959 105 Z" fill="#000000" fill-rule="nonzero" fill-opacity="1" /><path clip-path="url(#clip840)" d="M94.1912 92.1528 Q90.5801 92.1528 88.7514 95.7176 Q86.9458 99.2593 86.9458 106.389 Q86.9458 113.495 88.7514 117.06 Q90.5801 120.602 94.1912 120.602 Q97.8254 120.602 99.6309 117.06 Q101.46 113.495 101.46 106.389 Q101.46 99.2593 99.6309 95.7176 Q97.8254 92.1528 94.1912 92.1528 M94.1912 88.4492 Q100.001 88.4492 103.057 93.0556 Q106.136 97.6389 106.136 106.389 Q106.136 115.116 103.057 119.722 Q100.001 124.305 94.1912 124.305 Q88.381 124.305 85.3023 119.722 Q82.2468 115.116 82.2468 106.389 Q82.2468 97.6389 85.3023 93.0556 Q88.381 88.4492 94.1912 88.4492 Z" fill="#000000" fill-rule="nonzero" fill-opacity="1" /><path clip-path="url(#clip840)" d="M124.353 92.1528 Q120.742 92.1528 118.913 95.7176 Q117.108 99.2593 117.108 106.389 Q117.108 113.495 118.913 117.06 Q120.742 120.602 124.353 120.602 Q127.987 120.602 129.793 117.06 Q131.622 113.495 131.622 106.389 Q131.622 99.2593 129.793 95.7176 Q127.987 92.1528 124.353 92.1528 M124.353 88.4492 Q130.163 88.4492 133.219 93.0556 Q136.297 97.6389 136.297 106.389 Q136.297 115.116 133.219 119.722 Q130.163 124.305 124.353 124.305 Q118.543 124.305 115.464 119.722 Q112.409 115.116 112.409 106.389 Q112.409 97.6389 115.464 93.0556 Q118.543 88.4492 124.353 88.4492 Z" fill="#000000" fill-rule="nonzero" fill-opacity="1" /><polyline clip-path="url(#clip842)" style="stroke:#009af9; stroke-linecap:round; stroke-linejoin:round; stroke-width:4; stroke-opacity:1; fill:none" points="221.66,1200.97 224.642,1199.15 227.625,1196.27 230.607,1194.32 233.589,1191.08 236.572,1189.92 239.554,1188 242.536,1187.92 245.519,1186.46 248.501,1185.16 251.483,1183.13 254.466,1182.59 257.448,1179.7 260.43,1176.14 263.413,1175.39 266.395,1173.89 269.378,1172.31 272.36,1169.26 275.342,1165.71 278.325,1164.01 281.307,1163.39 284.289,1160.91 287.272,1157.75 290.254,1154.82 293.236,1152.7 296.219,1150.13 299.201,1147.09 302.183,1145.05 305.166,1144.89 308.148,1144.01 311.131,1143.44 314.113,1143.07 317.095,1140.31 320.078,1139.59 323.06,1136.68 326.042,1136.17 329.025,1133.61 332.007,1133.25 334.989,1131.12 337.972,1129.15 340.954,1128.78 343.936,1126.74 346.919,1124.54 349.901,1124.41 352.883,1122 355.866,1120.45 358.848,1119.74 361.831,1116.77 364.813,1115.77 367.795,1112.19 370.778,1109.33 373.76,1106.06 376.742,1104.97 379.725,1103.06 382.707,1102.62 385.689,1100.61 388.672,1098.69 391.654,1097.86 394.636,1096.04 397.619,1095.2 400.601,1094.12 403.584,1090.79 406.566,1090.79 409.548,1089.55 412.531,1088.01 415.513,1086 418.495,1083.97 421.478,1083.36 424.46,1082.38 427.442,1079.75 430.425,1079.74 433.407,1078.8 436.389,1075.27 439.372,1074.92 442.354,1072.47 445.337,1071.35 448.319,1068.29 451.301,1065.28 454.284,1062.14 457.266,1060.92 460.248,1058.43 463.231,1058.13 466.213,1058.04 469.195,1054.49 472.178,1054.25 475.16,1053.18 478.142,1052.09 481.125,1050.03 484.107,1046.65 487.09,1043.93 490.072,1042.39 493.054,1039.86 496.037,1039.4 499.019,1038.05 502.001,1037.92 504.984,1035.97 507.966,1033.16 510.948,1031.69 513.931,1029.06 516.913,1028.91 519.895,1028.65 522.878,1025.82 525.86,1025.79 528.843,1024.58 531.825,1022.9 534.807,1022.01 537.79,1018.77 540.772,1016.38 543.754,1013.86 546.737,1010.29 549.719,1007.58 552.701,1004.72 555.684,1001.96 558.666,1000.98 561.648,999.713 564.631,997.036 567.613,994.638 570.595,992.881 573.578,989.494 576.56,986.727 579.543,984.339 582.525,982.145 585.507,981.396 588.49,980.58 591.472,979.552 594.454,979.519 597.437,976.186 600.419,975.134 603.401,974.335 606.384,971.582 609.366,970.446 612.348,969.933 615.331,968.163 618.313,966.998 621.296,966.736 624.278,965.136 627.26,962.254 630.243,959.784 633.225,958.865 636.207,955.22 639.19,953.138 642.172,951.59 645.154,950.694 648.137,947.586 651.119,947.104 654.101,945.328 657.084,943.043 660.066,941.393 663.049,940.67 666.031,940.627 669.013,939.549 671.996,939.379 674.978,937.444 677.96,936.568 680.943,934.271 683.925,931.304 686.907,930.046 689.89,928.539 692.872,924.928 695.854,923.516 698.837,923.26 701.819,922.985 704.802,919.721 707.784,918.417 710.766,916.705 713.749,914.252 716.731,913.634 719.713,912.55 722.696,911.127 725.678,907.53 728.66,904.128 731.643,903.941 734.625,900.423 737.607,896.988 740.59,895.463 743.572,891.984 746.555,890.091 749.537,888.015 752.519,886.997 755.502,886.018 758.484,882.932 761.466,882.512 764.449,880.784 767.431,878.344 770.413,876.529 773.396,874.08 776.378,870.864 779.36,867.891 782.343,866.85 785.325,864.729 788.307,864.646 791.29,863.793 794.272,863.12 797.255,862.263 800.237,859.703 803.219,856.17 806.202,853.257 809.184,852.674 812.166,851.719 815.149,848.532 818.131,845.521 821.113,842.228 824.096,839.879 827.078,839.368 830.06,837.276 833.043,834.292 836.025,833.195 839.008,829.675 841.99,826.886 844.972,825.375 847.955,822.474 850.937,821.631 853.919,821.371 856.902,820.732 859.884,817.734 862.866,815.59 865.849,814.815 868.831,811.342 871.813,809.852 874.796,806.644 877.778,804.377 880.761,802.821 883.743,802.116 886.725,802.08 889.708,801.11 892.69,798.163 895.672,795.178 898.655,792.13 901.637,789.761 904.619,789.264 907.602,786.351 910.584,784.006 913.566,781.698 916.549,780.786 919.531,777.224 922.514,776.133 925.496,775.303 928.478,772.035 931.461,769.895 934.443,768.822 937.425,767.086 940.408,764.603 943.39,762.165 946.372,760.455 949.355,757.598 952.337,755.388 955.319,753.745 958.302,753.587 961.284,751.858 964.266,750.676 967.249,749.016 970.231,747.518 973.214,743.874 976.196,741.688 979.178,741.437 982.161,738.576 985.143,735.991 988.125,734.662 991.108,732.893 994.09,731.044 997.072,729.281 1000.05,727.056 1003.04,723.474 1006.02,721.108 1009,719.256 1011.98,719.158 1014.97,717.05 1017.95,714.929 1020.93,712.827 1023.91,711.903 1026.9,709.088 1029.88,706.81 1032.86,706.736 1035.84,703.48 1038.83,702.497 1041.81,699.155 1044.79,696.083 1047.77,693 1050.75,690.281 1053.74,688.321 1056.72,687.155 1059.7,684.679 1062.68,681.702 1065.67,681.037 1068.65,679.219 1071.63,675.906 1074.61,675.141 1077.6,673.86 1080.58,671.412 1083.56,668.275 1086.54,667.143 1089.53,665.482 1092.51,664.06 1095.49,663.824 1098.47,660.843 1101.45,657.364 1104.44,657.014 1107.42,655.318 1110.4,651.667 1113.38,650.132 1116.37,648.9 1119.35,648.237 1122.33,647.048 1125.31,645.162 1128.3,642.257 1131.28,639.936 1134.26,638.815 1137.24,638.167 1140.23,636.657 1143.21,635.846 1146.19,635.295 1149.17,633.562 1152.15,632.736 1155.14,630.098 1158.12,629.386 1161.1,625.938 1164.08,624.122 1167.07,621.529 1170.05,619.088 1173.03,616.685 1176.01,615.788 1179,615.007 1181.98,613.217 1184.96,612.793 1187.94,611.495 1190.93,608.949 1193.91,608.269 1196.89,605.696 1199.87,603.353 1202.85,602.156 1205.84,599.165 1208.82,596.069 1211.8,593.37 1214.78,590.818 1217.77,590.417 1220.75,589.525 1223.73,588.779 1226.71,586.835 1229.7,585.866 1232.68,584.162 1235.66,581.331 1238.64,580.839 1241.63,579.449 1244.61,578.539 1247.59,577.55 1250.57,575.256 1253.56,571.813 1256.54,571.455 1259.52,569.193 1262.5,567.21 1265.48,563.718 1268.47,562.648 1271.45,559.992 1274.43,556.436 1277.41,554.5 1280.4,552.343 1283.38,550.444 1286.36,547.588 1289.34,543.97 1292.33,541.989 1295.31,540.168 1298.29,539.625 1301.27,537.94 1304.26,536.98 1307.24,536.127 1310.22,534.669 1313.2,532.128 1316.18,530.332 1319.17,528.748 1322.15,525.643 1325.13,524.49 1328.11,522.922 1331.1,519.497 1334.08,519.051 1337.06,515.535 1340.04,513.727 1343.03,512.137 1346.01,508.725 1348.99,506.654 1351.97,503.026 1354.96,501.006 1357.94,498.999 1360.92,496.086 1363.9,494.127 1366.88,492.816 1369.87,490.708 1372.85,487.21 1375.83,486.439 1378.81,486.242 1381.8,485.182 1384.78,482.734 1387.76,479.123 1390.74,475.7 1393.73,473.104 1396.71,471.737 1399.69,470.668 1402.67,467.397 1405.66,466.637 1408.64,463.256 1411.62,461.187 1414.6,461.118 1417.58,457.574 1420.57,454.171 1423.55,453.666 1426.53,452.253 1429.51,450.678 1432.5,447.53 1435.48,447.227 1438.46,446.943 1441.44,444.903 1444.43,443.126 1447.41,442.836 1450.39,439.383 1453.37,437.597 1456.36,436.636 1459.34,433.471 1462.32,430.871 1465.3,428.915 1468.28,427.087 1471.27,426.882 1474.25,424.437 1477.23,421.377 1480.21,419.602 1483.2,418.329 1486.18,417.135 1489.16,414.832 1492.14,411.259 1495.13,410.024 1498.11,407.234 1501.09,405.321 1504.07,402.086 1507.06,401.756 1510.04,398.64 1513.02,396.87 1516,396.282 1518.98,395.614 1521.97,394.979 1524.95,391.8 1527.93,391.112 1530.91,390.78 1533.9,387.928 1536.88,386.95 1539.86,383.745 1542.84,381.266 1545.83,378.111 1548.81,375.584 1551.79,373.52 1554.77,373.2 1557.76,372.684 1560.74,369.597 1563.72,368.401 1566.7,365.361 1569.68,363.84 1572.67,361.786 1575.65,359.875 1578.63,357.995 1581.61,354.429 1584.6,351.522 1587.58,348.634 1590.56,347.259 1593.54,345.73 1596.53,343.524 1599.51,340.481 1602.49,337.804 1605.47,335.613 1608.46,335.244 1611.44,334.572 1614.42,333.219 1617.4,330.505 1620.38,329.279 1623.37,327.242 1626.35,325.673 1629.33,325.21 1632.31,324.734 1635.3,322.458 1638.28,322.311 1641.26,319.823 1644.24,319.38 1647.23,316.812 1650.21,316.074 1653.19,312.706 1656.17,309.947 1659.16,307.289 1662.14,306.209 1665.12,304.016 1668.1,303.279 1671.08,301.259 1674.07,298.356 1677.05,295.309 1680.03,293.998 1683.01,290.432 1686,289.515 1688.98,287.764 1691.96,286.536 1694.94,282.959 1697.93,281.535 1700.91,278.426 1703.89,274.978 1706.87,271.886 1709.86,269.36 1712.84,266.618 1715.82,265.057 1718.8,262.01 1721.78,258.999 1724.77,258.867 1727.75,255.684 1730.73,255.263 1733.71,252.62 1736.7,252.421 1739.68,252.342 1742.66,249.775 1745.64,247.311 1748.63,244.593 1751.61,242.404 1754.59,241.661 1757.57,241.227 1760.56,239.476 1763.54,238.083 1766.52,237.596 1769.5,236.705 1772.49,233.247 1775.47,231.007 1778.45,227.517 1781.43,224.317 1784.41,221.054 1787.4,219.185 1790.38,218.543 1793.36,216.001 1796.34,213.346 1799.33,211.148 1802.31,208.637 1805.29,207.048 1808.27,203.696 1811.26,201.276 1814.24,199.387 1817.22,195.749 1820.2,193.878 1823.19,190.793 1826.17,187.956 1829.15,186.607 1832.13,185.365 1835.11,183.309 1838.1,181.643 1841.08,181.509 1844.06,179.136 1847.04,177.135 1850.03,176.075 1853.01,175.71 1855.99,173.832 1858.97,171.877 1861.96,169.685 1864.94,168.751 1867.92,165.685 1870.9,165.661 1873.89,164.302 1876.87,163.014 1879.85,159.882 1882.83,158.266 1885.81,154.994 1888.8,154.918 1891.78,152.158 1894.76,151.292 1897.74,149.291 1900.73,145.838 1903.71,143.048 1906.69,140.878 1909.67,139.002 1912.66,138.915 1915.64,137.831 1918.62,136.562 1921.6,133.223 1924.59,131.757 1927.57,129.667 1930.55,128.577 1933.53,127.438 1936.51,124.668 1939.5,122.411 1942.48,122.401 1945.46,120.573 1948.44,119.481 1951.43,119.399 1954.41,117.731 1957.39,115.094 1960.37,113.736 1963.36,112.06 1966.34,108.946 1969.32,107.919 1972.3,105.771 1975.29,102.612 1978.27,100.833 1981.25,100.488 1984.23,97.8726 1987.21,96.443 1990.2,95.573 1993.18,93.9977 1996.16,90.3797 1999.14,87.5895 2002.13,86.1274 2005.11,84.0206 2008.09,82.1177 2011.07,80.8479 "/>
<path clip-path="url(#clip840)" d="M231.203 190.502 L473.311 190.502 L473.311 86.8219 L231.203 86.8219  Z" fill="#ffffff" fill-rule="evenodd" fill-opacity="1"/>
<polyline clip-path="url(#clip840)" style="stroke:#000000; stroke-linecap:round; stroke-linejoin:round; stroke-width:4; stroke-opacity:1; fill:none" points="231.203,190.502 473.311,190.502 473.311,86.8219 231.203,86.8219 231.203,190.502 "/>
<polyline clip-path="url(#clip840)" style="stroke:#009af9; stroke-linecap:round; stroke-linejoin:round; stroke-width:4; stroke-opacity:1; fill:none" points="252.279,138.662 378.731,138.662 "/>
<path clip-path="url(#clip840)" d="M413.648 158.349 Q411.843 162.979 410.13 164.391 Q408.417 165.803 405.547 165.803 L402.144 165.803 L402.144 162.238 L404.644 162.238 Q406.403 162.238 407.375 161.405 Q408.348 160.572 409.528 157.47 L410.292 155.525 L399.806 130.016 L404.32 130.016 L412.422 150.294 L420.523 130.016 L425.037 130.016 L413.648 158.349 Z" fill="#000000" fill-rule="nonzero" fill-opacity="1" /><path clip-path="url(#clip840)" d="M432.329 152.007 L439.968 152.007 L439.968 125.641 L431.658 127.308 L431.658 123.049 L439.921 121.382 L444.597 121.382 L444.597 152.007 L452.236 152.007 L452.236 155.942 L432.329 155.942 L432.329 152.007 Z" fill="#000000" fill-rule="nonzero" fill-opacity="1" /></svg>
