<?xml version="1.0" encoding="utf-8"?>
<svg xmlns="http://www.w3.org/2000/svg" xmlns:xlink="http://www.w3.org/1999/xlink" width="528" height="336" viewBox="0 0 2112 1344">
<defs>
  <clipPath id="clip710">
    <rect x="0" y="0" width="2112" height="1344"/>
  </clipPath>
</defs>
<path clip-path="url(#clip710)" d="M0 1344 L2112 1344 L2112 0 L0 0  Z" fill="#ffffff" fill-rule="evenodd" fill-opacity="1"/>
<defs>
  <clipPath id="clip711">
    <rect x="422" y="0" width="1479" height="1344"/>
  </clipPath>
</defs>
<path clip-path="url(#clip710)" d="M183.394 1234.58 L2064.76 1234.58 L2064.76 47.2441 L183.394 47.2441  Z" fill="#ffffff" fill-rule="evenodd" fill-opacity="1"/>
<defs>
  <clipPath id="clip712">
    <rect x="183" y="47" width="1882" height="1188"/>
  </clipPath>
</defs>
<polyline clip-path="url(#clip712)" style="stroke:#000000; stroke-linecap:round; stroke-linejoin:round; stroke-width:2; stroke-opacity:0.1; fill:none" points="236.64,1234.58 236.64,47.2441 "/>
<polyline clip-path="url(#clip712)" style="stroke:#000000; stroke-linecap:round; stroke-linejoin:round; stroke-width:2; stroke-opacity:0.1; fill:none" points="532.452,1234.58 532.452,47.2441 "/>
<polyline clip-path="url(#clip712)" style="stroke:#000000; stroke-linecap:round; stroke-linejoin:round; stroke-width:2; stroke-opacity:0.1; fill:none" points="828.263,1234.58 828.263,47.2441 "/>
<polyline clip-path="url(#clip712)" style="stroke:#000000; stroke-linecap:round; stroke-linejoin:round; stroke-width:2; stroke-opacity:0.1; fill:none" points="1124.07,1234.58 1124.07,47.2441 "/>
<polyline clip-path="url(#clip712)" style="stroke:#000000; stroke-linecap:round; stroke-linejoin:round; stroke-width:2; stroke-opacity:0.1; fill:none" points="1419.89,1234.58 1419.89,47.2441 "/>
<polyline clip-path="url(#clip712)" style="stroke:#000000; stroke-linecap:round; stroke-linejoin:round; stroke-width:2; stroke-opacity:0.1; fill:none" points="1715.7,1234.58 1715.7,47.2441 "/>
<polyline clip-path="url(#clip712)" style="stroke:#000000; stroke-linecap:round; stroke-linejoin:round; stroke-width:2; stroke-opacity:0.1; fill:none" points="2011.51,1234.58 2011.51,47.2441 "/>
<polyline clip-path="url(#clip710)" style="stroke:#000000; stroke-linecap:round; stroke-linejoin:round; stroke-width:4; stroke-opacity:1; fill:none" points="183.394,1234.58 2064.76,1234.58 "/>
<polyline clip-path="url(#clip710)" style="stroke:#000000; stroke-linecap:round; stroke-linejoin:round; stroke-width:4; stroke-opacity:1; fill:none" points="236.64,1234.58 236.64,1215.68 "/>
<polyline clip-path="url(#clip710)" style="stroke:#000000; stroke-linecap:round; stroke-linejoin:round; stroke-width:4; stroke-opacity:1; fill:none" points="532.452,1234.58 532.452,1215.68 "/>
<polyline clip-path="url(#clip710)" style="stroke:#000000; stroke-linecap:round; stroke-linejoin:round; stroke-width:4; stroke-opacity:1; fill:none" points="828.263,1234.58 828.263,1215.68 "/>
<polyline clip-path="url(#clip710)" style="stroke:#000000; stroke-linecap:round; stroke-linejoin:round; stroke-width:4; stroke-opacity:1; fill:none" points="1124.07,1234.58 1124.07,1215.68 "/>
<polyline clip-path="url(#clip710)" style="stroke:#000000; stroke-linecap:round; stroke-linejoin:round; stroke-width:4; stroke-opacity:1; fill:none" points="1419.89,1234.58 1419.89,1215.68 "/>
<polyline clip-path="url(#clip710)" style="stroke:#000000; stroke-linecap:round; stroke-linejoin:round; stroke-width:4; stroke-opacity:1; fill:none" points="1715.7,1234.58 1715.7,1215.68 "/>
<polyline clip-path="url(#clip710)" style="stroke:#000000; stroke-linecap:round; stroke-linejoin:round; stroke-width:4; stroke-opacity:1; fill:none" points="2011.51,1234.58 2011.51,1215.68 "/>
<path clip-path="url(#clip710)" d="M206.108 1277.85 L235.784 1277.85 L235.784 1281.78 L206.108 1281.78 L206.108 1277.85 Z" fill="#000000" fill-rule="nonzero" fill-opacity="1" /><path clip-path="url(#clip710)" d="M260.043 1276.04 Q263.399 1276.76 265.274 1279.03 Q267.172 1281.3 267.172 1284.63 Q267.172 1289.74 263.654 1292.55 Q260.135 1295.35 253.654 1295.35 Q251.478 1295.35 249.163 1294.91 Q246.872 1294.49 244.418 1293.63 L244.418 1289.12 Q246.362 1290.25 248.677 1290.83 Q250.992 1291.41 253.515 1291.41 Q257.913 1291.41 260.205 1289.67 Q262.52 1287.94 262.52 1284.63 Q262.52 1281.57 260.367 1279.86 Q258.237 1278.12 254.418 1278.12 L250.39 1278.12 L250.39 1274.28 L254.603 1274.28 Q258.052 1274.28 259.881 1272.92 Q261.709 1271.53 261.709 1268.93 Q261.709 1266.27 259.811 1264.86 Q257.936 1263.42 254.418 1263.42 Q252.496 1263.42 250.297 1263.84 Q248.098 1264.26 245.459 1265.14 L245.459 1260.97 Q248.122 1260.23 250.436 1259.86 Q252.774 1259.49 254.834 1259.49 Q260.158 1259.49 263.26 1261.92 Q266.362 1264.33 266.362 1268.45 Q266.362 1271.32 264.719 1273.31 Q263.075 1275.28 260.043 1276.04 Z" fill="#000000" fill-rule="nonzero" fill-opacity="1" /><path clip-path="url(#clip710)" d="M502.394 1277.85 L532.07 1277.85 L532.07 1281.78 L502.394 1281.78 L502.394 1277.85 Z" fill="#000000" fill-rule="nonzero" fill-opacity="1" /><path clip-path="url(#clip710)" d="M546.19 1290.74 L562.509 1290.74 L562.509 1294.67 L540.565 1294.67 L540.565 1290.74 Q543.227 1287.99 547.81 1283.36 Q552.417 1278.7 553.597 1277.36 Q555.843 1274.84 556.722 1273.1 Q557.625 1271.34 557.625 1269.65 Q557.625 1266.9 555.681 1265.16 Q553.759 1263.42 550.658 1263.42 Q548.459 1263.42 546.005 1264.19 Q543.574 1264.95 540.797 1266.5 L540.797 1261.78 Q543.621 1260.65 546.074 1260.07 Q548.528 1259.49 550.565 1259.49 Q555.935 1259.49 559.13 1262.17 Q562.324 1264.86 562.324 1269.35 Q562.324 1271.48 561.514 1273.4 Q560.727 1275.3 558.621 1277.89 Q558.042 1278.56 554.94 1281.78 Q551.838 1284.98 546.19 1290.74 Z" fill="#000000" fill-rule="nonzero" fill-opacity="1" /><path clip-path="url(#clip710)" d="M798.02 1277.85 L827.696 1277.85 L827.696 1281.78 L798.02 1281.78 L798.02 1277.85 Z" fill="#000000" fill-rule="nonzero" fill-opacity="1" /><path clip-path="url(#clip710)" d="M838.599 1290.74 L846.238 1290.74 L846.238 1264.37 L837.928 1266.04 L837.928 1261.78 L846.191 1260.11 L850.867 1260.11 L850.867 1290.74 L858.506 1290.74 L858.506 1294.67 L838.599 1294.67 L838.599 1290.74 Z" fill="#000000" fill-rule="nonzero" fill-opacity="1" /><path clip-path="url(#clip710)" d="M1124.07 1263.19 Q1120.46 1263.19 1118.64 1266.76 Q1116.83 1270.3 1116.83 1277.43 Q1116.83 1284.54 1118.64 1288.1 Q1120.46 1291.64 1124.07 1291.64 Q1127.71 1291.64 1129.51 1288.1 Q1131.34 1284.54 1131.34 1277.43 Q1131.34 1270.3 1129.51 1266.76 Q1127.71 1263.19 1124.07 1263.19 M1124.07 1259.49 Q1129.89 1259.49 1132.94 1264.1 Q1136.02 1268.68 1136.02 1277.43 Q1136.02 1286.16 1132.94 1290.76 Q1129.89 1295.35 1124.07 1295.35 Q1118.26 1295.35 1115.19 1290.76 Q1112.13 1286.16 1112.13 1277.43 Q1112.13 1268.68 1115.19 1264.1 Q1118.26 1259.49 1124.07 1259.49 Z" fill="#000000" fill-rule="nonzero" fill-opacity="1" /><path clip-path="url(#clip710)" d="M1410.27 1290.74 L1417.91 1290.74 L1417.91 1264.37 L1409.6 1266.04 L1409.6 1261.78 L1417.86 1260.11 L1422.54 1260.11 L1422.54 1290.74 L1430.18 1290.74 L1430.18 1294.67 L1410.27 1294.67 L1410.27 1290.74 Z" fill="#000000" fill-rule="nonzero" fill-opacity="1" /><path clip-path="url(#clip710)" d="M1710.35 1290.74 L1726.67 1290.74 L1726.67 1294.67 L1704.73 1294.67 L1704.73 1290.74 Q1707.39 1287.99 1711.97 1283.36 Q1716.58 1278.7 1717.76 1277.36 Q1720 1274.84 1720.88 1273.1 Q1721.79 1271.34 1721.79 1269.65 Q1721.79 1266.9 1719.84 1265.16 Q1717.92 1263.42 1714.82 1263.42 Q1712.62 1263.42 1710.17 1264.19 Q1707.74 1264.95 1704.96 1266.5 L1704.96 1261.78 Q1707.78 1260.65 1710.24 1260.07 Q1712.69 1259.49 1714.73 1259.49 Q1720.1 1259.49 1723.29 1262.17 Q1726.49 1264.86 1726.49 1269.35 Q1726.49 1271.48 1725.67 1273.4 Q1724.89 1275.3 1722.78 1277.89 Q1722.2 1278.56 1719.1 1281.78 Q1716 1284.98 1710.35 1290.74 Z" fill="#000000" fill-rule="nonzero" fill-opacity="1" /><path clip-path="url(#clip710)" d="M2015.76 1276.04 Q2019.11 1276.76 2020.99 1279.03 Q2022.89 1281.3 2022.89 1284.63 Q2022.89 1289.74 2019.37 1292.55 Q2015.85 1295.35 2009.37 1295.35 Q2007.19 1295.35 2004.88 1294.91 Q2002.59 1294.49 2000.13 1293.63 L2000.13 1289.12 Q2002.08 1290.25 2004.39 1290.83 Q2006.71 1291.41 2009.23 1291.41 Q2013.63 1291.41 2015.92 1289.67 Q2018.23 1287.94 2018.23 1284.63 Q2018.23 1281.57 2016.08 1279.86 Q2013.95 1278.12 2010.13 1278.12 L2006.1 1278.12 L2006.1 1274.28 L2010.32 1274.28 Q2013.77 1274.28 2015.6 1272.92 Q2017.42 1271.53 2017.42 1268.93 Q2017.42 1266.27 2015.53 1264.86 Q2013.65 1263.42 2010.13 1263.42 Q2008.21 1263.42 2006.01 1263.84 Q2003.81 1264.26 2001.17 1265.14 L2001.17 1260.97 Q2003.84 1260.23 2006.15 1259.86 Q2008.49 1259.49 2010.55 1259.49 Q2015.87 1259.49 2018.98 1261.92 Q2022.08 1264.33 2022.08 1268.45 Q2022.08 1271.32 2020.43 1273.31 Q2018.79 1275.28 2015.76 1276.04 Z" fill="#000000" fill-rule="nonzero" fill-opacity="1" /><polyline clip-path="url(#clip712)" style="stroke:#000000; stroke-linecap:round; stroke-linejoin:round; stroke-width:2; stroke-opacity:0.1; fill:none" points="183.394,1201.97 2064.76,1201.97 "/>
<polyline clip-path="url(#clip712)" style="stroke:#000000; stroke-linecap:round; stroke-linejoin:round; stroke-width:2; stroke-opacity:0.1; fill:none" points="183.394,921.59 2064.76,921.59 "/>
<polyline clip-path="url(#clip712)" style="stroke:#000000; stroke-linecap:round; stroke-linejoin:round; stroke-width:2; stroke-opacity:0.1; fill:none" points="183.394,641.212 2064.76,641.212 "/>
<polyline clip-path="url(#clip712)" style="stroke:#000000; stroke-linecap:round; stroke-linejoin:round; stroke-width:2; stroke-opacity:0.1; fill:none" points="183.394,360.834 2064.76,360.834 "/>
<polyline clip-path="url(#clip712)" style="stroke:#000000; stroke-linecap:round; stroke-linejoin:round; stroke-width:2; stroke-opacity:0.1; fill:none" points="183.394,80.4558 2064.76,80.4558 "/>
<polyline clip-path="url(#clip710)" style="stroke:#000000; stroke-linecap:round; stroke-linejoin:round; stroke-width:4; stroke-opacity:1; fill:none" points="183.394,1234.58 183.394,47.2441 "/>
<polyline clip-path="url(#clip710)" style="stroke:#000000; stroke-linecap:round; stroke-linejoin:round; stroke-width:4; stroke-opacity:1; fill:none" points="183.394,1201.97 202.292,1201.97 "/>
<polyline clip-path="url(#clip710)" style="stroke:#000000; stroke-linecap:round; stroke-linejoin:round; stroke-width:4; stroke-opacity:1; fill:none" points="183.394,921.59 202.292,921.59 "/>
<polyline clip-path="url(#clip710)" style="stroke:#000000; stroke-linecap:round; stroke-linejoin:round; stroke-width:4; stroke-opacity:1; fill:none" points="183.394,641.212 202.292,641.212 "/>
<polyline clip-path="url(#clip710)" style="stroke:#000000; stroke-linecap:round; stroke-linejoin:round; stroke-width:4; stroke-opacity:1; fill:none" points="183.394,360.834 202.292,360.834 "/>
<polyline clip-path="url(#clip710)" style="stroke:#000000; stroke-linecap:round; stroke-linejoin:round; stroke-width:4; stroke-opacity:1; fill:none" points="183.394,80.4558 202.292,80.4558 "/>
<path clip-path="url(#clip710)" d="M64.3765 1187.77 Q60.7654 1187.77 58.9367 1191.33 Q57.1312 1194.87 57.1312 1202 Q57.1312 1209.11 58.9367 1212.67 Q60.7654 1216.22 64.3765 1216.22 Q68.0107 1216.22 69.8163 1212.67 Q71.645 1209.11 71.645 1202 Q71.645 1194.87 69.8163 1191.33 Q68.0107 1187.77 64.3765 1187.77 M64.3765 1184.06 Q70.1867 1184.06 73.2422 1188.67 Q76.3209 1193.25 76.3209 1202 Q76.3209 1210.73 73.2422 1215.34 Q70.1867 1219.92 64.3765 1219.92 Q58.5664 1219.92 55.4877 1215.34 Q52.4321 1210.73 52.4321 1202 Q52.4321 1193.25 55.4877 1188.67 Q58.5664 1184.06 64.3765 1184.06 Z" fill="#000000" fill-rule="nonzero" fill-opacity="1" /><path clip-path="url(#clip710)" d="M84.5384 1213.37 L89.4227 1213.37 L89.4227 1219.25 L84.5384 1219.25 L84.5384 1213.37 Z" fill="#000000" fill-rule="nonzero" fill-opacity="1" /><path clip-path="url(#clip710)" d="M109.608 1187.77 Q105.997 1187.77 104.168 1191.33 Q102.362 1194.87 102.362 1202 Q102.362 1209.11 104.168 1212.67 Q105.997 1216.22 109.608 1216.22 Q113.242 1216.22 115.048 1212.67 Q116.876 1209.11 116.876 1202 Q116.876 1194.87 115.048 1191.33 Q113.242 1187.77 109.608 1187.77 M109.608 1184.06 Q115.418 1184.06 118.473 1188.67 Q121.552 1193.25 121.552 1202 Q121.552 1210.73 118.473 1215.34 Q115.418 1219.92 109.608 1219.92 Q103.798 1219.92 100.719 1215.34 Q97.6634 1210.73 97.6634 1202 Q97.6634 1193.25 100.719 1188.67 Q103.798 1184.06 109.608 1184.06 Z" fill="#000000" fill-rule="nonzero" fill-opacity="1" /><path clip-path="url(#clip710)" d="M139.77 1187.77 Q136.159 1187.77 134.33 1191.33 Q132.524 1194.87 132.524 1202 Q132.524 1209.11 134.33 1212.67 Q136.159 1216.22 139.77 1216.22 Q143.404 1216.22 145.209 1212.67 Q147.038 1209.11 147.038 1202 Q147.038 1194.87 145.209 1191.33 Q143.404 1187.77 139.77 1187.77 M139.77 1184.06 Q145.58 1184.06 148.635 1188.67 Q151.714 1193.25 151.714 1202 Q151.714 1210.73 148.635 1215.34 Q145.58 1219.92 139.77 1219.92 Q133.959 1219.92 130.881 1215.34 Q127.825 1210.73 127.825 1202 Q127.825 1193.25 130.881 1188.67 Q133.959 1184.06 139.77 1184.06 Z" fill="#000000" fill-rule="nonzero" fill-opacity="1" /><path clip-path="url(#clip710)" d="M65.3719 907.389 Q61.7608 907.389 59.9321 910.954 Q58.1265 914.495 58.1265 921.625 Q58.1265 928.731 59.9321 932.296 Q61.7608 935.838 65.3719 935.838 Q69.0061 935.838 70.8117 932.296 Q72.6404 928.731 72.6404 921.625 Q72.6404 914.495 70.8117 910.954 Q69.0061 907.389 65.3719 907.389 M65.3719 903.685 Q71.182 903.685 74.2376 908.292 Q77.3163 912.875 77.3163 921.625 Q77.3163 930.352 74.2376 934.958 Q71.182 939.541 65.3719 939.541 Q59.5617 939.541 56.483 934.958 Q53.4275 930.352 53.4275 921.625 Q53.4275 912.875 56.483 908.292 Q59.5617 903.685 65.3719 903.685 Z" fill="#000000" fill-rule="nonzero" fill-opacity="1" /><path clip-path="url(#clip710)" d="M85.5338 932.991 L90.418 932.991 L90.418 938.87 L85.5338 938.87 L85.5338 932.991 Z" fill="#000000" fill-rule="nonzero" fill-opacity="1" /><path clip-path="url(#clip710)" d="M104.631 934.935 L120.95 934.935 L120.95 938.87 L99.006 938.87 L99.006 934.935 Q101.668 932.18 106.251 927.551 Q110.858 922.898 112.038 921.555 Q114.284 919.032 115.163 917.296 Q116.066 915.537 116.066 913.847 Q116.066 911.092 114.122 909.356 Q112.2 907.62 109.098 907.62 Q106.899 907.62 104.446 908.384 Q102.015 909.148 99.2374 910.699 L99.2374 905.977 Q102.061 904.843 104.515 904.264 Q106.969 903.685 109.006 903.685 Q114.376 903.685 117.571 906.37 Q120.765 909.055 120.765 913.546 Q120.765 915.676 119.955 917.597 Q119.168 919.495 117.061 922.088 Q116.483 922.759 113.381 925.977 Q110.279 929.171 104.631 934.935 Z" fill="#000000" fill-rule="nonzero" fill-opacity="1" /><path clip-path="url(#clip710)" d="M130.811 904.31 L149.168 904.31 L149.168 908.245 L135.094 908.245 L135.094 916.717 Q136.112 916.37 137.131 916.208 Q138.149 916.023 139.168 916.023 Q144.955 916.023 148.334 919.194 Q151.714 922.366 151.714 927.782 Q151.714 933.361 148.242 936.463 Q144.77 939.541 138.45 939.541 Q136.274 939.541 134.006 939.171 Q131.76 938.801 129.353 938.06 L129.353 933.361 Q131.436 934.495 133.659 935.051 Q135.881 935.606 138.358 935.606 Q142.362 935.606 144.7 933.5 Q147.038 931.393 147.038 927.782 Q147.038 924.171 144.7 922.065 Q142.362 919.958 138.358 919.958 Q136.483 919.958 134.608 920.375 Q132.756 920.792 130.811 921.671 L130.811 904.31 Z" fill="#000000" fill-rule="nonzero" fill-opacity="1" /><path clip-path="url(#clip710)" d="M64.3765 627.011 Q60.7654 627.011 58.9367 630.575 Q57.1312 634.117 57.1312 641.247 Q57.1312 648.353 58.9367 651.918 Q60.7654 655.46 64.3765 655.46 Q68.0107 655.46 69.8163 651.918 Q71.645 648.353 71.645 641.247 Q71.645 634.117 69.8163 630.575 Q68.0107 627.011 64.3765 627.011 M64.3765 623.307 Q70.1867 623.307 73.2422 627.913 Q76.3209 632.497 76.3209 641.247 Q76.3209 649.974 73.2422 654.58 Q70.1867 659.163 64.3765 659.163 Q58.5664 659.163 55.4877 654.58 Q52.4321 649.974 52.4321 641.247 Q52.4321 632.497 55.4877 627.913 Q58.5664 623.307 64.3765 623.307 Z" fill="#000000" fill-rule="nonzero" fill-opacity="1" /><path clip-path="url(#clip710)" d="M84.5384 652.612 L89.4227 652.612 L89.4227 658.492 L84.5384 658.492 L84.5384 652.612 Z" fill="#000000" fill-rule="nonzero" fill-opacity="1" /><path clip-path="url(#clip710)" d="M99.6541 623.932 L118.01 623.932 L118.01 627.867 L103.936 627.867 L103.936 636.339 Q104.955 635.992 105.974 635.83 Q106.992 635.645 108.011 635.645 Q113.798 635.645 117.177 638.816 Q120.557 641.987 120.557 647.404 Q120.557 652.983 117.085 656.085 Q113.612 659.163 107.293 659.163 Q105.117 659.163 102.849 658.793 Q100.603 658.423 98.1958 657.682 L98.1958 652.983 Q100.279 654.117 102.501 654.673 Q104.724 655.228 107.2 655.228 Q111.205 655.228 113.543 653.122 Q115.881 651.015 115.881 647.404 Q115.881 643.793 113.543 641.687 Q111.205 639.58 107.2 639.58 Q105.325 639.58 103.45 639.997 Q101.599 640.413 99.6541 641.293 L99.6541 623.932 Z" fill="#000000" fill-rule="nonzero" fill-opacity="1" /><path clip-path="url(#clip710)" d="M139.77 627.011 Q136.159 627.011 134.33 630.575 Q132.524 634.117 132.524 641.247 Q132.524 648.353 134.33 651.918 Q136.159 655.46 139.77 655.46 Q143.404 655.46 145.209 651.918 Q147.038 648.353 147.038 641.247 Q147.038 634.117 145.209 630.575 Q143.404 627.011 139.77 627.011 M139.77 623.307 Q145.58 623.307 148.635 627.913 Q151.714 632.497 151.714 641.247 Q151.714 649.974 148.635 654.58 Q145.58 659.163 139.77 659.163 Q133.959 659.163 130.881 654.58 Q127.825 649.974 127.825 641.247 Q127.825 632.497 130.881 627.913 Q133.959 623.307 139.77 623.307 Z" fill="#000000" fill-rule="nonzero" fill-opacity="1" /><path clip-path="url(#clip710)" d="M65.3719 346.633 Q61.7608 346.633 59.9321 350.197 Q58.1265 353.739 58.1265 360.869 Q58.1265 367.975 59.9321 371.54 Q61.7608 375.081 65.3719 375.081 Q69.0061 375.081 70.8117 371.54 Q72.6404 367.975 72.6404 360.869 Q72.6404 353.739 70.8117 350.197 Q69.0061 346.633 65.3719 346.633 M65.3719 342.929 Q71.182 342.929 74.2376 347.535 Q77.3163 352.119 77.3163 360.869 Q77.3163 369.595 74.2376 374.202 Q71.182 378.785 65.3719 378.785 Q59.5617 378.785 56.483 374.202 Q53.4275 369.595 53.4275 360.869 Q53.4275 352.119 56.483 347.535 Q59.5617 342.929 65.3719 342.929 Z" fill="#000000" fill-rule="nonzero" fill-opacity="1" /><path clip-path="url(#clip710)" d="M85.5338 372.234 L90.418 372.234 L90.418 378.114 L85.5338 378.114 L85.5338 372.234 Z" fill="#000000" fill-rule="nonzero" fill-opacity="1" /><path clip-path="url(#clip710)" d="M99.4226 343.554 L121.645 343.554 L121.645 345.545 L109.098 378.114 L104.214 378.114 L116.02 347.489 L99.4226 347.489 L99.4226 343.554 Z" fill="#000000" fill-rule="nonzero" fill-opacity="1" /><path clip-path="url(#clip710)" d="M130.811 343.554 L149.168 343.554 L149.168 347.489 L135.094 347.489 L135.094 355.961 Q136.112 355.614 137.131 355.452 Q138.149 355.267 139.168 355.267 Q144.955 355.267 148.334 358.438 Q151.714 361.609 151.714 367.026 Q151.714 372.605 148.242 375.706 Q144.77 378.785 138.45 378.785 Q136.274 378.785 134.006 378.415 Q131.76 378.044 129.353 377.304 L129.353 372.605 Q131.436 373.739 133.659 374.294 Q135.881 374.85 138.358 374.85 Q142.362 374.85 144.7 372.744 Q147.038 370.637 147.038 367.026 Q147.038 363.415 144.7 361.308 Q142.362 359.202 138.358 359.202 Q136.483 359.202 134.608 359.619 Q132.756 360.035 130.811 360.915 L130.811 343.554 Z" fill="#000000" fill-rule="nonzero" fill-opacity="1" /><path clip-path="url(#clip710)" d="M55.1867 93.8006 L62.8256 93.8006 L62.8256 67.435 L54.5154 69.1017 L54.5154 64.8424 L62.7793 63.1758 L67.4552 63.1758 L67.4552 93.8006 L75.094 93.8006 L75.094 97.7358 L55.1867 97.7358 L55.1867 93.8006 Z" fill="#000000" fill-rule="nonzero" fill-opacity="1" /><path clip-path="url(#clip710)" d="M84.5384 91.8562 L89.4227 91.8562 L89.4227 97.7358 L84.5384 97.7358 L84.5384 91.8562 Z" fill="#000000" fill-rule="nonzero" fill-opacity="1" /><path clip-path="url(#clip710)" d="M109.608 66.2545 Q105.997 66.2545 104.168 69.8193 Q102.362 73.3609 102.362 80.4905 Q102.362 87.5969 104.168 91.1617 Q105.997 94.7034 109.608 94.7034 Q113.242 94.7034 115.048 91.1617 Q116.876 87.5969 116.876 80.4905 Q116.876 73.3609 115.048 69.8193 Q113.242 66.2545 109.608 66.2545 M109.608 62.5508 Q115.418 62.5508 118.473 67.1572 Q121.552 71.7405 121.552 80.4905 Q121.552 89.2173 118.473 93.8238 Q115.418 98.4071 109.608 98.4071 Q103.798 98.4071 100.719 93.8238 Q97.6634 89.2173 97.6634 80.4905 Q97.6634 71.7405 100.719 67.1572 Q103.798 62.5508 109.608 62.5508 Z" fill="#000000" fill-rule="nonzero" fill-opacity="1" /><path clip-path="url(#clip710)" d="M139.77 66.2545 Q136.159 66.2545 134.33 69.8193 Q132.524 73.3609 132.524 80.4905 Q132.524 87.5969 134.33 91.1617 Q136.159 94.7034 139.77 94.7034 Q143.404 94.7034 145.209 91.1617 Q147.038 87.5969 147.038 80.4905 Q147.038 73.3609 145.209 69.8193 Q143.404 66.2545 139.77 66.2545 M139.77 62.5508 Q145.58 62.5508 148.635 67.1572 Q151.714 71.7405 151.714 80.4905 Q151.714 89.2173 148.635 93.8238 Q145.58 98.4071 139.77 98.4071 Q133.959 98.4071 130.881 93.8238 Q127.825 89.2173 127.825 80.4905 Q127.825 71.7405 130.881 67.1572 Q133.959 62.5508 139.77 62.5508 Z" fill="#000000" fill-rule="nonzero" fill-opacity="1" /><polyline clip-path="url(#clip712)" style="stroke:#009af9; stroke-linecap:round; stroke-linejoin:round; stroke-width:4; stroke-opacity:1; fill:none" points="236.64,251.323 239.598,262.481 242.556,1070.34 245.514,207.073 248.473,734.88 251.431,396.104 254.389,835.809 257.347,930.882 260.305,1168.11 263.263,319.344 266.221,958.384 269.179,247.601 272.137,443.194 275.096,676.259 278.054,837.279 281.012,104.8 283.97,250.154 286.928,1102.46 289.886,915.357 292.844,1071.3 295.802,736.285 298.761,683.716 301.719,964.617 304.677,952.786 307.635,1178.19 310.593,719.649 313.551,726.587 316.509,1072.69 319.467,954.344 322.425,148.762 325.384,100.085 328.342,1035.65 331.3,211.41 334.258,1008.52 337.216,685.269 340.174,556.439 343.132,480.75 346.09,323.312 349.049,337.735 352.007,451.936 354.965,1102.63 357.923,368.501 360.881,835.59 363.839,1048.82 366.797,492.266 369.755,1038.71 372.713,1097.87 375.672,479.653 378.63,273.916 381.588,393.339 384.546,187.171 387.504,668.075 390.462,1140.42 393.42,998.238 396.378,1179.35 399.336,320.163 402.295,1029.5 405.253,789.724 408.211,707.69 411.169,903.945 414.127,822.244 417.085,624.138 420.043,449.533 423.001,779.595 425.96,896.766 428.918,637.909 431.876,623.672 434.834,1057.52 437.792,950.503 440.75,371.696 443.708,1195.21 446.666,1044.16 449.624,283.731 452.583,822.348 455.541,396.701 458.499,581.898 461.457,1070.78 464.415,503.588 467.373,665.13 470.331,176.595 473.289,1156.89 476.248,104.431 479.206,86.8718 482.164,1086.87 485.122,897.649 488.08,460.826 491.038,541.107 493.996,1072.5 496.954,248.1 499.912,550.504 502.871,117.614 505.829,247.264 508.787,575.872 511.745,884.276 514.703,204.364 517.661,851.893 520.619,602.836 523.577,400.744 526.535,652.147 529.494,336.325 532.452,496.397 535.41,452.335 538.368,279.814 541.326,915.683 544.284,222.66 547.242,380.616 550.2,121.303 553.159,299.951 556.117,702.181 559.075,242.765 562.033,1076.34 564.991,711.904 567.949,81.1733 570.907,1038.37 573.865,443.035 576.823,282.171 579.782,889.732 582.74,261.201 585.698,222.964 588.656,195.406 591.614,572.369 594.572,229.427 597.53,913.448 600.488,412.407 603.447,872.778 606.405,704.667 609.363,1055.96 612.321,591.447 615.279,828.355 618.237,879.158 621.195,651.365 624.153,721.793 627.111,645.33 630.07,1135.25 633.028,272.865 635.986,436.421 638.944,583.276 641.902,637.842 644.86,83.0299 647.818,177.578 650.776,979.146 653.734,363.611 656.693,785.012 659.651,1168.29 662.609,391.192 665.567,882.877 668.525,983.975 671.483,1006.41 674.441,80.8479 677.399,1057.26 680.358,1058.55 683.316,300.942 686.274,246.379 689.232,1152.86 692.19,120.048 695.148,845.5 698.106,544.24 701.064,1132.72 704.022,1021.53 706.981,1029.03 709.939,98.2756 712.897,808.253 715.855,267.445 718.813,812.415 721.771,649.962 724.729,364.889 727.687,224.555 730.645,1072.17 733.604,1170.97 736.562,489.679 739.52,524.115 742.478,114.28 745.436,996.86 748.394,246.755 751.352,989.373 754.31,1085.68 757.269,636.804 760.227,411.436 763.185,224.371 766.143,368.744 769.101,116.18 772.059,936.842 775.017,872.796 777.975,330.2 780.933,162.534 783.892,760.317 786.85,250.844 789.808,701.069 792.766,699.173 795.724,87.731 798.682,317.493 801.64,471.38 804.598,651.571 807.557,231.174 810.515,1136.39 813.473,1104.53 816.431,554.332 819.389,228.23 822.347,927.842 825.305,821.884 828.263,109.546 831.221,184.294 834.18,797.098 837.138,603.003 840.096,355.207 843.054,141.789 846.012,1193.99 848.97,1056.72 851.928,406.028 854.886,572.257 857.844,1168.09 860.803,1087.11 863.761,720.803 866.719,782.286 869.677,340.27 872.635,102.66 875.593,409.018 878.551,483.821 881.509,1169.74 884.468,419.03 887.426,1073.81 890.384,965.414 893.342,821.983 896.3,327.254 899.258,380.567 902.216,606.96 905.174,1088.55 908.132,287.672 911.091,1190.61 914.049,706.525 917.007,381.729 919.965,1081.89 922.923,1041.94 925.881,401.133 928.839,1111.59 931.797,196.386 934.756,1152.23 937.714,845.9 940.672,1100.21 943.63,358.081 946.588,893.376 949.546,475.74 952.504,885.808 955.462,362.327 958.42,711.596 961.379,295.934 964.337,1074.9 967.295,503.072 970.253,543.633 973.211,776.325 976.169,1149.32 979.127,893.552 982.085,988.035 985.043,802.282 988.002,973.743 990.96,117.764 993.918,933.696 996.876,890.827 999.834,284.348 1002.79,610.016 1005.75,964.21 1008.71,396.393 1011.67,211.11 1014.62,513.767 1017.58,1091.21 1020.54,264.407 1023.5,581.261 1026.46,341.891 1029.42,779.951 1032.37,577.317 1035.33,683.849 1038.29,363.702 1041.25,1165.08 1044.21,423.486 1047.16,689.695 1050.12,591.52 1053.08,508.219 1056.04,944.804 1059,897.005 1061.95,704.231 1064.91,1196.22 1067.87,520.742 1070.83,1170.04 1073.79,812.414 1076.75,776.62 1079.7,784.561 1082.66,565.5 1085.62,749.583 1088.58,866.888 1091.54,1141.54 1094.49,81.1518 1097.45,361.771 1100.41,338.192 1103.37,1057.6 1106.33,788.681 1109.28,1058.31 1112.24,124.178 1115.2,89.7083 1118.16,376.112 1121.12,890.263 1124.07,1092.14 1127.03,230.716 1129.99,397.468 1132.95,745.786 1135.91,511.382 1138.87,138.159 1141.82,972.297 1144.78,590.616 1147.74,569.945 1150.7,683.857 1153.66,711.109 1156.61,490.435 1159.57,913.344 1162.53,302.025 1165.49,199.972 1168.45,873.162 1171.4,264.001 1174.36,263.891 1177.32,767.787 1180.28,171.011 1183.24,769.572 1186.2,379.96 1189.15,872.593 1192.11,243.551 1195.07,938.176 1198.03,228.66 1200.99,132.08 1203.94,1133.45 1206.9,145.897 1209.86,611.19 1212.82,384.535 1215.78,729.798 1218.73,362.929 1221.69,584.801 1224.65,391.973 1227.61,729.924 1230.57,1026.15 1233.53,1015.94 1236.48,229.705 1239.44,1046.16 1242.4,428.756 1245.36,418.857 1248.32,143.178 1251.27,889.869 1254.23,684.012 1257.19,273.185 1260.15,624.892 1263.11,620.612 1266.06,294.749 1269.02,1172.35 1271.98,895.885 1274.94,302.076 1277.9,291.568 1280.86,264.444 1283.81,547.512 1286.77,1179.44 1289.73,997.155 1292.69,515.396 1295.65,597.52 1298.6,574.764 1301.56,881.563 1304.52,1065.2 1307.48,821.115 1310.44,413.084 1313.39,703.964 1316.35,545.158 1319.31,425.76 1322.27,443.509 1325.23,442.489 1328.18,781.357 1331.14,410.918 1334.1,1120.1 1337.06,337.753 1340.02,487.379 1342.98,505.294 1345.93,94.132 1348.89,919.276 1351.85,257.99 1354.81,172.85 1357.77,686.825 1360.72,1080.87 1363.68,919.772 1366.64,333.955 1369.6,871.53 1372.56,191.478 1375.51,232.233 1378.47,409.377 1381.43,450.069 1384.39,754.013 1387.35,427.688 1390.31,907.43 1393.26,154.512 1396.22,103.58 1399.18,1015.08 1402.14,83.0379 1405.1,622.158 1408.05,978.175 1411.01,977.076 1413.97,190.351 1416.93,173.278 1419.89,880.422 1422.84,437.217 1425.8,451.709 1428.76,542.506 1431.72,170.805 1434.68,376.055 1437.64,449.064 1440.59,762.703 1443.55,1170.41 1446.51,278.395 1449.47,784.603 1452.43,215.08 1455.38,313.071 1458.34,1013.35 1461.3,1025.84 1464.26,918.456 1467.22,738.195 1470.17,754.033 1473.13,181.108 1476.09,222.041 1479.05,1135.28 1482.01,714.7 1484.97,620.269 1487.92,1043.82 1490.88,681.424 1493.84,895.278 1496.8,994.57 1499.76,1145.75 1502.71,254.897 1505.67,157.443 1508.63,979.246 1511.59,732.204 1514.55,481.533 1517.5,965.056 1520.46,1071.21 1523.42,917.314 1526.38,216.221 1529.34,557.828 1532.29,696.783 1535.25,983.014 1538.21,94.5394 1541.17,813.513 1544.13,376.034 1547.09,169.799 1550.04,1089.59 1553,449.635 1555.96,299.826 1558.92,696.473 1561.88,1148.02 1564.83,919.095 1567.79,600.558 1570.75,533.589 1573.71,583.743 1576.67,557.39 1579.62,774.045 1582.58,931.529 1585.54,116.925 1588.5,796.994 1591.46,465.115 1594.42,772.766 1597.37,979.94 1600.33,884.602 1603.29,184.897 1606.25,430.258 1609.21,941.017 1612.16,379.192 1615.12,152.854 1618.08,1133.39 1621.04,541.457 1624,406.575 1626.95,236.978 1629.91,228.772 1632.87,1028.47 1635.83,434.141 1638.79,865.024 1641.75,1119.05 1644.7,157.396 1647.66,855.864 1650.62,501.803 1653.58,267.687 1656.54,825.93 1659.49,485.825 1662.45,564.85 1665.41,1158.18 1668.37,126.109 1671.33,300.04 1674.28,380.674 1677.24,936.075 1680.2,84.3737 1683.16,128.778 1686.12,149.792 1689.08,624.986 1692.03,914.746 1694.99,1087.37 1697.95,1063.13 1700.91,1048.14 1703.87,619.385 1706.82,1038.95 1709.78,982.174 1712.74,476.076 1715.7,560.736 1718.66,745.36 1721.61,257.001 1724.57,225.701 1727.53,461.15 1730.49,303.116 1733.45,682.931 1736.41,1085.54 1739.36,1200.97 1742.32,189.156 1745.28,987.033 1748.24,944.97 1751.2,974.535 1754.15,395.78 1757.11,716.022 1760.07,602.466 1763.03,561.484 1765.99,879.038 1768.94,1013 1771.9,255.964 1774.86,102.389 1777.82,1058.95 1780.78,124.532 1783.73,324.7 1786.69,1003.09 1789.65,1043.84 1792.61,910.326 1795.57,1192.37 1798.53,822.783 1801.48,795.789 1804.44,1132.4 1807.4,1117.92 1810.36,850.269 1813.32,905.07 1816.27,712.425 1819.23,509.44 1822.19,1160.64 1825.15,292.885 1828.11,392.084 1831.06,96.6987 1834.02,209.36 1836.98,1077.4 1839.94,758.98 1842.9,467.235 1845.86,327.728 1848.81,445.781 1851.77,567.592 1854.73,193.548 1857.69,541.413 1860.65,411.13 1863.6,812.425 1866.56,520.187 1869.52,884.179 1872.48,679.162 1875.44,384.11 1878.39,1034.21 1881.35,968.653 1884.31,793.991 1887.27,888.71 1890.23,340.091 1893.19,628.693 1896.14,575.409 1899.1,456.353 1902.06,292.789 1905.02,776.845 1907.98,112.919 1910.93,218.14 1913.89,403.502 1916.85,743.27 1919.81,99.4164 1922.77,1083 1925.72,380.195 1928.68,518.096 1931.64,1007.96 1934.6,525.407 1937.56,1059.88 1940.52,1189.25 1943.47,978.35 1946.43,672.839 1949.39,885.382 1952.35,1007.76 1955.31,527.924 1958.26,459.418 1961.22,566.945 1964.18,683.819 1967.14,917.578 1970.1,924.421 1973.05,398.137 1976.01,531.228 1978.97,406.326 1981.93,89.5535 1984.89,1141.37 1987.84,1067.6 1990.8,416.28 1993.76,593.362 1996.72,881.323 1999.68,1178.07 2002.64,724.885 2005.59,510.352 2008.55,452.468 2011.51,372.43 "/>
<path clip-path="url(#clip710)" d="M1761.48 190.502 L2002.04 190.502 L2002.04 86.8219 L1761.48 86.8219  Z" fill="#ffffff" fill-rule="evenodd" fill-opacity="1"/>
<polyline clip-path="url(#clip710)" style="stroke:#000000; stroke-linecap:round; stroke-linejoin:round; stroke-width:4; stroke-opacity:1; fill:none" points="1761.48,190.502 2002.04,190.502 2002.04,86.8219 1761.48,86.8219 1761.48,190.502 "/>
<polyline clip-path="url(#clip710)" style="stroke:#009af9; stroke-linecap:round; stroke-linejoin:round; stroke-width:4; stroke-opacity:1; fill:none" points="1782.38,138.662 1907.81,138.662 "/>
<path clip-path="url(#clip710)" d="M1942.55 158.349 Q1940.75 162.979 1939.03 164.391 Q1937.32 165.803 1934.45 165.803 L1931.05 165.803 L1931.05 162.238 L1933.55 162.238 Q1935.31 162.238 1936.28 161.405 Q1937.25 160.572 1938.43 157.47 L1939.2 155.525 L1928.71 130.016 L1933.22 130.016 L1941.33 150.294 L1949.43 130.016 L1953.94 130.016 L1942.55 158.349 Z" fill="#000000" fill-rule="nonzero" fill-opacity="1" /><path clip-path="url(#clip710)" d="M1961.23 152.007 L1968.87 152.007 L1968.87 125.641 L1960.56 127.308 L1960.56 123.049 L1968.83 121.382 L1973.5 121.382 L1973.5 152.007 L1981.14 152.007 L1981.14 155.942 L1961.23 155.942 L1961.23 152.007 Z" fill="#000000" fill-rule="nonzero" fill-opacity="1" /></svg>
