<?xml version="1.0" encoding="utf-8"?>
<svg xmlns="http://www.w3.org/2000/svg" xmlns:xlink="http://www.w3.org/1999/xlink" width="528" height="336" viewBox="0 0 2112 1344">
<defs>
  <clipPath id="clip780">
    <rect x="0" y="0" width="2112" height="1344"/>
  </clipPath>
</defs>
<path clip-path="url(#clip780)" d="M0 1344 L2112 1344 L2112 0 L0 0  Z" fill="#ffffff" fill-rule="evenodd" fill-opacity="1"/>
<defs>
  <clipPath id="clip781">
    <rect x="422" y="0" width="1479" height="1344"/>
  </clipPath>
</defs>
<path clip-path="url(#clip780)" d="M167.977 1234.58 L2064.76 1234.58 L2064.76 47.2441 L167.977 47.2441  Z" fill="#ffffff" fill-rule="evenodd" fill-opacity="1"/>
<defs>
  <clipPath id="clip782">
    <rect x="167" y="47" width="1898" height="1188"/>
  </clipPath>
</defs>
<polyline clip-path="url(#clip782)" style="stroke:#000000; stroke-linecap:round; stroke-linejoin:round; stroke-width:2; stroke-opacity:0.1; fill:none" points="221.66,1234.58 221.66,47.2441 "/>
<polyline clip-path="url(#clip782)" style="stroke:#000000; stroke-linecap:round; stroke-linejoin:round; stroke-width:2; stroke-opacity:0.1; fill:none" points="519.895,1234.58 519.895,47.2441 "/>
<polyline clip-path="url(#clip782)" style="stroke:#000000; stroke-linecap:round; stroke-linejoin:round; stroke-width:2; stroke-opacity:0.1; fill:none" points="818.131,1234.58 818.131,47.2441 "/>
<polyline clip-path="url(#clip782)" style="stroke:#000000; stroke-linecap:round; stroke-linejoin:round; stroke-width:2; stroke-opacity:0.1; fill:none" points="1116.37,1234.58 1116.37,47.2441 "/>
<polyline clip-path="url(#clip782)" style="stroke:#000000; stroke-linecap:round; stroke-linejoin:round; stroke-width:2; stroke-opacity:0.1; fill:none" points="1414.6,1234.58 1414.6,47.2441 "/>
<polyline clip-path="url(#clip782)" style="stroke:#000000; stroke-linecap:round; stroke-linejoin:round; stroke-width:2; stroke-opacity:0.1; fill:none" points="1712.84,1234.58 1712.84,47.2441 "/>
<polyline clip-path="url(#clip782)" style="stroke:#000000; stroke-linecap:round; stroke-linejoin:round; stroke-width:2; stroke-opacity:0.1; fill:none" points="2011.07,1234.58 2011.07,47.2441 "/>
<polyline clip-path="url(#clip780)" style="stroke:#000000; stroke-linecap:round; stroke-linejoin:round; stroke-width:4; stroke-opacity:1; fill:none" points="167.977,1234.58 2064.76,1234.58 "/>
<polyline clip-path="url(#clip780)" style="stroke:#000000; stroke-linecap:round; stroke-linejoin:round; stroke-width:4; stroke-opacity:1; fill:none" points="221.66,1234.58 221.66,1215.68 "/>
<polyline clip-path="url(#clip780)" style="stroke:#000000; stroke-linecap:round; stroke-linejoin:round; stroke-width:4; stroke-opacity:1; fill:none" points="519.895,1234.58 519.895,1215.68 "/>
<polyline clip-path="url(#clip780)" style="stroke:#000000; stroke-linecap:round; stroke-linejoin:round; stroke-width:4; stroke-opacity:1; fill:none" points="818.131,1234.58 818.131,1215.68 "/>
<polyline clip-path="url(#clip780)" style="stroke:#000000; stroke-linecap:round; stroke-linejoin:round; stroke-width:4; stroke-opacity:1; fill:none" points="1116.37,1234.58 1116.37,1215.68 "/>
<polyline clip-path="url(#clip780)" style="stroke:#000000; stroke-linecap:round; stroke-linejoin:round; stroke-width:4; stroke-opacity:1; fill:none" points="1414.6,1234.58 1414.6,1215.68 "/>
<polyline clip-path="url(#clip780)" style="stroke:#000000; stroke-linecap:round; stroke-linejoin:round; stroke-width:4; stroke-opacity:1; fill:none" points="1712.84,1234.58 1712.84,1215.68 "/>
<polyline clip-path="url(#clip780)" style="stroke:#000000; stroke-linecap:round; stroke-linejoin:round; stroke-width:4; stroke-opacity:1; fill:none" points="2011.07,1234.58 2011.07,1215.68 "/>
<path clip-path="url(#clip780)" d="M191.128 1277.85 L220.803 1277.85 L220.803 1281.78 L191.128 1281.78 L191.128 1277.85 Z" fill="#000000" fill-rule="nonzero" fill-opacity="1" /><path clip-path="url(#clip780)" d="M245.062 1276.04 Q248.419 1276.76 250.294 1279.03 Q252.192 1281.3 252.192 1284.63 Q252.192 1289.74 248.674 1292.55 Q245.155 1295.35 238.674 1295.35 Q236.498 1295.35 234.183 1294.91 Q231.891 1294.49 229.438 1293.63 L229.438 1289.12 Q231.382 1290.25 233.697 1290.83 Q236.012 1291.41 238.535 1291.41 Q242.933 1291.41 245.225 1289.67 Q247.539 1287.94 247.539 1284.63 Q247.539 1281.57 245.387 1279.86 Q243.257 1278.12 239.438 1278.12 L235.41 1278.12 L235.41 1274.28 L239.623 1274.28 Q243.072 1274.28 244.9 1272.92 Q246.729 1271.53 246.729 1268.93 Q246.729 1266.27 244.831 1264.86 Q242.956 1263.42 239.438 1263.42 Q237.516 1263.42 235.317 1263.84 Q233.118 1264.26 230.479 1265.14 L230.479 1260.97 Q233.141 1260.23 235.456 1259.86 Q237.794 1259.49 239.854 1259.49 Q245.178 1259.49 248.28 1261.92 Q251.382 1264.33 251.382 1268.45 Q251.382 1271.32 249.738 1273.31 Q248.095 1275.28 245.062 1276.04 Z" fill="#000000" fill-rule="nonzero" fill-opacity="1" /><path clip-path="url(#clip780)" d="M489.838 1277.85 L519.513 1277.85 L519.513 1281.78 L489.838 1281.78 L489.838 1277.85 Z" fill="#000000" fill-rule="nonzero" fill-opacity="1" /><path clip-path="url(#clip780)" d="M533.634 1290.74 L549.953 1290.74 L549.953 1294.67 L528.009 1294.67 L528.009 1290.74 Q530.671 1287.99 535.254 1283.36 Q539.861 1278.7 541.041 1277.36 Q543.287 1274.84 544.166 1273.1 Q545.069 1271.34 545.069 1269.65 Q545.069 1266.9 543.124 1265.16 Q541.203 1263.42 538.101 1263.42 Q535.902 1263.42 533.449 1264.19 Q531.018 1264.95 528.24 1266.5 L528.24 1261.78 Q531.064 1260.65 533.518 1260.07 Q535.972 1259.49 538.009 1259.49 Q543.379 1259.49 546.574 1262.17 Q549.768 1264.86 549.768 1269.35 Q549.768 1271.48 548.958 1273.4 Q548.171 1275.3 546.064 1277.89 Q545.486 1278.56 542.384 1281.78 Q539.282 1284.98 533.634 1290.74 Z" fill="#000000" fill-rule="nonzero" fill-opacity="1" /><path clip-path="url(#clip780)" d="M787.888 1277.85 L817.564 1277.85 L817.564 1281.78 L787.888 1281.78 L787.888 1277.85 Z" fill="#000000" fill-rule="nonzero" fill-opacity="1" /><path clip-path="url(#clip780)" d="M828.467 1290.74 L836.105 1290.74 L836.105 1264.37 L827.795 1266.04 L827.795 1261.78 L836.059 1260.11 L840.735 1260.11 L840.735 1290.74 L848.374 1290.74 L848.374 1294.67 L828.467 1294.67 L828.467 1290.74 Z" fill="#000000" fill-rule="nonzero" fill-opacity="1" /><path clip-path="url(#clip780)" d="M1116.37 1263.19 Q1112.76 1263.19 1110.93 1266.76 Q1109.12 1270.3 1109.12 1277.43 Q1109.12 1284.54 1110.93 1288.1 Q1112.76 1291.64 1116.37 1291.64 Q1120 1291.64 1121.81 1288.1 Q1123.64 1284.54 1123.64 1277.43 Q1123.64 1270.3 1121.81 1266.76 Q1120 1263.19 1116.37 1263.19 M1116.37 1259.49 Q1122.18 1259.49 1125.23 1264.1 Q1128.31 1268.68 1128.31 1277.43 Q1128.31 1286.16 1125.23 1290.76 Q1122.18 1295.35 1116.37 1295.35 Q1110.56 1295.35 1107.48 1290.76 Q1104.42 1286.16 1104.42 1277.43 Q1104.42 1268.68 1107.48 1264.1 Q1110.56 1259.49 1116.37 1259.49 Z" fill="#000000" fill-rule="nonzero" fill-opacity="1" /><path clip-path="url(#clip780)" d="M1404.98 1290.74 L1412.62 1290.74 L1412.62 1264.37 L1404.31 1266.04 L1404.31 1261.78 L1412.58 1260.11 L1417.25 1260.11 L1417.25 1290.74 L1424.89 1290.74 L1424.89 1294.67 L1404.98 1294.67 L1404.98 1290.74 Z" fill="#000000" fill-rule="nonzero" fill-opacity="1" /><path clip-path="url(#clip780)" d="M1707.49 1290.74 L1723.81 1290.74 L1723.81 1294.67 L1701.87 1294.67 L1701.87 1290.74 Q1704.53 1287.99 1709.11 1283.36 Q1713.72 1278.7 1714.9 1277.36 Q1717.14 1274.84 1718.02 1273.1 Q1718.93 1271.34 1718.93 1269.65 Q1718.93 1266.9 1716.98 1265.16 Q1715.06 1263.42 1711.96 1263.42 Q1709.76 1263.42 1707.31 1264.19 Q1704.87 1264.95 1702.1 1266.5 L1702.1 1261.78 Q1704.92 1260.65 1707.37 1260.07 Q1709.83 1259.49 1711.87 1259.49 Q1717.24 1259.49 1720.43 1262.17 Q1723.62 1264.86 1723.62 1269.35 Q1723.62 1271.48 1722.81 1273.4 Q1722.03 1275.3 1719.92 1277.89 Q1719.34 1278.56 1716.24 1281.78 Q1713.14 1284.98 1707.49 1290.74 Z" fill="#000000" fill-rule="nonzero" fill-opacity="1" /><path clip-path="url(#clip780)" d="M2015.32 1276.04 Q2018.68 1276.76 2020.55 1279.03 Q2022.45 1281.3 2022.45 1284.63 Q2022.45 1289.74 2018.93 1292.55 Q2015.41 1295.35 2008.93 1295.35 Q2006.76 1295.35 2004.44 1294.91 Q2002.15 1294.49 1999.7 1293.63 L1999.7 1289.12 Q2001.64 1290.25 2003.96 1290.83 Q2006.27 1291.41 2008.79 1291.41 Q2013.19 1291.41 2015.48 1289.67 Q2017.8 1287.94 2017.8 1284.63 Q2017.8 1281.57 2015.65 1279.86 Q2013.52 1278.12 2009.7 1278.12 L2005.67 1278.12 L2005.67 1274.28 L2009.88 1274.28 Q2013.33 1274.28 2015.16 1272.92 Q2016.99 1271.53 2016.99 1268.93 Q2016.99 1266.27 2015.09 1264.86 Q2013.21 1263.42 2009.7 1263.42 Q2007.77 1263.42 2005.58 1263.84 Q2003.38 1264.26 2000.74 1265.14 L2000.74 1260.97 Q2003.4 1260.23 2005.71 1259.86 Q2008.05 1259.49 2010.11 1259.49 Q2015.44 1259.49 2018.54 1261.92 Q2021.64 1264.33 2021.64 1268.45 Q2021.64 1271.32 2020 1273.31 Q2018.35 1275.28 2015.32 1276.04 Z" fill="#000000" fill-rule="nonzero" fill-opacity="1" /><polyline clip-path="url(#clip782)" style="stroke:#000000; stroke-linecap:round; stroke-linejoin:round; stroke-width:2; stroke-opacity:0.1; fill:none" points="167.977,1204.2 2064.76,1204.2 "/>
<polyline clip-path="url(#clip782)" style="stroke:#000000; stroke-linecap:round; stroke-linejoin:round; stroke-width:2; stroke-opacity:0.1; fill:none" points="167.977,822.039 2064.76,822.039 "/>
<polyline clip-path="url(#clip782)" style="stroke:#000000; stroke-linecap:round; stroke-linejoin:round; stroke-width:2; stroke-opacity:0.1; fill:none" points="167.977,439.878 2064.76,439.878 "/>
<polyline clip-path="url(#clip782)" style="stroke:#000000; stroke-linecap:round; stroke-linejoin:round; stroke-width:2; stroke-opacity:0.1; fill:none" points="167.977,57.7172 2064.76,57.7172 "/>
<polyline clip-path="url(#clip780)" style="stroke:#000000; stroke-linecap:round; stroke-linejoin:round; stroke-width:4; stroke-opacity:1; fill:none" points="167.977,1234.58 167.977,47.2441 "/>
<polyline clip-path="url(#clip780)" style="stroke:#000000; stroke-linecap:round; stroke-linejoin:round; stroke-width:4; stroke-opacity:1; fill:none" points="167.977,1204.2 186.875,1204.2 "/>
<polyline clip-path="url(#clip780)" style="stroke:#000000; stroke-linecap:round; stroke-linejoin:round; stroke-width:4; stroke-opacity:1; fill:none" points="167.977,822.039 186.875,822.039 "/>
<polyline clip-path="url(#clip780)" style="stroke:#000000; stroke-linecap:round; stroke-linejoin:round; stroke-width:4; stroke-opacity:1; fill:none" points="167.977,439.878 186.875,439.878 "/>
<polyline clip-path="url(#clip780)" style="stroke:#000000; stroke-linecap:round; stroke-linejoin:round; stroke-width:4; stroke-opacity:1; fill:none" points="167.977,57.7172 186.875,57.7172 "/>
<path clip-path="url(#clip780)" d="M124.353 1190 Q120.742 1190 118.913 1193.56 Q117.108 1197.1 117.108 1204.23 Q117.108 1211.34 118.913 1214.91 Q120.742 1218.45 124.353 1218.45 Q127.987 1218.45 129.793 1214.91 Q131.622 1211.34 131.622 1204.23 Q131.622 1197.1 129.793 1193.56 Q127.987 1190 124.353 1190 M124.353 1186.29 Q130.163 1186.29 133.219 1190.9 Q136.297 1195.48 136.297 1204.23 Q136.297 1212.96 133.219 1217.57 Q130.163 1222.15 124.353 1222.15 Q118.543 1222.15 115.464 1217.57 Q112.409 1212.96 112.409 1204.23 Q112.409 1195.48 115.464 1190.9 Q118.543 1186.29 124.353 1186.29 Z" fill="#000000" fill-rule="nonzero" fill-opacity="1" /><path clip-path="url(#clip780)" d="M54.8395 835.384 L62.4784 835.384 L62.4784 809.018 L54.1682 810.685 L54.1682 806.426 L62.4321 804.759 L67.108 804.759 L67.108 835.384 L74.7468 835.384 L74.7468 839.319 L54.8395 839.319 L54.8395 835.384 Z" fill="#000000" fill-rule="nonzero" fill-opacity="1" /><path clip-path="url(#clip780)" d="M94.1912 807.838 Q90.5801 807.838 88.7514 811.402 Q86.9458 814.944 86.9458 822.074 Q86.9458 829.18 88.7514 832.745 Q90.5801 836.287 94.1912 836.287 Q97.8254 836.287 99.6309 832.745 Q101.46 829.18 101.46 822.074 Q101.46 814.944 99.6309 811.402 Q97.8254 807.838 94.1912 807.838 M94.1912 804.134 Q100.001 804.134 103.057 808.74 Q106.136 813.324 106.136 822.074 Q106.136 830.801 103.057 835.407 Q100.001 839.99 94.1912 839.99 Q88.381 839.99 85.3023 835.407 Q82.2468 830.801 82.2468 822.074 Q82.2468 813.324 85.3023 808.74 Q88.381 804.134 94.1912 804.134 Z" fill="#000000" fill-rule="nonzero" fill-opacity="1" /><path clip-path="url(#clip780)" d="M124.353 807.838 Q120.742 807.838 118.913 811.402 Q117.108 814.944 117.108 822.074 Q117.108 829.18 118.913 832.745 Q120.742 836.287 124.353 836.287 Q127.987 836.287 129.793 832.745 Q131.622 829.18 131.622 822.074 Q131.622 814.944 129.793 811.402 Q127.987 807.838 124.353 807.838 M124.353 804.134 Q130.163 804.134 133.219 808.74 Q136.297 813.324 136.297 822.074 Q136.297 830.801 133.219 835.407 Q130.163 839.99 124.353 839.99 Q118.543 839.99 115.464 835.407 Q112.409 830.801 112.409 822.074 Q112.409 813.324 115.464 808.74 Q118.543 804.134 124.353 804.134 Z" fill="#000000" fill-rule="nonzero" fill-opacity="1" /><path clip-path="url(#clip780)" d="M58.0571 453.223 L74.3765 453.223 L74.3765 457.158 L52.4321 457.158 L52.4321 453.223 Q55.0941 450.468 59.6775 445.839 Q64.2839 441.186 65.4645 439.843 Q67.7098 437.32 68.5894 435.584 Q69.4922 433.825 69.4922 432.135 Q69.4922 429.38 67.5478 427.644 Q65.6265 425.908 62.5247 425.908 Q60.3256 425.908 57.8719 426.672 Q55.4414 427.436 52.6636 428.987 L52.6636 424.265 Q55.4877 423.131 57.9414 422.552 Q60.395 421.973 62.4321 421.973 Q67.8024 421.973 70.9968 424.658 Q74.1913 427.343 74.1913 431.834 Q74.1913 433.964 73.3811 435.885 Q72.5941 437.783 70.4876 440.376 Q69.9089 441.047 66.807 444.265 Q63.7052 447.459 58.0571 453.223 Z" fill="#000000" fill-rule="nonzero" fill-opacity="1" /><path clip-path="url(#clip780)" d="M94.1912 425.677 Q90.5801 425.677 88.7514 429.242 Q86.9458 432.783 86.9458 439.913 Q86.9458 447.019 88.7514 450.584 Q90.5801 454.126 94.1912 454.126 Q97.8254 454.126 99.6309 450.584 Q101.46 447.019 101.46 439.913 Q101.46 432.783 99.6309 429.242 Q97.8254 425.677 94.1912 425.677 M94.1912 421.973 Q100.001 421.973 103.057 426.58 Q106.136 431.163 106.136 439.913 Q106.136 448.64 103.057 453.246 Q100.001 457.829 94.1912 457.829 Q88.381 457.829 85.3023 453.246 Q82.2468 448.64 82.2468 439.913 Q82.2468 431.163 85.3023 426.58 Q88.381 421.973 94.1912 421.973 Z" fill="#000000" fill-rule="nonzero" fill-opacity="1" /><path clip-path="url(#clip780)" d="M124.353 425.677 Q120.742 425.677 118.913 429.242 Q117.108 432.783 117.108 439.913 Q117.108 447.019 118.913 450.584 Q120.742 454.126 124.353 454.126 Q127.987 454.126 129.793 450.584 Q131.622 447.019 131.622 439.913 Q131.622 432.783 129.793 429.242 Q127.987 425.677 124.353 425.677 M124.353 421.973 Q130.163 421.973 133.219 426.58 Q136.297 431.163 136.297 439.913 Q136.297 448.64 133.219 453.246 Q130.163 457.829 124.353 457.829 Q118.543 457.829 115.464 453.246 Q112.409 448.64 112.409 439.913 Q112.409 431.163 115.464 426.58 Q118.543 421.973 124.353 421.973 Z" fill="#000000" fill-rule="nonzero" fill-opacity="1" /><path clip-path="url(#clip780)" d="M68.1959 56.3631 Q71.5524 57.0807 73.4274 59.3492 Q75.3255 61.6177 75.3255 64.951 Q75.3255 70.0667 71.807 72.8676 Q68.2885 75.6685 61.8071 75.6685 Q59.6312 75.6685 57.3164 75.2287 Q55.0247 74.8121 52.571 73.9556 L52.571 69.4417 Q54.5154 70.576 56.8303 71.1547 Q59.1451 71.7334 61.6682 71.7334 Q66.0663 71.7334 68.358 69.9973 Q70.6728 68.2612 70.6728 64.951 Q70.6728 61.8955 68.52 60.1825 Q66.3904 58.4464 62.571 58.4464 L58.5432 58.4464 L58.5432 54.6038 L62.7561 54.6038 Q66.2052 54.6038 68.0339 53.2381 Q69.8626 51.8492 69.8626 49.2566 Q69.8626 46.5946 67.9645 45.1826 Q66.0895 43.7474 62.571 43.7474 Q60.6497 43.7474 58.4506 44.1641 Q56.2515 44.5807 53.6127 45.4604 L53.6127 41.2937 Q56.2747 40.553 58.5895 40.1826 Q60.9275 39.8122 62.9876 39.8122 Q68.3117 39.8122 71.4135 42.2428 Q74.5153 44.6502 74.5153 48.7705 Q74.5153 51.6409 72.8718 53.6316 Q71.2283 55.5992 68.1959 56.3631 Z" fill="#000000" fill-rule="nonzero" fill-opacity="1" /><path clip-path="url(#clip780)" d="M94.1912 43.5159 Q90.5801 43.5159 88.7514 47.0807 Q86.9458 50.6224 86.9458 57.752 Q86.9458 64.8584 88.7514 68.4232 Q90.5801 71.9649 94.1912 71.9649 Q97.8254 71.9649 99.6309 68.4232 Q101.46 64.8584 101.46 57.752 Q101.46 50.6224 99.6309 47.0807 Q97.8254 43.5159 94.1912 43.5159 M94.1912 39.8122 Q100.001 39.8122 103.057 44.4187 Q106.136 49.002 106.136 57.752 Q106.136 66.4788 103.057 71.0852 Q100.001 75.6685 94.1912 75.6685 Q88.381 75.6685 85.3023 71.0852 Q82.2468 66.4788 82.2468 57.752 Q82.2468 49.002 85.3023 44.4187 Q88.381 39.8122 94.1912 39.8122 Z" fill="#000000" fill-rule="nonzero" fill-opacity="1" /><path clip-path="url(#clip780)" d="M124.353 43.5159 Q120.742 43.5159 118.913 47.0807 Q117.108 50.6224 117.108 57.752 Q117.108 64.8584 118.913 68.4232 Q120.742 71.9649 124.353 71.9649 Q127.987 71.9649 129.793 68.4232 Q131.622 64.8584 131.622 57.752 Q131.622 50.6224 129.793 47.0807 Q127.987 43.5159 124.353 43.5159 M124.353 39.8122 Q130.163 39.8122 133.219 44.4187 Q136.297 49.002 136.297 57.752 Q136.297 66.4788 133.219 71.0852 Q130.163 75.6685 124.353 75.6685 Q118.543 75.6685 115.464 71.0852 Q112.409 66.4788 112.409 57.752 Q112.409 49.002 115.464 44.4187 Q118.543 39.8122 124.353 39.8122 Z" fill="#000000" fill-rule="nonzero" fill-opacity="1" /><polyline clip-path="url(#clip782)" style="stroke:#009af9; stroke-linecap:round; stroke-linejoin:round; stroke-width:4; stroke-opacity:1; fill:none" points="221.66,1200.97 224.642,1199.47 227.625,1198.77 230.607,1195.71 233.589,1194.74 236.572,1194.3 239.554,1194.25 242.536,1191.31 245.519,1187.52 248.501,1184.87 251.483,1182.83 254.466,1181.96 257.448,1179.9 260.43,1178.61 263.413,1178.2 266.395,1177.88 269.378,1174.19 272.36,1172.97 275.342,1171.01 278.325,1167.28 281.307,1166.56 284.289,1166.29 287.272,1163.66 290.254,1161.29 293.236,1157.81 296.219,1156.67 299.201,1154.31 302.183,1150.7 305.166,1149.97 308.148,1147.55 311.131,1146.37 314.113,1145.9 317.095,1143.7 320.078,1141.63 323.06,1141.39 326.042,1138.34 329.025,1135.82 332.007,1132.46 334.989,1129.9 337.972,1127.1 340.954,1126.93 343.936,1123.3 346.919,1121.5 349.901,1121.26 352.883,1118.97 355.866,1115.23 358.848,1114.19 361.831,1111.87 364.813,1109.44 367.795,1107.27 370.778,1104.54 373.76,1103.17 376.742,1100.67 379.725,1100.15 382.707,1099.43 385.689,1096.46 388.672,1092.9 391.654,1092.17 394.636,1088.52 397.619,1085.64 400.601,1085.6 403.584,1084.5 406.566,1081.86 409.548,1081.49 412.531,1079.57 415.513,1078.76 418.495,1076.32 421.478,1075.76 424.46,1073.89 427.442,1072.43 430.425,1068.75 433.407,1066.51 436.389,1065.19 439.372,1063.38 442.354,1062.93 445.337,1061.03 448.319,1059.97 451.301,1058.95 454.284,1058.17 457.266,1056.89 460.248,1054.74 463.231,1052.34 466.213,1052.29 469.195,1052.28 472.178,1050.28 475.16,1049.68 478.142,1046.08 481.125,1043.52 484.107,1042.81 487.09,1042.35 490.072,1040.67 493.054,1039.2 496.037,1039.12 499.019,1036.45 502.001,1033.88 504.984,1031.43 507.966,1028.36 510.948,1025.7 513.931,1022.28 516.913,1019.68 519.895,1018.1 522.878,1014.84 525.86,1011.05 528.843,1010.77 531.825,1009.92 534.807,1006.6 537.79,1006.09 540.772,1003.48 543.754,1003.31 546.737,1001.73 549.719,1000.56 552.701,999.469 555.684,996.352 558.666,993.102 561.648,989.501 564.631,988.928 567.613,985.851 570.595,983.769 573.578,980.234 576.56,979.855 579.543,978.34 582.525,976.794 585.507,973.799 588.49,971.781 591.472,968.43 594.454,967.9 597.437,965.328 600.419,962.51 603.401,961.434 606.384,957.99 609.366,956.883 612.348,955.107 615.331,954.195 618.313,953.455 621.296,951.478 624.278,951.134 627.26,950.34 630.243,947.419 633.225,947.411 636.207,945.914 639.19,945.452 642.172,944.717 645.154,942.008 648.137,938.666 651.119,935.601 654.101,935.06 657.084,934 660.066,931.107 663.049,928.73 666.031,928.677 669.013,928.504 671.996,927.276 674.978,926.293 677.96,923.594 680.943,921.38 683.925,920.903 686.907,920.643 689.89,917.382 692.872,916.351 695.854,914.31 698.837,911.989 701.819,910.426 704.802,909.565 707.784,909.21 710.766,908.43 713.749,905.308 716.731,902.567 719.713,899.057 722.696,896.77 725.678,896.182 728.66,892.626 731.643,891.753 734.625,888.344 737.607,887.358 740.59,883.641 743.572,881.369 746.555,879.118 749.537,878.714 752.519,876.88 755.502,876.09 758.484,873.294 761.466,871.224 764.449,867.536 767.431,863.994 770.413,863.732 773.396,862.689 776.378,860.075 779.36,857.229 782.343,857.01 785.325,854.826 788.307,851.954 791.29,849.666 794.272,848.66 797.255,846.287 800.237,845.712 803.219,845.084 806.202,843.288 809.184,843.236 812.166,842.996 815.149,841.88 818.131,839.561 821.113,839.504 824.096,839.174 827.078,835.392 830.06,832.507 833.043,829.816 836.025,827.377 839.008,824.814 841.99,821.414 844.972,821.196 847.955,819.236 850.937,818.239 853.919,817.412 856.902,813.785 859.884,813.171 862.866,810.765 865.849,809.537 868.831,806.386 871.813,805.038 874.796,803.489 877.778,800.891 880.761,800.661 883.743,798.941 886.725,796.286 889.708,792.759 892.69,789.796 895.672,787.076 898.655,785.502 901.637,785.114 904.619,784.056 907.602,783.315 910.584,780.977 913.566,777.874 916.549,776.571 919.531,775.587 922.514,774.277 925.496,771.57 928.478,767.816 931.461,767.345 934.443,767.089 937.425,766.784 940.408,766.211 943.39,765.242 946.372,763.085 949.355,760.225 952.337,757.202 955.319,756.609 958.302,755.209 961.284,752.028 964.266,750.03 967.249,748.314 970.231,746.419 973.214,744.399 976.196,743.494 979.178,743.215 982.161,741.157 985.143,738.135 988.125,736.948 991.108,734.16 994.09,730.551 997.072,727.042 1000.05,725.277 1003.04,723.6 1006.02,721.784 1009,720.166 1011.98,719.01 1014.97,716.116 1017.95,715.683 1020.93,714.79 1023.91,714.049 1026.9,713.683 1029.88,711.88 1032.86,708.237 1035.84,705.386 1038.83,704.483 1041.81,701.629 1044.79,700.274 1047.77,696.583 1050.75,692.828 1053.74,690.789 1056.72,689.074 1059.7,685.709 1062.68,684.077 1065.67,682.804 1068.65,682.139 1071.63,681.49 1074.61,677.823 1077.6,676.915 1080.58,673.134 1083.56,669.445 1086.54,666.793 1089.53,666.033 1092.51,663.022 1095.49,660.132 1098.47,657.435 1101.45,653.761 1104.44,651.468 1107.42,648.15 1110.4,647.304 1113.38,645.76 1116.37,645.634 1119.35,642.954 1122.33,642.305 1125.31,642.176 1128.3,641.286 1131.28,638.255 1134.26,634.734 1137.24,633.881 1140.23,631.389 1143.21,629.342 1146.19,628.844 1149.17,625.773 1152.15,625.36 1155.14,624.947 1158.12,621.482 1161.1,617.725 1164.08,614.257 1167.07,610.825 1170.05,608.099 1173.03,604.953 1176.01,603.167 1179,600.891 1181.98,599.197 1184.96,596.478 1187.94,593.832 1190.93,590.996 1193.91,590.702 1196.89,590.56 1199.87,588.196 1202.85,586.498 1205.84,584.155 1208.82,582.506 1211.8,581.305 1214.78,581.034 1217.77,578.411 1220.75,577.775 1223.73,574.964 1226.71,571.687 1229.7,571.066 1232.68,568.095 1235.66,566.704 1238.64,563.833 1241.63,563.771 1244.61,560.573 1247.59,558.127 1250.57,554.98 1253.56,552.774 1256.54,549.091 1259.52,546.252 1262.5,545.029 1265.48,544.436 1268.47,542.685 1271.45,540.96 1274.43,537.473 1277.41,533.683 1280.4,531.854 1283.38,530.239 1286.36,528.454 1289.34,527.61 1292.33,524.11 1295.31,522.78 1298.29,520.391 1301.27,517.338 1304.26,515.699 1307.24,514.136 1310.22,510.792 1313.2,509.108 1316.18,509.051 1319.17,508.286 1322.15,507.044 1325.13,507.005 1328.11,506.698 1331.1,503.582 1334.08,501.993 1337.06,501.445 1340.04,499.12 1343.03,498.576 1346.01,496.349 1348.99,493.36 1351.97,490.017 1354.96,489.024 1357.94,488.008 1360.92,486.155 1363.9,483.561 1366.88,481.856 1369.87,480.557 1372.85,478.633 1375.83,477.192 1378.81,474.665 1381.8,474.16 1384.78,472.573 1387.76,471.784 1390.74,470.774 1393.73,469.974 1396.71,466.167 1399.69,463.6 1402.67,462.366 1405.66,461.162 1408.64,459.562 1411.62,458.545 1414.6,458.351 1417.58,456.626 1420.57,454.49 1423.55,451.482 1426.53,451.369 1429.51,449.194 1432.5,445.817 1435.48,443.501 1438.46,440.683 1441.44,438.093 1444.43,435.949 1447.41,434.95 1450.39,431.66 1453.37,430.211 1456.36,429.327 1459.34,426.549 1462.32,423.893 1465.3,422.456 1468.28,421.857 1471.27,420.099 1474.25,417.506 1477.23,416.405 1480.21,412.91 1483.2,410.06 1486.18,406.59 1489.16,406.269 1492.14,402.776 1495.13,400.185 1498.11,398.639 1501.09,398.241 1504.07,394.52 1507.06,392.402 1510.04,390.411 1513.02,389.263 1516,388.831 1518.98,386.881 1521.97,384.679 1524.95,382.304 1527.93,379.649 1530.91,378.219 1533.9,374.516 1536.88,374.253 1539.86,373.108 1542.84,372.696 1545.83,371.38 1548.81,371.25 1551.79,367.913 1554.77,366.121 1557.76,365.252 1560.74,364.234 1563.72,361.36 1566.7,358.247 1569.68,355.206 1572.67,353.165 1575.65,352.765 1578.63,350.759 1581.61,349.17 1584.6,348.53 1587.58,346.326 1590.56,343.503 1593.54,341.505 1596.53,340.714 1599.51,338.808 1602.49,337.847 1605.47,336.222 1608.46,336.069 1611.44,334.78 1614.42,331.114 1617.4,327.353 1620.38,325.027 1623.37,321.463 1626.35,318.771 1629.33,316.615 1632.31,314.223 1635.3,312.281 1638.28,310.689 1641.26,307.685 1644.24,305.393 1647.23,301.92 1650.21,298.828 1653.19,297.046 1656.17,295.07 1659.16,293.168 1662.14,292.285 1665.12,291.115 1668.1,290.655 1671.08,288.227 1674.07,287.746 1677.05,283.93 1680.03,281.854 1683.01,281.416 1686,281.113 1688.98,279.808 1691.96,278.904 1694.94,278.401 1697.93,276.36 1700.91,274.718 1703.89,271.933 1706.87,269.55 1709.86,265.881 1712.84,265.427 1715.82,262.577 1718.8,262.488 1721.78,259.406 1724.77,257.848 1727.75,256.204 1730.73,255.426 1733.71,251.698 1736.7,250.934 1739.68,249.873 1742.66,246.481 1745.64,244.911 1748.63,244.216 1751.61,243.713 1754.59,240.418 1757.57,240.205 1760.56,238.172 1763.54,234.698 1766.52,233.335 1769.5,230.392 1772.49,227.532 1775.47,226.21 1778.45,226.027 1781.43,223.109 1784.41,222.467 1787.4,219.833 1790.38,218.471 1793.36,215.321 1796.34,211.609 1799.33,209.336 1802.31,208.043 1805.29,205.916 1808.27,203.717 1811.26,201.785 1814.24,200.311 1817.22,196.623 1820.2,193.794 1823.19,193.512 1826.17,190.671 1829.15,188.183 1832.13,184.81 1835.11,184.092 1838.1,180.99 1841.08,177.242 1844.06,176.643 1847.04,175.218 1850.03,174.814 1853.01,171.096 1855.99,167.445 1858.97,166.579 1861.96,162.847 1864.94,162.022 1867.92,160.084 1870.9,157.124 1873.89,154.769 1876.87,153.711 1879.85,152.957 1882.83,150.177 1885.81,149.455 1888.8,146.018 1891.78,145.009 1894.76,144.094 1897.74,141.255 1900.73,137.753 1903.71,136.466 1906.69,133.637 1909.67,131.882 1912.66,131.021 1915.64,129.153 1918.62,125.69 1921.6,123.657 1924.59,120.888 1927.57,120.823 1930.55,119.058 1933.53,115.78 1936.51,112.563 1939.5,111.943 1942.48,110.58 1945.46,110.095 1948.44,110.044 1951.43,109.687 1954.41,106.077 1957.39,104.767 1960.37,104.587 1963.36,104.12 1966.34,103.647 1969.32,102.545 1972.3,102.439 1975.29,100.125 1978.27,99.7865 1981.25,97.5699 1984.23,96.6362 1987.21,96.6231 1990.2,96.245 1993.18,92.8723 1996.16,92.6873 1999.14,90.6721 2002.13,88.055 2005.11,87.211 2008.09,83.8216 2011.07,80.8479 "/>
<path clip-path="url(#clip780)" d="M231.203 190.502 L473.311 190.502 L473.311 86.8219 L231.203 86.8219  Z" fill="#ffffff" fill-rule="evenodd" fill-opacity="1"/>
<polyline clip-path="url(#clip780)" style="stroke:#000000; stroke-linecap:round; stroke-linejoin:round; stroke-width:4; stroke-opacity:1; fill:none" points="231.203,190.502 473.311,190.502 473.311,86.8219 231.203,86.8219 231.203,190.502 "/>
<polyline clip-path="url(#clip780)" style="stroke:#009af9; stroke-linecap:round; stroke-linejoin:round; stroke-width:4; stroke-opacity:1; fill:none" points="252.279,138.662 378.731,138.662 "/>
<path clip-path="url(#clip780)" d="M413.648 158.349 Q411.843 162.979 410.13 164.391 Q408.417 165.803 405.547 165.803 L402.144 165.803 L402.144 162.238 L404.644 162.238 Q406.403 162.238 407.375 161.405 Q408.348 160.572 409.528 157.47 L410.292 155.525 L399.806 130.016 L404.32 130.016 L412.422 150.294 L420.523 130.016 L425.037 130.016 L413.648 158.349 Z" fill="#000000" fill-rule="nonzero" fill-opacity="1" /><path clip-path="url(#clip780)" d="M432.329 152.007 L439.968 152.007 L439.968 125.641 L431.658 127.308 L431.658 123.049 L439.921 121.382 L444.597 121.382 L444.597 152.007 L452.236 152.007 L452.236 155.942 L432.329 155.942 L432.329 152.007 Z" fill="#000000" fill-rule="nonzero" fill-opacity="1" /></svg>
