<?xml version="1.0" encoding="utf-8"?>
<svg xmlns="http://www.w3.org/2000/svg" xmlns:xlink="http://www.w3.org/1999/xlink" width="528" height="336" viewBox="0 0 2112 1344">
<defs>
  <clipPath id="clip300">
    <rect x="0" y="0" width="2112" height="1344"/>
  </clipPath>
</defs>
<path clip-path="url(#clip300)" d="M0 1344 L2112 1344 L2112 0 L0 0  Z" fill="#ffffff" fill-rule="evenodd" fill-opacity="1"/>
<defs>
  <clipPath id="clip301">
    <rect x="422" y="0" width="1479" height="1344"/>
  </clipPath>
</defs>
<path clip-path="url(#clip300)" d="M183.394 1234.58 L2064.76 1234.58 L2064.76 47.2441 L183.394 47.2441  Z" fill="#ffffff" fill-rule="evenodd" fill-opacity="1"/>
<defs>
  <clipPath id="clip302">
    <rect x="183" y="47" width="1882" height="1188"/>
  </clipPath>
</defs>
<polyline clip-path="url(#clip302)" style="stroke:#000000; stroke-linecap:round; stroke-linejoin:round; stroke-width:2; stroke-opacity:0.1; fill:none" points="236.64,1234.58 236.64,47.2441 "/>
<polyline clip-path="url(#clip302)" style="stroke:#000000; stroke-linecap:round; stroke-linejoin:round; stroke-width:2; stroke-opacity:0.1; fill:none" points="532.452,1234.58 532.452,47.2441 "/>
<polyline clip-path="url(#clip302)" style="stroke:#000000; stroke-linecap:round; stroke-linejoin:round; stroke-width:2; stroke-opacity:0.1; fill:none" points="828.263,1234.58 828.263,47.2441 "/>
<polyline clip-path="url(#clip302)" style="stroke:#000000; stroke-linecap:round; stroke-linejoin:round; stroke-width:2; stroke-opacity:0.1; fill:none" points="1124.07,1234.58 1124.07,47.2441 "/>
<polyline clip-path="url(#clip302)" style="stroke:#000000; stroke-linecap:round; stroke-linejoin:round; stroke-width:2; stroke-opacity:0.1; fill:none" points="1419.89,1234.58 1419.89,47.2441 "/>
<polyline clip-path="url(#clip302)" style="stroke:#000000; stroke-linecap:round; stroke-linejoin:round; stroke-width:2; stroke-opacity:0.1; fill:none" points="1715.7,1234.58 1715.7,47.2441 "/>
<polyline clip-path="url(#clip302)" style="stroke:#000000; stroke-linecap:round; stroke-linejoin:round; stroke-width:2; stroke-opacity:0.1; fill:none" points="2011.51,1234.58 2011.51,47.2441 "/>
<polyline clip-path="url(#clip300)" style="stroke:#000000; stroke-linecap:round; stroke-linejoin:round; stroke-width:4; stroke-opacity:1; fill:none" points="183.394,1234.58 2064.76,1234.58 "/>
<polyline clip-path="url(#clip300)" style="stroke:#000000; stroke-linecap:round; stroke-linejoin:round; stroke-width:4; stroke-opacity:1; fill:none" points="236.64,1234.58 236.64,1215.68 "/>
<polyline clip-path="url(#clip300)" style="stroke:#000000; stroke-linecap:round; stroke-linejoin:round; stroke-width:4; stroke-opacity:1; fill:none" points="532.452,1234.58 532.452,1215.68 "/>
<polyline clip-path="url(#clip300)" style="stroke:#000000; stroke-linecap:round; stroke-linejoin:round; stroke-width:4; stroke-opacity:1; fill:none" points="828.263,1234.58 828.263,1215.68 "/>
<polyline clip-path="url(#clip300)" style="stroke:#000000; stroke-linecap:round; stroke-linejoin:round; stroke-width:4; stroke-opacity:1; fill:none" points="1124.07,1234.58 1124.07,1215.68 "/>
<polyline clip-path="url(#clip300)" style="stroke:#000000; stroke-linecap:round; stroke-linejoin:round; stroke-width:4; stroke-opacity:1; fill:none" points="1419.89,1234.58 1419.89,1215.68 "/>
<polyline clip-path="url(#clip300)" style="stroke:#000000; stroke-linecap:round; stroke-linejoin:round; stroke-width:4; stroke-opacity:1; fill:none" points="1715.7,1234.58 1715.7,1215.68 "/>
<polyline clip-path="url(#clip300)" style="stroke:#000000; stroke-linecap:round; stroke-linejoin:round; stroke-width:4; stroke-opacity:1; fill:none" points="2011.51,1234.58 2011.51,1215.68 "/>
<path clip-path="url(#clip300)" d="M206.108 1277.85 L235.784 1277.85 L235.784 1281.78 L206.108 1281.78 L206.108 1277.85 Z" fill="#000000" fill-rule="nonzero" fill-opacity="1" /><path clip-path="url(#clip300)" d="M260.043 1276.04 Q263.399 1276.76 265.274 1279.03 Q267.172 1281.3 267.172 1284.63 Q267.172 1289.74 263.654 1292.55 Q260.135 1295.35 253.654 1295.35 Q251.478 1295.35 249.163 1294.91 Q246.872 1294.49 244.418 1293.63 L244.418 1289.12 Q246.362 1290.25 248.677 1290.83 Q250.992 1291.41 253.515 1291.41 Q257.913 1291.41 260.205 1289.67 Q262.52 1287.94 262.52 1284.63 Q262.52 1281.57 260.367 1279.86 Q258.237 1278.12 254.418 1278.12 L250.39 1278.12 L250.39 1274.28 L254.603 1274.28 Q258.052 1274.28 259.881 1272.92 Q261.709 1271.53 261.709 1268.93 Q261.709 1266.27 259.811 1264.86 Q257.936 1263.42 254.418 1263.42 Q252.496 1263.42 250.297 1263.84 Q248.098 1264.26 245.459 1265.14 L245.459 1260.97 Q248.122 1260.23 250.436 1259.86 Q252.774 1259.49 254.834 1259.49 Q260.158 1259.49 263.26 1261.92 Q266.362 1264.33 266.362 1268.45 Q266.362 1271.32 264.719 1273.31 Q263.075 1275.28 260.043 1276.04 Z" fill="#000000" fill-rule="nonzero" fill-opacity="1" /><path clip-path="url(#clip300)" d="M502.394 1277.85 L532.07 1277.85 L532.07 1281.78 L502.394 1281.78 L502.394 1277.85 Z" fill="#000000" fill-rule="nonzero" fill-opacity="1" /><path clip-path="url(#clip300)" d="M546.19 1290.74 L562.509 1290.74 L562.509 1294.67 L540.565 1294.67 L540.565 1290.74 Q543.227 1287.99 547.81 1283.36 Q552.417 1278.7 553.597 1277.36 Q555.843 1274.84 556.722 1273.1 Q557.625 1271.34 557.625 1269.65 Q557.625 1266.9 555.681 1265.16 Q553.759 1263.42 550.658 1263.42 Q548.459 1263.42 546.005 1264.19 Q543.574 1264.95 540.797 1266.5 L540.797 1261.78 Q543.621 1260.65 546.074 1260.07 Q548.528 1259.49 550.565 1259.49 Q555.935 1259.49 559.13 1262.17 Q562.324 1264.86 562.324 1269.35 Q562.324 1271.48 561.514 1273.4 Q560.727 1275.3 558.621 1277.89 Q558.042 1278.56 554.94 1281.78 Q551.838 1284.98 546.19 1290.74 Z" fill="#000000" fill-rule="nonzero" fill-opacity="1" /><path clip-path="url(#clip300)" d="M798.02 1277.85 L827.696 1277.85 L827.696 1281.78 L798.02 1281.78 L798.02 1277.85 Z" fill="#000000" fill-rule="nonzero" fill-opacity="1" /><path clip-path="url(#clip300)" d="M838.599 1290.74 L846.238 1290.74 L846.238 1264.37 L837.928 1266.04 L837.928 1261.78 L846.191 1260.11 L850.867 1260.11 L850.867 1290.74 L858.506 1290.74 L858.506 1294.67 L838.599 1294.67 L838.599 1290.74 Z" fill="#000000" fill-rule="nonzero" fill-opacity="1" /><path clip-path="url(#clip300)" d="M1124.07 1263.19 Q1120.46 1263.19 1118.64 1266.76 Q1116.83 1270.3 1116.83 1277.43 Q1116.83 1284.54 1118.64 1288.1 Q1120.46 1291.64 1124.07 1291.64 Q1127.71 1291.64 1129.51 1288.1 Q1131.34 1284.54 1131.34 1277.43 Q1131.34 1270.3 1129.51 1266.76 Q1127.71 1263.19 1124.07 1263.19 M1124.07 1259.49 Q1129.89 1259.49 1132.94 1264.1 Q1136.02 1268.68 1136.02 1277.43 Q1136.02 1286.16 1132.94 1290.76 Q1129.89 1295.35 1124.07 1295.35 Q1118.26 1295.35 1115.19 1290.76 Q1112.13 1286.16 1112.13 1277.43 Q1112.13 1268.68 1115.19 1264.1 Q1118.26 1259.49 1124.07 1259.49 Z" fill="#000000" fill-rule="nonzero" fill-opacity="1" /><path clip-path="url(#clip300)" d="M1410.27 1290.74 L1417.91 1290.74 L1417.91 1264.37 L1409.6 1266.04 L1409.6 1261.78 L1417.86 1260.11 L1422.54 1260.11 L1422.54 1290.74 L1430.18 1290.74 L1430.18 1294.67 L1410.27 1294.67 L1410.27 1290.74 Z" fill="#000000" fill-rule="nonzero" fill-opacity="1" /><path clip-path="url(#clip300)" d="M1710.35 1290.74 L1726.67 1290.74 L1726.67 1294.67 L1704.73 1294.67 L1704.73 1290.74 Q1707.39 1287.99 1711.97 1283.36 Q1716.58 1278.7 1717.76 1277.36 Q1720 1274.84 1720.88 1273.1 Q1721.79 1271.34 1721.79 1269.65 Q1721.79 1266.9 1719.84 1265.16 Q1717.92 1263.42 1714.82 1263.42 Q1712.62 1263.42 1710.17 1264.19 Q1707.74 1264.95 1704.96 1266.5 L1704.96 1261.78 Q1707.78 1260.65 1710.24 1260.07 Q1712.69 1259.49 1714.73 1259.49 Q1720.1 1259.49 1723.29 1262.17 Q1726.49 1264.86 1726.49 1269.35 Q1726.49 1271.48 1725.67 1273.4 Q1724.89 1275.3 1722.78 1277.89 Q1722.2 1278.56 1719.1 1281.78 Q1716 1284.98 1710.35 1290.74 Z" fill="#000000" fill-rule="nonzero" fill-opacity="1" /><path clip-path="url(#clip300)" d="M2015.76 1276.04 Q2019.11 1276.76 2020.99 1279.03 Q2022.89 1281.3 2022.89 1284.63 Q2022.89 1289.74 2019.37 1292.55 Q2015.85 1295.35 2009.37 1295.35 Q2007.19 1295.35 2004.88 1294.91 Q2002.59 1294.49 2000.13 1293.63 L2000.13 1289.12 Q2002.08 1290.25 2004.39 1290.83 Q2006.71 1291.41 2009.23 1291.41 Q2013.63 1291.41 2015.92 1289.67 Q2018.23 1287.94 2018.23 1284.63 Q2018.23 1281.57 2016.08 1279.86 Q2013.95 1278.12 2010.13 1278.12 L2006.1 1278.12 L2006.1 1274.28 L2010.32 1274.28 Q2013.77 1274.28 2015.6 1272.92 Q2017.42 1271.53 2017.42 1268.93 Q2017.42 1266.27 2015.53 1264.86 Q2013.65 1263.42 2010.13 1263.42 Q2008.21 1263.42 2006.01 1263.84 Q2003.81 1264.26 2001.17 1265.14 L2001.17 1260.97 Q2003.84 1260.23 2006.15 1259.86 Q2008.49 1259.49 2010.55 1259.49 Q2015.87 1259.49 2018.98 1261.92 Q2022.08 1264.33 2022.08 1268.45 Q2022.08 1271.32 2020.43 1273.31 Q2018.79 1275.28 2015.76 1276.04 Z" fill="#000000" fill-rule="nonzero" fill-opacity="1" /><polyline clip-path="url(#clip302)" style="stroke:#000000; stroke-linecap:round; stroke-linejoin:round; stroke-width:2; stroke-opacity:0.1; fill:none" points="183.394,1202.53 2064.76,1202.53 "/>
<polyline clip-path="url(#clip302)" style="stroke:#000000; stroke-linecap:round; stroke-linejoin:round; stroke-width:2; stroke-opacity:0.1; fill:none" points="183.394,921.898 2064.76,921.898 "/>
<polyline clip-path="url(#clip302)" style="stroke:#000000; stroke-linecap:round; stroke-linejoin:round; stroke-width:2; stroke-opacity:0.1; fill:none" points="183.394,641.268 2064.76,641.268 "/>
<polyline clip-path="url(#clip302)" style="stroke:#000000; stroke-linecap:round; stroke-linejoin:round; stroke-width:2; stroke-opacity:0.1; fill:none" points="183.394,360.638 2064.76,360.638 "/>
<polyline clip-path="url(#clip302)" style="stroke:#000000; stroke-linecap:round; stroke-linejoin:round; stroke-width:2; stroke-opacity:0.1; fill:none" points="183.394,80.0082 2064.76,80.0082 "/>
<polyline clip-path="url(#clip300)" style="stroke:#000000; stroke-linecap:round; stroke-linejoin:round; stroke-width:4; stroke-opacity:1; fill:none" points="183.394,1234.58 183.394,47.2441 "/>
<polyline clip-path="url(#clip300)" style="stroke:#000000; stroke-linecap:round; stroke-linejoin:round; stroke-width:4; stroke-opacity:1; fill:none" points="183.394,1202.53 202.292,1202.53 "/>
<polyline clip-path="url(#clip300)" style="stroke:#000000; stroke-linecap:round; stroke-linejoin:round; stroke-width:4; stroke-opacity:1; fill:none" points="183.394,921.898 202.292,921.898 "/>
<polyline clip-path="url(#clip300)" style="stroke:#000000; stroke-linecap:round; stroke-linejoin:round; stroke-width:4; stroke-opacity:1; fill:none" points="183.394,641.268 202.292,641.268 "/>
<polyline clip-path="url(#clip300)" style="stroke:#000000; stroke-linecap:round; stroke-linejoin:round; stroke-width:4; stroke-opacity:1; fill:none" points="183.394,360.638 202.292,360.638 "/>
<polyline clip-path="url(#clip300)" style="stroke:#000000; stroke-linecap:round; stroke-linejoin:round; stroke-width:4; stroke-opacity:1; fill:none" points="183.394,80.0082 202.292,80.0082 "/>
<path clip-path="url(#clip300)" d="M64.3765 1188.33 Q60.7654 1188.33 58.9367 1191.89 Q57.1312 1195.43 57.1312 1202.56 Q57.1312 1209.67 58.9367 1213.23 Q60.7654 1216.78 64.3765 1216.78 Q68.0107 1216.78 69.8163 1213.23 Q71.645 1209.67 71.645 1202.56 Q71.645 1195.43 69.8163 1191.89 Q68.0107 1188.33 64.3765 1188.33 M64.3765 1184.62 Q70.1867 1184.62 73.2422 1189.23 Q76.3209 1193.81 76.3209 1202.56 Q76.3209 1211.29 73.2422 1215.9 Q70.1867 1220.48 64.3765 1220.48 Q58.5664 1220.48 55.4877 1215.9 Q52.4321 1211.29 52.4321 1202.56 Q52.4321 1193.81 55.4877 1189.23 Q58.5664 1184.62 64.3765 1184.62 Z" fill="#000000" fill-rule="nonzero" fill-opacity="1" /><path clip-path="url(#clip300)" d="M84.5384 1213.93 L89.4227 1213.93 L89.4227 1219.81 L84.5384 1219.81 L84.5384 1213.93 Z" fill="#000000" fill-rule="nonzero" fill-opacity="1" /><path clip-path="url(#clip300)" d="M109.608 1188.33 Q105.997 1188.33 104.168 1191.89 Q102.362 1195.43 102.362 1202.56 Q102.362 1209.67 104.168 1213.23 Q105.997 1216.78 109.608 1216.78 Q113.242 1216.78 115.048 1213.23 Q116.876 1209.67 116.876 1202.56 Q116.876 1195.43 115.048 1191.89 Q113.242 1188.33 109.608 1188.33 M109.608 1184.62 Q115.418 1184.62 118.473 1189.23 Q121.552 1193.81 121.552 1202.56 Q121.552 1211.29 118.473 1215.9 Q115.418 1220.48 109.608 1220.48 Q103.798 1220.48 100.719 1215.9 Q97.6634 1211.29 97.6634 1202.56 Q97.6634 1193.81 100.719 1189.23 Q103.798 1184.62 109.608 1184.62 Z" fill="#000000" fill-rule="nonzero" fill-opacity="1" /><path clip-path="url(#clip300)" d="M139.77 1188.33 Q136.159 1188.33 134.33 1191.89 Q132.524 1195.43 132.524 1202.56 Q132.524 1209.67 134.33 1213.23 Q136.159 1216.78 139.77 1216.78 Q143.404 1216.78 145.209 1213.23 Q147.038 1209.67 147.038 1202.56 Q147.038 1195.43 145.209 1191.89 Q143.404 1188.33 139.77 1188.33 M139.77 1184.62 Q145.58 1184.62 148.635 1189.23 Q151.714 1193.81 151.714 1202.56 Q151.714 1211.29 148.635 1215.9 Q145.58 1220.48 139.77 1220.48 Q133.959 1220.48 130.881 1215.9 Q127.825 1211.29 127.825 1202.56 Q127.825 1193.81 130.881 1189.23 Q133.959 1184.62 139.77 1184.62 Z" fill="#000000" fill-rule="nonzero" fill-opacity="1" /><path clip-path="url(#clip300)" d="M65.3719 907.697 Q61.7608 907.697 59.9321 911.261 Q58.1265 914.803 58.1265 921.933 Q58.1265 929.039 59.9321 932.604 Q61.7608 936.146 65.3719 936.146 Q69.0061 936.146 70.8117 932.604 Q72.6404 929.039 72.6404 921.933 Q72.6404 914.803 70.8117 911.261 Q69.0061 907.697 65.3719 907.697 M65.3719 903.993 Q71.182 903.993 74.2376 908.599 Q77.3163 913.183 77.3163 921.933 Q77.3163 930.66 74.2376 935.266 Q71.182 939.849 65.3719 939.849 Q59.5617 939.849 56.483 935.266 Q53.4275 930.66 53.4275 921.933 Q53.4275 913.183 56.483 908.599 Q59.5617 903.993 65.3719 903.993 Z" fill="#000000" fill-rule="nonzero" fill-opacity="1" /><path clip-path="url(#clip300)" d="M85.5338 933.298 L90.418 933.298 L90.418 939.178 L85.5338 939.178 L85.5338 933.298 Z" fill="#000000" fill-rule="nonzero" fill-opacity="1" /><path clip-path="url(#clip300)" d="M104.631 935.243 L120.95 935.243 L120.95 939.178 L99.006 939.178 L99.006 935.243 Q101.668 932.488 106.251 927.859 Q110.858 923.206 112.038 921.863 Q114.284 919.34 115.163 917.604 Q116.066 915.845 116.066 914.155 Q116.066 911.4 114.122 909.664 Q112.2 907.928 109.098 907.928 Q106.899 907.928 104.446 908.692 Q102.015 909.456 99.2374 911.007 L99.2374 906.285 Q102.061 905.15 104.515 904.572 Q106.969 903.993 109.006 903.993 Q114.376 903.993 117.571 906.678 Q120.765 909.363 120.765 913.854 Q120.765 915.984 119.955 917.905 Q119.168 919.803 117.061 922.396 Q116.483 923.067 113.381 926.285 Q110.279 929.479 104.631 935.243 Z" fill="#000000" fill-rule="nonzero" fill-opacity="1" /><path clip-path="url(#clip300)" d="M130.811 904.618 L149.168 904.618 L149.168 908.553 L135.094 908.553 L135.094 917.025 Q136.112 916.678 137.131 916.516 Q138.149 916.331 139.168 916.331 Q144.955 916.331 148.334 919.502 Q151.714 922.673 151.714 928.09 Q151.714 933.669 148.242 936.771 Q144.77 939.849 138.45 939.849 Q136.274 939.849 134.006 939.479 Q131.76 939.109 129.353 938.368 L129.353 933.669 Q131.436 934.803 133.659 935.359 Q135.881 935.914 138.358 935.914 Q142.362 935.914 144.7 933.808 Q147.038 931.701 147.038 928.09 Q147.038 924.479 144.7 922.373 Q142.362 920.266 138.358 920.266 Q136.483 920.266 134.608 920.683 Q132.756 921.099 130.811 921.979 L130.811 904.618 Z" fill="#000000" fill-rule="nonzero" fill-opacity="1" /><path clip-path="url(#clip300)" d="M64.3765 627.067 Q60.7654 627.067 58.9367 630.632 Q57.1312 634.173 57.1312 641.303 Q57.1312 648.409 58.9367 651.974 Q60.7654 655.516 64.3765 655.516 Q68.0107 655.516 69.8163 651.974 Q71.645 648.409 71.645 641.303 Q71.645 634.173 69.8163 630.632 Q68.0107 627.067 64.3765 627.067 M64.3765 623.363 Q70.1867 623.363 73.2422 627.97 Q76.3209 632.553 76.3209 641.303 Q76.3209 650.03 73.2422 654.636 Q70.1867 659.219 64.3765 659.219 Q58.5664 659.219 55.4877 654.636 Q52.4321 650.03 52.4321 641.303 Q52.4321 632.553 55.4877 627.97 Q58.5664 623.363 64.3765 623.363 Z" fill="#000000" fill-rule="nonzero" fill-opacity="1" /><path clip-path="url(#clip300)" d="M84.5384 652.668 L89.4227 652.668 L89.4227 658.548 L84.5384 658.548 L84.5384 652.668 Z" fill="#000000" fill-rule="nonzero" fill-opacity="1" /><path clip-path="url(#clip300)" d="M99.6541 623.988 L118.01 623.988 L118.01 627.923 L103.936 627.923 L103.936 636.395 Q104.955 636.048 105.974 635.886 Q106.992 635.701 108.011 635.701 Q113.798 635.701 117.177 638.872 Q120.557 642.044 120.557 647.46 Q120.557 653.039 117.085 656.141 Q113.612 659.219 107.293 659.219 Q105.117 659.219 102.849 658.849 Q100.603 658.479 98.1958 657.738 L98.1958 653.039 Q100.279 654.173 102.501 654.729 Q104.724 655.284 107.2 655.284 Q111.205 655.284 113.543 653.178 Q115.881 651.071 115.881 647.46 Q115.881 643.849 113.543 641.743 Q111.205 639.636 107.2 639.636 Q105.325 639.636 103.45 640.053 Q101.599 640.469 99.6541 641.349 L99.6541 623.988 Z" fill="#000000" fill-rule="nonzero" fill-opacity="1" /><path clip-path="url(#clip300)" d="M139.77 627.067 Q136.159 627.067 134.33 630.632 Q132.524 634.173 132.524 641.303 Q132.524 648.409 134.33 651.974 Q136.159 655.516 139.77 655.516 Q143.404 655.516 145.209 651.974 Q147.038 648.409 147.038 641.303 Q147.038 634.173 145.209 630.632 Q143.404 627.067 139.77 627.067 M139.77 623.363 Q145.58 623.363 148.635 627.97 Q151.714 632.553 151.714 641.303 Q151.714 650.03 148.635 654.636 Q145.58 659.219 139.77 659.219 Q133.959 659.219 130.881 654.636 Q127.825 650.03 127.825 641.303 Q127.825 632.553 130.881 627.97 Q133.959 623.363 139.77 623.363 Z" fill="#000000" fill-rule="nonzero" fill-opacity="1" /><path clip-path="url(#clip300)" d="M65.3719 346.437 Q61.7608 346.437 59.9321 350.002 Q58.1265 353.543 58.1265 360.673 Q58.1265 367.779 59.9321 371.344 Q61.7608 374.886 65.3719 374.886 Q69.0061 374.886 70.8117 371.344 Q72.6404 367.779 72.6404 360.673 Q72.6404 353.543 70.8117 350.002 Q69.0061 346.437 65.3719 346.437 M65.3719 342.733 Q71.182 342.733 74.2376 347.34 Q77.3163 351.923 77.3163 360.673 Q77.3163 369.4 74.2376 374.006 Q71.182 378.589 65.3719 378.589 Q59.5617 378.589 56.483 374.006 Q53.4275 369.4 53.4275 360.673 Q53.4275 351.923 56.483 347.34 Q59.5617 342.733 65.3719 342.733 Z" fill="#000000" fill-rule="nonzero" fill-opacity="1" /><path clip-path="url(#clip300)" d="M85.5338 372.039 L90.418 372.039 L90.418 377.918 L85.5338 377.918 L85.5338 372.039 Z" fill="#000000" fill-rule="nonzero" fill-opacity="1" /><path clip-path="url(#clip300)" d="M99.4226 343.358 L121.645 343.358 L121.645 345.349 L109.098 377.918 L104.214 377.918 L116.02 347.293 L99.4226 347.293 L99.4226 343.358 Z" fill="#000000" fill-rule="nonzero" fill-opacity="1" /><path clip-path="url(#clip300)" d="M130.811 343.358 L149.168 343.358 L149.168 347.293 L135.094 347.293 L135.094 355.765 Q136.112 355.418 137.131 355.256 Q138.149 355.071 139.168 355.071 Q144.955 355.071 148.334 358.242 Q151.714 361.414 151.714 366.83 Q151.714 372.409 148.242 375.511 Q144.77 378.589 138.45 378.589 Q136.274 378.589 134.006 378.219 Q131.76 377.849 129.353 377.108 L129.353 372.409 Q131.436 373.543 133.659 374.099 Q135.881 374.654 138.358 374.654 Q142.362 374.654 144.7 372.548 Q147.038 370.441 147.038 366.83 Q147.038 363.219 144.7 361.113 Q142.362 359.006 138.358 359.006 Q136.483 359.006 134.608 359.423 Q132.756 359.84 130.811 360.719 L130.811 343.358 Z" fill="#000000" fill-rule="nonzero" fill-opacity="1" /><path clip-path="url(#clip300)" d="M55.1867 93.3531 L62.8256 93.3531 L62.8256 66.9875 L54.5154 68.6541 L54.5154 64.3949 L62.7793 62.7282 L67.4552 62.7282 L67.4552 93.3531 L75.094 93.3531 L75.094 97.2882 L55.1867 97.2882 L55.1867 93.3531 Z" fill="#000000" fill-rule="nonzero" fill-opacity="1" /><path clip-path="url(#clip300)" d="M84.5384 91.4086 L89.4227 91.4086 L89.4227 97.2882 L84.5384 97.2882 L84.5384 91.4086 Z" fill="#000000" fill-rule="nonzero" fill-opacity="1" /><path clip-path="url(#clip300)" d="M109.608 65.8069 Q105.997 65.8069 104.168 69.3717 Q102.362 72.9134 102.362 80.043 Q102.362 87.1494 104.168 90.7142 Q105.997 94.2559 109.608 94.2559 Q113.242 94.2559 115.048 90.7142 Q116.876 87.1494 116.876 80.043 Q116.876 72.9134 115.048 69.3717 Q113.242 65.8069 109.608 65.8069 M109.608 62.1032 Q115.418 62.1032 118.473 66.7097 Q121.552 71.293 121.552 80.043 Q121.552 88.7698 118.473 93.3762 Q115.418 97.9595 109.608 97.9595 Q103.798 97.9595 100.719 93.3762 Q97.6634 88.7698 97.6634 80.043 Q97.6634 71.293 100.719 66.7097 Q103.798 62.1032 109.608 62.1032 Z" fill="#000000" fill-rule="nonzero" fill-opacity="1" /><path clip-path="url(#clip300)" d="M139.77 65.8069 Q136.159 65.8069 134.33 69.3717 Q132.524 72.9134 132.524 80.043 Q132.524 87.1494 134.33 90.7142 Q136.159 94.2559 139.77 94.2559 Q143.404 94.2559 145.209 90.7142 Q147.038 87.1494 147.038 80.043 Q147.038 72.9134 145.209 69.3717 Q143.404 65.8069 139.77 65.8069 M139.77 62.1032 Q145.58 62.1032 148.635 66.7097 Q151.714 71.293 151.714 80.043 Q151.714 88.7698 148.635 93.3762 Q145.58 97.9595 139.77 97.9595 Q133.959 97.9595 130.881 93.3762 Q127.825 88.7698 127.825 80.043 Q127.825 71.293 130.881 66.7097 Q133.959 62.1032 139.77 62.1032 Z" fill="#000000" fill-rule="nonzero" fill-opacity="1" /><polyline clip-path="url(#clip302)" style="stroke:#009af9; stroke-linecap:round; stroke-linejoin:round; stroke-width:4; stroke-opacity:1; fill:none" points="236.64,258.864 239.598,935.532 242.556,330.264 245.514,688.03 248.473,702.457 251.431,869.11 254.389,235.865 257.347,689.186 260.305,873.427 263.263,475.419 266.221,1023.87 269.179,784.43 272.137,1073.29 275.096,793.533 278.054,959.21 281.012,1140.47 283.97,877.107 286.928,1129.6 289.886,870.748 292.844,319.201 295.802,663.356 298.761,149.982 301.719,1200.97 304.677,440.757 307.635,553.371 310.593,85.5263 313.551,1040.91 316.509,517.654 319.467,971.409 322.425,780.642 325.384,1193.32 328.342,81.1498 331.3,690.894 334.258,1189.47 337.216,792.051 340.174,604.106 343.132,174.899 346.09,1160.66 349.049,640.655 352.007,380.715 354.965,1177.16 357.923,244.49 360.881,851.748 363.839,227.31 366.797,851.233 369.755,746.023 372.713,211.112 375.672,154.654 378.63,706.669 381.588,1128.96 384.546,975.366 387.504,319.359 390.462,587.101 393.42,131.887 396.378,470.974 399.336,422.902 402.295,749.512 405.253,996.831 408.211,855.612 411.169,852.258 414.127,1115.21 417.085,367.637 420.043,578.245 423.001,457.473 425.96,336.82 428.918,1074.31 431.876,1034.76 434.834,397.119 437.792,582.705 440.75,242.393 443.708,1036.06 446.666,937.193 449.624,450.96 452.583,1014.85 455.541,931.07 458.499,827.377 461.457,730.045 464.415,225.687 467.373,124.092 470.331,786.574 473.289,379.066 476.248,945.329 479.206,574.569 482.164,1139.86 485.122,1015.67 488.08,1025.32 491.038,848.079 493.996,350.261 496.954,675.004 499.912,447.449 502.871,354.028 505.829,1040.39 508.787,887.354 511.745,1140.52 514.703,111.623 517.661,158.279 520.619,488.392 523.577,343.782 526.535,156.904 529.494,749.766 532.452,717.963 535.41,1095.4 538.368,740.258 541.326,526.992 544.284,802.055 547.242,709.752 550.2,200.187 553.159,968.618 556.117,760.847 559.075,352.175 562.033,158.096 564.991,764.948 567.949,1146.72 570.907,143.409 573.865,299.799 576.823,596.365 579.782,160.242 582.74,401.865 585.698,135.909 588.656,1079.71 591.614,801.95 594.572,165.923 597.53,224.419 600.488,1144.75 603.447,177.344 606.405,95.4347 609.363,1172.4 612.321,401.131 615.279,294.253 618.237,186.159 621.195,649.539 624.153,167.493 627.111,571.431 630.07,595.768 633.028,129.93 635.986,559.626 638.944,1106.16 641.902,823.072 644.86,287.233 647.818,181.617 650.776,1191.96 653.734,446.338 656.693,1043.6 659.651,1179.93 662.609,604.354 665.567,518.175 668.525,1169.59 671.483,121.631 674.441,587.607 677.399,443.702 680.358,1060.42 683.316,1060.16 686.274,1069.56 689.232,265.597 692.19,975.915 695.148,1144.49 698.106,1075.47 701.064,1180.56 704.022,544.795 706.981,170.595 709.939,613.447 712.897,515.392 715.855,299.251 718.813,119.513 721.771,637.159 724.729,191.564 727.687,335.815 730.645,1018.14 733.604,570.794 736.562,177.748 739.52,975.148 742.478,496.844 745.436,731.192 748.394,608.706 751.352,886.339 754.31,654.215 757.269,383.635 760.227,930.311 763.185,861.923 766.143,1049.75 769.101,516.954 772.059,807.052 775.017,490.412 777.975,191.641 780.933,1069 783.892,660.108 786.85,396.336 789.808,1095.77 792.766,345.021 795.724,776.975 798.682,95.9195 801.64,372.98 804.598,517.011 807.557,891.486 810.515,557.058 813.473,454.3 816.431,1145.98 819.389,934.283 822.347,923.442 825.305,646.098 828.263,410.767 831.221,1016.46 834.18,270.206 837.138,1167.05 840.096,390.075 843.054,513.391 846.012,680.781 848.97,1041.06 851.928,402.323 854.886,486.658 857.844,723.114 860.803,1138.26 863.761,793.83 866.719,857.688 869.677,972.154 872.635,838.196 875.593,127.193 878.551,543.212 881.509,120.88 884.468,1071.62 887.426,974.462 890.384,138.99 893.342,1069.86 896.3,513.328 899.258,162.676 902.216,274.611 905.174,799.679 908.132,458.209 911.091,601.586 914.049,328.823 917.007,1094.71 919.965,240.887 922.923,1173.85 925.881,704.151 928.839,702.428 931.797,464.989 934.756,186.294 937.714,1088.9 940.672,379.442 943.63,366.98 946.588,163.713 949.546,287.645 952.504,645.063 955.462,224.278 958.42,451.843 961.379,717.098 964.337,921.245 967.295,160.065 970.253,422.159 973.211,703.124 976.169,216.57 979.127,661.752 982.085,330.975 985.043,452.809 988.002,141.553 990.96,133.238 993.918,1065.73 996.876,892.076 999.834,197.825 1002.79,1042.67 1005.75,807.827 1008.71,1064.42 1011.67,969.908 1014.62,206.035 1017.58,1068.19 1020.54,685.804 1023.5,951.376 1026.46,996.024 1029.42,1057.26 1032.37,1072.39 1035.33,875.537 1038.29,220.919 1041.25,173.73 1044.21,1126.09 1047.16,983.729 1050.12,616.718 1053.08,557.94 1056.04,318.189 1059,689.3 1061.95,717.873 1064.91,841.564 1067.87,1021.07 1070.83,96.852 1073.79,1070.81 1076.75,146.464 1079.7,408.04 1082.66,681.448 1085.62,291.12 1088.58,894.079 1091.54,434.166 1094.49,1096.59 1097.45,844.993 1100.41,754.455 1103.37,166.041 1106.33,564.569 1109.28,637.548 1112.24,597.502 1115.2,626.287 1118.16,1056.55 1121.12,80.8479 1124.07,571.339 1127.03,403.566 1129.99,893.049 1132.95,1129.67 1135.91,634.426 1138.87,399.459 1141.82,972.602 1144.78,765.73 1147.74,793.063 1150.7,115.062 1153.66,522.54 1156.61,168.787 1159.57,735.954 1162.53,467.61 1165.49,561.067 1168.45,1200.22 1171.4,1019.69 1174.36,574.461 1177.32,1005.65 1180.28,465.508 1183.24,514.708 1186.2,520.86 1189.15,384.611 1192.11,250.275 1195.07,352.668 1198.03,253.987 1200.99,266.54 1203.94,1054.22 1206.9,345.656 1209.86,1102.24 1212.82,222.215 1215.78,351.974 1218.73,644.571 1221.69,868.141 1224.65,91.9623 1227.61,1118.11 1230.57,999.309 1233.53,195.306 1236.48,930.806 1239.44,602.736 1242.4,682.467 1245.36,291.319 1248.32,537.79 1251.27,891.742 1254.23,458.298 1257.19,1051.16 1260.15,539.961 1263.11,586.333 1266.06,616.09 1269.02,133.586 1271.98,660.382 1274.94,875.368 1277.9,686.118 1280.86,416.374 1283.81,895.911 1286.77,765.951 1289.73,649.569 1292.69,627.807 1295.65,801.933 1298.6,558.089 1301.56,333.796 1304.52,792.823 1307.48,711.397 1310.44,591.331 1313.39,341.313 1316.35,339.133 1319.31,948.264 1322.27,960.389 1325.23,102.627 1328.18,256.689 1331.14,1024.65 1334.1,955.879 1337.06,1012.98 1340.02,1021 1342.98,569.002 1345.93,89.6639 1348.89,561.392 1351.85,559.026 1354.81,321.188 1357.77,320.959 1360.72,926.651 1363.68,572.564 1366.64,977.679 1369.6,331.488 1372.56,956.462 1375.51,628.149 1378.47,468.793 1381.43,719.089 1384.39,1048.93 1387.35,576.883 1390.31,971.769 1393.26,953.898 1396.22,835.373 1399.18,776.239 1402.14,619.294 1405.1,826.606 1408.05,227.045 1411.01,899.836 1413.97,454.265 1416.93,946.691 1419.89,885.47 1422.84,698.357 1425.8,290.839 1428.76,287.112 1431.72,438.022 1434.68,104.958 1437.64,1151.56 1440.59,1128.99 1443.55,468.209 1446.51,421.029 1449.47,1120.1 1452.43,438.074 1455.38,1148.9 1458.34,518.999 1461.3,844.263 1464.26,557.613 1467.22,1046.96 1470.17,134.964 1473.13,474.694 1476.09,94.1545 1479.05,118.008 1482.01,148.173 1484.97,523.87 1487.92,907.889 1490.88,454.535 1493.84,85.0035 1496.8,638.357 1499.76,363.714 1502.71,191.601 1505.67,554.81 1508.63,187.073 1511.59,1118.89 1514.55,814.936 1517.5,789.279 1520.46,336.13 1523.42,825.619 1526.38,1036.02 1529.34,550.373 1532.29,1038.75 1535.25,539.385 1538.21,92.2884 1541.17,1074.47 1544.13,660.203 1547.09,882.431 1550.04,394.126 1553,626.039 1555.96,753.707 1558.92,323.154 1561.88,765.629 1564.83,715.103 1567.79,715.253 1570.75,936.066 1573.71,506.765 1576.67,289.991 1579.62,109.497 1582.58,549.131 1585.54,675.232 1588.5,1067.93 1591.46,1110.89 1594.42,875.673 1597.37,554.795 1600.33,933.96 1603.29,1166.63 1606.25,690.154 1609.21,631.48 1612.16,148.939 1615.12,1018.31 1618.08,314.83 1621.04,89.6941 1624,519.625 1626.95,351.917 1629.91,508.138 1632.87,666.678 1635.83,598.318 1638.79,922.483 1641.75,231.944 1644.7,835.508 1647.66,948.159 1650.62,1146.51 1653.58,919.413 1656.54,633.855 1659.49,362.215 1662.45,824.937 1665.41,216.06 1668.37,239.467 1671.33,781.788 1674.28,1113.57 1677.24,293.316 1680.2,296.347 1683.16,314.267 1686.12,791.315 1689.08,760.084 1692.03,414.556 1694.99,636.123 1697.95,1092.65 1700.91,644.236 1703.87,440.176 1706.82,179.996 1709.78,253.586 1712.74,285.744 1715.7,155.237 1718.66,965.964 1721.61,933.394 1724.57,953.027 1727.53,438.83 1730.49,874.666 1733.45,159.456 1736.41,1185.51 1739.36,1072.16 1742.32,224.906 1745.28,317.203 1748.24,361.457 1751.2,310.041 1754.15,158.018 1757.11,772.024 1760.07,763.411 1763.03,544.559 1765.99,304.667 1768.94,549.169 1771.9,924.92 1774.86,284.636 1777.82,845.874 1780.78,1161 1783.73,601.784 1786.69,1134.17 1789.65,1029.3 1792.61,448.721 1795.57,140.662 1798.53,118.416 1801.48,391.482 1804.44,338.461 1807.4,488.413 1810.36,486.263 1813.32,1146.63 1816.27,550.266 1819.23,242.164 1822.19,213.363 1825.15,867.502 1828.11,98.8529 1831.06,914.513 1834.02,896.814 1836.98,496.533 1839.94,736.931 1842.9,884.557 1845.86,1185.92 1848.81,934.287 1851.77,318.548 1854.73,1067.6 1857.69,617.36 1860.65,1199.35 1863.6,635.354 1866.56,328.8 1869.52,588.028 1872.48,952.176 1875.44,815.64 1878.39,470.669 1881.35,936.087 1884.31,204.83 1887.27,658.653 1890.23,354.115 1893.19,185.888 1896.14,1084.95 1899.1,580.904 1902.06,185.634 1905.02,454.522 1907.98,1003.04 1910.93,141.1 1913.89,468.873 1916.85,605.79 1919.81,1139.33 1922.77,232.245 1925.72,882.105 1928.68,859.814 1931.64,1129.99 1934.6,845.087 1937.56,179.547 1940.52,718.495 1943.47,550.771 1946.43,1115.05 1949.39,227.017 1952.35,905.188 1955.31,610.829 1958.26,126.199 1961.22,489.073 1964.18,186.441 1967.14,482.175 1970.1,623.926 1973.05,330.531 1976.01,936.707 1978.97,1006.51 1981.93,1079.6 1984.89,432.704 1987.84,650.844 1990.8,621.659 1993.76,1027.94 1996.72,1155.58 1999.68,492.589 2002.64,168.148 2005.59,1003.68 2008.55,589.038 2011.51,203.073 "/>
<path clip-path="url(#clip300)" d="M1761.48 1195 L2002.04 1195 L2002.04 1091.32 L1761.48 1091.32  Z" fill="#ffffff" fill-rule="evenodd" fill-opacity="1"/>
<polyline clip-path="url(#clip300)" style="stroke:#000000; stroke-linecap:round; stroke-linejoin:round; stroke-width:4; stroke-opacity:1; fill:none" points="1761.48,1195 2002.04,1195 2002.04,1091.32 1761.48,1091.32 1761.48,1195 "/>
<polyline clip-path="url(#clip300)" style="stroke:#009af9; stroke-linecap:round; stroke-linejoin:round; stroke-width:4; stroke-opacity:1; fill:none" points="1782.38,1143.16 1907.81,1143.16 "/>
<path clip-path="url(#clip300)" d="M1942.55 1162.85 Q1940.75 1167.48 1939.03 1168.89 Q1937.32 1170.3 1934.45 1170.3 L1931.05 1170.3 L1931.05 1166.74 L1933.55 1166.74 Q1935.31 1166.74 1936.28 1165.9 Q1937.25 1165.07 1938.43 1161.97 L1939.2 1160.02 L1928.71 1134.52 L1933.22 1134.52 L1941.33 1154.79 L1949.43 1134.52 L1953.94 1134.52 L1942.55 1162.85 Z" fill="#000000" fill-rule="nonzero" fill-opacity="1" /><path clip-path="url(#clip300)" d="M1961.23 1156.51 L1968.87 1156.51 L1968.87 1130.14 L1960.56 1131.81 L1960.56 1127.55 L1968.83 1125.88 L1973.5 1125.88 L1973.5 1156.51 L1981.14 1156.51 L1981.14 1160.44 L1961.23 1160.44 L1961.23 1156.51 Z" fill="#000000" fill-rule="nonzero" fill-opacity="1" /></svg>
