<?xml version="1.0" encoding="utf-8"?>
<svg xmlns="http://www.w3.org/2000/svg" xmlns:xlink="http://www.w3.org/1999/xlink" width="528" height="336" viewBox="0 0 2112 1344">
<defs>
  <clipPath id="clip330">
    <rect x="0" y="0" width="2112" height="1344"/>
  </clipPath>
</defs>
<path clip-path="url(#clip330)" d="M0 1344 L2112 1344 L2112 0 L0 0  Z" fill="#ffffff" fill-rule="evenodd" fill-opacity="1"/>
<defs>
  <clipPath id="clip331">
    <rect x="422" y="0" width="1479" height="1344"/>
  </clipPath>
</defs>
<path clip-path="url(#clip330)" d="M167.977 1234.58 L2064.76 1234.58 L2064.76 47.2441 L167.977 47.2441  Z" fill="#ffffff" fill-rule="evenodd" fill-opacity="1"/>
<defs>
  <clipPath id="clip332">
    <rect x="167" y="47" width="1898" height="1188"/>
  </clipPath>
</defs>
<polyline clip-path="url(#clip332)" style="stroke:#000000; stroke-linecap:round; stroke-linejoin:round; stroke-width:2; stroke-opacity:0.1; fill:none" points="221.66,1234.58 221.66,47.2441 "/>
<polyline clip-path="url(#clip332)" style="stroke:#000000; stroke-linecap:round; stroke-linejoin:round; stroke-width:2; stroke-opacity:0.1; fill:none" points="519.895,1234.58 519.895,47.2441 "/>
<polyline clip-path="url(#clip332)" style="stroke:#000000; stroke-linecap:round; stroke-linejoin:round; stroke-width:2; stroke-opacity:0.1; fill:none" points="818.131,1234.58 818.131,47.2441 "/>
<polyline clip-path="url(#clip332)" style="stroke:#000000; stroke-linecap:round; stroke-linejoin:round; stroke-width:2; stroke-opacity:0.1; fill:none" points="1116.37,1234.58 1116.37,47.2441 "/>
<polyline clip-path="url(#clip332)" style="stroke:#000000; stroke-linecap:round; stroke-linejoin:round; stroke-width:2; stroke-opacity:0.1; fill:none" points="1414.6,1234.58 1414.6,47.2441 "/>
<polyline clip-path="url(#clip332)" style="stroke:#000000; stroke-linecap:round; stroke-linejoin:round; stroke-width:2; stroke-opacity:0.1; fill:none" points="1712.84,1234.58 1712.84,47.2441 "/>
<polyline clip-path="url(#clip332)" style="stroke:#000000; stroke-linecap:round; stroke-linejoin:round; stroke-width:2; stroke-opacity:0.1; fill:none" points="2011.07,1234.58 2011.07,47.2441 "/>
<polyline clip-path="url(#clip330)" style="stroke:#000000; stroke-linecap:round; stroke-linejoin:round; stroke-width:4; stroke-opacity:1; fill:none" points="167.977,1234.58 2064.76,1234.58 "/>
<polyline clip-path="url(#clip330)" style="stroke:#000000; stroke-linecap:round; stroke-linejoin:round; stroke-width:4; stroke-opacity:1; fill:none" points="221.66,1234.58 221.66,1215.68 "/>
<polyline clip-path="url(#clip330)" style="stroke:#000000; stroke-linecap:round; stroke-linejoin:round; stroke-width:4; stroke-opacity:1; fill:none" points="519.895,1234.58 519.895,1215.68 "/>
<polyline clip-path="url(#clip330)" style="stroke:#000000; stroke-linecap:round; stroke-linejoin:round; stroke-width:4; stroke-opacity:1; fill:none" points="818.131,1234.58 818.131,1215.68 "/>
<polyline clip-path="url(#clip330)" style="stroke:#000000; stroke-linecap:round; stroke-linejoin:round; stroke-width:4; stroke-opacity:1; fill:none" points="1116.37,1234.58 1116.37,1215.68 "/>
<polyline clip-path="url(#clip330)" style="stroke:#000000; stroke-linecap:round; stroke-linejoin:round; stroke-width:4; stroke-opacity:1; fill:none" points="1414.6,1234.58 1414.6,1215.68 "/>
<polyline clip-path="url(#clip330)" style="stroke:#000000; stroke-linecap:round; stroke-linejoin:round; stroke-width:4; stroke-opacity:1; fill:none" points="1712.84,1234.58 1712.84,1215.68 "/>
<polyline clip-path="url(#clip330)" style="stroke:#000000; stroke-linecap:round; stroke-linejoin:round; stroke-width:4; stroke-opacity:1; fill:none" points="2011.07,1234.58 2011.07,1215.68 "/>
<path clip-path="url(#clip330)" d="M191.128 1277.85 L220.803 1277.85 L220.803 1281.78 L191.128 1281.78 L191.128 1277.85 Z" fill="#000000" fill-rule="nonzero" fill-opacity="1" /><path clip-path="url(#clip330)" d="M245.062 1276.04 Q248.419 1276.76 250.294 1279.03 Q252.192 1281.3 252.192 1284.63 Q252.192 1289.74 248.674 1292.55 Q245.155 1295.35 238.674 1295.35 Q236.498 1295.35 234.183 1294.91 Q231.891 1294.49 229.438 1293.63 L229.438 1289.12 Q231.382 1290.25 233.697 1290.83 Q236.012 1291.41 238.535 1291.41 Q242.933 1291.41 245.225 1289.67 Q247.539 1287.94 247.539 1284.63 Q247.539 1281.57 245.387 1279.86 Q243.257 1278.12 239.438 1278.12 L235.41 1278.12 L235.41 1274.28 L239.623 1274.28 Q243.072 1274.28 244.9 1272.92 Q246.729 1271.53 246.729 1268.93 Q246.729 1266.27 244.831 1264.86 Q242.956 1263.42 239.438 1263.42 Q237.516 1263.42 235.317 1263.84 Q233.118 1264.26 230.479 1265.14 L230.479 1260.97 Q233.141 1260.23 235.456 1259.86 Q237.794 1259.49 239.854 1259.49 Q245.178 1259.49 248.28 1261.92 Q251.382 1264.33 251.382 1268.45 Q251.382 1271.32 249.738 1273.31 Q248.095 1275.28 245.062 1276.04 Z" fill="#000000" fill-rule="nonzero" fill-opacity="1" /><path clip-path="url(#clip330)" d="M489.838 1277.85 L519.513 1277.85 L519.513 1281.78 L489.838 1281.78 L489.838 1277.85 Z" fill="#000000" fill-rule="nonzero" fill-opacity="1" /><path clip-path="url(#clip330)" d="M533.634 1290.74 L549.953 1290.74 L549.953 1294.67 L528.009 1294.67 L528.009 1290.74 Q530.671 1287.99 535.254 1283.36 Q539.861 1278.7 541.041 1277.36 Q543.287 1274.84 544.166 1273.1 Q545.069 1271.34 545.069 1269.65 Q545.069 1266.9 543.124 1265.16 Q541.203 1263.42 538.101 1263.42 Q535.902 1263.42 533.449 1264.19 Q531.018 1264.95 528.24 1266.5 L528.24 1261.78 Q531.064 1260.65 533.518 1260.07 Q535.972 1259.49 538.009 1259.49 Q543.379 1259.49 546.574 1262.17 Q549.768 1264.86 549.768 1269.35 Q549.768 1271.48 548.958 1273.4 Q548.171 1275.3 546.064 1277.89 Q545.486 1278.56 542.384 1281.78 Q539.282 1284.98 533.634 1290.74 Z" fill="#000000" fill-rule="nonzero" fill-opacity="1" /><path clip-path="url(#clip330)" d="M787.888 1277.85 L817.564 1277.85 L817.564 1281.78 L787.888 1281.78 L787.888 1277.85 Z" fill="#000000" fill-rule="nonzero" fill-opacity="1" /><path clip-path="url(#clip330)" d="M828.467 1290.74 L836.105 1290.74 L836.105 1264.37 L827.795 1266.04 L827.795 1261.78 L836.059 1260.11 L840.735 1260.11 L840.735 1290.74 L848.374 1290.74 L848.374 1294.67 L828.467 1294.67 L828.467 1290.74 Z" fill="#000000" fill-rule="nonzero" fill-opacity="1" /><path clip-path="url(#clip330)" d="M1116.37 1263.19 Q1112.76 1263.19 1110.93 1266.76 Q1109.12 1270.3 1109.12 1277.43 Q1109.12 1284.54 1110.93 1288.1 Q1112.76 1291.64 1116.37 1291.64 Q1120 1291.64 1121.81 1288.1 Q1123.64 1284.54 1123.64 1277.43 Q1123.64 1270.3 1121.81 1266.76 Q1120 1263.19 1116.37 1263.19 M1116.37 1259.49 Q1122.18 1259.49 1125.23 1264.1 Q1128.31 1268.68 1128.31 1277.43 Q1128.31 1286.16 1125.23 1290.76 Q1122.18 1295.35 1116.37 1295.35 Q1110.56 1295.35 1107.48 1290.76 Q1104.42 1286.16 1104.42 1277.43 Q1104.42 1268.68 1107.48 1264.1 Q1110.56 1259.49 1116.37 1259.49 Z" fill="#000000" fill-rule="nonzero" fill-opacity="1" /><path clip-path="url(#clip330)" d="M1404.98 1290.74 L1412.62 1290.74 L1412.62 1264.37 L1404.31 1266.04 L1404.31 1261.78 L1412.58 1260.11 L1417.25 1260.11 L1417.25 1290.74 L1424.89 1290.74 L1424.89 1294.67 L1404.98 1294.67 L1404.98 1290.74 Z" fill="#000000" fill-rule="nonzero" fill-opacity="1" /><path clip-path="url(#clip330)" d="M1707.49 1290.74 L1723.81 1290.74 L1723.81 1294.67 L1701.87 1294.67 L1701.87 1290.74 Q1704.53 1287.99 1709.11 1283.36 Q1713.72 1278.7 1714.9 1277.36 Q1717.14 1274.84 1718.02 1273.1 Q1718.93 1271.34 1718.93 1269.65 Q1718.93 1266.9 1716.98 1265.16 Q1715.06 1263.42 1711.96 1263.42 Q1709.76 1263.42 1707.31 1264.19 Q1704.87 1264.95 1702.1 1266.5 L1702.1 1261.78 Q1704.92 1260.65 1707.37 1260.07 Q1709.83 1259.49 1711.87 1259.49 Q1717.24 1259.49 1720.43 1262.17 Q1723.62 1264.86 1723.62 1269.35 Q1723.62 1271.48 1722.81 1273.4 Q1722.03 1275.3 1719.92 1277.89 Q1719.34 1278.56 1716.24 1281.78 Q1713.14 1284.98 1707.49 1290.74 Z" fill="#000000" fill-rule="nonzero" fill-opacity="1" /><path clip-path="url(#clip330)" d="M2015.32 1276.04 Q2018.68 1276.76 2020.55 1279.03 Q2022.45 1281.3 2022.45 1284.63 Q2022.45 1289.74 2018.93 1292.55 Q2015.41 1295.35 2008.93 1295.35 Q2006.76 1295.35 2004.44 1294.91 Q2002.15 1294.49 1999.7 1293.63 L1999.7 1289.12 Q2001.64 1290.25 2003.96 1290.83 Q2006.27 1291.41 2008.79 1291.41 Q2013.19 1291.41 2015.48 1289.67 Q2017.8 1287.94 2017.8 1284.63 Q2017.8 1281.57 2015.65 1279.86 Q2013.52 1278.12 2009.7 1278.12 L2005.67 1278.12 L2005.67 1274.28 L2009.88 1274.28 Q2013.33 1274.28 2015.16 1272.92 Q2016.99 1271.53 2016.99 1268.93 Q2016.99 1266.27 2015.09 1264.86 Q2013.21 1263.42 2009.7 1263.42 Q2007.77 1263.42 2005.58 1263.84 Q2003.38 1264.26 2000.74 1265.14 L2000.74 1260.97 Q2003.4 1260.23 2005.71 1259.86 Q2008.05 1259.49 2010.11 1259.49 Q2015.44 1259.49 2018.54 1261.92 Q2021.64 1264.33 2021.64 1268.45 Q2021.64 1271.32 2020 1273.31 Q2018.35 1275.28 2015.32 1276.04 Z" fill="#000000" fill-rule="nonzero" fill-opacity="1" /><polyline clip-path="url(#clip332)" style="stroke:#000000; stroke-linecap:round; stroke-linejoin:round; stroke-width:2; stroke-opacity:0.1; fill:none" points="167.977,1202.45 2064.76,1202.45 "/>
<polyline clip-path="url(#clip332)" style="stroke:#000000; stroke-linecap:round; stroke-linejoin:round; stroke-width:2; stroke-opacity:0.1; fill:none" points="167.977,829.081 2064.76,829.081 "/>
<polyline clip-path="url(#clip332)" style="stroke:#000000; stroke-linecap:round; stroke-linejoin:round; stroke-width:2; stroke-opacity:0.1; fill:none" points="167.977,455.715 2064.76,455.715 "/>
<polyline clip-path="url(#clip332)" style="stroke:#000000; stroke-linecap:round; stroke-linejoin:round; stroke-width:2; stroke-opacity:0.1; fill:none" points="167.977,82.349 2064.76,82.349 "/>
<polyline clip-path="url(#clip330)" style="stroke:#000000; stroke-linecap:round; stroke-linejoin:round; stroke-width:4; stroke-opacity:1; fill:none" points="167.977,1234.58 167.977,47.2441 "/>
<polyline clip-path="url(#clip330)" style="stroke:#000000; stroke-linecap:round; stroke-linejoin:round; stroke-width:4; stroke-opacity:1; fill:none" points="167.977,1202.45 186.875,1202.45 "/>
<polyline clip-path="url(#clip330)" style="stroke:#000000; stroke-linecap:round; stroke-linejoin:round; stroke-width:4; stroke-opacity:1; fill:none" points="167.977,829.081 186.875,829.081 "/>
<polyline clip-path="url(#clip330)" style="stroke:#000000; stroke-linecap:round; stroke-linejoin:round; stroke-width:4; stroke-opacity:1; fill:none" points="167.977,455.715 186.875,455.715 "/>
<polyline clip-path="url(#clip330)" style="stroke:#000000; stroke-linecap:round; stroke-linejoin:round; stroke-width:4; stroke-opacity:1; fill:none" points="167.977,82.349 186.875,82.349 "/>
<path clip-path="url(#clip330)" d="M124.353 1188.25 Q120.742 1188.25 118.913 1191.81 Q117.108 1195.35 117.108 1202.48 Q117.108 1209.59 118.913 1213.15 Q120.742 1216.69 124.353 1216.69 Q127.987 1216.69 129.793 1213.15 Q131.622 1209.59 131.622 1202.48 Q131.622 1195.35 129.793 1191.81 Q127.987 1188.25 124.353 1188.25 M124.353 1184.54 Q130.163 1184.54 133.219 1189.15 Q136.297 1193.73 136.297 1202.48 Q136.297 1211.21 133.219 1215.81 Q130.163 1220.4 124.353 1220.4 Q118.543 1220.4 115.464 1215.81 Q112.409 1211.21 112.409 1202.48 Q112.409 1193.73 115.464 1189.15 Q118.543 1184.54 124.353 1184.54 Z" fill="#000000" fill-rule="nonzero" fill-opacity="1" /><path clip-path="url(#clip330)" d="M54.8395 842.425 L62.4784 842.425 L62.4784 816.06 L54.1682 817.726 L54.1682 813.467 L62.4321 811.801 L67.108 811.801 L67.108 842.425 L74.7468 842.425 L74.7468 846.361 L54.8395 846.361 L54.8395 842.425 Z" fill="#000000" fill-rule="nonzero" fill-opacity="1" /><path clip-path="url(#clip330)" d="M94.1912 814.879 Q90.5801 814.879 88.7514 818.444 Q86.9458 821.986 86.9458 829.115 Q86.9458 836.222 88.7514 839.787 Q90.5801 843.328 94.1912 843.328 Q97.8254 843.328 99.6309 839.787 Q101.46 836.222 101.46 829.115 Q101.46 821.986 99.6309 818.444 Q97.8254 814.879 94.1912 814.879 M94.1912 811.176 Q100.001 811.176 103.057 815.782 Q106.136 820.365 106.136 829.115 Q106.136 837.842 103.057 842.449 Q100.001 847.032 94.1912 847.032 Q88.381 847.032 85.3023 842.449 Q82.2468 837.842 82.2468 829.115 Q82.2468 820.365 85.3023 815.782 Q88.381 811.176 94.1912 811.176 Z" fill="#000000" fill-rule="nonzero" fill-opacity="1" /><path clip-path="url(#clip330)" d="M124.353 814.879 Q120.742 814.879 118.913 818.444 Q117.108 821.986 117.108 829.115 Q117.108 836.222 118.913 839.787 Q120.742 843.328 124.353 843.328 Q127.987 843.328 129.793 839.787 Q131.622 836.222 131.622 829.115 Q131.622 821.986 129.793 818.444 Q127.987 814.879 124.353 814.879 M124.353 811.176 Q130.163 811.176 133.219 815.782 Q136.297 820.365 136.297 829.115 Q136.297 837.842 133.219 842.449 Q130.163 847.032 124.353 847.032 Q118.543 847.032 115.464 842.449 Q112.409 837.842 112.409 829.115 Q112.409 820.365 115.464 815.782 Q118.543 811.176 124.353 811.176 Z" fill="#000000" fill-rule="nonzero" fill-opacity="1" /><path clip-path="url(#clip330)" d="M58.0571 469.06 L74.3765 469.06 L74.3765 472.995 L52.4321 472.995 L52.4321 469.06 Q55.0941 466.305 59.6775 461.675 Q64.2839 457.023 65.4645 455.68 Q67.7098 453.157 68.5894 451.421 Q69.4922 449.662 69.4922 447.972 Q69.4922 445.217 67.5478 443.481 Q65.6265 441.745 62.5247 441.745 Q60.3256 441.745 57.8719 442.509 Q55.4414 443.273 52.6636 444.824 L52.6636 440.101 Q55.4877 438.967 57.9414 438.388 Q60.395 437.81 62.4321 437.81 Q67.8024 437.81 70.9968 440.495 Q74.1913 443.18 74.1913 447.671 Q74.1913 449.8 73.3811 451.722 Q72.5941 453.62 70.4876 456.212 Q69.9089 456.884 66.807 460.101 Q63.7052 463.296 58.0571 469.06 Z" fill="#000000" fill-rule="nonzero" fill-opacity="1" /><path clip-path="url(#clip330)" d="M94.1912 441.513 Q90.5801 441.513 88.7514 445.078 Q86.9458 448.62 86.9458 455.75 Q86.9458 462.856 88.7514 466.421 Q90.5801 469.962 94.1912 469.962 Q97.8254 469.962 99.6309 466.421 Q101.46 462.856 101.46 455.75 Q101.46 448.62 99.6309 445.078 Q97.8254 441.513 94.1912 441.513 M94.1912 437.81 Q100.001 437.81 103.057 442.416 Q106.136 447 106.136 455.75 Q106.136 464.476 103.057 469.083 Q100.001 473.666 94.1912 473.666 Q88.381 473.666 85.3023 469.083 Q82.2468 464.476 82.2468 455.75 Q82.2468 447 85.3023 442.416 Q88.381 437.81 94.1912 437.81 Z" fill="#000000" fill-rule="nonzero" fill-opacity="1" /><path clip-path="url(#clip330)" d="M124.353 441.513 Q120.742 441.513 118.913 445.078 Q117.108 448.62 117.108 455.75 Q117.108 462.856 118.913 466.421 Q120.742 469.962 124.353 469.962 Q127.987 469.962 129.793 466.421 Q131.622 462.856 131.622 455.75 Q131.622 448.62 129.793 445.078 Q127.987 441.513 124.353 441.513 M124.353 437.81 Q130.163 437.81 133.219 442.416 Q136.297 447 136.297 455.75 Q136.297 464.476 133.219 469.083 Q130.163 473.666 124.353 473.666 Q118.543 473.666 115.464 469.083 Q112.409 464.476 112.409 455.75 Q112.409 447 115.464 442.416 Q118.543 437.81 124.353 437.81 Z" fill="#000000" fill-rule="nonzero" fill-opacity="1" /><path clip-path="url(#clip330)" d="M68.1959 80.9948 Q71.5524 81.7124 73.4274 83.9809 Q75.3255 86.2494 75.3255 89.5827 Q75.3255 94.6984 71.807 97.4994 Q68.2885 100.3 61.8071 100.3 Q59.6312 100.3 57.3164 99.8605 Q55.0247 99.4438 52.571 98.5873 L52.571 94.0734 Q54.5154 95.2077 56.8303 95.7864 Q59.1451 96.3651 61.6682 96.3651 Q66.0663 96.3651 68.358 94.629 Q70.6728 92.8929 70.6728 89.5827 Q70.6728 86.5272 68.52 84.8142 Q66.3904 83.0781 62.571 83.0781 L58.5432 83.0781 L58.5432 79.2356 L62.7561 79.2356 Q66.2052 79.2356 68.0339 77.8698 Q69.8626 76.4809 69.8626 73.8884 Q69.8626 71.2263 67.9645 69.8143 Q66.0895 68.3791 62.571 68.3791 Q60.6497 68.3791 58.4506 68.7958 Q56.2515 69.2125 53.6127 70.0921 L53.6127 65.9254 Q56.2747 65.1847 58.5895 64.8143 Q60.9275 64.444 62.9876 64.444 Q68.3117 64.444 71.4135 66.8745 Q74.5153 69.2819 74.5153 73.4023 Q74.5153 76.2726 72.8718 78.2633 Q71.2283 80.2309 68.1959 80.9948 Z" fill="#000000" fill-rule="nonzero" fill-opacity="1" /><path clip-path="url(#clip330)" d="M94.1912 68.1477 Q90.5801 68.1477 88.7514 71.7125 Q86.9458 75.2541 86.9458 82.3837 Q86.9458 89.4901 88.7514 93.0549 Q90.5801 96.5966 94.1912 96.5966 Q97.8254 96.5966 99.6309 93.0549 Q101.46 89.4901 101.46 82.3837 Q101.46 75.2541 99.6309 71.7125 Q97.8254 68.1477 94.1912 68.1477 M94.1912 64.444 Q100.001 64.444 103.057 69.0504 Q106.136 73.6337 106.136 82.3837 Q106.136 91.1105 103.057 95.717 Q100.001 100.3 94.1912 100.3 Q88.381 100.3 85.3023 95.717 Q82.2468 91.1105 82.2468 82.3837 Q82.2468 73.6337 85.3023 69.0504 Q88.381 64.444 94.1912 64.444 Z" fill="#000000" fill-rule="nonzero" fill-opacity="1" /><path clip-path="url(#clip330)" d="M124.353 68.1477 Q120.742 68.1477 118.913 71.7125 Q117.108 75.2541 117.108 82.3837 Q117.108 89.4901 118.913 93.0549 Q120.742 96.5966 124.353 96.5966 Q127.987 96.5966 129.793 93.0549 Q131.622 89.4901 131.622 82.3837 Q131.622 75.2541 129.793 71.7125 Q127.987 68.1477 124.353 68.1477 M124.353 64.444 Q130.163 64.444 133.219 69.0504 Q136.297 73.6337 136.297 82.3837 Q136.297 91.1105 133.219 95.717 Q130.163 100.3 124.353 100.3 Q118.543 100.3 115.464 95.717 Q112.409 91.1105 112.409 82.3837 Q112.409 73.6337 115.464 69.0504 Q118.543 64.444 124.353 64.444 Z" fill="#000000" fill-rule="nonzero" fill-opacity="1" /><polyline clip-path="url(#clip332)" style="stroke:#009af9; stroke-linecap:round; stroke-linejoin:round; stroke-width:4; stroke-opacity:1; fill:none" points="221.66,1200.97 224.642,1198.21 227.625,1194.69 230.607,1194 233.589,1192.81 236.572,1192.74 239.554,1190.98 242.536,1188.26 245.519,1184.74 248.501,1181.8 251.483,1180.35 254.466,1177.74 257.448,1174.43 260.43,1172.25 263.413,1171.54 266.395,1169.31 269.378,1168.14 272.36,1164.69 275.342,1163.45 278.325,1161.57 281.307,1160.16 284.289,1158.03 287.272,1154.51 290.254,1152.89 293.236,1151.58 296.219,1148.59 299.201,1145.46 302.183,1142.43 305.166,1139.47 308.148,1138.99 311.131,1137.9 314.113,1136.83 317.095,1134.23 320.078,1134.09 323.06,1133.38 326.042,1132.46 329.025,1129.66 332.007,1129.45 334.989,1127.27 337.972,1125.52 340.954,1122.49 343.936,1121.93 346.919,1121 349.901,1120.73 352.883,1119.6 355.866,1118.87 358.848,1116.02 361.831,1113.76 364.813,1111.52 367.795,1111.05 370.778,1107.46 373.76,1104.43 376.742,1102.01 379.725,1101.47 382.707,1099.46 385.689,1097.83 388.672,1094.88 391.654,1091.21 394.636,1090.65 397.619,1087.43 400.601,1086.95 403.584,1084.56 406.566,1083.63 409.548,1083.11 412.531,1082.87 415.513,1082.28 418.495,1080.43 421.478,1078.03 424.46,1077.71 427.442,1076.05 430.425,1075.95 433.407,1073 436.389,1071.63 439.372,1068.1 442.354,1064.76 445.337,1063.76 448.319,1060.68 451.301,1059.97 454.284,1059.22 457.266,1056.27 460.248,1056.22 463.231,1052.84 466.213,1050.77 469.195,1048.71 472.178,1047.15 475.16,1046.25 478.142,1042.84 481.125,1041.29 484.107,1039.4 487.09,1036.42 490.072,1034.34 493.054,1034.06 496.037,1030.92 499.019,1027.39 502.001,1024.01 504.984,1022.72 507.966,1020.09 510.948,1017.32 513.931,1015.78 516.913,1012.11 519.895,1009.41 522.878,1008.29 525.86,1007.09 528.843,1005.94 531.825,1003.12 534.807,999.892 537.79,996.162 540.772,994.353 543.754,991.136 546.737,990.27 549.719,989.941 552.701,986.775 555.684,986.151 558.666,983.771 561.648,980.475 564.631,979.676 567.613,978.504 570.595,977.374 573.578,975.197 576.56,973.624 579.543,970.14 582.525,969.048 585.507,968.74 588.49,967.066 591.472,966.545 594.454,963.631 597.437,960.191 600.419,957.015 603.401,954.14 606.384,954.038 609.366,950.499 612.348,948.033 615.331,944.81 618.313,943.159 621.296,940.046 624.278,938.162 627.26,937.094 630.243,933.44 633.225,929.987 636.207,928.545 639.19,925.147 642.172,923.411 645.154,921.215 648.137,918.834 651.119,916.975 654.101,915.724 657.084,915.563 660.066,915.496 663.049,914.898 666.031,913.224 669.013,910.235 671.996,907.283 674.978,905.964 677.96,905.926 680.943,903.308 683.925,901.063 686.907,900.94 689.89,900.751 692.872,898.196 695.854,897.087 698.837,893.872 701.819,893.821 704.802,893.074 707.784,890.929 710.766,887.598 713.749,885.406 716.731,885.34 719.713,881.614 722.696,877.915 725.678,875.368 728.66,874.447 731.643,873.031 734.625,870.166 737.607,868.348 740.59,866.724 743.572,866.347 746.555,864.131 749.537,863.946 752.519,860.389 755.502,857.778 758.484,854.076 761.466,852.451 764.449,850.872 767.431,849.087 770.413,847.131 773.396,846.006 776.378,845.85 779.36,842.171 782.343,839.263 785.325,837.618 788.307,836.344 791.29,834.177 794.272,832.98 797.255,832.96 800.237,832.055 803.219,830.496 806.202,829.342 809.184,829.22 812.166,828.278 815.149,826.889 818.131,825.695 821.113,824.707 824.096,821.516 827.078,819.899 830.06,819.479 833.043,815.92 836.025,812.618 839.008,811.202 841.99,808.769 844.972,807.536 847.955,804.218 850.937,800.677 853.919,800.609 856.902,797.38 859.884,795.514 862.866,792.181 865.849,789.315 868.831,787.406 871.813,784.308 874.796,784.095 877.778,780.662 880.761,778.334 883.743,777.267 886.725,776.677 889.708,773.978 892.69,773.34 895.672,770.615 898.655,768.31 901.637,768.305 904.619,764.739 907.602,764.018 910.584,762.384 913.566,761.357 916.549,757.875 919.531,754.654 922.514,751.401 925.496,751.16 928.478,749.18 931.461,748.093 934.443,745.541 937.425,742.097 940.408,740.142 943.39,739.18 946.372,738.615 949.355,738.101 952.337,737.017 955.319,735.17 958.302,734.541 961.284,731.421 964.266,728.708 967.249,725.584 970.231,722.065 973.214,721.771 976.196,718.766 979.178,718.718 982.161,718.145 985.143,715.648 988.125,713.519 991.108,709.845 994.09,706.394 997.072,703.603 1000.05,701.777 1003.04,699.404 1006.02,696.641 1009,695.122 1011.98,694.894 1014.97,694.837 1017.95,692.114 1020.93,691.248 1023.91,688.249 1026.9,687.166 1029.88,686.569 1032.86,683.879 1035.84,681.538 1038.83,680.849 1041.81,678.268 1044.79,677.307 1047.77,675.05 1050.75,674.786 1053.74,671.298 1056.72,668.309 1059.7,665.263 1062.68,665.246 1065.67,664.258 1068.65,662.457 1071.63,660.728 1074.61,660.227 1077.6,657.608 1080.58,657.247 1083.56,656.698 1086.54,655.901 1089.53,652.489 1092.51,651.128 1095.49,648.832 1098.47,647.743 1101.45,645.162 1104.44,643.724 1107.42,642.591 1110.4,640.555 1113.38,637.028 1116.37,633.909 1119.35,632.964 1122.33,631.241 1125.31,628.674 1128.3,627.988 1131.28,626.913 1134.26,624.521 1137.24,622.258 1140.23,622.022 1143.21,621.575 1146.19,619.297 1149.17,615.953 1152.15,613.252 1155.14,610.128 1158.12,608.264 1161.1,606.636 1164.08,606.094 1167.07,603.402 1170.05,600.424 1173.03,600.297 1176.01,598.151 1179,595.791 1181.98,595.447 1184.96,593.335 1187.94,593.05 1190.93,590.551 1193.91,589.946 1196.89,586.978 1199.87,586.857 1202.85,586.689 1205.84,586.49 1208.82,586.281 1211.8,585.167 1214.78,583.217 1217.77,579.737 1220.75,577.769 1223.73,574.532 1226.71,572.958 1229.7,570.818 1232.68,570.312 1235.66,569.679 1238.64,568.875 1241.63,568.768 1244.61,567.666 1247.59,565.576 1250.57,565.396 1253.56,564.263 1256.54,562.019 1259.52,558.954 1262.5,556.343 1265.48,553.933 1268.47,550.848 1271.45,547.558 1274.43,546.906 1277.41,545.055 1280.4,541.833 1283.38,538.496 1286.36,536.953 1289.34,533.975 1292.33,530.886 1295.31,527.565 1298.29,524.476 1301.27,523.772 1304.26,520.289 1307.24,519.644 1310.22,519.013 1313.2,518.496 1316.18,517.929 1319.17,516.538 1322.15,516.505 1325.13,513.709 1328.11,512.372 1331.1,509.389 1334.08,506.239 1337.06,505.504 1340.04,502.702 1343.03,499.065 1346.01,497.563 1348.99,495.477 1351.97,491.962 1354.96,488.28 1357.94,487.27 1360.92,483.794 1363.9,481.079 1366.88,477.549 1369.87,477.264 1372.85,475.989 1375.83,472.463 1378.81,469.673 1381.8,468.561 1384.78,467.606 1387.76,465.257 1390.74,461.747 1393.73,458.116 1396.71,457.148 1399.69,455.17 1402.67,452.069 1405.66,450.952 1408.64,450.747 1411.62,448.335 1414.6,445.722 1417.58,442.76 1420.57,442.275 1423.55,439.03 1426.53,436.106 1429.51,435.676 1432.5,432.838 1435.48,431.927 1438.46,429.867 1441.44,428.882 1444.43,427.514 1447.41,425.257 1450.39,423.245 1453.37,421.126 1456.36,420.905 1459.34,417.71 1462.32,415.442 1465.3,414.424 1468.28,414.282 1471.27,414.056 1474.25,410.972 1477.23,407.606 1480.21,405.64 1483.2,402.054 1486.18,399.331 1489.16,398.594 1492.14,396.989 1495.13,393.38 1498.11,389.907 1501.09,386.787 1504.07,386.174 1507.06,385.258 1510.04,382.319 1513.02,381.518 1516,379.076 1518.98,376.682 1521.97,373.454 1524.95,373.189 1527.93,370.509 1530.91,369.817 1533.9,366.853 1536.88,364.384 1539.86,362.775 1542.84,362.434 1545.83,360.903 1548.81,360.507 1551.79,359.122 1554.77,358.472 1557.76,355.838 1560.74,355.143 1563.72,351.97 1566.7,348.834 1569.68,347.623 1572.67,347.039 1575.65,346.625 1578.63,344.141 1581.61,343.634 1584.6,341.148 1587.58,339.106 1590.56,338.807 1593.54,337.737 1596.53,337.352 1599.51,336.61 1602.49,334.422 1605.47,330.778 1608.46,329.291 1611.44,326.218 1614.42,326.183 1617.4,323.231 1620.38,320.875 1623.37,318.795 1626.35,316.391 1629.33,315.395 1632.31,311.666 1635.3,311.408 1638.28,310.621 1641.26,307.592 1644.24,305.656 1647.23,302.288 1650.21,300.42 1653.19,298.539 1656.17,297.761 1659.16,294.915 1662.14,291.798 1665.12,291.08 1668.1,288.451 1671.08,285.962 1674.07,285.542 1677.05,283.735 1680.03,282.788 1683.01,281.013 1686,279.986 1688.98,279.528 1691.96,276.365 1694.94,275.584 1697.93,275.325 1700.91,274.145 1703.89,271.058 1706.87,267.99 1709.86,267.376 1712.84,265.04 1715.82,264.012 1718.8,263.526 1721.78,261.691 1724.77,260.571 1727.75,258.194 1730.73,256.872 1733.71,255.544 1736.7,253.865 1739.68,250.625 1742.66,248.165 1745.64,246.94 1748.63,246.463 1751.61,244.224 1754.59,242.348 1757.57,241.308 1760.56,240.618 1763.54,238.267 1766.52,237.964 1769.5,234.486 1772.49,231.373 1775.47,230.395 1778.45,227.816 1781.43,224.363 1784.41,223.818 1787.4,220.521 1790.38,219.408 1793.36,216.382 1796.34,215.174 1799.33,212.723 1802.31,212.634 1805.29,212.52 1808.27,209.135 1811.26,208.99 1814.24,207.164 1817.22,203.792 1820.2,203.027 1823.19,201.548 1826.17,200.653 1829.15,198.328 1832.13,197.098 1835.11,193.483 1838.1,190.009 1841.08,186.638 1844.06,185.038 1847.04,182.359 1850.03,181.864 1853.01,178.782 1855.99,175.853 1858.97,174.232 1861.96,172.247 1864.94,170.374 1867.92,168.173 1870.9,167.106 1873.89,166.932 1876.87,165.908 1879.85,165.784 1882.83,164.917 1885.81,163.988 1888.8,161.954 1891.78,159.907 1894.76,156.985 1897.74,155.698 1900.73,153.808 1903.71,151.12 1906.69,150.878 1909.67,150.225 1912.66,147.473 1915.64,146.409 1918.62,146.265 1921.6,144.483 1924.59,140.946 1927.57,139.301 1930.55,135.574 1933.53,131.959 1936.51,130.549 1939.5,130.329 1942.48,128.101 1945.46,126.747 1948.44,124.93 1951.43,121.302 1954.41,117.921 1957.39,115.158 1960.37,113.995 1963.36,110.624 1966.34,108.923 1969.32,107.089 1972.3,103.904 1975.29,100.327 1978.27,97.8383 1981.25,95.4373 1984.23,94.7784 1987.21,91.6384 1990.2,89.2657 1993.18,88.9569 1996.16,88.5847 1999.14,87.779 2002.13,85.3444 2005.11,84.391 2008.09,83.7692 2011.07,80.8479 "/>
<path clip-path="url(#clip330)" d="M231.203 190.502 L473.311 190.502 L473.311 86.8219 L231.203 86.8219  Z" fill="#ffffff" fill-rule="evenodd" fill-opacity="1"/>
<polyline clip-path="url(#clip330)" style="stroke:#000000; stroke-linecap:round; stroke-linejoin:round; stroke-width:4; stroke-opacity:1; fill:none" points="231.203,190.502 473.311,190.502 473.311,86.8219 231.203,86.8219 231.203,190.502 "/>
<polyline clip-path="url(#clip330)" style="stroke:#009af9; stroke-linecap:round; stroke-linejoin:round; stroke-width:4; stroke-opacity:1; fill:none" points="252.279,138.662 378.731,138.662 "/>
<path clip-path="url(#clip330)" d="M413.648 158.349 Q411.843 162.979 410.13 164.391 Q408.417 165.803 405.547 165.803 L402.144 165.803 L402.144 162.238 L404.644 162.238 Q406.403 162.238 407.375 161.405 Q408.348 160.572 409.528 157.47 L410.292 155.525 L399.806 130.016 L404.32 130.016 L412.422 150.294 L420.523 130.016 L425.037 130.016 L413.648 158.349 Z" fill="#000000" fill-rule="nonzero" fill-opacity="1" /><path clip-path="url(#clip330)" d="M432.329 152.007 L439.968 152.007 L439.968 125.641 L431.658 127.308 L431.658 123.049 L439.921 121.382 L444.597 121.382 L444.597 152.007 L452.236 152.007 L452.236 155.942 L432.329 155.942 L432.329 152.007 Z" fill="#000000" fill-rule="nonzero" fill-opacity="1" /></svg>
