<?xml version="1.0" encoding="utf-8"?>
<svg xmlns="http://www.w3.org/2000/svg" xmlns:xlink="http://www.w3.org/1999/xlink" width="528" height="336" viewBox="0 0 2112 1344">
<defs>
  <clipPath id="clip920">
    <rect x="0" y="0" width="2112" height="1344"/>
  </clipPath>
</defs>
<path clip-path="url(#clip920)" d="M0 1344 L2112 1344 L2112 0 L0 0  Z" fill="#ffffff" fill-rule="evenodd" fill-opacity="1"/>
<defs>
  <clipPath id="clip921">
    <rect x="422" y="0" width="1479" height="1344"/>
  </clipPath>
</defs>
<path clip-path="url(#clip920)" d="M183.394 1234.58 L2064.76 1234.58 L2064.76 47.2441 L183.394 47.2441  Z" fill="#ffffff" fill-rule="evenodd" fill-opacity="1"/>
<defs>
  <clipPath id="clip922">
    <rect x="183" y="47" width="1882" height="1188"/>
  </clipPath>
</defs>
<polyline clip-path="url(#clip922)" style="stroke:#000000; stroke-linecap:round; stroke-linejoin:round; stroke-width:2; stroke-opacity:0.1; fill:none" points="236.64,1234.58 236.64,47.2441 "/>
<polyline clip-path="url(#clip922)" style="stroke:#000000; stroke-linecap:round; stroke-linejoin:round; stroke-width:2; stroke-opacity:0.1; fill:none" points="532.452,1234.58 532.452,47.2441 "/>
<polyline clip-path="url(#clip922)" style="stroke:#000000; stroke-linecap:round; stroke-linejoin:round; stroke-width:2; stroke-opacity:0.1; fill:none" points="828.263,1234.58 828.263,47.2441 "/>
<polyline clip-path="url(#clip922)" style="stroke:#000000; stroke-linecap:round; stroke-linejoin:round; stroke-width:2; stroke-opacity:0.1; fill:none" points="1124.07,1234.58 1124.07,47.2441 "/>
<polyline clip-path="url(#clip922)" style="stroke:#000000; stroke-linecap:round; stroke-linejoin:round; stroke-width:2; stroke-opacity:0.1; fill:none" points="1419.89,1234.58 1419.89,47.2441 "/>
<polyline clip-path="url(#clip922)" style="stroke:#000000; stroke-linecap:round; stroke-linejoin:round; stroke-width:2; stroke-opacity:0.1; fill:none" points="1715.7,1234.58 1715.7,47.2441 "/>
<polyline clip-path="url(#clip922)" style="stroke:#000000; stroke-linecap:round; stroke-linejoin:round; stroke-width:2; stroke-opacity:0.1; fill:none" points="2011.51,1234.58 2011.51,47.2441 "/>
<polyline clip-path="url(#clip920)" style="stroke:#000000; stroke-linecap:round; stroke-linejoin:round; stroke-width:4; stroke-opacity:1; fill:none" points="183.394,1234.58 2064.76,1234.58 "/>
<polyline clip-path="url(#clip920)" style="stroke:#000000; stroke-linecap:round; stroke-linejoin:round; stroke-width:4; stroke-opacity:1; fill:none" points="236.64,1234.58 236.64,1215.68 "/>
<polyline clip-path="url(#clip920)" style="stroke:#000000; stroke-linecap:round; stroke-linejoin:round; stroke-width:4; stroke-opacity:1; fill:none" points="532.452,1234.58 532.452,1215.68 "/>
<polyline clip-path="url(#clip920)" style="stroke:#000000; stroke-linecap:round; stroke-linejoin:round; stroke-width:4; stroke-opacity:1; fill:none" points="828.263,1234.58 828.263,1215.68 "/>
<polyline clip-path="url(#clip920)" style="stroke:#000000; stroke-linecap:round; stroke-linejoin:round; stroke-width:4; stroke-opacity:1; fill:none" points="1124.07,1234.58 1124.07,1215.68 "/>
<polyline clip-path="url(#clip920)" style="stroke:#000000; stroke-linecap:round; stroke-linejoin:round; stroke-width:4; stroke-opacity:1; fill:none" points="1419.89,1234.58 1419.89,1215.68 "/>
<polyline clip-path="url(#clip920)" style="stroke:#000000; stroke-linecap:round; stroke-linejoin:round; stroke-width:4; stroke-opacity:1; fill:none" points="1715.7,1234.58 1715.7,1215.68 "/>
<polyline clip-path="url(#clip920)" style="stroke:#000000; stroke-linecap:round; stroke-linejoin:round; stroke-width:4; stroke-opacity:1; fill:none" points="2011.51,1234.58 2011.51,1215.68 "/>
<path clip-path="url(#clip920)" d="M206.108 1277.85 L235.784 1277.85 L235.784 1281.78 L206.108 1281.78 L206.108 1277.85 Z" fill="#000000" fill-rule="nonzero" fill-opacity="1" /><path clip-path="url(#clip920)" d="M260.043 1276.04 Q263.399 1276.76 265.274 1279.03 Q267.172 1281.3 267.172 1284.63 Q267.172 1289.74 263.654 1292.55 Q260.135 1295.35 253.654 1295.35 Q251.478 1295.35 249.163 1294.91 Q246.872 1294.49 244.418 1293.63 L244.418 1289.12 Q246.362 1290.25 248.677 1290.83 Q250.992 1291.41 253.515 1291.41 Q257.913 1291.41 260.205 1289.67 Q262.52 1287.94 262.52 1284.63 Q262.52 1281.57 260.367 1279.86 Q258.237 1278.12 254.418 1278.12 L250.39 1278.12 L250.39 1274.28 L254.603 1274.28 Q258.052 1274.28 259.881 1272.92 Q261.709 1271.53 261.709 1268.93 Q261.709 1266.27 259.811 1264.86 Q257.936 1263.42 254.418 1263.42 Q252.496 1263.42 250.297 1263.84 Q248.098 1264.26 245.459 1265.14 L245.459 1260.97 Q248.122 1260.23 250.436 1259.86 Q252.774 1259.49 254.834 1259.49 Q260.158 1259.49 263.26 1261.92 Q266.362 1264.33 266.362 1268.45 Q266.362 1271.32 264.719 1273.31 Q263.075 1275.28 260.043 1276.04 Z" fill="#000000" fill-rule="nonzero" fill-opacity="1" /><path clip-path="url(#clip920)" d="M502.394 1277.85 L532.07 1277.85 L532.07 1281.78 L502.394 1281.78 L502.394 1277.85 Z" fill="#000000" fill-rule="nonzero" fill-opacity="1" /><path clip-path="url(#clip920)" d="M546.19 1290.74 L562.509 1290.74 L562.509 1294.67 L540.565 1294.67 L540.565 1290.74 Q543.227 1287.99 547.81 1283.36 Q552.417 1278.7 553.597 1277.36 Q555.843 1274.84 556.722 1273.1 Q557.625 1271.34 557.625 1269.65 Q557.625 1266.9 555.681 1265.16 Q553.759 1263.42 550.658 1263.42 Q548.459 1263.42 546.005 1264.19 Q543.574 1264.95 540.797 1266.5 L540.797 1261.78 Q543.621 1260.65 546.074 1260.07 Q548.528 1259.49 550.565 1259.49 Q555.935 1259.49 559.13 1262.17 Q562.324 1264.86 562.324 1269.35 Q562.324 1271.48 561.514 1273.4 Q560.727 1275.3 558.621 1277.89 Q558.042 1278.56 554.94 1281.78 Q551.838 1284.98 546.19 1290.74 Z" fill="#000000" fill-rule="nonzero" fill-opacity="1" /><path clip-path="url(#clip920)" d="M798.02 1277.85 L827.696 1277.85 L827.696 1281.78 L798.02 1281.78 L798.02 1277.85 Z" fill="#000000" fill-rule="nonzero" fill-opacity="1" /><path clip-path="url(#clip920)" d="M838.599 1290.74 L846.238 1290.74 L846.238 1264.37 L837.928 1266.04 L837.928 1261.78 L846.191 1260.11 L850.867 1260.11 L850.867 1290.74 L858.506 1290.74 L858.506 1294.67 L838.599 1294.67 L838.599 1290.74 Z" fill="#000000" fill-rule="nonzero" fill-opacity="1" /><path clip-path="url(#clip920)" d="M1124.07 1263.19 Q1120.46 1263.19 1118.64 1266.76 Q1116.83 1270.3 1116.83 1277.43 Q1116.83 1284.54 1118.64 1288.1 Q1120.46 1291.64 1124.07 1291.64 Q1127.71 1291.64 1129.51 1288.1 Q1131.34 1284.54 1131.34 1277.43 Q1131.34 1270.3 1129.51 1266.76 Q1127.71 1263.19 1124.07 1263.19 M1124.07 1259.49 Q1129.89 1259.49 1132.94 1264.1 Q1136.02 1268.68 1136.02 1277.43 Q1136.02 1286.16 1132.94 1290.76 Q1129.89 1295.35 1124.07 1295.35 Q1118.26 1295.35 1115.19 1290.76 Q1112.13 1286.16 1112.13 1277.43 Q1112.13 1268.68 1115.19 1264.1 Q1118.26 1259.49 1124.07 1259.49 Z" fill="#000000" fill-rule="nonzero" fill-opacity="1" /><path clip-path="url(#clip920)" d="M1410.27 1290.74 L1417.91 1290.74 L1417.91 1264.37 L1409.6 1266.04 L1409.6 1261.78 L1417.86 1260.11 L1422.54 1260.11 L1422.54 1290.74 L1430.18 1290.74 L1430.18 1294.67 L1410.27 1294.67 L1410.27 1290.74 Z" fill="#000000" fill-rule="nonzero" fill-opacity="1" /><path clip-path="url(#clip920)" d="M1710.35 1290.74 L1726.67 1290.74 L1726.67 1294.67 L1704.73 1294.67 L1704.73 1290.74 Q1707.39 1287.99 1711.97 1283.36 Q1716.58 1278.7 1717.76 1277.36 Q1720 1274.84 1720.88 1273.1 Q1721.79 1271.34 1721.79 1269.65 Q1721.79 1266.9 1719.84 1265.16 Q1717.92 1263.42 1714.82 1263.42 Q1712.62 1263.42 1710.17 1264.19 Q1707.74 1264.95 1704.96 1266.5 L1704.96 1261.78 Q1707.78 1260.65 1710.24 1260.07 Q1712.69 1259.49 1714.73 1259.49 Q1720.1 1259.49 1723.29 1262.17 Q1726.49 1264.86 1726.49 1269.35 Q1726.49 1271.48 1725.67 1273.4 Q1724.89 1275.3 1722.78 1277.89 Q1722.2 1278.56 1719.1 1281.78 Q1716 1284.98 1710.35 1290.74 Z" fill="#000000" fill-rule="nonzero" fill-opacity="1" /><path clip-path="url(#clip920)" d="M2015.76 1276.04 Q2019.11 1276.76 2020.99 1279.03 Q2022.89 1281.3 2022.89 1284.63 Q2022.89 1289.74 2019.37 1292.55 Q2015.85 1295.35 2009.37 1295.35 Q2007.19 1295.35 2004.88 1294.91 Q2002.59 1294.49 2000.13 1293.63 L2000.13 1289.12 Q2002.08 1290.25 2004.39 1290.83 Q2006.71 1291.41 2009.23 1291.41 Q2013.63 1291.41 2015.92 1289.67 Q2018.23 1287.94 2018.23 1284.63 Q2018.23 1281.57 2016.08 1279.86 Q2013.95 1278.12 2010.13 1278.12 L2006.1 1278.12 L2006.1 1274.28 L2010.32 1274.28 Q2013.77 1274.28 2015.6 1272.92 Q2017.42 1271.53 2017.42 1268.93 Q2017.42 1266.27 2015.53 1264.86 Q2013.65 1263.42 2010.13 1263.42 Q2008.21 1263.42 2006.01 1263.84 Q2003.81 1264.26 2001.17 1265.14 L2001.17 1260.97 Q2003.84 1260.23 2006.15 1259.86 Q2008.49 1259.49 2010.55 1259.49 Q2015.87 1259.49 2018.98 1261.92 Q2022.08 1264.33 2022.08 1268.45 Q2022.08 1271.32 2020.43 1273.31 Q2018.79 1275.28 2015.76 1276.04 Z" fill="#000000" fill-rule="nonzero" fill-opacity="1" /><polyline clip-path="url(#clip922)" style="stroke:#000000; stroke-linecap:round; stroke-linejoin:round; stroke-width:2; stroke-opacity:0.1; fill:none" points="183.394,1201.11 2064.76,1201.11 "/>
<polyline clip-path="url(#clip922)" style="stroke:#000000; stroke-linecap:round; stroke-linejoin:round; stroke-width:2; stroke-opacity:0.1; fill:none" points="183.394,919.639 2064.76,919.639 "/>
<polyline clip-path="url(#clip922)" style="stroke:#000000; stroke-linecap:round; stroke-linejoin:round; stroke-width:2; stroke-opacity:0.1; fill:none" points="183.394,638.172 2064.76,638.172 "/>
<polyline clip-path="url(#clip922)" style="stroke:#000000; stroke-linecap:round; stroke-linejoin:round; stroke-width:2; stroke-opacity:0.1; fill:none" points="183.394,356.706 2064.76,356.706 "/>
<polyline clip-path="url(#clip922)" style="stroke:#000000; stroke-linecap:round; stroke-linejoin:round; stroke-width:2; stroke-opacity:0.1; fill:none" points="183.394,75.2389 2064.76,75.2389 "/>
<polyline clip-path="url(#clip920)" style="stroke:#000000; stroke-linecap:round; stroke-linejoin:round; stroke-width:4; stroke-opacity:1; fill:none" points="183.394,1234.58 183.394,47.2441 "/>
<polyline clip-path="url(#clip920)" style="stroke:#000000; stroke-linecap:round; stroke-linejoin:round; stroke-width:4; stroke-opacity:1; fill:none" points="183.394,1201.11 202.292,1201.11 "/>
<polyline clip-path="url(#clip920)" style="stroke:#000000; stroke-linecap:round; stroke-linejoin:round; stroke-width:4; stroke-opacity:1; fill:none" points="183.394,919.639 202.292,919.639 "/>
<polyline clip-path="url(#clip920)" style="stroke:#000000; stroke-linecap:round; stroke-linejoin:round; stroke-width:4; stroke-opacity:1; fill:none" points="183.394,638.172 202.292,638.172 "/>
<polyline clip-path="url(#clip920)" style="stroke:#000000; stroke-linecap:round; stroke-linejoin:round; stroke-width:4; stroke-opacity:1; fill:none" points="183.394,356.706 202.292,356.706 "/>
<polyline clip-path="url(#clip920)" style="stroke:#000000; stroke-linecap:round; stroke-linejoin:round; stroke-width:4; stroke-opacity:1; fill:none" points="183.394,75.2389 202.292,75.2389 "/>
<path clip-path="url(#clip920)" d="M64.3765 1186.9 Q60.7654 1186.9 58.9367 1190.47 Q57.1312 1194.01 57.1312 1201.14 Q57.1312 1208.25 58.9367 1211.81 Q60.7654 1215.35 64.3765 1215.35 Q68.0107 1215.35 69.8163 1211.81 Q71.645 1208.25 71.645 1201.14 Q71.645 1194.01 69.8163 1190.47 Q68.0107 1186.9 64.3765 1186.9 M64.3765 1183.2 Q70.1867 1183.2 73.2422 1187.81 Q76.3209 1192.39 76.3209 1201.14 Q76.3209 1209.87 73.2422 1214.47 Q70.1867 1219.06 64.3765 1219.06 Q58.5664 1219.06 55.4877 1214.47 Q52.4321 1209.87 52.4321 1201.14 Q52.4321 1192.39 55.4877 1187.81 Q58.5664 1183.2 64.3765 1183.2 Z" fill="#000000" fill-rule="nonzero" fill-opacity="1" /><path clip-path="url(#clip920)" d="M84.5384 1212.51 L89.4227 1212.51 L89.4227 1218.39 L84.5384 1218.39 L84.5384 1212.51 Z" fill="#000000" fill-rule="nonzero" fill-opacity="1" /><path clip-path="url(#clip920)" d="M109.608 1186.9 Q105.997 1186.9 104.168 1190.47 Q102.362 1194.01 102.362 1201.14 Q102.362 1208.25 104.168 1211.81 Q105.997 1215.35 109.608 1215.35 Q113.242 1215.35 115.048 1211.81 Q116.876 1208.25 116.876 1201.14 Q116.876 1194.01 115.048 1190.47 Q113.242 1186.9 109.608 1186.9 M109.608 1183.2 Q115.418 1183.2 118.473 1187.81 Q121.552 1192.39 121.552 1201.14 Q121.552 1209.87 118.473 1214.47 Q115.418 1219.06 109.608 1219.06 Q103.798 1219.06 100.719 1214.47 Q97.6634 1209.87 97.6634 1201.14 Q97.6634 1192.39 100.719 1187.81 Q103.798 1183.2 109.608 1183.2 Z" fill="#000000" fill-rule="nonzero" fill-opacity="1" /><path clip-path="url(#clip920)" d="M139.77 1186.9 Q136.159 1186.9 134.33 1190.47 Q132.524 1194.01 132.524 1201.14 Q132.524 1208.25 134.33 1211.81 Q136.159 1215.35 139.77 1215.35 Q143.404 1215.35 145.209 1211.81 Q147.038 1208.25 147.038 1201.14 Q147.038 1194.01 145.209 1190.47 Q143.404 1186.9 139.77 1186.9 M139.77 1183.2 Q145.58 1183.2 148.635 1187.81 Q151.714 1192.39 151.714 1201.14 Q151.714 1209.87 148.635 1214.47 Q145.58 1219.06 139.77 1219.06 Q133.959 1219.06 130.881 1214.47 Q127.825 1209.87 127.825 1201.14 Q127.825 1192.39 130.881 1187.81 Q133.959 1183.2 139.77 1183.2 Z" fill="#000000" fill-rule="nonzero" fill-opacity="1" /><path clip-path="url(#clip920)" d="M65.3719 905.438 Q61.7608 905.438 59.9321 909.002 Q58.1265 912.544 58.1265 919.674 Q58.1265 926.78 59.9321 930.345 Q61.7608 933.887 65.3719 933.887 Q69.0061 933.887 70.8117 930.345 Q72.6404 926.78 72.6404 919.674 Q72.6404 912.544 70.8117 909.002 Q69.0061 905.438 65.3719 905.438 M65.3719 901.734 Q71.182 901.734 74.2376 906.34 Q77.3163 910.924 77.3163 919.674 Q77.3163 928.4 74.2376 933.007 Q71.182 937.59 65.3719 937.59 Q59.5617 937.59 56.483 933.007 Q53.4275 928.4 53.4275 919.674 Q53.4275 910.924 56.483 906.34 Q59.5617 901.734 65.3719 901.734 Z" fill="#000000" fill-rule="nonzero" fill-opacity="1" /><path clip-path="url(#clip920)" d="M85.5338 931.039 L90.418 931.039 L90.418 936.919 L85.5338 936.919 L85.5338 931.039 Z" fill="#000000" fill-rule="nonzero" fill-opacity="1" /><path clip-path="url(#clip920)" d="M104.631 932.984 L120.95 932.984 L120.95 936.919 L99.006 936.919 L99.006 932.984 Q101.668 930.229 106.251 925.6 Q110.858 920.947 112.038 919.604 Q114.284 917.081 115.163 915.345 Q116.066 913.586 116.066 911.896 Q116.066 909.141 114.122 907.405 Q112.2 905.669 109.098 905.669 Q106.899 905.669 104.446 906.433 Q102.015 907.197 99.2374 908.748 L99.2374 904.026 Q102.061 902.891 104.515 902.313 Q106.969 901.734 109.006 901.734 Q114.376 901.734 117.571 904.419 Q120.765 907.104 120.765 911.595 Q120.765 913.725 119.955 915.646 Q119.168 917.544 117.061 920.137 Q116.483 920.808 113.381 924.025 Q110.279 927.22 104.631 932.984 Z" fill="#000000" fill-rule="nonzero" fill-opacity="1" /><path clip-path="url(#clip920)" d="M130.811 902.359 L149.168 902.359 L149.168 906.294 L135.094 906.294 L135.094 914.766 Q136.112 914.419 137.131 914.257 Q138.149 914.072 139.168 914.072 Q144.955 914.072 148.334 917.243 Q151.714 920.414 151.714 925.831 Q151.714 931.41 148.242 934.512 Q144.77 937.59 138.45 937.59 Q136.274 937.59 134.006 937.22 Q131.76 936.849 129.353 936.109 L129.353 931.41 Q131.436 932.544 133.659 933.1 Q135.881 933.655 138.358 933.655 Q142.362 933.655 144.7 931.549 Q147.038 929.442 147.038 925.831 Q147.038 922.22 144.7 920.113 Q142.362 918.007 138.358 918.007 Q136.483 918.007 134.608 918.424 Q132.756 918.84 130.811 919.72 L130.811 902.359 Z" fill="#000000" fill-rule="nonzero" fill-opacity="1" /><path clip-path="url(#clip920)" d="M64.3765 623.971 Q60.7654 623.971 58.9367 627.536 Q57.1312 631.077 57.1312 638.207 Q57.1312 645.313 58.9367 648.878 Q60.7654 652.42 64.3765 652.42 Q68.0107 652.42 69.8163 648.878 Q71.645 645.313 71.645 638.207 Q71.645 631.077 69.8163 627.536 Q68.0107 623.971 64.3765 623.971 M64.3765 620.267 Q70.1867 620.267 73.2422 624.874 Q76.3209 629.457 76.3209 638.207 Q76.3209 646.934 73.2422 651.54 Q70.1867 656.124 64.3765 656.124 Q58.5664 656.124 55.4877 651.54 Q52.4321 646.934 52.4321 638.207 Q52.4321 629.457 55.4877 624.874 Q58.5664 620.267 64.3765 620.267 Z" fill="#000000" fill-rule="nonzero" fill-opacity="1" /><path clip-path="url(#clip920)" d="M84.5384 649.573 L89.4227 649.573 L89.4227 655.452 L84.5384 655.452 L84.5384 649.573 Z" fill="#000000" fill-rule="nonzero" fill-opacity="1" /><path clip-path="url(#clip920)" d="M99.6541 620.892 L118.01 620.892 L118.01 624.827 L103.936 624.827 L103.936 633.3 Q104.955 632.952 105.974 632.79 Q106.992 632.605 108.011 632.605 Q113.798 632.605 117.177 635.776 Q120.557 638.948 120.557 644.364 Q120.557 649.943 117.085 653.045 Q113.612 656.124 107.293 656.124 Q105.117 656.124 102.849 655.753 Q100.603 655.383 98.1958 654.642 L98.1958 649.943 Q100.279 651.077 102.501 651.633 Q104.724 652.188 107.2 652.188 Q111.205 652.188 113.543 650.082 Q115.881 647.975 115.881 644.364 Q115.881 640.753 113.543 638.647 Q111.205 636.54 107.2 636.54 Q105.325 636.54 103.45 636.957 Q101.599 637.374 99.6541 638.253 L99.6541 620.892 Z" fill="#000000" fill-rule="nonzero" fill-opacity="1" /><path clip-path="url(#clip920)" d="M139.77 623.971 Q136.159 623.971 134.33 627.536 Q132.524 631.077 132.524 638.207 Q132.524 645.313 134.33 648.878 Q136.159 652.42 139.77 652.42 Q143.404 652.42 145.209 648.878 Q147.038 645.313 147.038 638.207 Q147.038 631.077 145.209 627.536 Q143.404 623.971 139.77 623.971 M139.77 620.267 Q145.58 620.267 148.635 624.874 Q151.714 629.457 151.714 638.207 Q151.714 646.934 148.635 651.54 Q145.58 656.124 139.77 656.124 Q133.959 656.124 130.881 651.54 Q127.825 646.934 127.825 638.207 Q127.825 629.457 130.881 624.874 Q133.959 620.267 139.77 620.267 Z" fill="#000000" fill-rule="nonzero" fill-opacity="1" /><path clip-path="url(#clip920)" d="M65.3719 342.504 Q61.7608 342.504 59.9321 346.069 Q58.1265 349.611 58.1265 356.74 Q58.1265 363.847 59.9321 367.412 Q61.7608 370.953 65.3719 370.953 Q69.0061 370.953 70.8117 367.412 Q72.6404 363.847 72.6404 356.74 Q72.6404 349.611 70.8117 346.069 Q69.0061 342.504 65.3719 342.504 M65.3719 338.801 Q71.182 338.801 74.2376 343.407 Q77.3163 347.99 77.3163 356.74 Q77.3163 365.467 74.2376 370.074 Q71.182 374.657 65.3719 374.657 Q59.5617 374.657 56.483 370.074 Q53.4275 365.467 53.4275 356.74 Q53.4275 347.99 56.483 343.407 Q59.5617 338.801 65.3719 338.801 Z" fill="#000000" fill-rule="nonzero" fill-opacity="1" /><path clip-path="url(#clip920)" d="M85.5338 368.106 L90.418 368.106 L90.418 373.986 L85.5338 373.986 L85.5338 368.106 Z" fill="#000000" fill-rule="nonzero" fill-opacity="1" /><path clip-path="url(#clip920)" d="M99.4226 339.426 L121.645 339.426 L121.645 341.416 L109.098 373.986 L104.214 373.986 L116.02 343.361 L99.4226 343.361 L99.4226 339.426 Z" fill="#000000" fill-rule="nonzero" fill-opacity="1" /><path clip-path="url(#clip920)" d="M130.811 339.426 L149.168 339.426 L149.168 343.361 L135.094 343.361 L135.094 351.833 Q136.112 351.486 137.131 351.324 Q138.149 351.138 139.168 351.138 Q144.955 351.138 148.334 354.31 Q151.714 357.481 151.714 362.898 Q151.714 368.476 148.242 371.578 Q144.77 374.657 138.45 374.657 Q136.274 374.657 134.006 374.286 Q131.76 373.916 129.353 373.175 L129.353 368.476 Q131.436 369.611 133.659 370.166 Q135.881 370.722 138.358 370.722 Q142.362 370.722 144.7 368.615 Q147.038 366.509 147.038 362.898 Q147.038 359.287 144.7 357.18 Q142.362 355.074 138.358 355.074 Q136.483 355.074 134.608 355.49 Q132.756 355.907 130.811 356.787 L130.811 339.426 Z" fill="#000000" fill-rule="nonzero" fill-opacity="1" /><path clip-path="url(#clip920)" d="M55.1867 88.5837 L62.8256 88.5837 L62.8256 62.2181 L54.5154 63.8848 L54.5154 59.6255 L62.7793 57.9589 L67.4552 57.9589 L67.4552 88.5837 L75.094 88.5837 L75.094 92.5189 L55.1867 92.5189 L55.1867 88.5837 Z" fill="#000000" fill-rule="nonzero" fill-opacity="1" /><path clip-path="url(#clip920)" d="M84.5384 86.6393 L89.4227 86.6393 L89.4227 92.5189 L84.5384 92.5189 L84.5384 86.6393 Z" fill="#000000" fill-rule="nonzero" fill-opacity="1" /><path clip-path="url(#clip920)" d="M109.608 61.0376 Q105.997 61.0376 104.168 64.6024 Q102.362 68.144 102.362 75.2736 Q102.362 82.38 104.168 85.9448 Q105.997 89.4865 109.608 89.4865 Q113.242 89.4865 115.048 85.9448 Q116.876 82.38 116.876 75.2736 Q116.876 68.144 115.048 64.6024 Q113.242 61.0376 109.608 61.0376 M109.608 57.3339 Q115.418 57.3339 118.473 61.9403 Q121.552 66.5236 121.552 75.2736 Q121.552 84.0004 118.473 88.6069 Q115.418 93.1902 109.608 93.1902 Q103.798 93.1902 100.719 88.6069 Q97.6634 84.0004 97.6634 75.2736 Q97.6634 66.5236 100.719 61.9403 Q103.798 57.3339 109.608 57.3339 Z" fill="#000000" fill-rule="nonzero" fill-opacity="1" /><path clip-path="url(#clip920)" d="M139.77 61.0376 Q136.159 61.0376 134.33 64.6024 Q132.524 68.144 132.524 75.2736 Q132.524 82.38 134.33 85.9448 Q136.159 89.4865 139.77 89.4865 Q143.404 89.4865 145.209 85.9448 Q147.038 82.38 147.038 75.2736 Q147.038 68.144 145.209 64.6024 Q143.404 61.0376 139.77 61.0376 M139.77 57.3339 Q145.58 57.3339 148.635 61.9403 Q151.714 66.5236 151.714 75.2736 Q151.714 84.0004 148.635 88.6069 Q145.58 93.1902 139.77 93.1902 Q133.959 93.1902 130.881 88.6069 Q127.825 84.0004 127.825 75.2736 Q127.825 66.5236 130.881 61.9403 Q133.959 57.3339 139.77 57.3339 Z" fill="#000000" fill-rule="nonzero" fill-opacity="1" /><polyline clip-path="url(#clip922)" style="stroke:#009af9; stroke-linecap:round; stroke-linejoin:round; stroke-width:4; stroke-opacity:1; fill:none" points="236.64,948.847 239.598,772.071 242.556,733.009 245.514,199.581 248.473,475.157 251.431,158.029 254.389,1033.91 257.347,892.133 260.305,591.037 263.263,822.772 266.221,212.112 269.179,866.29 272.137,994.937 275.096,918.118 278.054,1035.51 281.012,911.515 283.97,1128.59 286.928,586.549 289.886,997.982 292.844,315.105 295.802,757.147 298.761,162.67 301.719,589.08 304.677,766.831 307.635,447.103 310.593,320.316 313.551,221.047 316.509,840.909 319.467,208.08 322.425,318.264 325.384,114.241 328.342,1117.97 331.3,209.767 334.258,423.183 337.216,421.521 340.174,268.853 343.132,462.361 346.09,166.317 349.049,84.5679 352.007,1131.72 354.965,902.154 357.923,290.549 360.881,262.222 363.839,1195.21 366.797,525.69 369.755,830.398 372.713,456.75 375.672,777.97 378.63,754.783 381.588,869.368 384.546,1162.46 387.504,636.481 390.462,674.749 393.42,480.441 396.378,630.532 399.336,703.156 402.295,485.351 405.253,777.485 408.211,448.86 411.169,105.22 414.127,1169.92 417.085,251.826 420.043,871.017 423.001,789.574 425.96,178.051 428.918,1114.17 431.876,1014 434.834,264.877 437.792,848.554 440.75,306.745 443.708,261.943 446.666,975.001 449.624,633.246 452.583,573.238 455.541,480.816 458.499,190.01 461.457,589.226 464.415,1114.96 467.373,413.421 470.331,710.649 473.289,1072.1 476.248,1121.52 479.206,1156.83 482.164,645.655 485.122,674.734 488.08,438.114 491.038,1033.57 493.996,288.847 496.954,996.472 499.912,945.624 502.871,651.266 505.829,1136.94 508.787,314.513 511.745,270.078 514.703,909.025 517.661,948.389 520.619,207.438 523.577,1153.72 526.535,357.338 529.494,154.349 532.452,629.808 535.41,495.779 538.368,433.477 541.326,821.223 544.284,1174.21 547.242,1038.94 550.2,1119.37 553.159,402.036 556.117,369.38 559.075,1115.47 562.033,706.729 564.991,762.081 567.949,943.625 570.907,695.664 573.865,1033.73 576.823,245.573 579.782,750.284 582.74,1018.73 585.698,1056.51 588.656,1178.09 591.614,856.156 594.572,342.135 597.53,852.652 600.488,954.898 603.447,794.66 606.405,1063.43 609.363,1116.31 612.321,115.15 615.279,755.625 618.237,659.401 621.195,856.326 624.153,628.396 627.111,740.636 630.07,766.709 633.028,463.585 635.986,1010.68 638.944,81.5334 641.902,715.876 644.86,453.526 647.818,912.469 650.776,529.29 653.734,272.476 656.693,621.545 659.651,477.452 662.609,680.393 665.567,725.047 668.525,304.247 671.483,558.852 674.441,1100.23 677.399,357.343 680.358,589.766 683.316,851.953 686.274,758.088 689.232,1045.23 692.19,711.63 695.148,759.227 698.106,908.155 701.064,537.194 704.022,446.935 706.981,587.303 709.939,307.297 712.897,305.039 715.855,250.164 718.813,909.7 721.771,169.892 724.729,884.1 727.687,582.588 730.645,483.987 733.604,270.293 736.562,827.352 739.52,929.29 742.478,511.501 745.436,1049.03 748.394,294.727 751.352,1016.37 754.31,1058.67 757.269,985.217 760.227,1178.53 763.185,523.038 766.143,1018.41 769.101,202.349 772.059,441.532 775.017,1153.12 777.975,991.266 780.933,270.553 783.892,489.402 786.85,470.783 789.808,503.293 792.766,223.16 795.724,588.128 798.682,609.954 801.64,839.31 804.598,764.068 807.557,734.753 810.515,391.388 813.473,427.158 816.431,1073.46 819.389,171.309 822.347,960.908 825.305,1117.29 828.263,118.214 831.221,244.927 834.18,986.009 837.138,477.633 840.096,178.454 843.054,501.671 846.012,498.939 848.97,875.266 851.928,548.269 854.886,519.53 857.844,346.612 860.803,1107.65 863.761,862.184 866.719,220.121 869.677,558.844 872.635,529.253 875.593,740.298 878.551,829.637 881.509,278.946 884.468,1015.74 887.426,932.632 890.384,796.358 893.342,446.095 896.3,86.2821 899.258,1133.13 902.216,1048.27 905.174,578.017 908.132,890.805 911.091,99.0066 914.049,951.568 917.007,935.7 919.965,826.946 922.923,1200.54 925.881,622.93 928.839,80.9887 931.797,305.386 934.756,912.031 937.714,826.489 940.672,797.462 943.63,466.451 946.588,463.578 949.546,148.978 952.504,303.473 955.462,361.169 958.42,769.885 961.379,1079.2 964.337,1037.55 967.295,759.635 970.253,503.983 973.211,733.347 976.169,341.068 979.127,499.982 982.085,936.002 985.043,1135.27 988.002,1119.74 990.96,161.071 993.918,188.036 996.876,470.449 999.834,689.914 1002.79,498.904 1005.75,391.712 1008.71,581.05 1011.67,1136.35 1014.62,261.318 1017.58,474.126 1020.54,130.927 1023.5,561.004 1026.46,1035.17 1029.42,1026.72 1032.37,476.53 1035.33,296.766 1038.29,742.539 1041.25,1017.47 1044.21,491.907 1047.16,1187.59 1050.12,339.712 1053.08,987.345 1056.04,369.513 1059,159.365 1061.95,677.491 1064.91,427.051 1067.87,955.565 1070.83,172.786 1073.79,273.687 1076.75,946.37 1079.7,423.911 1082.66,449.089 1085.62,361.696 1088.58,725.459 1091.54,997.824 1094.49,580.123 1097.45,104.695 1100.41,568.313 1103.37,834.103 1106.33,249.688 1109.28,1156.9 1112.24,353.299 1115.2,723.151 1118.16,547.961 1121.12,127.081 1124.07,795.015 1127.03,281.054 1129.99,346.292 1132.95,555.244 1135.91,418.822 1138.87,837.777 1141.82,160.594 1144.78,899.214 1147.74,899.732 1150.7,458.958 1153.66,764.038 1156.61,903.159 1159.57,716.406 1162.53,897.727 1165.49,1160.14 1168.45,979.753 1171.4,677.956 1174.36,1052.65 1177.32,262.047 1180.28,1078.32 1183.24,616.782 1186.2,281.793 1189.15,141.709 1192.11,975.594 1195.07,624.747 1198.03,1110.53 1200.99,528.428 1203.94,1050.31 1206.9,605.986 1209.86,605.236 1212.82,485.746 1215.78,956.807 1218.73,1157.6 1221.69,278.329 1224.65,314.58 1227.61,980.771 1230.57,458.37 1233.53,605.052 1236.48,89.0209 1239.44,101.637 1242.4,803.759 1245.36,976.529 1248.32,373.12 1251.27,1113.44 1254.23,1130.84 1257.19,150.988 1260.15,571.852 1263.11,1156.61 1266.06,112.93 1269.02,696.527 1271.98,953.697 1274.94,959.327 1277.9,296.649 1280.86,159.031 1283.81,615.49 1286.77,164.816 1289.73,212.523 1292.69,265.969 1295.65,1100.68 1298.6,1092.26 1301.56,454.831 1304.52,1175.49 1307.48,767.699 1310.44,519.674 1313.39,882.925 1316.35,487.334 1319.31,1142.98 1322.27,310.874 1325.23,120.997 1328.18,920.739 1331.14,880.552 1334.1,610.912 1337.06,478.897 1340.02,522.014 1342.98,952.813 1345.93,122.108 1348.89,426.835 1351.85,876.259 1354.81,544.634 1357.77,907.278 1360.72,198.352 1363.68,1096.17 1366.64,662.581 1369.6,618.752 1372.56,1119.34 1375.51,949.436 1378.47,876.368 1381.43,903.717 1384.39,861.377 1387.35,1200.47 1390.31,936.552 1393.26,181.869 1396.22,759.157 1399.18,550.413 1402.14,579.923 1405.1,797.832 1408.05,80.8479 1411.01,571.96 1413.97,870.075 1416.93,573.704 1419.89,728.24 1422.84,595.621 1425.8,886.452 1428.76,886.369 1431.72,1182.65 1434.68,179.723 1437.64,810.545 1440.59,686.002 1443.55,1025.45 1446.51,1022.96 1449.47,769.664 1452.43,1018.08 1455.38,356.462 1458.34,707.119 1461.3,249.456 1464.26,364.388 1467.22,812.545 1470.17,378.533 1473.13,98.8439 1476.09,761.144 1479.05,623.205 1482.01,1194.3 1484.97,888.701 1487.92,1112.64 1490.88,574.505 1493.84,847.828 1496.8,91.1163 1499.76,207.105 1502.71,991.143 1505.67,332.715 1508.63,968.488 1511.59,445.89 1514.55,99.9241 1517.5,867.134 1520.46,262.517 1523.42,466.75 1526.38,558.634 1529.34,118.009 1532.29,1012.85 1535.25,1041.38 1538.21,1164.34 1541.17,1189.39 1544.13,754.491 1547.09,559.406 1550.04,197.556 1553,790.329 1555.96,647.801 1558.92,783.852 1561.88,1059.92 1564.83,575.915 1567.79,995.426 1570.75,622.298 1573.71,416.25 1576.67,99.5011 1579.62,358.225 1582.58,593.536 1585.54,1108.64 1588.5,517.693 1591.46,1115.25 1594.42,494.882 1597.37,989.367 1600.33,726.339 1603.29,914.456 1606.25,677.187 1609.21,889.026 1612.16,446.156 1615.12,943.84 1618.08,1129.49 1621.04,1136.18 1624,706.425 1626.95,709.623 1629.91,597.315 1632.87,618.743 1635.83,870.471 1638.79,977.486 1641.75,146.474 1644.7,895.698 1647.66,1134.63 1650.62,252.885 1653.58,1052.59 1656.54,627.225 1659.49,601.169 1662.45,783.067 1665.41,1184.77 1668.37,130.243 1671.33,475.358 1674.28,417.902 1677.24,338.749 1680.2,381.887 1683.16,680.337 1686.12,390.281 1689.08,151.007 1692.03,1034.7 1694.99,1115.29 1697.95,553.526 1700.91,805.431 1703.87,195.919 1706.82,1184.59 1709.78,365.642 1712.74,1116.4 1715.7,1014.89 1718.66,265.842 1721.61,1135 1724.57,928.021 1727.53,470.883 1730.49,122.407 1733.45,199.938 1736.41,381.71 1739.36,153.188 1742.32,623.425 1745.28,965.811 1748.24,1061.48 1751.2,737.787 1754.15,1064.62 1757.11,568.148 1760.07,127.776 1763.03,401.412 1765.99,581.495 1768.94,1169.26 1771.9,152.535 1774.86,525.463 1777.82,504.547 1780.78,1169.25 1783.73,612.475 1786.69,446.505 1789.65,284.988 1792.61,1141.05 1795.57,1144.36 1798.53,1122.4 1801.48,1025.16 1804.44,818.027 1807.4,1055.36 1810.36,1116.06 1813.32,1012.54 1816.27,894.969 1819.23,240.807 1822.19,231.084 1825.15,754.976 1828.11,457.069 1831.06,1146.43 1834.02,1035.34 1836.98,750.443 1839.94,684.951 1842.9,811.452 1845.86,442.065 1848.81,514.148 1851.77,1166.52 1854.73,1000.07 1857.69,1143.47 1860.65,593.314 1863.6,158.287 1866.56,1039.7 1869.52,929.392 1872.48,347.215 1875.44,588.064 1878.39,1192.76 1881.35,952.182 1884.31,148.681 1887.27,1086.89 1890.23,410.266 1893.19,568.861 1896.14,436.592 1899.1,81.8059 1902.06,410.811 1905.02,932.714 1907.98,955.575 1910.93,976.862 1913.89,1143.25 1916.85,544.631 1919.81,638.706 1922.77,1153.58 1925.72,697.074 1928.68,209.415 1931.64,102.771 1934.6,446.719 1937.56,427.135 1940.52,1161.54 1943.47,421.189 1946.43,359.163 1949.39,1200.97 1952.35,325.257 1955.31,871.803 1958.26,705.154 1961.22,511.046 1964.18,736.919 1967.14,635.008 1970.1,460.839 1973.05,539.46 1976.01,969.422 1978.97,1191.69 1981.93,714.835 1984.89,1048.21 1987.84,406.897 1990.8,703.061 1993.76,245.522 1996.72,400.972 1999.68,248.457 2002.64,765.924 2005.59,496.875 2008.55,144.301 2011.51,448.871 "/>
<path clip-path="url(#clip920)" d="M1761.48 190.502 L2002.04 190.502 L2002.04 86.8219 L1761.48 86.8219  Z" fill="#ffffff" fill-rule="evenodd" fill-opacity="1"/>
<polyline clip-path="url(#clip920)" style="stroke:#000000; stroke-linecap:round; stroke-linejoin:round; stroke-width:4; stroke-opacity:1; fill:none" points="1761.48,190.502 2002.04,190.502 2002.04,86.8219 1761.48,86.8219 1761.48,190.502 "/>
<polyline clip-path="url(#clip920)" style="stroke:#009af9; stroke-linecap:round; stroke-linejoin:round; stroke-width:4; stroke-opacity:1; fill:none" points="1782.38,138.662 1907.81,138.662 "/>
<path clip-path="url(#clip920)" d="M1942.55 158.349 Q1940.75 162.979 1939.03 164.391 Q1937.32 165.803 1934.45 165.803 L1931.05 165.803 L1931.05 162.238 L1933.55 162.238 Q1935.31 162.238 1936.28 161.405 Q1937.25 160.572 1938.43 157.47 L1939.2 155.525 L1928.71 130.016 L1933.22 130.016 L1941.33 150.294 L1949.43 130.016 L1953.94 130.016 L1942.55 158.349 Z" fill="#000000" fill-rule="nonzero" fill-opacity="1" /><path clip-path="url(#clip920)" d="M1961.23 152.007 L1968.87 152.007 L1968.87 125.641 L1960.56 127.308 L1960.56 123.049 L1968.83 121.382 L1973.5 121.382 L1973.5 152.007 L1981.14 152.007 L1981.14 155.942 L1961.23 155.942 L1961.23 152.007 Z" fill="#000000" fill-rule="nonzero" fill-opacity="1" /></svg>
