<?xml version="1.0" encoding="utf-8"?>
<svg xmlns="http://www.w3.org/2000/svg" xmlns:xlink="http://www.w3.org/1999/xlink" width="528" height="336" viewBox="0 0 2112 1344">
<defs>
  <clipPath id="clip550">
    <rect x="0" y="0" width="2112" height="1344"/>
  </clipPath>
</defs>
<path clip-path="url(#clip550)" d="M0 1344 L2112 1344 L2112 0 L0 0  Z" fill="#ffffff" fill-rule="evenodd" fill-opacity="1"/>
<defs>
  <clipPath id="clip551">
    <rect x="422" y="0" width="1479" height="1344"/>
  </clipPath>
</defs>
<path clip-path="url(#clip550)" d="M167.977 1234.58 L2064.76 1234.58 L2064.76 47.2441 L167.977 47.2441  Z" fill="#ffffff" fill-rule="evenodd" fill-opacity="1"/>
<defs>
  <clipPath id="clip552">
    <rect x="167" y="47" width="1898" height="1188"/>
  </clipPath>
</defs>
<polyline clip-path="url(#clip552)" style="stroke:#000000; stroke-linecap:round; stroke-linejoin:round; stroke-width:2; stroke-opacity:0.1; fill:none" points="221.66,1234.58 221.66,47.2441 "/>
<polyline clip-path="url(#clip552)" style="stroke:#000000; stroke-linecap:round; stroke-linejoin:round; stroke-width:2; stroke-opacity:0.1; fill:none" points="519.895,1234.58 519.895,47.2441 "/>
<polyline clip-path="url(#clip552)" style="stroke:#000000; stroke-linecap:round; stroke-linejoin:round; stroke-width:2; stroke-opacity:0.1; fill:none" points="818.131,1234.58 818.131,47.2441 "/>
<polyline clip-path="url(#clip552)" style="stroke:#000000; stroke-linecap:round; stroke-linejoin:round; stroke-width:2; stroke-opacity:0.1; fill:none" points="1116.37,1234.58 1116.37,47.2441 "/>
<polyline clip-path="url(#clip552)" style="stroke:#000000; stroke-linecap:round; stroke-linejoin:round; stroke-width:2; stroke-opacity:0.1; fill:none" points="1414.6,1234.58 1414.6,47.2441 "/>
<polyline clip-path="url(#clip552)" style="stroke:#000000; stroke-linecap:round; stroke-linejoin:round; stroke-width:2; stroke-opacity:0.1; fill:none" points="1712.84,1234.58 1712.84,47.2441 "/>
<polyline clip-path="url(#clip552)" style="stroke:#000000; stroke-linecap:round; stroke-linejoin:round; stroke-width:2; stroke-opacity:0.1; fill:none" points="2011.07,1234.58 2011.07,47.2441 "/>
<polyline clip-path="url(#clip550)" style="stroke:#000000; stroke-linecap:round; stroke-linejoin:round; stroke-width:4; stroke-opacity:1; fill:none" points="167.977,1234.58 2064.76,1234.58 "/>
<polyline clip-path="url(#clip550)" style="stroke:#000000; stroke-linecap:round; stroke-linejoin:round; stroke-width:4; stroke-opacity:1; fill:none" points="221.66,1234.58 221.66,1215.68 "/>
<polyline clip-path="url(#clip550)" style="stroke:#000000; stroke-linecap:round; stroke-linejoin:round; stroke-width:4; stroke-opacity:1; fill:none" points="519.895,1234.58 519.895,1215.68 "/>
<polyline clip-path="url(#clip550)" style="stroke:#000000; stroke-linecap:round; stroke-linejoin:round; stroke-width:4; stroke-opacity:1; fill:none" points="818.131,1234.58 818.131,1215.68 "/>
<polyline clip-path="url(#clip550)" style="stroke:#000000; stroke-linecap:round; stroke-linejoin:round; stroke-width:4; stroke-opacity:1; fill:none" points="1116.37,1234.58 1116.37,1215.68 "/>
<polyline clip-path="url(#clip550)" style="stroke:#000000; stroke-linecap:round; stroke-linejoin:round; stroke-width:4; stroke-opacity:1; fill:none" points="1414.6,1234.58 1414.6,1215.68 "/>
<polyline clip-path="url(#clip550)" style="stroke:#000000; stroke-linecap:round; stroke-linejoin:round; stroke-width:4; stroke-opacity:1; fill:none" points="1712.84,1234.58 1712.84,1215.68 "/>
<polyline clip-path="url(#clip550)" style="stroke:#000000; stroke-linecap:round; stroke-linejoin:round; stroke-width:4; stroke-opacity:1; fill:none" points="2011.07,1234.58 2011.07,1215.68 "/>
<path clip-path="url(#clip550)" d="M191.128 1277.85 L220.803 1277.85 L220.803 1281.78 L191.128 1281.78 L191.128 1277.85 Z" fill="#000000" fill-rule="nonzero" fill-opacity="1" /><path clip-path="url(#clip550)" d="M245.062 1276.04 Q248.419 1276.76 250.294 1279.03 Q252.192 1281.3 252.192 1284.63 Q252.192 1289.74 248.674 1292.55 Q245.155 1295.35 238.674 1295.35 Q236.498 1295.35 234.183 1294.91 Q231.891 1294.49 229.438 1293.63 L229.438 1289.12 Q231.382 1290.25 233.697 1290.83 Q236.012 1291.41 238.535 1291.41 Q242.933 1291.41 245.225 1289.67 Q247.539 1287.94 247.539 1284.63 Q247.539 1281.57 245.387 1279.86 Q243.257 1278.12 239.438 1278.12 L235.41 1278.12 L235.41 1274.28 L239.623 1274.28 Q243.072 1274.28 244.9 1272.92 Q246.729 1271.53 246.729 1268.93 Q246.729 1266.27 244.831 1264.86 Q242.956 1263.42 239.438 1263.42 Q237.516 1263.42 235.317 1263.84 Q233.118 1264.26 230.479 1265.14 L230.479 1260.97 Q233.141 1260.23 235.456 1259.86 Q237.794 1259.49 239.854 1259.49 Q245.178 1259.49 248.28 1261.92 Q251.382 1264.33 251.382 1268.45 Q251.382 1271.32 249.738 1273.31 Q248.095 1275.28 245.062 1276.04 Z" fill="#000000" fill-rule="nonzero" fill-opacity="1" /><path clip-path="url(#clip550)" d="M489.838 1277.85 L519.513 1277.85 L519.513 1281.78 L489.838 1281.78 L489.838 1277.85 Z" fill="#000000" fill-rule="nonzero" fill-opacity="1" /><path clip-path="url(#clip550)" d="M533.634 1290.74 L549.953 1290.74 L549.953 1294.67 L528.009 1294.67 L528.009 1290.74 Q530.671 1287.99 535.254 1283.36 Q539.861 1278.7 541.041 1277.36 Q543.287 1274.84 544.166 1273.1 Q545.069 1271.34 545.069 1269.65 Q545.069 1266.9 543.124 1265.16 Q541.203 1263.42 538.101 1263.42 Q535.902 1263.42 533.449 1264.19 Q531.018 1264.95 528.24 1266.5 L528.24 1261.78 Q531.064 1260.65 533.518 1260.07 Q535.972 1259.49 538.009 1259.49 Q543.379 1259.49 546.574 1262.17 Q549.768 1264.86 549.768 1269.35 Q549.768 1271.48 548.958 1273.4 Q548.171 1275.3 546.064 1277.89 Q545.486 1278.56 542.384 1281.78 Q539.282 1284.98 533.634 1290.74 Z" fill="#000000" fill-rule="nonzero" fill-opacity="1" /><path clip-path="url(#clip550)" d="M787.888 1277.85 L817.564 1277.85 L817.564 1281.78 L787.888 1281.78 L787.888 1277.85 Z" fill="#000000" fill-rule="nonzero" fill-opacity="1" /><path clip-path="url(#clip550)" d="M828.467 1290.74 L836.105 1290.74 L836.105 1264.37 L827.795 1266.04 L827.795 1261.78 L836.059 1260.11 L840.735 1260.11 L840.735 1290.74 L848.374 1290.74 L848.374 1294.67 L828.467 1294.67 L828.467 1290.74 Z" fill="#000000" fill-rule="nonzero" fill-opacity="1" /><path clip-path="url(#clip550)" d="M1116.37 1263.19 Q1112.76 1263.19 1110.93 1266.76 Q1109.12 1270.3 1109.12 1277.43 Q1109.12 1284.54 1110.93 1288.1 Q1112.76 1291.64 1116.37 1291.64 Q1120 1291.64 1121.81 1288.1 Q1123.64 1284.54 1123.64 1277.43 Q1123.64 1270.3 1121.81 1266.76 Q1120 1263.19 1116.37 1263.19 M1116.37 1259.49 Q1122.18 1259.49 1125.23 1264.1 Q1128.31 1268.68 1128.31 1277.43 Q1128.31 1286.16 1125.23 1290.76 Q1122.18 1295.35 1116.37 1295.35 Q1110.56 1295.35 1107.48 1290.76 Q1104.42 1286.16 1104.42 1277.43 Q1104.42 1268.68 1107.48 1264.1 Q1110.56 1259.49 1116.37 1259.49 Z" fill="#000000" fill-rule="nonzero" fill-opacity="1" /><path clip-path="url(#clip550)" d="M1404.98 1290.74 L1412.62 1290.74 L1412.62 1264.37 L1404.31 1266.04 L1404.31 1261.78 L1412.58 1260.11 L1417.25 1260.11 L1417.25 1290.74 L1424.89 1290.74 L1424.89 1294.67 L1404.98 1294.67 L1404.98 1290.74 Z" fill="#000000" fill-rule="nonzero" fill-opacity="1" /><path clip-path="url(#clip550)" d="M1707.49 1290.74 L1723.81 1290.74 L1723.81 1294.67 L1701.87 1294.67 L1701.87 1290.74 Q1704.53 1287.99 1709.11 1283.36 Q1713.72 1278.7 1714.9 1277.36 Q1717.14 1274.84 1718.02 1273.1 Q1718.93 1271.34 1718.93 1269.65 Q1718.93 1266.9 1716.98 1265.16 Q1715.06 1263.42 1711.96 1263.42 Q1709.76 1263.42 1707.31 1264.19 Q1704.87 1264.95 1702.1 1266.5 L1702.1 1261.78 Q1704.92 1260.65 1707.37 1260.07 Q1709.83 1259.49 1711.87 1259.49 Q1717.24 1259.49 1720.43 1262.17 Q1723.62 1264.86 1723.62 1269.35 Q1723.62 1271.48 1722.81 1273.4 Q1722.03 1275.3 1719.92 1277.89 Q1719.34 1278.56 1716.24 1281.78 Q1713.14 1284.98 1707.49 1290.74 Z" fill="#000000" fill-rule="nonzero" fill-opacity="1" /><path clip-path="url(#clip550)" d="M2015.32 1276.04 Q2018.68 1276.76 2020.55 1279.03 Q2022.45 1281.3 2022.45 1284.63 Q2022.45 1289.74 2018.93 1292.55 Q2015.41 1295.35 2008.93 1295.35 Q2006.76 1295.35 2004.44 1294.91 Q2002.15 1294.49 1999.7 1293.63 L1999.7 1289.12 Q2001.64 1290.25 2003.96 1290.83 Q2006.27 1291.41 2008.79 1291.41 Q2013.19 1291.41 2015.48 1289.67 Q2017.8 1287.94 2017.8 1284.63 Q2017.8 1281.57 2015.65 1279.86 Q2013.52 1278.12 2009.7 1278.12 L2005.67 1278.12 L2005.67 1274.28 L2009.88 1274.28 Q2013.33 1274.28 2015.16 1272.92 Q2016.99 1271.53 2016.99 1268.93 Q2016.99 1266.27 2015.09 1264.86 Q2013.21 1263.42 2009.7 1263.42 Q2007.77 1263.42 2005.58 1263.84 Q2003.38 1264.26 2000.74 1265.14 L2000.74 1260.97 Q2003.4 1260.23 2005.71 1259.86 Q2008.05 1259.49 2010.11 1259.49 Q2015.44 1259.49 2018.54 1261.92 Q2021.64 1264.33 2021.64 1268.45 Q2021.64 1271.32 2020 1273.31 Q2018.35 1275.28 2015.32 1276.04 Z" fill="#000000" fill-rule="nonzero" fill-opacity="1" /><polyline clip-path="url(#clip552)" style="stroke:#000000; stroke-linecap:round; stroke-linejoin:round; stroke-width:2; stroke-opacity:0.1; fill:none" points="167.977,1201.61 2064.76,1201.61 "/>
<polyline clip-path="url(#clip552)" style="stroke:#000000; stroke-linecap:round; stroke-linejoin:round; stroke-width:2; stroke-opacity:0.1; fill:none" points="167.977,837.373 2064.76,837.373 "/>
<polyline clip-path="url(#clip552)" style="stroke:#000000; stroke-linecap:round; stroke-linejoin:round; stroke-width:2; stroke-opacity:0.1; fill:none" points="167.977,473.136 2064.76,473.136 "/>
<polyline clip-path="url(#clip552)" style="stroke:#000000; stroke-linecap:round; stroke-linejoin:round; stroke-width:2; stroke-opacity:0.1; fill:none" points="167.977,108.899 2064.76,108.899 "/>
<polyline clip-path="url(#clip550)" style="stroke:#000000; stroke-linecap:round; stroke-linejoin:round; stroke-width:4; stroke-opacity:1; fill:none" points="167.977,1234.58 167.977,47.2441 "/>
<polyline clip-path="url(#clip550)" style="stroke:#000000; stroke-linecap:round; stroke-linejoin:round; stroke-width:4; stroke-opacity:1; fill:none" points="167.977,1201.61 186.875,1201.61 "/>
<polyline clip-path="url(#clip550)" style="stroke:#000000; stroke-linecap:round; stroke-linejoin:round; stroke-width:4; stroke-opacity:1; fill:none" points="167.977,837.373 186.875,837.373 "/>
<polyline clip-path="url(#clip550)" style="stroke:#000000; stroke-linecap:round; stroke-linejoin:round; stroke-width:4; stroke-opacity:1; fill:none" points="167.977,473.136 186.875,473.136 "/>
<polyline clip-path="url(#clip550)" style="stroke:#000000; stroke-linecap:round; stroke-linejoin:round; stroke-width:4; stroke-opacity:1; fill:none" points="167.977,108.899 186.875,108.899 "/>
<path clip-path="url(#clip550)" d="M124.353 1187.41 Q120.742 1187.41 118.913 1190.97 Q117.108 1194.51 117.108 1201.64 Q117.108 1208.75 118.913 1212.32 Q120.742 1215.86 124.353 1215.86 Q127.987 1215.86 129.793 1212.32 Q131.622 1208.75 131.622 1201.64 Q131.622 1194.51 129.793 1190.97 Q127.987 1187.41 124.353 1187.41 M124.353 1183.7 Q130.163 1183.7 133.219 1188.31 Q136.297 1192.89 136.297 1201.64 Q136.297 1210.37 133.219 1214.98 Q130.163 1219.56 124.353 1219.56 Q118.543 1219.56 115.464 1214.98 Q112.409 1210.37 112.409 1201.64 Q112.409 1192.89 115.464 1188.31 Q118.543 1183.7 124.353 1183.7 Z" fill="#000000" fill-rule="nonzero" fill-opacity="1" /><path clip-path="url(#clip550)" d="M54.8395 850.717 L62.4784 850.717 L62.4784 824.352 L54.1682 826.019 L54.1682 821.759 L62.4321 820.093 L67.108 820.093 L67.108 850.717 L74.7468 850.717 L74.7468 854.653 L54.8395 854.653 L54.8395 850.717 Z" fill="#000000" fill-rule="nonzero" fill-opacity="1" /><path clip-path="url(#clip550)" d="M94.1912 823.171 Q90.5801 823.171 88.7514 826.736 Q86.9458 830.278 86.9458 837.407 Q86.9458 844.514 88.7514 848.079 Q90.5801 851.62 94.1912 851.62 Q97.8254 851.62 99.6309 848.079 Q101.46 844.514 101.46 837.407 Q101.46 830.278 99.6309 826.736 Q97.8254 823.171 94.1912 823.171 M94.1912 819.468 Q100.001 819.468 103.057 824.074 Q106.136 828.657 106.136 837.407 Q106.136 846.134 103.057 850.741 Q100.001 855.324 94.1912 855.324 Q88.381 855.324 85.3023 850.741 Q82.2468 846.134 82.2468 837.407 Q82.2468 828.657 85.3023 824.074 Q88.381 819.468 94.1912 819.468 Z" fill="#000000" fill-rule="nonzero" fill-opacity="1" /><path clip-path="url(#clip550)" d="M124.353 823.171 Q120.742 823.171 118.913 826.736 Q117.108 830.278 117.108 837.407 Q117.108 844.514 118.913 848.079 Q120.742 851.62 124.353 851.62 Q127.987 851.62 129.793 848.079 Q131.622 844.514 131.622 837.407 Q131.622 830.278 129.793 826.736 Q127.987 823.171 124.353 823.171 M124.353 819.468 Q130.163 819.468 133.219 824.074 Q136.297 828.657 136.297 837.407 Q136.297 846.134 133.219 850.741 Q130.163 855.324 124.353 855.324 Q118.543 855.324 115.464 850.741 Q112.409 846.134 112.409 837.407 Q112.409 828.657 115.464 824.074 Q118.543 819.468 124.353 819.468 Z" fill="#000000" fill-rule="nonzero" fill-opacity="1" /><path clip-path="url(#clip550)" d="M58.0571 486.48 L74.3765 486.48 L74.3765 490.416 L52.4321 490.416 L52.4321 486.48 Q55.0941 483.726 59.6775 479.096 Q64.2839 474.444 65.4645 473.101 Q67.7098 470.578 68.5894 468.842 Q69.4922 467.082 69.4922 465.393 Q69.4922 462.638 67.5478 460.902 Q65.6265 459.166 62.5247 459.166 Q60.3256 459.166 57.8719 459.93 Q55.4414 460.694 52.6636 462.245 L52.6636 457.522 Q55.4877 456.388 57.9414 455.809 Q60.395 455.231 62.4321 455.231 Q67.8024 455.231 70.9968 457.916 Q74.1913 460.601 74.1913 465.092 Q74.1913 467.221 73.3811 469.143 Q72.5941 471.041 70.4876 473.633 Q69.9089 474.305 66.807 477.522 Q63.7052 480.717 58.0571 486.48 Z" fill="#000000" fill-rule="nonzero" fill-opacity="1" /><path clip-path="url(#clip550)" d="M94.1912 458.934 Q90.5801 458.934 88.7514 462.499 Q86.9458 466.041 86.9458 473.17 Q86.9458 480.277 88.7514 483.842 Q90.5801 487.383 94.1912 487.383 Q97.8254 487.383 99.6309 483.842 Q101.46 480.277 101.46 473.17 Q101.46 466.041 99.6309 462.499 Q97.8254 458.934 94.1912 458.934 M94.1912 455.231 Q100.001 455.231 103.057 459.837 Q106.136 464.42 106.136 473.17 Q106.136 481.897 103.057 486.504 Q100.001 491.087 94.1912 491.087 Q88.381 491.087 85.3023 486.504 Q82.2468 481.897 82.2468 473.17 Q82.2468 464.42 85.3023 459.837 Q88.381 455.231 94.1912 455.231 Z" fill="#000000" fill-rule="nonzero" fill-opacity="1" /><path clip-path="url(#clip550)" d="M124.353 458.934 Q120.742 458.934 118.913 462.499 Q117.108 466.041 117.108 473.17 Q117.108 480.277 118.913 483.842 Q120.742 487.383 124.353 487.383 Q127.987 487.383 129.793 483.842 Q131.622 480.277 131.622 473.17 Q131.622 466.041 129.793 462.499 Q127.987 458.934 124.353 458.934 M124.353 455.231 Q130.163 455.231 133.219 459.837 Q136.297 464.42 136.297 473.17 Q136.297 481.897 133.219 486.504 Q130.163 491.087 124.353 491.087 Q118.543 491.087 115.464 486.504 Q112.409 481.897 112.409 473.17 Q112.409 464.42 115.464 459.837 Q118.543 455.231 124.353 455.231 Z" fill="#000000" fill-rule="nonzero" fill-opacity="1" /><path clip-path="url(#clip550)" d="M68.1959 107.545 Q71.5524 108.262 73.4274 110.531 Q75.3255 112.799 75.3255 116.132 Q75.3255 121.248 71.807 124.049 Q68.2885 126.85 61.8071 126.85 Q59.6312 126.85 57.3164 126.41 Q55.0247 125.993 52.571 125.137 L52.571 120.623 Q54.5154 121.757 56.8303 122.336 Q59.1451 122.915 61.6682 122.915 Q66.0663 122.915 68.358 121.179 Q70.6728 119.443 70.6728 116.132 Q70.6728 113.077 68.52 111.364 Q66.3904 109.628 62.571 109.628 L58.5432 109.628 L58.5432 105.785 L62.7561 105.785 Q66.2052 105.785 68.0339 104.42 Q69.8626 103.031 69.8626 100.438 Q69.8626 97.776 67.9645 96.364 Q66.0895 94.9288 62.571 94.9288 Q60.6497 94.9288 58.4506 95.3455 Q56.2515 95.7622 53.6127 96.6418 L53.6127 92.4751 Q56.2747 91.7344 58.5895 91.364 Q60.9275 90.9937 62.9876 90.9937 Q68.3117 90.9937 71.4135 93.4242 Q74.5153 95.8316 74.5153 99.952 Q74.5153 102.822 72.8718 104.813 Q71.2283 106.781 68.1959 107.545 Z" fill="#000000" fill-rule="nonzero" fill-opacity="1" /><path clip-path="url(#clip550)" d="M94.1912 94.6973 Q90.5801 94.6973 88.7514 98.2621 Q86.9458 101.804 86.9458 108.933 Q86.9458 116.04 88.7514 119.605 Q90.5801 123.146 94.1912 123.146 Q97.8254 123.146 99.6309 119.605 Q101.46 116.04 101.46 108.933 Q101.46 101.804 99.6309 98.2621 Q97.8254 94.6973 94.1912 94.6973 M94.1912 90.9937 Q100.001 90.9937 103.057 95.6001 Q106.136 100.183 106.136 108.933 Q106.136 117.66 103.057 122.267 Q100.001 126.85 94.1912 126.85 Q88.381 126.85 85.3023 122.267 Q82.2468 117.66 82.2468 108.933 Q82.2468 100.183 85.3023 95.6001 Q88.381 90.9937 94.1912 90.9937 Z" fill="#000000" fill-rule="nonzero" fill-opacity="1" /><path clip-path="url(#clip550)" d="M124.353 94.6973 Q120.742 94.6973 118.913 98.2621 Q117.108 101.804 117.108 108.933 Q117.108 116.04 118.913 119.605 Q120.742 123.146 124.353 123.146 Q127.987 123.146 129.793 119.605 Q131.622 116.04 131.622 108.933 Q131.622 101.804 129.793 98.2621 Q127.987 94.6973 124.353 94.6973 M124.353 90.9937 Q130.163 90.9937 133.219 95.6001 Q136.297 100.183 136.297 108.933 Q136.297 117.66 133.219 122.267 Q130.163 126.85 124.353 126.85 Q118.543 126.85 115.464 122.267 Q112.409 117.66 112.409 108.933 Q112.409 100.183 115.464 95.6001 Q118.543 90.9937 124.353 90.9937 Z" fill="#000000" fill-rule="nonzero" fill-opacity="1" /><polyline clip-path="url(#clip552)" style="stroke:#009af9; stroke-linecap:round; stroke-linejoin:round; stroke-width:4; stroke-opacity:1; fill:none" points="221.66,1200.97 224.642,1198.01 227.625,1197.78 230.607,1195.99 233.589,1195.73 236.572,1194.91 239.554,1194.82 242.536,1193.49 245.519,1190.53 248.501,1188.39 251.483,1188 254.466,1185.74 257.448,1184.63 260.43,1183.54 263.413,1181.23 266.395,1181.07 269.378,1179.39 272.36,1177.98 275.342,1177.59 278.325,1177.26 281.307,1174.96 284.289,1173.25 287.272,1170.96 290.254,1168.26 293.236,1165.13 296.219,1162.14 299.201,1160.72 302.183,1159.36 305.166,1155.93 308.148,1152.51 311.131,1151.4 314.113,1151.29 317.095,1150.61 320.078,1150.45 323.06,1148.5 326.042,1148.33 329.025,1148.17 332.007,1145.98 334.989,1142.49 337.972,1138.92 340.954,1135.31 343.936,1132.6 346.919,1130.29 349.901,1128.38 352.883,1125.04 355.866,1122.86 358.848,1121.79 361.831,1119.81 364.813,1118.51 367.795,1116.45 370.778,1115.18 373.76,1112.78 376.742,1112.16 379.725,1109.93 382.707,1107.62 385.689,1107.2 388.672,1103.89 391.654,1100.98 394.636,1099.32 397.619,1096.34 400.601,1094.2 403.584,1093.02 406.566,1089.71 409.548,1086.54 412.531,1083.17 415.513,1081.03 418.495,1079.77 421.478,1077.95 424.46,1076 427.442,1074.33 430.425,1073.3 433.407,1071.32 436.389,1069.9 439.372,1067.04 442.354,1066.09 445.337,1065.92 448.319,1063.49 451.301,1062.87 454.284,1060.75 457.266,1060.5 460.248,1057.71 463.231,1057.6 466.213,1054.2 469.195,1053.81 472.178,1051.29 475.16,1047.75 478.142,1044.82 481.125,1044.41 484.107,1041.28 487.09,1039.2 490.072,1036.8 493.054,1035.03 496.037,1032.58 499.019,1032.15 502.001,1029.58 504.984,1026.02 507.966,1025.21 510.948,1023.66 513.931,1020.43 516.913,1018.15 519.895,1016.47 522.878,1014.31 525.86,1011.8 528.843,1009.1 531.825,1007.73 534.807,1007.51 537.79,1005.49 540.772,1005.41 543.754,1001.88 546.737,1001.56 549.719,997.973 552.701,996.592 555.684,994.067 558.666,993.817 561.648,990.885 564.631,988.718 567.613,986.421 570.595,983.687 573.578,982.828 576.56,982.265 579.543,979.883 582.525,977.881 585.507,974.507 588.49,973.646 591.472,970.294 594.454,967.749 597.437,964.264 600.419,962.991 603.401,960.321 606.384,959.163 609.366,956.56 612.348,954.646 615.331,951.596 618.313,951.527 621.296,949.723 624.278,948.823 627.26,948.606 630.243,948.353 633.225,947.726 636.207,947.686 639.19,946.433 642.172,944.089 645.154,940.636 648.137,938.467 651.119,937.412 654.101,936.02 657.084,934.158 660.066,932.723 663.049,932.021 666.031,929.166 669.013,927.625 671.996,927.235 674.978,925.43 677.96,923.254 680.943,922.622 683.925,921.693 686.907,918.768 689.89,915.48 692.872,913.889 695.854,912.591 698.837,909.211 701.819,907.935 704.802,906.108 707.784,902.593 710.766,899.496 713.749,897.209 716.731,895.047 719.713,891.868 722.696,889.917 725.678,889.374 728.66,888.462 731.643,885.684 734.625,883.453 737.607,882.488 740.59,880.09 743.572,876.7 746.555,873.246 749.537,872.414 752.519,870.044 755.502,868.664 758.484,868.274 761.466,865.64 764.449,862.975 767.431,861.109 770.413,857.974 773.396,854.817 776.378,854.781 779.36,852.273 782.343,848.684 785.325,847.353 788.307,845.853 791.29,842.231 794.272,840.949 797.255,839.906 800.237,838.92 803.219,838.084 806.202,837.968 809.184,835.535 812.166,831.954 815.149,829.571 818.131,826.602 821.113,823.477 824.096,820.213 827.078,820.108 830.06,816.863 833.043,814.446 836.025,813.253 839.008,812.631 841.99,809.013 844.972,808.577 847.955,808.033 850.937,807.887 853.919,807.565 856.902,804.133 859.884,803.068 862.866,800.46 865.849,799.086 868.831,798.577 871.813,797.843 874.796,797.502 877.778,794.29 880.761,790.943 883.743,789.482 886.725,785.983 889.708,785.18 892.69,783.542 895.672,780.169 898.655,776.778 901.637,773.531 904.619,770.748 907.602,768.486 910.584,765.44 913.566,765.341 916.549,764.923 919.531,764.147 922.514,761.671 925.496,758.72 928.478,757.727 931.461,754.899 934.443,751.827 937.425,751.089 940.408,748.69 943.39,745.205 946.372,743.633 949.355,742.647 952.337,740.128 955.319,736.854 958.302,736.537 961.284,736.175 964.266,732.584 967.249,731.131 970.231,728.791 973.214,728.263 976.196,727.404 979.178,727.281 982.161,724.555 985.143,721.033 988.125,720.321 991.108,719.929 994.09,719.796 997.072,716.848 1000.05,716.374 1003.04,713.86 1006.02,713.782 1009,712.629 1011.98,709.122 1014.97,705.635 1017.95,705.184 1020.93,704.371 1023.91,700.953 1026.9,700.948 1029.88,698.22 1032.86,695.173 1035.84,693.467 1038.83,693.383 1041.81,690.196 1044.79,686.933 1047.77,684.24 1050.75,682.535 1053.74,679.352 1056.72,676.026 1059.7,674.581 1062.68,673.684 1065.67,672.528 1068.65,672.121 1071.63,671.69 1074.61,671.581 1077.6,671.197 1080.58,668.679 1083.56,667.247 1086.54,666.351 1089.53,664.841 1092.51,663.845 1095.49,661.806 1098.47,661.495 1101.45,657.959 1104.44,655.877 1107.42,652.671 1110.4,649.052 1113.38,646.847 1116.37,645.954 1119.35,643.174 1122.33,640.176 1125.31,638.041 1128.3,635.604 1131.28,635.297 1134.26,632.233 1137.24,630.913 1140.23,630.715 1143.21,627.315 1146.19,625.104 1149.17,622.878 1152.15,620.646 1155.14,618.976 1158.12,616.729 1161.1,614.833 1164.08,612.281 1167.07,609.475 1170.05,606.047 1173.03,602.964 1176.01,599.686 1179,596.097 1181.98,593.32 1184.96,591.297 1187.94,589.85 1190.93,586.74 1193.91,585.46 1196.89,582.835 1199.87,580.283 1202.85,579.39 1205.84,576.069 1208.82,574.46 1211.8,573.978 1214.78,573.944 1217.77,571.65 1220.75,568.08 1223.73,567.548 1226.71,565.35 1229.7,564.222 1232.68,561.758 1235.66,560.527 1238.64,560.411 1241.63,559.999 1244.61,557.039 1247.59,555.33 1250.57,551.956 1253.56,551.941 1256.54,550.411 1259.52,548.572 1262.5,546.032 1265.48,542.628 1268.47,539.086 1271.45,538.466 1274.43,535.038 1277.41,533.112 1280.4,529.967 1283.38,526.635 1286.36,523.076 1289.34,522.555 1292.33,520.777 1295.31,518.086 1298.29,515.878 1301.27,514.65 1304.26,511.775 1307.24,511.346 1310.22,509.643 1313.2,507.982 1316.18,506.703 1319.17,504.737 1322.15,503.33 1325.13,500.994 1328.11,497.505 1331.1,495.069 1334.08,494.286 1337.06,491.892 1340.04,489.997 1343.03,487.345 1346.01,484.757 1348.99,482.619 1351.97,481.684 1354.96,478.667 1357.94,478.338 1360.92,476.633 1363.9,475.656 1366.88,474.946 1369.87,473.575 1372.85,472.945 1375.83,469.749 1378.81,468.646 1381.8,465.708 1384.78,465.638 1387.76,462.809 1390.74,460.094 1393.73,459.483 1396.71,455.944 1399.69,454.037 1402.67,451.019 1405.66,447.998 1408.64,447.122 1411.62,444.824 1414.6,443.583 1417.58,442 1420.57,438.533 1423.55,437.226 1426.53,434.285 1429.51,432.256 1432.5,429.384 1435.48,427.43 1438.46,424.979 1441.44,424.739 1444.43,424.354 1447.41,421.567 1450.39,420.616 1453.37,418.418 1456.36,416.1 1459.34,415.655 1462.32,412.246 1465.3,410.483 1468.28,407.647 1471.27,406.063 1474.25,404.464 1477.23,402.489 1480.21,400.903 1483.2,399.305 1486.18,398.059 1489.16,396.363 1492.14,395.64 1495.13,392.618 1498.11,389.706 1501.09,386.196 1504.07,384.78 1507.06,381.437 1510.04,379.35 1513.02,379.083 1516,375.824 1518.98,373.888 1521.97,372.203 1524.95,371.179 1527.93,367.687 1530.91,366.359 1533.9,364.499 1536.88,362.898 1539.86,360.367 1542.84,358.015 1545.83,356.893 1548.81,354.687 1551.79,352.263 1554.77,351.095 1557.76,348.752 1560.74,346.241 1563.72,343.529 1566.7,343.209 1569.68,339.677 1572.67,339.361 1575.65,337.102 1578.63,335.461 1581.61,333.611 1584.6,333.386 1587.58,331.913 1590.56,329.1 1593.54,327.379 1596.53,327.008 1599.51,324.981 1602.49,322.236 1605.47,320.891 1608.46,320.445 1611.44,318.921 1614.42,315.68 1617.4,312.624 1620.38,309.925 1623.37,307.348 1626.35,306.162 1629.33,302.687 1632.31,300.441 1635.3,299.474 1638.28,298.554 1641.26,297.536 1644.24,294.901 1647.23,292.225 1650.21,291.577 1653.19,291.048 1656.17,290.485 1659.16,288.744 1662.14,287.483 1665.12,287.311 1668.1,285.018 1671.08,284.402 1674.07,280.865 1677.05,277.638 1680.03,276.767 1683.01,274.257 1686,274.209 1688.98,273.146 1691.96,272.603 1694.94,271.147 1697.93,270.026 1700.91,267.967 1703.89,266.285 1706.87,264.727 1709.86,263.341 1712.84,261.016 1715.82,258.653 1718.8,256.655 1721.78,255.448 1724.77,254.062 1727.75,252.394 1730.73,252.273 1733.71,251.989 1736.7,251.702 1739.68,250.737 1742.66,248.929 1745.64,247.992 1748.63,247.257 1751.61,245.781 1754.59,243.902 1757.57,243.787 1760.56,240.506 1763.54,239.471 1766.52,238.543 1769.5,235.099 1772.49,234.218 1775.47,230.843 1778.45,229.786 1781.43,227.811 1784.41,224.949 1787.4,222.882 1790.38,222.74 1793.36,219.978 1796.34,216.544 1799.33,216.316 1802.31,212.693 1805.29,209.7 1808.27,209.408 1811.26,207.983 1814.24,205.696 1817.22,203.56 1820.2,200.812 1823.19,198.928 1826.17,197.229 1829.15,195.879 1832.13,195.157 1835.11,192.207 1838.1,188.711 1841.08,188.587 1844.06,185.236 1847.04,184.062 1850.03,180.886 1853.01,178.754 1855.99,175.24 1858.97,174.8 1861.96,172.554 1864.94,171.737 1867.92,171.57 1870.9,170.822 1873.89,170.762 1876.87,167.896 1879.85,164.428 1882.83,163.455 1885.81,160.019 1888.8,158.664 1891.78,155.903 1894.76,153.034 1897.74,151.598 1900.73,151.118 1903.71,148.693 1906.69,147.741 1909.67,147.323 1912.66,145.162 1915.64,142.629 1918.62,142.378 1921.6,141.765 1924.59,141.757 1927.57,140.352 1930.55,138.7 1933.53,136.93 1936.51,135.203 1939.5,134.752 1942.48,132.494 1945.46,129.415 1948.44,126.592 1951.43,123.373 1954.41,121.739 1957.39,118.178 1960.37,116.631 1963.36,116.122 1966.34,113.394 1969.32,110.577 1972.3,107.259 1975.29,106.123 1978.27,102.483 1981.25,102.107 1984.23,101.17 1987.21,99.0324 1990.2,97.1396 1993.18,95.4373 1996.16,92.9304 1999.14,90.8247 2002.13,87.7702 2005.11,85.4772 2008.09,83.2387 2011.07,80.8479 "/>
<path clip-path="url(#clip550)" d="M231.203 190.502 L473.311 190.502 L473.311 86.8219 L231.203 86.8219  Z" fill="#ffffff" fill-rule="evenodd" fill-opacity="1"/>
<polyline clip-path="url(#clip550)" style="stroke:#000000; stroke-linecap:round; stroke-linejoin:round; stroke-width:4; stroke-opacity:1; fill:none" points="231.203,190.502 473.311,190.502 473.311,86.8219 231.203,86.8219 231.203,190.502 "/>
<polyline clip-path="url(#clip550)" style="stroke:#009af9; stroke-linecap:round; stroke-linejoin:round; stroke-width:4; stroke-opacity:1; fill:none" points="252.279,138.662 378.731,138.662 "/>
<path clip-path="url(#clip550)" d="M413.648 158.349 Q411.843 162.979 410.13 164.391 Q408.417 165.803 405.547 165.803 L402.144 165.803 L402.144 162.238 L404.644 162.238 Q406.403 162.238 407.375 161.405 Q408.348 160.572 409.528 157.47 L410.292 155.525 L399.806 130.016 L404.32 130.016 L412.422 150.294 L420.523 130.016 L425.037 130.016 L413.648 158.349 Z" fill="#000000" fill-rule="nonzero" fill-opacity="1" /><path clip-path="url(#clip550)" d="M432.329 152.007 L439.968 152.007 L439.968 125.641 L431.658 127.308 L431.658 123.049 L439.921 121.382 L444.597 121.382 L444.597 152.007 L452.236 152.007 L452.236 155.942 L432.329 155.942 L432.329 152.007 Z" fill="#000000" fill-rule="nonzero" fill-opacity="1" /></svg>
