<?xml version="1.0" encoding="utf-8"?>
<svg xmlns="http://www.w3.org/2000/svg" xmlns:xlink="http://www.w3.org/1999/xlink" width="528" height="336" viewBox="0 0 2112 1344">
<defs>
  <clipPath id="clip130">
    <rect x="0" y="0" width="2112" height="1344"/>
  </clipPath>
</defs>
<path clip-path="url(#clip130)" d="M0 1344 L2112 1344 L2112 0 L0 0  Z" fill="#ffffff" fill-rule="evenodd" fill-opacity="1"/>
<defs>
  <clipPath id="clip131">
    <rect x="422" y="0" width="1479" height="1344"/>
  </clipPath>
</defs>
<path clip-path="url(#clip130)" d="M167.977 1234.58 L2064.76 1234.58 L2064.76 47.2441 L167.977 47.2441  Z" fill="#ffffff" fill-rule="evenodd" fill-opacity="1"/>
<defs>
  <clipPath id="clip132">
    <rect x="167" y="47" width="1898" height="1188"/>
  </clipPath>
</defs>
<polyline clip-path="url(#clip132)" style="stroke:#000000; stroke-linecap:round; stroke-linejoin:round; stroke-width:2; stroke-opacity:0.1; fill:none" points="221.66,1234.58 221.66,47.2441 "/>
<polyline clip-path="url(#clip132)" style="stroke:#000000; stroke-linecap:round; stroke-linejoin:round; stroke-width:2; stroke-opacity:0.1; fill:none" points="519.895,1234.58 519.895,47.2441 "/>
<polyline clip-path="url(#clip132)" style="stroke:#000000; stroke-linecap:round; stroke-linejoin:round; stroke-width:2; stroke-opacity:0.1; fill:none" points="818.131,1234.58 818.131,47.2441 "/>
<polyline clip-path="url(#clip132)" style="stroke:#000000; stroke-linecap:round; stroke-linejoin:round; stroke-width:2; stroke-opacity:0.1; fill:none" points="1116.37,1234.58 1116.37,47.2441 "/>
<polyline clip-path="url(#clip132)" style="stroke:#000000; stroke-linecap:round; stroke-linejoin:round; stroke-width:2; stroke-opacity:0.1; fill:none" points="1414.6,1234.58 1414.6,47.2441 "/>
<polyline clip-path="url(#clip132)" style="stroke:#000000; stroke-linecap:round; stroke-linejoin:round; stroke-width:2; stroke-opacity:0.1; fill:none" points="1712.84,1234.58 1712.84,47.2441 "/>
<polyline clip-path="url(#clip132)" style="stroke:#000000; stroke-linecap:round; stroke-linejoin:round; stroke-width:2; stroke-opacity:0.1; fill:none" points="2011.07,1234.58 2011.07,47.2441 "/>
<polyline clip-path="url(#clip130)" style="stroke:#000000; stroke-linecap:round; stroke-linejoin:round; stroke-width:4; stroke-opacity:1; fill:none" points="167.977,1234.58 2064.76,1234.58 "/>
<polyline clip-path="url(#clip130)" style="stroke:#000000; stroke-linecap:round; stroke-linejoin:round; stroke-width:4; stroke-opacity:1; fill:none" points="221.66,1234.58 221.66,1215.68 "/>
<polyline clip-path="url(#clip130)" style="stroke:#000000; stroke-linecap:round; stroke-linejoin:round; stroke-width:4; stroke-opacity:1; fill:none" points="519.895,1234.58 519.895,1215.68 "/>
<polyline clip-path="url(#clip130)" style="stroke:#000000; stroke-linecap:round; stroke-linejoin:round; stroke-width:4; stroke-opacity:1; fill:none" points="818.131,1234.58 818.131,1215.68 "/>
<polyline clip-path="url(#clip130)" style="stroke:#000000; stroke-linecap:round; stroke-linejoin:round; stroke-width:4; stroke-opacity:1; fill:none" points="1116.37,1234.58 1116.37,1215.68 "/>
<polyline clip-path="url(#clip130)" style="stroke:#000000; stroke-linecap:round; stroke-linejoin:round; stroke-width:4; stroke-opacity:1; fill:none" points="1414.6,1234.58 1414.6,1215.68 "/>
<polyline clip-path="url(#clip130)" style="stroke:#000000; stroke-linecap:round; stroke-linejoin:round; stroke-width:4; stroke-opacity:1; fill:none" points="1712.84,1234.58 1712.84,1215.68 "/>
<polyline clip-path="url(#clip130)" style="stroke:#000000; stroke-linecap:round; stroke-linejoin:round; stroke-width:4; stroke-opacity:1; fill:none" points="2011.07,1234.58 2011.07,1215.68 "/>
<path clip-path="url(#clip130)" d="M191.128 1277.85 L220.803 1277.85 L220.803 1281.78 L191.128 1281.78 L191.128 1277.85 Z" fill="#000000" fill-rule="nonzero" fill-opacity="1" /><path clip-path="url(#clip130)" d="M245.062 1276.04 Q248.419 1276.76 250.294 1279.03 Q252.192 1281.3 252.192 1284.63 Q252.192 1289.74 248.674 1292.55 Q245.155 1295.35 238.674 1295.35 Q236.498 1295.35 234.183 1294.91 Q231.891 1294.49 229.438 1293.63 L229.438 1289.12 Q231.382 1290.25 233.697 1290.83 Q236.012 1291.41 238.535 1291.41 Q242.933 1291.41 245.225 1289.67 Q247.539 1287.94 247.539 1284.63 Q247.539 1281.57 245.387 1279.86 Q243.257 1278.12 239.438 1278.12 L235.41 1278.12 L235.41 1274.28 L239.623 1274.28 Q243.072 1274.28 244.9 1272.92 Q246.729 1271.53 246.729 1268.93 Q246.729 1266.27 244.831 1264.86 Q242.956 1263.42 239.438 1263.42 Q237.516 1263.42 235.317 1263.84 Q233.118 1264.26 230.479 1265.14 L230.479 1260.97 Q233.141 1260.23 235.456 1259.86 Q237.794 1259.49 239.854 1259.49 Q245.178 1259.49 248.28 1261.92 Q251.382 1264.33 251.382 1268.45 Q251.382 1271.32 249.738 1273.31 Q248.095 1275.28 245.062 1276.04 Z" fill="#000000" fill-rule="nonzero" fill-opacity="1" /><path clip-path="url(#clip130)" d="M489.838 1277.85 L519.513 1277.85 L519.513 1281.78 L489.838 1281.78 L489.838 1277.85 Z" fill="#000000" fill-rule="nonzero" fill-opacity="1" /><path clip-path="url(#clip130)" d="M533.634 1290.74 L549.953 1290.74 L549.953 1294.67 L528.009 1294.67 L528.009 1290.74 Q530.671 1287.99 535.254 1283.36 Q539.861 1278.7 541.041 1277.36 Q543.287 1274.84 544.166 1273.1 Q545.069 1271.34 545.069 1269.65 Q545.069 1266.9 543.124 1265.16 Q541.203 1263.42 538.101 1263.42 Q535.902 1263.42 533.449 1264.19 Q531.018 1264.95 528.24 1266.5 L528.24 1261.78 Q531.064 1260.65 533.518 1260.07 Q535.972 1259.49 538.009 1259.49 Q543.379 1259.49 546.574 1262.17 Q549.768 1264.86 549.768 1269.35 Q549.768 1271.48 548.958 1273.4 Q548.171 1275.3 546.064 1277.89 Q545.486 1278.56 542.384 1281.78 Q539.282 1284.98 533.634 1290.74 Z" fill="#000000" fill-rule="nonzero" fill-opacity="1" /><path clip-path="url(#clip130)" d="M787.888 1277.85 L817.564 1277.85 L817.564 1281.78 L787.888 1281.78 L787.888 1277.85 Z" fill="#000000" fill-rule="nonzero" fill-opacity="1" /><path clip-path="url(#clip130)" d="M828.467 1290.74 L836.105 1290.74 L836.105 1264.37 L827.795 1266.04 L827.795 1261.78 L836.059 1260.11 L840.735 1260.11 L840.735 1290.74 L848.374 1290.74 L848.374 1294.67 L828.467 1294.67 L828.467 1290.74 Z" fill="#000000" fill-rule="nonzero" fill-opacity="1" /><path clip-path="url(#clip130)" d="M1116.37 1263.19 Q1112.76 1263.19 1110.93 1266.76 Q1109.12 1270.3 1109.12 1277.43 Q1109.12 1284.54 1110.93 1288.1 Q1112.76 1291.64 1116.37 1291.64 Q1120 1291.64 1121.81 1288.1 Q1123.64 1284.54 1123.64 1277.43 Q1123.64 1270.3 1121.81 1266.76 Q1120 1263.19 1116.37 1263.19 M1116.37 1259.49 Q1122.18 1259.49 1125.23 1264.1 Q1128.31 1268.68 1128.31 1277.43 Q1128.31 1286.16 1125.23 1290.76 Q1122.18 1295.35 1116.37 1295.35 Q1110.56 1295.35 1107.48 1290.76 Q1104.42 1286.16 1104.42 1277.43 Q1104.42 1268.68 1107.48 1264.1 Q1110.56 1259.49 1116.37 1259.49 Z" fill="#000000" fill-rule="nonzero" fill-opacity="1" /><path clip-path="url(#clip130)" d="M1404.98 1290.74 L1412.62 1290.74 L1412.62 1264.37 L1404.31 1266.04 L1404.31 1261.78 L1412.58 1260.11 L1417.25 1260.11 L1417.25 1290.74 L1424.89 1290.74 L1424.89 1294.67 L1404.98 1294.67 L1404.98 1290.74 Z" fill="#000000" fill-rule="nonzero" fill-opacity="1" /><path clip-path="url(#clip130)" d="M1707.49 1290.74 L1723.81 1290.74 L1723.81 1294.67 L1701.87 1294.67 L1701.87 1290.74 Q1704.53 1287.99 1709.11 1283.36 Q1713.72 1278.7 1714.9 1277.36 Q1717.14 1274.84 1718.02 1273.1 Q1718.93 1271.34 1718.93 1269.65 Q1718.93 1266.9 1716.98 1265.16 Q1715.06 1263.42 1711.96 1263.42 Q1709.76 1263.42 1707.31 1264.19 Q1704.87 1264.95 1702.1 1266.5 L1702.1 1261.78 Q1704.92 1260.65 1707.37 1260.07 Q1709.83 1259.49 1711.87 1259.49 Q1717.24 1259.49 1720.43 1262.17 Q1723.62 1264.86 1723.62 1269.35 Q1723.62 1271.48 1722.81 1273.4 Q1722.03 1275.3 1719.92 1277.89 Q1719.34 1278.56 1716.24 1281.78 Q1713.14 1284.98 1707.49 1290.74 Z" fill="#000000" fill-rule="nonzero" fill-opacity="1" /><path clip-path="url(#clip130)" d="M2015.32 1276.04 Q2018.68 1276.76 2020.55 1279.03 Q2022.45 1281.3 2022.45 1284.63 Q2022.45 1289.74 2018.93 1292.55 Q2015.41 1295.35 2008.93 1295.35 Q2006.76 1295.35 2004.44 1294.91 Q2002.15 1294.49 1999.7 1293.63 L1999.7 1289.12 Q2001.64 1290.25 2003.96 1290.83 Q2006.27 1291.41 2008.79 1291.41 Q2013.19 1291.41 2015.48 1289.67 Q2017.8 1287.94 2017.8 1284.63 Q2017.8 1281.57 2015.65 1279.86 Q2013.52 1278.12 2009.7 1278.12 L2005.67 1278.12 L2005.67 1274.28 L2009.88 1274.28 Q2013.33 1274.28 2015.16 1272.92 Q2016.99 1271.53 2016.99 1268.93 Q2016.99 1266.27 2015.09 1264.86 Q2013.21 1263.42 2009.7 1263.42 Q2007.77 1263.42 2005.58 1263.84 Q2003.38 1264.26 2000.74 1265.14 L2000.74 1260.97 Q2003.4 1260.23 2005.71 1259.86 Q2008.05 1259.49 2010.11 1259.49 Q2015.44 1259.49 2018.54 1261.92 Q2021.64 1264.33 2021.64 1268.45 Q2021.64 1271.32 2020 1273.31 Q2018.35 1275.28 2015.32 1276.04 Z" fill="#000000" fill-rule="nonzero" fill-opacity="1" /><polyline clip-path="url(#clip132)" style="stroke:#000000; stroke-linecap:round; stroke-linejoin:round; stroke-width:2; stroke-opacity:0.1; fill:none" points="167.977,1201.57 2064.76,1201.57 "/>
<polyline clip-path="url(#clip132)" style="stroke:#000000; stroke-linecap:round; stroke-linejoin:round; stroke-width:2; stroke-opacity:0.1; fill:none" points="167.977,827.825 2064.76,827.825 "/>
<polyline clip-path="url(#clip132)" style="stroke:#000000; stroke-linecap:round; stroke-linejoin:round; stroke-width:2; stroke-opacity:0.1; fill:none" points="167.977,454.08 2064.76,454.08 "/>
<polyline clip-path="url(#clip132)" style="stroke:#000000; stroke-linecap:round; stroke-linejoin:round; stroke-width:2; stroke-opacity:0.1; fill:none" points="167.977,80.3341 2064.76,80.3341 "/>
<polyline clip-path="url(#clip130)" style="stroke:#000000; stroke-linecap:round; stroke-linejoin:round; stroke-width:4; stroke-opacity:1; fill:none" points="167.977,1234.58 167.977,47.2441 "/>
<polyline clip-path="url(#clip130)" style="stroke:#000000; stroke-linecap:round; stroke-linejoin:round; stroke-width:4; stroke-opacity:1; fill:none" points="167.977,1201.57 186.875,1201.57 "/>
<polyline clip-path="url(#clip130)" style="stroke:#000000; stroke-linecap:round; stroke-linejoin:round; stroke-width:4; stroke-opacity:1; fill:none" points="167.977,827.825 186.875,827.825 "/>
<polyline clip-path="url(#clip130)" style="stroke:#000000; stroke-linecap:round; stroke-linejoin:round; stroke-width:4; stroke-opacity:1; fill:none" points="167.977,454.08 186.875,454.08 "/>
<polyline clip-path="url(#clip130)" style="stroke:#000000; stroke-linecap:round; stroke-linejoin:round; stroke-width:4; stroke-opacity:1; fill:none" points="167.977,80.3341 186.875,80.3341 "/>
<path clip-path="url(#clip130)" d="M124.353 1187.37 Q120.742 1187.37 118.913 1190.93 Q117.108 1194.48 117.108 1201.61 Q117.108 1208.71 118.913 1212.28 Q120.742 1215.82 124.353 1215.82 Q127.987 1215.82 129.793 1212.28 Q131.622 1208.71 131.622 1201.61 Q131.622 1194.48 129.793 1190.93 Q127.987 1187.37 124.353 1187.37 M124.353 1183.67 Q130.163 1183.67 133.219 1188.27 Q136.297 1192.86 136.297 1201.61 Q136.297 1210.33 133.219 1214.94 Q130.163 1219.52 124.353 1219.52 Q118.543 1219.52 115.464 1214.94 Q112.409 1210.33 112.409 1201.61 Q112.409 1192.86 115.464 1188.27 Q118.543 1183.67 124.353 1183.67 Z" fill="#000000" fill-rule="nonzero" fill-opacity="1" /><path clip-path="url(#clip130)" d="M54.8395 841.17 L62.4784 841.17 L62.4784 814.805 L54.1682 816.471 L54.1682 812.212 L62.4321 810.545 L67.108 810.545 L67.108 841.17 L74.7468 841.17 L74.7468 845.105 L54.8395 845.105 L54.8395 841.17 Z" fill="#000000" fill-rule="nonzero" fill-opacity="1" /><path clip-path="url(#clip130)" d="M94.1912 813.624 Q90.5801 813.624 88.7514 817.189 Q86.9458 820.731 86.9458 827.86 Q86.9458 834.967 88.7514 838.531 Q90.5801 842.073 94.1912 842.073 Q97.8254 842.073 99.6309 838.531 Q101.46 834.967 101.46 827.86 Q101.46 820.731 99.6309 817.189 Q97.8254 813.624 94.1912 813.624 M94.1912 809.92 Q100.001 809.92 103.057 814.527 Q106.136 819.11 106.136 827.86 Q106.136 836.587 103.057 841.193 Q100.001 845.777 94.1912 845.777 Q88.381 845.777 85.3023 841.193 Q82.2468 836.587 82.2468 827.86 Q82.2468 819.11 85.3023 814.527 Q88.381 809.92 94.1912 809.92 Z" fill="#000000" fill-rule="nonzero" fill-opacity="1" /><path clip-path="url(#clip130)" d="M124.353 813.624 Q120.742 813.624 118.913 817.189 Q117.108 820.731 117.108 827.86 Q117.108 834.967 118.913 838.531 Q120.742 842.073 124.353 842.073 Q127.987 842.073 129.793 838.531 Q131.622 834.967 131.622 827.86 Q131.622 820.731 129.793 817.189 Q127.987 813.624 124.353 813.624 M124.353 809.92 Q130.163 809.92 133.219 814.527 Q136.297 819.11 136.297 827.86 Q136.297 836.587 133.219 841.193 Q130.163 845.777 124.353 845.777 Q118.543 845.777 115.464 841.193 Q112.409 836.587 112.409 827.86 Q112.409 819.11 115.464 814.527 Q118.543 809.92 124.353 809.92 Z" fill="#000000" fill-rule="nonzero" fill-opacity="1" /><path clip-path="url(#clip130)" d="M58.0571 467.425 L74.3765 467.425 L74.3765 471.36 L52.4321 471.36 L52.4321 467.425 Q55.0941 464.67 59.6775 460.04 Q64.2839 455.388 65.4645 454.045 Q67.7098 451.522 68.5894 449.786 Q69.4922 448.027 69.4922 446.337 Q69.4922 443.582 67.5478 441.846 Q65.6265 440.11 62.5247 440.11 Q60.3256 440.11 57.8719 440.874 Q55.4414 441.638 52.6636 443.189 L52.6636 438.466 Q55.4877 437.332 57.9414 436.753 Q60.395 436.175 62.4321 436.175 Q67.8024 436.175 70.9968 438.86 Q74.1913 441.545 74.1913 446.036 Q74.1913 448.165 73.3811 450.087 Q72.5941 451.985 70.4876 454.577 Q69.9089 455.249 66.807 458.466 Q63.7052 461.661 58.0571 467.425 Z" fill="#000000" fill-rule="nonzero" fill-opacity="1" /><path clip-path="url(#clip130)" d="M94.1912 439.878 Q90.5801 439.878 88.7514 443.443 Q86.9458 446.985 86.9458 454.114 Q86.9458 461.221 88.7514 464.786 Q90.5801 468.327 94.1912 468.327 Q97.8254 468.327 99.6309 464.786 Q101.46 461.221 101.46 454.114 Q101.46 446.985 99.6309 443.443 Q97.8254 439.878 94.1912 439.878 M94.1912 436.175 Q100.001 436.175 103.057 440.781 Q106.136 445.365 106.136 454.114 Q106.136 462.841 103.057 467.448 Q100.001 472.031 94.1912 472.031 Q88.381 472.031 85.3023 467.448 Q82.2468 462.841 82.2468 454.114 Q82.2468 445.365 85.3023 440.781 Q88.381 436.175 94.1912 436.175 Z" fill="#000000" fill-rule="nonzero" fill-opacity="1" /><path clip-path="url(#clip130)" d="M124.353 439.878 Q120.742 439.878 118.913 443.443 Q117.108 446.985 117.108 454.114 Q117.108 461.221 118.913 464.786 Q120.742 468.327 124.353 468.327 Q127.987 468.327 129.793 464.786 Q131.622 461.221 131.622 454.114 Q131.622 446.985 129.793 443.443 Q127.987 439.878 124.353 439.878 M124.353 436.175 Q130.163 436.175 133.219 440.781 Q136.297 445.365 136.297 454.114 Q136.297 462.841 133.219 467.448 Q130.163 472.031 124.353 472.031 Q118.543 472.031 115.464 467.448 Q112.409 462.841 112.409 454.114 Q112.409 445.365 115.464 440.781 Q118.543 436.175 124.353 436.175 Z" fill="#000000" fill-rule="nonzero" fill-opacity="1" /><path clip-path="url(#clip130)" d="M68.1959 78.9799 Q71.5524 79.6975 73.4274 81.966 Q75.3255 84.2345 75.3255 87.5678 Q75.3255 92.6835 71.807 95.4845 Q68.2885 98.2854 61.8071 98.2854 Q59.6312 98.2854 57.3164 97.8456 Q55.0247 97.4289 52.571 96.5724 L52.571 92.0585 Q54.5154 93.1928 56.8303 93.7715 Q59.1451 94.3502 61.6682 94.3502 Q66.0663 94.3502 68.358 92.6141 Q70.6728 90.878 70.6728 87.5678 Q70.6728 84.5123 68.52 82.7993 Q66.3904 81.0632 62.571 81.0632 L58.5432 81.0632 L58.5432 77.2207 L62.7561 77.2207 Q66.2052 77.2207 68.0339 75.8549 Q69.8626 74.466 69.8626 71.8735 Q69.8626 69.2114 67.9645 67.7994 Q66.0895 66.3642 62.571 66.3642 Q60.6497 66.3642 58.4506 66.7809 Q56.2515 67.1976 53.6127 68.0772 L53.6127 63.9105 Q56.2747 63.1698 58.5895 62.7994 Q60.9275 62.4291 62.9876 62.4291 Q68.3117 62.4291 71.4135 64.8596 Q74.5153 67.267 74.5153 71.3874 Q74.5153 74.2577 72.8718 76.2484 Q71.2283 78.216 68.1959 78.9799 Z" fill="#000000" fill-rule="nonzero" fill-opacity="1" /><path clip-path="url(#clip130)" d="M94.1912 66.1328 Q90.5801 66.1328 88.7514 69.6976 Q86.9458 73.2392 86.9458 80.3688 Q86.9458 87.4752 88.7514 91.04 Q90.5801 94.5817 94.1912 94.5817 Q97.8254 94.5817 99.6309 91.04 Q101.46 87.4752 101.46 80.3688 Q101.46 73.2392 99.6309 69.6976 Q97.8254 66.1328 94.1912 66.1328 M94.1912 62.4291 Q100.001 62.4291 103.057 67.0355 Q106.136 71.6188 106.136 80.3688 Q106.136 89.0956 103.057 93.7021 Q100.001 98.2854 94.1912 98.2854 Q88.381 98.2854 85.3023 93.7021 Q82.2468 89.0956 82.2468 80.3688 Q82.2468 71.6188 85.3023 67.0355 Q88.381 62.4291 94.1912 62.4291 Z" fill="#000000" fill-rule="nonzero" fill-opacity="1" /><path clip-path="url(#clip130)" d="M124.353 66.1328 Q120.742 66.1328 118.913 69.6976 Q117.108 73.2392 117.108 80.3688 Q117.108 87.4752 118.913 91.04 Q120.742 94.5817 124.353 94.5817 Q127.987 94.5817 129.793 91.04 Q131.622 87.4752 131.622 80.3688 Q131.622 73.2392 129.793 69.6976 Q127.987 66.1328 124.353 66.1328 M124.353 62.4291 Q130.163 62.4291 133.219 67.0355 Q136.297 71.6188 136.297 80.3688 Q136.297 89.0956 133.219 93.7021 Q130.163 98.2854 124.353 98.2854 Q118.543 98.2854 115.464 93.7021 Q112.409 89.0956 112.409 80.3688 Q112.409 71.6188 115.464 67.0355 Q118.543 62.4291 124.353 62.4291 Z" fill="#000000" fill-rule="nonzero" fill-opacity="1" /><polyline clip-path="url(#clip132)" style="stroke:#009af9; stroke-linecap:round; stroke-linejoin:round; stroke-width:4; stroke-opacity:1; fill:none" points="221.66,1200.97 224.642,1198.45 227.625,1194.74 230.607,1194.38 233.589,1193.7 236.572,1191.75 239.554,1188.16 242.536,1187.83 245.519,1186.74 248.501,1183.44 251.483,1181.3 254.466,1180.34 257.448,1178.19 260.43,1175.45 263.413,1175.3 266.395,1174.7 269.378,1173.04 272.36,1169.54 275.342,1168.88 278.325,1165.3 281.307,1162.71 284.289,1159.71 287.272,1156.32 290.254,1154.74 293.236,1151.36 296.219,1150.59 299.201,1146.96 302.183,1144.12 305.166,1142.29 308.148,1140.55 311.131,1138.01 314.113,1136.8 317.095,1135.87 320.078,1132.71 323.06,1131.08 326.042,1127.54 329.025,1127.36 332.007,1124.49 334.989,1121.82 337.972,1118.52 340.954,1116.95 343.936,1114.64 346.919,1114.47 349.901,1112.91 352.883,1111.86 355.866,1110.22 358.848,1107.46 361.831,1104.63 364.813,1103.16 367.795,1101.86 370.778,1101.48 373.76,1099.12 376.742,1097.79 379.725,1096.91 382.707,1094.65 385.689,1093.49 388.672,1091.93 391.654,1091.87 394.636,1090.18 397.619,1090.02 400.601,1086.64 403.584,1083.3 406.566,1083.29 409.548,1080.85 412.531,1077.86 415.513,1076.98 418.495,1074.79 421.478,1072.98 424.46,1072.1 427.442,1069.24 430.425,1066.52 433.407,1066.39 436.389,1066.34 439.372,1062.92 442.354,1062.05 445.337,1059.89 448.319,1056.91 451.301,1054.09 454.284,1050.65 457.266,1050.29 460.248,1048.18 463.231,1046.45 466.213,1044.73 469.195,1044.52 472.178,1041.92 475.16,1039.77 478.142,1036.93 481.125,1033.71 484.107,1030.29 487.09,1028.57 490.072,1028.51 493.054,1025.88 496.037,1023.25 499.019,1021.99 502.001,1021.11 504.984,1017.82 507.966,1015.93 510.948,1013.22 513.931,1010.31 516.913,1008.95 519.895,1008.04 522.878,1007.78 525.86,1006.22 528.843,1005.02 531.825,1002.46 534.807,1001.69 537.79,998.653 540.772,997.025 543.754,994.237 546.737,993.551 549.719,992.553 552.701,990.994 555.684,987.895 558.666,984.585 561.648,984.152 564.631,981.24 567.613,980.131 570.595,977.801 573.578,974.753 576.56,973.91 579.543,971.7 582.525,970.685 585.507,968.43 588.49,965.497 591.472,965.027 594.454,962.086 597.437,959.026 600.419,957.322 603.401,955.591 606.384,954.341 609.366,952.942 612.348,952.29 615.331,948.656 618.313,946.057 621.296,945.06 624.278,941.877 627.26,940.845 630.243,938.396 633.225,936.41 636.207,934.476 639.19,933.484 642.172,930.091 645.154,927.873 648.137,925.682 651.119,922.696 654.101,920.771 657.084,919.25 660.066,919.071 663.049,917.45 666.031,913.84 669.013,912.685 671.996,911.608 674.978,910.552 677.96,908.15 680.943,907.588 683.925,907.241 686.907,907.045 689.89,905.895 692.872,905.586 695.854,903.266 698.837,901.879 701.819,899.911 704.802,899.042 707.784,896.978 710.766,896.922 713.749,893.804 716.731,892.855 719.713,890.826 722.696,887.429 725.678,885.985 728.66,883.038 731.643,883.026 734.625,880.281 737.607,880.145 740.59,879.642 743.572,876.02 746.555,874.378 749.537,871.101 752.519,868.546 755.502,868.149 758.484,866.976 761.466,864.918 764.449,862.099 767.431,860.889 770.413,858.356 773.396,855.005 776.378,851.303 779.36,849.106 782.343,846.054 785.325,845.121 788.307,844.426 791.29,842.441 794.272,841.661 797.255,841.132 800.237,838.197 803.219,836.132 806.202,833.695 809.184,830.777 812.166,829.269 815.149,829.139 818.131,826.076 821.113,823.185 824.096,821.738 827.078,820.133 830.06,819.373 833.043,817.166 836.025,813.593 839.008,812.188 841.99,808.894 844.972,806.597 847.955,805.991 850.937,803.32 853.919,803.245 856.902,801.029 859.884,799.092 862.866,795.527 865.849,794.963 868.831,794.822 871.813,792.565 874.796,792.217 877.778,790.87 880.761,787.49 883.743,786.49 886.725,784.428 889.708,782.626 892.69,780.936 895.672,780.669 898.655,780.336 901.637,780.097 904.619,778.421 907.602,778.168 910.584,775.631 913.566,772.423 916.549,768.898 919.531,766.37 922.514,765.492 925.496,764.16 928.478,762.886 931.461,761.327 934.443,757.75 937.425,756.112 940.408,755.209 943.39,754.748 946.372,752.068 949.355,749.807 952.337,749.742 955.319,747.192 958.302,746.617 961.284,744.839 964.266,742.471 967.249,739.297 970.231,735.997 973.214,734.555 976.196,734.513 979.178,733.505 982.161,731.796 985.143,731.724 988.125,728.895 991.108,727.507 994.09,725.649 997.072,722.011 1000.05,720.218 1003.04,716.618 1006.02,714.248 1009,711.515 1011.98,708.635 1014.97,707.012 1017.95,706.691 1020.93,706.491 1023.91,704.33 1026.9,702.681 1029.88,700.934 1032.86,699.593 1035.84,697.223 1038.83,696.614 1041.81,696.543 1044.79,693.054 1047.77,690.957 1050.75,687.444 1053.74,685.943 1056.72,684.656 1059.7,682.433 1062.68,681.24 1065.67,679.017 1068.65,677.309 1071.63,676.576 1074.61,673.147 1077.6,669.428 1080.58,666.264 1083.56,664.146 1086.54,661.686 1089.53,661.012 1092.51,660.926 1095.49,660.395 1098.47,657.343 1101.45,654.543 1104.44,652.012 1107.42,650.07 1110.4,649.25 1113.38,647.127 1116.37,645.627 1119.35,643.622 1122.33,640.335 1125.31,638.187 1128.3,635.71 1131.28,634.078 1134.26,632.077 1137.24,631.584 1140.23,631.218 1143.21,631.134 1146.19,629.049 1149.17,627.827 1152.15,625.442 1155.14,623.812 1158.12,620.606 1161.1,619.74 1164.08,617.483 1167.07,617.291 1170.05,615.51 1173.03,614.164 1176.01,614.135 1179,612.758 1181.98,610.643 1184.96,610.571 1187.94,609.643 1190.93,608.413 1193.91,605.464 1196.89,601.976 1199.87,599.44 1202.85,597.914 1205.84,596.854 1208.82,594.205 1211.8,591.812 1214.78,589.21 1217.77,586.362 1220.75,584.81 1223.73,583.599 1226.71,580.383 1229.7,578.67 1232.68,577.511 1235.66,575.662 1238.64,575.607 1241.63,572.186 1244.61,571.488 1247.59,569.03 1250.57,566.35 1253.56,563.564 1256.54,561.77 1259.52,559.661 1262.5,557.277 1265.48,556.878 1268.47,555.441 1271.45,552.744 1274.43,551.399 1277.41,548.55 1280.4,547.043 1283.38,545.383 1286.36,542.554 1289.34,539.6 1292.33,536.137 1295.31,533.646 1298.29,530.409 1301.27,530.249 1304.26,529.04 1307.24,528.773 1310.22,526.14 1313.2,523.492 1316.18,520.523 1319.17,518.36 1322.15,514.971 1325.13,514.509 1328.11,513.188 1331.1,509.866 1334.08,509.333 1337.06,505.618 1340.04,502.784 1343.03,499.881 1346.01,497.645 1348.99,495.128 1351.97,493.64 1354.96,493.537 1357.94,493.148 1360.92,490.911 1363.9,487.4 1366.88,484.886 1369.87,482.979 1372.85,481.017 1375.83,480.262 1378.81,476.763 1381.8,473.973 1384.78,473.044 1387.76,471.855 1390.74,468.146 1393.73,467.978 1396.71,466.326 1399.69,463.714 1402.67,460.479 1405.66,458.718 1408.64,456.726 1411.62,456.298 1414.6,454.507 1417.58,451.267 1420.57,450.853 1423.55,447.548 1426.53,444.315 1429.51,441.981 1432.5,441.958 1435.48,439.799 1438.46,438.281 1441.44,437.221 1444.43,433.607 1447.41,433.221 1450.39,430.602 1453.37,428.753 1456.36,426.815 1459.34,425.024 1462.32,421.295 1465.3,419.788 1468.28,418.468 1471.27,415.366 1474.25,412.282 1477.23,411.666 1480.21,410.195 1483.2,409.251 1486.18,406.54 1489.16,404.65 1492.14,403.309 1495.13,400.571 1498.11,399.465 1501.09,396.522 1504.07,393.016 1507.06,389.358 1510.04,387.191 1513.02,385.806 1516,383.734 1518.98,382.042 1521.97,378.622 1524.95,377.523 1527.93,376.639 1530.91,374.615 1533.9,374.564 1536.88,374.313 1539.86,372.33 1542.84,369.061 1545.83,365.954 1548.81,364.086 1551.79,362.931 1554.77,362.193 1557.76,361.898 1560.74,361.685 1563.72,359.341 1566.7,356.4 1569.68,353.245 1572.67,350.823 1575.65,350.776 1578.63,349.182 1581.61,347.523 1584.6,345.896 1587.58,342.195 1590.56,341.354 1593.54,339.488 1596.53,337.821 1599.51,336.253 1602.49,333.306 1605.47,330.696 1608.46,330.591 1611.44,327.867 1614.42,327.064 1617.4,326.506 1620.38,324.812 1623.37,322.088 1626.35,318.977 1629.33,318.559 1632.31,314.826 1635.3,312.446 1638.28,311.35 1641.26,310.676 1644.24,307.114 1647.23,306.579 1650.21,305.324 1653.19,305.138 1656.17,304.788 1659.16,303.779 1662.14,300.346 1665.12,296.965 1668.1,293.601 1671.08,292.602 1674.07,289.145 1677.05,286.881 1680.03,285.587 1683.01,284.691 1686,282.388 1688.98,278.679 1691.96,275.886 1694.94,274.805 1697.93,271.849 1700.91,271.384 1703.89,268.855 1706.87,267.841 1709.86,265.749 1712.84,264.269 1715.82,262.539 1718.8,259.693 1721.78,256.534 1724.77,253.033 1727.75,251.249 1730.73,248.221 1733.71,248.147 1736.7,244.414 1739.68,240.776 1742.66,239.827 1745.64,239.396 1748.63,236.131 1751.61,235.241 1754.59,234.378 1757.57,233.206 1760.56,232.665 1763.54,230.546 1766.52,227.279 1769.5,224.878 1772.49,223.18 1775.47,221.279 1778.45,219.585 1781.43,218.882 1784.41,218.852 1787.4,217.278 1790.38,217.212 1793.36,214.814 1796.34,213.176 1799.33,212.709 1802.31,209.568 1805.29,209.483 1808.27,208.157 1811.26,205.224 1814.24,202.915 1817.22,202.602 1820.2,201.391 1823.19,199.21 1826.17,195.712 1829.15,192.657 1832.13,192.564 1835.11,190.173 1838.1,188.095 1841.08,184.831 1844.06,184.478 1847.04,181.448 1850.03,177.909 1853.01,177.657 1855.99,173.981 1858.97,170.866 1861.96,170.526 1864.94,170.346 1867.92,168.693 1870.9,165.604 1873.89,161.948 1876.87,158.914 1879.85,157.916 1882.83,156.963 1885.81,156.002 1888.8,155.672 1891.78,153.078 1894.76,150.287 1897.74,148.279 1900.73,146.072 1903.71,144.038 1906.69,144.017 1909.67,143.101 1912.66,142.182 1915.64,141.968 1918.62,141.09 1921.6,140.664 1924.59,140.295 1927.57,137.618 1930.55,136.492 1933.53,133.584 1936.51,130.447 1939.5,128.646 1942.48,127.252 1945.46,123.694 1948.44,121.961 1951.43,119.949 1954.41,118.5 1957.39,116.677 1960.37,114.535 1963.36,113.97 1966.34,113.206 1969.32,111.333 1972.3,109.069 1975.29,106.086 1978.27,104.3 1981.25,103.431 1984.23,102.392 1987.21,99.8628 1990.2,97.428 1993.18,94.1228 1996.16,90.8107 1999.14,88.3977 2002.13,85.1028 2005.11,83.6537 2008.09,81.7167 2011.07,80.8479 "/>
<path clip-path="url(#clip130)" d="M231.203 190.502 L473.311 190.502 L473.311 86.8219 L231.203 86.8219  Z" fill="#ffffff" fill-rule="evenodd" fill-opacity="1"/>
<polyline clip-path="url(#clip130)" style="stroke:#000000; stroke-linecap:round; stroke-linejoin:round; stroke-width:4; stroke-opacity:1; fill:none" points="231.203,190.502 473.311,190.502 473.311,86.8219 231.203,86.8219 231.203,190.502 "/>
<polyline clip-path="url(#clip130)" style="stroke:#009af9; stroke-linecap:round; stroke-linejoin:round; stroke-width:4; stroke-opacity:1; fill:none" points="252.279,138.662 378.731,138.662 "/>
<path clip-path="url(#clip130)" d="M413.648 158.349 Q411.843 162.979 410.13 164.391 Q408.417 165.803 405.547 165.803 L402.144 165.803 L402.144 162.238 L404.644 162.238 Q406.403 162.238 407.375 161.405 Q408.348 160.572 409.528 157.47 L410.292 155.525 L399.806 130.016 L404.32 130.016 L412.422 150.294 L420.523 130.016 L425.037 130.016 L413.648 158.349 Z" fill="#000000" fill-rule="nonzero" fill-opacity="1" /><path clip-path="url(#clip130)" d="M432.329 152.007 L439.968 152.007 L439.968 125.641 L431.658 127.308 L431.658 123.049 L439.921 121.382 L444.597 121.382 L444.597 152.007 L452.236 152.007 L452.236 155.942 L432.329 155.942 L432.329 152.007 Z" fill="#000000" fill-rule="nonzero" fill-opacity="1" /></svg>
