<?xml version="1.0" encoding="utf-8"?>
<svg xmlns="http://www.w3.org/2000/svg" xmlns:xlink="http://www.w3.org/1999/xlink" width="528" height="336" viewBox="0 0 2112 1344">
<defs>
  <clipPath id="clip780">
    <rect x="0" y="0" width="2112" height="1344"/>
  </clipPath>
</defs>
<path clip-path="url(#clip780)" d="M0 1344 L2112 1344 L2112 0 L0 0  Z" fill="#ffffff" fill-rule="evenodd" fill-opacity="1"/>
<defs>
  <clipPath id="clip781">
    <rect x="422" y="0" width="1479" height="1344"/>
  </clipPath>
</defs>
<path clip-path="url(#clip780)" d="M183.394 1234.58 L2064.76 1234.58 L2064.76 47.2441 L183.394 47.2441  Z" fill="#ffffff" fill-rule="evenodd" fill-opacity="1"/>
<defs>
  <clipPath id="clip782">
    <rect x="183" y="47" width="1882" height="1188"/>
  </clipPath>
</defs>
<polyline clip-path="url(#clip782)" style="stroke:#000000; stroke-linecap:round; stroke-linejoin:round; stroke-width:2; stroke-opacity:0.1; fill:none" points="236.64,1234.58 236.64,47.2441 "/>
<polyline clip-path="url(#clip782)" style="stroke:#000000; stroke-linecap:round; stroke-linejoin:round; stroke-width:2; stroke-opacity:0.1; fill:none" points="532.452,1234.58 532.452,47.2441 "/>
<polyline clip-path="url(#clip782)" style="stroke:#000000; stroke-linecap:round; stroke-linejoin:round; stroke-width:2; stroke-opacity:0.1; fill:none" points="828.263,1234.58 828.263,47.2441 "/>
<polyline clip-path="url(#clip782)" style="stroke:#000000; stroke-linecap:round; stroke-linejoin:round; stroke-width:2; stroke-opacity:0.1; fill:none" points="1124.07,1234.58 1124.07,47.2441 "/>
<polyline clip-path="url(#clip782)" style="stroke:#000000; stroke-linecap:round; stroke-linejoin:round; stroke-width:2; stroke-opacity:0.1; fill:none" points="1419.89,1234.58 1419.89,47.2441 "/>
<polyline clip-path="url(#clip782)" style="stroke:#000000; stroke-linecap:round; stroke-linejoin:round; stroke-width:2; stroke-opacity:0.1; fill:none" points="1715.7,1234.58 1715.7,47.2441 "/>
<polyline clip-path="url(#clip782)" style="stroke:#000000; stroke-linecap:round; stroke-linejoin:round; stroke-width:2; stroke-opacity:0.1; fill:none" points="2011.51,1234.58 2011.51,47.2441 "/>
<polyline clip-path="url(#clip780)" style="stroke:#000000; stroke-linecap:round; stroke-linejoin:round; stroke-width:4; stroke-opacity:1; fill:none" points="183.394,1234.58 2064.76,1234.58 "/>
<polyline clip-path="url(#clip780)" style="stroke:#000000; stroke-linecap:round; stroke-linejoin:round; stroke-width:4; stroke-opacity:1; fill:none" points="236.64,1234.58 236.64,1215.68 "/>
<polyline clip-path="url(#clip780)" style="stroke:#000000; stroke-linecap:round; stroke-linejoin:round; stroke-width:4; stroke-opacity:1; fill:none" points="532.452,1234.58 532.452,1215.68 "/>
<polyline clip-path="url(#clip780)" style="stroke:#000000; stroke-linecap:round; stroke-linejoin:round; stroke-width:4; stroke-opacity:1; fill:none" points="828.263,1234.58 828.263,1215.68 "/>
<polyline clip-path="url(#clip780)" style="stroke:#000000; stroke-linecap:round; stroke-linejoin:round; stroke-width:4; stroke-opacity:1; fill:none" points="1124.07,1234.58 1124.07,1215.68 "/>
<polyline clip-path="url(#clip780)" style="stroke:#000000; stroke-linecap:round; stroke-linejoin:round; stroke-width:4; stroke-opacity:1; fill:none" points="1419.89,1234.58 1419.89,1215.68 "/>
<polyline clip-path="url(#clip780)" style="stroke:#000000; stroke-linecap:round; stroke-linejoin:round; stroke-width:4; stroke-opacity:1; fill:none" points="1715.7,1234.58 1715.7,1215.68 "/>
<polyline clip-path="url(#clip780)" style="stroke:#000000; stroke-linecap:round; stroke-linejoin:round; stroke-width:4; stroke-opacity:1; fill:none" points="2011.51,1234.58 2011.51,1215.68 "/>
<path clip-path="url(#clip780)" d="M206.108 1277.85 L235.784 1277.85 L235.784 1281.78 L206.108 1281.78 L206.108 1277.85 Z" fill="#000000" fill-rule="nonzero" fill-opacity="1" /><path clip-path="url(#clip780)" d="M260.043 1276.04 Q263.399 1276.76 265.274 1279.03 Q267.172 1281.3 267.172 1284.63 Q267.172 1289.74 263.654 1292.55 Q260.135 1295.35 253.654 1295.35 Q251.478 1295.35 249.163 1294.91 Q246.872 1294.49 244.418 1293.63 L244.418 1289.12 Q246.362 1290.25 248.677 1290.83 Q250.992 1291.41 253.515 1291.41 Q257.913 1291.41 260.205 1289.67 Q262.52 1287.94 262.52 1284.63 Q262.52 1281.57 260.367 1279.86 Q258.237 1278.12 254.418 1278.12 L250.39 1278.12 L250.39 1274.28 L254.603 1274.28 Q258.052 1274.28 259.881 1272.92 Q261.709 1271.53 261.709 1268.93 Q261.709 1266.27 259.811 1264.86 Q257.936 1263.42 254.418 1263.42 Q252.496 1263.42 250.297 1263.84 Q248.098 1264.26 245.459 1265.14 L245.459 1260.97 Q248.122 1260.23 250.436 1259.86 Q252.774 1259.49 254.834 1259.49 Q260.158 1259.49 263.26 1261.92 Q266.362 1264.33 266.362 1268.45 Q266.362 1271.32 264.719 1273.31 Q263.075 1275.28 260.043 1276.04 Z" fill="#000000" fill-rule="nonzero" fill-opacity="1" /><path clip-path="url(#clip780)" d="M502.394 1277.85 L532.07 1277.85 L532.07 1281.78 L502.394 1281.78 L502.394 1277.85 Z" fill="#000000" fill-rule="nonzero" fill-opacity="1" /><path clip-path="url(#clip780)" d="M546.19 1290.74 L562.509 1290.74 L562.509 1294.67 L540.565 1294.67 L540.565 1290.74 Q543.227 1287.99 547.81 1283.36 Q552.417 1278.7 553.597 1277.36 Q555.843 1274.84 556.722 1273.1 Q557.625 1271.34 557.625 1269.65 Q557.625 1266.9 555.681 1265.16 Q553.759 1263.42 550.658 1263.42 Q548.459 1263.42 546.005 1264.19 Q543.574 1264.95 540.797 1266.5 L540.797 1261.78 Q543.621 1260.65 546.074 1260.07 Q548.528 1259.49 550.565 1259.49 Q555.935 1259.49 559.13 1262.17 Q562.324 1264.86 562.324 1269.35 Q562.324 1271.48 561.514 1273.4 Q560.727 1275.3 558.621 1277.89 Q558.042 1278.56 554.94 1281.78 Q551.838 1284.98 546.19 1290.74 Z" fill="#000000" fill-rule="nonzero" fill-opacity="1" /><path clip-path="url(#clip780)" d="M798.02 1277.85 L827.696 1277.85 L827.696 1281.78 L798.02 1281.78 L798.02 1277.85 Z" fill="#000000" fill-rule="nonzero" fill-opacity="1" /><path clip-path="url(#clip780)" d="M838.599 1290.74 L846.238 1290.74 L846.238 1264.37 L837.928 1266.04 L837.928 1261.78 L846.191 1260.11 L850.867 1260.11 L850.867 1290.74 L858.506 1290.74 L858.506 1294.67 L838.599 1294.67 L838.599 1290.74 Z" fill="#000000" fill-rule="nonzero" fill-opacity="1" /><path clip-path="url(#clip780)" d="M1124.07 1263.19 Q1120.46 1263.19 1118.64 1266.76 Q1116.83 1270.3 1116.83 1277.43 Q1116.83 1284.54 1118.64 1288.1 Q1120.46 1291.64 1124.07 1291.64 Q1127.71 1291.64 1129.51 1288.1 Q1131.34 1284.54 1131.34 1277.43 Q1131.34 1270.3 1129.51 1266.76 Q1127.71 1263.19 1124.07 1263.19 M1124.07 1259.49 Q1129.89 1259.49 1132.94 1264.1 Q1136.02 1268.68 1136.02 1277.43 Q1136.02 1286.16 1132.94 1290.76 Q1129.89 1295.35 1124.07 1295.35 Q1118.26 1295.35 1115.19 1290.76 Q1112.13 1286.16 1112.13 1277.43 Q1112.13 1268.68 1115.19 1264.1 Q1118.26 1259.49 1124.07 1259.49 Z" fill="#000000" fill-rule="nonzero" fill-opacity="1" /><path clip-path="url(#clip780)" d="M1410.27 1290.74 L1417.91 1290.74 L1417.91 1264.37 L1409.6 1266.04 L1409.6 1261.78 L1417.86 1260.11 L1422.54 1260.11 L1422.54 1290.74 L1430.18 1290.74 L1430.18 1294.67 L1410.27 1294.67 L1410.27 1290.74 Z" fill="#000000" fill-rule="nonzero" fill-opacity="1" /><path clip-path="url(#clip780)" d="M1710.35 1290.74 L1726.67 1290.74 L1726.67 1294.67 L1704.73 1294.67 L1704.73 1290.74 Q1707.39 1287.99 1711.97 1283.36 Q1716.58 1278.7 1717.76 1277.36 Q1720 1274.84 1720.88 1273.1 Q1721.79 1271.34 1721.79 1269.65 Q1721.79 1266.9 1719.84 1265.16 Q1717.92 1263.42 1714.82 1263.42 Q1712.62 1263.42 1710.17 1264.19 Q1707.74 1264.95 1704.96 1266.5 L1704.96 1261.78 Q1707.78 1260.65 1710.24 1260.07 Q1712.69 1259.49 1714.73 1259.49 Q1720.1 1259.49 1723.29 1262.17 Q1726.49 1264.86 1726.49 1269.35 Q1726.49 1271.48 1725.67 1273.4 Q1724.89 1275.3 1722.78 1277.89 Q1722.2 1278.56 1719.1 1281.78 Q1716 1284.98 1710.35 1290.74 Z" fill="#000000" fill-rule="nonzero" fill-opacity="1" /><path clip-path="url(#clip780)" d="M2015.76 1276.04 Q2019.11 1276.76 2020.99 1279.03 Q2022.89 1281.3 2022.89 1284.63 Q2022.89 1289.74 2019.37 1292.55 Q2015.85 1295.35 2009.37 1295.35 Q2007.19 1295.35 2004.88 1294.91 Q2002.59 1294.49 2000.13 1293.63 L2000.13 1289.12 Q2002.08 1290.25 2004.39 1290.83 Q2006.71 1291.41 2009.23 1291.41 Q2013.63 1291.41 2015.92 1289.67 Q2018.23 1287.94 2018.23 1284.63 Q2018.23 1281.57 2016.08 1279.86 Q2013.95 1278.12 2010.13 1278.12 L2006.1 1278.12 L2006.1 1274.28 L2010.32 1274.28 Q2013.77 1274.28 2015.6 1272.92 Q2017.42 1271.53 2017.42 1268.93 Q2017.42 1266.27 2015.53 1264.86 Q2013.65 1263.42 2010.13 1263.42 Q2008.21 1263.42 2006.01 1263.84 Q2003.81 1264.26 2001.17 1265.14 L2001.17 1260.97 Q2003.84 1260.23 2006.15 1259.86 Q2008.49 1259.49 2010.55 1259.49 Q2015.87 1259.49 2018.98 1261.92 Q2022.08 1264.33 2022.08 1268.45 Q2022.08 1271.32 2020.43 1273.31 Q2018.79 1275.28 2015.76 1276.04 Z" fill="#000000" fill-rule="nonzero" fill-opacity="1" /><polyline clip-path="url(#clip782)" style="stroke:#000000; stroke-linecap:round; stroke-linejoin:round; stroke-width:2; stroke-opacity:0.1; fill:none" points="183.394,1202.87 2064.76,1202.87 "/>
<polyline clip-path="url(#clip782)" style="stroke:#000000; stroke-linecap:round; stroke-linejoin:round; stroke-width:2; stroke-opacity:0.1; fill:none" points="183.394,922.301 2064.76,922.301 "/>
<polyline clip-path="url(#clip782)" style="stroke:#000000; stroke-linecap:round; stroke-linejoin:round; stroke-width:2; stroke-opacity:0.1; fill:none" points="183.394,641.729 2064.76,641.729 "/>
<polyline clip-path="url(#clip782)" style="stroke:#000000; stroke-linecap:round; stroke-linejoin:round; stroke-width:2; stroke-opacity:0.1; fill:none" points="183.394,361.157 2064.76,361.157 "/>
<polyline clip-path="url(#clip782)" style="stroke:#000000; stroke-linecap:round; stroke-linejoin:round; stroke-width:2; stroke-opacity:0.1; fill:none" points="183.394,80.5852 2064.76,80.5852 "/>
<polyline clip-path="url(#clip780)" style="stroke:#000000; stroke-linecap:round; stroke-linejoin:round; stroke-width:4; stroke-opacity:1; fill:none" points="183.394,1234.58 183.394,47.2441 "/>
<polyline clip-path="url(#clip780)" style="stroke:#000000; stroke-linecap:round; stroke-linejoin:round; stroke-width:4; stroke-opacity:1; fill:none" points="183.394,1202.87 202.292,1202.87 "/>
<polyline clip-path="url(#clip780)" style="stroke:#000000; stroke-linecap:round; stroke-linejoin:round; stroke-width:4; stroke-opacity:1; fill:none" points="183.394,922.301 202.292,922.301 "/>
<polyline clip-path="url(#clip780)" style="stroke:#000000; stroke-linecap:round; stroke-linejoin:round; stroke-width:4; stroke-opacity:1; fill:none" points="183.394,641.729 202.292,641.729 "/>
<polyline clip-path="url(#clip780)" style="stroke:#000000; stroke-linecap:round; stroke-linejoin:round; stroke-width:4; stroke-opacity:1; fill:none" points="183.394,361.157 202.292,361.157 "/>
<polyline clip-path="url(#clip780)" style="stroke:#000000; stroke-linecap:round; stroke-linejoin:round; stroke-width:4; stroke-opacity:1; fill:none" points="183.394,80.5852 202.292,80.5852 "/>
<path clip-path="url(#clip780)" d="M64.3765 1188.67 Q60.7654 1188.67 58.9367 1192.24 Q57.1312 1195.78 57.1312 1202.91 Q57.1312 1210.01 58.9367 1213.58 Q60.7654 1217.12 64.3765 1217.12 Q68.0107 1217.12 69.8163 1213.58 Q71.645 1210.01 71.645 1202.91 Q71.645 1195.78 69.8163 1192.24 Q68.0107 1188.67 64.3765 1188.67 M64.3765 1184.97 Q70.1867 1184.97 73.2422 1189.57 Q76.3209 1194.16 76.3209 1202.91 Q76.3209 1211.63 73.2422 1216.24 Q70.1867 1220.82 64.3765 1220.82 Q58.5664 1220.82 55.4877 1216.24 Q52.4321 1211.63 52.4321 1202.91 Q52.4321 1194.16 55.4877 1189.57 Q58.5664 1184.97 64.3765 1184.97 Z" fill="#000000" fill-rule="nonzero" fill-opacity="1" /><path clip-path="url(#clip780)" d="M84.5384 1214.27 L89.4227 1214.27 L89.4227 1220.15 L84.5384 1220.15 L84.5384 1214.27 Z" fill="#000000" fill-rule="nonzero" fill-opacity="1" /><path clip-path="url(#clip780)" d="M109.608 1188.67 Q105.997 1188.67 104.168 1192.24 Q102.362 1195.78 102.362 1202.91 Q102.362 1210.01 104.168 1213.58 Q105.997 1217.12 109.608 1217.12 Q113.242 1217.12 115.048 1213.58 Q116.876 1210.01 116.876 1202.91 Q116.876 1195.78 115.048 1192.24 Q113.242 1188.67 109.608 1188.67 M109.608 1184.97 Q115.418 1184.97 118.473 1189.57 Q121.552 1194.16 121.552 1202.91 Q121.552 1211.63 118.473 1216.24 Q115.418 1220.82 109.608 1220.82 Q103.798 1220.82 100.719 1216.24 Q97.6634 1211.63 97.6634 1202.91 Q97.6634 1194.16 100.719 1189.57 Q103.798 1184.97 109.608 1184.97 Z" fill="#000000" fill-rule="nonzero" fill-opacity="1" /><path clip-path="url(#clip780)" d="M139.77 1188.67 Q136.159 1188.67 134.33 1192.24 Q132.524 1195.78 132.524 1202.91 Q132.524 1210.01 134.33 1213.58 Q136.159 1217.12 139.77 1217.12 Q143.404 1217.12 145.209 1213.58 Q147.038 1210.01 147.038 1202.91 Q147.038 1195.78 145.209 1192.24 Q143.404 1188.67 139.77 1188.67 M139.77 1184.97 Q145.58 1184.97 148.635 1189.57 Q151.714 1194.16 151.714 1202.91 Q151.714 1211.63 148.635 1216.24 Q145.58 1220.82 139.77 1220.82 Q133.959 1220.82 130.881 1216.24 Q127.825 1211.63 127.825 1202.91 Q127.825 1194.16 130.881 1189.57 Q133.959 1184.97 139.77 1184.97 Z" fill="#000000" fill-rule="nonzero" fill-opacity="1" /><path clip-path="url(#clip780)" d="M65.3719 908.1 Q61.7608 908.1 59.9321 911.664 Q58.1265 915.206 58.1265 922.336 Q58.1265 929.442 59.9321 933.007 Q61.7608 936.549 65.3719 936.549 Q69.0061 936.549 70.8117 933.007 Q72.6404 929.442 72.6404 922.336 Q72.6404 915.206 70.8117 911.664 Q69.0061 908.1 65.3719 908.1 M65.3719 904.396 Q71.182 904.396 74.2376 909.002 Q77.3163 913.586 77.3163 922.336 Q77.3163 931.062 74.2376 935.669 Q71.182 940.252 65.3719 940.252 Q59.5617 940.252 56.483 935.669 Q53.4275 931.062 53.4275 922.336 Q53.4275 913.586 56.483 909.002 Q59.5617 904.396 65.3719 904.396 Z" fill="#000000" fill-rule="nonzero" fill-opacity="1" /><path clip-path="url(#clip780)" d="M85.5338 933.701 L90.418 933.701 L90.418 939.581 L85.5338 939.581 L85.5338 933.701 Z" fill="#000000" fill-rule="nonzero" fill-opacity="1" /><path clip-path="url(#clip780)" d="M104.631 935.646 L120.95 935.646 L120.95 939.581 L99.006 939.581 L99.006 935.646 Q101.668 932.891 106.251 928.262 Q110.858 923.609 112.038 922.266 Q114.284 919.743 115.163 918.007 Q116.066 916.248 116.066 914.558 Q116.066 911.803 114.122 910.067 Q112.2 908.331 109.098 908.331 Q106.899 908.331 104.446 909.095 Q102.015 909.859 99.2374 911.41 L99.2374 906.688 Q102.061 905.553 104.515 904.975 Q106.969 904.396 109.006 904.396 Q114.376 904.396 117.571 907.081 Q120.765 909.766 120.765 914.257 Q120.765 916.387 119.955 918.308 Q119.168 920.206 117.061 922.799 Q116.483 923.47 113.381 926.688 Q110.279 929.882 104.631 935.646 Z" fill="#000000" fill-rule="nonzero" fill-opacity="1" /><path clip-path="url(#clip780)" d="M130.811 905.021 L149.168 905.021 L149.168 908.956 L135.094 908.956 L135.094 917.428 Q136.112 917.081 137.131 916.919 Q138.149 916.734 139.168 916.734 Q144.955 916.734 148.334 919.905 Q151.714 923.076 151.714 928.493 Q151.714 934.072 148.242 937.174 Q144.77 940.252 138.45 940.252 Q136.274 940.252 134.006 939.882 Q131.76 939.512 129.353 938.771 L129.353 934.072 Q131.436 935.206 133.659 935.762 Q135.881 936.317 138.358 936.317 Q142.362 936.317 144.7 934.211 Q147.038 932.104 147.038 928.493 Q147.038 924.882 144.7 922.775 Q142.362 920.669 138.358 920.669 Q136.483 920.669 134.608 921.086 Q132.756 921.502 130.811 922.382 L130.811 905.021 Z" fill="#000000" fill-rule="nonzero" fill-opacity="1" /><path clip-path="url(#clip780)" d="M64.3765 627.528 Q60.7654 627.528 58.9367 631.093 Q57.1312 634.634 57.1312 641.764 Q57.1312 648.87 58.9367 652.435 Q60.7654 655.977 64.3765 655.977 Q68.0107 655.977 69.8163 652.435 Q71.645 648.87 71.645 641.764 Q71.645 634.634 69.8163 631.093 Q68.0107 627.528 64.3765 627.528 M64.3765 623.824 Q70.1867 623.824 73.2422 628.43 Q76.3209 633.014 76.3209 641.764 Q76.3209 650.491 73.2422 655.097 Q70.1867 659.68 64.3765 659.68 Q58.5664 659.68 55.4877 655.097 Q52.4321 650.491 52.4321 641.764 Q52.4321 633.014 55.4877 628.43 Q58.5664 623.824 64.3765 623.824 Z" fill="#000000" fill-rule="nonzero" fill-opacity="1" /><path clip-path="url(#clip780)" d="M84.5384 653.129 L89.4227 653.129 L89.4227 659.009 L84.5384 659.009 L84.5384 653.129 Z" fill="#000000" fill-rule="nonzero" fill-opacity="1" /><path clip-path="url(#clip780)" d="M99.6541 624.449 L118.01 624.449 L118.01 628.384 L103.936 628.384 L103.936 636.856 Q104.955 636.509 105.974 636.347 Q106.992 636.162 108.011 636.162 Q113.798 636.162 117.177 639.333 Q120.557 642.504 120.557 647.921 Q120.557 653.5 117.085 656.602 Q113.612 659.68 107.293 659.68 Q105.117 659.68 102.849 659.31 Q100.603 658.94 98.1958 658.199 L98.1958 653.5 Q100.279 654.634 102.501 655.19 Q104.724 655.745 107.2 655.745 Q111.205 655.745 113.543 653.639 Q115.881 651.532 115.881 647.921 Q115.881 644.31 113.543 642.204 Q111.205 640.097 107.2 640.097 Q105.325 640.097 103.45 640.514 Q101.599 640.93 99.6541 641.81 L99.6541 624.449 Z" fill="#000000" fill-rule="nonzero" fill-opacity="1" /><path clip-path="url(#clip780)" d="M139.77 627.528 Q136.159 627.528 134.33 631.093 Q132.524 634.634 132.524 641.764 Q132.524 648.87 134.33 652.435 Q136.159 655.977 139.77 655.977 Q143.404 655.977 145.209 652.435 Q147.038 648.87 147.038 641.764 Q147.038 634.634 145.209 631.093 Q143.404 627.528 139.77 627.528 M139.77 623.824 Q145.58 623.824 148.635 628.43 Q151.714 633.014 151.714 641.764 Q151.714 650.491 148.635 655.097 Q145.58 659.68 139.77 659.68 Q133.959 659.68 130.881 655.097 Q127.825 650.491 127.825 641.764 Q127.825 633.014 130.881 628.43 Q133.959 623.824 139.77 623.824 Z" fill="#000000" fill-rule="nonzero" fill-opacity="1" /><path clip-path="url(#clip780)" d="M65.3719 346.956 Q61.7608 346.956 59.9321 350.521 Q58.1265 354.062 58.1265 361.192 Q58.1265 368.298 59.9321 371.863 Q61.7608 375.405 65.3719 375.405 Q69.0061 375.405 70.8117 371.863 Q72.6404 368.298 72.6404 361.192 Q72.6404 354.062 70.8117 350.521 Q69.0061 346.956 65.3719 346.956 M65.3719 343.252 Q71.182 343.252 74.2376 347.859 Q77.3163 352.442 77.3163 361.192 Q77.3163 369.919 74.2376 374.525 Q71.182 379.108 65.3719 379.108 Q59.5617 379.108 56.483 374.525 Q53.4275 369.919 53.4275 361.192 Q53.4275 352.442 56.483 347.859 Q59.5617 343.252 65.3719 343.252 Z" fill="#000000" fill-rule="nonzero" fill-opacity="1" /><path clip-path="url(#clip780)" d="M85.5338 372.557 L90.418 372.557 L90.418 378.437 L85.5338 378.437 L85.5338 372.557 Z" fill="#000000" fill-rule="nonzero" fill-opacity="1" /><path clip-path="url(#clip780)" d="M99.4226 343.877 L121.645 343.877 L121.645 345.868 L109.098 378.437 L104.214 378.437 L116.02 347.812 L99.4226 347.812 L99.4226 343.877 Z" fill="#000000" fill-rule="nonzero" fill-opacity="1" /><path clip-path="url(#clip780)" d="M130.811 343.877 L149.168 343.877 L149.168 347.812 L135.094 347.812 L135.094 356.284 Q136.112 355.937 137.131 355.775 Q138.149 355.59 139.168 355.59 Q144.955 355.59 148.334 358.761 Q151.714 361.933 151.714 367.349 Q151.714 372.928 148.242 376.03 Q144.77 379.108 138.45 379.108 Q136.274 379.108 134.006 378.738 Q131.76 378.368 129.353 377.627 L129.353 372.928 Q131.436 374.062 133.659 374.618 Q135.881 375.173 138.358 375.173 Q142.362 375.173 144.7 373.067 Q147.038 370.96 147.038 367.349 Q147.038 363.738 144.7 361.632 Q142.362 359.525 138.358 359.525 Q136.483 359.525 134.608 359.942 Q132.756 360.358 130.811 361.238 L130.811 343.877 Z" fill="#000000" fill-rule="nonzero" fill-opacity="1" /><path clip-path="url(#clip780)" d="M55.1867 93.93 L62.8256 93.93 L62.8256 67.5644 L54.5154 69.2311 L54.5154 64.9718 L62.7793 63.3052 L67.4552 63.3052 L67.4552 93.93 L75.094 93.93 L75.094 97.8652 L55.1867 97.8652 L55.1867 93.93 Z" fill="#000000" fill-rule="nonzero" fill-opacity="1" /><path clip-path="url(#clip780)" d="M84.5384 91.9856 L89.4227 91.9856 L89.4227 97.8652 L84.5384 97.8652 L84.5384 91.9856 Z" fill="#000000" fill-rule="nonzero" fill-opacity="1" /><path clip-path="url(#clip780)" d="M109.608 66.3839 Q105.997 66.3839 104.168 69.9486 Q102.362 73.4903 102.362 80.6199 Q102.362 87.7263 104.168 91.2911 Q105.997 94.8328 109.608 94.8328 Q113.242 94.8328 115.048 91.2911 Q116.876 87.7263 116.876 80.6199 Q116.876 73.4903 115.048 69.9486 Q113.242 66.3839 109.608 66.3839 M109.608 62.6802 Q115.418 62.6802 118.473 67.2866 Q121.552 71.8699 121.552 80.6199 Q121.552 89.3467 118.473 93.9531 Q115.418 98.5365 109.608 98.5365 Q103.798 98.5365 100.719 93.9531 Q97.6634 89.3467 97.6634 80.6199 Q97.6634 71.8699 100.719 67.2866 Q103.798 62.6802 109.608 62.6802 Z" fill="#000000" fill-rule="nonzero" fill-opacity="1" /><path clip-path="url(#clip780)" d="M139.77 66.3839 Q136.159 66.3839 134.33 69.9486 Q132.524 73.4903 132.524 80.6199 Q132.524 87.7263 134.33 91.2911 Q136.159 94.8328 139.77 94.8328 Q143.404 94.8328 145.209 91.2911 Q147.038 87.7263 147.038 80.6199 Q147.038 73.4903 145.209 69.9486 Q143.404 66.3839 139.77 66.3839 M139.77 62.6802 Q145.58 62.6802 148.635 67.2866 Q151.714 71.8699 151.714 80.6199 Q151.714 89.3467 148.635 93.9531 Q145.58 98.5365 139.77 98.5365 Q133.959 98.5365 130.881 93.9531 Q127.825 89.3467 127.825 80.6199 Q127.825 71.8699 130.881 67.2866 Q133.959 62.6802 139.77 62.6802 Z" fill="#000000" fill-rule="nonzero" fill-opacity="1" /><polyline clip-path="url(#clip782)" style="stroke:#009af9; stroke-linecap:round; stroke-linejoin:round; stroke-width:4; stroke-opacity:1; fill:none" points="236.64,251.056 239.598,101.544 242.556,480.796 245.514,1118.7 248.473,638.113 251.431,909.53 254.389,631.169 257.347,786.647 260.305,264.825 263.263,151.889 266.221,1075.59 269.179,311.638 272.137,336.532 275.096,1167.35 278.054,913.24 281.012,1011.16 283.97,846.676 286.928,303.427 289.886,787.562 292.844,312.215 295.802,384.369 298.761,372.395 301.719,374.167 304.677,724.34 307.635,375.975 310.593,456.442 313.551,418.756 316.509,869.502 319.467,775.269 322.425,597.85 325.384,632.787 328.342,248.376 331.3,450.347 334.258,172.684 337.216,677.441 340.174,603.905 343.132,1089.75 346.09,687.158 349.049,524.788 352.007,778.532 354.965,923.99 357.923,205.402 360.881,478.951 363.839,850.532 366.797,518.201 369.755,575.292 372.713,571.65 375.672,750.659 378.63,732.235 381.588,763.586 384.546,112.381 387.504,241.716 390.462,879.222 393.42,714.886 396.378,618.719 399.336,1101.75 402.295,1173.37 405.253,395.487 408.211,239.702 411.169,235.357 414.127,1031.77 417.085,1080.51 420.043,745.17 423.001,621.192 425.96,650.168 428.918,521.839 431.876,90.6112 434.834,557.388 437.792,1107.98 440.75,680.537 443.708,934.919 446.666,202.779 449.624,641.835 452.583,274.264 455.541,703.803 458.499,1080.84 461.457,581.517 464.415,739.079 467.373,810.419 470.331,691.448 473.289,531.093 476.248,600.01 479.206,1018.77 482.164,1117.36 485.122,652.963 488.08,240.474 491.038,450.906 493.996,205.036 496.954,160.815 499.912,109.042 502.871,678.33 505.829,101.803 508.787,1007.4 511.745,1095.58 514.703,463.82 517.661,561.931 520.619,1009.89 523.577,152.283 526.535,145.383 529.494,386.518 532.452,816.21 535.41,198.859 538.368,242.792 541.326,202.283 544.284,191.985 547.242,1136.64 550.2,141.151 553.159,1164.1 556.117,1016.78 559.075,1141.06 562.033,1094.38 564.991,105.872 567.949,317.637 570.907,1002 573.865,351.647 576.823,942.493 579.782,215.749 582.74,96.4924 585.698,605.784 588.656,770.933 591.614,267.583 594.572,128.112 597.53,308.934 600.488,834.172 603.447,670.812 606.405,342.137 609.363,698.966 612.321,369.896 615.279,1172.76 618.237,1123.29 621.195,286.389 624.153,261.262 627.111,1183.27 630.07,236.98 633.028,1108.29 635.986,888.736 638.944,903.573 641.902,336.984 644.86,916.88 647.818,116.918 650.776,1199.95 653.734,833.02 656.693,893.234 659.651,1028.41 662.609,690.378 665.567,535.155 668.525,546.713 671.483,730.379 674.441,335.077 677.399,606.643 680.358,233.425 683.316,740.808 686.274,429.098 689.232,153.539 692.19,312.58 695.148,1083.1 698.106,947.495 701.064,316.728 704.022,1131.42 706.981,1047.82 709.939,461.982 712.897,456.932 715.855,110.977 718.813,1089.42 721.771,320.593 724.729,501.471 727.687,1178.4 730.645,725.082 733.604,268.68 736.562,1119.92 739.52,1025.75 742.478,841.461 745.436,1166.04 748.394,708.55 751.352,1054.33 754.31,761.83 757.269,475.173 760.227,669.814 763.185,378.207 766.143,472.26 769.101,983.912 772.059,130.032 775.017,768.374 777.975,695.098 780.933,307.574 783.892,880.989 786.85,939.965 789.808,610.164 792.766,212.642 795.724,82.5029 798.682,967.018 801.64,918.23 804.598,1123.28 807.557,441.934 810.515,964.936 813.473,370.383 816.431,427.514 819.389,809.63 822.347,1156.68 825.305,122.488 828.263,601.898 831.221,105.861 834.18,344.329 837.138,773.192 840.096,182.391 843.054,249.647 846.012,635.753 848.97,319.718 851.928,1044.49 854.886,754.8 857.844,744.755 860.803,585.257 863.761,387.127 866.719,986.359 869.677,1048.87 872.635,272.919 875.593,289.025 878.551,1133.8 881.509,1103.31 884.468,858.772 887.426,664.659 890.384,296.681 893.342,488.632 896.3,423.528 899.258,244.176 902.216,779.417 905.174,173.148 908.132,848.177 911.091,673.205 914.049,902.631 917.007,345.935 919.965,641.082 922.923,1014.1 925.881,356.687 928.839,380.387 931.797,118.425 934.756,1153.23 937.714,744.951 940.672,300.391 943.63,899.605 946.588,832.427 949.546,123.87 952.504,125.294 955.462,1051.32 958.42,1001.45 961.379,1125.65 964.337,190.183 967.295,989.159 970.253,271.089 973.211,858.215 976.169,608.701 979.127,463.168 982.085,1143.07 985.043,819.095 988.002,760.859 990.96,514.473 993.918,563.118 996.876,1144.45 999.834,895.387 1002.79,886.171 1005.75,601.445 1008.71,674.853 1011.67,383.131 1014.62,720.564 1017.58,1079.7 1020.54,1096.45 1023.5,136.227 1026.46,483.292 1029.42,943.451 1032.37,397.937 1035.33,1177.16 1038.29,139.933 1041.25,821.299 1044.21,1034.73 1047.16,161.337 1050.12,739.021 1053.08,1148.35 1056.04,1082.73 1059,705.531 1061.95,1008.11 1064.91,105.545 1067.87,1022.95 1070.83,349.836 1073.79,861.828 1076.75,350.63 1079.7,624.569 1082.66,790.055 1085.62,1042.27 1088.58,482.436 1091.54,201.994 1094.49,471.772 1097.45,658.673 1100.41,662.217 1103.37,589.986 1106.33,954.563 1109.28,1129.18 1112.24,1141.69 1115.2,974.25 1118.16,599.244 1121.12,780.977 1124.07,638.42 1127.03,114.557 1129.99,973.786 1132.95,564.895 1135.91,564.958 1138.87,457.466 1141.82,154.64 1144.78,271.213 1147.74,1113.51 1150.7,667.478 1153.66,658.014 1156.61,153.369 1159.57,696.805 1162.53,588.882 1165.49,299.883 1168.45,176.75 1171.4,1094.55 1174.36,175.923 1177.32,341.721 1180.28,1124.63 1183.24,700.824 1186.2,154.207 1189.15,252.457 1192.11,347.246 1195.07,1149.93 1198.03,345.456 1200.99,834.406 1203.94,373.086 1206.9,992.933 1209.86,943.387 1212.82,926.956 1215.78,194.263 1218.73,821.82 1221.69,645.374 1224.65,881.203 1227.61,695.403 1230.57,234.285 1233.53,138.646 1236.48,991.832 1239.44,877.27 1242.4,167.448 1245.36,776.427 1248.32,709.216 1251.27,788.001 1254.23,710.852 1257.19,559.837 1260.15,525.251 1263.11,938.293 1266.06,1116.52 1269.02,120.45 1271.98,318.059 1274.94,881.859 1277.9,900.455 1280.86,696.59 1283.81,362.689 1286.77,1090.18 1289.73,454.417 1292.69,576.482 1295.65,423.044 1298.6,250.294 1301.56,362.555 1304.52,500.769 1307.48,916.663 1310.44,460.284 1313.39,673.241 1316.35,552.055 1319.31,639.24 1322.27,305.065 1325.23,1130.71 1328.18,1006.52 1331.14,887.635 1334.1,704.773 1337.06,124.305 1340.02,494.566 1342.98,238.849 1345.93,938.807 1348.89,659.807 1351.85,1193.77 1354.81,248.945 1357.77,308.896 1360.72,443.557 1363.68,855.15 1366.64,1200.97 1369.6,671.668 1372.56,621.768 1375.51,512.047 1378.47,1172.04 1381.43,1091.19 1384.39,741.455 1387.35,732.032 1390.31,997.631 1393.26,1016.94 1396.22,453.532 1399.18,1025.99 1402.14,650.582 1405.1,217.548 1408.05,317.159 1411.01,264.325 1413.97,706.017 1416.93,803.015 1419.89,764.474 1422.84,292.132 1425.8,961.45 1428.76,137.36 1431.72,1013.46 1434.68,562.823 1437.64,957.833 1440.59,1194.9 1443.55,462.716 1446.51,1165.66 1449.47,1106.84 1452.43,338.204 1455.38,99.8904 1458.34,505.11 1461.3,587.771 1464.26,1070.03 1467.22,853.105 1470.17,232.726 1473.13,999.552 1476.09,838.404 1479.05,1085 1482.01,878.283 1484.97,266.003 1487.92,603.406 1490.88,468.087 1493.84,1151.13 1496.8,391.152 1499.76,176.293 1502.71,428.648 1505.67,830.411 1508.63,399.628 1511.59,518.299 1514.55,876.206 1517.5,243.642 1520.46,393.215 1523.42,460.325 1526.38,876.743 1529.34,874.312 1532.29,548.225 1535.25,811.762 1538.21,212.421 1541.17,604.461 1544.13,720.19 1547.09,416.536 1550.04,1172.81 1553,793.516 1555.96,410.418 1558.92,1014.32 1561.88,833.649 1564.83,1131.85 1567.79,153.317 1570.75,580.349 1573.71,216.821 1576.67,484.669 1579.62,1176.7 1582.58,705.675 1585.54,258.912 1588.5,472.246 1591.46,984.569 1594.42,964.242 1597.37,1113.95 1600.33,980.031 1603.29,109.864 1606.25,782.353 1609.21,124.463 1612.16,146.554 1615.12,319.098 1618.08,491.93 1621.04,184.339 1624,371.123 1626.95,783.245 1629.91,248.423 1632.87,959.247 1635.83,418.405 1638.79,570.66 1641.75,1090.04 1644.7,519.777 1647.66,700.667 1650.62,728.876 1653.58,1168.04 1656.54,624.412 1659.49,143.292 1662.45,725.753 1665.41,789.085 1668.37,859.605 1671.33,1004.21 1674.28,853.153 1677.24,116.326 1680.2,786.952 1683.16,852.492 1686.12,441.075 1689.08,123.643 1692.03,1063.25 1694.99,892.526 1697.95,1049.87 1700.91,1074.67 1703.87,1087.67 1706.82,725.148 1709.78,925.501 1712.74,780.534 1715.7,1020.78 1718.66,673.511 1721.61,80.8479 1724.57,96.6094 1727.53,263.353 1730.49,705.376 1733.45,558.345 1736.41,848.004 1739.36,814.55 1742.32,344.988 1745.28,1050.61 1748.24,699.014 1751.2,987.786 1754.15,177.792 1757.11,81.9234 1760.07,1025.53 1763.03,740.457 1765.99,154.028 1768.94,672.678 1771.9,238.124 1774.86,983.508 1777.82,1081.27 1780.78,1007.14 1783.73,1012.95 1786.69,794.515 1789.65,105.078 1792.61,1064.39 1795.57,164.421 1798.53,195.732 1801.48,447.252 1804.44,1154.35 1807.4,531.347 1810.36,942.055 1813.32,123.517 1816.27,168.758 1819.23,911.967 1822.19,938.804 1825.15,898.693 1828.11,1185.99 1831.06,708.172 1834.02,194.336 1836.98,314.426 1839.94,822.505 1842.9,815.125 1845.86,531.376 1848.81,469.206 1851.77,673.392 1854.73,511.534 1857.69,549.676 1860.65,242.398 1863.6,1063.58 1866.56,903.141 1869.52,471.65 1872.48,758.43 1875.44,1054.87 1878.39,1140.86 1881.35,248.914 1884.31,1070.17 1887.27,745.452 1890.23,375.012 1893.19,1140.59 1896.14,165.508 1899.1,454.943 1902.06,307.723 1905.02,1117.45 1907.98,1107.95 1910.93,1034.11 1913.89,978.502 1916.85,1186.72 1919.81,1097.76 1922.77,1159.78 1925.72,481.99 1928.68,272.933 1931.64,668.85 1934.6,844.99 1937.56,578.323 1940.52,961.515 1943.47,120.505 1946.43,169.777 1949.39,720.713 1952.35,763.23 1955.31,716.725 1958.26,193.967 1961.22,384.912 1964.18,389.091 1967.14,1118.65 1970.1,750.448 1973.05,747.466 1976.01,776.124 1978.97,1064.19 1981.93,1196.65 1984.89,646.617 1987.84,422.488 1990.8,837.314 1993.76,705.929 1996.72,581.416 1999.68,585.105 2002.64,909.489 2005.59,147.74 2008.55,914.419 2011.51,662.973 "/>
<path clip-path="url(#clip780)" d="M246.106 1195 L486.673 1195 L486.673 1091.32 L246.106 1091.32  Z" fill="#ffffff" fill-rule="evenodd" fill-opacity="1"/>
<polyline clip-path="url(#clip780)" style="stroke:#000000; stroke-linecap:round; stroke-linejoin:round; stroke-width:4; stroke-opacity:1; fill:none" points="246.106,1195 486.673,1195 486.673,1091.32 246.106,1091.32 246.106,1195 "/>
<polyline clip-path="url(#clip780)" style="stroke:#009af9; stroke-linecap:round; stroke-linejoin:round; stroke-width:4; stroke-opacity:1; fill:none" points="267.01,1143.16 392.434,1143.16 "/>
<path clip-path="url(#clip780)" d="M427.181 1162.85 Q425.375 1167.48 423.662 1168.89 Q421.949 1170.3 419.079 1170.3 L415.676 1170.3 L415.676 1166.74 L418.176 1166.74 Q419.935 1166.74 420.908 1165.9 Q421.88 1165.07 423.06 1161.97 L423.824 1160.02 L413.338 1134.52 L417.852 1134.52 L425.954 1154.79 L434.056 1134.52 L438.57 1134.52 L427.181 1162.85 Z" fill="#000000" fill-rule="nonzero" fill-opacity="1" /><path clip-path="url(#clip780)" d="M445.861 1156.51 L453.5 1156.51 L453.5 1130.14 L445.19 1131.81 L445.19 1127.55 L453.454 1125.88 L458.13 1125.88 L458.13 1156.51 L465.769 1156.51 L465.769 1160.44 L445.861 1160.44 L445.861 1156.51 Z" fill="#000000" fill-rule="nonzero" fill-opacity="1" /></svg>
