<?xml version="1.0" encoding="utf-8"?>
<svg xmlns="http://www.w3.org/2000/svg" xmlns:xlink="http://www.w3.org/1999/xlink" width="528" height="336" viewBox="0 0 2112 1344">
<defs>
  <clipPath id="clip220">
    <rect x="0" y="0" width="2112" height="1344"/>
  </clipPath>
</defs>
<path clip-path="url(#clip220)" d="M0 1344 L2112 1344 L2112 0 L0 0  Z" fill="#ffffff" fill-rule="evenodd" fill-opacity="1"/>
<defs>
  <clipPath id="clip221">
    <rect x="422" y="0" width="1479" height="1344"/>
  </clipPath>
</defs>
<path clip-path="url(#clip220)" d="M183.394 1234.58 L2064.76 1234.58 L2064.76 47.2441 L183.394 47.2441  Z" fill="#ffffff" fill-rule="evenodd" fill-opacity="1"/>
<defs>
  <clipPath id="clip222">
    <rect x="183" y="47" width="1882" height="1188"/>
  </clipPath>
</defs>
<polyline clip-path="url(#clip222)" style="stroke:#000000; stroke-linecap:round; stroke-linejoin:round; stroke-width:2; stroke-opacity:0.1; fill:none" points="236.64,1234.58 236.64,47.2441 "/>
<polyline clip-path="url(#clip222)" style="stroke:#000000; stroke-linecap:round; stroke-linejoin:round; stroke-width:2; stroke-opacity:0.1; fill:none" points="532.452,1234.58 532.452,47.2441 "/>
<polyline clip-path="url(#clip222)" style="stroke:#000000; stroke-linecap:round; stroke-linejoin:round; stroke-width:2; stroke-opacity:0.1; fill:none" points="828.263,1234.58 828.263,47.2441 "/>
<polyline clip-path="url(#clip222)" style="stroke:#000000; stroke-linecap:round; stroke-linejoin:round; stroke-width:2; stroke-opacity:0.1; fill:none" points="1124.07,1234.58 1124.07,47.2441 "/>
<polyline clip-path="url(#clip222)" style="stroke:#000000; stroke-linecap:round; stroke-linejoin:round; stroke-width:2; stroke-opacity:0.1; fill:none" points="1419.89,1234.58 1419.89,47.2441 "/>
<polyline clip-path="url(#clip222)" style="stroke:#000000; stroke-linecap:round; stroke-linejoin:round; stroke-width:2; stroke-opacity:0.1; fill:none" points="1715.7,1234.58 1715.7,47.2441 "/>
<polyline clip-path="url(#clip222)" style="stroke:#000000; stroke-linecap:round; stroke-linejoin:round; stroke-width:2; stroke-opacity:0.1; fill:none" points="2011.51,1234.58 2011.51,47.2441 "/>
<polyline clip-path="url(#clip220)" style="stroke:#000000; stroke-linecap:round; stroke-linejoin:round; stroke-width:4; stroke-opacity:1; fill:none" points="183.394,1234.58 2064.76,1234.58 "/>
<polyline clip-path="url(#clip220)" style="stroke:#000000; stroke-linecap:round; stroke-linejoin:round; stroke-width:4; stroke-opacity:1; fill:none" points="236.64,1234.58 236.64,1215.68 "/>
<polyline clip-path="url(#clip220)" style="stroke:#000000; stroke-linecap:round; stroke-linejoin:round; stroke-width:4; stroke-opacity:1; fill:none" points="532.452,1234.58 532.452,1215.68 "/>
<polyline clip-path="url(#clip220)" style="stroke:#000000; stroke-linecap:round; stroke-linejoin:round; stroke-width:4; stroke-opacity:1; fill:none" points="828.263,1234.58 828.263,1215.68 "/>
<polyline clip-path="url(#clip220)" style="stroke:#000000; stroke-linecap:round; stroke-linejoin:round; stroke-width:4; stroke-opacity:1; fill:none" points="1124.07,1234.58 1124.07,1215.68 "/>
<polyline clip-path="url(#clip220)" style="stroke:#000000; stroke-linecap:round; stroke-linejoin:round; stroke-width:4; stroke-opacity:1; fill:none" points="1419.89,1234.58 1419.89,1215.68 "/>
<polyline clip-path="url(#clip220)" style="stroke:#000000; stroke-linecap:round; stroke-linejoin:round; stroke-width:4; stroke-opacity:1; fill:none" points="1715.7,1234.58 1715.7,1215.68 "/>
<polyline clip-path="url(#clip220)" style="stroke:#000000; stroke-linecap:round; stroke-linejoin:round; stroke-width:4; stroke-opacity:1; fill:none" points="2011.51,1234.58 2011.51,1215.68 "/>
<path clip-path="url(#clip220)" d="M206.108 1277.85 L235.784 1277.85 L235.784 1281.78 L206.108 1281.78 L206.108 1277.85 Z" fill="#000000" fill-rule="nonzero" fill-opacity="1" /><path clip-path="url(#clip220)" d="M260.043 1276.04 Q263.399 1276.76 265.274 1279.03 Q267.172 1281.3 267.172 1284.63 Q267.172 1289.74 263.654 1292.55 Q260.135 1295.35 253.654 1295.35 Q251.478 1295.35 249.163 1294.91 Q246.872 1294.49 244.418 1293.63 L244.418 1289.12 Q246.362 1290.25 248.677 1290.83 Q250.992 1291.41 253.515 1291.41 Q257.913 1291.41 260.205 1289.67 Q262.52 1287.94 262.52 1284.63 Q262.52 1281.57 260.367 1279.86 Q258.237 1278.12 254.418 1278.12 L250.39 1278.12 L250.39 1274.28 L254.603 1274.28 Q258.052 1274.28 259.881 1272.92 Q261.709 1271.53 261.709 1268.93 Q261.709 1266.27 259.811 1264.86 Q257.936 1263.42 254.418 1263.42 Q252.496 1263.42 250.297 1263.84 Q248.098 1264.26 245.459 1265.14 L245.459 1260.97 Q248.122 1260.23 250.436 1259.86 Q252.774 1259.49 254.834 1259.49 Q260.158 1259.49 263.26 1261.92 Q266.362 1264.33 266.362 1268.45 Q266.362 1271.32 264.719 1273.31 Q263.075 1275.28 260.043 1276.04 Z" fill="#000000" fill-rule="nonzero" fill-opacity="1" /><path clip-path="url(#clip220)" d="M502.394 1277.85 L532.07 1277.85 L532.07 1281.78 L502.394 1281.78 L502.394 1277.85 Z" fill="#000000" fill-rule="nonzero" fill-opacity="1" /><path clip-path="url(#clip220)" d="M546.19 1290.74 L562.509 1290.74 L562.509 1294.67 L540.565 1294.67 L540.565 1290.74 Q543.227 1287.99 547.81 1283.36 Q552.417 1278.7 553.597 1277.36 Q555.843 1274.84 556.722 1273.1 Q557.625 1271.34 557.625 1269.65 Q557.625 1266.9 555.681 1265.16 Q553.759 1263.42 550.658 1263.42 Q548.459 1263.42 546.005 1264.19 Q543.574 1264.95 540.797 1266.5 L540.797 1261.78 Q543.621 1260.65 546.074 1260.07 Q548.528 1259.49 550.565 1259.49 Q555.935 1259.49 559.13 1262.17 Q562.324 1264.86 562.324 1269.35 Q562.324 1271.48 561.514 1273.4 Q560.727 1275.3 558.621 1277.89 Q558.042 1278.56 554.94 1281.78 Q551.838 1284.98 546.19 1290.74 Z" fill="#000000" fill-rule="nonzero" fill-opacity="1" /><path clip-path="url(#clip220)" d="M798.02 1277.85 L827.696 1277.85 L827.696 1281.78 L798.02 1281.78 L798.02 1277.85 Z" fill="#000000" fill-rule="nonzero" fill-opacity="1" /><path clip-path="url(#clip220)" d="M838.599 1290.74 L846.238 1290.74 L846.238 1264.37 L837.928 1266.04 L837.928 1261.78 L846.191 1260.11 L850.867 1260.11 L850.867 1290.74 L858.506 1290.74 L858.506 1294.67 L838.599 1294.67 L838.599 1290.74 Z" fill="#000000" fill-rule="nonzero" fill-opacity="1" /><path clip-path="url(#clip220)" d="M1124.07 1263.19 Q1120.46 1263.19 1118.64 1266.76 Q1116.83 1270.3 1116.83 1277.43 Q1116.83 1284.54 1118.64 1288.1 Q1120.46 1291.64 1124.07 1291.64 Q1127.71 1291.64 1129.51 1288.1 Q1131.34 1284.54 1131.34 1277.43 Q1131.34 1270.3 1129.51 1266.76 Q1127.71 1263.19 1124.07 1263.19 M1124.07 1259.49 Q1129.89 1259.49 1132.94 1264.1 Q1136.02 1268.68 1136.02 1277.43 Q1136.02 1286.16 1132.94 1290.76 Q1129.89 1295.35 1124.07 1295.35 Q1118.26 1295.35 1115.19 1290.76 Q1112.13 1286.16 1112.13 1277.43 Q1112.13 1268.68 1115.19 1264.1 Q1118.26 1259.49 1124.07 1259.49 Z" fill="#000000" fill-rule="nonzero" fill-opacity="1" /><path clip-path="url(#clip220)" d="M1410.27 1290.74 L1417.91 1290.74 L1417.91 1264.37 L1409.6 1266.04 L1409.6 1261.78 L1417.86 1260.11 L1422.54 1260.11 L1422.54 1290.74 L1430.18 1290.74 L1430.18 1294.67 L1410.27 1294.67 L1410.27 1290.74 Z" fill="#000000" fill-rule="nonzero" fill-opacity="1" /><path clip-path="url(#clip220)" d="M1710.35 1290.74 L1726.67 1290.74 L1726.67 1294.67 L1704.73 1294.67 L1704.73 1290.74 Q1707.39 1287.99 1711.97 1283.36 Q1716.58 1278.7 1717.76 1277.36 Q1720 1274.84 1720.88 1273.1 Q1721.79 1271.34 1721.79 1269.65 Q1721.79 1266.9 1719.84 1265.16 Q1717.92 1263.42 1714.82 1263.42 Q1712.62 1263.42 1710.17 1264.19 Q1707.74 1264.95 1704.96 1266.5 L1704.96 1261.78 Q1707.78 1260.65 1710.24 1260.07 Q1712.69 1259.49 1714.73 1259.49 Q1720.1 1259.49 1723.29 1262.17 Q1726.49 1264.86 1726.49 1269.35 Q1726.49 1271.48 1725.67 1273.4 Q1724.89 1275.3 1722.78 1277.89 Q1722.2 1278.56 1719.1 1281.78 Q1716 1284.98 1710.35 1290.74 Z" fill="#000000" fill-rule="nonzero" fill-opacity="1" /><path clip-path="url(#clip220)" d="M2015.76 1276.04 Q2019.11 1276.76 2020.99 1279.03 Q2022.89 1281.3 2022.89 1284.63 Q2022.89 1289.74 2019.37 1292.55 Q2015.85 1295.35 2009.37 1295.35 Q2007.19 1295.35 2004.88 1294.91 Q2002.59 1294.49 2000.13 1293.63 L2000.13 1289.12 Q2002.08 1290.25 2004.39 1290.83 Q2006.71 1291.41 2009.23 1291.41 Q2013.63 1291.41 2015.92 1289.67 Q2018.23 1287.94 2018.23 1284.63 Q2018.23 1281.57 2016.08 1279.86 Q2013.95 1278.12 2010.13 1278.12 L2006.1 1278.12 L2006.1 1274.28 L2010.32 1274.28 Q2013.77 1274.28 2015.6 1272.92 Q2017.42 1271.53 2017.42 1268.93 Q2017.42 1266.27 2015.53 1264.86 Q2013.65 1263.42 2010.13 1263.42 Q2008.21 1263.42 2006.01 1263.84 Q2003.81 1264.26 2001.17 1265.14 L2001.17 1260.97 Q2003.84 1260.23 2006.15 1259.86 Q2008.49 1259.49 2010.55 1259.49 Q2015.87 1259.49 2018.98 1261.92 Q2022.08 1264.33 2022.08 1268.45 Q2022.08 1271.32 2020.43 1273.31 Q2018.79 1275.28 2015.76 1276.04 Z" fill="#000000" fill-rule="nonzero" fill-opacity="1" /><polyline clip-path="url(#clip222)" style="stroke:#000000; stroke-linecap:round; stroke-linejoin:round; stroke-width:2; stroke-opacity:0.1; fill:none" points="183.394,1202.01 2064.76,1202.01 "/>
<polyline clip-path="url(#clip222)" style="stroke:#000000; stroke-linecap:round; stroke-linejoin:round; stroke-width:2; stroke-opacity:0.1; fill:none" points="183.394,921.29 2064.76,921.29 "/>
<polyline clip-path="url(#clip222)" style="stroke:#000000; stroke-linecap:round; stroke-linejoin:round; stroke-width:2; stroke-opacity:0.1; fill:none" points="183.394,640.572 2064.76,640.572 "/>
<polyline clip-path="url(#clip222)" style="stroke:#000000; stroke-linecap:round; stroke-linejoin:round; stroke-width:2; stroke-opacity:0.1; fill:none" points="183.394,359.855 2064.76,359.855 "/>
<polyline clip-path="url(#clip222)" style="stroke:#000000; stroke-linecap:round; stroke-linejoin:round; stroke-width:2; stroke-opacity:0.1; fill:none" points="183.394,79.1376 2064.76,79.1376 "/>
<polyline clip-path="url(#clip220)" style="stroke:#000000; stroke-linecap:round; stroke-linejoin:round; stroke-width:4; stroke-opacity:1; fill:none" points="183.394,1234.58 183.394,47.2441 "/>
<polyline clip-path="url(#clip220)" style="stroke:#000000; stroke-linecap:round; stroke-linejoin:round; stroke-width:4; stroke-opacity:1; fill:none" points="183.394,1202.01 202.292,1202.01 "/>
<polyline clip-path="url(#clip220)" style="stroke:#000000; stroke-linecap:round; stroke-linejoin:round; stroke-width:4; stroke-opacity:1; fill:none" points="183.394,921.29 202.292,921.29 "/>
<polyline clip-path="url(#clip220)" style="stroke:#000000; stroke-linecap:round; stroke-linejoin:round; stroke-width:4; stroke-opacity:1; fill:none" points="183.394,640.572 202.292,640.572 "/>
<polyline clip-path="url(#clip220)" style="stroke:#000000; stroke-linecap:round; stroke-linejoin:round; stroke-width:4; stroke-opacity:1; fill:none" points="183.394,359.855 202.292,359.855 "/>
<polyline clip-path="url(#clip220)" style="stroke:#000000; stroke-linecap:round; stroke-linejoin:round; stroke-width:4; stroke-opacity:1; fill:none" points="183.394,79.1376 202.292,79.1376 "/>
<path clip-path="url(#clip220)" d="M64.3765 1187.81 Q60.7654 1187.81 58.9367 1191.37 Q57.1312 1194.91 57.1312 1202.04 Q57.1312 1209.15 58.9367 1212.71 Q60.7654 1216.25 64.3765 1216.25 Q68.0107 1216.25 69.8163 1212.71 Q71.645 1209.15 71.645 1202.04 Q71.645 1194.91 69.8163 1191.37 Q68.0107 1187.81 64.3765 1187.81 M64.3765 1184.1 Q70.1867 1184.1 73.2422 1188.71 Q76.3209 1193.29 76.3209 1202.04 Q76.3209 1210.77 73.2422 1215.38 Q70.1867 1219.96 64.3765 1219.96 Q58.5664 1219.96 55.4877 1215.38 Q52.4321 1210.77 52.4321 1202.04 Q52.4321 1193.29 55.4877 1188.71 Q58.5664 1184.1 64.3765 1184.1 Z" fill="#000000" fill-rule="nonzero" fill-opacity="1" /><path clip-path="url(#clip220)" d="M84.5384 1213.41 L89.4227 1213.41 L89.4227 1219.29 L84.5384 1219.29 L84.5384 1213.41 Z" fill="#000000" fill-rule="nonzero" fill-opacity="1" /><path clip-path="url(#clip220)" d="M109.608 1187.81 Q105.997 1187.81 104.168 1191.37 Q102.362 1194.91 102.362 1202.04 Q102.362 1209.15 104.168 1212.71 Q105.997 1216.25 109.608 1216.25 Q113.242 1216.25 115.048 1212.71 Q116.876 1209.15 116.876 1202.04 Q116.876 1194.91 115.048 1191.37 Q113.242 1187.81 109.608 1187.81 M109.608 1184.1 Q115.418 1184.1 118.473 1188.71 Q121.552 1193.29 121.552 1202.04 Q121.552 1210.77 118.473 1215.38 Q115.418 1219.96 109.608 1219.96 Q103.798 1219.96 100.719 1215.38 Q97.6634 1210.77 97.6634 1202.04 Q97.6634 1193.29 100.719 1188.71 Q103.798 1184.1 109.608 1184.1 Z" fill="#000000" fill-rule="nonzero" fill-opacity="1" /><path clip-path="url(#clip220)" d="M139.77 1187.81 Q136.159 1187.81 134.33 1191.37 Q132.524 1194.91 132.524 1202.04 Q132.524 1209.15 134.33 1212.71 Q136.159 1216.25 139.77 1216.25 Q143.404 1216.25 145.209 1212.71 Q147.038 1209.15 147.038 1202.04 Q147.038 1194.91 145.209 1191.37 Q143.404 1187.81 139.77 1187.81 M139.77 1184.1 Q145.58 1184.1 148.635 1188.71 Q151.714 1193.29 151.714 1202.04 Q151.714 1210.77 148.635 1215.38 Q145.58 1219.96 139.77 1219.96 Q133.959 1219.96 130.881 1215.38 Q127.825 1210.77 127.825 1202.04 Q127.825 1193.29 130.881 1188.71 Q133.959 1184.1 139.77 1184.1 Z" fill="#000000" fill-rule="nonzero" fill-opacity="1" /><path clip-path="url(#clip220)" d="M65.3719 907.088 Q61.7608 907.088 59.9321 910.653 Q58.1265 914.195 58.1265 921.324 Q58.1265 928.431 59.9321 931.996 Q61.7608 935.537 65.3719 935.537 Q69.0061 935.537 70.8117 931.996 Q72.6404 928.431 72.6404 921.324 Q72.6404 914.195 70.8117 910.653 Q69.0061 907.088 65.3719 907.088 M65.3719 903.385 Q71.182 903.385 74.2376 907.991 Q77.3163 912.575 77.3163 921.324 Q77.3163 930.051 74.2376 934.658 Q71.182 939.241 65.3719 939.241 Q59.5617 939.241 56.483 934.658 Q53.4275 930.051 53.4275 921.324 Q53.4275 912.575 56.483 907.991 Q59.5617 903.385 65.3719 903.385 Z" fill="#000000" fill-rule="nonzero" fill-opacity="1" /><path clip-path="url(#clip220)" d="M85.5338 932.69 L90.418 932.69 L90.418 938.57 L85.5338 938.57 L85.5338 932.69 Z" fill="#000000" fill-rule="nonzero" fill-opacity="1" /><path clip-path="url(#clip220)" d="M104.631 934.635 L120.95 934.635 L120.95 938.57 L99.006 938.57 L99.006 934.635 Q101.668 931.88 106.251 927.25 Q110.858 922.598 112.038 921.255 Q114.284 918.732 115.163 916.996 Q116.066 915.237 116.066 913.547 Q116.066 910.792 114.122 909.056 Q112.2 907.32 109.098 907.32 Q106.899 907.32 104.446 908.084 Q102.015 908.848 99.2374 910.399 L99.2374 905.676 Q102.061 904.542 104.515 903.963 Q106.969 903.385 109.006 903.385 Q114.376 903.385 117.571 906.07 Q120.765 908.755 120.765 913.246 Q120.765 915.375 119.955 917.297 Q119.168 919.195 117.061 921.787 Q116.483 922.459 113.381 925.676 Q110.279 928.871 104.631 934.635 Z" fill="#000000" fill-rule="nonzero" fill-opacity="1" /><path clip-path="url(#clip220)" d="M130.811 904.01 L149.168 904.01 L149.168 907.945 L135.094 907.945 L135.094 916.417 Q136.112 916.07 137.131 915.908 Q138.149 915.723 139.168 915.723 Q144.955 915.723 148.334 918.894 Q151.714 922.065 151.714 927.482 Q151.714 933.061 148.242 936.162 Q144.77 939.241 138.45 939.241 Q136.274 939.241 134.006 938.871 Q131.76 938.5 129.353 937.76 L129.353 933.061 Q131.436 934.195 133.659 934.75 Q135.881 935.306 138.358 935.306 Q142.362 935.306 144.7 933.199 Q147.038 931.093 147.038 927.482 Q147.038 923.871 144.7 921.764 Q142.362 919.658 138.358 919.658 Q136.483 919.658 134.608 920.074 Q132.756 920.491 130.811 921.371 L130.811 904.01 Z" fill="#000000" fill-rule="nonzero" fill-opacity="1" /><path clip-path="url(#clip220)" d="M64.3765 626.371 Q60.7654 626.371 58.9367 629.936 Q57.1312 633.477 57.1312 640.607 Q57.1312 647.714 58.9367 651.278 Q60.7654 654.82 64.3765 654.82 Q68.0107 654.82 69.8163 651.278 Q71.645 647.714 71.645 640.607 Q71.645 633.477 69.8163 629.936 Q68.0107 626.371 64.3765 626.371 M64.3765 622.667 Q70.1867 622.667 73.2422 627.274 Q76.3209 631.857 76.3209 640.607 Q76.3209 649.334 73.2422 653.94 Q70.1867 658.524 64.3765 658.524 Q58.5664 658.524 55.4877 653.94 Q52.4321 649.334 52.4321 640.607 Q52.4321 631.857 55.4877 627.274 Q58.5664 622.667 64.3765 622.667 Z" fill="#000000" fill-rule="nonzero" fill-opacity="1" /><path clip-path="url(#clip220)" d="M84.5384 651.973 L89.4227 651.973 L89.4227 657.852 L84.5384 657.852 L84.5384 651.973 Z" fill="#000000" fill-rule="nonzero" fill-opacity="1" /><path clip-path="url(#clip220)" d="M99.6541 623.292 L118.01 623.292 L118.01 627.228 L103.936 627.228 L103.936 635.7 Q104.955 635.352 105.974 635.19 Q106.992 635.005 108.011 635.005 Q113.798 635.005 117.177 638.177 Q120.557 641.348 120.557 646.764 Q120.557 652.343 117.085 655.445 Q113.612 658.524 107.293 658.524 Q105.117 658.524 102.849 658.153 Q100.603 657.783 98.1958 657.042 L98.1958 652.343 Q100.279 653.477 102.501 654.033 Q104.724 654.588 107.2 654.588 Q111.205 654.588 113.543 652.482 Q115.881 650.376 115.881 646.764 Q115.881 643.153 113.543 641.047 Q111.205 638.94 107.2 638.94 Q105.325 638.94 103.45 639.357 Q101.599 639.774 99.6541 640.653 L99.6541 623.292 Z" fill="#000000" fill-rule="nonzero" fill-opacity="1" /><path clip-path="url(#clip220)" d="M139.77 626.371 Q136.159 626.371 134.33 629.936 Q132.524 633.477 132.524 640.607 Q132.524 647.714 134.33 651.278 Q136.159 654.82 139.77 654.82 Q143.404 654.82 145.209 651.278 Q147.038 647.714 147.038 640.607 Q147.038 633.477 145.209 629.936 Q143.404 626.371 139.77 626.371 M139.77 622.667 Q145.58 622.667 148.635 627.274 Q151.714 631.857 151.714 640.607 Q151.714 649.334 148.635 653.94 Q145.58 658.524 139.77 658.524 Q133.959 658.524 130.881 653.94 Q127.825 649.334 127.825 640.607 Q127.825 631.857 130.881 627.274 Q133.959 622.667 139.77 622.667 Z" fill="#000000" fill-rule="nonzero" fill-opacity="1" /><path clip-path="url(#clip220)" d="M65.3719 345.654 Q61.7608 345.654 59.9321 349.218 Q58.1265 352.76 58.1265 359.89 Q58.1265 366.996 59.9321 370.561 Q61.7608 374.103 65.3719 374.103 Q69.0061 374.103 70.8117 370.561 Q72.6404 366.996 72.6404 359.89 Q72.6404 352.76 70.8117 349.218 Q69.0061 345.654 65.3719 345.654 M65.3719 341.95 Q71.182 341.95 74.2376 346.556 Q77.3163 351.14 77.3163 359.89 Q77.3163 368.616 74.2376 373.223 Q71.182 377.806 65.3719 377.806 Q59.5617 377.806 56.483 373.223 Q53.4275 368.616 53.4275 359.89 Q53.4275 351.14 56.483 346.556 Q59.5617 341.95 65.3719 341.95 Z" fill="#000000" fill-rule="nonzero" fill-opacity="1" /><path clip-path="url(#clip220)" d="M85.5338 371.255 L90.418 371.255 L90.418 377.135 L85.5338 377.135 L85.5338 371.255 Z" fill="#000000" fill-rule="nonzero" fill-opacity="1" /><path clip-path="url(#clip220)" d="M99.4226 342.575 L121.645 342.575 L121.645 344.566 L109.098 377.135 L104.214 377.135 L116.02 346.51 L99.4226 346.51 L99.4226 342.575 Z" fill="#000000" fill-rule="nonzero" fill-opacity="1" /><path clip-path="url(#clip220)" d="M130.811 342.575 L149.168 342.575 L149.168 346.51 L135.094 346.51 L135.094 354.982 Q136.112 354.635 137.131 354.473 Q138.149 354.288 139.168 354.288 Q144.955 354.288 148.334 357.459 Q151.714 360.63 151.714 366.047 Q151.714 371.626 148.242 374.728 Q144.77 377.806 138.45 377.806 Q136.274 377.806 134.006 377.436 Q131.76 377.066 129.353 376.325 L129.353 371.626 Q131.436 372.76 133.659 373.316 Q135.881 373.871 138.358 373.871 Q142.362 373.871 144.7 371.765 Q147.038 369.658 147.038 366.047 Q147.038 362.436 144.7 360.33 Q142.362 358.223 138.358 358.223 Q136.483 358.223 134.608 358.64 Q132.756 359.056 130.811 359.936 L130.811 342.575 Z" fill="#000000" fill-rule="nonzero" fill-opacity="1" /><path clip-path="url(#clip220)" d="M55.1867 92.4824 L62.8256 92.4824 L62.8256 66.1168 L54.5154 67.7835 L54.5154 63.5242 L62.7793 61.8576 L67.4552 61.8576 L67.4552 92.4824 L75.094 92.4824 L75.094 96.4176 L55.1867 96.4176 L55.1867 92.4824 Z" fill="#000000" fill-rule="nonzero" fill-opacity="1" /><path clip-path="url(#clip220)" d="M84.5384 90.538 L89.4227 90.538 L89.4227 96.4176 L84.5384 96.4176 L84.5384 90.538 Z" fill="#000000" fill-rule="nonzero" fill-opacity="1" /><path clip-path="url(#clip220)" d="M109.608 64.9363 Q105.997 64.9363 104.168 68.5011 Q102.362 72.0427 102.362 79.1723 Q102.362 86.2787 104.168 89.8435 Q105.997 93.3852 109.608 93.3852 Q113.242 93.3852 115.048 89.8435 Q116.876 86.2787 116.876 79.1723 Q116.876 72.0427 115.048 68.5011 Q113.242 64.9363 109.608 64.9363 M109.608 61.2326 Q115.418 61.2326 118.473 65.839 Q121.552 70.4224 121.552 79.1723 Q121.552 87.8991 118.473 92.5056 Q115.418 97.0889 109.608 97.0889 Q103.798 97.0889 100.719 92.5056 Q97.6634 87.8991 97.6634 79.1723 Q97.6634 70.4224 100.719 65.839 Q103.798 61.2326 109.608 61.2326 Z" fill="#000000" fill-rule="nonzero" fill-opacity="1" /><path clip-path="url(#clip220)" d="M139.77 64.9363 Q136.159 64.9363 134.33 68.5011 Q132.524 72.0427 132.524 79.1723 Q132.524 86.2787 134.33 89.8435 Q136.159 93.3852 139.77 93.3852 Q143.404 93.3852 145.209 89.8435 Q147.038 86.2787 147.038 79.1723 Q147.038 72.0427 145.209 68.5011 Q143.404 64.9363 139.77 64.9363 M139.77 61.2326 Q145.58 61.2326 148.635 65.839 Q151.714 70.4224 151.714 79.1723 Q151.714 87.8991 148.635 92.5056 Q145.58 97.0889 139.77 97.0889 Q133.959 97.0889 130.881 92.5056 Q127.825 87.8991 127.825 79.1723 Q127.825 70.4224 130.881 65.839 Q133.959 61.2326 139.77 61.2326 Z" fill="#000000" fill-rule="nonzero" fill-opacity="1" /><polyline clip-path="url(#clip222)" style="stroke:#009af9; stroke-linecap:round; stroke-linejoin:round; stroke-width:4; stroke-opacity:1; fill:none" points="236.64,751.492 239.598,385.365 242.556,86.9018 245.514,943.404 248.473,270.852 251.431,979.979 254.389,647.058 257.347,614.147 260.305,867.175 263.263,343.127 266.221,635.556 269.179,229.842 272.137,770.391 275.096,421.936 278.054,888.033 281.012,963.555 283.97,691.853 286.928,276.764 289.886,532.977 292.844,409.241 295.802,706.064 298.761,493.546 301.719,221.44 304.677,445.954 307.635,542.331 310.593,1189.32 313.551,235.508 316.509,501.395 319.467,1044.42 322.425,292.552 325.384,756.375 328.342,1103.19 331.3,898.803 334.258,573.887 337.216,415.356 340.174,335.955 343.132,145.151 346.09,378.593 349.049,854.237 352.007,669.938 354.965,1147.81 357.923,1002.14 360.881,425.845 363.839,567.434 366.797,957.435 369.755,314.143 372.713,532.386 375.672,380.202 378.63,529.538 381.588,286.715 384.546,191.562 387.504,905.396 390.462,261.624 393.42,1195.01 396.378,151.749 399.336,865.588 402.295,534.733 405.253,459.992 408.211,516.163 411.169,569.331 414.127,229.488 417.085,926.765 420.043,791.753 423.001,509.313 425.96,934.57 428.918,133.051 431.876,926.493 434.834,226.753 437.792,1008.33 440.75,274.777 443.708,869.144 446.666,749.949 449.624,1183.23 452.583,673.49 455.541,986.07 458.499,844.399 461.457,431.959 464.415,267.813 467.373,1053.13 470.331,1192.28 473.289,135.712 476.248,207.678 479.206,459.429 482.164,1067.2 485.122,150.288 488.08,711.838 491.038,463.773 493.996,152.071 496.954,216.758 499.912,1188.02 502.871,1162.9 505.829,197.05 508.787,686.353 511.745,1000.69 514.703,276.122 517.661,526.011 520.619,974.757 523.577,460.178 526.535,683.478 529.494,1080.85 532.452,787.857 535.41,256.135 538.368,1068.69 541.326,754.54 544.284,757.45 547.242,1028.92 550.2,592.285 553.159,236.713 556.117,164.926 559.075,821.093 562.033,364.164 564.991,165.997 567.949,892.046 570.907,1149.27 573.865,1116.4 576.823,1010.59 579.782,168.92 582.74,440 585.698,722.335 588.656,1007.23 591.614,975.428 594.572,639.238 597.53,1112.09 600.488,487.987 603.447,955.847 606.405,1120.15 609.363,399.322 612.321,1111.13 615.279,890.349 618.237,282.572 621.195,424.814 624.153,722.331 627.111,352.585 630.07,965.219 633.028,392.739 635.986,572.034 638.944,380.47 641.902,144.644 644.86,1013.87 647.818,142.863 650.776,514.962 653.734,613.484 656.693,324.501 659.651,772.509 662.609,649.747 665.567,615.294 668.525,1197.78 671.483,287.125 674.441,758.563 677.399,1090.58 680.358,1059.85 683.316,619.117 686.274,195.124 689.232,1188.53 692.19,627.307 695.148,218.251 698.106,593.091 701.064,1054.08 704.022,256.163 706.981,108.572 709.939,674.752 712.897,1025.45 715.855,982.772 718.813,272.794 721.771,965.128 724.729,628.123 727.687,643.779 730.645,154.446 733.604,344.425 736.562,872.42 739.52,564.645 742.478,327.808 745.436,1142.79 748.394,1037.46 751.352,413.201 754.31,1097.74 757.269,1082.02 760.227,786.469 763.185,231.756 766.143,869.531 769.101,530.488 772.059,1114.1 775.017,217.284 777.975,1101.61 780.933,868.489 783.892,437.117 786.85,805.324 789.808,516.745 792.766,262.616 795.724,82.5838 798.682,423.877 801.64,465.199 804.598,1125.82 807.557,934.819 810.515,747.39 813.473,777.705 816.431,1145.45 819.389,719.456 822.347,630.126 825.305,676.856 828.263,583.839 831.221,568.103 834.18,240.496 837.138,385.939 840.096,253.601 843.054,1137.47 846.012,676.72 848.97,293.362 851.928,341.634 854.886,772.295 857.844,314.275 860.803,591.626 863.761,591.625 866.719,226.643 869.677,684.473 872.635,489.011 875.593,781.98 878.551,481.521 881.509,200.234 884.468,230.529 887.426,1083.28 890.384,1074.16 893.342,918.798 896.3,998.486 899.258,910.109 902.216,917.186 905.174,389.327 908.132,1010.73 911.091,1064.97 914.049,1173.97 917.007,986.611 919.965,264.914 922.923,347.795 925.881,411.671 928.839,336.664 931.797,725.408 934.756,749.631 937.714,893.698 940.672,563.174 943.63,817.316 946.588,427.607 949.546,298.206 952.504,827.244 955.462,923.629 958.42,893.604 961.379,332.04 964.337,915.96 967.295,400.302 970.253,1060.14 973.211,554.302 976.169,348.955 979.127,115.356 982.085,1046.12 985.043,531.014 988.002,591.911 990.96,865.19 993.918,809.485 996.876,964.448 999.834,563.208 1002.79,725.771 1005.75,1015.86 1008.71,896.817 1011.67,297.805 1014.62,359.03 1017.58,243.496 1020.54,141.506 1023.5,401.277 1026.46,471.219 1029.42,1129.3 1032.37,538.704 1035.33,148.414 1038.29,491.424 1041.25,382.744 1044.21,827.979 1047.16,881.87 1050.12,515.992 1053.08,614.092 1056.04,604.347 1059,436.985 1061.95,1059.07 1064.91,1088.53 1067.87,643.447 1070.83,255.8 1073.79,921.909 1076.75,674.045 1079.7,236.706 1082.66,1047.83 1085.62,130.495 1088.58,558.542 1091.54,722.733 1094.49,163.515 1097.45,908.138 1100.41,137.985 1103.37,292.403 1106.33,794.696 1109.28,921.477 1112.24,521.009 1115.2,603.947 1118.16,953.938 1121.12,860.511 1124.07,847.058 1127.03,1151.33 1129.99,886.209 1132.95,354.434 1135.91,504.363 1138.87,201.544 1141.82,864.285 1144.78,792.78 1147.74,168.758 1150.7,546.584 1153.66,1069.1 1156.61,391.303 1159.57,935.105 1162.53,798.044 1165.49,140.217 1168.45,140.854 1171.4,177.458 1174.36,489.434 1177.32,647.081 1180.28,895.045 1183.24,457.269 1186.2,661.916 1189.15,283.92 1192.11,862.543 1195.07,710.162 1198.03,238.819 1200.99,1187.59 1203.94,970.985 1206.9,547.209 1209.86,294.188 1212.82,1118.14 1215.78,1086.24 1218.73,910.84 1221.69,422.873 1224.65,674.257 1227.61,229.665 1230.57,225.139 1233.53,925.458 1236.48,181.709 1239.44,207.356 1242.4,212.605 1245.36,790.009 1248.32,579.603 1251.27,669.377 1254.23,812.282 1257.19,642.067 1260.15,155.975 1263.11,773.694 1266.06,922.507 1269.02,596.667 1271.98,292.443 1274.94,1184.77 1277.9,981.978 1280.86,241.266 1283.81,324.615 1286.77,1013.63 1289.73,672.602 1292.69,620.642 1295.65,372.373 1298.6,926.561 1301.56,909.402 1304.52,539.105 1307.48,319.162 1310.44,274.094 1313.39,939.833 1316.35,931.867 1319.31,1065.93 1322.27,889.119 1325.23,1061.94 1328.18,885.618 1331.14,646.866 1334.1,836.293 1337.06,915.085 1340.02,802.724 1342.98,535.976 1345.93,874.644 1348.89,809.312 1351.85,1140.78 1354.81,640.338 1357.77,1043.64 1360.72,112.363 1363.68,846.965 1366.64,543.589 1369.6,512.861 1372.56,129.894 1375.51,504.692 1378.47,424.471 1381.43,760.458 1384.39,230.383 1387.35,128.847 1390.31,90.5138 1393.26,438.97 1396.22,196.073 1399.18,1150.1 1402.14,739.959 1405.1,308.464 1408.05,332.075 1411.01,947.808 1413.97,265.397 1416.93,149.845 1419.89,1098.88 1422.84,105.029 1425.8,924.829 1428.76,700.354 1431.72,860.02 1434.68,1067.63 1437.64,912.673 1440.59,787.578 1443.55,853.14 1446.51,1130.73 1449.47,379.041 1452.43,1200.97 1455.38,760.402 1458.34,325.297 1461.3,298.363 1464.26,302.667 1467.22,513.147 1470.17,566.648 1473.13,922.897 1476.09,830.664 1479.05,873.86 1482.01,443.126 1484.97,1105 1487.92,620.842 1490.88,304.128 1493.84,1183.09 1496.8,597.235 1499.76,672.215 1502.71,977.662 1505.67,910.133 1508.63,284.291 1511.59,110.34 1514.55,1153.25 1517.5,828.646 1520.46,798.261 1523.42,413.884 1526.38,1007.88 1529.34,711.037 1532.29,497.49 1535.25,273.073 1538.21,138.979 1541.17,967.647 1544.13,596.356 1547.09,300.89 1550.04,210.004 1553,218.953 1555.96,411.76 1558.92,1095.41 1561.88,938.48 1564.83,868.849 1567.79,1162.14 1570.75,365.574 1573.71,264.246 1576.67,1027.02 1579.62,316.873 1582.58,651.907 1585.54,550.739 1588.5,741.309 1591.46,969.336 1594.42,80.8479 1597.37,617.038 1600.33,943.716 1603.29,1100.61 1606.25,269.121 1609.21,981.575 1612.16,1181.15 1615.12,437.688 1618.08,759.798 1621.04,1029.05 1624,722.442 1626.95,1199.36 1629.91,448.405 1632.87,631.497 1635.83,922.872 1638.79,259.219 1641.75,475.482 1644.7,951.642 1647.66,548.928 1650.62,441.911 1653.58,532.959 1656.54,379.42 1659.49,1110.24 1662.45,557.198 1665.41,669.398 1668.37,1161.39 1671.33,521.327 1674.28,701.025 1677.24,565.314 1680.2,962.554 1683.16,336.427 1686.12,667.12 1689.08,911.619 1692.03,923.955 1694.99,439.074 1697.95,843.632 1700.91,806.168 1703.87,758.157 1706.82,781.681 1709.78,242.1 1712.74,597.879 1715.7,1029.72 1718.66,104.725 1721.61,184.578 1724.57,1055.61 1727.53,762.264 1730.49,435.585 1733.45,728.638 1736.41,611.605 1739.36,201.895 1742.32,368.813 1745.28,333.64 1748.24,1066.31 1751.2,816.355 1754.15,482.112 1757.11,687.883 1760.07,388.271 1763.03,767.474 1765.99,1015.69 1768.94,990.088 1771.9,1143.86 1774.86,1138.97 1777.82,626.249 1780.78,107.386 1783.73,303.287 1786.69,728.464 1789.65,1178.98 1792.61,1072.82 1795.57,562.16 1798.53,445.585 1801.48,768.697 1804.44,1131.37 1807.4,441.07 1810.36,157.651 1813.32,665.168 1816.27,571.832 1819.23,757.413 1822.19,737.865 1825.15,395.512 1828.11,1029.13 1831.06,957.249 1834.02,285.083 1836.98,276.153 1839.94,1098.69 1842.9,91.4632 1845.86,912.417 1848.81,659.478 1851.77,185.412 1854.73,265.14 1857.69,734.682 1860.65,147.274 1863.6,146.294 1866.56,394.476 1869.52,642.563 1872.48,399.471 1875.44,351.888 1878.39,120.353 1881.35,356.11 1884.31,721.699 1887.27,791.58 1890.23,121.025 1893.19,1023.26 1896.14,1176.35 1899.1,667.548 1902.06,944.536 1905.02,1175.38 1907.98,103.924 1910.93,345.046 1913.89,636.449 1916.85,1167.66 1919.81,1199.18 1922.77,648.557 1925.72,465.075 1928.68,958.048 1931.64,686.024 1934.6,1136.3 1937.56,122.977 1940.52,1010.15 1943.47,1012.69 1946.43,205.879 1949.39,297.376 1952.35,259.876 1955.31,869.847 1958.26,941.552 1961.22,887.084 1964.18,739.362 1967.14,604.633 1970.1,288.545 1973.05,667.908 1976.01,1086.05 1978.97,472.618 1981.93,894.036 1984.89,588.713 1987.84,1061.74 1990.8,91.349 1993.76,1101.09 1996.72,616.048 1999.68,928.033 2002.64,745.665 2005.59,420.84 2008.55,928.69 2011.51,672.052 "/>
<path clip-path="url(#clip220)" d="M246.106 1195 L486.673 1195 L486.673 1091.32 L246.106 1091.32  Z" fill="#ffffff" fill-rule="evenodd" fill-opacity="1"/>
<polyline clip-path="url(#clip220)" style="stroke:#000000; stroke-linecap:round; stroke-linejoin:round; stroke-width:4; stroke-opacity:1; fill:none" points="246.106,1195 486.673,1195 486.673,1091.32 246.106,1091.32 246.106,1195 "/>
<polyline clip-path="url(#clip220)" style="stroke:#009af9; stroke-linecap:round; stroke-linejoin:round; stroke-width:4; stroke-opacity:1; fill:none" points="267.01,1143.16 392.434,1143.16 "/>
<path clip-path="url(#clip220)" d="M427.181 1162.85 Q425.375 1167.48 423.662 1168.89 Q421.949 1170.3 419.079 1170.3 L415.676 1170.3 L415.676 1166.74 L418.176 1166.74 Q419.935 1166.74 420.908 1165.9 Q421.88 1165.07 423.06 1161.97 L423.824 1160.02 L413.338 1134.52 L417.852 1134.52 L425.954 1154.79 L434.056 1134.52 L438.57 1134.52 L427.181 1162.85 Z" fill="#000000" fill-rule="nonzero" fill-opacity="1" /><path clip-path="url(#clip220)" d="M445.861 1156.51 L453.5 1156.51 L453.5 1130.14 L445.19 1131.81 L445.19 1127.55 L453.454 1125.88 L458.13 1125.88 L458.13 1156.51 L465.769 1156.51 L465.769 1160.44 L445.861 1160.44 L445.861 1156.51 Z" fill="#000000" fill-rule="nonzero" fill-opacity="1" /></svg>
