<?xml version="1.0" encoding="utf-8"?>
<svg xmlns="http://www.w3.org/2000/svg" xmlns:xlink="http://www.w3.org/1999/xlink" width="528" height="336" viewBox="0 0 2112 1344">
<defs>
  <clipPath id="clip840">
    <rect x="0" y="0" width="2112" height="1344"/>
  </clipPath>
</defs>
<path clip-path="url(#clip840)" d="M0 1344 L2112 1344 L2112 0 L0 0  Z" fill="#ffffff" fill-rule="evenodd" fill-opacity="1"/>
<defs>
  <clipPath id="clip841">
    <rect x="422" y="0" width="1479" height="1344"/>
  </clipPath>
</defs>
<path clip-path="url(#clip840)" d="M167.977 1234.58 L2064.76 1234.58 L2064.76 47.2441 L167.977 47.2441  Z" fill="#ffffff" fill-rule="evenodd" fill-opacity="1"/>
<defs>
  <clipPath id="clip842">
    <rect x="167" y="47" width="1898" height="1188"/>
  </clipPath>
</defs>
<polyline clip-path="url(#clip842)" style="stroke:#000000; stroke-linecap:round; stroke-linejoin:round; stroke-width:2; stroke-opacity:0.1; fill:none" points="221.66,1234.58 221.66,47.2441 "/>
<polyline clip-path="url(#clip842)" style="stroke:#000000; stroke-linecap:round; stroke-linejoin:round; stroke-width:2; stroke-opacity:0.1; fill:none" points="519.895,1234.58 519.895,47.2441 "/>
<polyline clip-path="url(#clip842)" style="stroke:#000000; stroke-linecap:round; stroke-linejoin:round; stroke-width:2; stroke-opacity:0.1; fill:none" points="818.131,1234.58 818.131,47.2441 "/>
<polyline clip-path="url(#clip842)" style="stroke:#000000; stroke-linecap:round; stroke-linejoin:round; stroke-width:2; stroke-opacity:0.1; fill:none" points="1116.37,1234.58 1116.37,47.2441 "/>
<polyline clip-path="url(#clip842)" style="stroke:#000000; stroke-linecap:round; stroke-linejoin:round; stroke-width:2; stroke-opacity:0.1; fill:none" points="1414.6,1234.58 1414.6,47.2441 "/>
<polyline clip-path="url(#clip842)" style="stroke:#000000; stroke-linecap:round; stroke-linejoin:round; stroke-width:2; stroke-opacity:0.1; fill:none" points="1712.84,1234.58 1712.84,47.2441 "/>
<polyline clip-path="url(#clip842)" style="stroke:#000000; stroke-linecap:round; stroke-linejoin:round; stroke-width:2; stroke-opacity:0.1; fill:none" points="2011.07,1234.58 2011.07,47.2441 "/>
<polyline clip-path="url(#clip840)" style="stroke:#000000; stroke-linecap:round; stroke-linejoin:round; stroke-width:4; stroke-opacity:1; fill:none" points="167.977,1234.58 2064.76,1234.58 "/>
<polyline clip-path="url(#clip840)" style="stroke:#000000; stroke-linecap:round; stroke-linejoin:round; stroke-width:4; stroke-opacity:1; fill:none" points="221.66,1234.58 221.66,1215.68 "/>
<polyline clip-path="url(#clip840)" style="stroke:#000000; stroke-linecap:round; stroke-linejoin:round; stroke-width:4; stroke-opacity:1; fill:none" points="519.895,1234.58 519.895,1215.68 "/>
<polyline clip-path="url(#clip840)" style="stroke:#000000; stroke-linecap:round; stroke-linejoin:round; stroke-width:4; stroke-opacity:1; fill:none" points="818.131,1234.58 818.131,1215.68 "/>
<polyline clip-path="url(#clip840)" style="stroke:#000000; stroke-linecap:round; stroke-linejoin:round; stroke-width:4; stroke-opacity:1; fill:none" points="1116.37,1234.58 1116.37,1215.68 "/>
<polyline clip-path="url(#clip840)" style="stroke:#000000; stroke-linecap:round; stroke-linejoin:round; stroke-width:4; stroke-opacity:1; fill:none" points="1414.6,1234.58 1414.6,1215.68 "/>
<polyline clip-path="url(#clip840)" style="stroke:#000000; stroke-linecap:round; stroke-linejoin:round; stroke-width:4; stroke-opacity:1; fill:none" points="1712.84,1234.58 1712.84,1215.68 "/>
<polyline clip-path="url(#clip840)" style="stroke:#000000; stroke-linecap:round; stroke-linejoin:round; stroke-width:4; stroke-opacity:1; fill:none" points="2011.07,1234.58 2011.07,1215.68 "/>
<path clip-path="url(#clip840)" d="M191.128 1277.85 L220.803 1277.85 L220.803 1281.78 L191.128 1281.78 L191.128 1277.85 Z" fill="#000000" fill-rule="nonzero" fill-opacity="1" /><path clip-path="url(#clip840)" d="M245.062 1276.04 Q248.419 1276.76 250.294 1279.03 Q252.192 1281.3 252.192 1284.63 Q252.192 1289.74 248.674 1292.55 Q245.155 1295.35 238.674 1295.35 Q236.498 1295.35 234.183 1294.91 Q231.891 1294.49 229.438 1293.63 L229.438 1289.12 Q231.382 1290.25 233.697 1290.83 Q236.012 1291.41 238.535 1291.41 Q242.933 1291.41 245.225 1289.67 Q247.539 1287.94 247.539 1284.63 Q247.539 1281.57 245.387 1279.86 Q243.257 1278.12 239.438 1278.12 L235.41 1278.12 L235.41 1274.28 L239.623 1274.28 Q243.072 1274.28 244.9 1272.92 Q246.729 1271.53 246.729 1268.93 Q246.729 1266.27 244.831 1264.86 Q242.956 1263.42 239.438 1263.42 Q237.516 1263.42 235.317 1263.84 Q233.118 1264.26 230.479 1265.14 L230.479 1260.97 Q233.141 1260.23 235.456 1259.86 Q237.794 1259.49 239.854 1259.49 Q245.178 1259.49 248.28 1261.92 Q251.382 1264.33 251.382 1268.45 Q251.382 1271.32 249.738 1273.31 Q248.095 1275.28 245.062 1276.04 Z" fill="#000000" fill-rule="nonzero" fill-opacity="1" /><path clip-path="url(#clip840)" d="M489.838 1277.85 L519.513 1277.85 L519.513 1281.78 L489.838 1281.78 L489.838 1277.85 Z" fill="#000000" fill-rule="nonzero" fill-opacity="1" /><path clip-path="url(#clip840)" d="M533.634 1290.74 L549.953 1290.74 L549.953 1294.67 L528.009 1294.67 L528.009 1290.74 Q530.671 1287.99 535.254 1283.36 Q539.861 1278.7 541.041 1277.36 Q543.287 1274.84 544.166 1273.1 Q545.069 1271.34 545.069 1269.65 Q545.069 1266.9 543.124 1265.16 Q541.203 1263.42 538.101 1263.42 Q535.902 1263.42 533.449 1264.19 Q531.018 1264.95 528.24 1266.5 L528.24 1261.78 Q531.064 1260.65 533.518 1260.07 Q535.972 1259.49 538.009 1259.49 Q543.379 1259.49 546.574 1262.17 Q549.768 1264.86 549.768 1269.35 Q549.768 1271.48 548.958 1273.4 Q548.171 1275.3 546.064 1277.89 Q545.486 1278.56 542.384 1281.78 Q539.282 1284.98 533.634 1290.74 Z" fill="#000000" fill-rule="nonzero" fill-opacity="1" /><path clip-path="url(#clip840)" d="M787.888 1277.85 L817.564 1277.85 L817.564 1281.78 L787.888 1281.78 L787.888 1277.85 Z" fill="#000000" fill-rule="nonzero" fill-opacity="1" /><path clip-path="url(#clip840)" d="M828.467 1290.74 L836.105 1290.74 L836.105 1264.37 L827.795 1266.04 L827.795 1261.78 L836.059 1260.11 L840.735 1260.11 L840.735 1290.74 L848.374 1290.74 L848.374 1294.67 L828.467 1294.67 L828.467 1290.74 Z" fill="#000000" fill-rule="nonzero" fill-opacity="1" /><path clip-path="url(#clip840)" d="M1116.37 1263.19 Q1112.76 1263.19 1110.93 1266.76 Q1109.12 1270.3 1109.12 1277.43 Q1109.12 1284.54 1110.93 1288.1 Q1112.76 1291.64 1116.37 1291.64 Q1120 1291.64 1121.81 1288.1 Q1123.64 1284.54 1123.64 1277.43 Q1123.64 1270.3 1121.81 1266.76 Q1120 1263.19 1116.37 1263.19 M1116.37 1259.49 Q1122.18 1259.49 1125.23 1264.1 Q1128.31 1268.68 1128.31 1277.43 Q1128.31 1286.16 1125.23 1290.76 Q1122.18 1295.35 1116.37 1295.35 Q1110.56 1295.35 1107.48 1290.76 Q1104.42 1286.16 1104.42 1277.43 Q1104.42 1268.68 1107.48 1264.1 Q1110.56 1259.49 1116.37 1259.49 Z" fill="#000000" fill-rule="nonzero" fill-opacity="1" /><path clip-path="url(#clip840)" d="M1404.98 1290.74 L1412.62 1290.74 L1412.62 1264.37 L1404.31 1266.04 L1404.31 1261.78 L1412.58 1260.11 L1417.25 1260.11 L1417.25 1290.74 L1424.89 1290.74 L1424.89 1294.67 L1404.98 1294.67 L1404.98 1290.74 Z" fill="#000000" fill-rule="nonzero" fill-opacity="1" /><path clip-path="url(#clip840)" d="M1707.49 1290.74 L1723.81 1290.74 L1723.81 1294.67 L1701.87 1294.67 L1701.87 1290.74 Q1704.53 1287.99 1709.11 1283.36 Q1713.72 1278.7 1714.9 1277.36 Q1717.14 1274.84 1718.02 1273.1 Q1718.93 1271.34 1718.93 1269.65 Q1718.93 1266.9 1716.98 1265.16 Q1715.06 1263.42 1711.96 1263.42 Q1709.76 1263.42 1707.31 1264.19 Q1704.87 1264.95 1702.1 1266.5 L1702.1 1261.78 Q1704.92 1260.65 1707.37 1260.07 Q1709.83 1259.49 1711.87 1259.49 Q1717.24 1259.49 1720.43 1262.17 Q1723.62 1264.86 1723.62 1269.35 Q1723.62 1271.48 1722.81 1273.4 Q1722.03 1275.3 1719.92 1277.89 Q1719.34 1278.56 1716.24 1281.78 Q1713.14 1284.98 1707.49 1290.74 Z" fill="#000000" fill-rule="nonzero" fill-opacity="1" /><path clip-path="url(#clip840)" d="M2015.32 1276.04 Q2018.68 1276.76 2020.55 1279.03 Q2022.45 1281.3 2022.45 1284.63 Q2022.45 1289.74 2018.93 1292.55 Q2015.41 1295.35 2008.93 1295.35 Q2006.76 1295.35 2004.44 1294.91 Q2002.15 1294.49 1999.7 1293.63 L1999.7 1289.12 Q2001.64 1290.25 2003.96 1290.83 Q2006.27 1291.41 2008.79 1291.41 Q2013.19 1291.41 2015.48 1289.67 Q2017.8 1287.94 2017.8 1284.63 Q2017.8 1281.57 2015.65 1279.86 Q2013.52 1278.12 2009.7 1278.12 L2005.67 1278.12 L2005.67 1274.28 L2009.88 1274.28 Q2013.33 1274.28 2015.16 1272.92 Q2016.99 1271.53 2016.99 1268.93 Q2016.99 1266.27 2015.09 1264.86 Q2013.21 1263.42 2009.7 1263.42 Q2007.77 1263.42 2005.58 1263.84 Q2003.38 1264.26 2000.74 1265.14 L2000.74 1260.97 Q2003.4 1260.23 2005.71 1259.86 Q2008.05 1259.49 2010.11 1259.49 Q2015.44 1259.49 2018.54 1261.92 Q2021.64 1264.33 2021.64 1268.45 Q2021.64 1271.32 2020 1273.31 Q2018.35 1275.28 2015.32 1276.04 Z" fill="#000000" fill-rule="nonzero" fill-opacity="1" /><polyline clip-path="url(#clip842)" style="stroke:#000000; stroke-linecap:round; stroke-linejoin:round; stroke-width:2; stroke-opacity:0.1; fill:none" points="167.977,1202.54 2064.76,1202.54 "/>
<polyline clip-path="url(#clip842)" style="stroke:#000000; stroke-linecap:round; stroke-linejoin:round; stroke-width:2; stroke-opacity:0.1; fill:none" points="167.977,1009.63 2064.76,1009.63 "/>
<polyline clip-path="url(#clip842)" style="stroke:#000000; stroke-linecap:round; stroke-linejoin:round; stroke-width:2; stroke-opacity:0.1; fill:none" points="167.977,816.711 2064.76,816.711 "/>
<polyline clip-path="url(#clip842)" style="stroke:#000000; stroke-linecap:round; stroke-linejoin:round; stroke-width:2; stroke-opacity:0.1; fill:none" points="167.977,623.795 2064.76,623.795 "/>
<polyline clip-path="url(#clip842)" style="stroke:#000000; stroke-linecap:round; stroke-linejoin:round; stroke-width:2; stroke-opacity:0.1; fill:none" points="167.977,430.88 2064.76,430.88 "/>
<polyline clip-path="url(#clip842)" style="stroke:#000000; stroke-linecap:round; stroke-linejoin:round; stroke-width:2; stroke-opacity:0.1; fill:none" points="167.977,237.964 2064.76,237.964 "/>
<polyline clip-path="url(#clip840)" style="stroke:#000000; stroke-linecap:round; stroke-linejoin:round; stroke-width:4; stroke-opacity:1; fill:none" points="167.977,1234.58 167.977,47.2441 "/>
<polyline clip-path="url(#clip840)" style="stroke:#000000; stroke-linecap:round; stroke-linejoin:round; stroke-width:4; stroke-opacity:1; fill:none" points="167.977,1202.54 186.875,1202.54 "/>
<polyline clip-path="url(#clip840)" style="stroke:#000000; stroke-linecap:round; stroke-linejoin:round; stroke-width:4; stroke-opacity:1; fill:none" points="167.977,1009.63 186.875,1009.63 "/>
<polyline clip-path="url(#clip840)" style="stroke:#000000; stroke-linecap:round; stroke-linejoin:round; stroke-width:4; stroke-opacity:1; fill:none" points="167.977,816.711 186.875,816.711 "/>
<polyline clip-path="url(#clip840)" style="stroke:#000000; stroke-linecap:round; stroke-linejoin:round; stroke-width:4; stroke-opacity:1; fill:none" points="167.977,623.795 186.875,623.795 "/>
<polyline clip-path="url(#clip840)" style="stroke:#000000; stroke-linecap:round; stroke-linejoin:round; stroke-width:4; stroke-opacity:1; fill:none" points="167.977,430.88 186.875,430.88 "/>
<polyline clip-path="url(#clip840)" style="stroke:#000000; stroke-linecap:round; stroke-linejoin:round; stroke-width:4; stroke-opacity:1; fill:none" points="167.977,237.964 186.875,237.964 "/>
<path clip-path="url(#clip840)" d="M124.353 1188.34 Q120.742 1188.34 118.913 1191.91 Q117.108 1195.45 117.108 1202.58 Q117.108 1209.68 118.913 1213.25 Q120.742 1216.79 124.353 1216.79 Q127.987 1216.79 129.793 1213.25 Q131.622 1209.68 131.622 1202.58 Q131.622 1195.45 129.793 1191.91 Q127.987 1188.34 124.353 1188.34 M124.353 1184.64 Q130.163 1184.64 133.219 1189.24 Q136.297 1193.83 136.297 1202.58 Q136.297 1211.3 133.219 1215.91 Q130.163 1220.49 124.353 1220.49 Q118.543 1220.49 115.464 1215.91 Q112.409 1211.3 112.409 1202.58 Q112.409 1193.83 115.464 1189.24 Q118.543 1184.64 124.353 1184.64 Z" fill="#000000" fill-rule="nonzero" fill-opacity="1" /><path clip-path="url(#clip840)" d="M84.2375 992.346 L102.594 992.346 L102.594 996.281 L88.5199 996.281 L88.5199 1004.75 Q89.5384 1004.41 90.5569 1004.24 Q91.5754 1004.06 92.5939 1004.06 Q98.381 1004.06 101.761 1007.23 Q105.14 1010.4 105.14 1015.82 Q105.14 1021.4 101.668 1024.5 Q98.1958 1027.58 91.8764 1027.58 Q89.7004 1027.58 87.4319 1027.21 Q85.1866 1026.84 82.7792 1026.1 L82.7792 1021.4 Q84.8625 1022.53 87.0847 1023.09 Q89.3069 1023.64 91.7838 1023.64 Q95.7884 1023.64 98.1263 1021.54 Q100.464 1019.43 100.464 1015.82 Q100.464 1012.21 98.1263 1010.1 Q95.7884 1007.99 91.7838 1007.99 Q89.9088 1007.99 88.0338 1008.41 Q86.1819 1008.83 84.2375 1009.71 L84.2375 992.346 Z" fill="#000000" fill-rule="nonzero" fill-opacity="1" /><path clip-path="url(#clip840)" d="M124.353 995.425 Q120.742 995.425 118.913 998.99 Q117.108 1002.53 117.108 1009.66 Q117.108 1016.77 118.913 1020.33 Q120.742 1023.87 124.353 1023.87 Q127.987 1023.87 129.793 1020.33 Q131.622 1016.77 131.622 1009.66 Q131.622 1002.53 129.793 998.99 Q127.987 995.425 124.353 995.425 M124.353 991.721 Q130.163 991.721 133.219 996.328 Q136.297 1000.91 136.297 1009.66 Q136.297 1018.39 133.219 1022.99 Q130.163 1027.58 124.353 1027.58 Q118.543 1027.58 115.464 1022.99 Q112.409 1018.39 112.409 1009.66 Q112.409 1000.91 115.464 996.328 Q118.543 991.721 124.353 991.721 Z" fill="#000000" fill-rule="nonzero" fill-opacity="1" /><path clip-path="url(#clip840)" d="M54.8395 830.056 L62.4784 830.056 L62.4784 803.69 L54.1682 805.357 L54.1682 801.097 L62.4321 799.431 L67.108 799.431 L67.108 830.056 L74.7468 830.056 L74.7468 833.991 L54.8395 833.991 L54.8395 830.056 Z" fill="#000000" fill-rule="nonzero" fill-opacity="1" /><path clip-path="url(#clip840)" d="M94.1912 802.509 Q90.5801 802.509 88.7514 806.074 Q86.9458 809.616 86.9458 816.745 Q86.9458 823.852 88.7514 827.417 Q90.5801 830.958 94.1912 830.958 Q97.8254 830.958 99.6309 827.417 Q101.46 823.852 101.46 816.745 Q101.46 809.616 99.6309 806.074 Q97.8254 802.509 94.1912 802.509 M94.1912 798.806 Q100.001 798.806 103.057 803.412 Q106.136 807.996 106.136 816.745 Q106.136 825.472 103.057 830.079 Q100.001 834.662 94.1912 834.662 Q88.381 834.662 85.3023 830.079 Q82.2468 825.472 82.2468 816.745 Q82.2468 807.996 85.3023 803.412 Q88.381 798.806 94.1912 798.806 Z" fill="#000000" fill-rule="nonzero" fill-opacity="1" /><path clip-path="url(#clip840)" d="M124.353 802.509 Q120.742 802.509 118.913 806.074 Q117.108 809.616 117.108 816.745 Q117.108 823.852 118.913 827.417 Q120.742 830.958 124.353 830.958 Q127.987 830.958 129.793 827.417 Q131.622 823.852 131.622 816.745 Q131.622 809.616 129.793 806.074 Q127.987 802.509 124.353 802.509 M124.353 798.806 Q130.163 798.806 133.219 803.412 Q136.297 807.996 136.297 816.745 Q136.297 825.472 133.219 830.079 Q130.163 834.662 124.353 834.662 Q118.543 834.662 115.464 830.079 Q112.409 825.472 112.409 816.745 Q112.409 807.996 115.464 803.412 Q118.543 798.806 124.353 798.806 Z" fill="#000000" fill-rule="nonzero" fill-opacity="1" /><path clip-path="url(#clip840)" d="M54.8395 637.14 L62.4784 637.14 L62.4784 610.774 L54.1682 612.441 L54.1682 608.182 L62.4321 606.515 L67.108 606.515 L67.108 637.14 L74.7468 637.14 L74.7468 641.075 L54.8395 641.075 L54.8395 637.14 Z" fill="#000000" fill-rule="nonzero" fill-opacity="1" /><path clip-path="url(#clip840)" d="M84.2375 606.515 L102.594 606.515 L102.594 610.45 L88.5199 610.45 L88.5199 618.923 Q89.5384 618.575 90.5569 618.413 Q91.5754 618.228 92.5939 618.228 Q98.381 618.228 101.761 621.399 Q105.14 624.571 105.14 629.987 Q105.14 635.566 101.668 638.668 Q98.1958 641.747 91.8764 641.747 Q89.7004 641.747 87.4319 641.376 Q85.1866 641.006 82.7792 640.265 L82.7792 635.566 Q84.8625 636.7 87.0847 637.256 Q89.3069 637.811 91.7838 637.811 Q95.7884 637.811 98.1263 635.705 Q100.464 633.598 100.464 629.987 Q100.464 626.376 98.1263 624.27 Q95.7884 622.163 91.7838 622.163 Q89.9088 622.163 88.0338 622.58 Q86.1819 622.997 84.2375 623.876 L84.2375 606.515 Z" fill="#000000" fill-rule="nonzero" fill-opacity="1" /><path clip-path="url(#clip840)" d="M124.353 609.594 Q120.742 609.594 118.913 613.159 Q117.108 616.7 117.108 623.83 Q117.108 630.936 118.913 634.501 Q120.742 638.043 124.353 638.043 Q127.987 638.043 129.793 634.501 Q131.622 630.936 131.622 623.83 Q131.622 616.7 129.793 613.159 Q127.987 609.594 124.353 609.594 M124.353 605.89 Q130.163 605.89 133.219 610.497 Q136.297 615.08 136.297 623.83 Q136.297 632.557 133.219 637.163 Q130.163 641.747 124.353 641.747 Q118.543 641.747 115.464 637.163 Q112.409 632.557 112.409 623.83 Q112.409 615.08 115.464 610.497 Q118.543 605.89 124.353 605.89 Z" fill="#000000" fill-rule="nonzero" fill-opacity="1" /><path clip-path="url(#clip840)" d="M58.0571 444.225 L74.3765 444.225 L74.3765 448.16 L52.4321 448.16 L52.4321 444.225 Q55.0941 441.47 59.6775 436.84 Q64.2839 432.188 65.4645 430.845 Q67.7098 428.322 68.5894 426.586 Q69.4922 424.826 69.4922 423.137 Q69.4922 420.382 67.5478 418.646 Q65.6265 416.91 62.5247 416.91 Q60.3256 416.91 57.8719 417.674 Q55.4414 418.438 52.6636 419.989 L52.6636 415.266 Q55.4877 414.132 57.9414 413.553 Q60.395 412.975 62.4321 412.975 Q67.8024 412.975 70.9968 415.66 Q74.1913 418.345 74.1913 422.836 Q74.1913 424.965 73.3811 426.887 Q72.5941 428.785 70.4876 431.377 Q69.9089 432.049 66.807 435.266 Q63.7052 438.461 58.0571 444.225 Z" fill="#000000" fill-rule="nonzero" fill-opacity="1" /><path clip-path="url(#clip840)" d="M94.1912 416.678 Q90.5801 416.678 88.7514 420.243 Q86.9458 423.785 86.9458 430.914 Q86.9458 438.021 88.7514 441.586 Q90.5801 445.127 94.1912 445.127 Q97.8254 445.127 99.6309 441.586 Q101.46 438.021 101.46 430.914 Q101.46 423.785 99.6309 420.243 Q97.8254 416.678 94.1912 416.678 M94.1912 412.975 Q100.001 412.975 103.057 417.581 Q106.136 422.164 106.136 430.914 Q106.136 439.641 103.057 444.248 Q100.001 448.831 94.1912 448.831 Q88.381 448.831 85.3023 444.248 Q82.2468 439.641 82.2468 430.914 Q82.2468 422.164 85.3023 417.581 Q88.381 412.975 94.1912 412.975 Z" fill="#000000" fill-rule="nonzero" fill-opacity="1" /><path clip-path="url(#clip840)" d="M124.353 416.678 Q120.742 416.678 118.913 420.243 Q117.108 423.785 117.108 430.914 Q117.108 438.021 118.913 441.586 Q120.742 445.127 124.353 445.127 Q127.987 445.127 129.793 441.586 Q131.622 438.021 131.622 430.914 Q131.622 423.785 129.793 420.243 Q127.987 416.678 124.353 416.678 M124.353 412.975 Q130.163 412.975 133.219 417.581 Q136.297 422.164 136.297 430.914 Q136.297 439.641 133.219 444.248 Q130.163 448.831 124.353 448.831 Q118.543 448.831 115.464 444.248 Q112.409 439.641 112.409 430.914 Q112.409 422.164 115.464 417.581 Q118.543 412.975 124.353 412.975 Z" fill="#000000" fill-rule="nonzero" fill-opacity="1" /><path clip-path="url(#clip840)" d="M58.0571 251.309 L74.3765 251.309 L74.3765 255.244 L52.4321 255.244 L52.4321 251.309 Q55.0941 248.554 59.6775 243.925 Q64.2839 239.272 65.4645 237.929 Q67.7098 235.406 68.5894 233.67 Q69.4922 231.911 69.4922 230.221 Q69.4922 227.467 67.5478 225.73 Q65.6265 223.994 62.5247 223.994 Q60.3256 223.994 57.8719 224.758 Q55.4414 225.522 52.6636 227.073 L52.6636 222.351 Q55.4877 221.217 57.9414 220.638 Q60.395 220.059 62.4321 220.059 Q67.8024 220.059 70.9968 222.744 Q74.1913 225.43 74.1913 229.92 Q74.1913 232.05 73.3811 233.971 Q72.5941 235.869 70.4876 238.462 Q69.9089 239.133 66.807 242.351 Q63.7052 245.545 58.0571 251.309 Z" fill="#000000" fill-rule="nonzero" fill-opacity="1" /><path clip-path="url(#clip840)" d="M84.2375 220.684 L102.594 220.684 L102.594 224.619 L88.5199 224.619 L88.5199 233.092 Q89.5384 232.744 90.5569 232.582 Q91.5754 232.397 92.5939 232.397 Q98.381 232.397 101.761 235.568 Q105.14 238.74 105.14 244.156 Q105.14 249.735 101.668 252.837 Q98.1958 255.915 91.8764 255.915 Q89.7004 255.915 87.4319 255.545 Q85.1866 255.175 82.7792 254.434 L82.7792 249.735 Q84.8625 250.869 87.0847 251.425 Q89.3069 251.98 91.7838 251.98 Q95.7884 251.98 98.1263 249.874 Q100.464 247.767 100.464 244.156 Q100.464 240.545 98.1263 238.439 Q95.7884 236.332 91.7838 236.332 Q89.9088 236.332 88.0338 236.749 Q86.1819 237.166 84.2375 238.045 L84.2375 220.684 Z" fill="#000000" fill-rule="nonzero" fill-opacity="1" /><path clip-path="url(#clip840)" d="M124.353 223.763 Q120.742 223.763 118.913 227.328 Q117.108 230.869 117.108 237.999 Q117.108 245.105 118.913 248.67 Q120.742 252.212 124.353 252.212 Q127.987 252.212 129.793 248.67 Q131.622 245.105 131.622 237.999 Q131.622 230.869 129.793 227.328 Q127.987 223.763 124.353 223.763 M124.353 220.059 Q130.163 220.059 133.219 224.666 Q136.297 229.249 136.297 237.999 Q136.297 246.726 133.219 251.332 Q130.163 255.915 124.353 255.915 Q118.543 255.915 115.464 251.332 Q112.409 246.726 112.409 237.999 Q112.409 229.249 115.464 224.666 Q118.543 220.059 124.353 220.059 Z" fill="#000000" fill-rule="nonzero" fill-opacity="1" /><polyline clip-path="url(#clip842)" style="stroke:#009af9; stroke-linecap:round; stroke-linejoin:round; stroke-width:4; stroke-opacity:1; fill:none" points="221.66,1200.97 224.642,1198.94 227.625,1198.65 230.607,1195.29 233.589,1195.21 236.572,1195.06 239.554,1192.53 242.536,1190.48 245.519,1190.15 248.501,1188.46 251.483,1185.66 254.466,1184.81 257.448,1183.07 260.43,1182.14 263.413,1178.73 266.395,1176.81 269.378,1176.37 272.36,1173.56 275.342,1170.79 278.325,1169.57 281.307,1168.09 284.289,1166.55 287.272,1165.35 290.254,1162.55 293.236,1161.87 296.219,1158.03 299.201,1155.74 302.183,1152.4 305.166,1150.07 308.148,1149.59 311.131,1148.63 314.113,1145.14 317.095,1144.35 320.078,1142.07 323.06,1140.8 326.042,1139.3 329.025,1135.51 332.007,1133.5 334.989,1130.44 337.972,1129.11 340.954,1128.58 343.936,1127.31 346.919,1123.47 349.901,1122.57 352.883,1120.49 355.866,1119.23 358.848,1119.06 361.831,1115.36 364.813,1112.71 367.795,1109.52 370.778,1106.98 373.76,1106.35 376.742,1105.26 379.725,1102.69 382.707,1100.84 385.689,1097 388.672,1093.34 391.654,1092.79 394.636,1091.65 397.619,1090.92 400.601,1089.29 403.584,1085.9 406.566,1083.76 409.548,1080.93 412.531,1077.12 415.513,1074.31 418.495,1074.12 421.478,1071.03 424.46,1069.75 427.442,1067.49 430.425,1065.12 433.407,1064.31 436.389,1063.12 439.372,1061.17 442.354,1060.13 445.337,1058.16 448.319,1054.52 451.301,1054.23 454.284,1051.89 457.266,1051.57 460.248,1050.35 463.231,1047.99 466.213,1045.6 469.195,1042.42 472.178,1040.32 475.16,1040.07 478.142,1037.78 481.125,1036.26 484.107,1033.78 487.09,1032.46 490.072,1029.39 493.054,1026 496.037,1024.36 499.019,1021.93 502.001,1021.55 504.984,1020.37 507.966,1017.86 510.948,1017.7 513.931,1016.52 516.913,1013.45 519.895,1011.41 522.878,1010.49 525.86,1007.4 528.843,1004.47 531.825,1000.96 534.807,997.148 537.79,995.55 540.772,992.836 543.754,992.228 546.737,991.22 549.719,988.317 552.701,987.867 555.684,987.758 558.666,984.875 561.648,981.025 564.631,978.981 567.613,975.735 570.595,974.832 573.578,972.574 576.56,968.896 579.543,968.638 582.525,966.994 585.507,966.396 588.49,964.508 591.472,960.667 594.454,960.042 597.437,958.146 600.419,955.297 603.401,954.604 606.384,952.072 609.366,949.726 612.348,949.039 615.331,945.26 618.313,942.198 621.296,939.176 624.278,937.703 627.26,936.973 630.243,933.3 633.225,930.414 636.207,929.138 639.19,925.456 642.172,925.387 645.154,925.372 648.137,922.164 651.119,921.992 654.101,918.283 657.084,917.104 660.066,916.549 663.049,912.712 666.031,909.302 669.013,908.336 671.996,905.935 674.978,902.316 677.96,900.99 680.943,898.098 683.925,896.011 686.907,893.747 689.89,892.73 692.872,892.355 695.854,891.436 698.837,890.066 701.819,889.429 704.802,888.79 707.784,885.251 710.766,884.346 713.749,884.025 716.731,882.21 719.713,879.558 722.696,878.828 725.678,877.457 728.66,876.267 731.643,875.862 734.625,875.262 737.607,874.354 740.59,871.628 743.572,868.013 746.555,865.419 749.537,864.334 752.519,863.108 755.502,860.929 758.484,860.153 761.466,860.066 764.449,859.519 767.431,857.625 770.413,854.153 773.396,851.331 776.378,849.438 779.36,849.163 782.343,846.278 785.325,842.768 788.307,839.455 791.29,839.424 794.272,839.104 797.255,838.95 800.237,838.395 803.219,834.977 806.202,834.16 809.184,834.019 812.166,831.077 815.149,827.637 818.131,823.923 821.113,820.781 824.096,817.75 827.078,816.927 830.06,816.728 833.043,813.701 836.025,810.065 839.008,808.414 841.99,807.067 844.972,803.956 847.955,801.063 850.937,799.831 853.919,798.398 856.902,795.104 859.884,792.043 862.866,788.866 865.849,788.149 868.831,785.106 871.813,784.22 874.796,782.308 877.778,778.524 880.761,775.577 883.743,772.993 886.725,769.152 889.708,768.247 892.69,766.17 895.672,764.026 898.655,762.776 901.637,760.463 904.619,758.566 907.602,756.453 910.584,753.006 913.566,752.997 916.549,752.086 919.531,749.367 922.514,746.588 925.496,743.581 928.478,741.041 931.461,740.401 934.443,736.77 937.425,735.054 940.408,735.038 943.39,733.228 946.372,730.43 949.355,726.932 952.337,726.82 955.319,723.177 958.302,719.802 961.284,716.913 964.266,715.316 967.249,714.632 970.231,712.357 973.214,708.966 976.196,705.183 979.178,701.989 982.161,701.693 985.143,699.397 988.125,698.48 991.108,697.34 994.09,696.987 997.072,694.729 1000.05,692.641 1003.04,690.033 1006.02,688.503 1009,685.775 1011.98,682.948 1014.97,679.224 1017.95,678.526 1020.93,678.072 1023.91,674.878 1026.9,671.312 1029.88,667.606 1032.86,666.756 1035.84,663.558 1038.83,662.099 1041.81,659.903 1044.79,656.101 1047.77,652.296 1050.75,651.763 1053.74,649.126 1056.72,647.836 1059.7,646.442 1062.68,644.504 1065.67,644.062 1068.65,641.121 1071.63,638.541 1074.61,637.881 1077.6,636.555 1080.58,635.557 1083.56,633.436 1086.54,632.465 1089.53,629.622 1092.51,628.535 1095.49,626.874 1098.47,626.033 1101.45,623.646 1104.44,620.706 1107.42,619.88 1110.4,616.046 1113.38,613.067 1116.37,611.655 1119.35,608.241 1122.33,607.554 1125.31,604.073 1128.3,603.486 1131.28,602.987 1134.26,601.535 1137.24,601.42 1140.23,598.455 1143.21,596.817 1146.19,596.436 1149.17,594.513 1152.15,593.916 1155.14,590.3 1158.12,587.033 1161.1,583.96 1164.08,583.707 1167.07,582.545 1170.05,581.667 1173.03,581.637 1176.01,578.122 1179,576.717 1181.98,573.742 1184.96,572.5 1187.94,572.325 1190.93,568.748 1193.91,566.081 1196.89,564.67 1199.87,564.4 1202.85,562.82 1205.84,562.338 1208.82,558.513 1211.8,555.235 1214.78,551.901 1217.77,548.332 1220.75,547.061 1223.73,544.799 1226.71,541.992 1229.7,540.489 1232.68,538.143 1235.66,534.665 1238.64,531.155 1241.63,529.512 1244.61,527.243 1247.59,527.059 1250.57,526.589 1253.56,525.089 1256.54,522.434 1259.52,521.145 1262.5,520.321 1265.48,519.141 1268.47,518.274 1271.45,518.06 1274.43,515.299 1277.41,515.093 1280.4,511.647 1283.38,511.19 1286.36,508.658 1289.34,507.498 1292.33,506.364 1295.31,503.86 1298.29,503.7 1301.27,503.486 1304.26,503.405 1307.24,503.087 1310.22,502.302 1313.2,500.861 1316.18,500.568 1319.17,499.1 1322.15,495.763 1325.13,493.961 1328.11,493.665 1331.1,493.416 1334.08,490.647 1337.06,490.391 1340.04,488.475 1343.03,486.817 1346.01,483.376 1348.99,481.966 1351.97,478.274 1354.96,476.079 1357.94,475.538 1360.92,475.075 1363.9,474.5 1366.88,470.771 1369.87,466.927 1372.85,465.609 1375.83,461.94 1378.81,460.539 1381.8,460.507 1384.78,458.233 1387.76,455.996 1390.74,452.674 1393.73,449.761 1396.71,449.214 1399.69,447.318 1402.67,443.902 1405.66,443.069 1408.64,439.393 1411.62,437.194 1414.6,436.758 1417.58,433.163 1420.57,430.069 1423.55,428.999 1426.53,427.339 1429.51,425.541 1432.5,423.152 1435.48,422.851 1438.46,420.832 1441.44,418.748 1444.43,415.264 1447.41,412.589 1450.39,408.79 1453.37,408.423 1456.36,406.925 1459.34,406.738 1462.32,403.357 1465.3,399.605 1468.28,396.565 1471.27,392.96 1474.25,390.457 1477.23,387.857 1480.21,386.87 1483.2,385.086 1486.18,382.763 1489.16,382.055 1492.14,378.419 1495.13,375.46 1498.11,374.569 1501.09,370.723 1504.07,367.61 1507.06,366.481 1510.04,364.066 1513.02,361.165 1516,358.463 1518.98,356.828 1521.97,354.753 1524.95,352.776 1527.93,351.811 1530.91,349.397 1533.9,346.867 1536.88,344.027 1539.86,343.138 1542.84,341.919 1545.83,341.639 1548.81,341.16 1551.79,340.83 1554.77,338.095 1557.76,334.888 1560.74,333.091 1563.72,331.556 1566.7,328.216 1569.68,325.281 1572.67,322.623 1575.65,322.571 1578.63,320.955 1581.61,319.497 1584.6,316.85 1587.58,313.591 1590.56,310.246 1593.54,309.733 1596.53,307.613 1599.51,306.352 1602.49,303.814 1605.47,302.126 1608.46,301.812 1611.44,301.236 1614.42,298.466 1617.4,297.401 1620.38,296.605 1623.37,293.375 1626.35,291.233 1629.33,289.516 1632.31,289.292 1635.3,288.181 1638.28,287.715 1641.26,284.181 1644.24,283.594 1647.23,279.885 1650.21,279.401 1653.19,275.846 1656.17,274.207 1659.16,274.134 1662.14,271.049 1665.12,270.916 1668.1,267.993 1671.08,266.514 1674.07,265.32 1677.05,262.593 1680.03,261.006 1683.01,260.224 1686,258.467 1688.98,257.777 1691.96,257.597 1694.94,257.046 1697.93,253.436 1700.91,249.751 1703.89,246.078 1706.87,243.972 1709.86,242.69 1712.84,241.304 1715.82,238.655 1718.8,238.258 1721.78,237.275 1724.77,235.151 1727.75,232.705 1730.73,231.329 1733.71,230.526 1736.7,230.093 1739.68,229.884 1742.66,229.305 1745.64,228.309 1748.63,228.208 1751.61,228.129 1754.59,226.064 1757.57,222.82 1760.56,220.068 1763.54,218.927 1766.52,218.513 1769.5,216.706 1772.49,214.503 1775.47,213.811 1778.45,213.704 1781.43,212.897 1784.41,212 1787.4,209.569 1790.38,207.859 1793.36,204.743 1796.34,204.047 1799.33,201.854 1802.31,198.899 1805.29,197.625 1808.27,196.42 1811.26,194.899 1814.24,192.024 1817.22,190.275 1820.2,189.049 1823.19,187.944 1826.17,187.184 1829.15,184.893 1832.13,182.503 1835.11,181.745 1838.1,178.454 1841.08,175.443 1844.06,171.715 1847.04,170.51 1850.03,169.709 1853.01,167.283 1855.99,167.018 1858.97,166.269 1861.96,165.409 1864.94,164.553 1867.92,162.717 1870.9,160.059 1873.89,159.312 1876.87,158.059 1879.85,157.358 1882.83,153.866 1885.81,153.86 1888.8,152.994 1891.78,152.241 1894.76,150.067 1897.74,149.397 1900.73,147.182 1903.71,143.82 1906.69,142.418 1909.67,141.17 1912.66,139.114 1915.64,138.671 1918.62,136.998 1921.6,133.976 1924.59,133.87 1927.57,131.378 1930.55,128.148 1933.53,125.565 1936.51,121.757 1939.5,118.902 1942.48,118.315 1945.46,115.89 1948.44,115.445 1951.43,114.87 1954.41,112.718 1957.39,111.983 1960.37,109.062 1963.36,107.107 1966.34,107.016 1969.32,104.279 1972.3,102.631 1975.29,100.324 1978.27,98.2831 1981.25,97.7447 1984.23,95.1401 1987.21,93.103 1990.2,92.9511 1993.18,90.0501 1996.16,89.2759 1999.14,88.6349 2002.13,87.3007 2005.11,83.6286 2008.09,82.8606 2011.07,80.8479 "/>
<path clip-path="url(#clip840)" d="M231.203 190.502 L473.311 190.502 L473.311 86.8219 L231.203 86.8219  Z" fill="#ffffff" fill-rule="evenodd" fill-opacity="1"/>
<polyline clip-path="url(#clip840)" style="stroke:#000000; stroke-linecap:round; stroke-linejoin:round; stroke-width:4; stroke-opacity:1; fill:none" points="231.203,190.502 473.311,190.502 473.311,86.8219 231.203,86.8219 231.203,190.502 "/>
<polyline clip-path="url(#clip840)" style="stroke:#009af9; stroke-linecap:round; stroke-linejoin:round; stroke-width:4; stroke-opacity:1; fill:none" points="252.279,138.662 378.731,138.662 "/>
<path clip-path="url(#clip840)" d="M413.648 158.349 Q411.843 162.979 410.13 164.391 Q408.417 165.803 405.547 165.803 L402.144 165.803 L402.144 162.238 L404.644 162.238 Q406.403 162.238 407.375 161.405 Q408.348 160.572 409.528 157.47 L410.292 155.525 L399.806 130.016 L404.32 130.016 L412.422 150.294 L420.523 130.016 L425.037 130.016 L413.648 158.349 Z" fill="#000000" fill-rule="nonzero" fill-opacity="1" /><path clip-path="url(#clip840)" d="M432.329 152.007 L439.968 152.007 L439.968 125.641 L431.658 127.308 L431.658 123.049 L439.921 121.382 L444.597 121.382 L444.597 152.007 L452.236 152.007 L452.236 155.942 L432.329 155.942 L432.329 152.007 Z" fill="#000000" fill-rule="nonzero" fill-opacity="1" /></svg>
