<?xml version="1.0" encoding="utf-8"?>
<svg xmlns="http://www.w3.org/2000/svg" xmlns:xlink="http://www.w3.org/1999/xlink" width="528" height="336" viewBox="0 0 2112 1344">
<defs>
  <clipPath id="clip390">
    <rect x="0" y="0" width="2112" height="1344"/>
  </clipPath>
</defs>
<path clip-path="url(#clip390)" d="M0 1344 L2112 1344 L2112 0 L0 0  Z" fill="#ffffff" fill-rule="evenodd" fill-opacity="1"/>
<defs>
  <clipPath id="clip391">
    <rect x="422" y="0" width="1479" height="1344"/>
  </clipPath>
</defs>
<path clip-path="url(#clip390)" d="M167.977 1234.58 L2064.76 1234.58 L2064.76 47.2441 L167.977 47.2441  Z" fill="#ffffff" fill-rule="evenodd" fill-opacity="1"/>
<defs>
  <clipPath id="clip392">
    <rect x="167" y="47" width="1898" height="1188"/>
  </clipPath>
</defs>
<polyline clip-path="url(#clip392)" style="stroke:#000000; stroke-linecap:round; stroke-linejoin:round; stroke-width:2; stroke-opacity:0.1; fill:none" points="221.66,1234.58 221.66,47.2441 "/>
<polyline clip-path="url(#clip392)" style="stroke:#000000; stroke-linecap:round; stroke-linejoin:round; stroke-width:2; stroke-opacity:0.1; fill:none" points="519.895,1234.58 519.895,47.2441 "/>
<polyline clip-path="url(#clip392)" style="stroke:#000000; stroke-linecap:round; stroke-linejoin:round; stroke-width:2; stroke-opacity:0.1; fill:none" points="818.131,1234.58 818.131,47.2441 "/>
<polyline clip-path="url(#clip392)" style="stroke:#000000; stroke-linecap:round; stroke-linejoin:round; stroke-width:2; stroke-opacity:0.1; fill:none" points="1116.37,1234.58 1116.37,47.2441 "/>
<polyline clip-path="url(#clip392)" style="stroke:#000000; stroke-linecap:round; stroke-linejoin:round; stroke-width:2; stroke-opacity:0.1; fill:none" points="1414.6,1234.58 1414.6,47.2441 "/>
<polyline clip-path="url(#clip392)" style="stroke:#000000; stroke-linecap:round; stroke-linejoin:round; stroke-width:2; stroke-opacity:0.1; fill:none" points="1712.84,1234.58 1712.84,47.2441 "/>
<polyline clip-path="url(#clip392)" style="stroke:#000000; stroke-linecap:round; stroke-linejoin:round; stroke-width:2; stroke-opacity:0.1; fill:none" points="2011.07,1234.58 2011.07,47.2441 "/>
<polyline clip-path="url(#clip390)" style="stroke:#000000; stroke-linecap:round; stroke-linejoin:round; stroke-width:4; stroke-opacity:1; fill:none" points="167.977,1234.58 2064.76,1234.58 "/>
<polyline clip-path="url(#clip390)" style="stroke:#000000; stroke-linecap:round; stroke-linejoin:round; stroke-width:4; stroke-opacity:1; fill:none" points="221.66,1234.58 221.66,1215.68 "/>
<polyline clip-path="url(#clip390)" style="stroke:#000000; stroke-linecap:round; stroke-linejoin:round; stroke-width:4; stroke-opacity:1; fill:none" points="519.895,1234.58 519.895,1215.68 "/>
<polyline clip-path="url(#clip390)" style="stroke:#000000; stroke-linecap:round; stroke-linejoin:round; stroke-width:4; stroke-opacity:1; fill:none" points="818.131,1234.58 818.131,1215.68 "/>
<polyline clip-path="url(#clip390)" style="stroke:#000000; stroke-linecap:round; stroke-linejoin:round; stroke-width:4; stroke-opacity:1; fill:none" points="1116.37,1234.58 1116.37,1215.68 "/>
<polyline clip-path="url(#clip390)" style="stroke:#000000; stroke-linecap:round; stroke-linejoin:round; stroke-width:4; stroke-opacity:1; fill:none" points="1414.6,1234.58 1414.6,1215.68 "/>
<polyline clip-path="url(#clip390)" style="stroke:#000000; stroke-linecap:round; stroke-linejoin:round; stroke-width:4; stroke-opacity:1; fill:none" points="1712.84,1234.58 1712.84,1215.68 "/>
<polyline clip-path="url(#clip390)" style="stroke:#000000; stroke-linecap:round; stroke-linejoin:round; stroke-width:4; stroke-opacity:1; fill:none" points="2011.07,1234.58 2011.07,1215.68 "/>
<path clip-path="url(#clip390)" d="M191.128 1277.85 L220.803 1277.85 L220.803 1281.78 L191.128 1281.78 L191.128 1277.85 Z" fill="#000000" fill-rule="nonzero" fill-opacity="1" /><path clip-path="url(#clip390)" d="M245.062 1276.04 Q248.419 1276.76 250.294 1279.03 Q252.192 1281.3 252.192 1284.63 Q252.192 1289.74 248.674 1292.55 Q245.155 1295.35 238.674 1295.35 Q236.498 1295.35 234.183 1294.91 Q231.891 1294.49 229.438 1293.63 L229.438 1289.12 Q231.382 1290.25 233.697 1290.83 Q236.012 1291.41 238.535 1291.41 Q242.933 1291.41 245.225 1289.67 Q247.539 1287.94 247.539 1284.63 Q247.539 1281.57 245.387 1279.86 Q243.257 1278.12 239.438 1278.12 L235.41 1278.12 L235.41 1274.28 L239.623 1274.28 Q243.072 1274.28 244.9 1272.92 Q246.729 1271.53 246.729 1268.93 Q246.729 1266.27 244.831 1264.86 Q242.956 1263.42 239.438 1263.42 Q237.516 1263.42 235.317 1263.84 Q233.118 1264.26 230.479 1265.14 L230.479 1260.97 Q233.141 1260.23 235.456 1259.86 Q237.794 1259.49 239.854 1259.49 Q245.178 1259.49 248.28 1261.92 Q251.382 1264.33 251.382 1268.45 Q251.382 1271.32 249.738 1273.31 Q248.095 1275.28 245.062 1276.04 Z" fill="#000000" fill-rule="nonzero" fill-opacity="1" /><path clip-path="url(#clip390)" d="M489.838 1277.85 L519.513 1277.85 L519.513 1281.78 L489.838 1281.78 L489.838 1277.85 Z" fill="#000000" fill-rule="nonzero" fill-opacity="1" /><path clip-path="url(#clip390)" d="M533.634 1290.74 L549.953 1290.74 L549.953 1294.67 L528.009 1294.67 L528.009 1290.74 Q530.671 1287.99 535.254 1283.36 Q539.861 1278.7 541.041 1277.36 Q543.287 1274.84 544.166 1273.1 Q545.069 1271.34 545.069 1269.65 Q545.069 1266.9 543.124 1265.16 Q541.203 1263.42 538.101 1263.42 Q535.902 1263.42 533.449 1264.19 Q531.018 1264.95 528.24 1266.5 L528.24 1261.78 Q531.064 1260.65 533.518 1260.07 Q535.972 1259.49 538.009 1259.49 Q543.379 1259.49 546.574 1262.17 Q549.768 1264.86 549.768 1269.35 Q549.768 1271.48 548.958 1273.4 Q548.171 1275.3 546.064 1277.89 Q545.486 1278.56 542.384 1281.78 Q539.282 1284.98 533.634 1290.74 Z" fill="#000000" fill-rule="nonzero" fill-opacity="1" /><path clip-path="url(#clip390)" d="M787.888 1277.85 L817.564 1277.85 L817.564 1281.78 L787.888 1281.78 L787.888 1277.85 Z" fill="#000000" fill-rule="nonzero" fill-opacity="1" /><path clip-path="url(#clip390)" d="M828.467 1290.74 L836.105 1290.74 L836.105 1264.37 L827.795 1266.04 L827.795 1261.78 L836.059 1260.11 L840.735 1260.11 L840.735 1290.74 L848.374 1290.74 L848.374 1294.67 L828.467 1294.67 L828.467 1290.74 Z" fill="#000000" fill-rule="nonzero" fill-opacity="1" /><path clip-path="url(#clip390)" d="M1116.37 1263.19 Q1112.76 1263.19 1110.93 1266.76 Q1109.12 1270.3 1109.12 1277.43 Q1109.12 1284.54 1110.93 1288.1 Q1112.76 1291.64 1116.37 1291.64 Q1120 1291.64 1121.81 1288.1 Q1123.64 1284.54 1123.64 1277.43 Q1123.64 1270.3 1121.81 1266.76 Q1120 1263.19 1116.37 1263.19 M1116.37 1259.49 Q1122.18 1259.49 1125.23 1264.1 Q1128.31 1268.68 1128.31 1277.43 Q1128.31 1286.16 1125.23 1290.76 Q1122.18 1295.35 1116.37 1295.35 Q1110.56 1295.35 1107.48 1290.76 Q1104.42 1286.16 1104.42 1277.43 Q1104.42 1268.68 1107.48 1264.1 Q1110.56 1259.49 1116.37 1259.49 Z" fill="#000000" fill-rule="nonzero" fill-opacity="1" /><path clip-path="url(#clip390)" d="M1404.98 1290.74 L1412.62 1290.74 L1412.62 1264.37 L1404.31 1266.04 L1404.31 1261.78 L1412.58 1260.11 L1417.25 1260.11 L1417.25 1290.74 L1424.89 1290.74 L1424.89 1294.67 L1404.98 1294.67 L1404.98 1290.74 Z" fill="#000000" fill-rule="nonzero" fill-opacity="1" /><path clip-path="url(#clip390)" d="M1707.49 1290.74 L1723.81 1290.74 L1723.81 1294.67 L1701.87 1294.67 L1701.87 1290.74 Q1704.53 1287.99 1709.11 1283.36 Q1713.72 1278.7 1714.9 1277.36 Q1717.14 1274.84 1718.02 1273.1 Q1718.93 1271.34 1718.93 1269.65 Q1718.93 1266.9 1716.98 1265.16 Q1715.06 1263.42 1711.96 1263.42 Q1709.76 1263.42 1707.31 1264.19 Q1704.87 1264.95 1702.1 1266.5 L1702.1 1261.78 Q1704.92 1260.65 1707.37 1260.07 Q1709.83 1259.49 1711.87 1259.49 Q1717.24 1259.49 1720.43 1262.17 Q1723.62 1264.86 1723.62 1269.35 Q1723.62 1271.48 1722.81 1273.4 Q1722.03 1275.3 1719.92 1277.89 Q1719.34 1278.56 1716.24 1281.78 Q1713.14 1284.98 1707.49 1290.74 Z" fill="#000000" fill-rule="nonzero" fill-opacity="1" /><path clip-path="url(#clip390)" d="M2015.32 1276.04 Q2018.68 1276.76 2020.55 1279.03 Q2022.45 1281.3 2022.45 1284.63 Q2022.45 1289.74 2018.93 1292.55 Q2015.41 1295.35 2008.93 1295.35 Q2006.76 1295.35 2004.44 1294.91 Q2002.15 1294.49 1999.7 1293.63 L1999.7 1289.12 Q2001.64 1290.25 2003.96 1290.83 Q2006.27 1291.41 2008.79 1291.41 Q2013.19 1291.41 2015.48 1289.67 Q2017.8 1287.94 2017.8 1284.63 Q2017.8 1281.57 2015.65 1279.86 Q2013.52 1278.12 2009.7 1278.12 L2005.67 1278.12 L2005.67 1274.28 L2009.88 1274.28 Q2013.33 1274.28 2015.16 1272.92 Q2016.99 1271.53 2016.99 1268.93 Q2016.99 1266.27 2015.09 1264.86 Q2013.21 1263.42 2009.7 1263.42 Q2007.77 1263.42 2005.58 1263.84 Q2003.38 1264.26 2000.74 1265.14 L2000.74 1260.97 Q2003.4 1260.23 2005.71 1259.86 Q2008.05 1259.49 2010.11 1259.49 Q2015.44 1259.49 2018.54 1261.92 Q2021.64 1264.33 2021.64 1268.45 Q2021.64 1271.32 2020 1273.31 Q2018.35 1275.28 2015.32 1276.04 Z" fill="#000000" fill-rule="nonzero" fill-opacity="1" /><polyline clip-path="url(#clip392)" style="stroke:#000000; stroke-linecap:round; stroke-linejoin:round; stroke-width:2; stroke-opacity:0.1; fill:none" points="167.977,1203.54 2064.76,1203.54 "/>
<polyline clip-path="url(#clip392)" style="stroke:#000000; stroke-linecap:round; stroke-linejoin:round; stroke-width:2; stroke-opacity:0.1; fill:none" points="167.977,850.82 2064.76,850.82 "/>
<polyline clip-path="url(#clip392)" style="stroke:#000000; stroke-linecap:round; stroke-linejoin:round; stroke-width:2; stroke-opacity:0.1; fill:none" points="167.977,498.096 2064.76,498.096 "/>
<polyline clip-path="url(#clip392)" style="stroke:#000000; stroke-linecap:round; stroke-linejoin:round; stroke-width:2; stroke-opacity:0.1; fill:none" points="167.977,145.372 2064.76,145.372 "/>
<polyline clip-path="url(#clip390)" style="stroke:#000000; stroke-linecap:round; stroke-linejoin:round; stroke-width:4; stroke-opacity:1; fill:none" points="167.977,1234.58 167.977,47.2441 "/>
<polyline clip-path="url(#clip390)" style="stroke:#000000; stroke-linecap:round; stroke-linejoin:round; stroke-width:4; stroke-opacity:1; fill:none" points="167.977,1203.54 186.875,1203.54 "/>
<polyline clip-path="url(#clip390)" style="stroke:#000000; stroke-linecap:round; stroke-linejoin:round; stroke-width:4; stroke-opacity:1; fill:none" points="167.977,850.82 186.875,850.82 "/>
<polyline clip-path="url(#clip390)" style="stroke:#000000; stroke-linecap:round; stroke-linejoin:round; stroke-width:4; stroke-opacity:1; fill:none" points="167.977,498.096 186.875,498.096 "/>
<polyline clip-path="url(#clip390)" style="stroke:#000000; stroke-linecap:round; stroke-linejoin:round; stroke-width:4; stroke-opacity:1; fill:none" points="167.977,145.372 186.875,145.372 "/>
<path clip-path="url(#clip390)" d="M124.353 1189.34 Q120.742 1189.34 118.913 1192.91 Q117.108 1196.45 117.108 1203.58 Q117.108 1210.69 118.913 1214.25 Q120.742 1217.79 124.353 1217.79 Q127.987 1217.79 129.793 1214.25 Q131.622 1210.69 131.622 1203.58 Q131.622 1196.45 129.793 1192.91 Q127.987 1189.34 124.353 1189.34 M124.353 1185.64 Q130.163 1185.64 133.219 1190.25 Q136.297 1194.83 136.297 1203.58 Q136.297 1212.31 133.219 1216.91 Q130.163 1221.5 124.353 1221.5 Q118.543 1221.5 115.464 1216.91 Q112.409 1212.31 112.409 1203.58 Q112.409 1194.83 115.464 1190.25 Q118.543 1185.64 124.353 1185.64 Z" fill="#000000" fill-rule="nonzero" fill-opacity="1" /><path clip-path="url(#clip390)" d="M54.8395 864.165 L62.4784 864.165 L62.4784 837.8 L54.1682 839.466 L54.1682 835.207 L62.4321 833.54 L67.108 833.54 L67.108 864.165 L74.7468 864.165 L74.7468 868.1 L54.8395 868.1 L54.8395 864.165 Z" fill="#000000" fill-rule="nonzero" fill-opacity="1" /><path clip-path="url(#clip390)" d="M94.1912 836.619 Q90.5801 836.619 88.7514 840.184 Q86.9458 843.726 86.9458 850.855 Q86.9458 857.962 88.7514 861.526 Q90.5801 865.068 94.1912 865.068 Q97.8254 865.068 99.6309 861.526 Q101.46 857.962 101.46 850.855 Q101.46 843.726 99.6309 840.184 Q97.8254 836.619 94.1912 836.619 M94.1912 832.915 Q100.001 832.915 103.057 837.522 Q106.136 842.105 106.136 850.855 Q106.136 859.582 103.057 864.188 Q100.001 868.772 94.1912 868.772 Q88.381 868.772 85.3023 864.188 Q82.2468 859.582 82.2468 850.855 Q82.2468 842.105 85.3023 837.522 Q88.381 832.915 94.1912 832.915 Z" fill="#000000" fill-rule="nonzero" fill-opacity="1" /><path clip-path="url(#clip390)" d="M124.353 836.619 Q120.742 836.619 118.913 840.184 Q117.108 843.726 117.108 850.855 Q117.108 857.962 118.913 861.526 Q120.742 865.068 124.353 865.068 Q127.987 865.068 129.793 861.526 Q131.622 857.962 131.622 850.855 Q131.622 843.726 129.793 840.184 Q127.987 836.619 124.353 836.619 M124.353 832.915 Q130.163 832.915 133.219 837.522 Q136.297 842.105 136.297 850.855 Q136.297 859.582 133.219 864.188 Q130.163 868.772 124.353 868.772 Q118.543 868.772 115.464 864.188 Q112.409 859.582 112.409 850.855 Q112.409 842.105 115.464 837.522 Q118.543 832.915 124.353 832.915 Z" fill="#000000" fill-rule="nonzero" fill-opacity="1" /><path clip-path="url(#clip390)" d="M58.0571 511.441 L74.3765 511.441 L74.3765 515.376 L52.4321 515.376 L52.4321 511.441 Q55.0941 508.686 59.6775 504.057 Q64.2839 499.404 65.4645 498.061 Q67.7098 495.538 68.5894 493.802 Q69.4922 492.043 69.4922 490.353 Q69.4922 487.598 67.5478 485.862 Q65.6265 484.126 62.5247 484.126 Q60.3256 484.126 57.8719 484.89 Q55.4414 485.654 52.6636 487.205 L52.6636 482.483 Q55.4877 481.348 57.9414 480.77 Q60.395 480.191 62.4321 480.191 Q67.8024 480.191 70.9968 482.876 Q74.1913 485.561 74.1913 490.052 Q74.1913 492.182 73.3811 494.103 Q72.5941 496.001 70.4876 498.594 Q69.9089 499.265 66.807 502.483 Q63.7052 505.677 58.0571 511.441 Z" fill="#000000" fill-rule="nonzero" fill-opacity="1" /><path clip-path="url(#clip390)" d="M94.1912 483.895 Q90.5801 483.895 88.7514 487.459 Q86.9458 491.001 86.9458 498.131 Q86.9458 505.237 88.7514 508.802 Q90.5801 512.344 94.1912 512.344 Q97.8254 512.344 99.6309 508.802 Q101.46 505.237 101.46 498.131 Q101.46 491.001 99.6309 487.459 Q97.8254 483.895 94.1912 483.895 M94.1912 480.191 Q100.001 480.191 103.057 484.797 Q106.136 489.381 106.136 498.131 Q106.136 506.858 103.057 511.464 Q100.001 516.047 94.1912 516.047 Q88.381 516.047 85.3023 511.464 Q82.2468 506.858 82.2468 498.131 Q82.2468 489.381 85.3023 484.797 Q88.381 480.191 94.1912 480.191 Z" fill="#000000" fill-rule="nonzero" fill-opacity="1" /><path clip-path="url(#clip390)" d="M124.353 483.895 Q120.742 483.895 118.913 487.459 Q117.108 491.001 117.108 498.131 Q117.108 505.237 118.913 508.802 Q120.742 512.344 124.353 512.344 Q127.987 512.344 129.793 508.802 Q131.622 505.237 131.622 498.131 Q131.622 491.001 129.793 487.459 Q127.987 483.895 124.353 483.895 M124.353 480.191 Q130.163 480.191 133.219 484.797 Q136.297 489.381 136.297 498.131 Q136.297 506.858 133.219 511.464 Q130.163 516.047 124.353 516.047 Q118.543 516.047 115.464 511.464 Q112.409 506.858 112.409 498.131 Q112.409 489.381 115.464 484.797 Q118.543 480.191 124.353 480.191 Z" fill="#000000" fill-rule="nonzero" fill-opacity="1" /><path clip-path="url(#clip390)" d="M68.1959 144.017 Q71.5524 144.735 73.4274 147.004 Q75.3255 149.272 75.3255 152.605 Q75.3255 157.721 71.807 160.522 Q68.2885 163.323 61.8071 163.323 Q59.6312 163.323 57.3164 162.883 Q55.0247 162.466 52.571 161.61 L52.571 157.096 Q54.5154 158.23 56.8303 158.809 Q59.1451 159.388 61.6682 159.388 Q66.0663 159.388 68.358 157.652 Q70.6728 155.916 70.6728 152.605 Q70.6728 149.55 68.52 147.837 Q66.3904 146.101 62.571 146.101 L58.5432 146.101 L58.5432 142.258 L62.7561 142.258 Q66.2052 142.258 68.0339 140.892 Q69.8626 139.504 69.8626 136.911 Q69.8626 134.249 67.9645 132.837 Q66.0895 131.402 62.571 131.402 Q60.6497 131.402 58.4506 131.818 Q56.2515 132.235 53.6127 133.115 L53.6127 128.948 Q56.2747 128.207 58.5895 127.837 Q60.9275 127.467 62.9876 127.467 Q68.3117 127.467 71.4135 129.897 Q74.5153 132.305 74.5153 136.425 Q74.5153 139.295 72.8718 141.286 Q71.2283 143.254 68.1959 144.017 Z" fill="#000000" fill-rule="nonzero" fill-opacity="1" /><path clip-path="url(#clip390)" d="M94.1912 131.17 Q90.5801 131.17 88.7514 134.735 Q86.9458 138.277 86.9458 145.406 Q86.9458 152.513 88.7514 156.078 Q90.5801 159.619 94.1912 159.619 Q97.8254 159.619 99.6309 156.078 Q101.46 152.513 101.46 145.406 Q101.46 138.277 99.6309 134.735 Q97.8254 131.17 94.1912 131.17 M94.1912 127.467 Q100.001 127.467 103.057 132.073 Q106.136 136.656 106.136 145.406 Q106.136 154.133 103.057 158.74 Q100.001 163.323 94.1912 163.323 Q88.381 163.323 85.3023 158.74 Q82.2468 154.133 82.2468 145.406 Q82.2468 136.656 85.3023 132.073 Q88.381 127.467 94.1912 127.467 Z" fill="#000000" fill-rule="nonzero" fill-opacity="1" /><path clip-path="url(#clip390)" d="M124.353 131.17 Q120.742 131.17 118.913 134.735 Q117.108 138.277 117.108 145.406 Q117.108 152.513 118.913 156.078 Q120.742 159.619 124.353 159.619 Q127.987 159.619 129.793 156.078 Q131.622 152.513 131.622 145.406 Q131.622 138.277 129.793 134.735 Q127.987 131.17 124.353 131.17 M124.353 127.467 Q130.163 127.467 133.219 132.073 Q136.297 136.656 136.297 145.406 Q136.297 154.133 133.219 158.74 Q130.163 163.323 124.353 163.323 Q118.543 163.323 115.464 158.74 Q112.409 154.133 112.409 145.406 Q112.409 136.656 115.464 132.073 Q118.543 127.467 124.353 127.467 Z" fill="#000000" fill-rule="nonzero" fill-opacity="1" /><polyline clip-path="url(#clip392)" style="stroke:#009af9; stroke-linecap:round; stroke-linejoin:round; stroke-width:4; stroke-opacity:1; fill:none" points="221.66,1200.97 224.642,1197.65 227.625,1194.58 230.607,1192.06 233.589,1190.77 236.572,1188.34 239.554,1186.47 242.536,1183.47 245.519,1180.35 248.501,1179.08 251.483,1178.49 254.466,1177.87 257.448,1177.14 260.43,1175.63 263.413,1172.7 266.395,1169.24 269.378,1168.82 272.36,1166.19 275.342,1164.29 278.325,1161.89 281.307,1161.58 284.289,1158.7 287.272,1158.12 290.254,1157.01 293.236,1154.16 296.219,1150.94 299.201,1150.68 302.183,1148.31 305.166,1144.85 308.148,1143.93 311.131,1141.58 314.113,1139.4 317.095,1138.65 320.078,1135.98 323.06,1133.57 326.042,1132.3 329.025,1130.49 332.007,1128.78 334.989,1125.96 337.972,1125.54 340.954,1124.25 343.936,1122.69 346.919,1119.58 349.901,1116.84 352.883,1114.58 355.866,1112.63 358.848,1110.5 361.831,1108.79 364.813,1106.57 367.795,1103.62 370.778,1102.32 373.76,1101.75 376.742,1099.92 379.725,1096.81 382.707,1096.35 385.689,1094.25 388.672,1093.79 391.654,1090.53 394.636,1090.15 397.619,1090.07 400.601,1088.7 403.584,1086.12 406.566,1085.77 409.548,1085.67 412.531,1083.07 415.513,1081.46 418.495,1079.38 421.478,1077.48 424.46,1075.91 427.442,1074.46 430.425,1070.94 433.407,1068.56 436.389,1066.89 439.372,1065.84 442.354,1063.61 445.337,1061.67 448.319,1058.36 451.301,1056.53 454.284,1056.42 457.266,1053.61 460.248,1052.03 463.231,1052.01 466.213,1051.14 469.195,1048.45 472.178,1047.82 475.16,1046.22 478.142,1046.14 481.125,1044.4 484.107,1043.56 487.09,1040.07 490.072,1036.6 493.054,1036.05 496.037,1034.16 499.019,1032.71 502.001,1032.1 504.984,1032.03 507.966,1028.67 510.948,1027.49 513.931,1027.17 516.913,1026.28 519.895,1024.14 522.878,1021.91 525.86,1020.02 528.843,1018.72 531.825,1015.45 534.807,1014.14 537.79,1011.64 540.772,1010.57 543.754,1009.24 546.737,1006.94 549.719,1004.02 552.701,1002.61 555.684,999.796 558.666,996.324 561.648,994.916 564.631,992.02 567.613,990.838 570.595,988.13 573.578,986.096 576.56,982.956 579.543,980.997 582.525,979.117 585.507,976.771 588.49,976.603 591.472,974.39 594.454,971.142 597.437,969.721 600.419,968.767 603.401,965.957 606.384,963.076 609.366,959.695 612.348,956.423 615.331,953.853 618.313,953.665 621.296,953.445 624.278,953.167 627.26,951.901 630.243,949.153 633.225,946.552 636.207,944.765 639.19,941.422 642.172,941.101 645.154,937.828 648.137,934.308 651.119,932.286 654.101,930.597 657.084,928.175 660.066,927.148 663.049,926.186 666.031,923.601 669.013,920.478 671.996,920.182 674.978,918.593 677.96,917.738 680.943,914.658 683.925,914.286 686.907,911.087 689.89,909.682 692.872,906.191 695.854,903.823 698.837,902.756 701.819,900.177 704.802,897.422 707.784,897.223 710.766,895.775 713.749,894.611 716.731,891.238 719.713,888.09 722.696,887.104 725.678,885.441 728.66,883.079 731.643,881.1 734.625,880.322 737.607,878.685 740.59,875.46 743.572,872.588 746.555,870.829 749.537,870.329 752.519,867.658 755.502,864.233 758.484,864.075 761.466,861.394 764.449,861.251 767.431,860.072 770.413,858.921 773.396,858.36 776.378,855.354 779.36,855.153 782.343,854.927 785.325,852.897 788.307,852.779 791.29,850.415 794.272,850.011 797.255,847.323 800.237,847.179 803.219,847.038 806.202,845.075 809.184,843.75 812.166,841.463 815.149,839.32 818.131,836.626 821.113,833.664 824.096,830.487 827.078,827.217 830.06,825.143 833.043,824.741 836.025,824.184 839.008,822.052 841.99,820.671 844.972,820.259 847.955,819.928 850.937,819.588 853.919,818.299 856.902,816.278 859.884,813.743 862.866,811.111 865.849,809.233 868.831,807.397 871.813,806.358 874.796,803.825 877.778,800.332 880.761,797.548 883.743,797.03 886.725,794.53 889.708,793.967 892.69,791.121 895.672,787.644 898.655,787.203 901.637,784.267 904.619,782.733 907.602,781.977 910.584,780.242 913.566,777.604 916.549,775.372 919.531,772.864 922.514,770.023 925.496,768.471 928.478,766.536 931.461,766.525 934.443,763.99 937.425,761.436 940.408,759.645 943.39,756.878 946.372,755.947 949.355,752.658 952.337,752.109 955.319,749.084 958.302,747.498 961.284,747.434 964.266,745.53 967.249,742.966 970.231,739.734 973.214,737.654 976.196,735.755 979.178,735.569 982.161,732.936 985.143,730.984 988.125,729.29 991.108,726.071 994.09,724.767 997.072,722.94 1000.05,722.82 1003.04,720.09 1006.02,716.985 1009,714.06 1011.98,710.891 1014.97,709.795 1017.95,708.335 1020.93,707.506 1023.91,705.961 1026.9,705.825 1029.88,704.577 1032.86,701.776 1035.84,700.655 1038.83,698.17 1041.81,694.698 1044.79,692.896 1047.77,691.23 1050.75,690.497 1053.74,687.489 1056.72,685.909 1059.7,685.327 1062.68,684.567 1065.67,682.526 1068.65,679.881 1071.63,677.987 1074.61,677.732 1077.6,674.971 1080.58,674.567 1083.56,673.39 1086.54,671.583 1089.53,669.761 1092.51,669.125 1095.49,665.864 1098.47,665.131 1101.45,664.96 1104.44,663.492 1107.42,660.866 1110.4,658.14 1113.38,654.677 1116.37,651.703 1119.35,651.589 1122.33,648.182 1125.31,645.34 1128.3,642.153 1131.28,638.945 1134.26,635.689 1137.24,632.794 1140.23,632.362 1143.21,631.02 1146.19,629.784 1149.17,628.163 1152.15,625.012 1155.14,622.099 1158.12,621.244 1161.1,621.127 1164.08,620.711 1167.07,618.086 1170.05,616.209 1173.03,613.702 1176.01,611.197 1179,609.424 1181.98,607.368 1184.96,606 1187.94,603.31 1190.93,600.618 1193.91,600.41 1196.89,598.62 1199.87,597.445 1202.85,594.677 1205.84,591.42 1208.82,588.098 1211.8,584.842 1214.78,584.366 1217.77,581.892 1220.75,579.02 1223.73,576.663 1226.71,573.936 1229.7,571.346 1232.68,568.062 1235.66,566.429 1238.64,563.364 1241.63,562.319 1244.61,560.108 1247.59,556.669 1250.57,553.897 1253.56,550.692 1256.54,550.102 1259.52,548.782 1262.5,546.53 1265.48,544.75 1268.47,542.561 1271.45,542.019 1274.43,541.385 1277.41,538.712 1280.4,536.449 1283.38,533.454 1286.36,533.295 1289.34,533.09 1292.33,531.613 1295.31,528.448 1298.29,525.381 1301.27,523.669 1304.26,520.653 1307.24,519.268 1310.22,516.24 1313.2,513.947 1316.18,512.887 1319.17,509.436 1322.15,505.939 1325.13,504.373 1328.11,503.206 1331.1,500.336 1334.08,497.121 1337.06,495.08 1340.04,493.689 1343.03,491.41 1346.01,488.873 1348.99,487.463 1351.97,484.637 1354.96,483.728 1357.94,483.639 1360.92,483.111 1363.9,479.599 1366.88,478.813 1369.87,475.527 1372.85,472.8 1375.83,470.898 1378.81,470.437 1381.8,467.993 1384.78,465.45 1387.76,465.416 1390.74,463.676 1393.73,462.787 1396.71,459.41 1399.69,458.048 1402.67,457.14 1405.66,454.015 1408.64,451.827 1411.62,449.158 1414.6,448.27 1417.58,447.897 1420.57,444.484 1423.55,444.182 1426.53,441.324 1429.51,438.519 1432.5,438.338 1435.48,435.96 1438.46,435.753 1441.44,433.081 1444.43,429.829 1447.41,428.004 1450.39,427.602 1453.37,426.652 1456.36,425.076 1459.34,422.588 1462.32,422.066 1465.3,419.088 1468.28,418.347 1471.27,417.97 1474.25,417.295 1477.23,416.692 1480.21,414.564 1483.2,412.359 1486.18,409.839 1489.16,409.508 1492.14,407.892 1495.13,406.938 1498.11,406.155 1501.09,405.301 1504.07,404.077 1507.06,402.344 1510.04,401.111 1513.02,399.196 1516,397.591 1518.98,394.381 1521.97,392.329 1524.95,388.825 1527.93,385.76 1530.91,385.074 1533.9,383.023 1536.88,381.063 1539.86,379.407 1542.84,376.563 1545.83,375.296 1548.81,372.431 1551.79,372.203 1554.77,371.914 1557.76,370.678 1560.74,367.47 1563.72,366.058 1566.7,362.648 1569.68,362.604 1572.67,360.052 1575.65,359.738 1578.63,358.305 1581.61,355.233 1584.6,353.969 1587.58,351.705 1590.56,348.686 1593.54,347.915 1596.53,344.682 1599.51,343.979 1602.49,343.152 1605.47,339.904 1608.46,338.135 1611.44,336.537 1614.42,333.288 1617.4,333.19 1620.38,331.448 1623.37,330.491 1626.35,329.052 1629.33,325.6 1632.31,324.661 1635.3,323.954 1638.28,320.966 1641.26,320.601 1644.24,319.665 1647.23,316.327 1650.21,313.425 1653.19,310.473 1656.17,308.274 1659.16,305.038 1662.14,302.383 1665.12,301.756 1668.1,300.413 1671.08,299.918 1674.07,297.551 1677.05,297.421 1680.03,294.592 1683.01,291.888 1686,291.087 1688.98,290.715 1691.96,288.987 1694.94,286.583 1697.93,286.277 1700.91,283.188 1703.89,280.241 1706.87,279.152 1709.86,278.742 1712.84,277.71 1715.82,274.953 1718.8,274.563 1721.78,272.606 1724.77,270.944 1727.75,268.11 1730.73,265.412 1733.71,264.368 1736.7,262.588 1739.68,260.779 1742.66,259.147 1745.64,256.709 1748.63,256.516 1751.61,254.268 1754.59,252.897 1757.57,251.569 1760.56,248.577 1763.54,245.698 1766.52,243.736 1769.5,242.252 1772.49,240.63 1775.47,238.582 1778.45,236.354 1781.43,235.169 1784.41,234.791 1787.4,232.822 1790.38,232.743 1793.36,231.675 1796.34,230.842 1799.33,228.44 1802.31,226.123 1805.29,223.97 1808.27,221.072 1811.26,219.557 1814.24,217.979 1817.22,217.284 1820.2,215.705 1823.19,214.84 1826.17,212.952 1829.15,210.211 1832.13,208.818 1835.11,208.392 1838.1,205.245 1841.08,202.644 1844.06,199.273 1847.04,196.747 1850.03,195.013 1853.01,193.506 1855.99,193.488 1858.97,192.105 1861.96,189.564 1864.94,187.213 1867.92,184.235 1870.9,181.946 1873.89,181.199 1876.87,179.673 1879.85,176.46 1882.83,173.705 1885.81,171.967 1888.8,168.667 1891.78,165.227 1894.76,161.72 1897.74,158.438 1900.73,155.839 1903.71,153.984 1906.69,153.341 1909.67,152.705 1912.66,150.371 1915.64,147.943 1918.62,145.076 1921.6,143.873 1924.59,140.961 1927.57,138.284 1930.55,137.508 1933.53,135.423 1936.51,133.748 1939.5,130.514 1942.48,129.039 1945.46,126.689 1948.44,125.371 1951.43,122.209 1954.41,120.457 1957.39,120.167 1960.37,119.932 1963.36,116.584 1966.34,113.378 1969.32,111.422 1972.3,111.099 1975.29,110.135 1978.27,106.73 1981.25,104.468 1984.23,101.653 1987.21,100.687 1990.2,98.3949 1993.18,95.4608 1996.16,92.2468 1999.14,90.7085 2002.13,88.8403 2005.11,85.7588 2008.09,82.8776 2011.07,80.8479 "/>
<path clip-path="url(#clip390)" d="M231.203 190.502 L473.311 190.502 L473.311 86.8219 L231.203 86.8219  Z" fill="#ffffff" fill-rule="evenodd" fill-opacity="1"/>
<polyline clip-path="url(#clip390)" style="stroke:#000000; stroke-linecap:round; stroke-linejoin:round; stroke-width:4; stroke-opacity:1; fill:none" points="231.203,190.502 473.311,190.502 473.311,86.8219 231.203,86.8219 231.203,190.502 "/>
<polyline clip-path="url(#clip390)" style="stroke:#009af9; stroke-linecap:round; stroke-linejoin:round; stroke-width:4; stroke-opacity:1; fill:none" points="252.279,138.662 378.731,138.662 "/>
<path clip-path="url(#clip390)" d="M413.648 158.349 Q411.843 162.979 410.13 164.391 Q408.417 165.803 405.547 165.803 L402.144 165.803 L402.144 162.238 L404.644 162.238 Q406.403 162.238 407.375 161.405 Q408.348 160.572 409.528 157.47 L410.292 155.525 L399.806 130.016 L404.32 130.016 L412.422 150.294 L420.523 130.016 L425.037 130.016 L413.648 158.349 Z" fill="#000000" fill-rule="nonzero" fill-opacity="1" /><path clip-path="url(#clip390)" d="M432.329 152.007 L439.968 152.007 L439.968 125.641 L431.658 127.308 L431.658 123.049 L439.921 121.382 L444.597 121.382 L444.597 152.007 L452.236 152.007 L452.236 155.942 L432.329 155.942 L432.329 152.007 Z" fill="#000000" fill-rule="nonzero" fill-opacity="1" /></svg>
