<?xml version="1.0" encoding="utf-8"?>
<svg xmlns="http://www.w3.org/2000/svg" xmlns:xlink="http://www.w3.org/1999/xlink" width="528" height="336" viewBox="0 0 2112 1344">
<defs>
  <clipPath id="clip770">
    <rect x="0" y="0" width="2112" height="1344"/>
  </clipPath>
</defs>
<path clip-path="url(#clip770)" d="M0 1344 L2112 1344 L2112 0 L0 0  Z" fill="#ffffff" fill-rule="evenodd" fill-opacity="1"/>
<defs>
  <clipPath id="clip771">
    <rect x="422" y="0" width="1479" height="1344"/>
  </clipPath>
</defs>
<path clip-path="url(#clip770)" d="M183.394 1234.58 L2064.76 1234.58 L2064.76 47.2441 L183.394 47.2441  Z" fill="#ffffff" fill-rule="evenodd" fill-opacity="1"/>
<defs>
  <clipPath id="clip772">
    <rect x="183" y="47" width="1882" height="1188"/>
  </clipPath>
</defs>
<polyline clip-path="url(#clip772)" style="stroke:#000000; stroke-linecap:round; stroke-linejoin:round; stroke-width:2; stroke-opacity:0.1; fill:none" points="236.64,1234.58 236.64,47.2441 "/>
<polyline clip-path="url(#clip772)" style="stroke:#000000; stroke-linecap:round; stroke-linejoin:round; stroke-width:2; stroke-opacity:0.1; fill:none" points="532.452,1234.58 532.452,47.2441 "/>
<polyline clip-path="url(#clip772)" style="stroke:#000000; stroke-linecap:round; stroke-linejoin:round; stroke-width:2; stroke-opacity:0.1; fill:none" points="828.263,1234.58 828.263,47.2441 "/>
<polyline clip-path="url(#clip772)" style="stroke:#000000; stroke-linecap:round; stroke-linejoin:round; stroke-width:2; stroke-opacity:0.1; fill:none" points="1124.07,1234.58 1124.07,47.2441 "/>
<polyline clip-path="url(#clip772)" style="stroke:#000000; stroke-linecap:round; stroke-linejoin:round; stroke-width:2; stroke-opacity:0.1; fill:none" points="1419.89,1234.58 1419.89,47.2441 "/>
<polyline clip-path="url(#clip772)" style="stroke:#000000; stroke-linecap:round; stroke-linejoin:round; stroke-width:2; stroke-opacity:0.1; fill:none" points="1715.7,1234.58 1715.7,47.2441 "/>
<polyline clip-path="url(#clip772)" style="stroke:#000000; stroke-linecap:round; stroke-linejoin:round; stroke-width:2; stroke-opacity:0.1; fill:none" points="2011.51,1234.58 2011.51,47.2441 "/>
<polyline clip-path="url(#clip770)" style="stroke:#000000; stroke-linecap:round; stroke-linejoin:round; stroke-width:4; stroke-opacity:1; fill:none" points="183.394,1234.58 2064.76,1234.58 "/>
<polyline clip-path="url(#clip770)" style="stroke:#000000; stroke-linecap:round; stroke-linejoin:round; stroke-width:4; stroke-opacity:1; fill:none" points="236.64,1234.58 236.64,1215.68 "/>
<polyline clip-path="url(#clip770)" style="stroke:#000000; stroke-linecap:round; stroke-linejoin:round; stroke-width:4; stroke-opacity:1; fill:none" points="532.452,1234.58 532.452,1215.68 "/>
<polyline clip-path="url(#clip770)" style="stroke:#000000; stroke-linecap:round; stroke-linejoin:round; stroke-width:4; stroke-opacity:1; fill:none" points="828.263,1234.58 828.263,1215.68 "/>
<polyline clip-path="url(#clip770)" style="stroke:#000000; stroke-linecap:round; stroke-linejoin:round; stroke-width:4; stroke-opacity:1; fill:none" points="1124.07,1234.58 1124.07,1215.68 "/>
<polyline clip-path="url(#clip770)" style="stroke:#000000; stroke-linecap:round; stroke-linejoin:round; stroke-width:4; stroke-opacity:1; fill:none" points="1419.89,1234.58 1419.89,1215.68 "/>
<polyline clip-path="url(#clip770)" style="stroke:#000000; stroke-linecap:round; stroke-linejoin:round; stroke-width:4; stroke-opacity:1; fill:none" points="1715.7,1234.58 1715.7,1215.68 "/>
<polyline clip-path="url(#clip770)" style="stroke:#000000; stroke-linecap:round; stroke-linejoin:round; stroke-width:4; stroke-opacity:1; fill:none" points="2011.51,1234.58 2011.51,1215.68 "/>
<path clip-path="url(#clip770)" d="M206.108 1277.85 L235.784 1277.85 L235.784 1281.78 L206.108 1281.78 L206.108 1277.85 Z" fill="#000000" fill-rule="nonzero" fill-opacity="1" /><path clip-path="url(#clip770)" d="M260.043 1276.04 Q263.399 1276.76 265.274 1279.03 Q267.172 1281.3 267.172 1284.63 Q267.172 1289.74 263.654 1292.55 Q260.135 1295.35 253.654 1295.35 Q251.478 1295.35 249.163 1294.91 Q246.872 1294.49 244.418 1293.63 L244.418 1289.12 Q246.362 1290.25 248.677 1290.83 Q250.992 1291.41 253.515 1291.41 Q257.913 1291.41 260.205 1289.67 Q262.52 1287.94 262.52 1284.63 Q262.52 1281.57 260.367 1279.86 Q258.237 1278.12 254.418 1278.12 L250.39 1278.12 L250.39 1274.28 L254.603 1274.28 Q258.052 1274.28 259.881 1272.92 Q261.709 1271.53 261.709 1268.93 Q261.709 1266.27 259.811 1264.86 Q257.936 1263.42 254.418 1263.42 Q252.496 1263.42 250.297 1263.84 Q248.098 1264.26 245.459 1265.14 L245.459 1260.97 Q248.122 1260.23 250.436 1259.86 Q252.774 1259.49 254.834 1259.49 Q260.158 1259.49 263.26 1261.92 Q266.362 1264.33 266.362 1268.45 Q266.362 1271.32 264.719 1273.31 Q263.075 1275.28 260.043 1276.04 Z" fill="#000000" fill-rule="nonzero" fill-opacity="1" /><path clip-path="url(#clip770)" d="M502.394 1277.85 L532.07 1277.85 L532.07 1281.78 L502.394 1281.78 L502.394 1277.85 Z" fill="#000000" fill-rule="nonzero" fill-opacity="1" /><path clip-path="url(#clip770)" d="M546.19 1290.74 L562.509 1290.74 L562.509 1294.67 L540.565 1294.67 L540.565 1290.74 Q543.227 1287.99 547.81 1283.36 Q552.417 1278.7 553.597 1277.36 Q555.843 1274.84 556.722 1273.1 Q557.625 1271.34 557.625 1269.65 Q557.625 1266.9 555.681 1265.16 Q553.759 1263.42 550.658 1263.42 Q548.459 1263.42 546.005 1264.19 Q543.574 1264.95 540.797 1266.5 L540.797 1261.78 Q543.621 1260.65 546.074 1260.07 Q548.528 1259.49 550.565 1259.49 Q555.935 1259.49 559.13 1262.17 Q562.324 1264.86 562.324 1269.35 Q562.324 1271.48 561.514 1273.4 Q560.727 1275.3 558.621 1277.89 Q558.042 1278.56 554.94 1281.78 Q551.838 1284.98 546.19 1290.74 Z" fill="#000000" fill-rule="nonzero" fill-opacity="1" /><path clip-path="url(#clip770)" d="M798.02 1277.85 L827.696 1277.85 L827.696 1281.78 L798.02 1281.78 L798.02 1277.85 Z" fill="#000000" fill-rule="nonzero" fill-opacity="1" /><path clip-path="url(#clip770)" d="M838.599 1290.74 L846.238 1290.74 L846.238 1264.37 L837.928 1266.04 L837.928 1261.78 L846.191 1260.11 L850.867 1260.11 L850.867 1290.74 L858.506 1290.74 L858.506 1294.67 L838.599 1294.67 L838.599 1290.74 Z" fill="#000000" fill-rule="nonzero" fill-opacity="1" /><path clip-path="url(#clip770)" d="M1124.07 1263.19 Q1120.46 1263.19 1118.64 1266.76 Q1116.83 1270.3 1116.83 1277.43 Q1116.83 1284.54 1118.64 1288.1 Q1120.46 1291.64 1124.07 1291.64 Q1127.71 1291.64 1129.51 1288.1 Q1131.34 1284.54 1131.34 1277.43 Q1131.34 1270.3 1129.51 1266.76 Q1127.71 1263.19 1124.07 1263.19 M1124.07 1259.49 Q1129.89 1259.49 1132.94 1264.1 Q1136.02 1268.68 1136.02 1277.43 Q1136.02 1286.16 1132.94 1290.76 Q1129.89 1295.35 1124.07 1295.35 Q1118.26 1295.35 1115.19 1290.76 Q1112.13 1286.16 1112.13 1277.43 Q1112.13 1268.68 1115.19 1264.1 Q1118.26 1259.49 1124.07 1259.49 Z" fill="#000000" fill-rule="nonzero" fill-opacity="1" /><path clip-path="url(#clip770)" d="M1410.27 1290.74 L1417.91 1290.74 L1417.91 1264.37 L1409.6 1266.04 L1409.6 1261.78 L1417.86 1260.11 L1422.54 1260.11 L1422.54 1290.74 L1430.18 1290.74 L1430.18 1294.67 L1410.27 1294.67 L1410.27 1290.74 Z" fill="#000000" fill-rule="nonzero" fill-opacity="1" /><path clip-path="url(#clip770)" d="M1710.35 1290.74 L1726.67 1290.74 L1726.67 1294.67 L1704.73 1294.67 L1704.73 1290.74 Q1707.39 1287.99 1711.97 1283.36 Q1716.58 1278.7 1717.76 1277.36 Q1720 1274.84 1720.88 1273.1 Q1721.79 1271.34 1721.79 1269.65 Q1721.79 1266.9 1719.84 1265.16 Q1717.92 1263.42 1714.82 1263.42 Q1712.62 1263.42 1710.17 1264.19 Q1707.74 1264.95 1704.96 1266.5 L1704.96 1261.78 Q1707.78 1260.65 1710.24 1260.07 Q1712.69 1259.49 1714.73 1259.49 Q1720.1 1259.49 1723.29 1262.17 Q1726.49 1264.86 1726.49 1269.35 Q1726.49 1271.48 1725.67 1273.4 Q1724.89 1275.3 1722.78 1277.89 Q1722.2 1278.56 1719.1 1281.78 Q1716 1284.98 1710.35 1290.74 Z" fill="#000000" fill-rule="nonzero" fill-opacity="1" /><path clip-path="url(#clip770)" d="M2015.76 1276.04 Q2019.11 1276.76 2020.99 1279.03 Q2022.89 1281.3 2022.89 1284.63 Q2022.89 1289.74 2019.37 1292.55 Q2015.85 1295.35 2009.37 1295.35 Q2007.19 1295.35 2004.88 1294.91 Q2002.59 1294.49 2000.13 1293.63 L2000.13 1289.12 Q2002.08 1290.25 2004.39 1290.83 Q2006.71 1291.41 2009.23 1291.41 Q2013.63 1291.41 2015.92 1289.67 Q2018.23 1287.94 2018.23 1284.63 Q2018.23 1281.57 2016.08 1279.86 Q2013.95 1278.12 2010.13 1278.12 L2006.1 1278.12 L2006.1 1274.28 L2010.32 1274.28 Q2013.77 1274.28 2015.6 1272.92 Q2017.42 1271.53 2017.42 1268.93 Q2017.42 1266.27 2015.53 1264.86 Q2013.65 1263.42 2010.13 1263.42 Q2008.21 1263.42 2006.01 1263.84 Q2003.81 1264.26 2001.17 1265.14 L2001.17 1260.97 Q2003.84 1260.23 2006.15 1259.86 Q2008.49 1259.49 2010.55 1259.49 Q2015.87 1259.49 2018.98 1261.92 Q2022.08 1264.33 2022.08 1268.45 Q2022.08 1271.32 2020.43 1273.31 Q2018.79 1275.28 2015.76 1276.04 Z" fill="#000000" fill-rule="nonzero" fill-opacity="1" /><polyline clip-path="url(#clip772)" style="stroke:#000000; stroke-linecap:round; stroke-linejoin:round; stroke-width:2; stroke-opacity:0.1; fill:none" points="183.394,1201.89 2064.76,1201.89 "/>
<polyline clip-path="url(#clip772)" style="stroke:#000000; stroke-linecap:round; stroke-linejoin:round; stroke-width:2; stroke-opacity:0.1; fill:none" points="183.394,919.831 2064.76,919.831 "/>
<polyline clip-path="url(#clip772)" style="stroke:#000000; stroke-linecap:round; stroke-linejoin:round; stroke-width:2; stroke-opacity:0.1; fill:none" points="183.394,637.771 2064.76,637.771 "/>
<polyline clip-path="url(#clip772)" style="stroke:#000000; stroke-linecap:round; stroke-linejoin:round; stroke-width:2; stroke-opacity:0.1; fill:none" points="183.394,355.711 2064.76,355.711 "/>
<polyline clip-path="url(#clip772)" style="stroke:#000000; stroke-linecap:round; stroke-linejoin:round; stroke-width:2; stroke-opacity:0.1; fill:none" points="183.394,73.6508 2064.76,73.6508 "/>
<polyline clip-path="url(#clip770)" style="stroke:#000000; stroke-linecap:round; stroke-linejoin:round; stroke-width:4; stroke-opacity:1; fill:none" points="183.394,1234.58 183.394,47.2441 "/>
<polyline clip-path="url(#clip770)" style="stroke:#000000; stroke-linecap:round; stroke-linejoin:round; stroke-width:4; stroke-opacity:1; fill:none" points="183.394,1201.89 202.292,1201.89 "/>
<polyline clip-path="url(#clip770)" style="stroke:#000000; stroke-linecap:round; stroke-linejoin:round; stroke-width:4; stroke-opacity:1; fill:none" points="183.394,919.831 202.292,919.831 "/>
<polyline clip-path="url(#clip770)" style="stroke:#000000; stroke-linecap:round; stroke-linejoin:round; stroke-width:4; stroke-opacity:1; fill:none" points="183.394,637.771 202.292,637.771 "/>
<polyline clip-path="url(#clip770)" style="stroke:#000000; stroke-linecap:round; stroke-linejoin:round; stroke-width:4; stroke-opacity:1; fill:none" points="183.394,355.711 202.292,355.711 "/>
<polyline clip-path="url(#clip770)" style="stroke:#000000; stroke-linecap:round; stroke-linejoin:round; stroke-width:4; stroke-opacity:1; fill:none" points="183.394,73.6508 202.292,73.6508 "/>
<path clip-path="url(#clip770)" d="M64.3765 1187.69 Q60.7654 1187.69 58.9367 1191.25 Q57.1312 1194.8 57.1312 1201.93 Q57.1312 1209.03 58.9367 1212.6 Q60.7654 1216.14 64.3765 1216.14 Q68.0107 1216.14 69.8163 1212.6 Q71.645 1209.03 71.645 1201.93 Q71.645 1194.8 69.8163 1191.25 Q68.0107 1187.69 64.3765 1187.69 M64.3765 1183.99 Q70.1867 1183.99 73.2422 1188.59 Q76.3209 1193.18 76.3209 1201.93 Q76.3209 1210.65 73.2422 1215.26 Q70.1867 1219.84 64.3765 1219.84 Q58.5664 1219.84 55.4877 1215.26 Q52.4321 1210.65 52.4321 1201.93 Q52.4321 1193.18 55.4877 1188.59 Q58.5664 1183.99 64.3765 1183.99 Z" fill="#000000" fill-rule="nonzero" fill-opacity="1" /><path clip-path="url(#clip770)" d="M84.5384 1213.29 L89.4227 1213.29 L89.4227 1219.17 L84.5384 1219.17 L84.5384 1213.29 Z" fill="#000000" fill-rule="nonzero" fill-opacity="1" /><path clip-path="url(#clip770)" d="M109.608 1187.69 Q105.997 1187.69 104.168 1191.25 Q102.362 1194.8 102.362 1201.93 Q102.362 1209.03 104.168 1212.6 Q105.997 1216.14 109.608 1216.14 Q113.242 1216.14 115.048 1212.6 Q116.876 1209.03 116.876 1201.93 Q116.876 1194.8 115.048 1191.25 Q113.242 1187.69 109.608 1187.69 M109.608 1183.99 Q115.418 1183.99 118.473 1188.59 Q121.552 1193.18 121.552 1201.93 Q121.552 1210.65 118.473 1215.26 Q115.418 1219.84 109.608 1219.84 Q103.798 1219.84 100.719 1215.26 Q97.6634 1210.65 97.6634 1201.93 Q97.6634 1193.18 100.719 1188.59 Q103.798 1183.99 109.608 1183.99 Z" fill="#000000" fill-rule="nonzero" fill-opacity="1" /><path clip-path="url(#clip770)" d="M139.77 1187.69 Q136.159 1187.69 134.33 1191.25 Q132.524 1194.8 132.524 1201.93 Q132.524 1209.03 134.33 1212.6 Q136.159 1216.14 139.77 1216.14 Q143.404 1216.14 145.209 1212.6 Q147.038 1209.03 147.038 1201.93 Q147.038 1194.8 145.209 1191.25 Q143.404 1187.69 139.77 1187.69 M139.77 1183.99 Q145.58 1183.99 148.635 1188.59 Q151.714 1193.18 151.714 1201.93 Q151.714 1210.65 148.635 1215.26 Q145.58 1219.84 139.77 1219.84 Q133.959 1219.84 130.881 1215.26 Q127.825 1210.65 127.825 1201.93 Q127.825 1193.18 130.881 1188.59 Q133.959 1183.99 139.77 1183.99 Z" fill="#000000" fill-rule="nonzero" fill-opacity="1" /><path clip-path="url(#clip770)" d="M65.3719 905.629 Q61.7608 905.629 59.9321 909.194 Q58.1265 912.736 58.1265 919.865 Q58.1265 926.972 59.9321 930.537 Q61.7608 934.078 65.3719 934.078 Q69.0061 934.078 70.8117 930.537 Q72.6404 926.972 72.6404 919.865 Q72.6404 912.736 70.8117 909.194 Q69.0061 905.629 65.3719 905.629 M65.3719 901.926 Q71.182 901.926 74.2376 906.532 Q77.3163 911.116 77.3163 919.865 Q77.3163 928.592 74.2376 933.199 Q71.182 937.782 65.3719 937.782 Q59.5617 937.782 56.483 933.199 Q53.4275 928.592 53.4275 919.865 Q53.4275 911.116 56.483 906.532 Q59.5617 901.926 65.3719 901.926 Z" fill="#000000" fill-rule="nonzero" fill-opacity="1" /><path clip-path="url(#clip770)" d="M85.5338 931.231 L90.418 931.231 L90.418 937.111 L85.5338 937.111 L85.5338 931.231 Z" fill="#000000" fill-rule="nonzero" fill-opacity="1" /><path clip-path="url(#clip770)" d="M104.631 933.176 L120.95 933.176 L120.95 937.111 L99.006 937.111 L99.006 933.176 Q101.668 930.421 106.251 925.791 Q110.858 921.139 112.038 919.796 Q114.284 917.273 115.163 915.537 Q116.066 913.778 116.066 912.088 Q116.066 909.333 114.122 907.597 Q112.2 905.861 109.098 905.861 Q106.899 905.861 104.446 906.625 Q102.015 907.389 99.2374 908.94 L99.2374 904.217 Q102.061 903.083 104.515 902.504 Q106.969 901.926 109.006 901.926 Q114.376 901.926 117.571 904.611 Q120.765 907.296 120.765 911.787 Q120.765 913.916 119.955 915.838 Q119.168 917.736 117.061 920.328 Q116.483 921 113.381 924.217 Q110.279 927.412 104.631 933.176 Z" fill="#000000" fill-rule="nonzero" fill-opacity="1" /><path clip-path="url(#clip770)" d="M130.811 902.551 L149.168 902.551 L149.168 906.486 L135.094 906.486 L135.094 914.958 Q136.112 914.611 137.131 914.449 Q138.149 914.264 139.168 914.264 Q144.955 914.264 148.334 917.435 Q151.714 920.606 151.714 926.023 Q151.714 931.602 148.242 934.703 Q144.77 937.782 138.45 937.782 Q136.274 937.782 134.006 937.412 Q131.76 937.041 129.353 936.301 L129.353 931.602 Q131.436 932.736 133.659 933.291 Q135.881 933.847 138.358 933.847 Q142.362 933.847 144.7 931.74 Q147.038 929.634 147.038 926.023 Q147.038 922.412 144.7 920.305 Q142.362 918.199 138.358 918.199 Q136.483 918.199 134.608 918.615 Q132.756 919.032 130.811 919.912 L130.811 902.551 Z" fill="#000000" fill-rule="nonzero" fill-opacity="1" /><path clip-path="url(#clip770)" d="M64.3765 623.569 Q60.7654 623.569 58.9367 627.134 Q57.1312 630.676 57.1312 637.805 Q57.1312 644.912 58.9367 648.477 Q60.7654 652.018 64.3765 652.018 Q68.0107 652.018 69.8163 648.477 Q71.645 644.912 71.645 637.805 Q71.645 630.676 69.8163 627.134 Q68.0107 623.569 64.3765 623.569 M64.3765 619.866 Q70.1867 619.866 73.2422 624.472 Q76.3209 629.056 76.3209 637.805 Q76.3209 646.532 73.2422 651.139 Q70.1867 655.722 64.3765 655.722 Q58.5664 655.722 55.4877 651.139 Q52.4321 646.532 52.4321 637.805 Q52.4321 629.056 55.4877 624.472 Q58.5664 619.866 64.3765 619.866 Z" fill="#000000" fill-rule="nonzero" fill-opacity="1" /><path clip-path="url(#clip770)" d="M84.5384 649.171 L89.4227 649.171 L89.4227 655.051 L84.5384 655.051 L84.5384 649.171 Z" fill="#000000" fill-rule="nonzero" fill-opacity="1" /><path clip-path="url(#clip770)" d="M99.6541 620.491 L118.01 620.491 L118.01 624.426 L103.936 624.426 L103.936 632.898 Q104.955 632.551 105.974 632.389 Q106.992 632.204 108.011 632.204 Q113.798 632.204 117.177 635.375 Q120.557 638.546 120.557 643.963 Q120.557 649.542 117.085 652.643 Q113.612 655.722 107.293 655.722 Q105.117 655.722 102.849 655.352 Q100.603 654.981 98.1958 654.241 L98.1958 649.542 Q100.279 650.676 102.501 651.231 Q104.724 651.787 107.2 651.787 Q111.205 651.787 113.543 649.68 Q115.881 647.574 115.881 643.963 Q115.881 640.352 113.543 638.245 Q111.205 636.139 107.2 636.139 Q105.325 636.139 103.45 636.555 Q101.599 636.972 99.6541 637.852 L99.6541 620.491 Z" fill="#000000" fill-rule="nonzero" fill-opacity="1" /><path clip-path="url(#clip770)" d="M139.77 623.569 Q136.159 623.569 134.33 627.134 Q132.524 630.676 132.524 637.805 Q132.524 644.912 134.33 648.477 Q136.159 652.018 139.77 652.018 Q143.404 652.018 145.209 648.477 Q147.038 644.912 147.038 637.805 Q147.038 630.676 145.209 627.134 Q143.404 623.569 139.77 623.569 M139.77 619.866 Q145.58 619.866 148.635 624.472 Q151.714 629.056 151.714 637.805 Q151.714 646.532 148.635 651.139 Q145.58 655.722 139.77 655.722 Q133.959 655.722 130.881 651.139 Q127.825 646.532 127.825 637.805 Q127.825 629.056 130.881 624.472 Q133.959 619.866 139.77 619.866 Z" fill="#000000" fill-rule="nonzero" fill-opacity="1" /><path clip-path="url(#clip770)" d="M65.3719 341.509 Q61.7608 341.509 59.9321 345.074 Q58.1265 348.616 58.1265 355.746 Q58.1265 362.852 59.9321 366.417 Q61.7608 369.958 65.3719 369.958 Q69.0061 369.958 70.8117 366.417 Q72.6404 362.852 72.6404 355.746 Q72.6404 348.616 70.8117 345.074 Q69.0061 341.509 65.3719 341.509 M65.3719 337.806 Q71.182 337.806 74.2376 342.412 Q77.3163 346.996 77.3163 355.746 Q77.3163 364.472 74.2376 369.079 Q71.182 373.662 65.3719 373.662 Q59.5617 373.662 56.483 369.079 Q53.4275 364.472 53.4275 355.746 Q53.4275 346.996 56.483 342.412 Q59.5617 337.806 65.3719 337.806 Z" fill="#000000" fill-rule="nonzero" fill-opacity="1" /><path clip-path="url(#clip770)" d="M85.5338 367.111 L90.418 367.111 L90.418 372.991 L85.5338 372.991 L85.5338 367.111 Z" fill="#000000" fill-rule="nonzero" fill-opacity="1" /><path clip-path="url(#clip770)" d="M99.4226 338.431 L121.645 338.431 L121.645 340.422 L109.098 372.991 L104.214 372.991 L116.02 342.366 L99.4226 342.366 L99.4226 338.431 Z" fill="#000000" fill-rule="nonzero" fill-opacity="1" /><path clip-path="url(#clip770)" d="M130.811 338.431 L149.168 338.431 L149.168 342.366 L135.094 342.366 L135.094 350.838 Q136.112 350.491 137.131 350.329 Q138.149 350.144 139.168 350.144 Q144.955 350.144 148.334 353.315 Q151.714 356.486 151.714 361.903 Q151.714 367.482 148.242 370.583 Q144.77 373.662 138.45 373.662 Q136.274 373.662 134.006 373.292 Q131.76 372.921 129.353 372.181 L129.353 367.482 Q131.436 368.616 133.659 369.171 Q135.881 369.727 138.358 369.727 Q142.362 369.727 144.7 367.62 Q147.038 365.514 147.038 361.903 Q147.038 358.292 144.7 356.185 Q142.362 354.079 138.358 354.079 Q136.483 354.079 134.608 354.496 Q132.756 354.912 130.811 355.792 L130.811 338.431 Z" fill="#000000" fill-rule="nonzero" fill-opacity="1" /><path clip-path="url(#clip770)" d="M55.1867 86.9957 L62.8256 86.9957 L62.8256 60.6301 L54.5154 62.2967 L54.5154 58.0375 L62.7793 56.3708 L67.4552 56.3708 L67.4552 86.9957 L75.094 86.9957 L75.094 90.9308 L55.1867 90.9308 L55.1867 86.9957 Z" fill="#000000" fill-rule="nonzero" fill-opacity="1" /><path clip-path="url(#clip770)" d="M84.5384 85.0512 L89.4227 85.0512 L89.4227 90.9308 L84.5384 90.9308 L84.5384 85.0512 Z" fill="#000000" fill-rule="nonzero" fill-opacity="1" /><path clip-path="url(#clip770)" d="M109.608 59.4495 Q105.997 59.4495 104.168 63.0143 Q102.362 66.556 102.362 73.6856 Q102.362 80.792 104.168 84.3568 Q105.997 87.8984 109.608 87.8984 Q113.242 87.8984 115.048 84.3568 Q116.876 80.792 116.876 73.6856 Q116.876 66.556 115.048 63.0143 Q113.242 59.4495 109.608 59.4495 M109.608 55.7458 Q115.418 55.7458 118.473 60.3523 Q121.552 64.9356 121.552 73.6856 Q121.552 82.4124 118.473 87.0188 Q115.418 91.6021 109.608 91.6021 Q103.798 91.6021 100.719 87.0188 Q97.6634 82.4124 97.6634 73.6856 Q97.6634 64.9356 100.719 60.3523 Q103.798 55.7458 109.608 55.7458 Z" fill="#000000" fill-rule="nonzero" fill-opacity="1" /><path clip-path="url(#clip770)" d="M139.77 59.4495 Q136.159 59.4495 134.33 63.0143 Q132.524 66.556 132.524 73.6856 Q132.524 80.792 134.33 84.3568 Q136.159 87.8984 139.77 87.8984 Q143.404 87.8984 145.209 84.3568 Q147.038 80.792 147.038 73.6856 Q147.038 66.556 145.209 63.0143 Q143.404 59.4495 139.77 59.4495 M139.77 55.7458 Q145.58 55.7458 148.635 60.3523 Q151.714 64.9356 151.714 73.6856 Q151.714 82.4124 148.635 87.0188 Q145.58 91.6021 139.77 91.6021 Q133.959 91.6021 130.881 87.0188 Q127.825 82.4124 127.825 73.6856 Q127.825 64.9356 130.881 60.3523 Q133.959 55.7458 139.77 55.7458 Z" fill="#000000" fill-rule="nonzero" fill-opacity="1" /><polyline clip-path="url(#clip772)" style="stroke:#009af9; stroke-linecap:round; stroke-linejoin:round; stroke-width:4; stroke-opacity:1; fill:none" points="236.64,688.315 239.598,290.238 242.556,568.064 245.514,450.827 248.473,494.457 251.431,501.652 254.389,1180.89 257.347,642.093 260.305,835 263.263,1154.57 266.221,751.964 269.179,1021.25 272.137,643.649 275.096,1177.72 278.054,567.606 281.012,606.565 283.97,1165.24 286.928,468.907 289.886,473.339 292.844,353.275 295.802,296.506 298.761,831.756 301.719,732.164 304.677,684.219 307.635,421.351 310.593,143.754 313.551,435.753 316.509,216.79 319.467,990.487 322.425,717.709 325.384,414.932 328.342,305.153 331.3,1066.96 334.258,265.055 337.216,527.844 340.174,943.941 343.132,689.787 346.09,362.226 349.049,1044.57 352.007,663.444 354.965,163.622 357.923,479.754 360.881,380.339 363.839,663.5 366.797,323.941 369.755,519.595 372.713,271.902 375.672,601.934 378.63,839.048 381.588,703.545 384.546,424.102 387.504,469.606 390.462,150.237 393.42,842.29 396.378,291.695 399.336,799.712 402.295,388.239 405.253,989.149 408.211,158.166 411.169,1013.81 414.127,821.4 417.085,358.726 420.043,181.208 423.001,989.904 425.96,873.57 428.918,582.716 431.876,354.251 434.834,671.221 437.792,1121.43 440.75,265.905 443.708,130.586 446.666,857.335 449.624,581.161 452.583,1169.09 455.541,541.705 458.499,599.67 461.457,1028.28 464.415,413.551 467.373,1065.68 470.331,580.72 473.289,207.434 476.248,450.364 479.206,612.043 482.164,258.185 485.122,368.366 488.08,956.626 491.038,256.463 493.996,197.198 496.954,1127.03 499.912,496.739 502.871,522.069 505.829,180.494 508.787,854.203 511.745,80.8479 514.703,485.024 517.661,517.464 520.619,155.197 523.577,671.569 526.535,508.358 529.494,847.174 532.452,633.494 535.41,1067.99 538.368,1010.35 541.326,557.196 544.284,593.693 547.242,531.899 550.2,836.634 553.159,207.066 556.117,908.33 559.075,231.422 562.033,867.105 564.991,647.312 567.949,428.524 570.907,545.989 573.865,674.789 576.823,673.838 579.782,178.766 582.74,833.649 585.698,705.555 588.656,483.285 591.614,343.669 594.572,672.542 597.53,1030.19 600.488,900.499 603.447,659.352 606.405,1111.77 609.363,276.837 612.321,389.932 615.279,383.607 618.237,415.485 621.195,631.79 624.153,712.932 627.111,324.944 630.07,1079.27 633.028,958.635 635.986,636.43 638.944,1016.25 641.902,126.034 644.86,698.771 647.818,987.683 650.776,299.463 653.734,1114.65 656.693,769.205 659.651,701.377 662.609,1038.06 665.567,363.96 668.525,318.187 671.483,919.251 674.441,941.589 677.399,1029.5 680.358,422.948 683.316,706.005 686.274,1073.6 689.232,774.037 692.19,617.518 695.148,545.509 698.106,529.124 701.064,817.39 704.022,751.325 706.981,957.375 709.939,612.552 712.897,676.207 715.855,196.969 718.813,388.589 721.771,903.674 724.729,917.398 727.687,714.619 730.645,761.868 733.604,1007.64 736.562,1136.33 739.52,959.916 742.478,431.435 745.436,938.53 748.394,752.227 751.352,546.641 754.31,141.008 757.269,306.69 760.227,169.723 763.185,917.049 766.143,335.957 769.101,284.197 772.059,949.495 775.017,207.38 777.975,966.66 780.933,358.164 783.892,305.6 786.85,727.528 789.808,106.204 792.766,772.207 795.724,858.19 798.682,561.448 801.64,442.325 804.598,346.38 807.557,813.761 810.515,272.526 813.473,623.437 816.431,448.029 819.389,558.123 822.347,570.52 825.305,710.007 828.263,108.878 831.221,1050.14 834.18,823.894 837.138,104.196 840.096,360.936 843.054,749.387 846.012,425.176 848.97,498.082 851.928,724.751 854.886,366.666 857.844,1044.2 860.803,793.719 863.761,1133.91 866.719,378.831 869.677,1084.21 872.635,588.224 875.593,600.061 878.551,721.717 881.509,560.541 884.468,518.467 887.426,962.323 890.384,942.498 893.342,678.261 896.3,298.197 899.258,99.8139 902.216,328.376 905.174,1027.83 908.132,1074.51 911.091,149.144 914.049,647.57 917.007,1068.63 919.965,881.998 922.923,796.98 925.881,831.985 928.839,1013.99 931.797,856.168 934.756,1199.11 937.714,196.292 940.672,890.335 943.63,204.046 946.588,212.816 949.546,694.449 952.504,1173.97 955.462,289.796 958.42,116.469 961.379,1081.51 964.337,357.761 967.295,659.464 970.253,475.132 973.211,453.21 976.169,158.101 979.127,186.099 982.085,1194.11 985.043,321.837 988.002,639.879 990.96,902.682 993.918,728.92 996.876,309.726 999.834,158.192 1002.79,810.424 1005.75,487.753 1008.71,311.433 1011.67,449.605 1014.62,1067.84 1017.58,969.277 1020.54,862.609 1023.5,856.618 1026.46,204.857 1029.42,954.099 1032.37,996.249 1035.33,982.247 1038.29,915.701 1041.25,555.304 1044.21,592.64 1047.16,183.119 1050.12,1163.14 1053.08,538.496 1056.04,554.643 1059,264.882 1061.95,943.465 1064.91,352.622 1067.87,194.986 1070.83,203.58 1073.79,97.5634 1076.75,939.248 1079.7,964.903 1082.66,307.205 1085.62,824.145 1088.58,404.506 1091.54,617.325 1094.49,447.593 1097.45,417.702 1100.41,551.419 1103.37,510.988 1106.33,929.679 1109.28,1177.33 1112.24,475.232 1115.2,1024.6 1118.16,327.584 1121.12,993.675 1124.07,474.922 1127.03,584.653 1129.99,190.325 1132.95,593.536 1135.91,599.262 1138.87,151.768 1141.82,1164.41 1144.78,544.651 1147.74,664.983 1150.7,653.011 1153.66,285.414 1156.61,753.705 1159.57,727.083 1162.53,549.452 1165.49,287.125 1168.45,713.761 1171.4,467.462 1174.36,274.33 1177.32,832.728 1180.28,994.422 1183.24,1200.97 1186.2,1092.08 1189.15,330.695 1192.11,732.708 1195.07,246.389 1198.03,1044.61 1200.99,202.836 1203.94,462.739 1206.9,535.669 1209.86,109.629 1212.82,98.3078 1215.78,634.861 1218.73,817.507 1221.69,775.25 1224.65,932.416 1227.61,870.488 1230.57,863.732 1233.53,1044.8 1236.48,793.968 1239.44,1184.66 1242.4,502.745 1245.36,486.247 1248.32,800.972 1251.27,768.807 1254.23,882.916 1257.19,152.539 1260.15,265.888 1263.11,719.638 1266.06,1144.43 1269.02,186.714 1271.98,816.322 1274.94,958.526 1277.9,945.137 1280.86,982.646 1283.81,789.653 1286.77,418.586 1289.73,759.549 1292.69,117.361 1295.65,618.883 1298.6,954.542 1301.56,1134.33 1304.52,244.698 1307.48,786.033 1310.44,548.565 1313.39,991.164 1316.35,736.095 1319.31,119.126 1322.27,652.534 1325.23,509.083 1328.18,163.736 1331.14,892.499 1334.1,589.567 1337.06,119.084 1340.02,732.736 1342.98,858.045 1345.93,313.371 1348.89,837.048 1351.85,621.851 1354.81,102.785 1357.77,148.274 1360.72,502.341 1363.68,761.664 1366.64,909.027 1369.6,1055.91 1372.56,887.796 1375.51,820.474 1378.47,187.713 1381.43,356.81 1384.39,374.859 1387.35,744.222 1390.31,595.536 1393.26,464.969 1396.22,759.339 1399.18,161.929 1402.14,1183.45 1405.1,739.706 1408.05,851.23 1411.01,283.478 1413.97,1100.61 1416.93,480.472 1419.89,311.748 1422.84,409.742 1425.8,1108.63 1428.76,839.122 1431.72,1003.36 1434.68,748.124 1437.64,1131.15 1440.59,775.843 1443.55,303.162 1446.51,1035.9 1449.47,262.943 1452.43,278.286 1455.38,890.004 1458.34,1075.53 1461.3,927.64 1464.26,507.351 1467.22,1124.43 1470.17,287.43 1473.13,335.71 1476.09,753.083 1479.05,469.782 1482.01,395.527 1484.97,256.72 1487.92,692.967 1490.88,466.995 1493.84,85.4527 1496.8,932.446 1499.76,395.154 1502.71,1033.38 1505.67,687.181 1508.63,231.378 1511.59,329.147 1514.55,266.703 1517.5,887.343 1520.46,436.137 1523.42,323.665 1526.38,361.847 1529.34,1043.31 1532.29,158.262 1535.25,1143.13 1538.21,739.546 1541.17,954.422 1544.13,385.308 1547.09,1067.41 1550.04,551.828 1553,798.278 1555.96,1029.2 1558.92,512.094 1561.88,870.066 1564.83,799.96 1567.79,1037.59 1570.75,977.022 1573.71,1148.78 1576.67,687.744 1579.62,245.476 1582.58,1084.77 1585.54,871.303 1588.5,599.854 1591.46,329.204 1594.42,84.1161 1597.37,939.048 1600.33,690.757 1603.29,771.477 1606.25,290.885 1609.21,1182.16 1612.16,207.202 1615.12,443.134 1618.08,517.231 1621.04,331.236 1624,943.988 1626.95,289.45 1629.91,857.631 1632.87,778.568 1635.83,203.29 1638.79,1125.4 1641.75,1072.64 1644.7,1167.82 1647.66,932.425 1650.62,1034.42 1653.58,735.22 1656.54,1177.97 1659.49,890.859 1662.45,267.379 1665.41,286.133 1668.37,1159.62 1671.33,190.142 1674.28,475.475 1677.24,1167.05 1680.2,823.61 1683.16,1092.96 1686.12,144.837 1689.08,465.109 1692.03,712.173 1694.99,1093.46 1697.95,910.105 1700.91,1009.05 1703.87,351.944 1706.82,1037.35 1709.78,499.422 1712.74,1179.36 1715.7,733.406 1718.66,694.491 1721.61,187.069 1724.57,735.935 1727.53,928.441 1730.49,199.453 1733.45,824.39 1736.41,571.653 1739.36,144.771 1742.32,872.931 1745.28,574.025 1748.24,519.99 1751.2,639.245 1754.15,269.369 1757.11,497.787 1760.07,505.08 1763.03,652.323 1765.99,1031.55 1768.94,776.262 1771.9,838.237 1774.86,216.439 1777.82,463.621 1780.78,690.459 1783.73,1111.16 1786.69,168.064 1789.65,339.211 1792.61,813.123 1795.57,985.905 1798.53,942.828 1801.48,390.861 1804.44,1079.54 1807.4,940.005 1810.36,911.947 1813.32,1149.24 1816.27,424.73 1819.23,365.678 1822.19,570.742 1825.15,224.003 1828.11,733.622 1831.06,1164.54 1834.02,373.111 1836.98,873.579 1839.94,995.977 1842.9,775.171 1845.86,943.635 1848.81,396.637 1851.77,645.397 1854.73,977.248 1857.69,458.708 1860.65,701.486 1863.6,942.817 1866.56,658.704 1869.52,160.473 1872.48,98.0045 1875.44,1088.46 1878.39,898.59 1881.35,219.953 1884.31,1105.31 1887.27,1024.38 1890.23,250.946 1893.19,1025 1896.14,81.4257 1899.1,257.79 1902.06,738.653 1905.02,340.455 1907.98,470.531 1910.93,734.035 1913.89,171.216 1916.85,656.636 1919.81,357.368 1922.77,886.877 1925.72,482.12 1928.68,1156.71 1931.64,651.612 1934.6,602.341 1937.56,148.891 1940.52,886.674 1943.47,724.114 1946.43,255.461 1949.39,142.898 1952.35,814.012 1955.31,544.492 1958.26,259.133 1961.22,654.223 1964.18,1183.4 1967.14,1018.89 1970.1,1133.5 1973.05,622.804 1976.01,836.503 1978.97,759.969 1981.93,832.468 1984.89,316.448 1987.84,1117.32 1990.8,946.357 1993.76,990.919 1996.72,798.475 1999.68,360.852 2002.64,335.103 2005.59,866.792 2008.55,177.318 2011.51,94.5804 "/>
<path clip-path="url(#clip770)" d="M246.106 190.502 L486.673 190.502 L486.673 86.8219 L246.106 86.8219  Z" fill="#ffffff" fill-rule="evenodd" fill-opacity="1"/>
<polyline clip-path="url(#clip770)" style="stroke:#000000; stroke-linecap:round; stroke-linejoin:round; stroke-width:4; stroke-opacity:1; fill:none" points="246.106,190.502 486.673,190.502 486.673,86.8219 246.106,86.8219 246.106,190.502 "/>
<polyline clip-path="url(#clip770)" style="stroke:#009af9; stroke-linecap:round; stroke-linejoin:round; stroke-width:4; stroke-opacity:1; fill:none" points="267.01,138.662 392.434,138.662 "/>
<path clip-path="url(#clip770)" d="M427.181 158.349 Q425.375 162.979 423.662 164.391 Q421.949 165.803 419.079 165.803 L415.676 165.803 L415.676 162.238 L418.176 162.238 Q419.935 162.238 420.908 161.405 Q421.88 160.572 423.06 157.47 L423.824 155.525 L413.338 130.016 L417.852 130.016 L425.954 150.294 L434.056 130.016 L438.57 130.016 L427.181 158.349 Z" fill="#000000" fill-rule="nonzero" fill-opacity="1" /><path clip-path="url(#clip770)" d="M445.861 152.007 L453.5 152.007 L453.5 125.641 L445.19 127.308 L445.19 123.049 L453.454 121.382 L458.13 121.382 L458.13 152.007 L465.769 152.007 L465.769 155.942 L445.861 155.942 L445.861 152.007 Z" fill="#000000" fill-rule="nonzero" fill-opacity="1" /></svg>
