<?xml version="1.0" encoding="utf-8"?>
<svg xmlns="http://www.w3.org/2000/svg" xmlns:xlink="http://www.w3.org/1999/xlink" width="528" height="336" viewBox="0 0 2112 1344">
<defs>
  <clipPath id="clip220">
    <rect x="0" y="0" width="2112" height="1344"/>
  </clipPath>
</defs>
<path clip-path="url(#clip220)" d="M0 1344 L2112 1344 L2112 0 L0 0  Z" fill="#ffffff" fill-rule="evenodd" fill-opacity="1"/>
<defs>
  <clipPath id="clip221">
    <rect x="422" y="0" width="1479" height="1344"/>
  </clipPath>
</defs>
<path clip-path="url(#clip220)" d="M167.977 1234.58 L2064.76 1234.58 L2064.76 47.2441 L167.977 47.2441  Z" fill="#ffffff" fill-rule="evenodd" fill-opacity="1"/>
<defs>
  <clipPath id="clip222">
    <rect x="167" y="47" width="1898" height="1188"/>
  </clipPath>
</defs>
<polyline clip-path="url(#clip222)" style="stroke:#000000; stroke-linecap:round; stroke-linejoin:round; stroke-width:2; stroke-opacity:0.1; fill:none" points="221.66,1234.58 221.66,47.2441 "/>
<polyline clip-path="url(#clip222)" style="stroke:#000000; stroke-linecap:round; stroke-linejoin:round; stroke-width:2; stroke-opacity:0.1; fill:none" points="519.895,1234.58 519.895,47.2441 "/>
<polyline clip-path="url(#clip222)" style="stroke:#000000; stroke-linecap:round; stroke-linejoin:round; stroke-width:2; stroke-opacity:0.1; fill:none" points="818.131,1234.58 818.131,47.2441 "/>
<polyline clip-path="url(#clip222)" style="stroke:#000000; stroke-linecap:round; stroke-linejoin:round; stroke-width:2; stroke-opacity:0.1; fill:none" points="1116.37,1234.58 1116.37,47.2441 "/>
<polyline clip-path="url(#clip222)" style="stroke:#000000; stroke-linecap:round; stroke-linejoin:round; stroke-width:2; stroke-opacity:0.1; fill:none" points="1414.6,1234.58 1414.6,47.2441 "/>
<polyline clip-path="url(#clip222)" style="stroke:#000000; stroke-linecap:round; stroke-linejoin:round; stroke-width:2; stroke-opacity:0.1; fill:none" points="1712.84,1234.58 1712.84,47.2441 "/>
<polyline clip-path="url(#clip222)" style="stroke:#000000; stroke-linecap:round; stroke-linejoin:round; stroke-width:2; stroke-opacity:0.1; fill:none" points="2011.07,1234.58 2011.07,47.2441 "/>
<polyline clip-path="url(#clip220)" style="stroke:#000000; stroke-linecap:round; stroke-linejoin:round; stroke-width:4; stroke-opacity:1; fill:none" points="167.977,1234.58 2064.76,1234.58 "/>
<polyline clip-path="url(#clip220)" style="stroke:#000000; stroke-linecap:round; stroke-linejoin:round; stroke-width:4; stroke-opacity:1; fill:none" points="221.66,1234.58 221.66,1215.68 "/>
<polyline clip-path="url(#clip220)" style="stroke:#000000; stroke-linecap:round; stroke-linejoin:round; stroke-width:4; stroke-opacity:1; fill:none" points="519.895,1234.58 519.895,1215.68 "/>
<polyline clip-path="url(#clip220)" style="stroke:#000000; stroke-linecap:round; stroke-linejoin:round; stroke-width:4; stroke-opacity:1; fill:none" points="818.131,1234.58 818.131,1215.68 "/>
<polyline clip-path="url(#clip220)" style="stroke:#000000; stroke-linecap:round; stroke-linejoin:round; stroke-width:4; stroke-opacity:1; fill:none" points="1116.37,1234.58 1116.37,1215.68 "/>
<polyline clip-path="url(#clip220)" style="stroke:#000000; stroke-linecap:round; stroke-linejoin:round; stroke-width:4; stroke-opacity:1; fill:none" points="1414.6,1234.58 1414.6,1215.68 "/>
<polyline clip-path="url(#clip220)" style="stroke:#000000; stroke-linecap:round; stroke-linejoin:round; stroke-width:4; stroke-opacity:1; fill:none" points="1712.84,1234.58 1712.84,1215.68 "/>
<polyline clip-path="url(#clip220)" style="stroke:#000000; stroke-linecap:round; stroke-linejoin:round; stroke-width:4; stroke-opacity:1; fill:none" points="2011.07,1234.58 2011.07,1215.68 "/>
<path clip-path="url(#clip220)" d="M191.128 1277.85 L220.803 1277.85 L220.803 1281.78 L191.128 1281.78 L191.128 1277.85 Z" fill="#000000" fill-rule="nonzero" fill-opacity="1" /><path clip-path="url(#clip220)" d="M245.062 1276.04 Q248.419 1276.76 250.294 1279.03 Q252.192 1281.3 252.192 1284.63 Q252.192 1289.74 248.674 1292.55 Q245.155 1295.35 238.674 1295.35 Q236.498 1295.35 234.183 1294.91 Q231.891 1294.49 229.438 1293.63 L229.438 1289.12 Q231.382 1290.25 233.697 1290.83 Q236.012 1291.41 238.535 1291.41 Q242.933 1291.41 245.225 1289.67 Q247.539 1287.94 247.539 1284.63 Q247.539 1281.57 245.387 1279.86 Q243.257 1278.12 239.438 1278.12 L235.41 1278.12 L235.41 1274.28 L239.623 1274.28 Q243.072 1274.28 244.9 1272.92 Q246.729 1271.53 246.729 1268.93 Q246.729 1266.27 244.831 1264.86 Q242.956 1263.42 239.438 1263.42 Q237.516 1263.42 235.317 1263.84 Q233.118 1264.26 230.479 1265.14 L230.479 1260.97 Q233.141 1260.23 235.456 1259.86 Q237.794 1259.49 239.854 1259.49 Q245.178 1259.49 248.28 1261.92 Q251.382 1264.33 251.382 1268.45 Q251.382 1271.32 249.738 1273.31 Q248.095 1275.28 245.062 1276.04 Z" fill="#000000" fill-rule="nonzero" fill-opacity="1" /><path clip-path="url(#clip220)" d="M489.838 1277.85 L519.513 1277.85 L519.513 1281.78 L489.838 1281.78 L489.838 1277.85 Z" fill="#000000" fill-rule="nonzero" fill-opacity="1" /><path clip-path="url(#clip220)" d="M533.634 1290.74 L549.953 1290.74 L549.953 1294.67 L528.009 1294.67 L528.009 1290.74 Q530.671 1287.99 535.254 1283.36 Q539.861 1278.7 541.041 1277.36 Q543.287 1274.84 544.166 1273.1 Q545.069 1271.34 545.069 1269.65 Q545.069 1266.9 543.124 1265.16 Q541.203 1263.42 538.101 1263.42 Q535.902 1263.42 533.449 1264.19 Q531.018 1264.95 528.24 1266.5 L528.24 1261.78 Q531.064 1260.65 533.518 1260.07 Q535.972 1259.49 538.009 1259.49 Q543.379 1259.49 546.574 1262.17 Q549.768 1264.86 549.768 1269.35 Q549.768 1271.48 548.958 1273.4 Q548.171 1275.3 546.064 1277.89 Q545.486 1278.56 542.384 1281.78 Q539.282 1284.98 533.634 1290.74 Z" fill="#000000" fill-rule="nonzero" fill-opacity="1" /><path clip-path="url(#clip220)" d="M787.888 1277.85 L817.564 1277.85 L817.564 1281.78 L787.888 1281.78 L787.888 1277.85 Z" fill="#000000" fill-rule="nonzero" fill-opacity="1" /><path clip-path="url(#clip220)" d="M828.467 1290.74 L836.105 1290.74 L836.105 1264.37 L827.795 1266.04 L827.795 1261.78 L836.059 1260.11 L840.735 1260.11 L840.735 1290.74 L848.374 1290.74 L848.374 1294.67 L828.467 1294.67 L828.467 1290.74 Z" fill="#000000" fill-rule="nonzero" fill-opacity="1" /><path clip-path="url(#clip220)" d="M1116.37 1263.19 Q1112.76 1263.19 1110.93 1266.76 Q1109.12 1270.3 1109.12 1277.43 Q1109.12 1284.54 1110.93 1288.1 Q1112.76 1291.64 1116.37 1291.64 Q1120 1291.64 1121.81 1288.1 Q1123.64 1284.54 1123.64 1277.43 Q1123.64 1270.3 1121.81 1266.76 Q1120 1263.19 1116.37 1263.19 M1116.37 1259.49 Q1122.18 1259.49 1125.23 1264.1 Q1128.31 1268.68 1128.31 1277.43 Q1128.31 1286.16 1125.23 1290.76 Q1122.18 1295.35 1116.37 1295.35 Q1110.56 1295.35 1107.48 1290.76 Q1104.42 1286.16 1104.42 1277.43 Q1104.42 1268.68 1107.48 1264.1 Q1110.56 1259.49 1116.37 1259.49 Z" fill="#000000" fill-rule="nonzero" fill-opacity="1" /><path clip-path="url(#clip220)" d="M1404.98 1290.74 L1412.62 1290.74 L1412.62 1264.37 L1404.31 1266.04 L1404.31 1261.78 L1412.58 1260.11 L1417.25 1260.11 L1417.25 1290.74 L1424.89 1290.74 L1424.89 1294.67 L1404.98 1294.67 L1404.98 1290.74 Z" fill="#000000" fill-rule="nonzero" fill-opacity="1" /><path clip-path="url(#clip220)" d="M1707.49 1290.74 L1723.81 1290.74 L1723.81 1294.67 L1701.87 1294.67 L1701.87 1290.74 Q1704.53 1287.99 1709.11 1283.36 Q1713.72 1278.7 1714.9 1277.36 Q1717.14 1274.84 1718.02 1273.1 Q1718.93 1271.34 1718.93 1269.65 Q1718.93 1266.9 1716.98 1265.16 Q1715.06 1263.42 1711.96 1263.42 Q1709.76 1263.42 1707.31 1264.19 Q1704.87 1264.95 1702.1 1266.5 L1702.1 1261.78 Q1704.92 1260.65 1707.37 1260.07 Q1709.83 1259.49 1711.87 1259.49 Q1717.24 1259.49 1720.43 1262.17 Q1723.62 1264.86 1723.62 1269.35 Q1723.62 1271.48 1722.81 1273.4 Q1722.03 1275.3 1719.92 1277.89 Q1719.34 1278.56 1716.24 1281.78 Q1713.14 1284.98 1707.49 1290.74 Z" fill="#000000" fill-rule="nonzero" fill-opacity="1" /><path clip-path="url(#clip220)" d="M2015.32 1276.04 Q2018.68 1276.76 2020.55 1279.03 Q2022.45 1281.3 2022.45 1284.63 Q2022.45 1289.74 2018.93 1292.55 Q2015.41 1295.35 2008.93 1295.35 Q2006.76 1295.35 2004.44 1294.91 Q2002.15 1294.49 1999.7 1293.63 L1999.7 1289.12 Q2001.64 1290.25 2003.96 1290.83 Q2006.27 1291.41 2008.79 1291.41 Q2013.19 1291.41 2015.48 1289.67 Q2017.8 1287.94 2017.8 1284.63 Q2017.8 1281.57 2015.65 1279.86 Q2013.52 1278.12 2009.7 1278.12 L2005.67 1278.12 L2005.67 1274.28 L2009.88 1274.28 Q2013.33 1274.28 2015.16 1272.92 Q2016.99 1271.53 2016.99 1268.93 Q2016.99 1266.27 2015.09 1264.86 Q2013.21 1263.42 2009.7 1263.42 Q2007.77 1263.42 2005.58 1263.84 Q2003.38 1264.26 2000.74 1265.14 L2000.74 1260.97 Q2003.4 1260.23 2005.71 1259.86 Q2008.05 1259.49 2010.11 1259.49 Q2015.44 1259.49 2018.54 1261.92 Q2021.64 1264.33 2021.64 1268.45 Q2021.64 1271.32 2020 1273.31 Q2018.35 1275.28 2015.32 1276.04 Z" fill="#000000" fill-rule="nonzero" fill-opacity="1" /><polyline clip-path="url(#clip222)" style="stroke:#000000; stroke-linecap:round; stroke-linejoin:round; stroke-width:2; stroke-opacity:0.1; fill:none" points="167.977,1203.88 2064.76,1203.88 "/>
<polyline clip-path="url(#clip222)" style="stroke:#000000; stroke-linecap:round; stroke-linejoin:round; stroke-width:2; stroke-opacity:0.1; fill:none" points="167.977,836.74 2064.76,836.74 "/>
<polyline clip-path="url(#clip222)" style="stroke:#000000; stroke-linecap:round; stroke-linejoin:round; stroke-width:2; stroke-opacity:0.1; fill:none" points="167.977,469.601 2064.76,469.601 "/>
<polyline clip-path="url(#clip222)" style="stroke:#000000; stroke-linecap:round; stroke-linejoin:round; stroke-width:2; stroke-opacity:0.1; fill:none" points="167.977,102.461 2064.76,102.461 "/>
<polyline clip-path="url(#clip220)" style="stroke:#000000; stroke-linecap:round; stroke-linejoin:round; stroke-width:4; stroke-opacity:1; fill:none" points="167.977,1234.58 167.977,47.2441 "/>
<polyline clip-path="url(#clip220)" style="stroke:#000000; stroke-linecap:round; stroke-linejoin:round; stroke-width:4; stroke-opacity:1; fill:none" points="167.977,1203.88 186.875,1203.88 "/>
<polyline clip-path="url(#clip220)" style="stroke:#000000; stroke-linecap:round; stroke-linejoin:round; stroke-width:4; stroke-opacity:1; fill:none" points="167.977,836.74 186.875,836.74 "/>
<polyline clip-path="url(#clip220)" style="stroke:#000000; stroke-linecap:round; stroke-linejoin:round; stroke-width:4; stroke-opacity:1; fill:none" points="167.977,469.601 186.875,469.601 "/>
<polyline clip-path="url(#clip220)" style="stroke:#000000; stroke-linecap:round; stroke-linejoin:round; stroke-width:4; stroke-opacity:1; fill:none" points="167.977,102.461 186.875,102.461 "/>
<path clip-path="url(#clip220)" d="M124.353 1189.68 Q120.742 1189.68 118.913 1193.24 Q117.108 1196.79 117.108 1203.91 Q117.108 1211.02 118.913 1214.59 Q120.742 1218.13 124.353 1218.13 Q127.987 1218.13 129.793 1214.59 Q131.622 1211.02 131.622 1203.91 Q131.622 1196.79 129.793 1193.24 Q127.987 1189.68 124.353 1189.68 M124.353 1185.97 Q130.163 1185.97 133.219 1190.58 Q136.297 1195.16 136.297 1203.91 Q136.297 1212.64 133.219 1217.25 Q130.163 1221.83 124.353 1221.83 Q118.543 1221.83 115.464 1217.25 Q112.409 1212.64 112.409 1203.91 Q112.409 1195.16 115.464 1190.58 Q118.543 1185.97 124.353 1185.97 Z" fill="#000000" fill-rule="nonzero" fill-opacity="1" /><path clip-path="url(#clip220)" d="M54.8395 850.085 L62.4784 850.085 L62.4784 823.72 L54.1682 825.386 L54.1682 821.127 L62.4321 819.46 L67.108 819.46 L67.108 850.085 L74.7468 850.085 L74.7468 854.02 L54.8395 854.02 L54.8395 850.085 Z" fill="#000000" fill-rule="nonzero" fill-opacity="1" /><path clip-path="url(#clip220)" d="M94.1912 822.539 Q90.5801 822.539 88.7514 826.104 Q86.9458 829.645 86.9458 836.775 Q86.9458 843.881 88.7514 847.446 Q90.5801 850.988 94.1912 850.988 Q97.8254 850.988 99.6309 847.446 Q101.46 843.881 101.46 836.775 Q101.46 829.645 99.6309 826.104 Q97.8254 822.539 94.1912 822.539 M94.1912 818.835 Q100.001 818.835 103.057 823.442 Q106.136 828.025 106.136 836.775 Q106.136 845.502 103.057 850.108 Q100.001 854.692 94.1912 854.692 Q88.381 854.692 85.3023 850.108 Q82.2468 845.502 82.2468 836.775 Q82.2468 828.025 85.3023 823.442 Q88.381 818.835 94.1912 818.835 Z" fill="#000000" fill-rule="nonzero" fill-opacity="1" /><path clip-path="url(#clip220)" d="M124.353 822.539 Q120.742 822.539 118.913 826.104 Q117.108 829.645 117.108 836.775 Q117.108 843.881 118.913 847.446 Q120.742 850.988 124.353 850.988 Q127.987 850.988 129.793 847.446 Q131.622 843.881 131.622 836.775 Q131.622 829.645 129.793 826.104 Q127.987 822.539 124.353 822.539 M124.353 818.835 Q130.163 818.835 133.219 823.442 Q136.297 828.025 136.297 836.775 Q136.297 845.502 133.219 850.108 Q130.163 854.692 124.353 854.692 Q118.543 854.692 115.464 850.108 Q112.409 845.502 112.409 836.775 Q112.409 828.025 115.464 823.442 Q118.543 818.835 124.353 818.835 Z" fill="#000000" fill-rule="nonzero" fill-opacity="1" /><path clip-path="url(#clip220)" d="M58.0571 482.946 L74.3765 482.946 L74.3765 486.881 L52.4321 486.881 L52.4321 482.946 Q55.0941 480.191 59.6775 475.561 Q64.2839 470.909 65.4645 469.566 Q67.7098 467.043 68.5894 465.307 Q69.4922 463.547 69.4922 461.858 Q69.4922 459.103 67.5478 457.367 Q65.6265 455.631 62.5247 455.631 Q60.3256 455.631 57.8719 456.395 Q55.4414 457.159 52.6636 458.71 L52.6636 453.987 Q55.4877 452.853 57.9414 452.274 Q60.395 451.696 62.4321 451.696 Q67.8024 451.696 70.9968 454.381 Q74.1913 457.066 74.1913 461.557 Q74.1913 463.686 73.3811 465.608 Q72.5941 467.506 70.4876 470.098 Q69.9089 470.77 66.807 473.987 Q63.7052 477.182 58.0571 482.946 Z" fill="#000000" fill-rule="nonzero" fill-opacity="1" /><path clip-path="url(#clip220)" d="M94.1912 455.399 Q90.5801 455.399 88.7514 458.964 Q86.9458 462.506 86.9458 469.635 Q86.9458 476.742 88.7514 480.307 Q90.5801 483.848 94.1912 483.848 Q97.8254 483.848 99.6309 480.307 Q101.46 476.742 101.46 469.635 Q101.46 462.506 99.6309 458.964 Q97.8254 455.399 94.1912 455.399 M94.1912 451.696 Q100.001 451.696 103.057 456.302 Q106.136 460.885 106.136 469.635 Q106.136 478.362 103.057 482.969 Q100.001 487.552 94.1912 487.552 Q88.381 487.552 85.3023 482.969 Q82.2468 478.362 82.2468 469.635 Q82.2468 460.885 85.3023 456.302 Q88.381 451.696 94.1912 451.696 Z" fill="#000000" fill-rule="nonzero" fill-opacity="1" /><path clip-path="url(#clip220)" d="M124.353 455.399 Q120.742 455.399 118.913 458.964 Q117.108 462.506 117.108 469.635 Q117.108 476.742 118.913 480.307 Q120.742 483.848 124.353 483.848 Q127.987 483.848 129.793 480.307 Q131.622 476.742 131.622 469.635 Q131.622 462.506 129.793 458.964 Q127.987 455.399 124.353 455.399 M124.353 451.696 Q130.163 451.696 133.219 456.302 Q136.297 460.885 136.297 469.635 Q136.297 478.362 133.219 482.969 Q130.163 487.552 124.353 487.552 Q118.543 487.552 115.464 482.969 Q112.409 478.362 112.409 469.635 Q112.409 460.885 115.464 456.302 Q118.543 451.696 124.353 451.696 Z" fill="#000000" fill-rule="nonzero" fill-opacity="1" /><path clip-path="url(#clip220)" d="M68.1959 101.107 Q71.5524 101.824 73.4274 104.093 Q75.3255 106.362 75.3255 109.695 Q75.3255 114.811 71.807 117.611 Q68.2885 120.412 61.8071 120.412 Q59.6312 120.412 57.3164 119.973 Q55.0247 119.556 52.571 118.699 L52.571 114.186 Q54.5154 115.32 56.8303 115.898 Q59.1451 116.477 61.6682 116.477 Q66.0663 116.477 68.358 114.741 Q70.6728 113.005 70.6728 109.695 Q70.6728 106.639 68.52 104.926 Q66.3904 103.19 62.571 103.19 L58.5432 103.19 L58.5432 99.3477 L62.7561 99.3477 Q66.2052 99.3477 68.0339 97.9819 Q69.8626 96.593 69.8626 94.0005 Q69.8626 91.3384 67.9645 89.9264 Q66.0895 88.4912 62.571 88.4912 Q60.6497 88.4912 58.4506 88.9079 Q56.2515 89.3246 53.6127 90.2042 L53.6127 86.0375 Q56.2747 85.2968 58.5895 84.9264 Q60.9275 84.5561 62.9876 84.5561 Q68.3117 84.5561 71.4135 86.9866 Q74.5153 89.394 74.5153 93.5143 Q74.5153 96.3847 72.8718 98.3754 Q71.2283 100.343 68.1959 101.107 Z" fill="#000000" fill-rule="nonzero" fill-opacity="1" /><path clip-path="url(#clip220)" d="M94.1912 88.2597 Q90.5801 88.2597 88.7514 91.8245 Q86.9458 95.3662 86.9458 102.496 Q86.9458 109.602 88.7514 113.167 Q90.5801 116.709 94.1912 116.709 Q97.8254 116.709 99.6309 113.167 Q101.46 109.602 101.46 102.496 Q101.46 95.3662 99.6309 91.8245 Q97.8254 88.2597 94.1912 88.2597 M94.1912 84.5561 Q100.001 84.5561 103.057 89.1625 Q106.136 93.7458 106.136 102.496 Q106.136 111.223 103.057 115.829 Q100.001 120.412 94.1912 120.412 Q88.381 120.412 85.3023 115.829 Q82.2468 111.223 82.2468 102.496 Q82.2468 93.7458 85.3023 89.1625 Q88.381 84.5561 94.1912 84.5561 Z" fill="#000000" fill-rule="nonzero" fill-opacity="1" /><path clip-path="url(#clip220)" d="M124.353 88.2597 Q120.742 88.2597 118.913 91.8245 Q117.108 95.3662 117.108 102.496 Q117.108 109.602 118.913 113.167 Q120.742 116.709 124.353 116.709 Q127.987 116.709 129.793 113.167 Q131.622 109.602 131.622 102.496 Q131.622 95.3662 129.793 91.8245 Q127.987 88.2597 124.353 88.2597 M124.353 84.5561 Q130.163 84.5561 133.219 89.1625 Q136.297 93.7458 136.297 102.496 Q136.297 111.223 133.219 115.829 Q130.163 120.412 124.353 120.412 Q118.543 120.412 115.464 115.829 Q112.409 111.223 112.409 102.496 Q112.409 93.7458 115.464 89.1625 Q118.543 84.5561 124.353 84.5561 Z" fill="#000000" fill-rule="nonzero" fill-opacity="1" /><polyline clip-path="url(#clip222)" style="stroke:#009af9; stroke-linecap:round; stroke-linejoin:round; stroke-width:4; stroke-opacity:1; fill:none" points="221.66,1200.97 224.642,1197.55 227.625,1196.71 230.607,1195.41 233.589,1194.2 236.572,1191.28 239.554,1190.03 242.536,1186.46 245.519,1183.83 248.501,1183.67 251.483,1181.71 254.466,1178.06 257.448,1174.98 260.43,1173.92 263.413,1170.6 266.395,1166.94 269.378,1165.53 272.36,1162.9 275.342,1162.09 278.325,1159.38 281.307,1158.54 284.289,1156.5 287.272,1153.51 290.254,1152.64 293.236,1152.47 296.219,1150.2 299.201,1147.7 302.183,1144.05 305.166,1143.92 308.148,1140.3 311.131,1138.61 314.113,1135.69 317.095,1133.5 320.078,1133.26 323.06,1132.93 326.042,1131.57 329.025,1131.56 332.007,1129.07 334.989,1125.93 337.972,1125.41 340.954,1122.17 343.936,1118.55 346.919,1115.63 349.901,1115.05 352.883,1111.85 355.866,1111.63 358.848,1107.98 361.831,1106.35 364.813,1105.46 367.795,1101.97 370.778,1100.83 373.76,1097.64 376.742,1094.71 379.725,1091.64 382.707,1091.59 385.689,1091.17 388.672,1090.63 391.654,1089.15 394.636,1085.59 397.619,1082.43 400.601,1080.44 403.584,1078.53 406.566,1074.86 409.548,1074.65 412.531,1072.61 415.513,1069.06 418.495,1067.04 421.478,1065.34 424.46,1063.9 427.442,1061.32 430.425,1061.18 433.407,1059.97 436.389,1058.78 439.372,1056.87 442.354,1054.45 445.337,1051.27 448.319,1050.63 451.301,1047.26 454.284,1044.22 457.266,1042.36 460.248,1041.97 463.231,1040.23 466.213,1039.11 469.195,1036.36 472.178,1033.85 475.16,1032.12 478.142,1031.05 481.125,1027.92 484.107,1024.29 487.09,1023.44 490.072,1023.34 493.054,1020.46 496.037,1017.57 499.019,1016.21 502.001,1014.14 504.984,1013.69 507.966,1012.56 510.948,1009.31 513.931,1008.3 516.913,1007.78 519.895,1004.36 522.878,1002.34 525.86,998.69 528.843,996.838 531.825,995.17 534.807,994.487 537.79,992.185 540.772,990.495 543.754,988.709 546.737,987.962 549.719,987.098 552.701,984.052 555.684,983.429 558.666,981.352 561.648,980.825 564.631,978.635 567.613,975.71 570.595,975.521 573.578,974.263 576.56,971.45 579.543,969.948 582.525,967.602 585.507,967.232 588.49,963.574 591.472,960.397 594.454,958.215 597.437,954.78 600.419,952.691 603.401,949.492 606.384,947.615 609.366,946.076 612.348,942.489 615.331,940.115 618.313,936.695 621.296,936.22 624.278,934.93 627.26,931.66 630.243,930.099 633.225,929.443 636.207,928.595 639.19,926.812 642.172,923.454 645.154,921.426 648.137,920.637 651.119,919.778 654.101,916.811 657.084,915.182 660.066,912.169 663.049,909.293 666.031,905.875 669.013,904.706 671.996,902.348 674.978,900.845 677.96,899.703 680.943,897.066 683.925,895.535 686.907,893.083 689.89,892.598 692.872,891.803 695.854,891.054 698.837,889.828 701.819,886.353 704.802,885.678 707.784,883.871 710.766,883.297 713.749,881.78 716.731,880.351 719.713,878.641 722.696,877.772 725.678,874.822 728.66,873.418 731.643,872.4 734.625,870.634 737.607,868.676 740.59,867.71 743.572,865.68 746.555,864.84 749.537,861.721 752.519,860.964 755.502,857.908 758.484,856.086 761.466,853.844 764.449,852.707 767.431,852.384 770.413,850.004 773.396,847.835 776.378,844.334 779.36,842.109 782.343,841.663 785.325,839.267 788.307,837.493 791.29,837.346 794.272,835.199 797.255,831.885 800.237,828.751 803.219,825.394 806.202,822.096 809.184,821.556 812.166,821.527 815.149,821.018 818.131,819.251 821.113,816.273 824.096,813.711 827.078,813.195 830.06,813.047 833.043,812.375 836.025,812.365 839.008,808.796 841.99,805.793 844.972,803.561 847.955,800.161 850.937,798.568 853.919,797.452 856.902,794.359 859.884,790.939 862.866,789.085 865.849,787.135 868.831,786.253 871.813,782.764 874.796,782.334 877.778,781.942 880.761,779.174 883.743,778.525 886.725,775.422 889.708,772.881 892.69,769.406 895.672,768.388 898.655,766.076 901.637,763.712 904.619,762.77 907.602,761.219 910.584,758.149 913.566,757.47 916.549,755.349 919.531,752.681 922.514,751.073 925.496,748.352 928.478,746.307 931.461,744.665 934.443,743.087 937.425,742.541 940.408,740.028 943.39,736.385 946.372,734.345 949.355,731.535 952.337,731.155 955.319,727.615 958.302,725.812 961.284,722.14 964.266,721.673 967.249,719.703 970.231,719.306 973.214,717.992 976.196,716.28 979.178,713.482 982.161,712.409 985.143,710.099 988.125,706.55 991.108,706.337 994.09,705.301 997.072,701.717 1000.05,701.481 1003.04,697.815 1006.02,697.163 1009,696.718 1011.98,693.196 1014.97,690.191 1017.95,689.085 1020.93,685.632 1023.91,682.364 1026.9,680.101 1029.88,678.833 1032.86,675.712 1035.84,673.885 1038.83,671.857 1041.81,671.203 1044.79,668.413 1047.77,665.779 1050.75,665.686 1053.74,662.125 1056.72,659.242 1059.7,656.634 1062.68,656.089 1065.67,655.567 1068.65,652.366 1071.63,651.41 1074.61,648.136 1077.6,644.858 1080.58,641.352 1083.56,639.862 1086.54,637.564 1089.53,636.209 1092.51,633.003 1095.49,629.396 1098.47,626.638 1101.45,625.667 1104.44,623.82 1107.42,620.645 1110.4,617.303 1113.38,615.558 1116.37,611.97 1119.35,611.215 1122.33,608.409 1125.31,605.599 1128.3,603.669 1131.28,603.34 1134.26,602.373 1137.24,601.541 1140.23,598.238 1143.21,595.961 1146.19,595.398 1149.17,592.106 1152.15,592.076 1155.14,590.431 1158.12,587.472 1161.1,587.175 1164.08,585.164 1167.07,584.786 1170.05,584.502 1173.03,581.519 1176.01,581.009 1179,577.629 1181.98,573.966 1184.96,573.465 1187.94,572.357 1190.93,570.617 1193.91,568.754 1196.89,567.354 1199.87,565.124 1202.85,564.918 1205.84,563.897 1208.82,563.199 1211.8,560.607 1214.78,557.047 1217.77,555.241 1220.75,554.688 1223.73,554.375 1226.71,551.299 1229.7,550.778 1232.68,548.147 1235.66,545.851 1238.64,542.714 1241.63,541.267 1244.61,537.646 1247.59,536.33 1250.57,533.932 1253.56,533.413 1256.54,533.008 1259.52,530.357 1262.5,529.579 1265.48,526.794 1268.47,525.35 1271.45,524.118 1274.43,520.594 1277.41,519.793 1280.4,517.493 1283.38,516.747 1286.36,513.604 1289.34,512.384 1292.33,511.416 1295.31,510.912 1298.29,508.396 1301.27,507.678 1304.26,505.475 1307.24,503.172 1310.22,502.257 1313.2,500.864 1316.18,500.842 1319.17,500.343 1322.15,498.604 1325.13,496.443 1328.11,494.948 1331.1,492.441 1334.08,492.418 1337.06,491.333 1340.04,490.877 1343.03,488.246 1346.01,486.529 1348.99,486.24 1351.97,486.008 1354.96,484.848 1357.94,483.716 1360.92,481.443 1363.9,478.005 1366.88,475.716 1369.87,474.169 1372.85,470.642 1375.83,467.372 1378.81,465.298 1381.8,464.294 1384.78,461.65 1387.76,460.835 1390.74,459.157 1393.73,455.921 1396.71,454.235 1399.69,451.234 1402.67,449.392 1405.66,446.322 1408.64,444.196 1411.62,443.462 1414.6,440.798 1417.58,439.463 1420.57,439.024 1423.55,436.051 1426.53,433.232 1429.51,431.507 1432.5,427.94 1435.48,427.218 1438.46,425.66 1441.44,424.489 1444.43,423.476 1447.41,423.197 1450.39,421.679 1453.37,419.691 1456.36,418.294 1459.34,417.046 1462.32,413.968 1465.3,411.734 1468.28,408.137 1471.27,406.078 1474.25,403.473 1477.23,402.954 1480.21,400.584 1483.2,397.419 1486.18,394.542 1489.16,391.193 1492.14,389.727 1495.13,386.247 1498.11,383.385 1501.09,382.375 1504.07,381.87 1507.06,380.258 1510.04,378.358 1513.02,376.16 1516,375.813 1518.98,373.697 1521.97,371.124 1524.95,369.052 1527.93,365.906 1530.91,365.485 1533.9,362.283 1536.88,360.858 1539.86,360.34 1542.84,358.961 1545.83,355.615 1548.81,354.249 1551.79,351.859 1554.77,349.468 1557.76,347.409 1560.74,344.787 1563.72,341.853 1566.7,341.133 1569.68,338.895 1572.67,336.38 1575.65,334.08 1578.63,333.431 1581.61,331.564 1584.6,329.107 1587.58,325.459 1590.56,324.289 1593.54,320.77 1596.53,318.451 1599.51,317.272 1602.49,314.356 1605.47,310.969 1608.46,308.25 1611.44,304.8 1614.42,304.627 1617.4,303.528 1620.38,301.136 1623.37,300.825 1626.35,298.369 1629.33,297.903 1632.31,297.757 1635.3,296.844 1638.28,295.608 1641.26,294.501 1644.24,294.307 1647.23,291.939 1650.21,288.829 1653.19,288.173 1656.17,286.606 1659.16,284.467 1662.14,281.622 1665.12,279.218 1668.1,276.756 1671.08,274.575 1674.07,273.007 1677.05,271.624 1680.03,268.933 1683.01,267.779 1686,266.661 1688.98,264.612 1691.96,261.58 1694.94,258.203 1697.93,257.726 1700.91,254.733 1703.89,251.444 1706.87,250.862 1709.86,248.058 1712.84,246.137 1715.82,245.56 1718.8,244.883 1721.78,244.421 1724.77,241.868 1727.75,240.41 1730.73,240.329 1733.71,237.224 1736.7,235.79 1739.68,232.76 1742.66,232.017 1745.64,230.7 1748.63,230.405 1751.61,228.834 1754.59,227.017 1757.57,225.219 1760.56,223.749 1763.54,222.058 1766.52,221.099 1769.5,217.45 1772.49,216.632 1775.47,213.731 1778.45,212.211 1781.43,209.37 1784.41,207.458 1787.4,207.065 1790.38,204.767 1793.36,204.205 1796.34,203.563 1799.33,200.805 1802.31,197.819 1805.29,196.627 1808.27,193.413 1811.26,193.266 1814.24,189.873 1817.22,186.79 1820.2,183.689 1823.19,182.704 1826.17,182.329 1829.15,182.275 1832.13,181.182 1835.11,177.886 1838.1,176.125 1841.08,175.25 1844.06,172.813 1847.04,169.851 1850.03,167.639 1853.01,166.018 1855.99,164.805 1858.97,161.878 1861.96,161.767 1864.94,160.011 1867.92,158.945 1870.9,156.729 1873.89,156.406 1876.87,152.961 1879.85,151.907 1882.83,148.501 1885.81,145.427 1888.8,142.37 1891.78,141.15 1894.76,140.928 1897.74,139.247 1900.73,136.781 1903.71,133.573 1906.69,132.93 1909.67,131.037 1912.66,129.857 1915.64,129.818 1918.62,128.654 1921.6,127.66 1924.59,126.937 1927.57,126.089 1930.55,122.418 1933.53,120.489 1936.51,119.798 1939.5,117.502 1942.48,116.445 1945.46,113.699 1948.44,112.935 1951.43,109.479 1954.41,106.504 1957.39,104.961 1960.37,104.384 1963.36,104.067 1966.34,101.881 1969.32,101.413 1972.3,99.0708 1975.29,96.8923 1978.27,96.2429 1981.25,95.8801 1984.23,93.942 1987.21,91.8383 1990.2,89.202 1993.18,87.4146 1996.16,84.7585 1999.14,84.1376 2002.13,83.0813 2005.11,82.736 2008.09,81.5462 2011.07,80.8479 "/>
<path clip-path="url(#clip220)" d="M231.203 190.502 L473.311 190.502 L473.311 86.8219 L231.203 86.8219  Z" fill="#ffffff" fill-rule="evenodd" fill-opacity="1"/>
<polyline clip-path="url(#clip220)" style="stroke:#000000; stroke-linecap:round; stroke-linejoin:round; stroke-width:4; stroke-opacity:1; fill:none" points="231.203,190.502 473.311,190.502 473.311,86.8219 231.203,86.8219 231.203,190.502 "/>
<polyline clip-path="url(#clip220)" style="stroke:#009af9; stroke-linecap:round; stroke-linejoin:round; stroke-width:4; stroke-opacity:1; fill:none" points="252.279,138.662 378.731,138.662 "/>
<path clip-path="url(#clip220)" d="M413.648 158.349 Q411.843 162.979 410.13 164.391 Q408.417 165.803 405.547 165.803 L402.144 165.803 L402.144 162.238 L404.644 162.238 Q406.403 162.238 407.375 161.405 Q408.348 160.572 409.528 157.47 L410.292 155.525 L399.806 130.016 L404.32 130.016 L412.422 150.294 L420.523 130.016 L425.037 130.016 L413.648 158.349 Z" fill="#000000" fill-rule="nonzero" fill-opacity="1" /><path clip-path="url(#clip220)" d="M432.329 152.007 L439.968 152.007 L439.968 125.641 L431.658 127.308 L431.658 123.049 L439.921 121.382 L444.597 121.382 L444.597 152.007 L452.236 152.007 L452.236 155.942 L432.329 155.942 L432.329 152.007 Z" fill="#000000" fill-rule="nonzero" fill-opacity="1" /></svg>
