<?xml version="1.0" encoding="utf-8"?>
<svg xmlns="http://www.w3.org/2000/svg" xmlns:xlink="http://www.w3.org/1999/xlink" width="528" height="336" viewBox="0 0 2112 1344">
<defs>
  <clipPath id="clip990">
    <rect x="0" y="0" width="2112" height="1344"/>
  </clipPath>
</defs>
<path clip-path="url(#clip990)" d="M0 1344 L2112 1344 L2112 0 L0 0  Z" fill="#ffffff" fill-rule="evenodd" fill-opacity="1"/>
<defs>
  <clipPath id="clip991">
    <rect x="422" y="0" width="1479" height="1344"/>
  </clipPath>
</defs>
<path clip-path="url(#clip990)" d="M183.394 1234.58 L2064.76 1234.58 L2064.76 47.2441 L183.394 47.2441  Z" fill="#ffffff" fill-rule="evenodd" fill-opacity="1"/>
<defs>
  <clipPath id="clip992">
    <rect x="183" y="47" width="1882" height="1188"/>
  </clipPath>
</defs>
<polyline clip-path="url(#clip992)" style="stroke:#000000; stroke-linecap:round; stroke-linejoin:round; stroke-width:2; stroke-opacity:0.1; fill:none" points="236.64,1234.58 236.64,47.2441 "/>
<polyline clip-path="url(#clip992)" style="stroke:#000000; stroke-linecap:round; stroke-linejoin:round; stroke-width:2; stroke-opacity:0.1; fill:none" points="532.452,1234.58 532.452,47.2441 "/>
<polyline clip-path="url(#clip992)" style="stroke:#000000; stroke-linecap:round; stroke-linejoin:round; stroke-width:2; stroke-opacity:0.1; fill:none" points="828.263,1234.58 828.263,47.2441 "/>
<polyline clip-path="url(#clip992)" style="stroke:#000000; stroke-linecap:round; stroke-linejoin:round; stroke-width:2; stroke-opacity:0.1; fill:none" points="1124.07,1234.58 1124.07,47.2441 "/>
<polyline clip-path="url(#clip992)" style="stroke:#000000; stroke-linecap:round; stroke-linejoin:round; stroke-width:2; stroke-opacity:0.1; fill:none" points="1419.89,1234.58 1419.89,47.2441 "/>
<polyline clip-path="url(#clip992)" style="stroke:#000000; stroke-linecap:round; stroke-linejoin:round; stroke-width:2; stroke-opacity:0.1; fill:none" points="1715.7,1234.58 1715.7,47.2441 "/>
<polyline clip-path="url(#clip992)" style="stroke:#000000; stroke-linecap:round; stroke-linejoin:round; stroke-width:2; stroke-opacity:0.1; fill:none" points="2011.51,1234.58 2011.51,47.2441 "/>
<polyline clip-path="url(#clip990)" style="stroke:#000000; stroke-linecap:round; stroke-linejoin:round; stroke-width:4; stroke-opacity:1; fill:none" points="183.394,1234.58 2064.76,1234.58 "/>
<polyline clip-path="url(#clip990)" style="stroke:#000000; stroke-linecap:round; stroke-linejoin:round; stroke-width:4; stroke-opacity:1; fill:none" points="236.64,1234.58 236.64,1215.68 "/>
<polyline clip-path="url(#clip990)" style="stroke:#000000; stroke-linecap:round; stroke-linejoin:round; stroke-width:4; stroke-opacity:1; fill:none" points="532.452,1234.58 532.452,1215.68 "/>
<polyline clip-path="url(#clip990)" style="stroke:#000000; stroke-linecap:round; stroke-linejoin:round; stroke-width:4; stroke-opacity:1; fill:none" points="828.263,1234.58 828.263,1215.68 "/>
<polyline clip-path="url(#clip990)" style="stroke:#000000; stroke-linecap:round; stroke-linejoin:round; stroke-width:4; stroke-opacity:1; fill:none" points="1124.07,1234.58 1124.07,1215.68 "/>
<polyline clip-path="url(#clip990)" style="stroke:#000000; stroke-linecap:round; stroke-linejoin:round; stroke-width:4; stroke-opacity:1; fill:none" points="1419.89,1234.58 1419.89,1215.68 "/>
<polyline clip-path="url(#clip990)" style="stroke:#000000; stroke-linecap:round; stroke-linejoin:round; stroke-width:4; stroke-opacity:1; fill:none" points="1715.7,1234.58 1715.7,1215.68 "/>
<polyline clip-path="url(#clip990)" style="stroke:#000000; stroke-linecap:round; stroke-linejoin:round; stroke-width:4; stroke-opacity:1; fill:none" points="2011.51,1234.58 2011.51,1215.68 "/>
<path clip-path="url(#clip990)" d="M206.108 1277.85 L235.784 1277.85 L235.784 1281.78 L206.108 1281.78 L206.108 1277.85 Z" fill="#000000" fill-rule="nonzero" fill-opacity="1" /><path clip-path="url(#clip990)" d="M260.043 1276.04 Q263.399 1276.76 265.274 1279.03 Q267.172 1281.3 267.172 1284.63 Q267.172 1289.74 263.654 1292.55 Q260.135 1295.35 253.654 1295.35 Q251.478 1295.35 249.163 1294.91 Q246.872 1294.49 244.418 1293.63 L244.418 1289.12 Q246.362 1290.25 248.677 1290.83 Q250.992 1291.41 253.515 1291.41 Q257.913 1291.41 260.205 1289.67 Q262.52 1287.94 262.52 1284.63 Q262.52 1281.57 260.367 1279.86 Q258.237 1278.12 254.418 1278.12 L250.39 1278.12 L250.39 1274.28 L254.603 1274.28 Q258.052 1274.28 259.881 1272.92 Q261.709 1271.53 261.709 1268.93 Q261.709 1266.27 259.811 1264.86 Q257.936 1263.42 254.418 1263.42 Q252.496 1263.42 250.297 1263.84 Q248.098 1264.26 245.459 1265.14 L245.459 1260.97 Q248.122 1260.23 250.436 1259.86 Q252.774 1259.49 254.834 1259.49 Q260.158 1259.49 263.26 1261.92 Q266.362 1264.33 266.362 1268.45 Q266.362 1271.32 264.719 1273.31 Q263.075 1275.28 260.043 1276.04 Z" fill="#000000" fill-rule="nonzero" fill-opacity="1" /><path clip-path="url(#clip990)" d="M502.394 1277.85 L532.07 1277.85 L532.07 1281.78 L502.394 1281.78 L502.394 1277.85 Z" fill="#000000" fill-rule="nonzero" fill-opacity="1" /><path clip-path="url(#clip990)" d="M546.19 1290.74 L562.509 1290.74 L562.509 1294.67 L540.565 1294.67 L540.565 1290.74 Q543.227 1287.99 547.81 1283.36 Q552.417 1278.7 553.597 1277.36 Q555.843 1274.84 556.722 1273.1 Q557.625 1271.34 557.625 1269.65 Q557.625 1266.9 555.681 1265.16 Q553.759 1263.42 550.658 1263.42 Q548.459 1263.42 546.005 1264.19 Q543.574 1264.95 540.797 1266.5 L540.797 1261.78 Q543.621 1260.65 546.074 1260.07 Q548.528 1259.49 550.565 1259.49 Q555.935 1259.49 559.13 1262.17 Q562.324 1264.86 562.324 1269.35 Q562.324 1271.48 561.514 1273.4 Q560.727 1275.3 558.621 1277.89 Q558.042 1278.56 554.94 1281.78 Q551.838 1284.98 546.19 1290.74 Z" fill="#000000" fill-rule="nonzero" fill-opacity="1" /><path clip-path="url(#clip990)" d="M798.02 1277.85 L827.696 1277.85 L827.696 1281.78 L798.02 1281.78 L798.02 1277.85 Z" fill="#000000" fill-rule="nonzero" fill-opacity="1" /><path clip-path="url(#clip990)" d="M838.599 1290.74 L846.238 1290.74 L846.238 1264.37 L837.928 1266.04 L837.928 1261.78 L846.191 1260.11 L850.867 1260.11 L850.867 1290.74 L858.506 1290.74 L858.506 1294.67 L838.599 1294.67 L838.599 1290.74 Z" fill="#000000" fill-rule="nonzero" fill-opacity="1" /><path clip-path="url(#clip990)" d="M1124.07 1263.19 Q1120.46 1263.19 1118.64 1266.76 Q1116.83 1270.3 1116.83 1277.43 Q1116.83 1284.54 1118.64 1288.1 Q1120.46 1291.64 1124.07 1291.64 Q1127.71 1291.64 1129.51 1288.1 Q1131.34 1284.54 1131.34 1277.43 Q1131.34 1270.3 1129.51 1266.76 Q1127.71 1263.19 1124.07 1263.19 M1124.07 1259.49 Q1129.89 1259.49 1132.94 1264.1 Q1136.02 1268.68 1136.02 1277.43 Q1136.02 1286.16 1132.94 1290.76 Q1129.89 1295.35 1124.07 1295.35 Q1118.26 1295.35 1115.19 1290.76 Q1112.13 1286.16 1112.13 1277.43 Q1112.13 1268.68 1115.19 1264.1 Q1118.26 1259.49 1124.07 1259.49 Z" fill="#000000" fill-rule="nonzero" fill-opacity="1" /><path clip-path="url(#clip990)" d="M1410.27 1290.74 L1417.91 1290.74 L1417.91 1264.37 L1409.6 1266.04 L1409.6 1261.78 L1417.86 1260.11 L1422.54 1260.11 L1422.54 1290.74 L1430.18 1290.74 L1430.18 1294.67 L1410.27 1294.67 L1410.27 1290.74 Z" fill="#000000" fill-rule="nonzero" fill-opacity="1" /><path clip-path="url(#clip990)" d="M1710.35 1290.74 L1726.67 1290.74 L1726.67 1294.67 L1704.73 1294.67 L1704.73 1290.74 Q1707.39 1287.99 1711.97 1283.36 Q1716.58 1278.7 1717.76 1277.36 Q1720 1274.84 1720.88 1273.1 Q1721.79 1271.34 1721.79 1269.65 Q1721.79 1266.9 1719.84 1265.16 Q1717.92 1263.42 1714.82 1263.42 Q1712.62 1263.42 1710.17 1264.19 Q1707.74 1264.95 1704.96 1266.5 L1704.96 1261.78 Q1707.78 1260.65 1710.24 1260.07 Q1712.69 1259.49 1714.73 1259.49 Q1720.1 1259.49 1723.29 1262.17 Q1726.49 1264.86 1726.49 1269.35 Q1726.49 1271.48 1725.67 1273.4 Q1724.89 1275.3 1722.78 1277.89 Q1722.2 1278.56 1719.1 1281.78 Q1716 1284.98 1710.35 1290.74 Z" fill="#000000" fill-rule="nonzero" fill-opacity="1" /><path clip-path="url(#clip990)" d="M2015.76 1276.04 Q2019.11 1276.76 2020.99 1279.03 Q2022.89 1281.3 2022.89 1284.63 Q2022.89 1289.74 2019.37 1292.55 Q2015.85 1295.35 2009.37 1295.35 Q2007.19 1295.35 2004.88 1294.91 Q2002.59 1294.49 2000.13 1293.63 L2000.13 1289.12 Q2002.08 1290.25 2004.39 1290.83 Q2006.71 1291.41 2009.23 1291.41 Q2013.63 1291.41 2015.92 1289.67 Q2018.23 1287.94 2018.23 1284.63 Q2018.23 1281.57 2016.08 1279.86 Q2013.95 1278.12 2010.13 1278.12 L2006.1 1278.12 L2006.1 1274.28 L2010.32 1274.28 Q2013.77 1274.28 2015.6 1272.92 Q2017.42 1271.53 2017.42 1268.93 Q2017.42 1266.27 2015.53 1264.86 Q2013.65 1263.42 2010.13 1263.42 Q2008.21 1263.42 2006.01 1263.84 Q2003.81 1264.26 2001.17 1265.14 L2001.17 1260.97 Q2003.84 1260.23 2006.15 1259.86 Q2008.49 1259.49 2010.55 1259.49 Q2015.87 1259.49 2018.98 1261.92 Q2022.08 1264.33 2022.08 1268.45 Q2022.08 1271.32 2020.43 1273.31 Q2018.79 1275.28 2015.76 1276.04 Z" fill="#000000" fill-rule="nonzero" fill-opacity="1" /><polyline clip-path="url(#clip992)" style="stroke:#000000; stroke-linecap:round; stroke-linejoin:round; stroke-width:2; stroke-opacity:0.1; fill:none" points="183.394,1203.28 2064.76,1203.28 "/>
<polyline clip-path="url(#clip992)" style="stroke:#000000; stroke-linecap:round; stroke-linejoin:round; stroke-width:2; stroke-opacity:0.1; fill:none" points="183.394,922.4 2064.76,922.4 "/>
<polyline clip-path="url(#clip992)" style="stroke:#000000; stroke-linecap:round; stroke-linejoin:round; stroke-width:2; stroke-opacity:0.1; fill:none" points="183.394,641.524 2064.76,641.524 "/>
<polyline clip-path="url(#clip992)" style="stroke:#000000; stroke-linecap:round; stroke-linejoin:round; stroke-width:2; stroke-opacity:0.1; fill:none" points="183.394,360.647 2064.76,360.647 "/>
<polyline clip-path="url(#clip992)" style="stroke:#000000; stroke-linecap:round; stroke-linejoin:round; stroke-width:2; stroke-opacity:0.1; fill:none" points="183.394,79.7707 2064.76,79.7707 "/>
<polyline clip-path="url(#clip990)" style="stroke:#000000; stroke-linecap:round; stroke-linejoin:round; stroke-width:4; stroke-opacity:1; fill:none" points="183.394,1234.58 183.394,47.2441 "/>
<polyline clip-path="url(#clip990)" style="stroke:#000000; stroke-linecap:round; stroke-linejoin:round; stroke-width:4; stroke-opacity:1; fill:none" points="183.394,1203.28 202.292,1203.28 "/>
<polyline clip-path="url(#clip990)" style="stroke:#000000; stroke-linecap:round; stroke-linejoin:round; stroke-width:4; stroke-opacity:1; fill:none" points="183.394,922.4 202.292,922.4 "/>
<polyline clip-path="url(#clip990)" style="stroke:#000000; stroke-linecap:round; stroke-linejoin:round; stroke-width:4; stroke-opacity:1; fill:none" points="183.394,641.524 202.292,641.524 "/>
<polyline clip-path="url(#clip990)" style="stroke:#000000; stroke-linecap:round; stroke-linejoin:round; stroke-width:4; stroke-opacity:1; fill:none" points="183.394,360.647 202.292,360.647 "/>
<polyline clip-path="url(#clip990)" style="stroke:#000000; stroke-linecap:round; stroke-linejoin:round; stroke-width:4; stroke-opacity:1; fill:none" points="183.394,79.7707 202.292,79.7707 "/>
<path clip-path="url(#clip990)" d="M64.3765 1189.08 Q60.7654 1189.08 58.9367 1192.64 Q57.1312 1196.18 57.1312 1203.31 Q57.1312 1210.42 58.9367 1213.98 Q60.7654 1217.52 64.3765 1217.52 Q68.0107 1217.52 69.8163 1213.98 Q71.645 1210.42 71.645 1203.31 Q71.645 1196.18 69.8163 1192.64 Q68.0107 1189.08 64.3765 1189.08 M64.3765 1185.37 Q70.1867 1185.37 73.2422 1189.98 Q76.3209 1194.56 76.3209 1203.31 Q76.3209 1212.04 73.2422 1216.64 Q70.1867 1221.23 64.3765 1221.23 Q58.5664 1221.23 55.4877 1216.64 Q52.4321 1212.04 52.4321 1203.31 Q52.4321 1194.56 55.4877 1189.98 Q58.5664 1185.37 64.3765 1185.37 Z" fill="#000000" fill-rule="nonzero" fill-opacity="1" /><path clip-path="url(#clip990)" d="M84.5384 1214.68 L89.4227 1214.68 L89.4227 1220.56 L84.5384 1220.56 L84.5384 1214.68 Z" fill="#000000" fill-rule="nonzero" fill-opacity="1" /><path clip-path="url(#clip990)" d="M109.608 1189.08 Q105.997 1189.08 104.168 1192.64 Q102.362 1196.18 102.362 1203.31 Q102.362 1210.42 104.168 1213.98 Q105.997 1217.52 109.608 1217.52 Q113.242 1217.52 115.048 1213.98 Q116.876 1210.42 116.876 1203.31 Q116.876 1196.18 115.048 1192.64 Q113.242 1189.08 109.608 1189.08 M109.608 1185.37 Q115.418 1185.37 118.473 1189.98 Q121.552 1194.56 121.552 1203.31 Q121.552 1212.04 118.473 1216.64 Q115.418 1221.23 109.608 1221.23 Q103.798 1221.23 100.719 1216.64 Q97.6634 1212.04 97.6634 1203.31 Q97.6634 1194.56 100.719 1189.98 Q103.798 1185.37 109.608 1185.37 Z" fill="#000000" fill-rule="nonzero" fill-opacity="1" /><path clip-path="url(#clip990)" d="M139.77 1189.08 Q136.159 1189.08 134.33 1192.64 Q132.524 1196.18 132.524 1203.31 Q132.524 1210.42 134.33 1213.98 Q136.159 1217.52 139.77 1217.52 Q143.404 1217.52 145.209 1213.98 Q147.038 1210.42 147.038 1203.31 Q147.038 1196.18 145.209 1192.64 Q143.404 1189.08 139.77 1189.08 M139.77 1185.37 Q145.58 1185.37 148.635 1189.98 Q151.714 1194.56 151.714 1203.31 Q151.714 1212.04 148.635 1216.64 Q145.58 1221.23 139.77 1221.23 Q133.959 1221.23 130.881 1216.64 Q127.825 1212.04 127.825 1203.31 Q127.825 1194.56 130.881 1189.98 Q133.959 1185.37 139.77 1185.37 Z" fill="#000000" fill-rule="nonzero" fill-opacity="1" /><path clip-path="url(#clip990)" d="M65.3719 908.199 Q61.7608 908.199 59.9321 911.764 Q58.1265 915.305 58.1265 922.435 Q58.1265 929.541 59.9321 933.106 Q61.7608 936.648 65.3719 936.648 Q69.0061 936.648 70.8117 933.106 Q72.6404 929.541 72.6404 922.435 Q72.6404 915.305 70.8117 911.764 Q69.0061 908.199 65.3719 908.199 M65.3719 904.495 Q71.182 904.495 74.2376 909.102 Q77.3163 913.685 77.3163 922.435 Q77.3163 931.162 74.2376 935.768 Q71.182 940.352 65.3719 940.352 Q59.5617 940.352 56.483 935.768 Q53.4275 931.162 53.4275 922.435 Q53.4275 913.685 56.483 909.102 Q59.5617 904.495 65.3719 904.495 Z" fill="#000000" fill-rule="nonzero" fill-opacity="1" /><path clip-path="url(#clip990)" d="M85.5338 933.801 L90.418 933.801 L90.418 939.68 L85.5338 939.68 L85.5338 933.801 Z" fill="#000000" fill-rule="nonzero" fill-opacity="1" /><path clip-path="url(#clip990)" d="M104.631 935.745 L120.95 935.745 L120.95 939.68 L99.006 939.68 L99.006 935.745 Q101.668 932.99 106.251 928.361 Q110.858 923.708 112.038 922.366 Q114.284 919.842 115.163 918.106 Q116.066 916.347 116.066 914.657 Q116.066 911.903 114.122 910.166 Q112.2 908.43 109.098 908.43 Q106.899 908.43 104.446 909.194 Q102.015 909.958 99.2374 911.509 L99.2374 906.787 Q102.061 905.653 104.515 905.074 Q106.969 904.495 109.006 904.495 Q114.376 904.495 117.571 907.18 Q120.765 909.866 120.765 914.356 Q120.765 916.486 119.955 918.407 Q119.168 920.305 117.061 922.898 Q116.483 923.569 113.381 926.787 Q110.279 929.981 104.631 935.745 Z" fill="#000000" fill-rule="nonzero" fill-opacity="1" /><path clip-path="url(#clip990)" d="M130.811 905.12 L149.168 905.12 L149.168 909.055 L135.094 909.055 L135.094 917.528 Q136.112 917.18 137.131 917.018 Q138.149 916.833 139.168 916.833 Q144.955 916.833 148.334 920.004 Q151.714 923.176 151.714 928.592 Q151.714 934.171 148.242 937.273 Q144.77 940.352 138.45 940.352 Q136.274 940.352 134.006 939.981 Q131.76 939.611 129.353 938.87 L129.353 934.171 Q131.436 935.305 133.659 935.861 Q135.881 936.416 138.358 936.416 Q142.362 936.416 144.7 934.31 Q147.038 932.203 147.038 928.592 Q147.038 924.981 144.7 922.875 Q142.362 920.768 138.358 920.768 Q136.483 920.768 134.608 921.185 Q132.756 921.602 130.811 922.481 L130.811 905.12 Z" fill="#000000" fill-rule="nonzero" fill-opacity="1" /><path clip-path="url(#clip990)" d="M64.3765 627.322 Q60.7654 627.322 58.9367 630.887 Q57.1312 634.429 57.1312 641.558 Q57.1312 648.665 58.9367 652.23 Q60.7654 655.771 64.3765 655.771 Q68.0107 655.771 69.8163 652.23 Q71.645 648.665 71.645 641.558 Q71.645 634.429 69.8163 630.887 Q68.0107 627.322 64.3765 627.322 M64.3765 623.619 Q70.1867 623.619 73.2422 628.225 Q76.3209 632.808 76.3209 641.558 Q76.3209 650.285 73.2422 654.892 Q70.1867 659.475 64.3765 659.475 Q58.5664 659.475 55.4877 654.892 Q52.4321 650.285 52.4321 641.558 Q52.4321 632.808 55.4877 628.225 Q58.5664 623.619 64.3765 623.619 Z" fill="#000000" fill-rule="nonzero" fill-opacity="1" /><path clip-path="url(#clip990)" d="M84.5384 652.924 L89.4227 652.924 L89.4227 658.804 L84.5384 658.804 L84.5384 652.924 Z" fill="#000000" fill-rule="nonzero" fill-opacity="1" /><path clip-path="url(#clip990)" d="M99.6541 624.244 L118.01 624.244 L118.01 628.179 L103.936 628.179 L103.936 636.651 Q104.955 636.304 105.974 636.142 Q106.992 635.957 108.011 635.957 Q113.798 635.957 117.177 639.128 Q120.557 642.299 120.557 647.716 Q120.557 653.294 117.085 656.396 Q113.612 659.475 107.293 659.475 Q105.117 659.475 102.849 659.105 Q100.603 658.734 98.1958 657.994 L98.1958 653.294 Q100.279 654.429 102.501 654.984 Q104.724 655.54 107.2 655.54 Q111.205 655.54 113.543 653.433 Q115.881 651.327 115.881 647.716 Q115.881 644.105 113.543 641.998 Q111.205 639.892 107.2 639.892 Q105.325 639.892 103.45 640.308 Q101.599 640.725 99.6541 641.605 L99.6541 624.244 Z" fill="#000000" fill-rule="nonzero" fill-opacity="1" /><path clip-path="url(#clip990)" d="M139.77 627.322 Q136.159 627.322 134.33 630.887 Q132.524 634.429 132.524 641.558 Q132.524 648.665 134.33 652.23 Q136.159 655.771 139.77 655.771 Q143.404 655.771 145.209 652.23 Q147.038 648.665 147.038 641.558 Q147.038 634.429 145.209 630.887 Q143.404 627.322 139.77 627.322 M139.77 623.619 Q145.58 623.619 148.635 628.225 Q151.714 632.808 151.714 641.558 Q151.714 650.285 148.635 654.892 Q145.58 659.475 139.77 659.475 Q133.959 659.475 130.881 654.892 Q127.825 650.285 127.825 641.558 Q127.825 632.808 130.881 628.225 Q133.959 623.619 139.77 623.619 Z" fill="#000000" fill-rule="nonzero" fill-opacity="1" /><path clip-path="url(#clip990)" d="M65.3719 346.446 Q61.7608 346.446 59.9321 350.011 Q58.1265 353.552 58.1265 360.682 Q58.1265 367.788 59.9321 371.353 Q61.7608 374.895 65.3719 374.895 Q69.0061 374.895 70.8117 371.353 Q72.6404 367.788 72.6404 360.682 Q72.6404 353.552 70.8117 350.011 Q69.0061 346.446 65.3719 346.446 M65.3719 342.742 Q71.182 342.742 74.2376 347.349 Q77.3163 351.932 77.3163 360.682 Q77.3163 369.409 74.2376 374.015 Q71.182 378.598 65.3719 378.598 Q59.5617 378.598 56.483 374.015 Q53.4275 369.409 53.4275 360.682 Q53.4275 351.932 56.483 347.349 Q59.5617 342.742 65.3719 342.742 Z" fill="#000000" fill-rule="nonzero" fill-opacity="1" /><path clip-path="url(#clip990)" d="M85.5338 372.048 L90.418 372.048 L90.418 377.927 L85.5338 377.927 L85.5338 372.048 Z" fill="#000000" fill-rule="nonzero" fill-opacity="1" /><path clip-path="url(#clip990)" d="M99.4226 343.367 L121.645 343.367 L121.645 345.358 L109.098 377.927 L104.214 377.927 L116.02 347.302 L99.4226 347.302 L99.4226 343.367 Z" fill="#000000" fill-rule="nonzero" fill-opacity="1" /><path clip-path="url(#clip990)" d="M130.811 343.367 L149.168 343.367 L149.168 347.302 L135.094 347.302 L135.094 355.775 Q136.112 355.427 137.131 355.265 Q138.149 355.08 139.168 355.08 Q144.955 355.08 148.334 358.251 Q151.714 361.423 151.714 366.839 Q151.714 372.418 148.242 375.52 Q144.77 378.598 138.45 378.598 Q136.274 378.598 134.006 378.228 Q131.76 377.858 129.353 377.117 L129.353 372.418 Q131.436 373.552 133.659 374.108 Q135.881 374.663 138.358 374.663 Q142.362 374.663 144.7 372.557 Q147.038 370.45 147.038 366.839 Q147.038 363.228 144.7 361.122 Q142.362 359.015 138.358 359.015 Q136.483 359.015 134.608 359.432 Q132.756 359.849 130.811 360.728 L130.811 343.367 Z" fill="#000000" fill-rule="nonzero" fill-opacity="1" /><path clip-path="url(#clip990)" d="M55.1867 93.1155 L62.8256 93.1155 L62.8256 66.7499 L54.5154 68.4166 L54.5154 64.1573 L62.7793 62.4907 L67.4552 62.4907 L67.4552 93.1155 L75.094 93.1155 L75.094 97.0507 L55.1867 97.0507 L55.1867 93.1155 Z" fill="#000000" fill-rule="nonzero" fill-opacity="1" /><path clip-path="url(#clip990)" d="M84.5384 91.1711 L89.4227 91.1711 L89.4227 97.0507 L84.5384 97.0507 L84.5384 91.1711 Z" fill="#000000" fill-rule="nonzero" fill-opacity="1" /><path clip-path="url(#clip990)" d="M109.608 65.5693 Q105.997 65.5693 104.168 69.1341 Q102.362 72.6758 102.362 79.8054 Q102.362 86.9118 104.168 90.4766 Q105.997 94.0183 109.608 94.0183 Q113.242 94.0183 115.048 90.4766 Q116.876 86.9118 116.876 79.8054 Q116.876 72.6758 115.048 69.1341 Q113.242 65.5693 109.608 65.5693 M109.608 61.8657 Q115.418 61.8657 118.473 66.4721 Q121.552 71.0554 121.552 79.8054 Q121.552 88.5322 118.473 93.1386 Q115.418 97.722 109.608 97.722 Q103.798 97.722 100.719 93.1386 Q97.6634 88.5322 97.6634 79.8054 Q97.6634 71.0554 100.719 66.4721 Q103.798 61.8657 109.608 61.8657 Z" fill="#000000" fill-rule="nonzero" fill-opacity="1" /><path clip-path="url(#clip990)" d="M139.77 65.5693 Q136.159 65.5693 134.33 69.1341 Q132.524 72.6758 132.524 79.8054 Q132.524 86.9118 134.33 90.4766 Q136.159 94.0183 139.77 94.0183 Q143.404 94.0183 145.209 90.4766 Q147.038 86.9118 147.038 79.8054 Q147.038 72.6758 145.209 69.1341 Q143.404 65.5693 139.77 65.5693 M139.77 61.8657 Q145.58 61.8657 148.635 66.4721 Q151.714 71.0554 151.714 79.8054 Q151.714 88.5322 148.635 93.1386 Q145.58 97.722 139.77 97.722 Q133.959 97.722 130.881 93.1386 Q127.825 88.5322 127.825 79.8054 Q127.825 71.0554 130.881 66.4721 Q133.959 61.8657 139.77 61.8657 Z" fill="#000000" fill-rule="nonzero" fill-opacity="1" /><polyline clip-path="url(#clip992)" style="stroke:#009af9; stroke-linecap:round; stroke-linejoin:round; stroke-width:4; stroke-opacity:1; fill:none" points="236.64,346.853 239.598,882.713 242.556,469.439 245.514,710.914 248.473,964.94 251.431,239.943 254.389,1044.1 257.347,870.654 260.305,602.788 263.263,634.467 266.221,759.511 269.179,848.058 272.137,670.537 275.096,911.789 278.054,370.055 281.012,460.709 283.97,751.551 286.928,935.211 289.886,1121.72 292.844,351.384 295.802,299.252 298.761,598.021 301.719,748.093 304.677,305.2 307.635,367.842 310.593,81.0445 313.551,594.943 316.509,1148.75 319.467,1109.34 322.425,511.294 325.384,1016.67 328.342,724.473 331.3,85.4202 334.258,992.429 337.216,834.837 340.174,1150.26 343.132,144.146 346.09,465.479 349.049,832.094 352.007,519 354.965,1147.97 357.923,960.86 360.881,1083.73 363.839,666.735 366.797,691.011 369.755,181.616 372.713,543.74 375.672,738.605 378.63,195.941 381.588,1172.9 384.546,714.658 387.504,590.08 390.462,726.104 393.42,681.06 396.378,392.103 399.336,586.443 402.295,784.988 405.253,990.323 408.211,549.405 411.169,87.9636 414.127,272.164 417.085,232.443 420.043,285.8 423.001,413.864 425.96,502.622 428.918,526.85 431.876,719.251 434.834,1155.03 437.792,340.12 440.75,1059.68 443.708,579.304 446.666,1200.74 449.624,146.399 452.583,523.631 455.541,1124.99 458.499,935.266 461.457,678.695 464.415,870.329 467.373,1196.79 470.331,686.056 473.289,691.485 476.248,691.567 479.206,234.469 482.164,461.149 485.122,1122.58 488.08,1123.89 491.038,980.049 493.996,1145.53 496.954,786.932 499.912,726.572 502.871,206.307 505.829,471.498 508.787,1008.08 511.745,870.853 514.703,125.193 517.661,855.875 520.619,887.517 523.577,721.251 526.535,896.327 529.494,1118.93 532.452,738.257 535.41,1082.64 538.368,487.291 541.326,1167.44 544.284,661.644 547.242,1039.23 550.2,974.939 553.159,618.125 556.117,979.146 559.075,119.872 562.033,679.854 564.991,844.436 567.949,1112.67 570.907,552.775 573.865,368.797 576.823,896.473 579.782,384.031 582.74,864.184 585.698,157.198 588.656,1113.99 591.614,1122.88 594.572,983.078 597.53,124.815 600.488,750.997 603.447,517.121 606.405,788.359 609.363,914.15 612.321,258.76 615.279,802.744 618.237,997.134 621.195,751.071 624.153,713.862 627.111,1011.43 630.07,384.652 633.028,1103.77 635.986,391.314 638.944,1087.34 641.902,307.713 644.86,547.229 647.818,851.284 650.776,297.617 653.734,99.2532 656.693,1108.63 659.651,1036.33 662.609,429.747 665.567,689.588 668.525,417.22 671.483,689.537 674.441,709.701 677.399,975.297 680.358,571.327 683.316,1200.97 686.274,289.678 689.232,525.707 692.19,883.693 695.148,548.425 698.106,668.788 701.064,279.524 704.022,442.872 706.981,98.1228 709.939,856.589 712.897,930.801 715.855,871.818 718.813,1144.36 721.771,117.247 724.729,427.624 727.687,151.903 730.645,588.877 733.604,515.177 736.562,738.556 739.52,638.054 742.478,397.67 745.436,115.531 748.394,510.576 751.352,172.899 754.31,1166.47 757.269,253.591 760.227,962.62 763.185,583.98 766.143,351.051 769.101,640.332 772.059,436.481 775.017,276.572 777.975,620.874 780.933,1062.57 783.892,217.43 786.85,154.806 789.808,1019.86 792.766,652.503 795.724,1049.78 798.682,578.221 801.64,1093.69 804.598,595.38 807.557,120.231 810.515,628.28 813.473,1185.56 816.431,262.077 819.389,744.942 822.347,381.474 825.305,859.76 828.263,700.145 831.221,959.708 834.18,601.572 837.138,399.172 840.096,332.282 843.054,1184.2 846.012,1127.21 848.97,361.221 851.928,1157 854.886,709.099 857.844,880.676 860.803,167.793 863.761,704.463 866.719,119.07 869.677,315.873 872.635,483.029 875.593,568.243 878.551,1057.26 881.509,281.286 884.468,635.793 887.426,858.925 890.384,1159.56 893.342,1100.46 896.3,527.616 899.258,977.14 902.216,718.738 905.174,520.55 908.132,998.429 911.091,931.708 914.049,103.622 917.007,162.595 919.965,619.241 922.923,463.319 925.881,271.878 928.839,1133.48 931.797,745.939 934.756,767.704 937.714,396.454 940.672,252.103 943.63,274.505 946.588,782.274 949.546,628.478 952.504,145.452 955.462,429.882 958.42,1200.88 961.379,667.44 964.337,1124.04 967.295,1117.36 970.253,898.496 973.211,418.651 976.169,1074.38 979.127,345.101 982.085,818.226 985.043,117.448 988.002,1069.69 990.96,234.71 993.918,883.36 996.876,1181.09 999.834,1060.73 1002.79,372.84 1005.75,1059.77 1008.71,571.664 1011.67,339.043 1014.62,331.423 1017.58,882.859 1020.54,691.215 1023.5,626.957 1026.46,434.133 1029.42,152.219 1032.37,795.744 1035.33,860.479 1038.29,406.562 1041.25,1064.73 1044.21,388.733 1047.16,309.515 1050.12,104.212 1053.08,160.716 1056.04,714.533 1059,580.613 1061.95,724.919 1064.91,87.062 1067.87,569.494 1070.83,237.008 1073.79,580.962 1076.75,635.637 1079.7,622.636 1082.66,1032.34 1085.62,133.774 1088.58,466.044 1091.54,391.496 1094.49,211.251 1097.45,539.466 1100.41,824.36 1103.37,611.357 1106.33,1039.05 1109.28,1129.48 1112.24,244.59 1115.2,984.261 1118.16,1042.33 1121.12,283.518 1124.07,107.594 1127.03,844.149 1129.99,1197.84 1132.95,723.037 1135.91,898.678 1138.87,135.467 1141.82,220.941 1144.78,529.368 1147.74,728.613 1150.7,115.391 1153.66,738.559 1156.61,170.518 1159.57,346.382 1162.53,397.104 1165.49,781.327 1168.45,330.798 1171.4,666.466 1174.36,105.949 1177.32,1070.98 1180.28,1188.03 1183.24,1033.62 1186.2,117.719 1189.15,229.152 1192.11,165.19 1195.07,720.05 1198.03,827.153 1200.99,385.113 1203.94,635.793 1206.9,318.751 1209.86,1015.25 1212.82,612.653 1215.78,761.697 1218.73,686.837 1221.69,1086.94 1224.65,505.627 1227.61,259.055 1230.57,279.821 1233.53,665.107 1236.48,292.48 1239.44,470.551 1242.4,504.651 1245.36,809.87 1248.32,398.435 1251.27,348.096 1254.23,1098.39 1257.19,214.176 1260.15,776.222 1263.11,385.122 1266.06,1081.7 1269.02,196.326 1271.98,274.495 1274.94,1118.76 1277.9,381.862 1280.86,577.267 1283.81,443.179 1286.77,232.331 1289.73,280.187 1292.69,819.935 1295.65,1147.49 1298.6,590.887 1301.56,754.054 1304.52,838.334 1307.48,800.934 1310.44,1143.19 1313.39,484.24 1316.35,617.437 1319.31,1001.62 1322.27,311.59 1325.23,882.384 1328.18,183.779 1331.14,341.195 1334.1,359.668 1337.06,1146.88 1340.02,535.389 1342.98,254.439 1345.93,514.534 1348.89,317.752 1351.85,262.158 1354.81,994.984 1357.77,388.934 1360.72,550.525 1363.68,824.909 1366.64,407.916 1369.6,692.479 1372.56,826.743 1375.51,501.183 1378.47,125.226 1381.43,507.127 1384.39,142.381 1387.35,746.588 1390.31,439.289 1393.26,938.371 1396.22,653.244 1399.18,940.512 1402.14,593.397 1405.1,288.587 1408.05,1019.55 1411.01,396.484 1413.97,342.281 1416.93,172.47 1419.89,829.693 1422.84,905.384 1425.8,1075.04 1428.76,438.335 1431.72,1091.13 1434.68,607.7 1437.64,1052.42 1440.59,466.16 1443.55,1139.1 1446.51,683.441 1449.47,614.776 1452.43,258.202 1455.38,381.701 1458.34,254.095 1461.3,434.908 1464.26,1046.85 1467.22,943.84 1470.17,442.833 1473.13,972.861 1476.09,504.919 1479.05,688.156 1482.01,1051.12 1484.97,173.787 1487.92,695.927 1490.88,254.11 1493.84,531.543 1496.8,107.872 1499.76,103.421 1502.71,442.68 1505.67,616.93 1508.63,1132.11 1511.59,1094.04 1514.55,416.06 1517.5,250.276 1520.46,217.536 1523.42,652.932 1526.38,1134.34 1529.34,505.063 1532.29,145.545 1535.25,174.828 1538.21,754.833 1541.17,448.031 1544.13,535.317 1547.09,719.794 1550.04,559.998 1553,990.171 1555.96,380.295 1558.92,987.212 1561.88,122.492 1564.83,97.9832 1567.79,983.486 1570.75,925.788 1573.71,981.496 1576.67,1099.86 1579.62,429.852 1582.58,314.837 1585.54,479.329 1588.5,240.284 1591.46,1066.45 1594.42,110.531 1597.37,933.66 1600.33,1090.33 1603.29,201.053 1606.25,1030.17 1609.21,888.92 1612.16,524.447 1615.12,213.26 1618.08,586.539 1621.04,484.593 1624,648.89 1626.95,314.234 1629.91,565.338 1632.87,378.627 1635.83,484.443 1638.79,349.19 1641.75,130.274 1644.7,852.583 1647.66,1050.55 1650.62,715.534 1653.58,86.4909 1656.54,296.806 1659.49,603.265 1662.45,123.693 1665.41,914.538 1668.37,386.866 1671.33,173.819 1674.28,1186.76 1677.24,734.053 1680.2,821.207 1683.16,1132.52 1686.12,562.649 1689.08,480.68 1692.03,293.33 1694.99,190.517 1697.95,959.618 1700.91,307.323 1703.87,218.388 1706.82,767.48 1709.78,888.598 1712.74,235.293 1715.7,1039.45 1718.66,712.733 1721.61,1108.08 1724.57,703.443 1727.53,173.008 1730.49,1150.23 1733.45,170.823 1736.41,651.367 1739.36,623.806 1742.32,329.505 1745.28,837.463 1748.24,766.564 1751.2,509.487 1754.15,622.437 1757.11,973.798 1760.07,373.031 1763.03,602.836 1765.99,650.75 1768.94,333.826 1771.9,564.52 1774.86,707.951 1777.82,852.793 1780.78,841.537 1783.73,127.86 1786.69,1188.99 1789.65,267.44 1792.61,1097.3 1795.57,501.824 1798.53,886.855 1801.48,1158.46 1804.44,254.18 1807.4,515.184 1810.36,1094.87 1813.32,564.237 1816.27,993.937 1819.23,355.039 1822.19,1120.35 1825.15,677.326 1828.11,1012.49 1831.06,1159.57 1834.02,996.974 1836.98,697.017 1839.94,714.276 1842.9,421.559 1845.86,671.322 1848.81,700.326 1851.77,119.524 1854.73,849.598 1857.69,270.97 1860.65,679.684 1863.6,1194.71 1866.56,989.465 1869.52,1083.05 1872.48,971.623 1875.44,909.268 1878.39,811.496 1881.35,771.111 1884.31,1004.59 1887.27,1050.85 1890.23,112.129 1893.19,898.65 1896.14,256.197 1899.1,583.528 1902.06,990.267 1905.02,1056.48 1907.98,264.225 1910.93,1013.18 1913.89,283.794 1916.85,192.764 1919.81,540.15 1922.77,614.168 1925.72,465.741 1928.68,859.399 1931.64,860.757 1934.6,478.764 1937.56,266.007 1940.52,621.662 1943.47,410.008 1946.43,1194.57 1949.39,205.63 1952.35,495.662 1955.31,826.135 1958.26,732.966 1961.22,700.463 1964.18,377.532 1967.14,1107.67 1970.1,827.153 1973.05,109.981 1976.01,997.008 1978.97,947.699 1981.93,686.931 1984.89,711.899 1987.84,971.866 1990.8,1134.43 1993.76,684.251 1996.72,129.167 1999.68,80.8479 2002.64,668.391 2005.59,896.087 2008.55,512.32 2011.51,906.54 "/>
<path clip-path="url(#clip990)" d="M246.106 190.502 L486.673 190.502 L486.673 86.8219 L246.106 86.8219  Z" fill="#ffffff" fill-rule="evenodd" fill-opacity="1"/>
<polyline clip-path="url(#clip990)" style="stroke:#000000; stroke-linecap:round; stroke-linejoin:round; stroke-width:4; stroke-opacity:1; fill:none" points="246.106,190.502 486.673,190.502 486.673,86.8219 246.106,86.8219 246.106,190.502 "/>
<polyline clip-path="url(#clip990)" style="stroke:#009af9; stroke-linecap:round; stroke-linejoin:round; stroke-width:4; stroke-opacity:1; fill:none" points="267.01,138.662 392.434,138.662 "/>
<path clip-path="url(#clip990)" d="M427.181 158.349 Q425.375 162.979 423.662 164.391 Q421.949 165.803 419.079 165.803 L415.676 165.803 L415.676 162.238 L418.176 162.238 Q419.935 162.238 420.908 161.405 Q421.88 160.572 423.06 157.47 L423.824 155.525 L413.338 130.016 L417.852 130.016 L425.954 150.294 L434.056 130.016 L438.57 130.016 L427.181 158.349 Z" fill="#000000" fill-rule="nonzero" fill-opacity="1" /><path clip-path="url(#clip990)" d="M445.861 152.007 L453.5 152.007 L453.5 125.641 L445.19 127.308 L445.19 123.049 L453.454 121.382 L458.13 121.382 L458.13 152.007 L465.769 152.007 L465.769 155.942 L445.861 155.942 L445.861 152.007 Z" fill="#000000" fill-rule="nonzero" fill-opacity="1" /></svg>
