<?xml version="1.0" encoding="utf-8"?>
<svg xmlns="http://www.w3.org/2000/svg" xmlns:xlink="http://www.w3.org/1999/xlink" width="528" height="336" viewBox="0 0 2112 1344">
<defs>
  <clipPath id="clip370">
    <rect x="0" y="0" width="2112" height="1344"/>
  </clipPath>
</defs>
<path clip-path="url(#clip370)" d="M0 1344 L2112 1344 L2112 0 L0 0  Z" fill="#ffffff" fill-rule="evenodd" fill-opacity="1"/>
<defs>
  <clipPath id="clip371">
    <rect x="422" y="0" width="1479" height="1344"/>
  </clipPath>
</defs>
<path clip-path="url(#clip370)" d="M183.394 1234.58 L2064.76 1234.58 L2064.76 47.2441 L183.394 47.2441  Z" fill="#ffffff" fill-rule="evenodd" fill-opacity="1"/>
<defs>
  <clipPath id="clip372">
    <rect x="183" y="47" width="1882" height="1188"/>
  </clipPath>
</defs>
<polyline clip-path="url(#clip372)" style="stroke:#000000; stroke-linecap:round; stroke-linejoin:round; stroke-width:2; stroke-opacity:0.1; fill:none" points="236.64,1234.58 236.64,47.2441 "/>
<polyline clip-path="url(#clip372)" style="stroke:#000000; stroke-linecap:round; stroke-linejoin:round; stroke-width:2; stroke-opacity:0.1; fill:none" points="532.452,1234.58 532.452,47.2441 "/>
<polyline clip-path="url(#clip372)" style="stroke:#000000; stroke-linecap:round; stroke-linejoin:round; stroke-width:2; stroke-opacity:0.1; fill:none" points="828.263,1234.58 828.263,47.2441 "/>
<polyline clip-path="url(#clip372)" style="stroke:#000000; stroke-linecap:round; stroke-linejoin:round; stroke-width:2; stroke-opacity:0.1; fill:none" points="1124.07,1234.58 1124.07,47.2441 "/>
<polyline clip-path="url(#clip372)" style="stroke:#000000; stroke-linecap:round; stroke-linejoin:round; stroke-width:2; stroke-opacity:0.1; fill:none" points="1419.89,1234.58 1419.89,47.2441 "/>
<polyline clip-path="url(#clip372)" style="stroke:#000000; stroke-linecap:round; stroke-linejoin:round; stroke-width:2; stroke-opacity:0.1; fill:none" points="1715.7,1234.58 1715.7,47.2441 "/>
<polyline clip-path="url(#clip372)" style="stroke:#000000; stroke-linecap:round; stroke-linejoin:round; stroke-width:2; stroke-opacity:0.1; fill:none" points="2011.51,1234.58 2011.51,47.2441 "/>
<polyline clip-path="url(#clip370)" style="stroke:#000000; stroke-linecap:round; stroke-linejoin:round; stroke-width:4; stroke-opacity:1; fill:none" points="183.394,1234.58 2064.76,1234.58 "/>
<polyline clip-path="url(#clip370)" style="stroke:#000000; stroke-linecap:round; stroke-linejoin:round; stroke-width:4; stroke-opacity:1; fill:none" points="236.64,1234.58 236.64,1215.68 "/>
<polyline clip-path="url(#clip370)" style="stroke:#000000; stroke-linecap:round; stroke-linejoin:round; stroke-width:4; stroke-opacity:1; fill:none" points="532.452,1234.58 532.452,1215.68 "/>
<polyline clip-path="url(#clip370)" style="stroke:#000000; stroke-linecap:round; stroke-linejoin:round; stroke-width:4; stroke-opacity:1; fill:none" points="828.263,1234.58 828.263,1215.68 "/>
<polyline clip-path="url(#clip370)" style="stroke:#000000; stroke-linecap:round; stroke-linejoin:round; stroke-width:4; stroke-opacity:1; fill:none" points="1124.07,1234.58 1124.07,1215.68 "/>
<polyline clip-path="url(#clip370)" style="stroke:#000000; stroke-linecap:round; stroke-linejoin:round; stroke-width:4; stroke-opacity:1; fill:none" points="1419.89,1234.58 1419.89,1215.68 "/>
<polyline clip-path="url(#clip370)" style="stroke:#000000; stroke-linecap:round; stroke-linejoin:round; stroke-width:4; stroke-opacity:1; fill:none" points="1715.7,1234.58 1715.7,1215.68 "/>
<polyline clip-path="url(#clip370)" style="stroke:#000000; stroke-linecap:round; stroke-linejoin:round; stroke-width:4; stroke-opacity:1; fill:none" points="2011.51,1234.58 2011.51,1215.68 "/>
<path clip-path="url(#clip370)" d="M206.108 1277.85 L235.784 1277.85 L235.784 1281.78 L206.108 1281.78 L206.108 1277.85 Z" fill="#000000" fill-rule="nonzero" fill-opacity="1" /><path clip-path="url(#clip370)" d="M260.043 1276.04 Q263.399 1276.76 265.274 1279.03 Q267.172 1281.3 267.172 1284.63 Q267.172 1289.74 263.654 1292.55 Q260.135 1295.35 253.654 1295.35 Q251.478 1295.35 249.163 1294.91 Q246.872 1294.49 244.418 1293.63 L244.418 1289.12 Q246.362 1290.25 248.677 1290.83 Q250.992 1291.41 253.515 1291.41 Q257.913 1291.41 260.205 1289.67 Q262.52 1287.94 262.52 1284.63 Q262.52 1281.57 260.367 1279.86 Q258.237 1278.12 254.418 1278.12 L250.39 1278.12 L250.39 1274.28 L254.603 1274.28 Q258.052 1274.28 259.881 1272.92 Q261.709 1271.53 261.709 1268.93 Q261.709 1266.27 259.811 1264.86 Q257.936 1263.42 254.418 1263.42 Q252.496 1263.42 250.297 1263.84 Q248.098 1264.26 245.459 1265.14 L245.459 1260.97 Q248.122 1260.23 250.436 1259.86 Q252.774 1259.49 254.834 1259.49 Q260.158 1259.49 263.26 1261.92 Q266.362 1264.33 266.362 1268.45 Q266.362 1271.32 264.719 1273.31 Q263.075 1275.28 260.043 1276.04 Z" fill="#000000" fill-rule="nonzero" fill-opacity="1" /><path clip-path="url(#clip370)" d="M502.394 1277.85 L532.07 1277.85 L532.07 1281.78 L502.394 1281.78 L502.394 1277.85 Z" fill="#000000" fill-rule="nonzero" fill-opacity="1" /><path clip-path="url(#clip370)" d="M546.19 1290.74 L562.509 1290.74 L562.509 1294.67 L540.565 1294.67 L540.565 1290.74 Q543.227 1287.99 547.81 1283.36 Q552.417 1278.7 553.597 1277.36 Q555.843 1274.84 556.722 1273.1 Q557.625 1271.34 557.625 1269.65 Q557.625 1266.9 555.681 1265.16 Q553.759 1263.42 550.658 1263.42 Q548.459 1263.42 546.005 1264.19 Q543.574 1264.95 540.797 1266.5 L540.797 1261.78 Q543.621 1260.65 546.074 1260.07 Q548.528 1259.49 550.565 1259.49 Q555.935 1259.49 559.13 1262.17 Q562.324 1264.86 562.324 1269.35 Q562.324 1271.48 561.514 1273.4 Q560.727 1275.3 558.621 1277.89 Q558.042 1278.56 554.94 1281.78 Q551.838 1284.98 546.19 1290.74 Z" fill="#000000" fill-rule="nonzero" fill-opacity="1" /><path clip-path="url(#clip370)" d="M798.02 1277.85 L827.696 1277.85 L827.696 1281.78 L798.02 1281.78 L798.02 1277.85 Z" fill="#000000" fill-rule="nonzero" fill-opacity="1" /><path clip-path="url(#clip370)" d="M838.599 1290.74 L846.238 1290.74 L846.238 1264.37 L837.928 1266.04 L837.928 1261.78 L846.191 1260.11 L850.867 1260.11 L850.867 1290.74 L858.506 1290.74 L858.506 1294.67 L838.599 1294.67 L838.599 1290.74 Z" fill="#000000" fill-rule="nonzero" fill-opacity="1" /><path clip-path="url(#clip370)" d="M1124.07 1263.19 Q1120.46 1263.19 1118.64 1266.76 Q1116.83 1270.3 1116.83 1277.43 Q1116.83 1284.54 1118.64 1288.1 Q1120.46 1291.64 1124.07 1291.64 Q1127.71 1291.64 1129.51 1288.1 Q1131.34 1284.54 1131.34 1277.43 Q1131.34 1270.3 1129.51 1266.76 Q1127.71 1263.19 1124.07 1263.19 M1124.07 1259.49 Q1129.89 1259.49 1132.94 1264.1 Q1136.02 1268.68 1136.02 1277.43 Q1136.02 1286.16 1132.94 1290.76 Q1129.89 1295.35 1124.07 1295.35 Q1118.26 1295.35 1115.19 1290.76 Q1112.13 1286.16 1112.13 1277.43 Q1112.13 1268.68 1115.19 1264.1 Q1118.26 1259.49 1124.07 1259.49 Z" fill="#000000" fill-rule="nonzero" fill-opacity="1" /><path clip-path="url(#clip370)" d="M1410.27 1290.74 L1417.91 1290.74 L1417.91 1264.37 L1409.6 1266.04 L1409.6 1261.78 L1417.86 1260.11 L1422.54 1260.11 L1422.54 1290.74 L1430.18 1290.74 L1430.18 1294.67 L1410.27 1294.67 L1410.27 1290.74 Z" fill="#000000" fill-rule="nonzero" fill-opacity="1" /><path clip-path="url(#clip370)" d="M1710.35 1290.74 L1726.67 1290.74 L1726.67 1294.67 L1704.73 1294.67 L1704.73 1290.74 Q1707.39 1287.99 1711.97 1283.36 Q1716.58 1278.7 1717.76 1277.36 Q1720 1274.84 1720.88 1273.1 Q1721.79 1271.34 1721.79 1269.65 Q1721.79 1266.9 1719.84 1265.16 Q1717.92 1263.42 1714.82 1263.42 Q1712.62 1263.42 1710.17 1264.19 Q1707.74 1264.95 1704.96 1266.5 L1704.96 1261.78 Q1707.78 1260.65 1710.24 1260.07 Q1712.69 1259.49 1714.73 1259.49 Q1720.1 1259.49 1723.29 1262.17 Q1726.49 1264.86 1726.49 1269.35 Q1726.49 1271.48 1725.67 1273.4 Q1724.89 1275.3 1722.78 1277.89 Q1722.2 1278.56 1719.1 1281.78 Q1716 1284.98 1710.35 1290.74 Z" fill="#000000" fill-rule="nonzero" fill-opacity="1" /><path clip-path="url(#clip370)" d="M2015.76 1276.04 Q2019.11 1276.76 2020.99 1279.03 Q2022.89 1281.3 2022.89 1284.63 Q2022.89 1289.74 2019.37 1292.55 Q2015.85 1295.35 2009.37 1295.35 Q2007.19 1295.35 2004.88 1294.91 Q2002.59 1294.49 2000.13 1293.63 L2000.13 1289.12 Q2002.08 1290.25 2004.39 1290.83 Q2006.71 1291.41 2009.23 1291.41 Q2013.63 1291.41 2015.92 1289.67 Q2018.23 1287.94 2018.23 1284.63 Q2018.23 1281.57 2016.08 1279.86 Q2013.95 1278.12 2010.13 1278.12 L2006.1 1278.12 L2006.1 1274.28 L2010.32 1274.28 Q2013.77 1274.28 2015.6 1272.92 Q2017.42 1271.53 2017.42 1268.93 Q2017.42 1266.27 2015.53 1264.86 Q2013.65 1263.42 2010.13 1263.42 Q2008.21 1263.42 2006.01 1263.84 Q2003.81 1264.26 2001.17 1265.14 L2001.17 1260.97 Q2003.84 1260.23 2006.15 1259.86 Q2008.49 1259.49 2010.55 1259.49 Q2015.87 1259.49 2018.98 1261.92 Q2022.08 1264.33 2022.08 1268.45 Q2022.08 1271.32 2020.43 1273.31 Q2018.79 1275.28 2015.76 1276.04 Z" fill="#000000" fill-rule="nonzero" fill-opacity="1" /><polyline clip-path="url(#clip372)" style="stroke:#000000; stroke-linecap:round; stroke-linejoin:round; stroke-width:2; stroke-opacity:0.1; fill:none" points="183.394,1204.72 2064.76,1204.72 "/>
<polyline clip-path="url(#clip372)" style="stroke:#000000; stroke-linecap:round; stroke-linejoin:round; stroke-width:2; stroke-opacity:0.1; fill:none" points="183.394,923.639 2064.76,923.639 "/>
<polyline clip-path="url(#clip372)" style="stroke:#000000; stroke-linecap:round; stroke-linejoin:round; stroke-width:2; stroke-opacity:0.1; fill:none" points="183.394,642.563 2064.76,642.563 "/>
<polyline clip-path="url(#clip372)" style="stroke:#000000; stroke-linecap:round; stroke-linejoin:round; stroke-width:2; stroke-opacity:0.1; fill:none" points="183.394,361.487 2064.76,361.487 "/>
<polyline clip-path="url(#clip372)" style="stroke:#000000; stroke-linecap:round; stroke-linejoin:round; stroke-width:2; stroke-opacity:0.1; fill:none" points="183.394,80.4114 2064.76,80.4114 "/>
<polyline clip-path="url(#clip370)" style="stroke:#000000; stroke-linecap:round; stroke-linejoin:round; stroke-width:4; stroke-opacity:1; fill:none" points="183.394,1234.58 183.394,47.2441 "/>
<polyline clip-path="url(#clip370)" style="stroke:#000000; stroke-linecap:round; stroke-linejoin:round; stroke-width:4; stroke-opacity:1; fill:none" points="183.394,1204.72 202.292,1204.72 "/>
<polyline clip-path="url(#clip370)" style="stroke:#000000; stroke-linecap:round; stroke-linejoin:round; stroke-width:4; stroke-opacity:1; fill:none" points="183.394,923.639 202.292,923.639 "/>
<polyline clip-path="url(#clip370)" style="stroke:#000000; stroke-linecap:round; stroke-linejoin:round; stroke-width:4; stroke-opacity:1; fill:none" points="183.394,642.563 202.292,642.563 "/>
<polyline clip-path="url(#clip370)" style="stroke:#000000; stroke-linecap:round; stroke-linejoin:round; stroke-width:4; stroke-opacity:1; fill:none" points="183.394,361.487 202.292,361.487 "/>
<polyline clip-path="url(#clip370)" style="stroke:#000000; stroke-linecap:round; stroke-linejoin:round; stroke-width:4; stroke-opacity:1; fill:none" points="183.394,80.4114 202.292,80.4114 "/>
<path clip-path="url(#clip370)" d="M64.3765 1190.51 Q60.7654 1190.51 58.9367 1194.08 Q57.1312 1197.62 57.1312 1204.75 Q57.1312 1211.86 58.9367 1215.42 Q60.7654 1218.96 64.3765 1218.96 Q68.0107 1218.96 69.8163 1215.42 Q71.645 1211.86 71.645 1204.75 Q71.645 1197.62 69.8163 1194.08 Q68.0107 1190.51 64.3765 1190.51 M64.3765 1186.81 Q70.1867 1186.81 73.2422 1191.42 Q76.3209 1196 76.3209 1204.75 Q76.3209 1213.48 73.2422 1218.08 Q70.1867 1222.67 64.3765 1222.67 Q58.5664 1222.67 55.4877 1218.08 Q52.4321 1213.48 52.4321 1204.75 Q52.4321 1196 55.4877 1191.42 Q58.5664 1186.81 64.3765 1186.81 Z" fill="#000000" fill-rule="nonzero" fill-opacity="1" /><path clip-path="url(#clip370)" d="M84.5384 1216.12 L89.4227 1216.12 L89.4227 1222 L84.5384 1222 L84.5384 1216.12 Z" fill="#000000" fill-rule="nonzero" fill-opacity="1" /><path clip-path="url(#clip370)" d="M109.608 1190.51 Q105.997 1190.51 104.168 1194.08 Q102.362 1197.62 102.362 1204.75 Q102.362 1211.86 104.168 1215.42 Q105.997 1218.96 109.608 1218.96 Q113.242 1218.96 115.048 1215.42 Q116.876 1211.86 116.876 1204.75 Q116.876 1197.62 115.048 1194.08 Q113.242 1190.51 109.608 1190.51 M109.608 1186.81 Q115.418 1186.81 118.473 1191.42 Q121.552 1196 121.552 1204.75 Q121.552 1213.48 118.473 1218.08 Q115.418 1222.67 109.608 1222.67 Q103.798 1222.67 100.719 1218.08 Q97.6634 1213.48 97.6634 1204.75 Q97.6634 1196 100.719 1191.42 Q103.798 1186.81 109.608 1186.81 Z" fill="#000000" fill-rule="nonzero" fill-opacity="1" /><path clip-path="url(#clip370)" d="M139.77 1190.51 Q136.159 1190.51 134.33 1194.08 Q132.524 1197.62 132.524 1204.75 Q132.524 1211.86 134.33 1215.42 Q136.159 1218.96 139.77 1218.96 Q143.404 1218.96 145.209 1215.42 Q147.038 1211.86 147.038 1204.75 Q147.038 1197.62 145.209 1194.08 Q143.404 1190.51 139.77 1190.51 M139.77 1186.81 Q145.58 1186.81 148.635 1191.42 Q151.714 1196 151.714 1204.75 Q151.714 1213.48 148.635 1218.08 Q145.58 1222.67 139.77 1222.67 Q133.959 1222.67 130.881 1218.08 Q127.825 1213.48 127.825 1204.75 Q127.825 1196 130.881 1191.42 Q133.959 1186.81 139.77 1186.81 Z" fill="#000000" fill-rule="nonzero" fill-opacity="1" /><path clip-path="url(#clip370)" d="M65.3719 909.438 Q61.7608 909.438 59.9321 913.003 Q58.1265 916.545 58.1265 923.674 Q58.1265 930.781 59.9321 934.345 Q61.7608 937.887 65.3719 937.887 Q69.0061 937.887 70.8117 934.345 Q72.6404 930.781 72.6404 923.674 Q72.6404 916.545 70.8117 913.003 Q69.0061 909.438 65.3719 909.438 M65.3719 905.734 Q71.182 905.734 74.2376 910.341 Q77.3163 914.924 77.3163 923.674 Q77.3163 932.401 74.2376 937.007 Q71.182 941.591 65.3719 941.591 Q59.5617 941.591 56.483 937.007 Q53.4275 932.401 53.4275 923.674 Q53.4275 914.924 56.483 910.341 Q59.5617 905.734 65.3719 905.734 Z" fill="#000000" fill-rule="nonzero" fill-opacity="1" /><path clip-path="url(#clip370)" d="M85.5338 935.04 L90.418 935.04 L90.418 940.919 L85.5338 940.919 L85.5338 935.04 Z" fill="#000000" fill-rule="nonzero" fill-opacity="1" /><path clip-path="url(#clip370)" d="M104.631 936.984 L120.95 936.984 L120.95 940.919 L99.006 940.919 L99.006 936.984 Q101.668 934.23 106.251 929.6 Q110.858 924.947 112.038 923.605 Q114.284 921.082 115.163 919.345 Q116.066 917.586 116.066 915.896 Q116.066 913.142 114.122 911.406 Q112.2 909.67 109.098 909.67 Q106.899 909.67 104.446 910.433 Q102.015 911.197 99.2374 912.748 L99.2374 908.026 Q102.061 906.892 104.515 906.313 Q106.969 905.734 109.006 905.734 Q114.376 905.734 117.571 908.42 Q120.765 911.105 120.765 915.595 Q120.765 917.725 119.955 919.646 Q119.168 921.544 117.061 924.137 Q116.483 924.808 113.381 928.026 Q110.279 931.22 104.631 936.984 Z" fill="#000000" fill-rule="nonzero" fill-opacity="1" /><path clip-path="url(#clip370)" d="M130.811 906.359 L149.168 906.359 L149.168 910.295 L135.094 910.295 L135.094 918.767 Q136.112 918.42 137.131 918.257 Q138.149 918.072 139.168 918.072 Q144.955 918.072 148.334 921.244 Q151.714 924.415 151.714 929.831 Q151.714 935.41 148.242 938.512 Q144.77 941.591 138.45 941.591 Q136.274 941.591 134.006 941.22 Q131.76 940.85 129.353 940.109 L129.353 935.41 Q131.436 936.544 133.659 937.1 Q135.881 937.656 138.358 937.656 Q142.362 937.656 144.7 935.549 Q147.038 933.443 147.038 929.831 Q147.038 926.22 144.7 924.114 Q142.362 922.007 138.358 922.007 Q136.483 922.007 134.608 922.424 Q132.756 922.841 130.811 923.72 L130.811 906.359 Z" fill="#000000" fill-rule="nonzero" fill-opacity="1" /><path clip-path="url(#clip370)" d="M64.3765 628.362 Q60.7654 628.362 58.9367 631.927 Q57.1312 635.469 57.1312 642.598 Q57.1312 649.705 58.9367 653.269 Q60.7654 656.811 64.3765 656.811 Q68.0107 656.811 69.8163 653.269 Q71.645 649.705 71.645 642.598 Q71.645 635.469 69.8163 631.927 Q68.0107 628.362 64.3765 628.362 M64.3765 624.658 Q70.1867 624.658 73.2422 629.265 Q76.3209 633.848 76.3209 642.598 Q76.3209 651.325 73.2422 655.931 Q70.1867 660.515 64.3765 660.515 Q58.5664 660.515 55.4877 655.931 Q52.4321 651.325 52.4321 642.598 Q52.4321 633.848 55.4877 629.265 Q58.5664 624.658 64.3765 624.658 Z" fill="#000000" fill-rule="nonzero" fill-opacity="1" /><path clip-path="url(#clip370)" d="M84.5384 653.964 L89.4227 653.964 L89.4227 659.843 L84.5384 659.843 L84.5384 653.964 Z" fill="#000000" fill-rule="nonzero" fill-opacity="1" /><path clip-path="url(#clip370)" d="M99.6541 625.283 L118.01 625.283 L118.01 629.219 L103.936 629.219 L103.936 637.691 Q104.955 637.344 105.974 637.181 Q106.992 636.996 108.011 636.996 Q113.798 636.996 117.177 640.168 Q120.557 643.339 120.557 648.755 Q120.557 654.334 117.085 657.436 Q113.612 660.515 107.293 660.515 Q105.117 660.515 102.849 660.144 Q100.603 659.774 98.1958 659.033 L98.1958 654.334 Q100.279 655.468 102.501 656.024 Q104.724 656.58 107.2 656.58 Q111.205 656.58 113.543 654.473 Q115.881 652.367 115.881 648.755 Q115.881 645.144 113.543 643.038 Q111.205 640.931 107.2 640.931 Q105.325 640.931 103.45 641.348 Q101.599 641.765 99.6541 642.644 L99.6541 625.283 Z" fill="#000000" fill-rule="nonzero" fill-opacity="1" /><path clip-path="url(#clip370)" d="M139.77 628.362 Q136.159 628.362 134.33 631.927 Q132.524 635.469 132.524 642.598 Q132.524 649.705 134.33 653.269 Q136.159 656.811 139.77 656.811 Q143.404 656.811 145.209 653.269 Q147.038 649.705 147.038 642.598 Q147.038 635.469 145.209 631.927 Q143.404 628.362 139.77 628.362 M139.77 624.658 Q145.58 624.658 148.635 629.265 Q151.714 633.848 151.714 642.598 Q151.714 651.325 148.635 655.931 Q145.58 660.515 139.77 660.515 Q133.959 660.515 130.881 655.931 Q127.825 651.325 127.825 642.598 Q127.825 633.848 130.881 629.265 Q133.959 624.658 139.77 624.658 Z" fill="#000000" fill-rule="nonzero" fill-opacity="1" /><path clip-path="url(#clip370)" d="M65.3719 347.286 Q61.7608 347.286 59.9321 350.851 Q58.1265 354.393 58.1265 361.522 Q58.1265 368.629 59.9321 372.193 Q61.7608 375.735 65.3719 375.735 Q69.0061 375.735 70.8117 372.193 Q72.6404 368.629 72.6404 361.522 Q72.6404 354.393 70.8117 350.851 Q69.0061 347.286 65.3719 347.286 M65.3719 343.582 Q71.182 343.582 74.2376 348.189 Q77.3163 352.772 77.3163 361.522 Q77.3163 370.249 74.2376 374.855 Q71.182 379.439 65.3719 379.439 Q59.5617 379.439 56.483 374.855 Q53.4275 370.249 53.4275 361.522 Q53.4275 352.772 56.483 348.189 Q59.5617 343.582 65.3719 343.582 Z" fill="#000000" fill-rule="nonzero" fill-opacity="1" /><path clip-path="url(#clip370)" d="M85.5338 372.888 L90.418 372.888 L90.418 378.767 L85.5338 378.767 L85.5338 372.888 Z" fill="#000000" fill-rule="nonzero" fill-opacity="1" /><path clip-path="url(#clip370)" d="M99.4226 344.207 L121.645 344.207 L121.645 346.198 L109.098 378.767 L104.214 378.767 L116.02 348.143 L99.4226 348.143 L99.4226 344.207 Z" fill="#000000" fill-rule="nonzero" fill-opacity="1" /><path clip-path="url(#clip370)" d="M130.811 344.207 L149.168 344.207 L149.168 348.143 L135.094 348.143 L135.094 356.615 Q136.112 356.268 137.131 356.105 Q138.149 355.92 139.168 355.92 Q144.955 355.92 148.334 359.092 Q151.714 362.263 151.714 367.679 Q151.714 373.258 148.242 376.36 Q144.77 379.439 138.45 379.439 Q136.274 379.439 134.006 379.068 Q131.76 378.698 129.353 377.957 L129.353 373.258 Q131.436 374.392 133.659 374.948 Q135.881 375.504 138.358 375.504 Q142.362 375.504 144.7 373.397 Q147.038 371.291 147.038 367.679 Q147.038 364.068 144.7 361.962 Q142.362 359.855 138.358 359.855 Q136.483 359.855 134.608 360.272 Q132.756 360.689 130.811 361.568 L130.811 344.207 Z" fill="#000000" fill-rule="nonzero" fill-opacity="1" /><path clip-path="url(#clip370)" d="M55.1867 93.7562 L62.8256 93.7562 L62.8256 67.3906 L54.5154 69.0573 L54.5154 64.798 L62.7793 63.1314 L67.4552 63.1314 L67.4552 93.7562 L75.094 93.7562 L75.094 97.6914 L55.1867 97.6914 L55.1867 93.7562 Z" fill="#000000" fill-rule="nonzero" fill-opacity="1" /><path clip-path="url(#clip370)" d="M84.5384 91.8118 L89.4227 91.8118 L89.4227 97.6914 L84.5384 97.6914 L84.5384 91.8118 Z" fill="#000000" fill-rule="nonzero" fill-opacity="1" /><path clip-path="url(#clip370)" d="M109.608 66.2101 Q105.997 66.2101 104.168 69.7749 Q102.362 73.3165 102.362 80.4461 Q102.362 87.5526 104.168 91.1173 Q105.997 94.659 109.608 94.659 Q113.242 94.659 115.048 91.1173 Q116.876 87.5526 116.876 80.4461 Q116.876 73.3165 115.048 69.7749 Q113.242 66.2101 109.608 66.2101 M109.608 62.5064 Q115.418 62.5064 118.473 67.1128 Q121.552 71.6962 121.552 80.4461 Q121.552 89.1729 118.473 93.7794 Q115.418 98.3627 109.608 98.3627 Q103.798 98.3627 100.719 93.7794 Q97.6634 89.1729 97.6634 80.4461 Q97.6634 71.6962 100.719 67.1128 Q103.798 62.5064 109.608 62.5064 Z" fill="#000000" fill-rule="nonzero" fill-opacity="1" /><path clip-path="url(#clip370)" d="M139.77 66.2101 Q136.159 66.2101 134.33 69.7749 Q132.524 73.3165 132.524 80.4461 Q132.524 87.5526 134.33 91.1173 Q136.159 94.659 139.77 94.659 Q143.404 94.659 145.209 91.1173 Q147.038 87.5526 147.038 80.4461 Q147.038 73.3165 145.209 69.7749 Q143.404 66.2101 139.77 66.2101 M139.77 62.5064 Q145.58 62.5064 148.635 67.1128 Q151.714 71.6962 151.714 80.4461 Q151.714 89.1729 148.635 93.7794 Q145.58 98.3627 139.77 98.3627 Q133.959 98.3627 130.881 93.7794 Q127.825 89.1729 127.825 80.4461 Q127.825 71.6962 130.881 67.1128 Q133.959 62.5064 139.77 62.5064 Z" fill="#000000" fill-rule="nonzero" fill-opacity="1" /><polyline clip-path="url(#clip372)" style="stroke:#009af9; stroke-linecap:round; stroke-linejoin:round; stroke-width:4; stroke-opacity:1; fill:none" points="236.64,315.901 239.598,538.026 242.556,131.659 245.514,462.901 248.473,642.076 251.431,813.313 254.389,449.179 257.347,778.151 260.305,172.485 263.263,962.903 266.221,788.281 269.179,691.996 272.137,719.601 275.096,1006.07 278.054,1113.84 281.012,431.059 283.97,861.593 286.928,1190.05 289.886,1013.84 292.844,642.989 295.802,127.187 298.761,211.862 301.719,119.001 304.677,1177.83 307.635,712.371 310.593,293.568 313.551,920.399 316.509,264.672 319.467,900.14 322.425,140.472 325.384,1176.83 328.342,415.535 331.3,704.185 334.258,899.818 337.216,637.522 340.174,166.844 343.132,811.343 346.09,656.206 349.049,395.801 352.007,535.709 354.965,1099.42 357.923,498.532 360.881,808.006 363.839,849.943 366.797,160.231 369.755,283.118 372.713,784.209 375.672,484.517 378.63,753.383 381.588,501.78 384.546,430.917 387.504,925.442 390.462,793.975 393.42,1024.29 396.378,388.598 399.336,953.317 402.295,173.673 405.253,703.943 408.211,960.712 411.169,344.678 414.127,82.814 417.085,977.983 420.043,665.049 423.001,307.345 425.96,869.477 428.918,940.447 431.876,547.394 434.834,824.204 437.792,1196.93 440.75,897.309 443.708,463.429 446.666,198.868 449.624,490.253 452.583,1109.37 455.541,597.207 458.499,1057.09 461.457,524.81 464.415,424.654 467.373,964.37 470.331,851.012 473.289,808.08 476.248,691.901 479.206,680.266 482.164,1027.05 485.122,602.189 488.08,1041.08 491.038,870.052 493.996,404.165 496.954,455.444 499.912,750.044 502.871,134.983 505.829,459.884 508.787,736.588 511.745,319.78 514.703,842.548 517.661,707.34 520.619,969.289 523.577,133.694 526.535,731.26 529.494,692.119 532.452,940.239 535.41,916.423 538.368,1139.78 541.326,750.182 544.284,614.32 547.242,293.219 550.2,929.005 553.159,919.569 556.117,754.28 559.075,794.733 562.033,996.008 564.991,747.776 567.949,791.496 570.907,1125.64 573.865,684.979 576.823,560.53 579.782,942.687 582.74,713.98 585.698,1076.07 588.656,591.841 591.614,1080.36 594.572,95.048 597.53,792.679 600.488,379.206 603.447,881.736 606.405,758.497 609.363,1115.65 612.321,664.058 615.279,1162.71 618.237,370.598 621.195,163.662 624.153,209.401 627.111,698.342 630.07,1105.07 633.028,1164.84 635.986,547.394 638.944,1168.64 641.902,128.288 644.86,677.958 647.818,447.021 650.776,257.283 653.734,94.5512 656.693,302.703 659.651,926.802 662.609,743.9 665.567,656.795 668.525,700.103 671.483,89.352 674.441,566.137 677.399,1171.44 680.358,171.219 683.316,1031.01 686.274,107.764 689.232,931.459 692.19,603.763 695.148,189.735 698.106,643.098 701.064,606.447 704.022,830.85 706.981,1015.17 709.939,813.646 712.897,739.526 715.855,475.277 718.813,1195.03 721.771,457.185 724.729,193.722 727.687,602.805 730.645,609.558 733.604,605.256 736.562,141.101 739.52,938.897 742.478,816.239 745.436,422.533 748.394,798.759 751.352,1115.06 754.31,251.841 757.269,524.9 760.227,391.913 763.185,1166.21 766.143,969.229 769.101,383.588 772.059,369.562 775.017,535.392 777.975,1174.48 780.933,718.214 783.892,971.175 786.85,446.268 789.808,580.607 792.766,219.303 795.724,1098.34 798.682,884.419 801.64,918.994 804.598,1177.29 807.557,755.088 810.515,879.268 813.473,1013.24 816.431,767.645 819.389,134.082 822.347,919.024 825.305,1167.41 828.263,895.75 831.221,192.514 834.18,768.18 837.138,1045.22 840.096,560.894 843.054,266.108 846.012,1149.01 848.97,946.216 851.928,899.268 854.886,1183.17 857.844,418.758 860.803,1168.11 863.761,251.736 866.719,253.071 869.677,1160.78 872.635,402.891 875.593,588.745 878.551,1127.03 881.509,976.978 884.468,427.829 887.426,1141.24 890.384,375.202 893.342,390.604 896.3,349.225 899.258,601.633 902.216,392.483 905.174,737.616 908.132,1145.75 911.091,1129.98 914.049,1055.83 917.007,213.268 919.965,1157.42 922.923,540.922 925.881,757.338 928.839,465.425 931.797,545.225 934.756,592.813 937.714,1112.57 940.672,677.242 943.63,1112.68 946.588,85.6361 949.546,216.851 952.504,356.405 955.462,570.314 958.42,1142.49 961.379,742.611 964.337,794.684 967.295,1137.71 970.253,974.208 973.211,378.621 976.169,750.617 979.127,467.099 982.085,189.095 985.043,432.178 988.002,897.987 990.96,1186.13 993.918,1176.21 996.876,491.312 999.834,225.314 1002.79,470.046 1005.75,233.927 1008.71,810.085 1011.67,969.951 1014.62,435.669 1017.58,190.479 1020.54,280.821 1023.5,609.248 1026.46,580.807 1029.42,1065.4 1032.37,808.008 1035.33,501.22 1038.29,1111.04 1041.25,572.823 1044.21,125.798 1047.16,1086.26 1050.12,901.819 1053.08,798.296 1056.04,472.551 1059,88.2314 1061.95,1196.91 1064.91,1131.87 1067.87,391.364 1070.83,588.275 1073.79,221.559 1076.75,218.895 1079.7,657.09 1082.66,1138.13 1085.62,1127.45 1088.58,363.621 1091.54,804.517 1094.49,995.82 1097.45,1080.12 1100.41,599.654 1103.37,1093.15 1106.33,1006.43 1109.28,566.519 1112.24,284.869 1115.2,160.767 1118.16,859.538 1121.12,1095.02 1124.07,966.885 1127.03,332.866 1129.99,524.651 1132.95,407.035 1135.91,292.524 1138.87,466.885 1141.82,566.983 1144.78,893.419 1147.74,1186.5 1150.7,728.571 1153.66,358.988 1156.61,769.757 1159.57,904.6 1162.53,465.229 1165.49,492.083 1168.45,577.004 1171.4,930.135 1174.36,546.098 1177.32,919.605 1180.28,1038.15 1183.24,285.784 1186.2,612.908 1189.15,397.636 1192.11,1135.5 1195.07,352.381 1198.03,360.367 1200.99,700.05 1203.94,729.843 1206.9,396.15 1209.86,212.959 1212.82,1193.32 1215.78,1137.01 1218.73,382.794 1221.69,352.564 1224.65,1179.11 1227.61,219.028 1230.57,168.663 1233.53,296.67 1236.48,540.146 1239.44,675.835 1242.4,261.458 1245.36,949.443 1248.32,725.129 1251.27,980.469 1254.23,206.364 1257.19,590.136 1260.15,260.858 1263.11,971.923 1266.06,1091.39 1269.02,306.334 1271.98,1151.71 1274.94,466.405 1277.9,372.195 1280.86,440.666 1283.81,194.537 1286.77,712.38 1289.73,1168.79 1292.69,1025.69 1295.65,262.906 1298.6,812.945 1301.56,683.521 1304.52,754.914 1307.48,395.981 1310.44,750.46 1313.39,907.89 1316.35,80.8479 1319.31,917.716 1322.27,781.035 1325.23,977.085 1328.18,249.813 1331.14,822.497 1334.1,642.366 1337.06,677.493 1340.02,487.52 1342.98,936.197 1345.93,944.543 1348.89,1030.46 1351.85,607.843 1354.81,670.457 1357.77,692.682 1360.72,203.572 1363.68,861.444 1366.64,411.829 1369.6,976.896 1372.56,1170.93 1375.51,845.511 1378.47,467.153 1381.43,661.978 1384.39,1084.57 1387.35,83.3659 1390.31,855.672 1393.26,551.5 1396.22,244.436 1399.18,210.15 1402.14,1017.19 1405.1,768.685 1408.05,205.23 1411.01,205.573 1413.97,400.033 1416.93,1197 1419.89,957.815 1422.84,538.085 1425.8,511.628 1428.76,491.346 1431.72,312.339 1434.68,296.592 1437.64,719.549 1440.59,821.202 1443.55,304.872 1446.51,933.423 1449.47,325.892 1452.43,865.641 1455.38,809.175 1458.34,222.829 1461.3,735.503 1464.26,1133.57 1467.22,961.28 1470.17,702.503 1473.13,856.541 1476.09,162.176 1479.05,497.121 1482.01,195.239 1484.97,652.306 1487.92,1127.87 1490.88,826.319 1493.84,850.586 1496.8,370.525 1499.76,754.084 1502.71,361.6 1505.67,966.808 1508.63,1168.01 1511.59,696.66 1514.55,118.373 1517.5,388.844 1520.46,888.96 1523.42,810.526 1526.38,750.715 1529.34,453.679 1532.29,713.192 1535.25,912.853 1538.21,104.615 1541.17,1025.34 1544.13,666.961 1547.09,609.15 1550.04,341.613 1553,1080.98 1555.96,751.731 1558.92,211.474 1561.88,1127.03 1564.83,686.957 1567.79,939.563 1570.75,529.243 1573.71,1039.9 1576.67,963.356 1579.62,166.179 1582.58,1107.77 1585.54,898.108 1588.5,930.863 1591.46,1107.49 1594.42,465.993 1597.37,542.714 1600.33,1067.3 1603.29,1043.19 1606.25,529.46 1609.21,802.213 1612.16,751.291 1615.12,277.305 1618.08,724.649 1621.04,532.053 1624,871.958 1626.95,946.33 1629.91,252.084 1632.87,543.404 1635.83,600.902 1638.79,87.669 1641.75,477.527 1644.7,1045.03 1647.66,470.604 1650.62,438.352 1653.58,771.502 1656.54,303.312 1659.49,173.698 1662.45,384.877 1665.41,470.915 1668.37,723.286 1671.33,1131.92 1674.28,706.085 1677.24,598.021 1680.2,781.929 1683.16,489.015 1686.12,909.609 1689.08,668.545 1692.03,907.788 1694.99,554.699 1697.95,624.392 1700.91,206.005 1703.87,649.494 1706.82,372.935 1709.78,636.848 1712.74,696.695 1715.7,862.519 1718.66,352.876 1721.61,526.399 1724.57,847.242 1727.53,104.291 1730.49,737.118 1733.45,933.08 1736.41,328.881 1739.36,126.797 1742.32,109.705 1745.28,161.668 1748.24,1012.29 1751.2,308.601 1754.15,1200.97 1757.11,713.204 1760.07,336.101 1763.03,710.555 1765.99,1184.26 1768.94,127.825 1771.9,872.546 1774.86,602.962 1777.82,1147.24 1780.78,302.919 1783.73,889.188 1786.69,177.855 1789.65,843.001 1792.61,463.627 1795.57,615.441 1798.53,786.135 1801.48,435.289 1804.44,120.39 1807.4,843.483 1810.36,612.274 1813.32,1054.52 1816.27,770.947 1819.23,370.46 1822.19,608.252 1825.15,202.472 1828.11,497.37 1831.06,263.193 1834.02,1008.61 1836.98,125.492 1839.94,965.814 1842.9,1154.78 1845.86,965.5 1848.81,518.444 1851.77,117.907 1854.73,649.904 1857.69,888.877 1860.65,681.2 1863.6,946.934 1866.56,501.945 1869.52,938.257 1872.48,329.507 1875.44,796.3 1878.39,482.45 1881.35,1155.1 1884.31,586.037 1887.27,1004.72 1890.23,754.297 1893.19,438.526 1896.14,783.643 1899.1,880.462 1902.06,1044.49 1905.02,109.084 1907.98,357.095 1910.93,135.496 1913.89,879.539 1916.85,815.493 1919.81,1091.96 1922.77,979.588 1925.72,1015.47 1928.68,866.152 1931.64,752.484 1934.6,132.945 1937.56,1141.16 1940.52,900.136 1943.47,1157.87 1946.43,609.44 1949.39,118.832 1952.35,607.668 1955.31,1030.76 1958.26,83.6569 1961.22,1148.43 1964.18,206.77 1967.14,275.486 1970.1,665.829 1973.05,480.497 1976.01,726.235 1978.97,743.016 1981.93,848.836 1984.89,219.668 1987.84,265.914 1990.8,481.72 1993.76,925.326 1996.72,316.728 1999.68,591.072 2002.64,830.632 2005.59,922.864 2008.55,885.607 2011.51,1047.9 "/>
<path clip-path="url(#clip370)" d="M1761.48 1195 L2002.04 1195 L2002.04 1091.32 L1761.48 1091.32  Z" fill="#ffffff" fill-rule="evenodd" fill-opacity="1"/>
<polyline clip-path="url(#clip370)" style="stroke:#000000; stroke-linecap:round; stroke-linejoin:round; stroke-width:4; stroke-opacity:1; fill:none" points="1761.48,1195 2002.04,1195 2002.04,1091.32 1761.48,1091.32 1761.48,1195 "/>
<polyline clip-path="url(#clip370)" style="stroke:#009af9; stroke-linecap:round; stroke-linejoin:round; stroke-width:4; stroke-opacity:1; fill:none" points="1782.38,1143.16 1907.81,1143.16 "/>
<path clip-path="url(#clip370)" d="M1942.55 1162.85 Q1940.75 1167.48 1939.03 1168.89 Q1937.32 1170.3 1934.45 1170.3 L1931.05 1170.3 L1931.05 1166.74 L1933.55 1166.74 Q1935.31 1166.74 1936.28 1165.9 Q1937.25 1165.07 1938.43 1161.97 L1939.2 1160.02 L1928.71 1134.52 L1933.22 1134.52 L1941.33 1154.79 L1949.43 1134.52 L1953.94 1134.52 L1942.55 1162.85 Z" fill="#000000" fill-rule="nonzero" fill-opacity="1" /><path clip-path="url(#clip370)" d="M1961.23 1156.51 L1968.87 1156.51 L1968.87 1130.14 L1960.56 1131.81 L1960.56 1127.55 L1968.83 1125.88 L1973.5 1125.88 L1973.5 1156.51 L1981.14 1156.51 L1981.14 1160.44 L1961.23 1160.44 L1961.23 1156.51 Z" fill="#000000" fill-rule="nonzero" fill-opacity="1" /></svg>
