<?xml version="1.0" encoding="utf-8"?>
<svg xmlns="http://www.w3.org/2000/svg" xmlns:xlink="http://www.w3.org/1999/xlink" width="528" height="336" viewBox="0 0 2112 1344">
<defs>
  <clipPath id="clip480">
    <rect x="0" y="0" width="2112" height="1344"/>
  </clipPath>
</defs>
<path clip-path="url(#clip480)" d="M0 1344 L2112 1344 L2112 0 L0 0  Z" fill="#ffffff" fill-rule="evenodd" fill-opacity="1"/>
<defs>
  <clipPath id="clip481">
    <rect x="422" y="0" width="1479" height="1344"/>
  </clipPath>
</defs>
<path clip-path="url(#clip480)" d="M167.977 1234.58 L2064.76 1234.58 L2064.76 47.2441 L167.977 47.2441  Z" fill="#ffffff" fill-rule="evenodd" fill-opacity="1"/>
<defs>
  <clipPath id="clip482">
    <rect x="167" y="47" width="1898" height="1188"/>
  </clipPath>
</defs>
<polyline clip-path="url(#clip482)" style="stroke:#000000; stroke-linecap:round; stroke-linejoin:round; stroke-width:2; stroke-opacity:0.1; fill:none" points="221.66,1234.58 221.66,47.2441 "/>
<polyline clip-path="url(#clip482)" style="stroke:#000000; stroke-linecap:round; stroke-linejoin:round; stroke-width:2; stroke-opacity:0.1; fill:none" points="519.895,1234.58 519.895,47.2441 "/>
<polyline clip-path="url(#clip482)" style="stroke:#000000; stroke-linecap:round; stroke-linejoin:round; stroke-width:2; stroke-opacity:0.1; fill:none" points="818.131,1234.58 818.131,47.2441 "/>
<polyline clip-path="url(#clip482)" style="stroke:#000000; stroke-linecap:round; stroke-linejoin:round; stroke-width:2; stroke-opacity:0.1; fill:none" points="1116.37,1234.58 1116.37,47.2441 "/>
<polyline clip-path="url(#clip482)" style="stroke:#000000; stroke-linecap:round; stroke-linejoin:round; stroke-width:2; stroke-opacity:0.1; fill:none" points="1414.6,1234.58 1414.6,47.2441 "/>
<polyline clip-path="url(#clip482)" style="stroke:#000000; stroke-linecap:round; stroke-linejoin:round; stroke-width:2; stroke-opacity:0.1; fill:none" points="1712.84,1234.58 1712.84,47.2441 "/>
<polyline clip-path="url(#clip482)" style="stroke:#000000; stroke-linecap:round; stroke-linejoin:round; stroke-width:2; stroke-opacity:0.1; fill:none" points="2011.07,1234.58 2011.07,47.2441 "/>
<polyline clip-path="url(#clip480)" style="stroke:#000000; stroke-linecap:round; stroke-linejoin:round; stroke-width:4; stroke-opacity:1; fill:none" points="167.977,1234.58 2064.76,1234.58 "/>
<polyline clip-path="url(#clip480)" style="stroke:#000000; stroke-linecap:round; stroke-linejoin:round; stroke-width:4; stroke-opacity:1; fill:none" points="221.66,1234.58 221.66,1215.68 "/>
<polyline clip-path="url(#clip480)" style="stroke:#000000; stroke-linecap:round; stroke-linejoin:round; stroke-width:4; stroke-opacity:1; fill:none" points="519.895,1234.58 519.895,1215.68 "/>
<polyline clip-path="url(#clip480)" style="stroke:#000000; stroke-linecap:round; stroke-linejoin:round; stroke-width:4; stroke-opacity:1; fill:none" points="818.131,1234.58 818.131,1215.68 "/>
<polyline clip-path="url(#clip480)" style="stroke:#000000; stroke-linecap:round; stroke-linejoin:round; stroke-width:4; stroke-opacity:1; fill:none" points="1116.37,1234.58 1116.37,1215.68 "/>
<polyline clip-path="url(#clip480)" style="stroke:#000000; stroke-linecap:round; stroke-linejoin:round; stroke-width:4; stroke-opacity:1; fill:none" points="1414.6,1234.58 1414.6,1215.68 "/>
<polyline clip-path="url(#clip480)" style="stroke:#000000; stroke-linecap:round; stroke-linejoin:round; stroke-width:4; stroke-opacity:1; fill:none" points="1712.84,1234.58 1712.84,1215.68 "/>
<polyline clip-path="url(#clip480)" style="stroke:#000000; stroke-linecap:round; stroke-linejoin:round; stroke-width:4; stroke-opacity:1; fill:none" points="2011.07,1234.58 2011.07,1215.68 "/>
<path clip-path="url(#clip480)" d="M191.128 1277.85 L220.803 1277.85 L220.803 1281.78 L191.128 1281.78 L191.128 1277.85 Z" fill="#000000" fill-rule="nonzero" fill-opacity="1" /><path clip-path="url(#clip480)" d="M245.062 1276.04 Q248.419 1276.76 250.294 1279.03 Q252.192 1281.3 252.192 1284.63 Q252.192 1289.74 248.674 1292.55 Q245.155 1295.35 238.674 1295.35 Q236.498 1295.35 234.183 1294.91 Q231.891 1294.49 229.438 1293.63 L229.438 1289.12 Q231.382 1290.25 233.697 1290.83 Q236.012 1291.41 238.535 1291.41 Q242.933 1291.41 245.225 1289.67 Q247.539 1287.94 247.539 1284.63 Q247.539 1281.57 245.387 1279.86 Q243.257 1278.12 239.438 1278.12 L235.41 1278.12 L235.41 1274.28 L239.623 1274.28 Q243.072 1274.28 244.9 1272.92 Q246.729 1271.53 246.729 1268.93 Q246.729 1266.27 244.831 1264.86 Q242.956 1263.42 239.438 1263.42 Q237.516 1263.42 235.317 1263.84 Q233.118 1264.26 230.479 1265.14 L230.479 1260.97 Q233.141 1260.23 235.456 1259.86 Q237.794 1259.49 239.854 1259.49 Q245.178 1259.49 248.28 1261.92 Q251.382 1264.33 251.382 1268.45 Q251.382 1271.32 249.738 1273.31 Q248.095 1275.28 245.062 1276.04 Z" fill="#000000" fill-rule="nonzero" fill-opacity="1" /><path clip-path="url(#clip480)" d="M489.838 1277.85 L519.513 1277.85 L519.513 1281.78 L489.838 1281.78 L489.838 1277.85 Z" fill="#000000" fill-rule="nonzero" fill-opacity="1" /><path clip-path="url(#clip480)" d="M533.634 1290.74 L549.953 1290.74 L549.953 1294.67 L528.009 1294.67 L528.009 1290.74 Q530.671 1287.99 535.254 1283.36 Q539.861 1278.7 541.041 1277.36 Q543.287 1274.84 544.166 1273.1 Q545.069 1271.34 545.069 1269.65 Q545.069 1266.9 543.124 1265.16 Q541.203 1263.42 538.101 1263.42 Q535.902 1263.42 533.449 1264.19 Q531.018 1264.95 528.24 1266.5 L528.24 1261.78 Q531.064 1260.65 533.518 1260.07 Q535.972 1259.49 538.009 1259.49 Q543.379 1259.49 546.574 1262.17 Q549.768 1264.86 549.768 1269.35 Q549.768 1271.48 548.958 1273.4 Q548.171 1275.3 546.064 1277.89 Q545.486 1278.56 542.384 1281.78 Q539.282 1284.98 533.634 1290.74 Z" fill="#000000" fill-rule="nonzero" fill-opacity="1" /><path clip-path="url(#clip480)" d="M787.888 1277.85 L817.564 1277.85 L817.564 1281.78 L787.888 1281.78 L787.888 1277.85 Z" fill="#000000" fill-rule="nonzero" fill-opacity="1" /><path clip-path="url(#clip480)" d="M828.467 1290.74 L836.105 1290.74 L836.105 1264.37 L827.795 1266.04 L827.795 1261.78 L836.059 1260.11 L840.735 1260.11 L840.735 1290.74 L848.374 1290.74 L848.374 1294.67 L828.467 1294.67 L828.467 1290.74 Z" fill="#000000" fill-rule="nonzero" fill-opacity="1" /><path clip-path="url(#clip480)" d="M1116.37 1263.19 Q1112.76 1263.19 1110.93 1266.76 Q1109.12 1270.3 1109.12 1277.43 Q1109.12 1284.54 1110.93 1288.1 Q1112.76 1291.64 1116.37 1291.64 Q1120 1291.64 1121.81 1288.1 Q1123.64 1284.54 1123.64 1277.43 Q1123.64 1270.3 1121.81 1266.76 Q1120 1263.19 1116.37 1263.19 M1116.37 1259.49 Q1122.18 1259.49 1125.23 1264.1 Q1128.31 1268.68 1128.31 1277.43 Q1128.31 1286.16 1125.23 1290.76 Q1122.18 1295.35 1116.37 1295.35 Q1110.56 1295.35 1107.48 1290.76 Q1104.42 1286.16 1104.42 1277.43 Q1104.42 1268.68 1107.48 1264.1 Q1110.56 1259.49 1116.37 1259.49 Z" fill="#000000" fill-rule="nonzero" fill-opacity="1" /><path clip-path="url(#clip480)" d="M1404.98 1290.74 L1412.62 1290.74 L1412.62 1264.37 L1404.31 1266.04 L1404.31 1261.78 L1412.58 1260.11 L1417.25 1260.11 L1417.25 1290.74 L1424.89 1290.74 L1424.89 1294.67 L1404.98 1294.67 L1404.98 1290.74 Z" fill="#000000" fill-rule="nonzero" fill-opacity="1" /><path clip-path="url(#clip480)" d="M1707.49 1290.74 L1723.81 1290.74 L1723.81 1294.67 L1701.87 1294.67 L1701.87 1290.74 Q1704.53 1287.99 1709.11 1283.36 Q1713.72 1278.7 1714.9 1277.36 Q1717.14 1274.84 1718.02 1273.1 Q1718.93 1271.34 1718.93 1269.65 Q1718.93 1266.9 1716.98 1265.16 Q1715.06 1263.42 1711.96 1263.42 Q1709.76 1263.42 1707.31 1264.19 Q1704.87 1264.95 1702.1 1266.5 L1702.1 1261.78 Q1704.92 1260.65 1707.37 1260.07 Q1709.83 1259.49 1711.87 1259.49 Q1717.24 1259.49 1720.43 1262.17 Q1723.62 1264.86 1723.62 1269.35 Q1723.62 1271.48 1722.81 1273.4 Q1722.03 1275.3 1719.92 1277.89 Q1719.34 1278.56 1716.24 1281.78 Q1713.14 1284.98 1707.49 1290.74 Z" fill="#000000" fill-rule="nonzero" fill-opacity="1" /><path clip-path="url(#clip480)" d="M2015.32 1276.04 Q2018.68 1276.76 2020.55 1279.03 Q2022.45 1281.3 2022.45 1284.63 Q2022.45 1289.74 2018.93 1292.55 Q2015.41 1295.35 2008.93 1295.35 Q2006.76 1295.35 2004.44 1294.91 Q2002.15 1294.49 1999.7 1293.63 L1999.7 1289.12 Q2001.64 1290.25 2003.96 1290.83 Q2006.27 1291.41 2008.79 1291.41 Q2013.19 1291.41 2015.48 1289.67 Q2017.8 1287.94 2017.8 1284.63 Q2017.8 1281.57 2015.65 1279.86 Q2013.52 1278.12 2009.7 1278.12 L2005.67 1278.12 L2005.67 1274.28 L2009.88 1274.28 Q2013.33 1274.28 2015.16 1272.92 Q2016.99 1271.53 2016.99 1268.93 Q2016.99 1266.27 2015.09 1264.86 Q2013.21 1263.42 2009.7 1263.42 Q2007.77 1263.42 2005.58 1263.84 Q2003.38 1264.26 2000.74 1265.14 L2000.74 1260.97 Q2003.4 1260.23 2005.71 1259.86 Q2008.05 1259.49 2010.11 1259.49 Q2015.44 1259.49 2018.54 1261.92 Q2021.64 1264.33 2021.64 1268.45 Q2021.64 1271.32 2020 1273.31 Q2018.35 1275.28 2015.32 1276.04 Z" fill="#000000" fill-rule="nonzero" fill-opacity="1" /><polyline clip-path="url(#clip482)" style="stroke:#000000; stroke-linecap:round; stroke-linejoin:round; stroke-width:2; stroke-opacity:0.1; fill:none" points="167.977,1202.08 2064.76,1202.08 "/>
<polyline clip-path="url(#clip482)" style="stroke:#000000; stroke-linecap:round; stroke-linejoin:round; stroke-width:2; stroke-opacity:0.1; fill:none" points="167.977,834.577 2064.76,834.577 "/>
<polyline clip-path="url(#clip482)" style="stroke:#000000; stroke-linecap:round; stroke-linejoin:round; stroke-width:2; stroke-opacity:0.1; fill:none" points="167.977,467.07 2064.76,467.07 "/>
<polyline clip-path="url(#clip482)" style="stroke:#000000; stroke-linecap:round; stroke-linejoin:round; stroke-width:2; stroke-opacity:0.1; fill:none" points="167.977,99.5636 2064.76,99.5636 "/>
<polyline clip-path="url(#clip480)" style="stroke:#000000; stroke-linecap:round; stroke-linejoin:round; stroke-width:4; stroke-opacity:1; fill:none" points="167.977,1234.58 167.977,47.2441 "/>
<polyline clip-path="url(#clip480)" style="stroke:#000000; stroke-linecap:round; stroke-linejoin:round; stroke-width:4; stroke-opacity:1; fill:none" points="167.977,1202.08 186.875,1202.08 "/>
<polyline clip-path="url(#clip480)" style="stroke:#000000; stroke-linecap:round; stroke-linejoin:round; stroke-width:4; stroke-opacity:1; fill:none" points="167.977,834.577 186.875,834.577 "/>
<polyline clip-path="url(#clip480)" style="stroke:#000000; stroke-linecap:round; stroke-linejoin:round; stroke-width:4; stroke-opacity:1; fill:none" points="167.977,467.07 186.875,467.07 "/>
<polyline clip-path="url(#clip480)" style="stroke:#000000; stroke-linecap:round; stroke-linejoin:round; stroke-width:4; stroke-opacity:1; fill:none" points="167.977,99.5636 186.875,99.5636 "/>
<path clip-path="url(#clip480)" d="M124.353 1187.88 Q120.742 1187.88 118.913 1191.45 Q117.108 1194.99 117.108 1202.12 Q117.108 1209.22 118.913 1212.79 Q120.742 1216.33 124.353 1216.33 Q127.987 1216.33 129.793 1212.79 Q131.622 1209.22 131.622 1202.12 Q131.622 1194.99 129.793 1191.45 Q127.987 1187.88 124.353 1187.88 M124.353 1184.18 Q130.163 1184.18 133.219 1188.78 Q136.297 1193.37 136.297 1202.12 Q136.297 1210.84 133.219 1215.45 Q130.163 1220.03 124.353 1220.03 Q118.543 1220.03 115.464 1215.45 Q112.409 1210.84 112.409 1202.12 Q112.409 1193.37 115.464 1188.78 Q118.543 1184.18 124.353 1184.18 Z" fill="#000000" fill-rule="nonzero" fill-opacity="1" /><path clip-path="url(#clip480)" d="M54.8395 847.921 L62.4784 847.921 L62.4784 821.556 L54.1682 823.222 L54.1682 818.963 L62.4321 817.297 L67.108 817.297 L67.108 847.921 L74.7468 847.921 L74.7468 851.857 L54.8395 851.857 L54.8395 847.921 Z" fill="#000000" fill-rule="nonzero" fill-opacity="1" /><path clip-path="url(#clip480)" d="M94.1912 820.375 Q90.5801 820.375 88.7514 823.94 Q86.9458 827.482 86.9458 834.611 Q86.9458 841.718 88.7514 845.283 Q90.5801 848.824 94.1912 848.824 Q97.8254 848.824 99.6309 845.283 Q101.46 841.718 101.46 834.611 Q101.46 827.482 99.6309 823.94 Q97.8254 820.375 94.1912 820.375 M94.1912 816.672 Q100.001 816.672 103.057 821.278 Q106.136 825.861 106.136 834.611 Q106.136 843.338 103.057 847.945 Q100.001 852.528 94.1912 852.528 Q88.381 852.528 85.3023 847.945 Q82.2468 843.338 82.2468 834.611 Q82.2468 825.861 85.3023 821.278 Q88.381 816.672 94.1912 816.672 Z" fill="#000000" fill-rule="nonzero" fill-opacity="1" /><path clip-path="url(#clip480)" d="M124.353 820.375 Q120.742 820.375 118.913 823.94 Q117.108 827.482 117.108 834.611 Q117.108 841.718 118.913 845.283 Q120.742 848.824 124.353 848.824 Q127.987 848.824 129.793 845.283 Q131.622 841.718 131.622 834.611 Q131.622 827.482 129.793 823.94 Q127.987 820.375 124.353 820.375 M124.353 816.672 Q130.163 816.672 133.219 821.278 Q136.297 825.861 136.297 834.611 Q136.297 843.338 133.219 847.945 Q130.163 852.528 124.353 852.528 Q118.543 852.528 115.464 847.945 Q112.409 843.338 112.409 834.611 Q112.409 825.861 115.464 821.278 Q118.543 816.672 124.353 816.672 Z" fill="#000000" fill-rule="nonzero" fill-opacity="1" /><path clip-path="url(#clip480)" d="M58.0571 480.415 L74.3765 480.415 L74.3765 484.35 L52.4321 484.35 L52.4321 480.415 Q55.0941 477.66 59.6775 473.031 Q64.2839 468.378 65.4645 467.035 Q67.7098 464.512 68.5894 462.776 Q69.4922 461.017 69.4922 459.327 Q69.4922 456.572 67.5478 454.836 Q65.6265 453.1 62.5247 453.1 Q60.3256 453.1 57.8719 453.864 Q55.4414 454.628 52.6636 456.179 L52.6636 451.457 Q55.4877 450.322 57.9414 449.744 Q60.395 449.165 62.4321 449.165 Q67.8024 449.165 70.9968 451.85 Q74.1913 454.535 74.1913 459.026 Q74.1913 461.156 73.3811 463.077 Q72.5941 464.975 70.4876 467.568 Q69.9089 468.239 66.807 471.457 Q63.7052 474.651 58.0571 480.415 Z" fill="#000000" fill-rule="nonzero" fill-opacity="1" /><path clip-path="url(#clip480)" d="M94.1912 452.869 Q90.5801 452.869 88.7514 456.434 Q86.9458 459.975 86.9458 467.105 Q86.9458 474.211 88.7514 477.776 Q90.5801 481.318 94.1912 481.318 Q97.8254 481.318 99.6309 477.776 Q101.46 474.211 101.46 467.105 Q101.46 459.975 99.6309 456.434 Q97.8254 452.869 94.1912 452.869 M94.1912 449.165 Q100.001 449.165 103.057 453.772 Q106.136 458.355 106.136 467.105 Q106.136 475.832 103.057 480.438 Q100.001 485.021 94.1912 485.021 Q88.381 485.021 85.3023 480.438 Q82.2468 475.832 82.2468 467.105 Q82.2468 458.355 85.3023 453.772 Q88.381 449.165 94.1912 449.165 Z" fill="#000000" fill-rule="nonzero" fill-opacity="1" /><path clip-path="url(#clip480)" d="M124.353 452.869 Q120.742 452.869 118.913 456.434 Q117.108 459.975 117.108 467.105 Q117.108 474.211 118.913 477.776 Q120.742 481.318 124.353 481.318 Q127.987 481.318 129.793 477.776 Q131.622 474.211 131.622 467.105 Q131.622 459.975 129.793 456.434 Q127.987 452.869 124.353 452.869 M124.353 449.165 Q130.163 449.165 133.219 453.772 Q136.297 458.355 136.297 467.105 Q136.297 475.832 133.219 480.438 Q130.163 485.021 124.353 485.021 Q118.543 485.021 115.464 480.438 Q112.409 475.832 112.409 467.105 Q112.409 458.355 115.464 453.772 Q118.543 449.165 124.353 449.165 Z" fill="#000000" fill-rule="nonzero" fill-opacity="1" /><path clip-path="url(#clip480)" d="M68.1959 98.2094 Q71.5524 98.927 73.4274 101.196 Q75.3255 103.464 75.3255 106.797 Q75.3255 111.913 71.807 114.714 Q68.2885 117.515 61.8071 117.515 Q59.6312 117.515 57.3164 117.075 Q55.0247 116.658 52.571 115.802 L52.571 111.288 Q54.5154 112.422 56.8303 113.001 Q59.1451 113.58 61.6682 113.58 Q66.0663 113.58 68.358 111.844 Q70.6728 110.107 70.6728 106.797 Q70.6728 103.742 68.52 102.029 Q66.3904 100.293 62.571 100.293 L58.5432 100.293 L58.5432 96.4502 L62.7561 96.4502 Q66.2052 96.4502 68.0339 95.0844 Q69.8626 93.6955 69.8626 91.103 Q69.8626 88.4409 67.9645 87.0289 Q66.0895 85.5937 62.571 85.5937 Q60.6497 85.5937 58.4506 86.0104 Q56.2515 86.4271 53.6127 87.3067 L53.6127 83.14 Q56.2747 82.3993 58.5895 82.0289 Q60.9275 81.6586 62.9876 81.6586 Q68.3117 81.6586 71.4135 84.0891 Q74.5153 86.4965 74.5153 90.6169 Q74.5153 93.4872 72.8718 95.4779 Q71.2283 97.4455 68.1959 98.2094 Z" fill="#000000" fill-rule="nonzero" fill-opacity="1" /><path clip-path="url(#clip480)" d="M94.1912 85.3623 Q90.5801 85.3623 88.7514 88.927 Q86.9458 92.4687 86.9458 99.5983 Q86.9458 106.705 88.7514 110.27 Q90.5801 113.811 94.1912 113.811 Q97.8254 113.811 99.6309 110.27 Q101.46 106.705 101.46 99.5983 Q101.46 92.4687 99.6309 88.927 Q97.8254 85.3623 94.1912 85.3623 M94.1912 81.6586 Q100.001 81.6586 103.057 86.265 Q106.136 90.8483 106.136 99.5983 Q106.136 108.325 103.057 112.932 Q100.001 117.515 94.1912 117.515 Q88.381 117.515 85.3023 112.932 Q82.2468 108.325 82.2468 99.5983 Q82.2468 90.8483 85.3023 86.265 Q88.381 81.6586 94.1912 81.6586 Z" fill="#000000" fill-rule="nonzero" fill-opacity="1" /><path clip-path="url(#clip480)" d="M124.353 85.3623 Q120.742 85.3623 118.913 88.927 Q117.108 92.4687 117.108 99.5983 Q117.108 106.705 118.913 110.27 Q120.742 113.811 124.353 113.811 Q127.987 113.811 129.793 110.27 Q131.622 106.705 131.622 99.5983 Q131.622 92.4687 129.793 88.927 Q127.987 85.3623 124.353 85.3623 M124.353 81.6586 Q130.163 81.6586 133.219 86.265 Q136.297 90.8483 136.297 99.5983 Q136.297 108.325 133.219 112.932 Q130.163 117.515 124.353 117.515 Q118.543 117.515 115.464 112.932 Q112.409 108.325 112.409 99.5983 Q112.409 90.8483 115.464 86.265 Q118.543 81.6586 124.353 81.6586 Z" fill="#000000" fill-rule="nonzero" fill-opacity="1" /><polyline clip-path="url(#clip482)" style="stroke:#009af9; stroke-linecap:round; stroke-linejoin:round; stroke-width:4; stroke-opacity:1; fill:none" points="221.66,1200.97 224.642,1200.52 227.625,1196.89 230.607,1194.28 233.589,1191.19 236.572,1190.56 239.554,1188.78 242.536,1186.99 245.519,1186.36 248.501,1183.93 251.483,1182.93 254.466,1179.3 257.448,1175.86 260.43,1175.08 263.413,1173.4 266.395,1170.83 269.378,1170.83 272.36,1170.43 275.342,1169.99 278.325,1169.39 281.307,1166.65 284.289,1164.25 287.272,1162.13 290.254,1162.06 293.236,1158.82 296.219,1156.77 299.201,1154.45 302.183,1154.28 305.166,1152.65 308.148,1150.66 311.131,1147.97 314.113,1147.93 317.095,1146.69 320.078,1144.29 323.06,1140.63 326.042,1138.62 329.025,1136.06 332.007,1135.93 334.989,1132.56 337.972,1129.41 340.954,1128.38 343.936,1125.88 346.919,1124.56 349.901,1122.4 352.883,1122.16 355.866,1119.4 358.848,1117.62 361.831,1116.17 364.813,1115.59 367.795,1112.82 370.778,1109.2 373.76,1108.13 376.742,1105.48 379.725,1105.47 382.707,1104.64 385.689,1102.01 388.672,1100.62 391.654,1100.52 394.636,1099.54 397.619,1099.51 400.601,1095.9 403.584,1094.04 406.566,1093.36 409.548,1091.57 412.531,1089.19 415.513,1086.85 418.495,1086.36 421.478,1083.66 424.46,1080.4 427.442,1078.03 430.425,1075.34 433.407,1072.88 436.389,1070.11 439.372,1067.09 442.354,1065.04 445.337,1061.62 448.319,1058.35 451.301,1056.66 454.284,1054.41 457.266,1053.76 460.248,1051.89 463.231,1050.4 466.213,1050.07 469.195,1048.22 472.178,1046.66 475.16,1046.1 478.142,1042.84 481.125,1040.46 484.107,1038.68 487.09,1036.84 490.072,1035.65 493.054,1035.23 496.037,1035.14 499.019,1032.54 502.001,1030.59 504.984,1029.54 507.966,1028.05 510.948,1026.17 513.931,1025.22 516.913,1022.04 519.895,1019.87 522.878,1017.49 525.86,1016.14 528.843,1013.42 531.825,1009.85 534.807,1009.01 537.79,1008.62 540.772,1006.09 543.754,1003.6 546.737,1003.38 549.719,1001.54 552.701,998.981 555.684,996.649 558.666,995.265 561.648,992.977 564.631,991.333 567.613,987.94 570.595,984.8 573.578,981.571 576.56,978.303 579.543,974.712 582.525,973.822 585.507,970.746 588.49,967.801 591.472,965.321 594.454,963.228 597.437,962.742 600.419,960.204 603.401,959.7 606.384,959.553 609.366,958.042 612.348,955.571 615.331,954.046 618.313,953.725 621.296,953.488 624.278,949.892 627.26,946.744 630.243,944.288 633.225,942.33 636.207,942.076 639.19,938.85 642.172,936.936 645.154,935.335 648.137,934.08 651.119,932.806 654.101,930.922 657.084,930.165 660.066,928.499 663.049,926.25 666.031,925.915 669.013,923.257 671.996,920.103 674.978,916.807 677.96,914.255 680.943,914.03 683.925,911.814 686.907,910.112 689.89,908 692.872,907.509 695.854,905.043 698.837,904.324 701.819,901.46 704.802,899.08 707.784,895.907 710.766,894.939 713.749,891.331 716.731,890.273 719.713,888.896 722.696,887.114 725.678,885.712 728.66,885.001 731.643,882.685 734.625,879.292 737.607,878.674 740.59,878.424 743.572,877.516 746.555,876.439 749.537,874.972 752.519,871.557 755.502,867.886 758.484,864.924 761.466,862.747 764.449,860.526 767.431,858.472 770.413,857.638 773.396,856.909 776.378,855.697 779.36,854.003 782.343,852.425 785.325,851.012 788.307,849.531 791.29,847.085 794.272,845.417 797.255,843.902 800.237,842.214 803.219,840.941 806.202,838.289 809.184,837.735 812.166,834.467 815.149,830.929 818.131,829.599 821.113,829.558 824.096,825.981 827.078,825.768 830.06,823.494 833.043,823.379 836.025,820.112 839.008,817.091 841.99,814.493 844.972,812.226 847.955,811.203 850.937,809.199 853.919,808.21 856.902,808.045 859.884,804.725 862.866,802.465 865.849,799.461 868.831,799.206 871.813,797.015 874.796,796.857 877.778,794.191 880.761,793.36 883.743,792.232 886.725,791.564 889.708,788.322 892.69,787.127 895.672,785.594 898.655,784.214 901.637,783.313 904.619,782.082 907.602,780.02 910.584,778.326 913.566,777.665 916.549,774.491 919.531,773.348 922.514,771.151 925.496,767.51 928.478,766.233 931.461,764.851 934.443,763.063 937.425,761.495 940.408,758.039 943.39,757.011 946.372,755.855 949.355,755.531 952.337,753.326 955.319,750.246 958.302,747.986 961.284,746.343 964.266,745.806 967.249,744.159 970.231,742.374 973.214,739.879 976.196,736.82 979.178,733.701 982.161,731.708 985.143,728.203 988.125,726.74 991.108,725.178 994.09,721.81 997.072,720.678 1000.05,719.657 1003.04,717.341 1006.02,716.782 1009,714.48 1011.98,713.353 1014.97,710.943 1017.95,707.531 1020.93,706.254 1023.91,704.458 1026.9,701.217 1029.88,698.411 1032.86,696.376 1035.84,692.803 1038.83,690.804 1041.81,688.851 1044.79,688.156 1047.77,684.634 1050.75,682.53 1053.74,680.154 1056.72,679.397 1059.7,676.146 1062.68,674.408 1065.67,670.888 1068.65,670.667 1071.63,670.319 1074.61,667.808 1077.6,666.835 1080.58,664.098 1083.56,661.511 1086.54,659.363 1089.53,658.843 1092.51,657.484 1095.49,655.564 1098.47,654.521 1101.45,651.279 1104.44,649.382 1107.42,648.663 1110.4,645.098 1113.38,644.621 1116.37,641.198 1119.35,639.251 1122.33,637.184 1125.31,634.717 1128.3,634.603 1131.28,633.29 1134.26,630.909 1137.24,627.476 1140.23,623.918 1143.21,623.745 1146.19,622.923 1149.17,621.994 1152.15,620.779 1155.14,618.271 1158.12,617.586 1161.1,614.136 1164.08,610.642 1167.07,608.687 1170.05,606.821 1173.03,603.219 1176.01,600.652 1179,600.342 1181.98,599.701 1184.96,598.078 1187.94,597.99 1190.93,597.937 1193.91,595.369 1196.89,592.669 1199.87,590.763 1202.85,589.162 1205.84,588.108 1208.82,586.911 1211.8,585.032 1214.78,581.668 1217.77,579.553 1220.75,579.047 1223.73,577.58 1226.71,575.752 1229.7,573.931 1232.68,573.53 1235.66,570.671 1238.64,568.607 1241.63,567.03 1244.61,565.208 1247.59,564.007 1250.57,562.949 1253.56,562.774 1256.54,560.729 1259.52,558.037 1262.5,554.559 1265.48,553.188 1268.47,551.182 1271.45,549.92 1274.43,548.004 1277.41,546.84 1280.4,543.378 1283.38,542.741 1286.36,539.951 1289.34,537.897 1292.33,535.552 1295.31,534.074 1298.29,531.501 1301.27,530.146 1304.26,527.355 1307.24,525.086 1310.22,524.087 1313.2,520.552 1316.18,519.376 1319.17,518.752 1322.15,516.359 1325.13,515.021 1328.11,514.023 1331.1,510.492 1334.08,508.315 1337.06,506.924 1340.04,503.587 1343.03,501.32 1346.01,497.87 1348.99,496.014 1351.97,495.804 1354.96,492.762 1357.94,489.407 1360.92,489.146 1363.9,486.994 1366.88,483.62 1369.87,480.329 1372.85,478.891 1375.83,477.833 1378.81,476.464 1381.8,473.835 1384.78,472.108 1387.76,471.813 1390.74,470.816 1393.73,468.725 1396.71,467.919 1399.69,465.423 1402.67,464.785 1405.66,462.243 1408.64,460.662 1411.62,459.878 1414.6,456.575 1417.58,453.864 1420.57,453.048 1423.55,451.81 1426.53,448.865 1429.51,447.733 1432.5,445.346 1435.48,445.097 1438.46,442.8 1441.44,439.75 1444.43,439.631 1447.41,438.327 1450.39,436.596 1453.37,433.536 1456.36,431.164 1459.34,429.687 1462.32,426.958 1465.3,423.901 1468.28,420.826 1471.27,419.069 1474.25,415.47 1477.23,413.325 1480.21,411.901 1483.2,409.598 1486.18,408.726 1489.16,406.251 1492.14,403.713 1495.13,402.339 1498.11,401.106 1501.09,399.511 1504.07,398.085 1507.06,397.121 1510.04,395.001 1513.02,394.599 1516,394.02 1518.98,390.493 1521.97,387.159 1524.95,384.954 1527.93,382.089 1530.91,380.767 1533.9,379.038 1536.88,375.597 1539.86,372.535 1542.84,371.46 1545.83,370.623 1548.81,367.608 1551.79,366.442 1554.77,365.685 1557.76,363.874 1560.74,362.157 1563.72,359.747 1566.7,356.533 1569.68,354.212 1572.67,353.42 1575.65,353.046 1578.63,351.211 1581.61,349.083 1584.6,347.113 1587.58,344.121 1590.56,343.218 1593.54,342.279 1596.53,341.701 1599.51,339.738 1602.49,338.468 1605.47,335.618 1608.46,335.531 1611.44,332.929 1614.42,331.885 1617.4,328.455 1620.38,327.832 1623.37,326.541 1626.35,325.906 1629.33,323.975 1632.31,323.093 1635.3,321.985 1638.28,321.314 1641.26,317.876 1644.24,316.629 1647.23,315.908 1650.21,313.593 1653.19,311.939 1656.17,311.661 1659.16,310.837 1662.14,308.126 1665.12,306.659 1668.1,303.605 1671.08,301.567 1674.07,299.038 1677.05,298.633 1680.03,295.209 1683.01,294.864 1686,293.305 1688.98,290.029 1691.96,287.679 1694.94,285.248 1697.93,281.914 1700.91,278.552 1703.89,275.362 1706.87,273.024 1709.86,269.792 1712.84,268.499 1715.82,265.645 1718.8,263.681 1721.78,261.342 1724.77,261.238 1727.75,260.901 1730.73,257.683 1733.71,256.82 1736.7,256.526 1739.68,255.665 1742.66,252.552 1745.64,251.481 1748.63,250.427 1751.61,247.533 1754.59,244.074 1757.57,240.716 1760.56,240.049 1763.54,237.953 1766.52,234.915 1769.5,232.87 1772.49,230.468 1775.47,229.196 1778.45,226.846 1781.43,224.419 1784.41,223.409 1787.4,223.007 1790.38,222.781 1793.36,221.542 1796.34,219.848 1799.33,218.212 1802.31,215.847 1805.29,213.686 1808.27,211.291 1811.26,210.66 1814.24,208.713 1817.22,207.968 1820.2,205.546 1823.19,203.814 1826.17,201.147 1829.15,198.343 1832.13,194.783 1835.11,192.127 1838.1,190.042 1841.08,187.664 1844.06,184.04 1847.04,183.905 1850.03,181.175 1853.01,178.691 1855.99,175.292 1858.97,172.247 1861.96,171.235 1864.94,170.569 1867.92,167.811 1870.9,166.925 1873.89,163.857 1876.87,163.604 1879.85,160.287 1882.83,157.971 1885.81,155.211 1888.8,152.935 1891.78,151.041 1894.76,150.237 1897.74,146.962 1900.73,145.646 1903.71,145.025 1906.69,141.405 1909.67,140.989 1912.66,139.561 1915.64,138.924 1918.62,137.473 1921.6,135.184 1924.59,133.212 1927.57,130.499 1930.55,126.876 1933.53,123.653 1936.51,120.62 1939.5,117.128 1942.48,115.835 1945.46,113.274 1948.44,113.024 1951.43,112.954 1954.41,112.308 1957.39,111.712 1960.37,108.65 1963.36,107.973 1966.34,107.196 1969.32,104.641 1972.3,103.702 1975.29,101.187 1978.27,101.019 1981.25,99.3075 1984.23,97.1402 1987.21,96.9399 1990.2,96.223 1993.18,93.4904 1996.16,92.7138 1999.14,92.6207 2002.13,89.4828 2005.11,87.3962 2008.09,84.1111 2011.07,80.8479 "/>
<path clip-path="url(#clip480)" d="M231.203 190.502 L473.311 190.502 L473.311 86.8219 L231.203 86.8219  Z" fill="#ffffff" fill-rule="evenodd" fill-opacity="1"/>
<polyline clip-path="url(#clip480)" style="stroke:#000000; stroke-linecap:round; stroke-linejoin:round; stroke-width:4; stroke-opacity:1; fill:none" points="231.203,190.502 473.311,190.502 473.311,86.8219 231.203,86.8219 231.203,190.502 "/>
<polyline clip-path="url(#clip480)" style="stroke:#009af9; stroke-linecap:round; stroke-linejoin:round; stroke-width:4; stroke-opacity:1; fill:none" points="252.279,138.662 378.731,138.662 "/>
<path clip-path="url(#clip480)" d="M413.648 158.349 Q411.843 162.979 410.13 164.391 Q408.417 165.803 405.547 165.803 L402.144 165.803 L402.144 162.238 L404.644 162.238 Q406.403 162.238 407.375 161.405 Q408.348 160.572 409.528 157.47 L410.292 155.525 L399.806 130.016 L404.32 130.016 L412.422 150.294 L420.523 130.016 L425.037 130.016 L413.648 158.349 Z" fill="#000000" fill-rule="nonzero" fill-opacity="1" /><path clip-path="url(#clip480)" d="M432.329 152.007 L439.968 152.007 L439.968 125.641 L431.658 127.308 L431.658 123.049 L439.921 121.382 L444.597 121.382 L444.597 152.007 L452.236 152.007 L452.236 155.942 L432.329 155.942 L432.329 152.007 Z" fill="#000000" fill-rule="nonzero" fill-opacity="1" /></svg>
